<svg width="160" height="50" viewBox="0 0 160 50" fill="none" xmlns="http://www.w3.org/2000/svg">
<g clip-path="url(#clip0_500_1742)">
<path d="M63.9124 27.0715L71.2488 24.6443V31.1718C71.2488 34.7317 72.9749 36.1346 75.5104 36.1346C78.4235 36.1346 79.8798 34.3545 79.8798 31.1718V7.59814H87.486V31.3872C87.486 38.6156 82.6311 43.0393 75.4564 43.0393C68.4975 43.0393 63.9124 38.5619 63.9124 31.4409V27.0715Z" fill="white"/>
<path d="M104.531 7.59814C116.56 7.59814 123.357 14.5031 123.357 24.8603C123.357 35.3794 116.398 42.1761 104.531 42.1761H91.9077V7.59814H104.531ZM104.369 35.2714C111.597 35.2714 115.266 31.0638 115.266 24.8603C115.266 18.6568 111.597 14.5031 104.369 14.5031H99.5679V35.2714H104.369Z" fill="white"/>
<path d="M144.68 6.73486C151.423 6.73486 157.518 9.80932 160 14.395L154.12 18.549C152.393 15.6899 149.157 13.8016 145.057 13.8016C138.584 13.8016 134.106 18.279 134.106 24.8602C134.106 31.4414 138.584 35.9185 145.057 35.9185C149.157 35.9185 152.393 34.0307 154.12 31.1717L160 35.3251C157.518 39.9105 151.423 42.9852 144.68 42.9852C134.646 42.9852 126.069 36.0802 126.069 24.8605C126.069 13.6407 134.646 6.73515 144.68 6.73515V6.73486Z" fill="white"/>
<path d="M0.108869 0.0869141L26.707 32.6263L12.615 49.7746H0L14.0326 32.4821L0.0709513 15.402L0.108869 0.0869141Z" fill="#0FB9AA"/>
<path d="M7.72507 24.8279L14.0326 32.482L0 49.7746L0.141615 34.0409L7.72507 24.8279Z" fill="#81C892"/>
<path d="M0.108887 0.0866699H12.5865L53.2253 49.3906H40.4012L0.108887 0.0866699Z" fill="#00B7EE"/>
<path d="M26.6238 17.2435L40.8344 0H53.3988L39.4481 17.1567L53.2253 34.0535V49.3907L26.6238 17.2435Z" fill="#2F81C4"/>
<path d="M53.3987 0L39.448 17.1567L45.7882 24.9332L53.4851 15.4237L53.3987 0Z" fill="#3B63AE"/>
</g>
<defs>
<clipPath id="clip0_500_1742">
<rect width="160" height="49.7745" fill="white"/>
</clipPath>
</defs>
</svg>
