<svg width="73" height="73" viewBox="0 0 73 73" fill="none" xmlns="http://www.w3.org/2000/svg">
<path d="M48.5491 15.7166C48.5535 15.7144 48.5543 15.7084 48.5507 15.705C40.8051 8.49599 28.1147 9.61559 19.64 14.3211C11.1626 19.0281 5.52947 28.8857 6.16099 39.4236C6.33476 42.2884 6.70539 45.0651 7.40721 47.6951C8.16696 50.542 11.3947 51.6409 14.0481 50.3595C16.7501 49.0546 17.8665 45.7472 17.3596 42.7897C17.1719 41.6946 17.0428 40.569 16.9371 39.4236C16.0177 29.4628 25.5234 20.1217 36.0038 21.2956C39.4577 21.6825 43.2081 21.2482 45.6221 18.7478L48.5472 15.718C48.5477 15.7174 48.5484 15.7169 48.5491 15.7166Z" fill="url(#paint0_linear_500_2348)"/>
<path d="M62.5322 54.6641C62.3452 54.6641 62.1583 54.6238 61.9815 54.5381L52.2764 49.8512C51.9733 49.7051 51.7409 49.443 51.6297 49.1205C51.5236 48.803 51.5438 48.4502 51.6954 48.1478C52.9483 45.6532 53.5849 42.962 53.5849 40.1499C53.5849 37.5847 53.0544 35.1103 51.9985 32.792C51.7106 32.157 51.9935 31.4112 52.63 31.1239C53.2666 30.8366 54.0143 31.1239 54.3023 31.7538C55.5047 34.3997 56.1109 37.2219 56.1109 40.1499C56.1109 43.0779 55.5653 45.6028 54.4892 48.1176L61.9259 51.7058C63.5426 48.0672 64.361 44.1867 64.361 40.1499C64.361 30.2823 59.3645 21.2361 50.9932 15.9545C50.4021 15.5816 50.2303 14.8055 50.5991 14.2159C50.973 13.6262 51.751 13.4549 52.3421 13.8228C61.451 19.573 66.8871 29.4104 66.8871 40.1499C66.8871 44.998 65.8009 49.6396 63.6588 53.9535C63.4365 54.397 62.9919 54.654 62.5271 54.654L62.5322 54.6641Z" fill="#0F0F1A"/>
<path d="M39.2831 38.1278C38.9598 38.1278 38.6365 38.0069 38.3889 37.7599C37.8938 37.266 37.8938 36.4698 38.3889 35.9759L52.1356 22.263C52.6308 21.7691 53.429 21.7691 53.9241 22.263C54.4192 22.7569 54.4192 23.5531 53.9241 24.047L40.1774 37.7599C39.9298 38.0069 39.6065 38.1278 39.2831 38.1278Z" fill="#28292B"/>
<path d="M44.031 56.6735H27.3338C26.6366 56.6735 26.0708 56.1091 26.0708 55.4136C26.0708 54.7181 26.6366 54.1537 27.3338 54.1537H44.031C44.7282 54.1537 45.294 54.7181 45.294 55.4136C45.294 56.1091 44.7282 56.6735 44.031 56.6735Z" fill="#28292B"/>
<path d="M56.7113 62.4046H14.6527C13.9555 62.4046 13.3896 61.8401 13.3896 61.1447C13.3896 60.4492 13.9555 59.8848 14.6527 59.8848H56.7113C57.4086 59.8848 57.9744 60.4492 57.9744 61.1447C57.9744 61.8401 57.4086 62.4046 56.7113 62.4046Z" fill="#28292B"/>
<path d="M35.6819 45.0381C32.9841 45.0381 30.7915 42.8509 30.7915 40.1598C30.7915 37.4686 32.9841 35.2814 35.6819 35.2814C38.3797 35.2814 40.5724 37.4686 40.5724 40.1598C40.5724 42.8509 38.3797 45.0381 35.6819 45.0381Z" fill="url(#paint1_linear_500_2348)"/>
<defs>
<linearGradient id="paint0_linear_500_2348" x1="22.8071" y1="72.3632" x2="67.3988" y2="36.0637" gradientUnits="userSpaceOnUse">
<stop stop-color="#9358F7"/>
<stop offset="0.259732" stop-color="#7B78F2"/>
<stop offset="0.500607" stop-color="#6197EE"/>
<stop offset="0.766547" stop-color="#45B5E9"/>
<stop offset="1" stop-color="#10D7E2"/>
</linearGradient>
<linearGradient id="paint1_linear_500_2348" x1="34.6385" y1="49.5983" x2="44.955" y2="41.2422" gradientUnits="userSpaceOnUse">
<stop stop-color="#9358F7"/>
<stop offset="0.259732" stop-color="#7B78F2"/>
<stop offset="0.500607" stop-color="#6197EE"/>
<stop offset="0.766547" stop-color="#45B5E9"/>
<stop offset="1" stop-color="#10D7E2"/>
</linearGradient>
</defs>
</svg>
