<svg width="57" height="57" viewBox="0 0 57 57" fill="none" xmlns="http://www.w3.org/2000/svg">
<path d="M0 0V57H57V0H0ZM2.37547 2.43247H54.6259V54.5675H2.37547V2.43247Z" fill="#EE409D"/>
<path d="M2.37549 2.43262H54.626V54.5677H2.37549V2.43262Z" fill="#31041F"/>
<path d="M41.4007 23.95C40.9589 23.7819 40.4844 23.7135 40.0142 23.7505C37.0217 23.7505 35.0267 26.116 35.0267 30.0305C35.0267 34.515 37.0772 36.319 39.7762 36.319C40.3334 36.3333 40.8877 36.2435 41.4107 36.0525V23.95H41.4007ZM30.7517 30.1816C30.7517 24.4816 34.3142 20.074 40.1652 20.074C40.5785 20.0655 40.9903 20.0811 41.3993 20.121V13.7841C41.3993 13.653 41.5061 13.5461 41.6387 13.5461H45.4377C45.6272 13.5461 45.6743 13.6116 45.6743 13.7356V36.0027C45.66 36.8007 45.7028 37.5958 45.7997 38.3867C45.7997 38.5591 45.7997 38.5876 45.6557 38.6546C43.7605 39.5851 41.6772 40.0682 39.5667 40.0696C34.4182 40.0696 30.7317 36.8007 30.7317 30.1801L30.7517 30.1816ZM22.6577 26.2386L29.3081 39.4626C29.4321 39.6521 29.3081 39.8516 29.1656 39.8516H25.0331C24.8151 39.8773 24.6099 39.7462 24.5387 39.5367C23.0182 36.3133 21.4664 32.976 19.8832 29.526H19.8362C18.4112 32.7836 16.8437 36.3461 15.3232 39.5566C15.2491 39.7248 15.0795 39.8302 14.8957 39.8245H10.9442C10.7062 39.8245 10.6877 39.6336 10.8017 39.4825L17.3182 26.6476L11.0197 13.8881C10.9356 13.8012 10.937 13.6629 11.024 13.5789C11.0681 13.5361 11.1294 13.5133 11.1907 13.5176H15.2762C15.5141 13.5176 15.6282 13.5176 15.7037 13.7841C17.1957 17.0231 18.7147 20.2151 20.1397 23.484H20.1867C21.5647 20.2635 23.0852 17.0245 24.5387 13.8325C24.6527 13.643 24.7282 13.519 24.9662 13.519H28.7666C28.9562 13.519 29.0331 13.6615 28.9092 13.8895L22.6391 26.24L22.6577 26.2386Z" fill="#F22B92"/>
</svg>
