<svg width="57" height="57" viewBox="0 0 57 57" fill="none" xmlns="http://www.w3.org/2000/svg">
<path d="M2.37549 2.43262H54.626V54.5677H2.37549V2.43262Z" fill="url(#paint0_radial_1021_878)"/>
<path d="M2.37547 2.43247H54.6259V54.5675H2.37547V2.43247ZM0 57H57V0H0V57ZM37.335 20.3205C37.335 20.121 37.4006 20.0255 37.62 20.0255H41.3521C41.543 20.0255 41.6385 20.101 41.6385 20.3205V39.5494C41.6385 39.7489 41.6385 39.833 41.3521 39.833H37.667C37.429 39.833 37.3521 39.719 37.3521 39.5195V20.3205H37.335ZM37.05 14.7829C37.05 13.4449 38.133 12.359 39.4711 12.3576C40.8077 12.3576 41.8936 13.4406 41.895 14.7787C41.895 14.7787 41.895 14.7801 41.895 14.7815C42.0033 16.0469 41.0656 17.1599 39.8002 17.2696C39.6748 17.2796 39.548 17.281 39.4226 17.271C38.1772 17.3408 37.1098 16.3861 37.04 15.1392C37.0343 15.0209 37.0372 14.9012 37.05 14.7829ZM26.391 28.329C25.7255 25.6215 24.1495 19.779 23.541 16.929H23.494C22.9895 19.779 21.737 24.5955 20.738 28.376L26.391 28.329ZM19.7419 32.2705L17.8424 39.5765C17.7954 39.776 17.7284 39.8245 17.4905 39.8245H14.0705C13.8325 39.8245 13.7855 39.7575 13.8325 39.4625L20.577 15.256C20.7437 14.592 20.8235 13.908 20.815 13.2226C20.815 13.0516 20.8919 12.9846 21.0145 12.9846H26.002C26.173 12.9846 26.2399 13.0316 26.287 13.2226L33.8381 39.5095C33.8851 39.7105 33.838 39.8245 33.6485 39.8245H29.7055C29.5146 39.8245 29.4006 39.776 29.3536 39.605L27.454 32.272L19.7419 32.2705Z" fill="#F77F1B"/>
<defs>
<radialGradient id="paint0_radial_1021_878" cx="0" cy="0" r="1" gradientUnits="userSpaceOnUse" gradientTransform="translate(20.4355 20.5934) scale(41.2117 40.9247)">
<stop stop-color="#423325" stop-opacity="0.98"/>
<stop offset="1" stop-color="#1B0B09"/>
</radialGradient>
</defs>
</svg>
