<svg width="59" height="57" viewBox="0 0 59 57" fill="none" xmlns="http://www.w3.org/2000/svg">
<path d="M2.43237 2.43213H56.052V54.569H2.43237V2.43213Z" fill="url(#paint0_radial_1021_895)"/>
<path d="M2.43227 2.43227H56.0519V54.5692H2.43227V2.43227ZM0 57H58.4542V0H0V57ZM39.4167 23.3888C37.5162 23.3888 36.8404 24.3398 36.8404 25.1752C36.8404 26.0107 37.2781 26.658 39.8615 28.0252C43.6625 29.9243 44.8772 31.6551 44.8772 34.257C44.8772 38.1621 41.9046 40.2507 37.8855 40.2507C36.1604 40.3177 34.4452 39.9627 32.8883 39.2157C32.7173 39.1401 32.6887 39.0161 32.6887 38.8264V35.198C32.6887 34.9499 32.8128 34.8829 32.9853 34.997C34.4481 35.9379 36.1489 36.4384 37.8869 36.4412C39.7874 36.4412 40.6129 35.6343 40.6129 34.5422C40.6129 33.6682 40.0526 32.8883 37.5918 31.6152C34.1344 29.9628 32.6902 28.2904 32.6902 25.4789C32.6902 22.3338 35.1524 19.7219 39.4181 19.7219C40.9023 19.6592 42.3836 19.8915 43.7779 20.4048C43.9476 20.5089 44.0431 20.7014 44.0246 20.8981V24.2328C44.0246 24.4324 43.902 24.5465 43.6639 24.4795C42.3693 23.7452 40.9037 23.3689 39.4167 23.3888ZM18.5157 26.2873H20.4818C23.3318 26.2873 26.0093 25.3378 26.0093 21.4142C26.0093 18.3176 24.1102 16.7593 20.8411 16.7593C19.8901 16.7593 18.9406 16.7593 18.4943 16.8348V26.2402L18.5157 26.2873ZM14.1274 13.3575C14.1274 13.1779 14.4696 13.0638 14.6692 13.0638C16.226 12.9868 18.5457 12.9497 20.948 12.9497C27.693 12.9497 30.3249 16.6452 30.3249 21.3672C30.3249 27.5505 25.841 30.2109 20.3406 30.2109C19.3897 30.2109 19.096 30.1638 18.4402 30.1638V39.5122C18.4402 39.7132 18.3646 39.8059 18.145 39.8059H14.4211C14.2215 39.8059 14.1274 39.7303 14.1274 39.5122V13.3575Z" fill="#28ACCC"/>
<defs>
<radialGradient id="paint0_radial_1021_895" cx="0" cy="0" r="1" gradientUnits="userSpaceOnUse" gradientTransform="translate(26.5364 20.8867) scale(39.4636 38.2081)">
<stop stop-color="#34364E" stop-opacity="0.98"/>
<stop offset="1" stop-color="#0E0924"/>
</radialGradient>
</defs>
</svg>
