<svg width="74" height="60" viewBox="0 0 74 60" fill="none" xmlns="http://www.w3.org/2000/svg">
<g clip-path="url(#clip0_500_1799)">
<path d="M30.6425 56.1767H0.971397C0.434899 56.1767 0 55.7417 0 55.2053C0 54.6688 0.434899 54.2339 0.971397 54.2339H30.6425C43.5996 54.2339 54.1417 43.6918 54.1417 30.7347C54.1417 17.7776 43.5996 7.23478 30.6425 7.23478C17.6854 7.23478 7.14331 17.7762 7.14331 30.734C7.14331 36.3496 9.15627 41.7848 12.8102 46.0387C13.1603 46.4459 13.1135 47.0591 12.7071 47.4092C12.3007 47.7593 11.6867 47.7133 11.3366 47.3047C7.3794 42.6992 5.20052 36.8138 5.20052 30.734C5.19979 16.7046 16.6132 5.29126 30.6425 5.29126C44.6718 5.29126 56.0852 16.7046 56.0852 30.734C56.0852 44.7633 44.6718 56.1767 30.6425 56.1767Z" fill="#141414"/>
<path d="M61.6608 56.1764H47.9253C47.388 56.1764 46.9539 55.7415 46.9539 55.205C46.9539 54.6685 47.3888 54.2336 47.9253 54.2336H61.6608C62.198 54.2336 62.6322 54.6685 62.6322 55.205C62.6322 55.7415 62.1973 56.1764 61.6608 56.1764Z" fill="#141414"/>
<path d="M58.2961 59.9999C57.9723 59.9999 57.6558 59.8384 57.4716 59.5438C57.1866 59.0884 57.3255 58.4884 57.7801 58.2048L62.6758 55.1451L57.7253 51.5563C57.2904 51.2413 57.1939 50.6339 57.5089 50.199C57.8232 49.7655 58.4292 49.6654 58.8662 49.9826L64.9841 54.4178C65.2457 54.6079 65.3956 54.9149 65.3846 55.2379C65.3744 55.5617 65.2034 55.8578 64.9293 56.0288L58.8114 59.8523C58.6514 59.9531 58.473 60.0006 58.2969 60.0006L58.2961 59.9999Z" fill="#141414"/>
<path d="M12.2643 48.3169C12.1334 48.3169 12.0019 48.2906 11.8783 48.2373L5.25836 45.3699C4.76572 45.1564 4.53986 44.5841 4.75329 44.0915C4.96599 43.5988 5.5383 43.3723 6.03095 43.5857L11.3279 45.8801L11.4741 39.7681C11.4866 39.2316 11.947 38.8354 12.4689 38.8193C13.0054 38.8325 13.4301 39.2776 13.4169 39.8141L13.2364 47.3689C13.2291 47.6927 13.061 47.9902 12.7891 48.1649C12.6305 48.2665 12.4477 48.3177 12.265 48.3177L12.2643 48.3169Z" fill="#141414"/>
<path d="M61.1388 24.418C60.6015 24.418 60.0628 24.3822 59.5249 24.3106C58.9935 24.2397 58.6193 23.75 58.6909 23.2186C58.7625 22.6872 59.2486 22.3166 59.7829 22.3846C62.2103 22.7113 64.6815 22.1515 66.7391 20.8131C71.4835 17.7257 72.8321 11.3535 69.7454 6.60837C66.6587 1.86322 60.2858 0.514669 55.5392 3.60136C50.794 6.68878 49.4462 13.061 52.5329 17.8061C52.826 18.2556 52.6981 18.8579 52.2485 19.151C51.7998 19.4434 51.1967 19.3155 50.9044 18.866C47.2329 13.2225 48.8366 5.64429 54.4801 1.97213C60.1213 -1.69857 67.701 -0.095652 71.3731 5.54854C75.0446 11.192 73.4409 18.7702 67.7975 22.4424C65.8064 23.7376 63.4894 24.418 61.1388 24.418Z" fill="#141414"/>
<path d="M62.1074 26.2445C61.9232 26.2445 61.7361 26.1926 61.5709 26.0829L58.8095 24.2527C58.5397 24.0744 58.3775 23.7732 58.3746 23.4501C58.3716 23.1271 58.5302 22.823 58.797 22.641L61.6601 20.6792C62.1045 20.3759 62.7075 20.4899 63.0115 20.9314C63.3141 21.3743 63.2016 21.9788 62.7594 22.2829L61.0855 23.4289L62.6453 24.4625C63.0927 24.7592 63.2147 25.3622 62.9187 25.8088C62.7316 26.091 62.4224 26.2445 62.1074 26.2445Z" fill="#141414"/>
<path d="M31.3867 40.1883C28.9352 40.1883 26.5721 39.1599 24.9027 37.3662C21.5762 33.7927 21.7787 28.1785 25.3522 24.8528C26.996 23.323 29.1384 22.4802 31.3823 22.4802C33.8338 22.4802 36.1962 23.5086 37.8656 25.3023C39.4773 27.0339 40.3178 29.2888 40.2323 31.6526C40.1483 34.0156 39.1476 36.2048 37.4161 37.8164C35.7722 39.3463 33.6306 40.1883 31.3867 40.1883ZM31.383 24.4237C31.383 24.4233 31.3827 24.423 31.3823 24.423C29.6305 24.4232 27.9599 25.081 26.6766 26.2752C23.8874 28.8707 23.7295 33.2526 26.3258 36.0418C27.629 37.4415 29.4731 38.2455 31.3874 38.2455C33.1387 38.2455 34.8103 37.5877 36.0931 36.3933C37.4446 35.1362 38.2252 33.428 38.2917 31.5831C38.3582 29.7383 37.7011 27.9782 36.4439 26.6268C35.1219 25.2067 33.3248 24.4247 31.3838 24.4245C31.3834 24.4245 31.383 24.4242 31.383 24.4237V24.4237Z" fill="url(#paint0_linear_500_1799)"/>
<path d="M32.4676 48.5895C32.4559 48.5895 32.3887 48.5888 32.377 48.5873L29.2077 48.4733C27.8102 48.4228 26.7145 47.2475 26.7642 45.8529L26.766 45.8018C26.7936 45.0362 26.3145 44.3525 25.6175 44.0345V44.0345C24.9211 43.7167 24.09 43.8017 23.5299 44.3235L23.4926 44.3582C22.5088 45.2726 20.8276 45.2097 19.9118 44.2244L17.7512 41.9045C17.29 41.4089 17.0488 40.7635 17.0722 40.0881C17.0956 39.4106 17.3813 38.7842 17.8762 38.3229L17.9132 38.2885C18.4732 37.7674 18.6178 36.946 18.3511 36.2291V36.2291C18.084 35.5109 17.4362 34.9828 16.6705 34.9552L16.6197 34.9534C15.2244 34.903 14.1309 33.7247 14.1814 32.3279L14.2954 29.1594C14.3451 27.7882 15.4554 26.7137 16.8244 26.7137L16.9656 26.7187C17.732 26.7457 18.4164 26.2653 18.7345 25.5675V25.5675C19.0519 24.8713 18.9663 24.0413 18.4453 23.481L18.4105 23.4435C17.9493 22.948 17.7095 22.3026 17.7351 21.6257C17.76 20.9504 18.0479 20.324 18.5435 19.8628L20.8635 17.7029C21.8487 16.7863 23.5306 16.8455 24.4443 17.8279L24.479 17.8651C25.0004 18.425 25.8216 18.5697 26.5387 18.303V18.303C27.2569 18.036 27.7851 17.3881 27.8127 16.6223L27.8145 16.5714C27.8642 15.2031 28.9767 14.1309 30.3487 14.1309L33.6093 14.2463C35.0068 14.2968 36.1025 15.4728 36.0528 16.8667L36.0509 16.9177C36.0234 17.6837 36.5038 18.368 37.2013 18.6859V18.6859C37.8972 19.0031 38.7267 18.918 39.2868 18.3972L39.3244 18.3622C40.3082 17.4463 41.9893 17.5106 42.9059 18.4945L45.0658 20.8159C46.0174 21.8399 45.9626 23.4457 44.9415 24.3967L44.9029 24.4326C44.343 24.9537 44.1983 25.7752 44.4654 26.492V26.492C44.733 27.2103 45.3809 27.7383 46.1469 27.7659L46.1973 27.7677C46.8726 27.7918 47.499 28.0791 47.9602 28.5754C48.4193 29.0717 48.6597 29.7171 48.6349 30.3939L48.5209 33.5632C48.4712 34.9344 47.3609 36.0074 45.9941 36.0074L45.8501 36.0023C45.0844 35.9753 44.4009 36.4551 44.0829 37.1522V37.1522C43.7651 37.849 43.8503 38.6803 44.3722 39.2408L44.4065 39.2775C45.1601 40.0881 45.3011 41.2817 44.7566 42.2465C44.7069 42.3343 44.6455 42.4125 44.5724 42.4812L41.2738 45.5503C41.1342 45.679 40.9617 45.7645 40.7745 45.7959C39.98 45.9392 38.986 45.5518 38.372 44.8932L38.3372 44.8558C37.8159 44.2956 36.9944 44.1508 36.2773 44.4178V44.4178C35.5592 44.6851 35.0311 45.333 35.0035 46.0987L35.0017 46.1497C34.952 47.518 33.8388 48.5895 32.4676 48.5895ZM24.35 41.2616C24.3497 41.2621 24.35 41.2627 24.3506 41.2627C24.5328 41.263 24.7158 41.3141 24.877 41.4191C25.8688 42.0623 26.9455 42.5535 28.0769 42.8781C28.5067 43.0001 28.7962 43.4007 28.7808 43.8473L28.7063 45.9245C28.6946 46.2483 28.9511 46.5202 29.2779 46.5327L31.4754 46.6118C32.0205 46.6314 32.4557 47.0728 32.4676 47.6181V47.6181V47.5532C32.4676 47.0526 33.0424 46.5806 33.0596 46.0802V46.0802L33.1342 44.0037C33.1503 43.5578 33.4682 43.1799 33.9046 43.0878C35.0595 42.8437 36.1683 42.4322 37.2003 41.8628C37.5899 41.6472 38.0774 41.7254 38.3815 42.0507L39.7944 43.5688V43.5688C40.0206 43.8132 40.4008 43.7074 40.6446 43.4805L42.6518 41.6129C42.9528 41.3328 43.265 40.9023 42.9834 40.6027V40.6027L41.5698 39.0846C41.2672 38.7578 41.2233 38.2674 41.466 37.8939C42.1085 36.902 42.5997 35.8254 42.9256 34.6932C43.0484 34.2641 43.4373 33.9557 43.8934 33.9908L45.9699 34.0646C46.3098 34.0646 46.5664 33.8132 46.5788 33.493L46.6928 30.3237C46.6987 30.1651 46.6424 30.0138 46.5342 29.8976C46.4282 29.7828 46.2828 29.7156 46.1264 29.7105L44.0498 29.6359C43.6039 29.6198 43.2261 29.3019 43.134 28.8648C42.8913 27.7107 42.4783 26.6019 41.9082 25.5683C41.6926 25.178 41.7715 24.6912 42.0982 24.3879L43.6178 22.9743C43.8539 22.7536 43.8656 22.3801 43.6427 22.1403L41.4828 19.8189C41.2672 19.5872 40.8791 19.5711 40.6495 19.7853L39.1314 21.1982C38.804 21.5022 38.3128 21.5446 37.9408 21.3019C36.9503 20.6602 35.8737 20.169 34.74 19.843C34.311 19.7195 34.0215 19.3204 34.0376 18.8745L34.1122 16.798C34.1239 16.4742 33.8673 16.2008 33.5406 16.1891L30.372 16.0751C30.03 16.0751 29.7705 16.3236 29.7588 16.6408L29.6842 18.7174C29.6682 19.164 29.3502 19.5412 28.9138 19.6332C27.7583 19.8766 26.6495 20.2889 25.6174 20.8575C25.2263 21.0732 24.7403 20.995 24.4369 20.669L23.0241 19.1508C22.8106 18.9206 22.4218 18.9096 22.1894 19.1245L19.8687 21.2851C19.7517 21.394 19.6845 21.5402 19.6786 21.6981C19.6728 21.8545 19.7283 22.0044 19.8343 22.1184L21.2472 23.6365C21.5513 23.9625 21.5937 24.4537 21.351 24.8272C20.7085 25.8176 20.2181 26.895 19.8928 28.0279C19.77 28.4569 19.3746 28.7544 18.9236 28.731L16.847 28.6558C16.5086 28.6558 16.2506 28.9065 16.2396 29.2273L16.1256 32.3966C16.1139 32.7233 16.3676 32.9982 16.6914 33.0106L18.7679 33.0844C19.2138 33.0998 19.5924 33.4177 19.6845 33.8548C19.9272 35.0075 20.3394 36.117 20.9102 37.1513C21.1251 37.5416 21.0477 38.0284 20.7209 38.3317L19.2028 39.7446C19.0881 39.8506 19.0223 39.996 19.0164 40.1524C19.0113 40.3111 19.0676 40.4616 19.1758 40.5778L21.3364 42.8993C21.552 43.1324 21.9401 43.147 22.1704 42.9336L23.6885 41.5207C23.8731 41.3493 24.1101 41.2609 24.3494 41.2605C24.3499 41.2605 24.3503 41.2612 24.35 41.2616V41.2616Z" fill="url(#paint1_linear_500_1799)"/>
</g>
<defs>
<linearGradient id="paint0_linear_500_1799" x1="29.4974" y1="48.466" x2="48.2117" y2="33.3496" gradientUnits="userSpaceOnUse">
<stop stop-color="#9358F7"/>
<stop offset="0.259732" stop-color="#7B78F2"/>
<stop offset="0.500607" stop-color="#6197EE"/>
<stop offset="0.766547" stop-color="#45B5E9"/>
<stop offset="1" stop-color="#10D7E2"/>
</linearGradient>
<linearGradient id="paint1_linear_500_1799" x1="27.7321" y1="64.6952" x2="64.1488" y2="35.2733" gradientUnits="userSpaceOnUse">
<stop stop-color="#9358F7"/>
<stop offset="0.259732" stop-color="#7B78F2"/>
<stop offset="0.500607" stop-color="#6197EE"/>
<stop offset="0.766547" stop-color="#45B5E9"/>
<stop offset="1" stop-color="#10D7E2"/>
</linearGradient>
<clipPath id="clip0_500_1799">
<rect width="73.3452" height="60" fill="white"/>
</clipPath>
</defs>
</svg>
