<svg width="60" height="60" viewBox="0 0 60 60" fill="none" xmlns="http://www.w3.org/2000/svg">
<mask id="path-1-inside-1_12004_100781" fill="white">
<path d="M50 40.0001C50 37.4045 49.4827 34.8344 48.4776 32.4364C47.4725 30.0385 45.9993 27.8596 44.1421 26.0243C42.285 24.189 40.0802 22.7331 37.6537 21.7398C35.2272 20.7466 32.6264 20.2354 30 20.2354C27.3736 20.2354 24.7728 20.7466 22.3463 21.7399C19.9198 22.7331 17.715 24.189 15.8579 26.0243C14.0007 27.8596 12.5275 30.0385 11.5224 32.4364C10.5173 34.8344 10 37.4045 10 40.0001L50 40.0001Z"/>
</mask>
<path d="M50 40.0001L50 42.0001L52 42.0001V40.0001H50ZM30 20.2354L30 22.2354L30 20.2354ZM10 40.0001L8 40.0001L8 42.0001L10 42.0001L10 40.0001ZM52 40.0001C52 37.1386 51.4296 34.3057 50.3221 31.6633L46.6331 33.2096C47.5357 35.3631 48 37.6705 48 40.0001H52ZM50.3221 31.6633C49.2146 29.021 47.5919 26.6217 45.548 24.6017L42.7363 27.4469C44.4067 29.0976 45.7304 31.0559 46.6331 33.2096L50.3221 31.6633ZM45.548 24.6017C43.504 22.5818 41.0788 20.9808 38.4113 19.8889L36.896 23.5908C39.0816 24.4854 41.0659 25.7961 42.7363 27.4469L45.548 24.6017ZM38.4113 19.8889C35.7439 18.797 32.8858 18.2354 30 18.2354L30 22.2354C32.3671 22.2354 34.7104 22.6961 36.896 23.5908L38.4113 19.8889ZM30 18.2354C27.1142 18.2354 24.2561 18.797 21.5887 19.8889L23.104 23.5908C25.2896 22.6961 27.6329 22.2354 30 22.2354L30 18.2354ZM21.5887 19.8889C18.9212 20.9808 16.496 22.5818 14.452 24.6017L17.2637 27.4469C18.9341 25.7961 20.9184 24.4854 23.104 23.5908L21.5887 19.8889ZM14.452 24.6017C12.408 26.6217 10.7854 29.021 9.67788 31.6633L13.3669 33.2096C14.2696 31.0559 15.5933 29.0976 17.2637 27.4469L14.452 24.6017ZM9.67788 31.6633C8.57035 34.3057 8 37.1386 8 40.0001L12 40.0001C12 37.6705 12.4643 35.3631 13.3669 33.2096L9.67788 31.6633ZM10 42.0001L50 42.0001L50 38.0001L10 38.0001L10 42.0001Z" fill="#2E2E2E" mask="url(#path-1-inside-1_12004_100781)"/>
<ellipse cx="24.375" cy="31.9706" rx="1.875" ry="1.85294" fill="#2E2E2E"/>
<ellipse cx="35.625" cy="31.9706" rx="1.875" ry="1.85294" fill="#2E2E2E"/>
<line x1="1" y1="-1" x2="6.94662" y2="-1" transform="matrix(0.629198 0.777245 -0.784457 0.620183 15 19)" stroke="#2E2E2E" stroke-width="2" stroke-linecap="round"/>
<line x1="1" y1="-1" x2="6.94662" y2="-1" transform="matrix(-0.629198 0.777245 0.784457 0.620183 45 19)" stroke="#2E2E2E" stroke-width="2" stroke-linecap="round"/>
</svg>
