<svg width="41" height="41" fill="none" xmlns="http://www.w3.org/2000/svg"><path d="M31.998 21.396c-.02-3.278 1.461-5.75 4.45-7.571-1.671-2.404-4.2-3.726-7.535-3.98-3.157-.25-6.612 1.845-7.877 1.845-1.336 0-4.393-1.76-6.798-1.76C9.275 10.009 4 13.903 4 21.825c0 2.342.426 4.76 1.28 7.25 1.14 3.279 5.25 11.312 9.538 11.182 2.242-.053 3.828-1.596 6.745-1.596 2.832 0 4.298 1.596 6.799 1.596 4.326-.062 8.044-7.365 9.126-10.653-5.801-2.745-5.49-8.038-5.49-8.207zM26.963 6.734C29.392 3.84 29.17 1.205 29.099.258c-2.146.125-4.628 1.466-6.04 3.115-1.558 1.77-2.473 3.957-2.277 6.423 2.32.178 4.437-1.02 6.18-3.062z" fill="#2E2E2E"/></svg>