<svg width="48" height="48" viewBox="0 0 48 48" fill="none" xmlns="http://www.w3.org/2000/svg">
<path fill-rule="evenodd" clip-rule="evenodd" d="M17 6C17 4.34315 18.3431 3 20 3H27C28.6569 3 30 4.34315 30 6C30 7.65685 28.6569 9 27 9H20C18.3431 9 17 7.65685 17 6ZM20 5C19.4477 5 19 5.44772 19 6C19 6.55228 19.4477 7 20 7H27C27.5523 7 28 6.55228 28 6C28 5.44772 27.5523 5 27 5H20Z" fill="#2E2E2E"/>
<path fill-rule="evenodd" clip-rule="evenodd" d="M19.7153 16.6988L16.0816 20.4363L13.2812 17.556L14.7153 16.1618L16.0816 17.5672L18.2812 15.3047L19.7153 16.6988ZM19.7153 23.6988L16.0816 27.4363L13.2812 24.556L14.7153 23.1618L16.0816 24.5672L18.2812 22.3047L19.7153 23.6988ZM16.0816 34.4363L19.7153 30.6988L18.2812 29.3047L16.0816 31.5672L14.7153 30.1618L13.2812 31.556L16.0816 34.4363Z" fill="url(#paint0_linear_1069_2258)"/>
<path fill-rule="evenodd" clip-rule="evenodd" d="M12 7H18.2676C18.6134 7.5978 19.2597 8 20 8H27C27.7403 8 28.3866 7.5978 28.7324 7H35C36.1046 7 37 7.89543 37 9V41C37 42.1046 36.1046 43 35 43H12C10.8954 43 10 42.1046 10 41V9C10 7.89543 10.8954 7 12 7ZM35 5H28.7324C28.3866 4.4022 27.7403 4 27 4H20C19.2597 4 18.6134 4.4022 18.2676 5H12C9.79086 5 8 6.79086 8 9V41C8 43.2091 9.79086 45 12 45H35C37.2091 45 39 43.2091 39 41V9C39 6.79086 37.2091 5 35 5ZM22 19H33V17H22V19ZM33 26H22V24H33V26ZM22 33H33V31H22V33Z" fill="#2E2E2E"/>
<defs>
<linearGradient id="paint0_linear_1069_2258" x1="15.8118" y1="43.3782" x2="26.2776" y2="40.5345" gradientUnits="userSpaceOnUse">
<stop stop-color="#9358F7"/>
<stop offset="0.259732" stop-color="#7B78F2"/>
<stop offset="0.500607" stop-color="#6197EE"/>
<stop offset="0.766547" stop-color="#45B5E9"/>
<stop offset="1" stop-color="#10D7E2"/>
</linearGradient>
</defs>
</svg>
