<svg width="51" height="57" viewBox="0 0 51 57" fill="none" xmlns="http://www.w3.org/2000/svg">
<path fill-rule="evenodd" clip-rule="evenodd" d="M45.4369 5.92381C45.0556 5.12017 44.2516 4.63965 43.2736 4.63965H39.494C38.3999 4.63965 37.5793 5.07875 37.14 5.8741L31.5369 14.0513L36.4437 20.7537L45.0059 8.47555C45.9508 7.3488 45.6193 6.31319 45.4369 5.92381Z" fill="#74BB11"/>
<path fill-rule="evenodd" clip-rule="evenodd" d="M15.9045 5.79125C15.0507 4.63965 13.9152 4.63965 13.5339 4.63965H9.83718C8.89227 4.63965 8.11314 5.07875 7.70699 5.83267C7.29256 6.61145 7.37545 7.53936 7.95565 8.40099L21.6485 27.3734L5.90007 49.3283C5.35302 50.1568 5.27013 51.0681 5.68456 51.8469C6.09071 52.6008 6.86984 53.0399 7.81475 53.0399H11.5944C12.5641 53.0399 13.4179 52.5346 13.8489 51.7392L31.4788 27.4645L15.9045 5.79125Z" fill="#009CD9"/>
<path fill-rule="evenodd" clip-rule="evenodd" d="M47.3184 49.5272L36.3276 34.457L31.4954 41.1181L40.1819 52.7086L40.4057 52.808C40.7538 52.9655 41.1268 53.0483 41.4998 53.0483H45.1965C46.0917 53.0483 46.8459 52.6506 47.2769 51.963C47.7245 51.2505 47.7328 50.364 47.3184 49.5272Z" fill="#EB2084"/>
</svg>
