<svg width="100" height="100" viewBox="0 0 100 100" fill="none" xmlns="http://www.w3.org/2000/svg">
<g clip-path="url(#clip0_1120_649)">
<path d="M3.53906 20.0953C3.60292 19.9604 3.65771 19.8215 3.70306 19.6793C4.03767 18.1301 4.90289 16.7465 6.14922 15.7675C7.39556 14.7885 8.94473 14.2755 10.5291 14.3173C18.4957 14.3066 26.4624 14.3066 34.4291 14.3173H53.6291C53.9298 14.2961 54.232 14.3048 54.5311 14.3433C54.8683 14.3738 55.1797 14.5368 55.3968 14.7967C55.6139 15.0566 55.7191 15.392 55.6891 15.7293C55.6928 15.8967 55.6631 16.0632 55.6019 16.219C55.5406 16.3748 55.449 16.5169 55.3323 16.637C55.2156 16.757 55.0761 16.8527 54.9221 16.9183C54.7681 16.984 54.6025 17.0183 54.4351 17.0193C54.1342 17.0394 53.8324 17.0434 53.5311 17.0313H11.0631C10.4066 16.9313 9.73578 16.9878 9.10524 17.1961C8.4747 17.4043 7.90224 17.7585 7.43444 18.2298C6.96665 18.7011 6.61674 19.2762 6.41319 19.9083C6.20964 20.5404 6.1582 21.2116 6.26306 21.8673C6.26306 37.1086 6.26306 52.35 6.26306 67.5913V68.7073H12.7791V67.6493C12.7791 54.2786 12.7791 40.908 12.7791 27.5373C12.7 26.9033 12.7667 26.2596 12.9739 25.6553C13.1812 25.0509 13.5236 24.5018 13.975 24.0498C14.4265 23.5977 14.9752 23.2546 15.5793 23.0466C16.1834 22.8385 16.827 22.7711 17.4611 22.8493C39.0611 22.8493 60.6677 22.8493 82.2811 22.8493C82.9241 22.7625 83.5786 22.826 84.193 23.0346C84.8075 23.2432 85.3652 23.5914 85.8225 24.0518C86.2798 24.5122 86.6242 25.0723 86.8287 25.6881C87.0332 26.304 87.0922 26.9588 87.0011 27.6013C87.0011 40.9106 87.0011 54.2206 87.0011 67.5313V68.6893H93.5231V67.7233C93.5231 52.3606 93.5231 36.998 93.5231 21.6353C93.5947 21.0149 93.5254 20.3864 93.3204 19.7965C93.1153 19.2066 92.7798 18.6706 92.3388 18.2285C91.8978 17.7863 91.3627 17.4494 90.7733 17.2428C90.184 17.0362 89.5556 16.9653 88.9351 17.0353C79.4897 17.0353 70.0444 17.0353 60.5991 17.0353C60.2977 17.047 59.996 17.043 59.6951 17.0233C59.5272 17.0207 59.3616 16.9849 59.2077 16.9179C59.0538 16.8509 58.9148 16.7541 58.7985 16.633C58.6823 16.5119 58.5912 16.369 58.5305 16.2125C58.4699 16.056 58.4408 15.8891 58.4451 15.7213C58.4213 15.3832 58.5315 15.0493 58.7519 14.7918C58.9724 14.5343 59.2853 14.3739 59.6231 14.3453C59.8924 14.3123 60.1642 14.3043 60.4351 14.3213C69.9404 14.3213 79.4457 14.3213 88.9511 14.3213C89.928 14.253 90.9083 14.3956 91.8253 14.7394C92.7424 15.0831 93.5748 15.62 94.2662 16.3137C94.9575 17.0073 95.4917 17.8415 95.8324 18.7597C96.1732 19.6779 96.3125 20.6586 96.2411 21.6353C96.2411 39.6233 96.2411 57.6113 96.2411 75.5993C96.3202 76.5835 96.1848 77.5731 95.8443 78.4999C95.5038 79.4267 94.9664 80.2686 94.269 80.9675C93.5716 81.6664 92.7308 82.2057 91.8048 82.5482C90.8787 82.8907 89.8894 83.0282 88.9051 82.9513C85.8571 82.9513 82.8091 82.9513 79.7611 82.9513C78.6391 82.9513 78.0031 82.4293 78.0251 81.5633C78.0471 80.7353 78.6751 80.2333 79.7351 80.2313C82.8731 80.2313 86.0111 80.2313 89.1511 80.2313C89.734 80.2726 90.3191 80.1885 90.8668 79.9847C91.4145 79.7808 91.9121 79.4619 92.3262 79.0496C92.7403 78.6372 93.0612 78.1408 93.2673 77.594C93.4734 77.0471 93.56 76.4624 93.5211 75.8793C93.5211 74.4653 93.5211 73.0513 93.5211 71.5693H6.30906C6.23052 73.3114 6.24054 75.0563 6.33906 76.7973C6.46646 77.7845 6.96355 78.6867 7.73004 79.3218C8.49653 79.9569 9.47536 80.2776 10.4691 80.2193C15.9611 80.2313 21.4531 80.2313 26.9451 80.2193H73.0251C73.2971 80.2193 73.5691 80.2093 73.8391 80.2193C74.0281 80.2084 74.2173 80.2374 74.3943 80.3045C74.5713 80.3715 74.7323 80.4751 74.8666 80.6085C75.0009 80.7419 75.1057 80.9021 75.174 81.0787C75.2423 81.2553 75.2726 81.4442 75.2631 81.6333C75.2626 81.8158 75.2239 81.9963 75.1495 82.1629C75.075 82.3296 74.9664 82.4788 74.8307 82.6009C74.695 82.7231 74.5353 82.8154 74.3617 82.8719C74.1881 82.9285 74.0046 82.948 73.8231 82.9293C71.8011 82.9513 69.7791 82.9293 67.7571 82.9293H59.5171L60.8871 93.4053C62.4611 93.4053 63.9911 93.3453 65.5111 93.4413C66.0535 93.5025 66.5504 93.7739 66.8951 94.1973C66.9992 94.3739 67.0583 94.5734 67.0673 94.7783C67.0762 94.9831 67.0347 95.187 66.9464 95.3721C66.8582 95.5571 66.7258 95.7177 66.561 95.8396C66.3961 95.9615 66.2039 96.0411 66.0011 96.0713C65.7037 96.1204 65.4019 96.1365 65.1011 96.1193H34.6911C34.4497 96.1293 34.2079 96.1246 33.9671 96.1053C33.6161 96.0802 33.2883 95.9206 33.0521 95.6598C32.8159 95.399 32.6894 95.0571 32.6991 94.7053C32.7027 94.5312 32.7407 94.3595 32.8109 94.2001C32.8811 94.0407 32.9821 93.8967 33.1081 93.7765C33.2341 93.6562 33.3826 93.562 33.5451 93.4994C33.7077 93.4367 33.8809 93.4068 34.0551 93.4113C35.6211 93.3833 37.1891 93.4113 38.8811 93.4113L40.2591 82.9313H11.8491C6.89906 82.9313 5.19706 81.7413 3.53906 77.1313V20.0953ZM47.9971 68.6953H51.7831C51.7831 68.3353 51.7831 68.0133 51.7831 67.6953C51.7831 66.0953 51.7651 64.4953 51.7831 62.8953C51.8011 61.8093 52.2671 61.3433 53.3431 61.3413C60.9151 61.332 68.4871 61.332 76.0591 61.3413C77.1811 61.3413 77.6231 61.8093 77.6351 62.9593C77.6511 64.5593 77.6351 66.1593 77.6351 67.7593C77.6351 68.0773 77.6691 68.3953 77.6871 68.7013H84.2191V36.4493H15.5591V68.6813H22.1391C22.1391 66.7933 22.1391 64.9873 22.1391 63.1813C22.1391 61.7393 22.5391 61.3413 23.9511 61.3413C31.3417 61.3413 38.7324 61.3413 46.1231 61.3413C47.6051 61.3413 47.9931 61.7413 47.9991 63.2253C47.9991 65.0033 47.9991 66.7813 47.9991 68.7033M84.2831 33.6113C84.2831 31.6113 84.2831 29.7093 84.2831 27.8113C84.2831 25.9133 83.9691 25.5733 82.0111 25.5733H18.2131C15.6371 25.5733 15.4971 25.7133 15.4971 28.2713V33.6113H84.2831ZM58.1391 93.3753L56.7811 83.0033H42.9951L41.6451 93.3753H58.1391ZM24.8971 68.7093H45.1891V64.1433H24.8971V68.7093ZM54.5691 68.7093H74.8711V64.1233H54.5691V68.7093Z" fill="#141414"/>
<path d="M47.9971 68.6953H51.7831C51.7831 68.3353 51.7831 68.0133 51.7831 67.6953C51.7831 66.0953 51.7651 64.4953 51.7831 62.8953C51.8011 61.8093 52.2671 61.3433 53.3431 61.3413C60.9151 61.332 68.4871 61.332 76.0591 61.3413C77.1811 61.3413 77.6231 61.8093 77.6351 62.9593C77.6511 64.5593 77.6351 66.1593 77.6351 67.7593C77.6351 68.0773 77.6691 68.3953 77.6871 68.7013H84.2191V36.4493H15.5591V68.6813H22.1391C22.1391 66.7933 22.1391 64.9873 22.1391 63.1813C22.1391 61.7393 22.5391 61.3413 23.9511 61.3413C31.3417 61.3413 38.7324 61.3413 46.1231 61.3413C47.6051 61.3413 47.9931 61.7413 47.9991 63.2253C47.9991 65.0033 47.9991 66.7813 47.9991 68.7033M3.53906 20.0953C3.60292 19.9604 3.65771 19.8215 3.70306 19.6793C4.03767 18.1301 4.90289 16.7465 6.14922 15.7675C7.39556 14.7885 8.94473 14.2755 10.5291 14.3173C18.4957 14.3066 26.4624 14.3066 34.4291 14.3173H53.6291C53.9298 14.2961 54.232 14.3048 54.5311 14.3433C54.8683 14.3738 55.1797 14.5368 55.3968 14.7967C55.6139 15.0566 55.7191 15.392 55.6891 15.7293C55.6928 15.8967 55.6631 16.0632 55.6019 16.219C55.5406 16.3748 55.449 16.5169 55.3323 16.637C55.2156 16.757 55.0761 16.8527 54.9221 16.9183C54.7681 16.984 54.6025 17.0183 54.4351 17.0193C54.1342 17.0394 53.8324 17.0434 53.5311 17.0313H11.0631C10.4066 16.9313 9.73578 16.9878 9.10524 17.1961C8.4747 17.4043 7.90224 17.7585 7.43444 18.2298C6.96665 18.7011 6.61674 19.2762 6.41319 19.9083C6.20964 20.5404 6.1582 21.2116 6.26306 21.8673C6.26306 37.1086 6.26306 52.35 6.26306 67.5913V68.7073H12.7791V67.6493C12.7791 54.2786 12.7791 40.908 12.7791 27.5373C12.7 26.9033 12.7667 26.2596 12.9739 25.6553C13.1812 25.0509 13.5236 24.5018 13.975 24.0498C14.4265 23.5977 14.9752 23.2546 15.5793 23.0466C16.1834 22.8385 16.827 22.7711 17.4611 22.8493C39.0611 22.8493 60.6677 22.8493 82.2811 22.8493C82.9241 22.7625 83.5786 22.826 84.193 23.0346C84.8075 23.2432 85.3652 23.5914 85.8225 24.0518C86.2798 24.5122 86.6242 25.0723 86.8287 25.6881C87.0332 26.304 87.0922 26.9588 87.0011 27.6013C87.0011 40.9106 87.0011 54.2206 87.0011 67.5313V68.6893H93.5231V67.7233C93.5231 52.3606 93.5231 36.998 93.5231 21.6353C93.5947 21.0149 93.5254 20.3864 93.3204 19.7965C93.1153 19.2066 92.7798 18.6706 92.3388 18.2285C91.8978 17.7863 91.3627 17.4494 90.7733 17.2428C90.184 17.0362 89.5556 16.9653 88.9351 17.0353C79.4897 17.0353 70.0444 17.0353 60.5991 17.0353C60.2977 17.047 59.996 17.043 59.6951 17.0233C59.5272 17.0207 59.3616 16.9849 59.2077 16.9179C59.0538 16.8509 58.9148 16.7541 58.7985 16.633C58.6823 16.5119 58.5912 16.369 58.5305 16.2125C58.4699 16.056 58.4408 15.8891 58.4451 15.7213C58.4213 15.3832 58.5315 15.0493 58.7519 14.7918C58.9724 14.5343 59.2853 14.3739 59.6231 14.3453C59.8924 14.3123 60.1642 14.3043 60.4351 14.3213C69.9404 14.3213 79.4457 14.3213 88.9511 14.3213C89.928 14.253 90.9083 14.3956 91.8253 14.7394C92.7424 15.0831 93.5748 15.62 94.2662 16.3137C94.9575 17.0073 95.4917 17.8415 95.8324 18.7597C96.1732 19.6779 96.3125 20.6586 96.2411 21.6353C96.2411 39.6233 96.2411 57.6113 96.2411 75.5993C96.3202 76.5835 96.1848 77.5731 95.8443 78.4999C95.5038 79.4267 94.9664 80.2686 94.269 80.9675C93.5716 81.6664 92.7308 82.2057 91.8048 82.5482C90.8787 82.8907 89.8894 83.0282 88.9051 82.9513C85.8571 82.9513 82.8091 82.9513 79.7611 82.9513C78.6391 82.9513 78.0031 82.4293 78.0251 81.5633C78.0471 80.7353 78.6751 80.2333 79.7351 80.2313C82.8731 80.2313 86.0111 80.2313 89.1511 80.2313C89.734 80.2726 90.3191 80.1885 90.8668 79.9847C91.4145 79.7808 91.9121 79.4619 92.3262 79.0496C92.7403 78.6372 93.0612 78.1408 93.2673 77.594C93.4734 77.0471 93.56 76.4624 93.5211 75.8793C93.5211 74.4653 93.5211 73.0513 93.5211 71.5693H6.30906C6.23052 73.3114 6.24054 75.0563 6.33906 76.7973C6.46646 77.7845 6.96355 78.6867 7.73004 79.3218C8.49653 79.9569 9.47536 80.2776 10.4691 80.2193C15.9611 80.2313 21.4531 80.2313 26.9451 80.2193H73.0251C73.2971 80.2193 73.5691 80.2093 73.8391 80.2193C74.0281 80.2084 74.2173 80.2374 74.3943 80.3045C74.5713 80.3715 74.7323 80.4751 74.8666 80.6085C75.0009 80.7419 75.1057 80.9021 75.174 81.0787C75.2423 81.2553 75.2726 81.4442 75.2631 81.6333C75.2626 81.8158 75.2239 81.9963 75.1495 82.1629C75.075 82.3296 74.9664 82.4788 74.8307 82.6009C74.695 82.7231 74.5353 82.8154 74.3617 82.8719C74.1881 82.9285 74.0046 82.948 73.8231 82.9293C71.8011 82.9513 69.7791 82.9293 67.7571 82.9293H59.5171L60.8871 93.4053C62.4611 93.4053 63.9911 93.3453 65.5111 93.4413C66.0535 93.5025 66.5504 93.7739 66.8951 94.1973C66.9992 94.3739 67.0583 94.5734 67.0673 94.7783C67.0762 94.9831 67.0347 95.187 66.9464 95.3721C66.8582 95.5571 66.7258 95.7177 66.561 95.8396C66.3961 95.9615 66.2039 96.0411 66.0011 96.0713C65.7037 96.1204 65.4019 96.1365 65.1011 96.1193H34.6911C34.4497 96.1293 34.2079 96.1246 33.9671 96.1053C33.6161 96.0802 33.2883 95.9206 33.0521 95.6598C32.8159 95.399 32.6894 95.0571 32.6991 94.7053C32.7027 94.5312 32.7407 94.3595 32.8109 94.2001C32.8811 94.0407 32.9821 93.8967 33.1081 93.7765C33.2341 93.6562 33.3826 93.562 33.5451 93.4994C33.7077 93.4367 33.8809 93.4068 34.0551 93.4113C35.6211 93.3833 37.1891 93.4113 38.8811 93.4113L40.2591 82.9313H11.8491C6.89906 82.9313 5.19706 81.7413 3.53906 77.1313V20.0953ZM84.2831 33.6113C84.2831 31.6113 84.2831 29.7093 84.2831 27.8113C84.2831 25.9133 83.9691 25.5733 82.0111 25.5733H18.2131C15.6371 25.5733 15.4971 25.7133 15.4971 28.2713V33.6113H84.2831ZM58.1391 93.3753L56.7811 83.0033H42.9951L41.6451 93.3753H58.1391ZM24.8971 68.7093H45.1891V64.1433H24.8971V68.7093ZM54.5691 68.7093H74.8711V64.1233H54.5691V68.7093Z" stroke="white"/>
<path d="M74.887 55.2715V43.3955H24.907V55.2715H25.8949C28.2789 55.2715 30.663 55.2715 33.047 55.2715C34.125 55.2715 34.709 55.7735 34.709 56.6335C34.709 57.4935 34.151 57.9775 33.049 57.9815C29.9716 57.9895 26.8936 57.9895 23.815 57.9815C22.571 57.9815 22.135 57.5395 22.133 56.2855C22.125 51.6375 22.125 46.9901 22.133 42.3435C22.133 41.0595 22.5909 40.6055 23.8889 40.6055C41.2089 40.6055 58.529 40.6055 75.849 40.6055C77.197 40.6055 77.635 41.0495 77.637 42.4055C77.637 47.0228 77.637 51.6401 77.637 56.2575C77.637 57.5615 77.2049 57.9855 75.8929 57.9855C63.6716 57.9855 51.451 57.9855 39.231 57.9855C39.0198 57.9919 38.8085 57.9818 38.599 57.9555C38.4463 57.95 38.2962 57.9137 38.1579 57.8488C38.0196 57.7839 37.8958 57.6917 37.794 57.5778C37.6922 57.4638 37.6145 57.3304 37.5655 57.1857C37.5165 57.041 37.4973 56.8878 37.509 56.7355C37.636 56.211 37.9388 55.7459 38.3669 55.4175C38.6109 55.2175 39.1149 55.2755 39.5029 55.2755C50.8789 55.2755 62.255 55.2755 73.631 55.2755L74.887 55.2715Z" fill="#141414" stroke="white"/>
<path d="M36.1683 29.5228C36.1707 29.7937 36.1193 30.0624 36.017 30.3132C35.9148 30.564 35.7637 30.7921 35.5726 30.9841C35.3816 31.1761 35.1543 31.3282 34.9039 31.4317C34.6536 31.5352 34.3852 31.5879 34.1143 31.5868C33.8367 31.5935 33.5606 31.5445 33.3023 31.4425C33.0441 31.3404 32.809 31.1876 32.6109 30.993C32.4128 30.7985 32.2558 30.5661 32.1492 30.3097C32.0426 30.0533 31.9885 29.7781 31.9903 29.5004C31.992 29.2228 32.0495 28.9483 32.1593 28.6933C32.2691 28.4382 32.429 28.2078 32.6295 28.0158C32.83 27.8237 33.0671 27.6738 33.3266 27.5751C33.5861 27.4763 33.8628 27.4307 34.1403 27.4408C34.4109 27.4432 34.6783 27.4991 34.9271 27.6055C35.1759 27.7119 35.4011 27.8666 35.5897 28.0606C35.7783 28.2546 35.9266 28.4841 36.0259 28.7358C36.1252 28.9874 36.1736 29.2563 36.1683 29.5268" fill="#141414"/>
<path d="M36.1683 29.5228C36.1707 29.7937 36.1193 30.0624 36.017 30.3132C35.9148 30.564 35.7637 30.7921 35.5726 30.9841C35.3816 31.1761 35.1543 31.3282 34.9039 31.4317C34.6536 31.5352 34.3852 31.5879 34.1143 31.5868C33.8367 31.5935 33.5606 31.5445 33.3023 31.4425C33.0441 31.3404 32.809 31.1876 32.6109 30.993C32.4128 30.7985 32.2558 30.5661 32.1492 30.3097C32.0426 30.0533 31.9885 29.7781 31.9903 29.5004C31.992 29.2228 32.0495 28.9483 32.1593 28.6933C32.2691 28.4382 32.429 28.2078 32.6295 28.0158C32.83 27.8237 33.0671 27.6738 33.3266 27.5751C33.5861 27.4763 33.8628 27.4307 34.1403 27.4408C34.4109 27.4432 34.6783 27.4991 34.9271 27.6055C35.1759 27.7119 35.4011 27.8666 35.5897 28.0606C35.7783 28.2546 35.9266 28.4841 36.0259 28.7358C36.1252 28.9874 36.1736 29.2563 36.1683 29.5268" stroke="white"/>
<path d="M29.4645 29.5353C29.4643 29.806 29.4104 30.074 29.306 30.3238C29.2016 30.5736 29.0488 30.8003 28.8563 30.9907C28.6639 31.1811 28.4356 31.3315 28.1847 31.4332C27.9338 31.5349 27.6652 31.5859 27.3945 31.5833C27.1173 31.5875 26.842 31.5361 26.585 31.4321C26.3279 31.328 26.0944 31.1735 25.8981 30.9777C25.7018 30.7818 25.5468 30.5486 25.4422 30.2918C25.3376 30.035 25.2856 29.7598 25.2892 29.4825C25.2928 29.2053 25.352 28.9316 25.4632 28.6776C25.5745 28.4236 25.7355 28.1945 25.9368 28.0038C26.1381 27.8131 26.3756 27.6647 26.6353 27.5674C26.8949 27.4701 27.1715 27.4259 27.4485 27.4373C27.7192 27.4409 27.9864 27.4983 28.2347 27.606C28.4831 27.7137 28.7075 27.8697 28.8951 28.0649C29.0826 28.2601 29.2295 28.4906 29.3273 28.743C29.425 28.9954 29.4717 29.2647 29.4645 29.5353Z" fill="#141414" stroke="white"/>
<path d="M22.759 29.5459C22.7566 29.8165 22.7008 30.084 22.5948 30.3329C22.4888 30.5819 22.3346 30.8075 22.1411 30.9967C21.9477 31.1858 21.7187 31.335 21.4675 31.4354C21.2162 31.5358 20.9475 31.5856 20.677 31.5819C20.4046 31.5769 20.1359 31.5184 19.8862 31.4095C19.6365 31.3007 19.4106 31.1437 19.2216 30.9476C19.0325 30.7515 18.8839 30.5201 18.7843 30.2665C18.6847 30.013 18.636 29.7423 18.641 29.4699C18.646 29.1976 18.7045 28.9289 18.8134 28.6792C18.9222 28.4294 19.0792 28.2036 19.2753 28.0145C19.4714 27.8255 19.7029 27.6769 19.9564 27.5773C20.2099 27.4776 20.4806 27.429 20.753 27.4339C21.0232 27.4401 21.2894 27.4998 21.5365 27.6094C21.7835 27.719 22.0064 27.8764 22.1923 28.0725C22.3782 28.2686 22.5235 28.4996 22.6197 28.7522C22.7159 29.0047 22.7612 29.2738 22.753 29.5439" fill="#141414"/>
<path d="M22.759 29.5459C22.7566 29.8165 22.7008 30.084 22.5948 30.3329C22.4888 30.5819 22.3346 30.8075 22.1411 30.9967C21.9477 31.1858 21.7187 31.335 21.4675 31.4354C21.2162 31.5358 20.9475 31.5856 20.677 31.5819C20.4046 31.5769 20.1359 31.5184 19.8862 31.4095C19.6365 31.3007 19.4106 31.1437 19.2216 30.9476C19.0325 30.7515 18.8839 30.5201 18.7843 30.2665C18.6847 30.013 18.636 29.7423 18.641 29.4699C18.646 29.1976 18.7045 28.9289 18.8134 28.6792C18.9222 28.4294 19.0792 28.2036 19.2753 28.0145C19.4714 27.8255 19.7029 27.6769 19.9564 27.5773C20.2099 27.4776 20.4806 27.429 20.753 27.4339C21.0232 27.4401 21.2894 27.4998 21.5365 27.6094C21.7835 27.719 22.0064 27.8764 22.1923 28.0725C22.3782 28.2686 22.5235 28.4996 22.6197 28.7522C22.7159 29.0047 22.7612 29.2738 22.753 29.5439" stroke="white"/>
</g>
<defs>
<clipPath id="clip0_1120_649">
<rect width="100" height="100" fill="white"/>
</clipPath>
</defs>
</svg>
