<svg width="72" height="73" viewBox="0 0 72 73" fill="none" xmlns="http://www.w3.org/2000/svg">
<path d="M48.2752 62.0825C47.8644 62.0825 47.4626 61.8594 47.2618 61.4678C46.9696 60.9077 47.1887 60.2246 47.7502 59.9332C51.2561 58.1208 54.3603 55.4842 56.7204 52.3148C57.0948 51.8093 57.8115 51.7046 58.3182 52.0825C58.8249 52.4559 58.9299 53.1709 58.551 53.6763C55.9809 57.119 52.6119 59.9833 48.8002 61.955C48.6313 62.0415 48.4532 62.0825 48.2752 62.0825Z" fill="#0F0F1A"/>
<path d="M57.8936 22.0097C57.5376 22.0097 57.1906 21.8458 56.967 21.5361C53.8262 17.1828 49.4987 13.9405 44.4544 12.16C43.8609 11.9505 43.5505 11.2994 43.7605 10.7074C43.9705 10.1154 44.6187 9.80114 45.2167 10.0152C50.6992 11.9505 55.4057 15.4751 58.8203 20.2065C59.1901 20.7165 59.0714 21.4269 58.5601 21.7957C58.3593 21.9414 58.1265 22.0097 57.8936 22.0097Z" fill="#0F0F1A"/>
<path d="M23.195 62.0824C23.017 62.0824 22.8389 62.0414 22.67 61.9549C18.8583 59.9832 15.4847 57.1188 12.9192 53.6762C12.5449 53.1708 12.6499 52.4604 13.152 52.0824C13.6542 51.7045 14.3709 51.8137 14.7498 52.3147C17.1144 55.4841 20.2141 58.1161 23.72 59.9331C24.2815 60.2245 24.496 60.9076 24.2084 61.4677C24.0076 61.8593 23.6058 62.0824 23.195 62.0824Z" fill="#28292B"/>
<path d="M13.5767 22.0094C13.3439 22.0094 13.1111 21.9411 12.9102 21.7954C12.3989 21.4266 12.2803 20.7162 12.65 20.2062C16.0646 15.4748 20.7711 11.9502 26.2537 10.0149C26.8471 9.80548 27.4999 10.1151 27.7099 10.7071C27.9199 11.2991 27.6095 11.9502 27.016 12.1597C21.9717 13.9402 17.6441 17.1825 14.5034 21.5359C14.2797 21.8455 13.9328 22.0094 13.5767 22.0094Z" fill="#28292B"/>
<path d="M40.8296 16.9504C40.8323 16.9476 40.8366 16.9469 40.8401 16.9485C43.0101 17.9137 44.6642 19.26 44.6642 20.2063V25.3019C44.6642 26.9367 39.7432 29.76 35.7305 29.76C31.7179 29.76 26.7969 26.9367 26.7969 25.3019V20.2063C26.7969 17.0804 32.1153 18.8677 35.234 19.0803C37.247 19.2174 39.3067 18.5067 40.8296 16.9504Z" fill="url(#paint0_linear_500_2288)"/>
<path d="M35.7259 17.4375C32.3752 17.4375 29.8462 14.769 29.8462 11.2353V9.54594C29.8462 6.01224 32.3752 3.34375 35.7259 3.34375C39.0766 3.34375 41.6056 6.01224 41.6056 9.54594V11.2353C41.6056 14.769 39.0766 17.4375 35.7259 17.4375ZM35.7259 5.62062C33.6397 5.62062 32.1287 7.26907 32.1287 9.54594V11.2353C32.1287 13.5122 33.6397 15.1607 35.7259 15.1607C37.8121 15.1607 39.3231 13.5122 39.3231 11.2353V9.54594C39.3231 7.26907 37.8121 5.62062 35.7259 5.62062Z" fill="#28292B"/>
<path d="M63.5225 36.7635C63.5253 36.7608 63.5295 36.7601 63.5331 36.7617C65.703 37.7269 67.3571 39.0732 67.3571 40.0194V45.1151C67.3571 46.7499 62.436 49.5732 58.4234 49.5732C54.4108 49.5732 49.4897 46.7499 49.4897 45.1151V40.0194C49.4897 36.8936 54.8082 38.6808 57.9268 38.8934C59.9398 39.0306 61.9996 38.3199 63.5225 36.7635Z" fill="url(#paint1_linear_500_2288)"/>
<path d="M58.4188 37.2461C55.0681 37.2461 52.5391 34.5822 52.5391 31.0439V29.3545C52.5391 25.8208 55.0681 23.1523 58.4188 23.1523C61.7695 23.1523 64.2984 25.8208 64.2984 29.3545V31.0439C64.2984 34.5776 61.7695 37.2461 58.4188 37.2461ZM58.4188 25.4292C56.3326 25.4292 54.8216 27.0776 54.8216 29.3545V31.0439C54.8216 33.3162 56.3326 34.9692 58.4188 34.9692C60.505 34.9692 62.0159 33.3208 62.0159 31.0439V29.3545C62.0159 27.0776 60.505 25.4292 58.4188 25.4292Z" fill="#28292B"/>
<path d="M18.6758 36.7635C18.6786 36.7608 18.6828 36.7601 18.6863 36.7617C20.8563 37.7269 22.5104 39.0732 22.5104 40.0194V45.1151C22.5104 46.7499 17.5894 49.5732 13.5767 49.5732C9.56412 49.5732 4.64307 46.7499 4.64307 45.1151V40.0194C4.64307 36.8936 9.9615 38.6808 13.0801 38.8934C15.0931 39.0306 17.1529 38.3199 18.6758 36.7635Z" fill="url(#paint2_linear_500_2288)"/>
<path d="M13.577 37.2461C10.2263 37.2461 7.69727 34.5822 7.69727 31.0439V29.3545C7.69727 25.8208 10.2263 23.1523 13.577 23.1523C16.9277 23.1523 19.4567 25.8208 19.4567 29.3545V31.0439C19.4567 34.5776 16.9277 37.2461 13.577 37.2461ZM13.577 25.4292C11.4908 25.4292 9.97976 27.0776 9.97976 29.3545V31.0439C9.97976 33.3162 11.4908 34.9692 13.577 34.9692C15.6632 34.9692 17.1742 33.3208 17.1742 31.0439V29.3545C17.1742 27.0776 15.6632 25.4292 13.577 25.4292Z" fill="#28292B"/>
<path d="M40.8296 56.7956C40.8323 56.7928 40.8366 56.7921 40.8401 56.7937C43.0101 57.7589 44.6642 59.1052 44.6642 60.0515V65.1471C44.6642 66.7819 39.7432 69.6052 35.7305 69.6052C31.7179 69.6052 26.7969 66.7819 26.7969 65.1471V60.0515C26.7969 56.9256 32.1153 58.7129 35.234 58.9255C37.247 59.0626 39.3067 58.352 40.8296 56.7956Z" fill="url(#paint3_linear_500_2288)"/>
<path d="M35.7259 57.2828C32.3752 57.2828 29.8462 54.6143 29.8462 51.0806V49.3912C29.8462 45.8575 32.3752 43.189 35.7259 43.189C39.0766 43.189 41.6056 45.8575 41.6056 49.3912V51.0806C41.6056 54.6143 39.0766 57.2828 35.7259 57.2828ZM35.7259 45.4659C33.6397 45.4659 32.1287 47.1143 32.1287 49.3912V51.0806C32.1287 53.3575 33.6397 55.006 35.7259 55.006C37.8121 55.006 39.3231 53.3575 39.3231 51.0806V49.3912C39.3231 47.1143 37.8121 45.4659 35.7259 45.4659Z" fill="#28292B"/>
<defs>
<linearGradient id="paint0_linear_500_2288" x1="33.8243" y1="35.7493" x2="47.5781" y2="20.2547" gradientUnits="userSpaceOnUse">
<stop stop-color="#9358F7"/>
<stop offset="0.259732" stop-color="#7B78F2"/>
<stop offset="0.500607" stop-color="#6197EE"/>
<stop offset="0.766547" stop-color="#45B5E9"/>
<stop offset="1" stop-color="#10D7E2"/>
</linearGradient>
<linearGradient id="paint1_linear_500_2288" x1="56.5172" y1="55.5625" x2="70.271" y2="40.0678" gradientUnits="userSpaceOnUse">
<stop stop-color="#9358F7"/>
<stop offset="0.259732" stop-color="#7B78F2"/>
<stop offset="0.500607" stop-color="#6197EE"/>
<stop offset="0.766547" stop-color="#45B5E9"/>
<stop offset="1" stop-color="#10D7E2"/>
</linearGradient>
<linearGradient id="paint2_linear_500_2288" x1="11.6705" y1="55.5625" x2="25.4243" y2="40.0679" gradientUnits="userSpaceOnUse">
<stop stop-color="#9358F7"/>
<stop offset="0.259732" stop-color="#7B78F2"/>
<stop offset="0.500607" stop-color="#6197EE"/>
<stop offset="0.766547" stop-color="#45B5E9"/>
<stop offset="1" stop-color="#10D7E2"/>
</linearGradient>
<linearGradient id="paint3_linear_500_2288" x1="33.8243" y1="75.5945" x2="47.5781" y2="60.0999" gradientUnits="userSpaceOnUse">
<stop stop-color="#9358F7"/>
<stop offset="0.259732" stop-color="#7B78F2"/>
<stop offset="0.500607" stop-color="#6197EE"/>
<stop offset="0.766547" stop-color="#45B5E9"/>
<stop offset="1" stop-color="#10D7E2"/>
</linearGradient>
</defs>
</svg>
