<svg width="72" height="73" viewBox="0 0 72 73" fill="none" xmlns="http://www.w3.org/2000/svg">
<path fill-rule="evenodd" clip-rule="evenodd" d="M41.4958 46.2551L32.2804 44.5154V44.5211C30.5221 45.7264 28.4246 46.4712 26.1519 46.5621C19.605 46.8237 14.1041 41.6329 13.844 34.9582C13.5839 28.2778 18.6835 22.6435 25.2303 22.3763C31.7659 22.109 37.2725 27.2999 37.5269 33.9859C37.5948 35.6461 37.3234 37.2494 36.7807 38.7162L41.4958 46.2551ZM28.9993 34.3864C28.9993 35.2278 29.6834 35.9158 30.5201 35.9158C31.3681 35.9158 32.0522 35.2392 32.0522 34.3864C32.0522 33.5336 31.3568 32.8456 30.5201 32.8456C29.6834 32.8456 28.9993 33.5449 28.9993 34.3864ZM25.7489 35.9158C24.9066 35.9158 24.2168 35.2278 24.2168 34.3864C24.2168 33.5449 24.9009 32.8456 25.7489 32.8456C26.597 32.8456 27.2698 33.5336 27.2698 34.3864C27.2698 35.2392 26.5857 35.9158 25.7489 35.9158ZM19.4392 34.3863C19.4392 35.2277 20.1233 35.9157 20.96 35.9157C21.7967 35.9157 22.4808 35.2391 22.4808 34.3863C22.4808 33.5335 21.7967 32.8455 20.96 32.8455C20.1233 32.8455 19.4392 33.5448 19.4392 34.3863Z" fill="white" fill-opacity="0.5"/>
<path d="M59.8048 17.1108H13.0846C12.4422 17.1108 11.9209 16.5865 11.9209 15.9405C11.9209 15.2945 12.4422 14.7703 13.0846 14.7703H59.8048C60.4471 14.7703 60.9685 15.2945 60.9685 15.9405C60.9685 16.5865 60.4471 17.1108 59.8048 17.1108Z" fill="white"/>
<path d="M32.4485 63.4012H10.6222C8.07138 63.4012 6 61.1309 6 58.3411V9.71471C6 6.92483 8.07604 4.65454 10.6222 4.65454H57.3424C59.8932 4.65454 61.9646 6.92483 61.9646 9.71471V24.1463C61.9646 24.7922 61.4432 25.3165 60.8009 25.3165C60.1585 25.3165 59.6372 24.7922 59.6372 24.1463V9.71471C59.6372 8.21211 58.6085 6.99505 57.3424 6.99505H10.6222C9.35611 6.99505 8.3274 8.21679 8.3274 9.71471V58.3364C8.3274 59.839 9.35611 61.056 10.6222 61.056H32.4485C33.0909 61.056 33.6122 61.5803 33.6122 62.2263C33.6122 62.8723 33.0909 63.3965 32.4485 63.3965V63.4012Z" fill="white"/>
<path d="M18.7678 11.966H17.0363C16.3939 11.966 15.8726 11.4417 15.8726 10.7957C15.8726 10.1497 16.3939 9.62549 17.0363 9.62549H18.7678C19.4102 9.62549 19.9315 10.1497 19.9315 10.7957C19.9315 11.4417 19.4102 11.966 18.7678 11.966Z" fill="white"/>
<path d="M25.4382 11.966H23.7067C23.0643 11.966 22.543 11.4417 22.543 10.7957C22.543 10.1497 23.0643 9.62549 23.7067 9.62549H25.4382C26.0806 9.62549 26.6019 10.1497 26.6019 10.7957C26.6019 11.4417 26.0806 11.966 25.4382 11.966Z" fill="white"/>
<path d="M53.4137 67.9978C48.3261 67.9978 40.8179 64.3513 40.8179 61.0746V54.5024C40.8179 52.4615 43.6992 50.4393 46.399 49.2316C46.9855 48.9695 47.6744 49.2316 47.935 49.8261C48.1957 50.4159 47.935 51.1087 47.3439 51.3709C44.5045 52.6441 43.1872 54.0671 43.1406 54.5118V61.0793C43.257 62.2542 48.5867 65.662 53.4091 65.662C58.2314 65.662 63.5612 62.2542 63.6776 61.0746V54.5071C63.6357 54.0671 62.3137 52.6441 59.465 51.3709C58.8785 51.1087 58.6131 50.4159 58.8738 49.8261C59.1345 49.2363 59.8234 48.9695 60.4099 49.2316C63.1143 50.444 66.0003 52.4615 66.0003 54.5071V61.0793C66.0003 64.356 58.4921 68.0025 53.4044 68.0025L53.4137 67.9978Z" fill="white"/>
<path d="M53.409 49.9247C49.0195 49.9247 45.71 46.3952 45.71 41.7142V39.3643C45.71 34.6833 49.0195 31.1538 53.409 31.1538C57.7985 31.1538 61.108 34.6833 61.108 39.3643V41.7142C61.108 46.3952 57.7985 49.9247 53.409 49.9247ZM53.409 33.4943C50.2949 33.4943 48.0374 35.9659 48.0374 39.3643V41.7142C48.0374 45.1173 50.2949 47.5841 53.409 47.5841C56.523 47.5841 58.7806 45.1126 58.7806 41.7142V39.3643C58.7806 35.9612 56.523 33.4943 53.409 33.4943Z" fill="white"/>
</svg>
