<svg width="72" height="73" viewBox="0 0 72 73" fill="none" xmlns="http://www.w3.org/2000/svg">
<path d="M0.573242 37.0724L6.17915 13.6851L14.3869 15.8L8.78101 39.1873" fill="white" fill-opacity="0.5"/>
<path d="M52.2998 17.876L63.7686 39.1657L71.4264 34.9533L59.9628 13.6636" fill="white" fill-opacity="0.5"/>
<path d="M35.5339 58.9884C35.1265 58.9884 34.719 58.9302 34.3212 58.8087C33.2283 58.4833 32.3272 57.7451 31.7855 56.735C31.4644 56.1424 31.3014 55.5014 31.2726 54.87L31.0521 54.9914C30.0503 55.5402 28.8999 55.6665 27.8119 55.3411C26.719 55.0157 25.8178 54.2775 25.2762 53.2673C24.955 52.6748 24.7921 52.0337 24.7633 51.4023L24.5428 51.5238C23.541 52.0726 22.3906 52.1988 21.3025 51.8734C20.2096 51.548 19.3085 50.8098 18.7669 49.7997C17.6452 47.7113 18.4074 45.0838 20.4733 43.9474L20.6938 43.826C20.1761 43.452 19.7399 42.9566 19.4283 42.3738C18.8867 41.3636 18.7621 40.1932 19.0832 39.0907C19.4044 37.9834 20.133 37.0752 21.13 36.5216L25.1659 34.2972C25.7459 33.9767 26.4745 34.1952 26.7909 34.7829C27.1072 35.3705 26.8915 36.1087 26.3115 36.4293L22.2756 38.6536C21.3744 39.149 21.0389 40.3 21.5278 41.2131C21.7675 41.655 22.1605 41.9804 22.6351 42.1213C23.1048 42.2621 23.5985 42.2136 24.0347 41.9804L33.9137 36.5313C34.4937 36.2107 35.2223 36.4293 35.5387 37.0169C35.855 37.6046 35.6393 38.3428 35.0594 38.6633L25.1995 44.0979C25.1995 44.0979 25.1803 44.1077 25.1707 44.1125L21.6141 46.0746C20.7129 46.57 20.3774 47.721 20.8663 48.6341C21.106 49.076 21.4991 49.4014 21.9736 49.5422C22.4529 49.6879 22.9514 49.6297 23.3924 49.3917L36.8377 41.9804C37.4177 41.6599 38.1462 41.8784 38.4626 42.4661C38.779 43.0538 38.5633 43.792 37.9833 44.1125L28.1234 49.5471C27.2223 50.0425 26.8867 51.1935 27.3757 52.1066C27.6153 52.5485 28.0084 52.8739 28.4829 53.0148C28.9575 53.1556 29.4608 53.1022 29.9017 52.8642L39.7616 47.4296C40.3416 47.1091 41.0702 47.3276 41.3865 47.9153C41.7029 48.5029 41.4872 49.2411 40.9072 49.5617L34.6327 53.0196C33.7316 53.515 33.3961 54.666 33.885 55.5791C34.3739 56.4921 35.5099 56.8321 36.4111 56.3367L54.4867 46.3708C55.987 45.5452 57.2956 44.3602 58.2686 42.9421L61.413 38.3719L51.0355 19.0522C50.7191 18.4645 50.9348 17.7263 51.5148 17.4058C52.0948 17.0852 52.8234 17.3038 53.1398 17.8914L63.872 37.8717C64.0877 38.2748 64.0637 38.7702 63.8001 39.1441L60.2339 44.3262C59.0451 46.0503 57.4537 47.4976 55.6323 48.5029L37.5567 58.4688C36.924 58.8185 36.2289 58.9933 35.5243 58.9933L35.5339 58.9884Z" fill="white"/>
<path d="M13.7001 44.0543C13.4221 44.0543 13.1489 43.9572 12.9236 43.7629L8.18298 39.6591C7.83786 39.3579 7.68927 38.8917 7.79952 38.4449L13.2064 16.3714C13.3166 15.9246 13.6665 15.5798 14.1075 15.4778L20.195 14.0985C22.2226 13.6371 24.3556 13.6663 26.3736 14.1713L42.3833 18.2024C43.4858 18.4792 44.4205 19.1786 45.0053 20.1645C45.59 21.1504 45.7626 22.3111 45.4894 23.433C45.2162 24.55 44.5259 25.4971 43.5529 26.0896C42.5798 26.6821 41.4342 26.8618 40.327 26.5801L32.5043 24.6132C31.7613 26.5607 30.4048 28.1974 28.6121 29.295C26.4695 30.6014 23.953 30.9851 21.5276 30.3731L19.5479 29.8729C18.9056 29.7126 18.5126 29.0521 18.6756 28.4013C18.8337 27.7505 19.4856 27.3572 20.1279 27.5174L22.1076 28.0177C23.9147 28.4742 25.784 28.1876 27.3802 27.2163C28.9764 26.245 30.098 24.7006 30.5486 22.8696C30.6253 22.5588 30.8218 22.2868 31.095 22.1217C31.3683 21.9566 31.6942 21.908 32.001 21.9808L40.9118 24.2246C41.3959 24.346 41.8944 24.2683 42.321 24.0109C42.7476 23.7535 43.0496 23.3407 43.1694 22.8502C43.2893 22.3597 43.2126 21.8546 42.9585 21.4223C42.6997 20.9901 42.297 20.6841 41.8129 20.5627L25.7936 16.5268C24.1351 16.1092 22.3808 16.0897 20.7175 16.4685L15.3538 17.6827L10.3016 38.2992L14.4814 41.9174C14.9847 42.3545 15.0422 43.117 14.6156 43.6269C14.3807 43.9086 14.0404 44.0543 13.7049 44.0543H13.7001Z" fill="white"/>
</svg>
