<svg width="100" height="100" viewBox="0 0 100 100" fill="none" xmlns="http://www.w3.org/2000/svg">
<g clip-path="url(#clip0_1116_371)">
<path d="M2 51.29C2.3042 50.6208 2.81887 50.0694 3.46556 49.7199C4.11226 49.3703 4.8555 49.2419 5.582 49.354C7.2 49.436 8.826 49.394 10.448 49.354C10.6107 49.3448 10.7692 49.2987 10.9116 49.2194C11.054 49.1401 11.1765 49.0295 11.27 48.896C11.92 47.388 12.498 45.848 13.142 44.206C11.814 42.884 10.406 41.486 9.002 40.082C8.65084 39.8271 8.36502 39.4927 8.16793 39.1062C7.97085 38.7196 7.8681 38.2919 7.8681 37.858C7.8681 37.4241 7.97085 36.9964 8.16793 36.6098C8.36502 36.2232 8.65084 35.8889 9.002 35.634C10.622 34.0073 12.246 32.3847 13.874 30.766C14.1283 30.4338 14.4557 30.1646 14.8308 29.9794C15.2059 29.7941 15.6186 29.6978 16.037 29.6978C16.4554 29.6978 16.8681 29.7941 17.2432 29.9794C17.6183 30.1646 17.9457 30.4338 18.2 30.766C19.464 32.014 20.726 33.262 21.96 34.54C22.0889 34.723 22.284 34.8486 22.5039 34.8901C22.7239 34.9315 22.9514 34.8856 23.138 34.762C24.35 34.188 25.596 33.68 26.858 33.222C27.372 33.034 27.578 32.822 27.566 32.256C27.528 30.456 27.544 28.644 27.554 26.838C27.5068 26.4389 27.5498 26.0343 27.6798 25.6541C27.8097 25.2738 28.0234 24.9276 28.3049 24.6408C28.5865 24.3541 28.9288 24.1342 29.3066 23.9973C29.6844 23.8605 30.0881 23.8101 30.488 23.85C32.9067 23.8287 35.3253 23.8287 37.744 23.85C38.1361 23.8086 38.5325 23.8557 38.904 23.9879C39.2755 24.1201 39.6125 24.3341 39.8903 24.614C40.1681 24.8938 40.3794 25.2325 40.5089 25.605C40.6383 25.9774 40.6824 26.3742 40.638 26.766C40.654 28.602 40.658 30.44 40.638 32.276C40.6061 32.4831 40.6567 32.6945 40.779 32.8646C40.9013 33.0348 41.0855 33.1502 41.292 33.186C42.554 33.642 43.796 34.16 45.012 34.728C45.2065 34.8649 45.4467 34.9206 45.6816 34.8832C45.9165 34.8459 46.1276 34.7185 46.27 34.528C47.516 33.222 48.806 31.956 50.092 30.688C50.3457 30.3747 50.6666 30.1224 51.0309 29.9497C51.3952 29.777 51.7936 29.6884 52.1968 29.6903C52.6 29.6922 52.9975 29.7846 53.3602 29.9608C53.7228 30.1369 54.0413 30.3923 54.292 30.708C55.9893 32.388 57.678 34.0767 59.358 35.774C59.6702 36.0285 59.9214 36.3497 60.0933 36.714C60.2652 37.0783 60.3533 37.4765 60.3512 37.8793C60.349 38.282 60.2568 38.6792 60.0811 39.0417C59.9054 39.4042 59.6508 39.7228 59.336 39.974C58.046 41.28 56.75 42.574 55.436 43.866C55.2804 43.9806 55.175 44.1508 55.1418 44.3413C55.1086 44.5317 55.1503 44.7275 55.258 44.888C55.846 46.162 56.388 47.46 56.868 48.778C56.9137 48.9822 57.0361 49.161 57.21 49.2775C57.3838 49.394 57.5957 49.4393 57.802 49.404C59.516 49.382 61.23 49.394 62.946 49.404C65.262 49.404 66.184 50.314 66.212 52.604C66.212 52.872 66.238 53.138 66.264 53.604C67.838 52.338 69.12 53.136 70.446 53.908C75.5447 56.88 80.6547 59.8327 85.776 62.766C86.2747 63.0012 86.6913 63.3806 86.9719 63.8552C87.2525 64.3298 87.3843 64.8777 87.35 65.428C87.306 67.448 87.35 69.468 87.336 71.49C87.336 72.622 86.876 73.202 86.018 73.23C85.12 73.258 84.596 72.646 84.588 71.496C84.574 69.66 84.564 67.822 84.588 65.986C84.6088 65.7617 84.5591 65.5365 84.4458 65.3419C84.3325 65.1472 84.1613 64.9927 83.956 64.9C78.8373 61.9667 73.726 59.016 68.622 56.048C68.4532 55.9288 68.2516 55.8647 68.045 55.8647C67.8384 55.8647 67.6368 55.9288 67.468 56.048C62.34 59.03 57.192 61.978 52.068 64.972C51.9079 65.084 51.774 65.2295 51.6755 65.3984C51.5771 65.5672 51.5166 65.7554 51.498 65.95C51.464 71.858 51.48 77.766 51.46 83.674C51.4414 83.8971 51.4926 84.1206 51.6065 84.3133C51.7205 84.5061 51.8915 84.6587 52.096 84.75C57.2173 87.6833 62.3293 90.6333 67.432 93.6C67.6119 93.7288 67.8277 93.7981 68.049 93.7981C68.2703 93.7981 68.4861 93.7288 68.666 93.6C73.7407 90.648 78.826 87.7147 83.922 84.8C84.1401 84.701 84.3216 84.5359 84.4408 84.3281C84.56 84.1203 84.6108 83.8803 84.586 83.642C84.552 81.99 84.564 80.336 84.586 78.682C84.586 77.576 85.084 76.984 85.946 76.97C86.808 76.956 87.326 77.538 87.334 78.638C87.348 80.566 87.334 82.496 87.334 84.424C87.358 84.9148 87.2383 85.4019 86.9897 85.8257C86.741 86.2495 86.3741 86.5915 85.934 86.81C80.446 89.9633 74.9653 93.13 69.492 96.31C69.0535 96.592 68.5424 96.7402 68.021 96.7367C67.4997 96.7331 66.9906 96.5779 66.556 96.29C61.136 93.1393 55.706 90.006 50.266 86.89C49.7684 86.6497 49.3543 86.2656 49.0773 85.7875C48.8003 85.3094 48.673 84.7592 48.712 84.208C48.746 82.954 48.732 81.698 48.712 80.442C48.7318 80.1446 48.6539 79.8489 48.49 79.6C47.68 78.724 46.83 77.884 45.956 77.072C45.846 77.0196 45.7259 76.9915 45.6041 76.9898C45.4822 76.9881 45.3615 77.0127 45.25 77.062C43.888 77.598 42.548 78.196 41.18 78.712C40.692 78.896 40.646 79.19 40.65 79.618C40.664 81.456 40.668 83.292 40.65 85.128C40.6877 85.5199 40.6383 85.9154 40.5054 86.286C40.3724 86.6567 40.1592 86.9934 39.881 87.272C39.6027 87.5507 39.2663 87.7643 38.8959 87.8978C38.5254 88.0312 38.13 88.0812 37.738 88.044C35.3193 88.0573 32.9007 88.0573 30.482 88.044C30.0898 88.0758 29.6954 88.0216 29.3263 87.8852C28.9572 87.7488 28.6223 87.5335 28.3451 87.2543C28.0678 86.9751 27.8548 86.6388 27.7209 86.2687C27.587 85.8987 27.5355 85.504 27.57 85.112C27.554 83.062 27.57 81.014 27.57 79L22.438 76.882C21.102 78.222 19.702 79.63 18.296 81.032C18.0422 81.3836 17.7089 81.6702 17.3233 81.8685C16.9377 82.0668 16.5107 82.1712 16.0771 82.1731C15.6435 82.1751 15.2156 82.0745 14.8282 81.8797C14.4408 81.6849 14.105 81.4013 13.848 81.052C12.1987 79.4107 10.5533 77.766 8.912 76.118C8.59081 75.8634 8.33185 75.5389 8.15478 75.1693C7.97771 74.7996 7.88719 74.3945 7.89008 73.9847C7.89297 73.5748 7.9892 73.171 8.17147 72.8039C8.35374 72.4368 8.61725 72.116 8.942 71.866C10.366 70.436 11.8 69.016 13.19 67.632L11.064 62.502C9.274 62.502 7.408 62.438 5.546 62.522C4.81021 62.6366 4.05735 62.4962 3.41235 62.124C2.76736 61.7519 2.269 61.1704 2 60.476L2 51.29ZM48.522 75.794L48.7 75.594V74.698C48.7 71.698 48.74 68.698 48.682 65.698C48.6278 65.0738 48.7653 64.4479 49.0762 63.904C49.3871 63.3601 49.8566 62.924 50.422 62.654C54.554 60.33 58.644 57.934 62.744 55.554C62.992 55.41 63.36 55.186 63.376 54.976C63.444 54.048 63.406 53.112 63.406 52.132C61.336 52.132 59.406 52.132 57.482 52.132C56.7589 52.2252 56.0274 52.0394 55.4363 51.6126C54.8452 51.1857 54.4389 50.5497 54.3 49.834C53.8399 48.541 53.3132 47.2726 52.722 46.034C52.4993 45.7273 52.3396 45.3796 52.2522 45.0109C52.1647 44.6422 52.1511 44.2598 52.2123 43.8858C52.2735 43.5118 52.4082 43.1536 52.6086 42.832C52.8091 42.5104 53.0712 42.2317 53.38 42.012L54.354 41.038L57.414 38L52.026 32.624C50.756 33.896 49.426 35.236 48.08 36.576C47.8589 36.9036 47.573 37.1824 47.24 37.3952C46.907 37.6081 46.5339 37.7505 46.1438 37.8136C45.7536 37.8768 45.3547 37.8593 44.9715 37.7624C44.5884 37.6655 44.2292 37.4911 43.916 37.25C42.8785 36.7316 41.8097 36.278 40.716 35.892C38.256 35.04 37.88 34.564 37.88 31.992C37.88 30.226 37.88 28.46 37.88 26.592H30.298C30.298 28.612 30.298 30.504 30.298 32.392C30.364 32.7725 30.3536 33.1623 30.2675 33.5388C30.1814 33.9153 30.0212 34.2708 29.7964 34.5848C29.5716 34.8988 29.2865 35.1649 28.9579 35.3677C28.6292 35.5705 28.2635 35.7059 27.882 35.766C26.6165 36.2151 25.3761 36.7319 24.166 37.314C23.5549 37.7467 22.7983 37.9221 22.0591 37.8024C21.3199 37.6827 20.6573 37.2774 20.214 36.674C18.832 35.296 17.456 33.912 16.146 32.602L10.772 37.978C12.122 39.32 13.534 40.712 14.934 42.118C15.4906 42.5655 15.8594 43.2053 15.9678 43.9112C16.0763 44.6171 15.9165 45.338 15.52 45.932C14.92 47.228 14.374 48.562 13.882 49.908C13.7327 50.5903 13.3388 51.1944 12.7748 51.6063C12.2107 52.0182 11.5154 52.2095 10.82 52.144C9.136 52.164 7.452 52.144 5.768 52.144C5.446 52.144 5.126 52.172 4.83 52.186V59.722C6.89 59.722 8.876 59.722 10.864 59.722C11.5429 59.6473 12.2255 59.8269 12.7796 60.2263C13.3337 60.6256 13.7201 61.2163 13.864 61.884C14.334 63.174 14.824 64.462 15.418 65.698C15.6534 66.0135 15.8235 66.3728 15.9184 66.7548C16.0133 67.1369 16.0311 67.534 15.9708 67.923C15.9104 68.312 15.7732 68.685 15.567 69.0204C15.3608 69.3557 15.0899 69.6466 14.77 69.876C13.416 71.232 12.058 72.588 10.77 73.876L16.156 79.276C17.57 77.844 19.018 76.352 20.494 74.892C20.8996 74.4455 21.4434 74.1482 22.0382 74.0478C22.633 73.9473 23.2443 74.0495 23.774 74.338C25.2833 75.0047 26.8047 75.6367 28.338 76.234C28.9164 76.4006 29.4224 76.7559 29.7754 77.2434C30.1284 77.7309 30.3082 78.3225 30.286 78.924C30.302 79.996 30.286 81.068 30.286 82.138C30.286 83.166 30.286 84.194 30.286 85.194H37.864C37.864 83.226 37.864 81.33 37.864 79.432C37.8036 79.0507 37.8191 78.6612 37.9096 78.2859C38 77.9106 38.1636 77.5569 38.391 77.2449C38.6185 76.933 38.9052 76.669 39.2348 76.468C39.5645 76.2671 39.9305 76.1332 40.312 76.074C41.2834 75.8091 42.2224 75.4375 43.112 74.966C45.136 73.766 46.952 73.518 48.512 75.798" fill="black"/>
<path d="M48.522 75.794L48.7 75.594V74.698C48.7 71.698 48.74 68.698 48.682 65.698C48.6278 65.0738 48.7653 64.4479 49.0762 63.904C49.3871 63.3601 49.8566 62.924 50.422 62.654C54.554 60.33 58.644 57.934 62.744 55.554C62.992 55.41 63.36 55.186 63.376 54.976C63.444 54.048 63.406 53.112 63.406 52.132C61.336 52.132 59.406 52.132 57.482 52.132C56.7589 52.2252 56.0274 52.0394 55.4363 51.6126C54.8452 51.1857 54.4389 50.5497 54.3 49.834C53.8399 48.541 53.3132 47.2726 52.722 46.034C52.4993 45.7273 52.3396 45.3796 52.2522 45.0109C52.1647 44.6422 52.1511 44.2598 52.2123 43.8858C52.2735 43.5118 52.4082 43.1536 52.6086 42.832C52.8091 42.5104 53.0712 42.2317 53.38 42.012L54.354 41.038L57.414 38L52.026 32.624C50.756 33.896 49.426 35.236 48.08 36.576C47.8589 36.9036 47.573 37.1824 47.24 37.3952C46.907 37.6081 46.5339 37.7505 46.1438 37.8136C45.7536 37.8768 45.3547 37.8593 44.9715 37.7624C44.5884 37.6655 44.2292 37.4911 43.916 37.25C42.8785 36.7316 41.8097 36.278 40.716 35.892C38.256 35.04 37.88 34.564 37.88 31.992C37.88 30.226 37.88 28.46 37.88 26.592H30.298C30.298 28.612 30.298 30.504 30.298 32.392C30.364 32.7725 30.3536 33.1623 30.2675 33.5388C30.1814 33.9153 30.0212 34.2708 29.7964 34.5848C29.5716 34.8988 29.2865 35.1649 28.9579 35.3677C28.6292 35.5705 28.2635 35.7059 27.882 35.766C26.6165 36.2151 25.3761 36.7319 24.166 37.314C23.5549 37.7467 22.7983 37.9221 22.0591 37.8024C21.3199 37.6827 20.6573 37.2774 20.214 36.674C18.832 35.296 17.456 33.912 16.146 32.602L10.772 37.978C12.122 39.32 13.534 40.712 14.934 42.118C15.4906 42.5655 15.8594 43.2053 15.9678 43.9112C16.0763 44.6171 15.9165 45.338 15.52 45.932C14.92 47.228 14.374 48.562 13.882 49.908C13.7327 50.5903 13.3388 51.1944 12.7748 51.6063C12.2107 52.0182 11.5154 52.2095 10.82 52.144C9.136 52.164 7.452 52.144 5.768 52.144C5.446 52.144 5.126 52.172 4.83 52.186V59.722C6.89 59.722 8.876 59.722 10.864 59.722C11.5429 59.6473 12.2255 59.8269 12.7796 60.2263C13.3337 60.6256 13.7201 61.2163 13.864 61.884C14.334 63.174 14.824 64.462 15.418 65.698C15.6534 66.0135 15.8235 66.3728 15.9184 66.7548C16.0133 67.1369 16.0311 67.534 15.9708 67.923C15.9104 68.312 15.7732 68.685 15.567 69.0204C15.3608 69.3557 15.0899 69.6466 14.77 69.876C13.416 71.232 12.058 72.588 10.77 73.876L16.156 79.276C17.57 77.844 19.018 76.352 20.494 74.892C20.8996 74.4455 21.4434 74.1482 22.0382 74.0478C22.633 73.9473 23.2443 74.0495 23.774 74.338C25.2833 75.0047 26.8047 75.6367 28.338 76.234C28.9164 76.4006 29.4224 76.7559 29.7754 77.2434C30.1284 77.7309 30.3082 78.3225 30.286 78.924C30.302 79.996 30.286 81.068 30.286 82.138C30.286 83.166 30.286 84.194 30.286 85.194H37.864C37.864 83.226 37.864 81.33 37.864 79.432C37.8036 79.0507 37.8191 78.6612 37.9096 78.2859C38 77.9106 38.1636 77.5569 38.391 77.2449C38.6185 76.933 38.9052 76.669 39.2348 76.468C39.5645 76.2671 39.9305 76.1332 40.312 76.074C41.2834 75.8091 42.2224 75.4375 43.112 74.966C45.136 73.766 46.952 73.518 48.512 75.798M2 51.29C2.3042 50.6208 2.81887 50.0694 3.46556 49.7199C4.11226 49.3703 4.8555 49.2419 5.582 49.354C7.2 49.436 8.826 49.394 10.448 49.354C10.6107 49.3448 10.7692 49.2987 10.9116 49.2194C11.054 49.1401 11.1765 49.0295 11.27 48.896C11.92 47.388 12.498 45.848 13.142 44.206C11.814 42.884 10.406 41.486 9.002 40.082C8.65084 39.8271 8.36502 39.4927 8.16793 39.1062C7.97085 38.7196 7.8681 38.2919 7.8681 37.858C7.8681 37.4241 7.97085 36.9964 8.16793 36.6098C8.36502 36.2232 8.65084 35.8889 9.002 35.634C10.622 34.0073 12.246 32.3847 13.874 30.766C14.1283 30.4338 14.4557 30.1646 14.8308 29.9794C15.2059 29.7941 15.6186 29.6978 16.037 29.6978C16.4554 29.6978 16.8681 29.7941 17.2432 29.9794C17.6183 30.1646 17.9457 30.4338 18.2 30.766C19.464 32.014 20.726 33.262 21.96 34.54C22.0889 34.723 22.284 34.8486 22.5039 34.8901C22.7239 34.9315 22.9514 34.8856 23.138 34.762C24.35 34.188 25.596 33.68 26.858 33.222C27.372 33.034 27.578 32.822 27.566 32.256C27.528 30.456 27.544 28.644 27.554 26.838C27.5068 26.4389 27.5498 26.0343 27.6798 25.6541C27.8097 25.2738 28.0234 24.9276 28.3049 24.6408C28.5865 24.3541 28.9288 24.1342 29.3066 23.9973C29.6844 23.8605 30.0881 23.8101 30.488 23.85C32.9067 23.8287 35.3253 23.8287 37.744 23.85C38.1361 23.8086 38.5325 23.8557 38.904 23.9879C39.2755 24.1201 39.6125 24.3341 39.8903 24.614C40.1681 24.8938 40.3794 25.2325 40.5089 25.605C40.6383 25.9774 40.6824 26.3742 40.638 26.766C40.654 28.602 40.658 30.44 40.638 32.276C40.6061 32.4831 40.6567 32.6945 40.779 32.8646C40.9013 33.0348 41.0855 33.1502 41.292 33.186C42.554 33.642 43.796 34.16 45.012 34.728C45.2065 34.8649 45.4467 34.9206 45.6816 34.8832C45.9165 34.8459 46.1276 34.7185 46.27 34.528C47.516 33.222 48.806 31.956 50.092 30.688C50.3457 30.3747 50.6666 30.1224 51.0309 29.9497C51.3952 29.777 51.7936 29.6884 52.1968 29.6903C52.6 29.6922 52.9975 29.7846 53.3602 29.9608C53.7228 30.1369 54.0413 30.3923 54.292 30.708C55.9893 32.388 57.678 34.0767 59.358 35.774C59.6702 36.0285 59.9214 36.3497 60.0933 36.714C60.2652 37.0783 60.3533 37.4765 60.3512 37.8793C60.349 38.282 60.2568 38.6792 60.0811 39.0417C59.9054 39.4042 59.6508 39.7228 59.336 39.974C58.046 41.28 56.75 42.574 55.436 43.866C55.2804 43.9806 55.175 44.1508 55.1418 44.3413C55.1086 44.5317 55.1503 44.7275 55.258 44.888C55.846 46.162 56.388 47.46 56.868 48.778C56.9137 48.9822 57.0361 49.161 57.21 49.2775C57.3838 49.394 57.5957 49.4393 57.802 49.404C59.516 49.382 61.23 49.394 62.946 49.404C65.262 49.404 66.184 50.314 66.212 52.604C66.212 52.872 66.238 53.138 66.264 53.604C67.838 52.338 69.12 53.136 70.446 53.908C75.5447 56.88 80.6547 59.8327 85.776 62.766C86.2747 63.0012 86.6913 63.3806 86.9719 63.8552C87.2525 64.3298 87.3843 64.8777 87.35 65.428C87.306 67.448 87.35 69.468 87.336 71.49C87.336 72.622 86.876 73.202 86.018 73.23C85.12 73.258 84.596 72.646 84.588 71.496C84.574 69.66 84.564 67.822 84.588 65.986C84.6088 65.7617 84.5591 65.5365 84.4458 65.3419C84.3325 65.1472 84.1613 64.9927 83.956 64.9C78.8373 61.9667 73.726 59.016 68.622 56.048C68.4532 55.9288 68.2516 55.8647 68.045 55.8647C67.8384 55.8647 67.6368 55.9288 67.468 56.048C62.34 59.03 57.192 61.978 52.068 64.972C51.9079 65.084 51.774 65.2295 51.6755 65.3984C51.5771 65.5672 51.5166 65.7554 51.498 65.95C51.464 71.858 51.48 77.766 51.46 83.674C51.4414 83.8971 51.4926 84.1206 51.6065 84.3133C51.7205 84.5061 51.8915 84.6587 52.096 84.75C57.2173 87.6833 62.3293 90.6333 67.432 93.6C67.6119 93.7288 67.8277 93.7981 68.049 93.7981C68.2703 93.7981 68.4861 93.7288 68.666 93.6C73.7407 90.648 78.826 87.7147 83.922 84.8C84.1401 84.701 84.3216 84.5359 84.4408 84.3281C84.56 84.1203 84.6108 83.8803 84.586 83.642C84.552 81.99 84.564 80.336 84.586 78.682C84.586 77.576 85.084 76.984 85.946 76.97C86.808 76.956 87.326 77.538 87.334 78.638C87.348 80.566 87.334 82.496 87.334 84.424C87.358 84.9148 87.2383 85.4019 86.9897 85.8257C86.741 86.2495 86.3741 86.5915 85.934 86.81C80.446 89.9633 74.9653 93.13 69.492 96.31C69.0535 96.592 68.5424 96.7402 68.021 96.7367C67.4997 96.7331 66.9906 96.5779 66.556 96.29C61.136 93.1393 55.706 90.006 50.266 86.89C49.7684 86.6497 49.3543 86.2656 49.0773 85.7875C48.8003 85.3094 48.673 84.7592 48.712 84.208C48.746 82.954 48.732 81.698 48.712 80.442C48.7318 80.1446 48.6539 79.8489 48.49 79.6C47.68 78.724 46.83 77.884 45.956 77.072C45.846 77.0196 45.7259 76.9915 45.6041 76.9898C45.4822 76.9881 45.3615 77.0127 45.25 77.062C43.888 77.598 42.548 78.196 41.18 78.712C40.692 78.896 40.646 79.19 40.65 79.618C40.664 81.456 40.668 83.292 40.65 85.128C40.6877 85.5199 40.6383 85.9154 40.5054 86.286C40.3724 86.6567 40.1592 86.9934 39.881 87.272C39.6027 87.5507 39.2663 87.7643 38.8959 87.8978C38.5254 88.0312 38.13 88.0812 37.738 88.044C35.3193 88.0573 32.9007 88.0573 30.482 88.044C30.0898 88.0758 29.6954 88.0216 29.3263 87.8852C28.9572 87.7488 28.6223 87.5335 28.3451 87.2543C28.0678 86.9751 27.8548 86.6388 27.7209 86.2687C27.587 85.8987 27.5355 85.504 27.57 85.112C27.554 83.062 27.57 81.014 27.57 79L22.438 76.882C21.102 78.222 19.702 79.63 18.296 81.032C18.0422 81.3836 17.7089 81.6702 17.3233 81.8685C16.9377 82.0668 16.5107 82.1712 16.0771 82.1731C15.6435 82.1751 15.2156 82.0745 14.8282 81.8797C14.4408 81.6849 14.105 81.4013 13.848 81.052C12.1987 79.4107 10.5533 77.766 8.912 76.118C8.59081 75.8634 8.33185 75.5389 8.15478 75.1693C7.97771 74.7996 7.88719 74.3945 7.89008 73.9847C7.89297 73.5748 7.9892 73.171 8.17147 72.8039C8.35374 72.4368 8.61725 72.116 8.942 71.866C10.366 70.436 11.8 69.016 13.19 67.632L11.064 62.502C9.274 62.502 7.408 62.438 5.546 62.522C4.81021 62.6366 4.05735 62.4962 3.41235 62.124C2.76736 61.7519 2.269 61.1704 2 60.476L2 51.29Z" stroke="white"/>
<path d="M65.8178 26.1161C66.6578 24.2141 66.6578 24.2141 65.2338 22.7901C63.6558 21.2101 63.6498 20.1541 65.2178 18.5901C65.8658 17.9401 66.5058 17.2801 67.1698 16.6461C67.3834 16.3921 67.6494 16.1874 67.9497 16.046C68.2499 15.9047 68.5771 15.83 68.9089 15.8271C69.2408 15.8243 69.5693 15.8933 69.8719 16.0295C70.1745 16.1657 70.4439 16.3658 70.6618 16.6161C70.9669 16.8721 71.2475 17.156 71.4999 17.4641C71.598 17.6492 71.7354 17.8106 71.9024 17.937C72.0695 18.0635 72.2621 18.1519 72.4669 18.1961C72.6717 18.2403 72.8837 18.2392 73.088 18.1929C73.2923 18.1466 73.4841 18.0562 73.6498 17.9281C74.2038 17.6321 74.4238 17.3861 74.3818 16.7861C74.3439 16.144 74.3439 15.5002 74.3818 14.8581C74.3751 14.2991 74.5861 13.7595 74.9702 13.3533C75.3543 12.9472 75.8814 12.7065 76.4399 12.6821C77.7819 12.6141 79.1338 12.6161 80.4758 12.6821C81.0045 12.6957 81.5088 12.9074 81.8889 13.2752C82.2689 13.643 82.4969 14.1401 82.5278 14.6681C82.6076 15.1829 82.6211 15.7058 82.5678 16.2241C82.5069 16.4329 82.4917 16.6525 82.5235 16.8678C82.5553 17.083 82.6332 17.2888 82.7519 17.4712C82.8706 17.6535 83.0273 17.8081 83.2113 17.9242C83.3953 18.0403 83.6022 18.1154 83.8178 18.1441C84.3298 18.2861 84.6338 18.3221 84.9898 17.9101C85.4178 17.4301 85.8725 16.9747 86.3518 16.5461C86.562 16.3205 86.8162 16.1404 87.0987 16.0169C87.3812 15.8934 87.6859 15.8291 87.9942 15.8279C88.3025 15.8268 88.6078 15.8889 88.8912 16.0104C89.1746 16.1318 89.43 16.3101 89.6418 16.5341C90.5118 17.3501 91.3578 18.1941 92.1718 19.0661C92.3865 19.2759 92.5575 19.5261 92.6749 19.8024C92.7923 20.0786 92.8538 20.3754 92.8558 20.6755C92.8579 20.9756 92.8004 21.2732 92.6868 21.551C92.5732 21.8289 92.4056 22.0814 92.1939 22.2941C91.8844 22.6741 91.5373 23.0219 91.1578 23.3321C90.9888 23.4285 90.8421 23.5597 90.7273 23.7169C90.6125 23.874 90.5322 24.0537 90.4918 24.2441C90.4514 24.4345 90.4517 24.6313 90.4927 24.8216C90.5338 25.0118 90.6145 25.1913 90.7298 25.3481C91.0258 25.9301 91.2878 26.1981 91.9298 26.1481C92.5412 26.1084 93.1545 26.1084 93.7658 26.1481C94.0658 26.1454 94.3633 26.2026 94.6409 26.3163C94.9185 26.43 95.1707 26.5979 95.3826 26.8102C95.5945 27.0225 95.762 27.2749 95.8752 27.5527C95.9884 27.8305 96.045 28.1281 96.0418 28.4281C96.0778 29.6281 96.0738 30.8161 96.0418 32.0081C96.0594 32.5982 95.8453 33.1718 95.4453 33.6061C95.0454 34.0404 94.4914 34.301 93.9018 34.3321C93.3862 34.4052 92.8633 34.4126 92.3458 34.3541C92.1506 34.3017 91.9464 34.2913 91.7468 34.3236C91.5472 34.3559 91.3568 34.4302 91.188 34.5415C91.0192 34.6529 90.8759 34.7987 90.7677 34.9694C90.6594 35.1402 90.5886 35.332 90.5598 35.5321C90.3918 36.0681 90.3478 36.4101 90.7998 36.7981C91.3067 37.2416 91.7825 37.7194 92.2239 38.2281C92.6227 38.6415 92.8456 39.1936 92.8456 39.7681C92.8456 40.3426 92.6227 40.8946 92.2239 41.3081C91.3579 42.2561 90.4478 43.1701 89.4978 44.0321C89.0826 44.4297 88.5282 44.649 87.9533 44.6431C87.3784 44.6371 86.8287 44.4063 86.4218 44.0001C86.0178 43.6721 85.6485 43.3035 85.3198 42.9001C85.224 42.7405 85.0962 42.6025 84.9443 42.4948C84.7925 42.3871 84.6199 42.3121 84.4376 42.2745C84.2553 42.2369 84.0671 42.2376 83.8851 42.2764C83.703 42.3152 83.531 42.3914 83.3799 42.5001C83.1058 42.5729 82.8688 42.7452 82.7149 42.9833C82.5611 43.2215 82.5015 43.5084 82.5479 43.7881C82.5964 44.46 82.5816 45.1349 82.5038 45.8041C82.465 46.3621 82.213 46.8839 81.8002 47.2614C81.3873 47.6389 80.8451 47.8432 80.2858 47.8321C79.0632 47.8654 77.8392 47.8654 76.6138 47.8321C76.3143 47.834 76.0174 47.776 75.7407 47.6615C75.4639 47.5469 75.2128 47.3782 75.0023 47.1652C74.7917 46.9522 74.6258 46.6992 74.5145 46.4211C74.4031 46.1431 74.3485 45.8456 74.3539 45.5461C74.315 45.119 74.315 44.6892 74.3539 44.2621C74.4184 44.0537 74.4364 43.8336 74.4067 43.6175C74.3769 43.4013 74.3002 43.1943 74.1817 43.011C74.0633 42.8278 73.9061 42.6727 73.7213 42.5568C73.5364 42.4409 73.3284 42.3669 73.1119 42.3401C72.6059 42.2061 72.2898 42.1401 71.9238 42.5661C71.4778 43.0706 71.0002 43.5462 70.4938 43.9901C70.2886 44.1986 70.0441 44.3646 69.7746 44.4785C69.505 44.5925 69.2156 44.652 68.923 44.6539C68.6304 44.6558 68.3402 44.5998 68.0692 44.4894C67.7983 44.3789 67.5518 44.216 67.3438 44.0101C66.4218 43.1601 65.5318 42.2721 64.6818 41.3501C64.4756 41.1421 64.3125 40.8955 64.2018 40.6243C64.0912 40.3532 64.0352 40.0628 64.037 39.7699C64.0389 39.4771 64.0986 39.1874 64.2127 38.9177C64.3267 38.648 64.493 38.4034 64.7018 38.1981C65.0139 37.8204 65.3608 37.4729 65.7378 37.1601C65.9069 37.0658 66.054 36.9366 66.1693 36.7811C66.2845 36.6256 66.3654 36.4473 66.4064 36.2581C66.4475 36.0689 66.4478 35.8732 66.4074 35.6838C66.3669 35.4945 66.2866 35.316 66.1718 35.1601C65.8658 34.5881 65.6158 34.3201 64.9718 34.3701C64.3305 34.4189 63.6862 34.4128 63.0458 34.3521C62.4686 34.3458 61.917 34.1129 61.5099 33.7036C61.1028 33.2943 60.873 32.7414 60.8698 32.1641C60.8018 30.911 60.8018 29.6552 60.8698 28.4021C60.8697 28.0941 60.9329 27.7893 61.0555 27.5067C61.1781 27.2241 61.3575 26.9698 61.5826 26.7595C61.8077 26.5493 62.0737 26.3875 62.3639 26.2844C62.6542 26.1813 62.9625 26.139 63.2698 26.1601C64.0938 26.1441 64.9198 26.1601 65.7998 26.1601M93.2598 29.1041C91.9901 29.0438 90.7317 28.8364 89.5098 28.4861C88.2118 27.9481 88.2399 26.3401 87.6899 25.2121C86.5859 22.9481 88.8618 22.1201 89.8338 20.6841L87.8958 18.8421C86.4958 20.4921 85.2138 21.8181 82.4498 20.7121C79.6498 19.5961 79.7138 17.6941 79.8138 15.4821H77.3118C77.0978 16.7981 77.2598 18.3121 76.5918 19.2121C75.6531 20.1084 74.5027 20.7524 73.2478 21.0841C71.0478 21.9661 70.2738 19.8221 68.9318 18.8841L66.9318 20.8341C69.6258 22.3861 69.7858 24.3741 68.5458 27.0561C67.4178 29.4961 65.4419 28.6901 63.6639 28.9601V31.6361C65.8999 31.5261 67.7498 31.4501 68.8918 34.2161C70.0478 37.0161 68.6218 38.2821 67.1738 39.6161L68.8758 41.6281C70.2758 40.7021 70.9938 38.6041 73.1178 39.3761C74.3422 39.7426 75.4929 40.3207 76.5179 41.0841C77.6779 42.0841 76.8918 43.7001 77.1998 45.0221H79.8579C79.6879 42.7501 79.7118 40.9421 82.4578 39.7981C85.2318 38.6401 86.4758 40.0461 87.9498 41.6741L89.8998 39.7281C88.2878 38.2481 86.8699 37.0241 88.0179 34.2321C89.1659 31.4401 91.0638 31.5221 93.2838 31.6321L93.2598 29.1041Z" fill="black"/>
<path d="M65.8178 26.1161C66.6578 24.2141 66.6578 24.2141 65.2338 22.7901C63.6558 21.2101 63.6498 20.1541 65.2178 18.5901C65.8658 17.9401 66.5058 17.2801 67.1698 16.6461C67.3834 16.3921 67.6494 16.1874 67.9497 16.046C68.2499 15.9047 68.5771 15.83 68.9089 15.8271C69.2408 15.8243 69.5693 15.8933 69.8719 16.0295C70.1745 16.1657 70.4439 16.3658 70.6618 16.6161C70.9669 16.8721 71.2475 17.156 71.4999 17.4641C71.598 17.6492 71.7354 17.8106 71.9024 17.937C72.0695 18.0635 72.2621 18.1519 72.4669 18.1961C72.6717 18.2403 72.8837 18.2392 73.088 18.1929C73.2923 18.1466 73.4841 18.0562 73.6498 17.9281C74.2038 17.6321 74.4238 17.3861 74.3818 16.7861C74.3439 16.144 74.3439 15.5002 74.3818 14.8581C74.3751 14.2991 74.5861 13.7595 74.9702 13.3533C75.3543 12.9472 75.8814 12.7065 76.4399 12.6821C77.7819 12.6141 79.1338 12.6161 80.4758 12.6821C81.0045 12.6957 81.5088 12.9074 81.8889 13.2752C82.2689 13.643 82.4969 14.1401 82.5278 14.6681C82.6076 15.1829 82.6211 15.7058 82.5678 16.2241C82.5069 16.4329 82.4917 16.6525 82.5235 16.8678C82.5553 17.083 82.6332 17.2888 82.7519 17.4712C82.8706 17.6535 83.0273 17.8081 83.2113 17.9242C83.3953 18.0403 83.6022 18.1154 83.8178 18.1441C84.3298 18.2861 84.6338 18.3221 84.9898 17.9101C85.4178 17.4301 85.8725 16.9747 86.3518 16.5461C86.562 16.3205 86.8162 16.1404 87.0987 16.0169C87.3812 15.8934 87.6859 15.8291 87.9942 15.8279C88.3025 15.8268 88.6078 15.8889 88.8912 16.0104C89.1746 16.1318 89.43 16.3101 89.6418 16.5341C90.5118 17.3501 91.3578 18.1941 92.1718 19.0661C92.3865 19.2759 92.5575 19.5261 92.6749 19.8024C92.7923 20.0786 92.8538 20.3754 92.8558 20.6755C92.8579 20.9756 92.8004 21.2732 92.6868 21.551C92.5732 21.8289 92.4056 22.0814 92.1939 22.2941C91.8844 22.6741 91.5373 23.0219 91.1578 23.3321C90.9888 23.4285 90.8421 23.5597 90.7273 23.7169C90.6125 23.874 90.5322 24.0537 90.4918 24.2441C90.4514 24.4345 90.4517 24.6313 90.4927 24.8216C90.5338 25.0118 90.6145 25.1913 90.7298 25.3481C91.0258 25.9301 91.2878 26.1981 91.9298 26.1481C92.5412 26.1084 93.1545 26.1084 93.7658 26.1481C94.0658 26.1454 94.3633 26.2026 94.6409 26.3163C94.9185 26.43 95.1707 26.5979 95.3826 26.8102C95.5945 27.0225 95.762 27.2749 95.8752 27.5527C95.9884 27.8305 96.045 28.1281 96.0418 28.4281C96.0778 29.6281 96.0738 30.8161 96.0418 32.0081C96.0594 32.5982 95.8453 33.1718 95.4453 33.6061C95.0454 34.0404 94.4914 34.301 93.9018 34.3321C93.3862 34.4052 92.8633 34.4126 92.3458 34.3541C92.1506 34.3017 91.9464 34.2913 91.7468 34.3236C91.5472 34.3559 91.3568 34.4302 91.188 34.5415C91.0192 34.6529 90.8759 34.7987 90.7677 34.9694C90.6594 35.1402 90.5886 35.332 90.5598 35.5321C90.3918 36.0681 90.3478 36.4101 90.7998 36.7981C91.3067 37.2416 91.7825 37.7194 92.2239 38.2281C92.6227 38.6415 92.8456 39.1936 92.8456 39.7681C92.8456 40.3426 92.6227 40.8946 92.2239 41.3081C91.3579 42.2561 90.4478 43.1701 89.4978 44.0321C89.0826 44.4297 88.5282 44.649 87.9533 44.6431C87.3784 44.6371 86.8287 44.4063 86.4218 44.0001C86.0178 43.6721 85.6485 43.3035 85.3198 42.9001C85.224 42.7405 85.0962 42.6025 84.9443 42.4948C84.7925 42.3871 84.6199 42.3121 84.4376 42.2745C84.2553 42.2369 84.0671 42.2376 83.8851 42.2764C83.703 42.3152 83.531 42.3914 83.3799 42.5001C83.1058 42.5729 82.8688 42.7452 82.7149 42.9833C82.5611 43.2215 82.5015 43.5084 82.5479 43.7881C82.5964 44.46 82.5816 45.1349 82.5038 45.8041C82.465 46.3621 82.213 46.8839 81.8002 47.2614C81.3873 47.6389 80.8451 47.8432 80.2858 47.8321C79.0632 47.8654 77.8392 47.8654 76.6138 47.8321C76.3143 47.834 76.0174 47.776 75.7407 47.6615C75.4639 47.5469 75.2128 47.3782 75.0023 47.1652C74.7917 46.9522 74.6258 46.6992 74.5145 46.4211C74.4031 46.1431 74.3485 45.8456 74.3539 45.5461C74.315 45.119 74.315 44.6892 74.3539 44.2621C74.4184 44.0537 74.4364 43.8336 74.4067 43.6175C74.3769 43.4013 74.3002 43.1943 74.1817 43.011C74.0633 42.8278 73.9061 42.6727 73.7213 42.5568C73.5364 42.4409 73.3284 42.3669 73.1119 42.3401C72.6059 42.2061 72.2898 42.1401 71.9238 42.5661C71.4778 43.0706 71.0002 43.5462 70.4938 43.9901C70.2886 44.1986 70.0441 44.3646 69.7746 44.4785C69.505 44.5925 69.2156 44.652 68.923 44.6539C68.6304 44.6558 68.3402 44.5998 68.0692 44.4894C67.7983 44.3789 67.5518 44.216 67.3438 44.0101C66.4218 43.1601 65.5318 42.2721 64.6818 41.3501C64.4756 41.1421 64.3125 40.8955 64.2018 40.6243C64.0912 40.3532 64.0352 40.0628 64.037 39.7699C64.0389 39.4771 64.0986 39.1874 64.2127 38.9177C64.3267 38.648 64.493 38.4034 64.7018 38.1981C65.0139 37.8204 65.3608 37.4729 65.7378 37.1601C65.9069 37.0658 66.054 36.9366 66.1693 36.7811C66.2845 36.6256 66.3654 36.4473 66.4064 36.2581C66.4475 36.0689 66.4478 35.8732 66.4074 35.6838C66.3669 35.4945 66.2866 35.316 66.1718 35.1601C65.8658 34.5881 65.6158 34.3201 64.9718 34.3701C64.3305 34.4189 63.6862 34.4128 63.0458 34.3521C62.4686 34.3458 61.917 34.1129 61.5099 33.7036C61.1028 33.2943 60.873 32.7414 60.8698 32.1641C60.8018 30.911 60.8018 29.6552 60.8698 28.4021C60.8697 28.0941 60.9329 27.7893 61.0555 27.5067C61.1781 27.2241 61.3575 26.9698 61.5826 26.7595C61.8077 26.5493 62.0737 26.3875 62.3639 26.2844C62.6542 26.1813 62.9625 26.139 63.2698 26.1601C64.0938 26.1441 64.9198 26.1601 65.7998 26.1601M93.2598 29.1041C91.9901 29.0438 90.7317 28.8364 89.5098 28.4861C88.2118 27.9481 88.2399 26.3401 87.6899 25.2121C86.5859 22.9481 88.8618 22.1201 89.8338 20.6841L87.8958 18.8421C86.4958 20.4921 85.2138 21.8181 82.4498 20.7121C79.6498 19.5961 79.7138 17.6941 79.8138 15.4821H77.3118C77.0978 16.7981 77.2598 18.3121 76.5918 19.2121C75.6531 20.1084 74.5027 20.7524 73.2478 21.0841C71.0478 21.9661 70.2738 19.8221 68.9318 18.8841L66.9318 20.8341C69.6258 22.3861 69.7858 24.3741 68.5458 27.0561C67.4178 29.4961 65.4419 28.6901 63.6639 28.9601V31.6361C65.8999 31.5261 67.7498 31.4501 68.8918 34.2161C70.0478 37.0161 68.6218 38.2821 67.1738 39.6161L68.8758 41.6281C70.2758 40.7021 70.9938 38.6041 73.1178 39.3761C74.3422 39.7426 75.4929 40.3207 76.5179 41.0841C77.6779 42.0841 76.8918 43.7001 77.1998 45.0221H79.8579C79.6879 42.7501 79.7118 40.9421 82.4578 39.7981C85.2318 38.6401 86.4758 40.0461 87.9498 41.6741L89.8998 39.7281C88.2878 38.2481 86.8699 37.0241 88.0179 34.2321C89.1659 31.4401 91.0638 31.5221 93.2838 31.6321L93.2598 29.1041Z" stroke="white"/>
<path d="M79.4278 74.8363C79.4266 77.0971 78.7542 79.3067 77.4959 81.185C76.2376 83.0633 74.4501 84.5258 72.3597 85.3871C70.2694 86.2484 67.9705 86.4697 65.7542 86.0231C63.5379 85.5765 61.5041 84.482 59.9106 82.8783C58.317 81.2746 57.2354 79.2339 56.8028 77.0149C56.3702 74.7959 56.6061 72.4984 57.4806 70.4135C58.3551 68.3287 59.8288 66.5504 61.715 65.304C63.6012 64.0576 65.815 63.3992 68.0758 63.4123C71.0951 63.425 73.9861 64.635 76.1143 66.7767C78.2425 68.9184 79.4342 71.817 79.4278 74.8363ZM76.6658 74.8363C76.6721 73.1219 76.1693 71.4442 75.2211 70.0158C74.2729 68.5875 72.922 67.4728 71.3396 66.8131C69.7572 66.1533 68.0145 65.9782 66.3325 66.3099C64.6505 66.6417 63.1048 67.4654 61.8914 68.6765C60.678 69.8877 59.8515 71.4318 59.5166 73.1132C59.1817 74.7946 59.3536 76.5376 60.0104 78.1213C60.6672 79.7049 61.7794 81.0579 63.206 82.0087C64.6326 82.9596 66.3094 83.4654 68.0238 83.4623C70.3122 83.4597 72.5064 82.5505 74.126 80.9339C75.7457 79.3172 76.6589 77.1247 76.6658 74.8363Z" fill="black" stroke="white"/>
<path d="M53.576 4.00018C55.5315 4.00028 57.4423 4.58541 59.0626 5.68032C60.6828 6.77522 61.9385 8.32983 62.668 10.1442C63.092 11.2122 62.868 12.0042 62.068 12.3202C61.268 12.6362 60.582 12.2522 60.116 11.1782C59.5202 9.70689 58.4471 8.47858 57.0691 7.69061C55.6912 6.90263 54.0883 6.60072 52.5181 6.83338C50.9479 7.06604 49.5014 7.81977 48.4112 8.97347C47.3209 10.1272 46.6501 11.6139 46.5065 13.1947C46.3629 14.7756 46.7549 16.3588 47.6195 17.69C48.4841 19.0213 49.771 20.0233 51.2736 20.535C52.7762 21.0468 54.4072 21.0386 55.9046 20.5117C57.402 19.9849 58.6788 18.97 59.53 17.6302C59.612 17.5022 59.69 17.3702 59.766 17.2302C60.366 16.1782 61.124 15.8522 61.894 16.3102C62.664 16.7682 62.736 17.5722 62.134 18.6402C61.2871 20.1532 60.0554 21.4157 58.5637 22.2996C57.0719 23.1835 55.3731 23.6576 53.6392 23.6737C51.9053 23.6899 50.198 23.2476 48.69 22.3916C47.182 21.5356 45.927 20.2964 45.0521 18.7994C44.1771 17.3023 43.7133 15.6007 43.7076 13.8668C43.7018 12.1328 44.1544 10.4281 45.0194 8.92533C45.8844 7.42254 47.1311 6.17501 48.6334 5.30906C50.1356 4.44312 51.84 3.98951 53.574 3.99418" fill="black"/>
<path d="M53.576 4.00018C55.5315 4.00028 57.4423 4.58541 59.0626 5.68032C60.6828 6.77522 61.9385 8.32983 62.668 10.1442C63.092 11.2122 62.868 12.0042 62.068 12.3202C61.268 12.6362 60.582 12.2522 60.116 11.1782C59.5202 9.70689 58.4471 8.47858 57.0691 7.69061C55.6912 6.90263 54.0883 6.60072 52.5181 6.83338C50.9479 7.06604 49.5014 7.81977 48.4112 8.97347C47.3209 10.1272 46.6501 11.6139 46.5065 13.1947C46.3629 14.7756 46.7549 16.3588 47.6195 17.69C48.4841 19.0213 49.771 20.0233 51.2736 20.535C52.7762 21.0468 54.4072 21.0386 55.9046 20.5117C57.402 19.9849 58.6788 18.97 59.53 17.6302C59.612 17.5022 59.69 17.3702 59.766 17.2302C60.366 16.1782 61.124 15.8522 61.894 16.3102C62.664 16.7682 62.736 17.5722 62.134 18.6402C61.2871 20.1532 60.0554 21.4157 58.5637 22.2996C57.0719 23.1835 55.3731 23.6576 53.6392 23.6737C51.9053 23.6899 50.198 23.2476 48.69 22.3916C47.182 21.5356 45.927 20.2964 45.0521 18.7994C44.1771 17.3023 43.7133 15.6007 43.7076 13.8668C43.7018 12.1328 44.1544 10.4281 45.0194 8.92533C45.8844 7.42254 47.1311 6.17501 48.6334 5.30906C50.1356 4.44312 51.84 3.98951 53.574 3.99418" stroke="white"/>
<path d="M54.9198 15.3477C54.9198 16.0757 54.9198 16.7737 54.9198 17.4717C54.9078 18.5417 54.3938 19.1537 53.5338 19.1437C52.6738 19.1337 52.1818 18.5157 52.1678 17.4377C52.1678 16.7417 52.1678 16.0377 52.1678 15.2197C51.3438 15.2197 50.5918 15.2377 49.8418 15.2197C48.8218 15.1917 48.2578 14.6817 48.2598 13.8317C48.2618 12.9817 48.8058 12.4997 49.8598 12.4737C50.5878 12.4557 51.3158 12.4737 52.1718 12.4737C52.1718 11.6437 52.1598 10.8917 52.1718 10.1417C52.1918 9.14174 52.7278 8.52574 53.5378 8.51574C54.3478 8.50574 54.9018 9.12974 54.9198 10.1157C54.9338 10.8477 54.9198 11.5777 54.9198 12.4777C55.7198 12.4777 56.4598 12.4657 57.2058 12.4777C58.2738 12.4997 58.8918 13.0317 58.8658 13.8777C58.8418 14.6777 58.2278 15.1937 57.2198 15.2217C56.5478 15.2397 55.8758 15.2357 55.2058 15.2477C55.1069 15.2718 55.011 15.3066 54.9198 15.3517" fill="black"/>
<path d="M54.9198 15.3477C54.9198 16.0757 54.9198 16.7737 54.9198 17.4717C54.9078 18.5417 54.3938 19.1537 53.5338 19.1437C52.6738 19.1337 52.1818 18.5157 52.1678 17.4377C52.1678 16.7417 52.1678 16.0377 52.1678 15.2197C51.3438 15.2197 50.5918 15.2377 49.8418 15.2197C48.8218 15.1917 48.2578 14.6817 48.2598 13.8317C48.2618 12.9817 48.8058 12.4997 49.8598 12.4737C50.5878 12.4557 51.3158 12.4737 52.1718 12.4737C52.1718 11.6437 52.1598 10.8917 52.1718 10.1417C52.1918 9.14174 52.7278 8.52574 53.5378 8.51574C54.3478 8.50574 54.9018 9.12974 54.9198 10.1157C54.9338 10.8477 54.9198 11.5777 54.9198 12.4777C55.7198 12.4777 56.4598 12.4657 57.2058 12.4777C58.2738 12.4997 58.8918 13.0317 58.8658 13.8777C58.8418 14.6777 58.2278 15.1937 57.2198 15.2217C56.5478 15.2397 55.8758 15.2357 55.2058 15.2477C55.1069 15.2718 55.011 15.3066 54.9198 15.3517" stroke="white"/>
<path d="M34.772 70.6822C31.104 70.8198 27.514 69.6008 24.6882 67.2583C21.8623 64.9158 19.9989 61.6141 19.454 57.9842C18.9282 54.2367 19.8597 50.4303 22.0566 47.349C24.2534 44.2678 27.5484 42.1464 31.2626 41.4219C34.9768 40.6974 38.8274 41.425 42.0212 43.4548C45.2151 45.4845 47.5088 48.6618 48.43 52.3322C48.66 53.3202 48.32 54.0422 47.526 54.2482C46.672 54.4682 46.028 54.0302 45.742 52.9862C45.299 51.0807 44.3799 49.3187 43.0707 47.865C41.7614 46.4114 40.1049 45.3135 38.256 44.6742C36.6592 44.0731 34.9527 43.8195 33.2501 43.9301C31.5476 44.0407 29.8882 44.5132 28.3827 45.3158C26.8771 46.1185 25.5601 47.233 24.5194 48.585C23.4787 49.9369 22.7382 51.4952 22.3474 53.156C21.9566 54.8168 21.9244 56.5418 22.253 58.216C22.5816 59.8902 23.2634 61.4751 24.253 62.8649C25.2425 64.2547 26.5171 65.4176 27.9916 66.2759C29.4661 67.1341 31.1067 67.6681 32.804 67.8422C35.567 68.1679 38.3568 67.514 40.6873 65.9944C43.0178 64.4748 44.7415 62.1859 45.558 59.5262C45.6485 59.1716 45.7958 58.8339 45.994 58.5262C46.1713 58.2687 46.4392 58.0874 46.7442 58.0184C47.0493 57.9495 47.3691 57.998 47.64 58.1542C47.9539 58.2913 48.202 58.5453 48.3316 58.8624C48.4611 59.1794 48.462 59.5345 48.334 59.8522C47.5015 62.8554 45.7423 65.5191 43.307 67.4638C40.8718 69.4084 37.8849 70.5348 34.772 70.6822Z" fill="black" stroke="white"/>
<path d="M34.0938 48.6944C35.9934 48.7259 37.8045 49.5027 39.1367 50.8572C40.4689 52.2117 41.2154 54.0355 41.2154 55.9354C41.2154 57.8352 40.4689 59.659 39.1367 61.0135C37.8045 62.368 35.9934 63.1448 34.0938 63.1764C33.1328 63.1923 32.1782 63.0168 31.2857 62.6601C30.3931 62.3034 29.5806 61.7726 28.8953 61.0986C28.21 60.4246 27.6658 59.621 27.2943 58.7345C26.9228 57.8481 26.7314 56.8965 26.7314 55.9354C26.7314 54.9742 26.9228 54.0227 27.2943 53.1362C27.6658 52.2497 28.21 51.4461 28.8953 50.7721C29.5806 50.0981 30.3931 49.5673 31.2857 49.2106C32.1782 48.8539 33.1328 48.6784 34.0938 48.6944ZM38.5738 55.9163C38.5767 55.3277 38.4627 54.7443 38.2383 54.2001C38.0139 53.6559 37.6836 53.1617 37.2666 52.7462C36.8496 52.3307 36.3542 52.0022 35.8092 51.7797C35.2642 51.5573 34.6804 51.4453 34.0918 51.4503C32.9028 51.4498 31.7622 51.9207 30.9198 52.7597C30.0774 53.5987 29.602 54.7374 29.5978 55.9264C29.6123 57.1156 30.0918 58.252 30.9336 59.0922C31.7753 59.9325 32.9125 60.4099 34.1018 60.4224C35.2914 60.416 36.4301 59.9384 37.2683 59.0942C38.1065 58.25 38.5759 57.108 38.5738 55.9184" fill="black"/>
<path d="M38.5738 55.9163C38.5767 55.3277 38.4627 54.7443 38.2383 54.2001C38.0139 53.6559 37.6836 53.1617 37.2666 52.7462C36.8496 52.3307 36.3542 52.0022 35.8092 51.7797C35.2642 51.5573 34.6804 51.4453 34.0918 51.4503C32.9028 51.4498 31.7622 51.9207 30.9198 52.7597C30.0774 53.5987 29.602 54.7374 29.5978 55.9264C29.6123 57.1156 30.0918 58.252 30.9336 59.0922C31.7753 59.9325 32.9125 60.4099 34.1018 60.4224C35.2914 60.416 36.4301 59.9384 37.2683 59.0942C38.1065 58.25 38.5759 57.108 38.5738 55.9184M34.0938 48.6944C35.9934 48.7259 37.8045 49.5027 39.1367 50.8572C40.4689 52.2117 41.2154 54.0355 41.2154 55.9354C41.2154 57.8352 40.4689 59.659 39.1367 61.0135C37.8045 62.368 35.9934 63.1448 34.0938 63.1764C33.1328 63.1923 32.1782 63.0168 31.2857 62.6601C30.3931 62.3034 29.5806 61.7726 28.8953 61.0986C28.21 60.4246 27.6658 59.621 27.2943 58.7345C26.9228 57.8481 26.7314 56.8965 26.7314 55.9354C26.7314 54.9742 26.9228 54.0227 27.2943 53.1362C27.6658 52.2497 28.21 51.4461 28.8953 50.7721C29.5806 50.0981 30.3931 49.5673 31.2857 49.2106C32.1782 48.8539 33.1328 48.6784 34.0938 48.6944Z" stroke="white"/>
<path d="M84.9301 30.3041C84.9105 31.5876 84.5097 32.8364 83.7785 33.8916C83.0474 34.9467 82.0189 35.7606 80.824 36.2298C79.629 36.6989 78.3216 36.8021 77.0679 36.5262C75.8141 36.2503 74.6708 35.6078 73.7831 34.6803C72.8955 33.7529 72.3038 32.5825 72.0831 31.3178C71.8625 30.0532 72.0229 28.7515 72.544 27.5783C73.0651 26.4051 73.9233 25.4134 75.0095 24.7292C76.0957 24.045 77.3609 23.6993 78.6441 23.7361C80.3447 23.7853 81.9576 24.5019 83.1339 25.731C84.3103 26.9602 84.9555 28.6029 84.9301 30.3041ZM74.7461 30.1701C74.7395 30.9037 74.9502 31.6228 75.3516 32.2369C75.7531 32.851 76.3273 33.3325 77.002 33.6207C77.6766 33.9089 78.4215 33.991 79.1428 33.8566C79.864 33.7222 80.5293 33.3773 81.0548 32.8654C81.5804 32.3535 81.9426 31.6975 82.0959 30.98C82.2492 30.2626 82.1867 29.5158 81.9163 28.8338C81.6458 28.1518 81.1796 27.5651 80.5763 27.1477C79.973 26.7302 79.2596 26.5007 78.5261 26.488C77.5366 26.4752 76.5826 26.8559 75.8737 27.5464C75.1649 28.2369 74.7593 29.1806 74.7461 30.1701Z" fill="black" stroke="white"/>
<path d="M68.0421 81.258C66.7659 81.2623 65.5173 80.8875 64.4544 80.1812C63.3916 79.4748 62.5625 78.4687 62.0723 77.2905C61.5821 76.1122 61.4529 74.8149 61.7011 73.5631C61.9493 72.3114 62.5637 71.1615 63.4664 70.2594C64.369 69.3573 65.5193 68.7437 66.7712 68.4962C68.0231 68.2488 69.3203 68.3789 70.4983 68.8698C71.6762 69.3607 72.6818 70.1904 73.3875 71.2537C74.0932 72.317 74.4672 73.5659 74.4621 74.842C74.4506 76.5408 73.7703 78.1666 72.5687 79.3675C71.3671 80.5683 69.7408 81.2475 68.0421 81.258ZM67.9781 78.502C68.9557 78.5184 69.8997 78.1458 70.6026 77.4662C71.3055 76.7866 71.7096 75.8555 71.7261 74.878C71.7425 73.9004 71.3699 72.9563 70.6903 72.2534C70.0107 71.5506 69.0797 71.1464 68.1021 71.13C67.6095 71.1077 67.1174 71.1845 66.655 71.3557C66.1926 71.527 65.7692 71.7892 65.4099 72.1269C65.0506 72.4646 64.7626 72.8709 64.5631 73.3219C64.3636 73.7728 64.2565 74.2592 64.2482 74.7522C64.2399 75.2453 64.3306 75.7349 64.5148 76.1923C64.6991 76.6497 64.9732 77.0655 65.3209 77.4151C65.6687 77.7647 66.083 78.041 66.5394 78.2277C66.9958 78.4144 67.485 78.5077 67.9781 78.502Z" fill="black" stroke="white"/>
</g>
<defs>
<clipPath id="clip0_1116_371">
<rect width="100" height="100" fill="white"/>
</clipPath>
</defs>
</svg>
