<svg width="48" height="48" viewBox="0 0 48 48" fill="none" xmlns="http://www.w3.org/2000/svg">
<path fill-rule="evenodd" clip-rule="evenodd" d="M19 33C19 31.8954 19.8954 31 21 31H27C28.1046 31 29 31.8954 29 33V34.5C29 36.9853 31.0147 39 33.5 39C35.9853 39 38 36.9853 38 34.5V33H40V34.5C40 38.0899 37.0899 41 33.5 41C30.0784 41 27.2742 38.3562 27.0189 34.9999C27.0126 35 27.0063 35 27 35H21C19.8954 35 19 34.1046 19 33Z" fill="url(#paint0_linear_1069_2313)"/>
<path fill-rule="evenodd" clip-rule="evenodd" d="M8 23C8 14.1634 15.1634 7 24 7C32.8366 7 40 14.1634 40 23V23.9972V24V33C40 34.1046 39.1046 35 38 35H37C35.8954 35 35 34.1046 35 33V24C35 22.8954 35.8954 22 37 22H37.9648C37.4521 14.7347 31.3958 9 24 9C16.6042 9 10.5479 14.7347 10.0352 22H11C12.1046 22 13 22.8954 13 24V33C13 34.1046 12.1046 35 11 35H10C8.89543 35 8 34.1046 8 33V24V23Z" fill="#2E2E2E"/>
<defs>
<linearGradient id="paint0_linear_1069_2313" x1="27.2596" y1="45.6739" x2="36.7164" y2="29.6284" gradientUnits="userSpaceOnUse">
<stop stop-color="#9358F7"/>
<stop offset="0.259732" stop-color="#7B78F2"/>
<stop offset="0.500607" stop-color="#6197EE"/>
<stop offset="0.766547" stop-color="#45B5E9"/>
<stop offset="1" stop-color="#10D7E2"/>
</linearGradient>
</defs>
</svg>
