<svg width="44" height="44" viewBox="0 0 44 44" fill="none" xmlns="http://www.w3.org/2000/svg">
<path d="M4 39C4.09824 39 5.60588 39 8 39M40 39C31.0729 39 15.3542 39 8 39M8 39V30M26 16.5V12M24 38.5V30M36 38.5V17H24V18M8 18H24M8 18V24M8 18V12M24 18V24M8 24H24M8 24V30M24 24V30M8 30H24M8 12V5.5H26V12M8 12H26" stroke="black"/>
<rect x="27" y="22" width="2" height="2" fill="black"/>
<rect x="31" y="22" width="2" height="2" fill="black"/>
<rect x="31" y="26" width="2" height="2" fill="black"/>
<rect x="27" y="26" width="2" height="2" fill="black"/>
<rect x="27" y="30" width="2" height="2" fill="black"/>
<rect x="31" y="30" width="2" height="2" fill="black"/>
<rect x="29" y="34" width="2" height="5" fill="black"/>
<rect x="16" y="34" width="2" height="5" fill="black"/>
</svg>
