<svg width="50" height="50" fill="none" xmlns="http://www.w3.org/2000/svg"><g clip-path="url(#clip0_5565_1413)"><path d="M41.996 44.896h-6.768l.475-5.7h-3.325l-.474 5.7H17.892l-.475-5.7h-3.324l.475 5.7H7.8L4 20.198 13.5 5h22.797l9.499 15.198-3.8 24.698zM34.397 12.6H28.29l.408 2.85h-7.6l.408-2.85h-6.107l-3.8 7.6 1.9 15.198h22.798l1.9-15.198-3.8-7.6zm-3.325 17.754c-.524 0-.95-1.582-.95-3.534 0-1.951.426-3.533.95-3.533.525 0 .95 1.582.95 3.533 0 1.952-.425 3.534-.95 3.534zm-11.992.294c-.525 0-.95-1.582-.95-3.533 0-1.952.425-3.534.95-3.534.524 0 .95 1.582.95 3.534 0 1.951-.426 3.534-.95 3.534z" fill="#2E2E2E"/></g><defs><clipPath id="clip0_5565_1413"><path fill="#fff" transform="translate(4 5)" d="M0 0h41.796v40H0z"/></clipPath></defs></svg>