<svg width="50" height="50" viewBox="0 0 50 50" fill="none" xmlns="http://www.w3.org/2000/svg">
<mask id="mask0_1058_2034" style="mask-type:luminance" maskUnits="userSpaceOnUse" x="4" y="5" width="42" height="40">
<path d="M4 5H45.796V45H4V5Z" fill="white"/>
</mask>
<g mask="url(#mask0_1058_2034)">
<path d="M41.996 44.896H35.228L35.703 39.196H32.378L31.904 44.896H17.892L17.417 39.196H14.093L14.568 44.896H7.8L4 20.198L13.5 5H36.297L45.796 20.198L41.996 44.896ZM34.397 12.6H28.29L28.698 15.45H21.098L21.506 12.6H15.399L11.599 20.2L13.499 35.398H36.297L38.197 20.2L34.397 12.6ZM31.072 30.354C30.548 30.354 30.122 28.772 30.122 26.82C30.122 24.869 30.548 23.287 31.072 23.287C31.597 23.287 32.022 24.869 32.022 26.82C32.022 28.772 31.597 30.354 31.072 30.354ZM19.08 30.648C18.555 30.648 18.13 29.066 18.13 27.115C18.13 25.163 18.555 23.581 19.08 23.581C19.604 23.581 20.03 25.163 20.03 27.115C20.03 29.066 19.604 30.648 19.08 30.648Z" fill="white"/>
</g>
</svg>
