<svg width="40" height="40" viewBox="0 0 40 40" fill="none" xmlns="http://www.w3.org/2000/svg">
<path d="M3 9L3 29C3 30.1046 3.89543 31 5 31L33 31C34.1046 31 35 30.1046 35 29V9C35 7.89543 34.1046 7 33 7L5 7C3.89543 7 3 7.89543 3 9Z" stroke="#2E2E2E" stroke-width="2"/>
<path d="M9 10.5C9 9.67157 8.32843 9 7.5 9C6.67157 9 6 9.67157 6 10.5C6 11.3284 6.67157 12 7.5 12C8.32843 12 9 11.3284 9 10.5Z" fill="#2E2E2E"/>
<path d="M13 10.5C13 9.67157 12.3284 9 11.5 9C10.6716 9 10 9.67157 10 10.5C10 11.3284 10.6716 12 11.5 12C12.3284 12 13 11.3284 13 10.5Z" fill="#2E2E2E"/>
<path d="M3 14H35" stroke="#2E2E2E" stroke-width="2"/>
<path d="M34 10H26C24.3431 10 23 11.3431 23 13V31C23 32.6569 24.3431 34 26 34H34C35.6569 34 37 32.6569 37 31V13C37 11.3431 35.6569 10 34 10Z" fill="#FBFBFD" stroke="#2E2E2E" stroke-width="2"/>
<path d="M31.5 12.25H28.5C28.3619 12.25 28.25 12.3619 28.25 12.5C28.25 12.6381 28.3619 12.75 28.5 12.75H31.5C31.6381 12.75 31.75 12.6381 31.75 12.5C31.75 12.3619 31.6381 12.25 31.5 12.25Z" stroke="#2E2E2E" stroke-width="0.5"/>
<path d="M36 27H24C23.4477 27 23 27.4477 23 28C23 28.5523 23.4477 29 24 29H36C36.5523 29 37 28.5523 37 28C37 27.4477 36.5523 27 36 27Z" fill="#2E2E2E"/>
<path d="M31 31C31 30.4477 30.5523 30 30 30C29.4477 30 29 30.4477 29 31C29 31.5523 29.4477 32 30 32C30.5523 32 31 31.5523 31 31Z" fill="#2E2E2E"/>
<path d="M18.6389 20H6.36111C6.16167 20 6 20.2239 6 20.5C6 20.7761 6.16167 21 6.36111 21H18.6389C18.8383 21 19 20.7761 19 20.5C19 20.2239 18.8383 20 18.6389 20Z" stroke="url(#paint0_linear_1058_2084)" stroke-linecap="round" stroke-linejoin="round"/>
<path d="M14.625 24H6.375C6.16789 24 6 24.2239 6 24.5C6 24.7761 6.16789 25 6.375 25H14.625C14.8321 25 15 24.7761 15 24.5C15 24.2239 14.8321 24 14.625 24Z" stroke="url(#paint1_linear_1058_2084)" stroke-linecap="round" stroke-linejoin="round"/>
<path d="M33.7778 17H26.2222C26.0995 17 26 17.2239 26 17.5C26 17.7761 26.0995 18 26.2222 18H33.7778C33.9005 18 34 17.7761 34 17.5C34 17.2239 33.9005 17 33.7778 17Z" stroke="url(#paint2_linear_1058_2084)" stroke-linecap="round" stroke-linejoin="round"/>
<path d="M31.75 21H26.25C26.1119 21 26 21.2239 26 21.5C26 21.7761 26.1119 22 26.25 22H31.75C31.8881 22 32 21.7761 32 21.5C32 21.2239 31.8881 21 31.75 21Z" stroke="url(#paint3_linear_1058_2084)" stroke-linecap="round" stroke-linejoin="round"/>
<defs>
<linearGradient id="paint0_linear_1058_2084" x1="6" y1="20.5" x2="19" y2="20.5" gradientUnits="userSpaceOnUse">
<stop stop-color="#9358F6"/>
<stop offset="0.26" stop-color="#7A78F2"/>
<stop offset="0.515" stop-color="#6197ED"/>
<stop offset="0.76" stop-color="#44B5E9"/>
<stop offset="1" stop-color="#0FD7E1"/>
</linearGradient>
<linearGradient id="paint1_linear_1058_2084" x1="6" y1="24.5" x2="15" y2="24.5" gradientUnits="userSpaceOnUse">
<stop stop-color="#9358F6"/>
<stop offset="0.26" stop-color="#7A78F2"/>
<stop offset="0.515" stop-color="#6197ED"/>
<stop offset="0.76" stop-color="#44B5E9"/>
<stop offset="1" stop-color="#0FD7E1"/>
</linearGradient>
<linearGradient id="paint2_linear_1058_2084" x1="26" y1="17.5" x2="34" y2="17.5" gradientUnits="userSpaceOnUse">
<stop stop-color="#9358F6"/>
<stop offset="0.26" stop-color="#7A78F2"/>
<stop offset="0.515" stop-color="#6197ED"/>
<stop offset="0.76" stop-color="#44B5E9"/>
<stop offset="1" stop-color="#0FD7E1"/>
</linearGradient>
<linearGradient id="paint3_linear_1058_2084" x1="26" y1="21.5" x2="32" y2="21.5" gradientUnits="userSpaceOnUse">
<stop stop-color="#9358F6"/>
<stop offset="0.26" stop-color="#7A78F2"/>
<stop offset="0.515" stop-color="#6197ED"/>
<stop offset="0.76" stop-color="#44B5E9"/>
<stop offset="1" stop-color="#0FD7E1"/>
</linearGradient>
</defs>
</svg>
