<svg width="100" height="100" viewBox="0 0 100 100" fill="none" xmlns="http://www.w3.org/2000/svg">
<g clip-path="url(#clip0_1066_2245)">
<path d="M85.3623 75.7139C85.3623 78.2489 85.3693 80.6139 85.3623 82.9749C85.4054 83.6634 85.3022 84.3533 85.0595 84.9991C84.8168 85.6449 84.4401 86.232 83.9541 86.7217C83.4682 87.2114 82.884 87.5927 82.2401 87.8404C81.5962 88.0881 80.9072 88.1966 80.2183 88.1589C76.3093 88.1899 72.3993 88.1669 68.4903 88.1679H67.3463V93.6209C67.3463 96.5529 67.3463 96.5529 64.4053 96.5529C57.5006 96.5529 50.5963 96.5529 43.6923 96.5529C42.0163 96.5529 41.6923 96.2279 41.6923 94.5769C41.6923 92.7769 41.6923 90.9829 41.6923 89.1849C41.6923 88.8779 41.6653 88.5719 41.6463 88.1679H40.4603C30.1196 88.1679 19.7786 88.1679 9.43729 88.1679C6.57429 88.1679 4.63729 86.7219 4.10429 84.2049C4.02593 83.7711 3.99242 83.3305 4.00429 82.8899C3.99963 62.4899 3.99963 42.0899 4.00429 21.6899C3.96461 21.0015 4.06929 20.3124 4.31163 19.6669C4.55396 19.0214 4.92859 18.4336 5.41147 17.9414C5.89435 17.4492 6.4748 17.0634 7.11558 16.8088C7.75635 16.5542 8.44329 16.4363 9.13229 16.4629C10.6673 16.4349 12.2043 16.4579 13.8383 16.4579C13.8383 13.9369 13.8483 11.5179 13.8383 9.09886C13.8023 7.85619 14.239 6.64612 15.0603 5.71286C15.8374 4.77951 16.9514 4.19052 18.1603 4.07386C18.6603 4.02586 19.1663 4.00586 19.6703 4.00586C42.9056 4.00586 66.1413 4.00786 89.3773 4.01186C90.1323 3.98819 90.8873 4.06009 91.6243 4.22586C92.6541 4.50101 93.5636 5.10982 94.2105 5.95701C94.8574 6.8042 95.2051 7.84195 95.1993 8.90786C95.2253 11.3669 95.2073 13.8269 95.2073 16.2859C95.2073 34.2272 95.2073 52.1685 95.2073 70.1099C95.2073 73.7749 93.2803 75.7099 89.6153 75.7179C88.2343 75.7179 86.8533 75.7179 85.3713 75.7179M92.7363 22.2369H91.4103C76.4356 22.2369 61.461 22.2409 46.4863 22.2489C45.9846 22.2722 45.4841 22.1834 45.0212 21.9888C44.5582 21.7941 44.1445 21.4987 43.8103 21.1239C42.313 19.5039 40.7796 17.9169 39.2103 16.3629C38.8798 16.0567 38.4522 15.8766 38.0023 15.8539C34.8183 15.8129 31.6343 15.8309 28.4503 15.8309H26.9003C26.9003 17.2039 26.9103 18.4589 26.9003 19.7139C26.9346 20.0541 26.8926 20.3978 26.7774 20.7198C26.6621 21.0418 26.4765 21.334 26.2341 21.5752C25.9916 21.8164 25.6984 22.0005 25.3758 22.1141C25.0532 22.2277 24.7094 22.2679 24.3693 22.2319C22.5413 22.2509 20.7123 22.2319 18.8843 22.2319H16.2993V23.0969C16.2993 38.8615 16.2993 54.6262 16.2993 70.3909C16.2993 72.3329 17.2303 73.2429 19.2343 73.2449C26.7676 73.2522 34.301 73.2522 41.8343 73.2449C42.0863 73.2449 42.3343 73.1969 42.8343 73.1449C42.4543 72.9589 42.3243 72.8789 42.1843 72.8279C39.8733 72.0029 39.3463 70.6099 40.5463 68.4529C41.553 66.6342 42.562 64.8172 43.5733 63.0019C46.6166 57.5232 49.661 52.0455 52.7063 46.5689C53.6463 44.8779 55.3463 44.8779 56.3113 46.5529C56.7033 47.2349 57.0783 47.9279 57.4603 48.6159C61.1736 55.3072 64.8863 61.9979 68.5983 68.6879C69.6353 70.5599 69.0373 72.0879 67.0363 72.7879C66.8203 72.8629 66.6163 72.9749 66.4073 73.0699L66.4433 73.2579H67.3463C74.755 73.2579 82.1636 73.2579 89.5723 73.2579C91.9083 73.2579 92.7333 72.4169 92.7333 70.0509C92.7333 54.5069 92.7333 38.9629 92.7333 23.4189L92.7363 22.2369ZM41.6893 85.7069C41.6893 84.1919 41.6583 82.8379 41.6973 81.4859C41.6792 81.1291 41.7368 80.7726 41.8662 80.4397C41.9955 80.1067 42.1938 79.8049 42.448 79.5539C42.7021 79.303 43.0065 79.1085 43.341 78.9834C43.6756 78.8583 44.0328 78.8053 44.3893 78.8279C44.9483 78.8149 45.5083 78.8279 46.2053 78.8279C46.1433 78.2279 46.1263 77.7339 46.0373 77.2539C45.7613 75.7539 45.7303 75.7399 44.2273 75.7399C35.9693 75.7399 27.7113 75.7399 19.4533 75.7399C15.7833 75.7399 13.8373 73.7949 13.8373 70.1529C13.8373 53.4769 13.8373 36.8009 13.8373 20.1249V18.9289C12.3733 18.9289 11.0243 18.9289 9.67529 18.9289C7.31429 18.9289 6.46329 19.7699 6.46329 22.0949C6.46329 42.2382 6.46329 62.3815 6.46329 82.5249C6.46329 84.8859 7.28029 85.7059 9.63629 85.7059C19.943 85.7059 30.25 85.7059 40.5573 85.7059L41.6893 85.7069ZM24.3603 19.7299C24.3939 19.6421 24.419 19.5514 24.4353 19.4589C24.4413 18.3239 24.4413 17.1889 24.4483 16.0589C24.4593 14.2369 25.2963 13.3749 27.0913 13.3699C30.8743 13.3619 34.6573 13.3809 38.4403 13.3579C38.8646 13.342 39.2871 13.4195 39.6782 13.5849C40.0692 13.7502 40.4191 13.9994 40.7033 14.3149C42.2183 15.9149 43.7813 17.4789 45.2833 19.0949C45.4847 19.3292 45.7372 19.5142 46.0213 19.6356C46.3055 19.757 46.6137 19.8115 46.9223 19.7949C61.8336 19.7749 76.7446 19.7699 91.6553 19.7799H92.7193C92.7193 16.0049 92.7493 12.3529 92.6993 8.70186C92.6931 8.23505 92.5355 7.78288 92.2502 7.41335C91.9649 7.04383 91.5673 6.77695 91.1173 6.65286C90.5691 6.5099 90.0019 6.45388 89.4363 6.48686C66.1696 6.47953 42.903 6.47753 19.6363 6.48086C19.4153 6.48086 19.1943 6.48086 18.9743 6.48086C18.61 6.44906 18.2431 6.49837 17.9001 6.62523C17.5571 6.7521 17.2465 6.95337 16.9905 7.21458C16.7346 7.47579 16.5397 7.79046 16.4198 8.13597C16.2999 8.48148 16.2581 8.84925 16.2973 9.21286C16.2853 11.7669 16.2973 14.3199 16.2973 16.8739V19.7249L24.3603 19.7299ZM56.0003 51.0709L55.7533 51.1439C55.7533 52.9369 55.7343 54.7299 55.7763 56.5219C55.7823 56.7509 56.0643 57.0439 56.2933 57.1849C57.0538 57.5844 57.6585 58.2271 58.011 59.0104C58.3635 59.7938 58.4435 60.6726 58.2381 61.5067C58.0328 62.3408 57.554 63.0821 56.8781 63.6123C56.2023 64.1425 55.3683 64.431 54.5093 64.4319C53.6656 64.4529 52.8401 64.1843 52.1705 63.6706C51.5009 63.1569 51.0275 62.4292 50.8293 61.6089C50.5897 60.7675 50.6471 59.8693 50.9918 59.0652C51.3365 58.2612 51.9476 57.6003 52.7223 57.1939C52.9393 57.0639 53.2403 56.8249 53.2453 56.6299C53.2853 54.7939 53.2693 52.9569 53.2693 51.1209L53.0333 51.0689L42.4163 70.1979C46.4733 71.6649 48.5763 74.4919 48.7083 78.7639H60.3413C60.2899 76.8467 60.8825 74.9675 62.0245 73.4267C63.1665 71.8859 64.792 70.7723 66.6413 70.2639L56.0003 51.0709ZM64.8273 81.3319H44.2523V94.0009H64.8273V81.3319ZM67.3463 85.6829C71.8463 85.6829 76.1963 85.7049 80.5463 85.6699C80.8638 85.6693 81.178 85.6046 81.4699 85.4797C81.7618 85.3547 82.0254 85.1721 82.245 84.9427C82.4646 84.7133 82.6355 84.442 82.7476 84.1449C82.8597 83.8478 82.9106 83.5311 82.8973 83.2139C82.9283 81.9859 82.9053 80.7559 82.9053 79.5279C82.9053 78.2819 82.9053 77.0369 82.9053 75.8699C82.7453 75.7789 82.7183 75.7499 82.6903 75.7499C76.453 75.7372 70.2153 75.7322 63.9773 75.7349C63.8484 75.7459 63.7241 75.7881 63.615 75.8578C63.506 75.9275 63.4155 76.0225 63.3513 76.1349C63.1043 76.9579 62.9423 77.8079 62.7123 78.8099C63.3813 78.8099 63.8123 78.8099 64.2443 78.8099C66.4253 78.8189 67.3443 79.7309 67.3493 81.9099C67.3493 83.1309 67.3493 84.3519 67.3493 85.6769M55.8663 60.5429C55.865 60.3627 55.828 60.1845 55.7574 60.0187C55.6868 59.853 55.5841 59.7028 55.4551 59.577C55.3261 59.4512 55.1734 59.3522 55.006 59.2857C54.8385 59.2193 54.6595 59.1867 54.4793 59.1899C54.116 59.2062 53.7737 59.3651 53.5267 59.632C53.2796 59.8989 53.1476 60.2524 53.1593 60.6159C53.1487 60.797 53.177 60.9783 53.2425 61.1475C53.308 61.3167 53.4091 61.4698 53.5389 61.5966C53.6687 61.7233 53.8242 61.8208 53.9949 61.8822C54.1656 61.9437 54.3475 61.9678 54.5283 61.9529C54.892 61.9414 55.2366 61.7868 55.4871 61.5228C55.7376 61.2589 55.8738 60.9067 55.8663 60.5429Z" fill="#141414"/>
<path d="M85.3623 75.7139C85.3623 78.2489 85.3693 80.6139 85.3623 82.9749C85.4054 83.6634 85.3022 84.3533 85.0595 84.9991C84.8168 85.6449 84.4401 86.232 83.9541 86.7217C83.4682 87.2114 82.884 87.5927 82.2401 87.8404C81.5962 88.0881 80.9072 88.1966 80.2183 88.1589C76.3093 88.1899 72.3993 88.1669 68.4903 88.1679H67.3463V93.6209C67.3463 96.5529 67.3463 96.5529 64.4053 96.5529C57.5006 96.5529 50.5963 96.5529 43.6923 96.5529C42.0163 96.5529 41.6923 96.2279 41.6923 94.5769C41.6923 92.7769 41.6923 90.9829 41.6923 89.1849C41.6923 88.8779 41.6653 88.5719 41.6463 88.1679H40.4603C30.1196 88.1679 19.7786 88.1679 9.43729 88.1679C6.57429 88.1679 4.63729 86.7219 4.10429 84.2049C4.02593 83.7711 3.99242 83.3305 4.00429 82.8899C3.99963 62.4899 3.99963 42.0899 4.00429 21.6899C3.96461 21.0015 4.06929 20.3124 4.31163 19.6669C4.55396 19.0214 4.92859 18.4336 5.41147 17.9414C5.89435 17.4492 6.4748 17.0634 7.11558 16.8088C7.75635 16.5542 8.44329 16.4363 9.13229 16.4629C10.6673 16.4349 12.2043 16.4579 13.8383 16.4579C13.8383 13.9369 13.8483 11.5179 13.8383 9.09886C13.8023 7.85619 14.239 6.64612 15.0603 5.71286C15.8374 4.77951 16.9514 4.19052 18.1603 4.07386C18.6603 4.02586 19.1663 4.00586 19.6703 4.00586C42.9056 4.00586 66.1413 4.00786 89.3773 4.01186C90.1323 3.98819 90.8873 4.06009 91.6243 4.22586C92.6541 4.50101 93.5636 5.10982 94.2105 5.95701C94.8574 6.8042 95.2051 7.84195 95.1993 8.90786C95.2253 11.3669 95.2073 13.8269 95.2073 16.2859C95.2073 34.2272 95.2073 52.1685 95.2073 70.1099C95.2073 73.7749 93.2803 75.7099 89.6153 75.7179C88.2343 75.7179 86.8533 75.7179 85.3713 75.7179M67.3463 85.6829C71.8463 85.6829 76.1963 85.7049 80.5463 85.6699C80.8638 85.6693 81.178 85.6046 81.4699 85.4797C81.7618 85.3547 82.0254 85.1721 82.245 84.9427C82.4646 84.7133 82.6355 84.442 82.7476 84.1449C82.8597 83.8478 82.9106 83.5311 82.8973 83.2139C82.9283 81.9859 82.9053 80.7559 82.9053 79.5279C82.9053 78.2819 82.9053 77.0369 82.9053 75.8699C82.7453 75.7789 82.7183 75.7499 82.6903 75.7499C76.453 75.7372 70.2153 75.7322 63.9773 75.7349C63.8484 75.7459 63.7241 75.7881 63.615 75.8578C63.506 75.9275 63.4155 76.0225 63.3513 76.1349C63.1043 76.9579 62.9423 77.8079 62.7123 78.8099C63.3813 78.8099 63.8123 78.8099 64.2443 78.8099C66.4253 78.8189 67.3443 79.7309 67.3493 81.9099C67.3493 83.1309 67.3493 84.3519 67.3493 85.6769M92.7363 22.2369H91.4103C76.4356 22.2369 61.461 22.2409 46.4863 22.2489C45.9846 22.2722 45.4841 22.1834 45.0212 21.9888C44.5582 21.7941 44.1445 21.4987 43.8103 21.1239C42.313 19.5039 40.7796 17.9169 39.2103 16.3629C38.8798 16.0567 38.4522 15.8766 38.0023 15.8539C34.8183 15.8129 31.6343 15.8309 28.4503 15.8309H26.9003C26.9003 17.2039 26.9103 18.4589 26.9003 19.7139C26.9346 20.0541 26.8926 20.3978 26.7774 20.7198C26.6621 21.0418 26.4765 21.334 26.2341 21.5752C25.9916 21.8164 25.6984 22.0005 25.3758 22.1141C25.0532 22.2277 24.7094 22.2679 24.3693 22.2319C22.5413 22.2509 20.7123 22.2319 18.8843 22.2319H16.2993V23.0969C16.2993 38.8615 16.2993 54.6262 16.2993 70.3909C16.2993 72.3329 17.2303 73.2429 19.2343 73.2449C26.7676 73.2522 34.301 73.2522 41.8343 73.2449C42.0863 73.2449 42.3343 73.1969 42.8343 73.1449C42.4543 72.9589 42.3243 72.8789 42.1843 72.8279C39.8733 72.0029 39.3463 70.6099 40.5463 68.4529C41.553 66.6342 42.562 64.8172 43.5733 63.0019C46.6166 57.5232 49.661 52.0455 52.7063 46.5689C53.6463 44.8779 55.3463 44.8779 56.3113 46.5529C56.7033 47.2349 57.0783 47.9279 57.4603 48.6159C61.1736 55.3072 64.8863 61.9979 68.5983 68.6879C69.6353 70.5599 69.0373 72.0879 67.0363 72.7879C66.8203 72.8629 66.6163 72.9749 66.4073 73.0699L66.4433 73.2579H67.3463C74.755 73.2579 82.1636 73.2579 89.5723 73.2579C91.9083 73.2579 92.7333 72.4169 92.7333 70.0509C92.7333 54.5069 92.7333 38.9629 92.7333 23.4189L92.7363 22.2369ZM41.6893 85.7069C41.6893 84.1919 41.6583 82.8379 41.6973 81.4859C41.6792 81.1291 41.7368 80.7726 41.8662 80.4397C41.9955 80.1067 42.1938 79.8049 42.448 79.5539C42.7021 79.303 43.0065 79.1085 43.341 78.9834C43.6756 78.8583 44.0328 78.8053 44.3893 78.8279C44.9483 78.8149 45.5083 78.8279 46.2053 78.8279C46.1433 78.2279 46.1263 77.7339 46.0373 77.2539C45.7613 75.7539 45.7303 75.7399 44.2273 75.7399C35.9693 75.7399 27.7113 75.7399 19.4533 75.7399C15.7833 75.7399 13.8373 73.7949 13.8373 70.1529C13.8373 53.4769 13.8373 36.8009 13.8373 20.1249V18.9289C12.3733 18.9289 11.0243 18.9289 9.67529 18.9289C7.31429 18.9289 6.46329 19.7699 6.46329 22.0949C6.46329 42.2382 6.46329 62.3815 6.46329 82.5249C6.46329 84.8859 7.28029 85.7059 9.63629 85.7059C19.943 85.7059 30.25 85.7059 40.5573 85.7059L41.6893 85.7069ZM24.3603 19.7299C24.3939 19.6421 24.419 19.5514 24.4353 19.4589C24.4413 18.3239 24.4413 17.1889 24.4483 16.0589C24.4593 14.2369 25.2963 13.3749 27.0913 13.3699C30.8743 13.3619 34.6573 13.3809 38.4403 13.3579C38.8646 13.342 39.2871 13.4195 39.6782 13.5849C40.0692 13.7502 40.4191 13.9994 40.7033 14.3149C42.2183 15.9149 43.7813 17.4789 45.2833 19.0949C45.4847 19.3292 45.7372 19.5142 46.0213 19.6356C46.3055 19.757 46.6137 19.8115 46.9223 19.7949C61.8336 19.7749 76.7446 19.7699 91.6553 19.7799H92.7193C92.7193 16.0049 92.7493 12.3529 92.6993 8.70186C92.6931 8.23505 92.5355 7.78288 92.2502 7.41335C91.9649 7.04383 91.5673 6.77695 91.1173 6.65286C90.5691 6.5099 90.0019 6.45388 89.4363 6.48686C66.1696 6.47953 42.903 6.47753 19.6363 6.48086C19.4153 6.48086 19.1943 6.48086 18.9743 6.48086C18.61 6.44906 18.2431 6.49837 17.9001 6.62523C17.5571 6.7521 17.2465 6.95337 16.9905 7.21458C16.7346 7.47579 16.5397 7.79046 16.4198 8.13597C16.2999 8.48148 16.2581 8.84925 16.2973 9.21286C16.2853 11.7669 16.2973 14.3199 16.2973 16.8739V19.7249L24.3603 19.7299ZM56.0003 51.0709L55.7533 51.1439C55.7533 52.9369 55.7343 54.7299 55.7763 56.5219C55.7823 56.7509 56.0643 57.0439 56.2933 57.1849C57.0538 57.5844 57.6585 58.2271 58.011 59.0104C58.3635 59.7938 58.4435 60.6726 58.2381 61.5067C58.0328 62.3408 57.554 63.0821 56.8781 63.6123C56.2023 64.1425 55.3683 64.431 54.5093 64.4319C53.6656 64.4529 52.8401 64.1843 52.1705 63.6706C51.5009 63.1569 51.0275 62.4292 50.8293 61.6089C50.5897 60.7675 50.6471 59.8693 50.9918 59.0652C51.3365 58.2612 51.9476 57.6003 52.7223 57.1939C52.9393 57.0639 53.2403 56.8249 53.2453 56.6299C53.2853 54.7939 53.2693 52.9569 53.2693 51.1209L53.0333 51.0689L42.4163 70.1979C46.4733 71.6649 48.5763 74.4919 48.7083 78.7639H60.3413C60.2899 76.8467 60.8825 74.9675 62.0245 73.4267C63.1665 71.8859 64.792 70.7723 66.6413 70.2639L56.0003 51.0709ZM64.8273 81.3319H44.2523V94.0009H64.8273V81.3319ZM55.8663 60.5429C55.865 60.3627 55.828 60.1845 55.7574 60.0187C55.6868 59.853 55.5841 59.7028 55.4551 59.577C55.3261 59.4512 55.1734 59.3522 55.006 59.2857C54.8385 59.2193 54.6595 59.1867 54.4793 59.1899C54.116 59.2062 53.7737 59.3651 53.5267 59.632C53.2796 59.8989 53.1476 60.2524 53.1593 60.6159C53.1487 60.797 53.177 60.9783 53.2425 61.1475C53.308 61.3167 53.4091 61.4698 53.5389 61.5966C53.6687 61.7233 53.8242 61.8208 53.9949 61.8822C54.1656 61.9437 54.3475 61.9678 54.5283 61.9529C54.892 61.9414 55.2366 61.7868 55.4871 61.5228C55.7376 61.2589 55.8738 60.9067 55.8663 60.5429Z" stroke="#F5F5F5" stroke-width="1.5"/>
<path d="M55.8665 60.5427C55.8743 60.9069 55.738 61.2594 55.4872 61.5236C55.2365 61.7879 54.8916 61.9424 54.5275 61.9537C54.3466 61.9684 54.1647 61.9442 53.9941 61.8826C53.8234 61.821 53.668 61.7235 53.5383 61.5967C53.4086 61.4698 53.3077 61.3166 53.2423 61.1473C53.1769 60.9781 53.1487 60.7968 53.1595 60.6157C53.1478 60.2522 53.2798 59.8987 53.5268 59.6318C53.7739 59.3649 54.1161 59.206 54.4795 59.1897C54.6596 59.1865 54.8386 59.2191 55.0061 59.2855C55.1736 59.352 55.3263 59.451 55.4552 59.5768C55.5842 59.7026 55.687 59.8528 55.7576 60.0186C55.8282 60.1843 55.8652 60.3625 55.8665 60.5427Z" fill="#141414" stroke="white" stroke-width="2"/>
<path d="M59.7942 38.7633C59.4422 41.0013 58.7832 41.5703 56.6052 41.5713H52.6332C50.2952 41.5713 49.6942 41.0713 49.3022 38.7903C42.7112 39.9373 35.2812 46.2623 33.4212 54.3023C33.7672 54.3253 34.1012 54.3453 34.4332 54.3713C34.7511 54.363 35.0673 54.4203 35.3622 54.5395C35.6571 54.6587 35.9242 54.8373 36.1471 55.0642C36.37 55.2911 36.5438 55.5615 36.6577 55.8584C36.7715 56.1554 36.8231 56.4726 36.8092 56.7903C36.8618 58.6176 36.8618 60.446 36.8092 62.2753C36.8253 62.6014 36.7718 62.9271 36.6524 63.2309C36.5329 63.5347 36.3501 63.8095 36.1162 64.0372C35.8822 64.2649 35.6025 64.4402 35.2956 64.5514C34.9887 64.6626 34.6616 64.7073 34.3362 64.6823C32.5362 64.7096 30.7392 64.7096 28.9452 64.6823C28.6202 64.7001 28.2951 64.6491 27.991 64.5329C27.687 64.4166 27.4109 64.2376 27.1807 64.0075C26.9505 63.7774 26.7714 63.5013 26.655 63.1974C26.5386 62.8934 26.4875 62.5683 26.5052 62.2433C26.4792 60.4433 26.4792 58.646 26.5052 56.8513C26.4869 56.5268 26.5362 56.2019 26.6499 55.8974C26.7636 55.5928 26.9393 55.3152 27.1658 55.082C27.3923 54.8489 27.6647 54.6652 27.9658 54.5427C28.2669 54.4202 28.5902 54.3615 28.9152 54.3703C30.7332 54.2423 30.7212 54.2383 31.3022 52.5143C33.2365 46.5347 37.3997 41.5299 42.9272 38.5393C43.1142 38.4393 43.3022 38.3333 43.6992 38.1163C43.2802 38.0693 43.0892 38.0283 42.8992 38.0283C39.5262 38.0283 36.1522 38.0373 32.7782 38.0143C32.5359 37.9793 32.2891 38.0292 32.0794 38.1555C31.8698 38.2818 31.7104 38.4768 31.6282 38.7073C31.1232 39.681 30.2997 40.452 29.295 40.8919C28.2902 41.3317 27.1651 41.4138 26.1072 41.1243C25.03 40.8419 24.0827 40.1976 23.4242 39.2996C22.7656 38.4017 22.4358 37.3046 22.4902 36.1923C22.5185 35.0948 22.9313 34.0421 23.6564 33.2179C24.3816 32.3936 25.3732 31.8502 26.4582 31.6823C27.5321 31.4453 28.6555 31.6003 29.6251 32.1193C30.5948 32.6384 31.3468 33.4872 31.7452 34.5123C32.0732 35.4123 32.5022 35.5793 33.3632 35.5723C38.3132 35.5313 43.2632 35.5523 48.2132 35.5523H49.3572C49.3572 34.8693 49.3362 34.2783 49.3572 33.6893C49.3368 33.3796 49.3801 33.069 49.4845 32.7766C49.5888 32.4843 49.7519 32.2164 49.9638 31.9896C50.1756 31.7627 50.4317 31.5817 50.7163 31.4576C51.0008 31.3336 51.3078 31.2691 51.6182 31.2683C53.5382 31.1913 55.4652 31.1923 57.3852 31.2683C57.6954 31.2686 58.0023 31.3322 58.287 31.4554C58.5717 31.5785 58.8283 31.7586 59.041 31.9844C59.2536 32.2103 59.4179 32.4772 59.5237 32.7688C59.6295 33.0605 59.6745 33.3706 59.6562 33.6803C59.6772 34.2693 59.6562 34.8603 59.6562 35.5543H60.6902C65.7662 35.5543 70.8432 35.5433 75.9192 35.5683C76.5942 35.5683 76.9522 35.4593 77.2032 34.7253C77.5624 33.687 78.2765 32.8087 79.2196 32.2451C80.1628 31.6816 81.2746 31.4688 82.3592 31.6443C83.1846 31.7421 83.9709 32.0512 84.6419 32.5419C85.3129 33.0325 85.8459 33.688 86.1894 34.445C86.5329 35.2019 86.6752 36.0347 86.6026 36.8628C86.53 37.6908 86.2449 38.4861 85.7749 39.1718C85.3049 39.8574 84.6659 40.4101 83.9197 40.7764C83.1735 41.1428 82.3455 41.3103 81.5156 41.2629C80.6857 41.2155 79.8821 40.9547 79.1825 40.5058C78.4829 40.0569 77.911 39.435 77.5222 38.7003C77.4326 38.4741 77.2705 38.2839 77.0614 38.1596C76.8522 38.0353 76.6077 37.9838 76.3662 38.0133C72.8132 38.0403 69.2592 38.0273 65.4592 38.0273C65.8072 38.2833 65.9522 38.4163 66.1192 38.5093C69.0319 40.0699 71.5954 42.2086 73.653 44.7943C75.7105 47.38 77.2187 50.3585 78.0852 53.5473C78.2712 54.1963 78.5312 54.4323 79.1852 54.3713C79.6569 54.3355 80.1311 54.3486 80.6002 54.4103C81.1584 54.448 81.6823 54.6929 82.0693 55.097C82.4563 55.501 82.6785 56.035 82.6922 56.5943C82.7415 58.5476 82.7415 60.5023 82.6922 62.4583C82.684 63.0518 82.4411 63.6179 82.0166 64.0328C81.5922 64.4477 81.0207 64.6777 80.4272 64.6723C78.5052 64.715 76.5822 64.715 74.6582 64.6723C74.095 64.6929 73.5464 64.4902 73.1319 64.1084C72.7175 63.7265 72.4706 63.1963 72.4452 62.6333C72.3452 60.5903 72.3451 58.5333 72.4331 56.4923C72.456 55.9304 72.6942 55.3989 73.0984 55.0079C73.5026 54.6169 74.0418 54.3965 74.6042 54.3923C74.9442 54.3563 75.2862 54.3383 75.6302 54.3113C74.2702 47.3943 67.4162 40.2623 59.7902 38.7663M57.2112 33.7943H51.8512V39.0713H57.2112V33.7943ZM80.1912 56.9093H74.8182V62.2093H80.1912V56.9093ZM28.9462 62.1973H34.3162V56.8893H28.9462V62.1973ZM27.2782 38.7863C27.5938 38.8116 27.9111 38.7701 28.2097 38.6646C28.5082 38.559 28.7811 38.3918 29.0107 38.1738C29.2403 37.9558 29.4214 37.6919 29.5423 37.3993C29.6631 37.1066 29.721 36.7918 29.7122 36.4753C29.7244 36.1594 29.6738 35.8442 29.5633 35.548C29.4527 35.2517 29.2845 34.9804 29.0683 34.7498C28.8521 34.5191 28.5922 34.3336 28.3037 34.2042C28.0153 34.0747 27.704 34.0038 27.388 33.9956C27.0719 33.9874 26.7574 34.042 26.4626 34.1564C26.1678 34.2707 25.8987 34.4424 25.6708 34.6615C25.4429 34.8807 25.2608 35.1429 25.135 35.4329C25.0092 35.723 24.9423 36.0352 24.9382 36.3513C24.9279 36.666 24.9807 36.9795 25.0935 37.2734C25.2063 37.5673 25.3769 37.8356 25.5951 38.0626C25.8132 38.2895 26.0747 38.4705 26.3639 38.5948C26.6531 38.7191 26.9633 38.7842 27.2782 38.7863ZM81.6862 34.0053C81.3681 34.0056 81.0534 34.0694 80.7603 34.1928C80.4672 34.3162 80.2017 34.4969 79.9793 34.7242C79.7569 34.9515 79.5821 35.2209 79.4651 35.5166C79.3481 35.8123 79.2913 36.1284 79.2979 36.4463C79.3046 36.7643 79.3746 37.0777 79.5039 37.3682C79.6331 37.6588 79.8191 37.9206 80.0508 38.1384C80.2825 38.3563 80.5553 38.5257 80.8533 38.6367C81.1513 38.7478 81.4684 38.7983 81.7862 38.7853C82.1025 38.8014 82.4187 38.7493 82.7132 38.6325C83.0077 38.5158 83.2736 38.337 83.4929 38.1085C83.7123 37.8799 83.88 37.6069 83.9846 37.3078C84.0891 37.0088 84.1282 36.6908 84.0991 36.3753C84.1012 36.0603 84.0401 35.748 83.9193 35.457C83.7986 35.1661 83.6207 34.9023 83.3961 34.6813C83.1716 34.4603 82.905 34.2866 82.6122 34.1705C82.3193 34.0544 82.0061 33.9982 81.6912 34.0053" fill="url(#paint0_linear_1066_2245)"/>
<path d="M59.7942 38.7633C59.4422 41.0013 58.7832 41.5703 56.6052 41.5713H52.6332C50.2952 41.5713 49.6942 41.0713 49.3022 38.7903C42.7112 39.9373 35.2812 46.2623 33.4212 54.3023C33.7672 54.3253 34.1012 54.3453 34.4332 54.3713C34.7511 54.363 35.0673 54.4203 35.3622 54.5395C35.6571 54.6587 35.9242 54.8373 36.1471 55.0642C36.37 55.2911 36.5438 55.5615 36.6577 55.8584C36.7715 56.1554 36.8231 56.4726 36.8092 56.7903C36.8618 58.6176 36.8618 60.446 36.8092 62.2753C36.8253 62.6014 36.7718 62.9271 36.6524 63.2309C36.5329 63.5347 36.3501 63.8095 36.1162 64.0372C35.8822 64.2649 35.6025 64.4402 35.2956 64.5514C34.9887 64.6626 34.6616 64.7073 34.3362 64.6823C32.5362 64.7096 30.7392 64.7096 28.9452 64.6823C28.6202 64.7001 28.2951 64.6491 27.991 64.5329C27.687 64.4166 27.4109 64.2376 27.1807 64.0075C26.9505 63.7774 26.7714 63.5013 26.655 63.1974C26.5386 62.8934 26.4875 62.5683 26.5052 62.2433C26.4792 60.4433 26.4792 58.646 26.5052 56.8513C26.4869 56.5268 26.5362 56.2019 26.6499 55.8974C26.7636 55.5928 26.9393 55.3152 27.1658 55.082C27.3923 54.8489 27.6647 54.6652 27.9658 54.5427C28.2669 54.4202 28.5902 54.3615 28.9152 54.3703C30.7332 54.2423 30.7212 54.2383 31.3022 52.5143C33.2365 46.5347 37.3997 41.5299 42.9272 38.5393C43.1142 38.4393 43.3022 38.3333 43.6992 38.1163C43.2802 38.0693 43.0892 38.0283 42.8992 38.0283C39.5262 38.0283 36.1522 38.0373 32.7782 38.0143C32.5359 37.9793 32.2891 38.0292 32.0794 38.1555C31.8698 38.2818 31.7104 38.4768 31.6282 38.7073C31.1232 39.681 30.2997 40.452 29.295 40.8919C28.2902 41.3317 27.1651 41.4138 26.1072 41.1243C25.03 40.8419 24.0827 40.1976 23.4242 39.2996C22.7656 38.4017 22.4358 37.3046 22.4902 36.1923C22.5185 35.0948 22.9313 34.0421 23.6564 33.2179C24.3816 32.3936 25.3732 31.8502 26.4582 31.6823C27.5321 31.4453 28.6555 31.6003 29.6251 32.1193C30.5948 32.6384 31.3468 33.4872 31.7452 34.5123C32.0732 35.4123 32.5022 35.5793 33.3632 35.5723C38.3132 35.5313 43.2632 35.5523 48.2132 35.5523H49.3572C49.3572 34.8693 49.3362 34.2783 49.3572 33.6893C49.3368 33.3796 49.3801 33.069 49.4845 32.7766C49.5888 32.4843 49.7519 32.2164 49.9638 31.9896C50.1756 31.7627 50.4317 31.5817 50.7163 31.4576C51.0008 31.3336 51.3078 31.2691 51.6182 31.2683C53.5382 31.1913 55.4652 31.1923 57.3852 31.2683C57.6954 31.2686 58.0023 31.3322 58.287 31.4554C58.5717 31.5785 58.8283 31.7586 59.041 31.9844C59.2536 32.2103 59.4179 32.4772 59.5237 32.7688C59.6295 33.0605 59.6745 33.3706 59.6562 33.6803C59.6772 34.2693 59.6562 34.8603 59.6562 35.5543H60.6902C65.7662 35.5543 70.8432 35.5433 75.9192 35.5683C76.5942 35.5683 76.9522 35.4593 77.2032 34.7253C77.5624 33.687 78.2765 32.8087 79.2196 32.2451C80.1628 31.6816 81.2746 31.4688 82.3592 31.6443C83.1846 31.7421 83.9709 32.0512 84.6419 32.5419C85.3129 33.0325 85.8459 33.688 86.1894 34.445C86.5329 35.2019 86.6752 36.0347 86.6026 36.8628C86.53 37.6908 86.2449 38.4861 85.7749 39.1718C85.3049 39.8574 84.6659 40.4101 83.9197 40.7764C83.1735 41.1428 82.3455 41.3103 81.5156 41.2629C80.6857 41.2155 79.8821 40.9547 79.1825 40.5058C78.4829 40.0569 77.911 39.435 77.5222 38.7003C77.4326 38.4741 77.2705 38.2839 77.0614 38.1596C76.8522 38.0353 76.6077 37.9838 76.3662 38.0133C72.8132 38.0403 69.2592 38.0273 65.4592 38.0273C65.8072 38.2833 65.9522 38.4163 66.1192 38.5093C69.0319 40.0699 71.5954 42.2086 73.653 44.7943C75.7105 47.38 77.2187 50.3585 78.0852 53.5473C78.2712 54.1963 78.5312 54.4323 79.1852 54.3713C79.6569 54.3355 80.1311 54.3486 80.6002 54.4103C81.1584 54.448 81.6823 54.6929 82.0693 55.097C82.4563 55.501 82.6785 56.035 82.6922 56.5943C82.7415 58.5476 82.7415 60.5023 82.6922 62.4583C82.684 63.0518 82.4411 63.6179 82.0166 64.0328C81.5922 64.4477 81.0207 64.6777 80.4272 64.6723C78.5052 64.715 76.5822 64.715 74.6582 64.6723C74.095 64.6929 73.5464 64.4902 73.1319 64.1084C72.7175 63.7265 72.4706 63.1963 72.4452 62.6333C72.3452 60.5903 72.3451 58.5333 72.4331 56.4923C72.456 55.9304 72.6942 55.3989 73.0984 55.0079C73.5026 54.6169 74.0418 54.3965 74.6042 54.3923C74.9442 54.3563 75.2862 54.3383 75.6302 54.3113C74.2702 47.3943 67.4162 40.2623 59.7902 38.7663M81.6862 34.0053C81.3681 34.0056 81.0534 34.0694 80.7603 34.1928C80.4672 34.3162 80.2017 34.4969 79.9793 34.7242C79.7569 34.9515 79.5821 35.2209 79.4651 35.5166C79.3481 35.8123 79.2913 36.1284 79.2979 36.4463C79.3046 36.7643 79.3746 37.0777 79.5039 37.3682C79.6331 37.6588 79.8191 37.9206 80.0508 38.1384C80.2825 38.3563 80.5553 38.5257 80.8533 38.6367C81.1513 38.7478 81.4684 38.7983 81.7862 38.7853C82.1025 38.8014 82.4187 38.7493 82.7132 38.6325C83.0077 38.5158 83.2736 38.337 83.4929 38.1085C83.7123 37.8799 83.88 37.6069 83.9846 37.3078C84.0891 37.0088 84.1282 36.6908 84.0991 36.3753C84.1012 36.0603 84.0401 35.748 83.9193 35.457C83.7986 35.1661 83.6207 34.9023 83.3961 34.6813C83.1716 34.4603 82.905 34.2866 82.6122 34.1705C82.3193 34.0544 82.0061 33.9982 81.6912 34.0053M57.2112 33.7943H51.8512V39.0713H57.2112V33.7943ZM80.1912 56.9093H74.8182V62.2093H80.1912V56.9093ZM28.9462 62.1973H34.3162V56.8893H28.9462V62.1973ZM27.2782 38.7863C27.5938 38.8116 27.9111 38.7701 28.2097 38.6646C28.5082 38.559 28.7811 38.3918 29.0107 38.1738C29.2403 37.9558 29.4214 37.6919 29.5423 37.3993C29.6631 37.1066 29.721 36.7918 29.7122 36.4753C29.7244 36.1594 29.6738 35.8442 29.5633 35.548C29.4527 35.2517 29.2845 34.9804 29.0683 34.7498C28.8521 34.5191 28.5922 34.3336 28.3037 34.2042C28.0153 34.0747 27.704 34.0038 27.388 33.9956C27.0719 33.9874 26.7574 34.042 26.4626 34.1564C26.1678 34.2707 25.8987 34.4424 25.6708 34.6615C25.4429 34.8807 25.2608 35.1429 25.135 35.4329C25.0092 35.723 24.9423 36.0352 24.9382 36.3513C24.9279 36.666 24.9807 36.9795 25.0935 37.2734C25.2063 37.5673 25.3769 37.8356 25.5951 38.0626C25.8132 38.2895 26.0747 38.4705 26.3639 38.5948C26.6531 38.7191 26.9633 38.7842 27.2782 38.7863Z" stroke="#F5F5F5" stroke-width="1.5"/>
<path d="M74.5531 13.0823C74.5541 12.6241 74.6459 12.1707 74.8231 11.7482C75.0003 11.3257 75.2595 10.9424 75.5857 10.6207C75.9119 10.2989 76.2985 10.0449 76.7234 9.87334C77.1483 9.70182 77.6029 9.61616 78.061 9.62131C78.9848 9.62821 79.868 10.0018 80.5163 10.6598C81.1646 11.3179 81.5249 12.2066 81.5181 13.1303C81.5112 14.0541 81.1376 14.9372 80.4795 15.5856C79.8215 16.2339 78.9328 16.5942 78.009 16.5873C77.5514 16.5878 77.0982 16.4972 76.6758 16.3209C76.2534 16.1446 75.8703 15.8861 75.5487 15.5605C75.2271 15.2348 74.9735 14.8484 74.8026 14.4239C74.6316 13.9993 74.5468 13.545 74.5531 13.0873M76.8641 12.9193L76.871 13.3763C77.263 13.6283 77.6361 14.0453 78.0531 14.0943C78.1867 14.1167 78.3239 14.1048 78.4517 14.0597C78.5795 14.0146 78.6937 13.9377 78.7837 13.8364C78.8736 13.735 78.9364 13.6125 78.966 13.4802C78.9956 13.348 78.9912 13.2104 78.953 13.0803C78.8809 12.8657 78.7574 12.6721 78.5932 12.5163C78.429 12.3604 78.2291 12.2471 78.0111 12.1863C77.6381 12.1713 77.2451 12.6543 76.8601 12.9203" fill="#141414"/>
<path d="M74.5531 13.0823C74.5541 12.6241 74.6459 12.1707 74.8231 11.7482C75.0003 11.3257 75.2595 10.9424 75.5857 10.6207C75.9119 10.2989 76.2985 10.0449 76.7234 9.87334C77.1483 9.70182 77.6029 9.61616 78.061 9.62131C78.9848 9.62821 79.868 10.0018 80.5163 10.6598C81.1646 11.3179 81.5249 12.2066 81.5181 13.1303C81.5112 14.0541 81.1376 14.9372 80.4795 15.5856C79.8215 16.2339 78.9328 16.5942 78.009 16.5873C77.5514 16.5878 77.0982 16.4972 76.6758 16.3209C76.2534 16.1446 75.8703 15.8861 75.5487 15.5605C75.2271 15.2348 74.9735 14.8484 74.8026 14.4239C74.6316 13.9993 74.5468 13.545 74.5531 13.0873M76.8641 12.9193L76.871 13.3763C77.263 13.6283 77.6361 14.0453 78.0531 14.0943C78.1867 14.1167 78.3239 14.1048 78.4517 14.0597C78.5795 14.0146 78.6937 13.9377 78.7837 13.8364C78.8736 13.735 78.9364 13.6125 78.966 13.4802C78.9956 13.348 78.9912 13.2104 78.953 13.0803C78.8809 12.8657 78.7574 12.6721 78.5932 12.5163C78.429 12.3604 78.2291 12.2471 78.0111 12.1863C77.6381 12.1713 77.2451 12.6543 76.8601 12.9203" stroke="#F5F5F5" stroke-width="1.5"/>
<path d="M69.646 16.5866C68.9573 16.5983 68.2806 16.4056 67.7014 16.0329C67.1222 15.6601 66.6666 15.1239 66.3921 14.4922C66.1176 13.8605 66.0365 13.1615 66.1592 12.4838C66.2819 11.806 66.6027 11.1798 67.0813 10.6844C67.5598 10.189 68.1745 9.84652 68.8476 9.70039C69.5207 9.55425 70.222 9.61097 70.8628 9.86338C71.5037 10.1158 72.0554 10.5525 72.4481 11.1184C72.8407 11.6843 73.0568 12.3539 73.069 13.0426C73.079 13.5006 72.9983 13.9561 72.8313 14.3827C72.6644 14.8093 72.4145 15.1986 72.0963 15.5282C71.778 15.8577 71.3976 16.1209 70.977 16.3025C70.5564 16.4842 70.104 16.5808 69.646 16.5866ZM69.809 11.9706H69.388C69.126 12.3636 68.652 12.7706 68.666 13.1486C68.7274 13.3663 68.8417 13.5654 68.9987 13.7282C69.1558 13.891 69.3506 14.0124 69.566 14.0816C69.6976 14.1145 69.8355 14.1139 69.9668 14.0797C70.0981 14.0455 70.2188 13.9788 70.3176 13.8858C70.4165 13.7929 70.4904 13.6765 70.5326 13.5475C70.5747 13.4185 70.5838 13.281 70.559 13.1476C70.498 12.7276 70.07 12.3606 69.806 11.9696" fill="#141414"/>
<path d="M69.809 11.9706H69.388C69.126 12.3636 68.652 12.7706 68.666 13.1486C68.7274 13.3663 68.8417 13.5654 68.9987 13.7282C69.1558 13.891 69.3506 14.0124 69.566 14.0816C69.6976 14.1145 69.8355 14.1139 69.9668 14.0797C70.0981 14.0455 70.2188 13.9788 70.3176 13.8858C70.4165 13.7929 70.4904 13.6765 70.5326 13.5475C70.5747 13.4185 70.5838 13.281 70.559 13.1476C70.498 12.7276 70.07 12.3606 69.806 11.9696M69.646 16.5866C68.9573 16.5983 68.2806 16.4056 67.7014 16.0329C67.1222 15.6601 66.6666 15.1239 66.3921 14.4922C66.1176 13.8605 66.0365 13.1615 66.1592 12.4838C66.2819 11.806 66.6027 11.1798 67.0813 10.6844C67.5598 10.189 68.1745 9.84652 68.8476 9.70039C69.5207 9.55425 70.222 9.61097 70.8628 9.86338C71.5037 10.1158 72.0554 10.5525 72.4481 11.1184C72.8407 11.6843 73.0568 12.3539 73.069 13.0426C73.079 13.5006 72.9983 13.9561 72.8313 14.3827C72.6644 14.8093 72.4145 15.1986 72.0963 15.5282C71.778 15.8577 71.3976 16.1209 70.977 16.3025C70.5564 16.4842 70.104 16.5808 69.646 16.5866Z" stroke="#F5F5F5" stroke-width="1.5"/>
<path d="M89.8888 13.125C89.8855 13.813 89.6784 14.4846 89.2938 15.0551C88.9092 15.6256 88.3642 16.0693 87.7276 16.3304C87.0911 16.5915 86.3915 16.6583 85.7171 16.5222C85.0426 16.3861 84.4236 16.0534 83.9381 15.5659C83.4525 15.0784 83.1223 14.4581 82.9889 13.7831C82.8555 13.1081 82.9251 12.4088 83.1887 11.7733C83.4524 11.1378 83.8983 10.5946 84.4704 10.2123C85.0424 9.82996 85.7148 9.6256 86.4028 9.625C87.3286 9.6287 88.2153 9.99909 88.8686 10.6551C89.522 11.311 89.8888 12.1992 89.8888 13.125ZM86.1548 14.27L86.5858 14.284C86.8638 13.9 87.3088 13.544 87.3788 13.125C87.4049 12.9914 87.3974 12.8535 87.3572 12.7235C87.317 12.5936 87.2452 12.4756 87.1482 12.3801C87.0513 12.2846 86.9322 12.2146 86.8016 12.1764C86.671 12.1382 86.5329 12.1329 86.3998 12.161C86.1801 12.2242 85.9794 12.3409 85.8158 12.5006C85.6521 12.6602 85.5305 12.8579 85.4618 13.076C85.4328 13.454 85.9018 13.87 86.1548 14.27Z" fill="#141414" stroke="#F5F5F5" stroke-width="1.5"/>
</g>
<defs>
<linearGradient id="paint0_linear_1066_2245" x1="47.7102" y1="80.3589" x2="80.7211" y2="29.2854" gradientUnits="userSpaceOnUse">
<stop stop-color="#9358F7"/>
<stop offset="0.259732" stop-color="#7B78F2"/>
<stop offset="0.500607" stop-color="#6197EE"/>
<stop offset="0.766547" stop-color="#45B5E9"/>
<stop offset="1" stop-color="#10D7E2"/>
</linearGradient>
<clipPath id="clip0_1066_2245">
<rect width="100" height="100" fill="white"/>
</clipPath>
</defs>
</svg>
