<svg width="48" height="48" viewBox="0 0 48 48" fill="none" xmlns="http://www.w3.org/2000/svg">
<path d="M22.5 27V28H24.5V27H22.5ZM24.5 21V20H22.5V21H24.5ZM10.5 28V26H8.5V28H10.5ZM11.5 25H23.5V23H11.5V25ZM23.5 25H35.5V23H23.5V25ZM36.5 26V28H38.5V26H36.5ZM35.5 25C36.0523 25 36.5 25.4477 36.5 26H38.5C38.5 24.3431 37.1569 23 35.5 23V25ZM10.5 26C10.5 25.4477 10.9477 25 11.5 25V23C9.84315 23 8.5 24.3431 8.5 26H10.5ZM24.5 27V24H22.5V27H24.5ZM24.5 24V21H22.5V24H24.5Z" fill="#2E2E2E"/>
<path d="M6.28864 38.3695C7.38418 37.9644 8.81579 37.5429 9.96043 37.5333H10.0396C11.1842 37.5429 12.6158 37.9644 13.7114 38.3695C14.1727 38.5401 14.5 39.0079 14.5 39.5873V42.9998H5.5V39.5873C5.5 39.0079 5.82728 38.5401 6.28864 38.3695ZM10.0467 35.5333C10.0311 35.5332 10.0155 35.5332 10 35.5332C9.98445 35.5332 9.96888 35.5332 9.95329 35.5333H9.08333C8.6231 35.5333 8.25 35.1602 8.25 34.7V31.8333C8.25 31.3731 8.6231 31 9.08333 31H10.9168C11.377 31 11.7501 31.3731 11.7501 31.8333V34.7C11.7501 35.1602 11.377 35.5333 10.9168 35.5333H10.0467Z" stroke="#2E2E2E" stroke-width="2"/>
<path d="M20.0386 38.3695C21.1342 37.9644 22.5658 37.5429 23.7104 37.5333H23.7896C24.9342 37.5429 26.3658 37.9644 27.4614 38.3695C27.9227 38.5401 28.25 39.0079 28.25 39.5873V42.9998H19.25V39.5873C19.25 39.0079 19.5773 38.5401 20.0386 38.3695ZM23.7967 35.5333C23.7811 35.5332 23.7655 35.5332 23.75 35.5332C23.7345 35.5332 23.7189 35.5332 23.7033 35.5333H22.8333C22.3731 35.5333 22 35.1602 22 34.7V31.8333C22 31.3731 22.3731 31 22.8333 31H24.6668C25.127 31 25.5001 31.3731 25.5001 31.8333V34.7C25.5001 35.1602 25.127 35.5333 24.6668 35.5333H23.7967Z" stroke="url(#paint0_linear_1081_2585)" stroke-width="2" stroke-linecap="round" stroke-linejoin="round"/>
<path d="M33.7886 38.3695C34.8842 37.9644 36.3158 37.5429 37.4604 37.5333H37.5396C38.6842 37.5429 40.1158 37.9644 41.2114 38.3695C41.6727 38.5401 42 39.0079 42 39.5873V42.9998H33V39.5873C33 39.0079 33.3273 38.5401 33.7886 38.3695ZM37.5467 35.5333C37.5311 35.5332 37.5155 35.5332 37.5 35.5332C37.4845 35.5332 37.4689 35.5332 37.4533 35.5333H36.5833C36.1231 35.5333 35.75 35.1602 35.75 34.7V31.8333C35.75 31.3731 36.1231 31 36.5833 31H38.4168C38.877 31 39.2501 31.3731 39.2501 31.8333V34.7C39.2501 35.1602 38.877 35.5333 38.4168 35.5333H37.5467Z" stroke="#2E2E2E" stroke-width="2"/>
<path d="M28.8485 11.686C28.8773 11.462 28.8989 11.238 28.8989 11C28.8989 10.762 28.8773 10.538 28.8485 10.314L30.3669 9.15902C30.5037 9.05402 30.5396 8.86502 30.4533 8.71102L29.014 6.28903C28.9277 6.13503 28.7334 6.07903 28.575 6.13503L26.7831 6.83503C26.4089 6.55503 26.0059 6.32403 25.5669 6.14903L25.2935 4.29403C25.2816 4.21167 25.2392 4.13636 25.1743 4.08224C25.1094 4.02811 25.0264 3.99888 24.9409 4.00003H22.0623C21.8824 4.00003 21.7313 4.12603 21.7097 4.29403L21.4362 6.14903C20.9973 6.32403 20.5943 6.56203 20.22 6.83503L18.4281 6.13503C18.2626 6.07203 18.0755 6.13503 17.9892 6.28903L16.5499 8.71102C16.4563 8.86502 16.4995 9.05402 16.6363 9.15902L18.1547 10.314C18.1259 10.538 18.1043 10.769 18.1043 11C18.1043 11.231 18.1259 11.462 18.1547 11.686L16.6363 12.841C16.4995 12.946 16.4635 13.135 16.5499 13.289L17.9892 15.711C18.0755 15.865 18.2698 15.921 18.4281 15.865L20.22 15.165C20.5943 15.445 20.9973 15.676 21.4362 15.851L21.7097 17.706C21.7313 17.874 21.8824 18 22.0623 18H24.9409C25.1208 18 25.2719 17.874 25.2935 17.706L25.5669 15.851C26.0059 15.676 26.4089 15.438 26.7831 15.165L28.575 15.865C28.7405 15.928 28.9277 15.865 29.014 15.711L30.4533 13.289C30.5396 13.135 30.5037 12.946 30.3669 12.841L28.8485 11.686ZM23.5016 13.45C22.1127 13.45 20.9829 12.351 20.9829 11C20.9829 9.64902 22.1127 8.55002 23.5016 8.55002C24.8905 8.55002 26.0203 9.64902 26.0203 11C26.0203 12.351 24.8905 13.45 23.5016 13.45Z" fill="url(#paint1_linear_1081_2585)"/>
<defs>
<linearGradient id="paint0_linear_1081_2585" x1="19.25" y1="36.9999" x2="28.25" y2="36.9999" gradientUnits="userSpaceOnUse">
<stop stop-color="#9358F6"/>
<stop offset="0.26" stop-color="#7A78F2"/>
<stop offset="0.515" stop-color="#6197ED"/>
<stop offset="0.76" stop-color="#44B5E9"/>
<stop offset="1" stop-color="#0FD7E1"/>
</linearGradient>
<linearGradient id="paint1_linear_1081_2585" x1="22.0064" y1="24.5435" x2="36.8021" y2="12.5891" gradientUnits="userSpaceOnUse">
<stop stop-color="#9358F7"/>
<stop offset="0.259732" stop-color="#7B78F2"/>
<stop offset="0.500607" stop-color="#6197EE"/>
<stop offset="0.766547" stop-color="#45B5E9"/>
<stop offset="1" stop-color="#10D7E2"/>
</linearGradient>
</defs>
</svg>
