<svg width="100" height="100" viewBox="0 0 100 100" fill="none" xmlns="http://www.w3.org/2000/svg">
<g clip-path="url(#clip0_1120_672)">
<mask id="mask0_1120_672" style="mask-type:luminance" maskUnits="userSpaceOnUse" x="4" y="4" width="92" height="92">
<path d="M96 4H4V96H96V4Z" fill="white"/>
</mask>
<g mask="url(#mask0_1120_672)">
<path d="M4.62402 21.5884C6.02402 16.2084 10.266 13.7264 14.872 11.6944C19.7395 9.65964 24.9016 8.4179 30.162 8.01642C37.0846 7.29954 44.0761 7.64554 50.894 9.04242C55.4506 9.85485 59.813 11.52 63.752 13.9504C64.8815 14.6947 65.9346 15.5489 66.896 16.5004C67.8273 17.3844 68.5614 18.4551 69.0501 19.6424C69.5388 20.8298 69.7712 22.107 69.732 23.3904C69.664 28.2784 69.714 33.1664 69.714 38.0544V39.2304C70.55 39.2304 71.302 39.2304 72.054 39.2304C72.9178 39.1593 73.7753 39.427 74.4453 39.9768C75.1153 40.5266 75.5452 41.3154 75.644 42.1764C75.874 43.2704 76.084 44.3764 76.328 45.4584C76.3629 45.6475 76.445 45.8248 76.5667 45.9736C76.6885 46.1224 76.8459 46.2381 77.0243 46.3097C77.2028 46.3814 77.3964 46.4067 77.5873 46.3834C77.7782 46.3601 77.9601 46.2889 78.116 46.1764C79.078 45.5504 80.026 44.9044 80.992 44.2844C81.6613 43.7821 82.496 43.5517 83.3282 43.6396C84.1604 43.7276 84.9285 44.1273 85.478 44.7584C86.842 46.1011 88.1954 47.4544 89.538 48.8184C90.1874 49.3715 90.5978 50.1543 90.6836 51.0029C90.7693 51.8516 90.5237 52.7006 89.998 53.3724C89.398 54.3144 88.77 55.2424 88.16 56.1724C87.55 57.1024 87.806 57.7724 88.888 58.0024C90.012 58.2324 91.136 58.4544 92.256 58.7024C93.0837 58.8206 93.8363 59.2466 94.3635 59.8954C94.8907 60.5443 95.1537 61.3681 95.1 62.2024C95.112 64.1464 95.112 66.0898 95.1 68.0324C95.1466 68.8361 94.8957 69.6288 94.3951 70.2592C93.8945 70.8896 93.1793 71.3137 92.386 71.4504C91.098 71.7524 89.798 71.9964 88.506 72.2824C87.67 72.4664 87.468 72.9584 87.932 73.6824C88.602 74.7204 89.298 75.7424 89.966 76.7804C90.5115 77.4564 90.7701 78.3193 90.6863 79.1839C90.6025 80.0485 90.1831 80.8457 89.518 81.4044C88.198 82.7484 86.8647 84.0818 85.518 85.4044C84.9601 86.0699 84.1639 86.4907 83.2998 86.5766C82.4356 86.6626 81.5721 86.407 80.894 85.8644C79.806 85.1624 78.734 84.4344 77.648 83.7324C76.954 83.2844 76.58 83.4384 76.406 84.2524C76.146 85.4524 75.908 86.6724 75.664 87.8824C75.6267 88.3413 75.4971 88.7878 75.2831 89.1954C75.0691 89.603 74.7751 89.9632 74.4187 90.2545C74.0622 90.5458 73.6506 90.7622 73.2086 90.8907C72.7665 91.0192 72.3031 91.0572 71.846 91.0024C70.138 91.0024 68.43 91.0024 66.722 91.0024C66.2441 91.0758 65.756 91.0481 65.2894 90.9212C64.8228 90.7943 64.388 90.571 64.013 90.2657C63.6379 89.9604 63.3311 89.5799 63.1122 89.1488C62.8933 88.7176 62.7672 88.2453 62.742 87.7624C62.69 87.5044 62.608 87.2544 62.578 87.1444C60.038 88.0984 57.558 89.1824 54.978 89.9684C48.5528 91.8414 41.8647 92.652 35.178 92.3684C29.0477 92.2931 22.9673 91.2537 17.16 89.2884C13.9372 88.2465 10.9395 86.6065 8.32402 84.4544C6.49596 82.9076 5.2014 80.8244 4.62402 78.5004V21.5884ZM38.384 35.0144C39.932 34.9004 42.728 34.7804 45.502 34.4664C50.402 34.0022 55.1864 32.7028 59.648 30.6244C62.0123 29.6109 64.0907 28.0311 65.7 26.0244C66.4632 25.1084 66.8824 23.9546 66.8853 22.7623C66.8883 21.57 66.4747 20.4142 65.716 19.4944C65.3874 19.0413 65.0222 18.6159 64.624 18.2224C62.7503 16.4673 60.5537 15.0925 58.156 14.1744C53.3149 12.2346 48.1951 11.0801 42.99 10.7544C35.3243 10.0227 27.5894 10.7047 20.17 12.7664C16.5637 13.6771 13.1964 15.3553 10.298 17.6864C6.54202 20.9064 6.53802 24.5464 10.27 27.7744C12.289 29.4512 14.5847 30.7635 17.054 31.6524C23.9016 34.0562 31.129 35.1941 38.384 35.0144ZM55.438 46.4164C55.2399 46.5514 55.0502 46.6983 54.87 46.8564C53.574 48.1424 52.296 49.4464 50.986 50.7184C50.8894 50.7832 50.8081 50.8682 50.7477 50.9676C50.6874 51.067 50.6494 51.1783 50.6364 51.2939C50.6235 51.4094 50.6359 51.5264 50.6728 51.6367C50.7097 51.747 50.7702 51.8479 50.85 51.9324C51.384 52.6704 51.784 53.5184 52.376 54.2004C53.0136 54.8098 53.4193 55.622 53.5237 56.4977C53.628 57.3735 53.4245 58.2583 52.948 59.0004C52.7794 59.4295 52.5025 59.8076 52.1443 60.0979C51.7861 60.3881 51.3588 60.5805 50.904 60.6564C49.57 60.8744 48.254 61.1944 46.924 61.4424C46.8074 61.4459 46.693 61.4744 46.5883 61.5259C46.4837 61.5774 46.3913 61.6507 46.3174 61.7409C46.2434 61.8311 46.1897 61.9361 46.1598 62.0489C46.1299 62.1616 46.1245 62.2794 46.144 62.3944C46.1747 64.1904 46.1747 65.9864 46.144 67.7824C46.134 68.3984 46.344 68.6944 46.962 68.7964C47.918 68.9524 48.866 69.1684 49.816 69.3664C52.508 69.9304 52.494 69.9364 53.604 72.4504C53.761 72.7504 53.8302 73.0885 53.8036 73.426C53.7771 73.7635 53.6559 74.0867 53.454 74.3584C52.562 75.6744 51.712 77.0164 50.824 78.3344C50.7525 78.4074 50.697 78.4945 50.6613 78.5902C50.6255 78.686 50.6103 78.7881 50.6165 78.8901C50.6227 78.9921 50.6503 79.0916 50.6974 79.1823C50.7445 79.273 50.8101 79.3527 50.89 79.4164C52.234 80.7364 53.5674 82.0698 54.89 83.4164C54.9503 83.4994 55.0273 83.5688 55.1162 83.6202C55.205 83.6715 55.3036 83.7036 55.4056 83.7143C55.5077 83.7251 55.6108 83.7142 55.7084 83.6826C55.8059 83.6509 55.8958 83.5991 55.972 83.5304C56.894 82.8984 57.84 82.3024 58.772 81.6824C61.416 79.9264 60.688 80.2364 63.392 81.2344C63.7005 81.3329 63.9747 81.5166 64.1832 81.7643C64.3916 82.0121 64.5257 82.3137 64.57 82.6344C64.874 84.2224 65.25 85.7964 65.548 87.3864C65.654 87.9524 65.896 88.1984 66.48 88.1864C68.3054 88.1678 70.1307 88.1678 71.956 88.1864C72.54 88.1864 72.79 87.9484 72.888 87.3864C73.072 86.3144 73.426 85.2644 73.522 84.1864C73.508 83.3632 73.7822 82.561 74.2972 81.9185C74.8122 81.2761 75.5355 80.8339 76.342 80.6684C76.6917 80.529 77.0699 80.4764 77.4443 80.515C77.8187 80.5537 78.1782 80.6825 78.492 80.8904C79.748 81.7624 81.048 82.5724 82.312 83.4344C82.3984 83.5229 82.5027 83.5917 82.6181 83.6362C82.7334 83.6807 82.857 83.6998 82.9803 83.6922C83.1037 83.6846 83.224 83.6505 83.333 83.5922C83.442 83.5339 83.5372 83.4528 83.612 83.3544C84.878 82.0404 86.176 80.7544 87.48 79.4784C87.5701 79.4159 87.6457 79.3349 87.7018 79.2407C87.7579 79.1465 87.7932 79.0414 87.8053 78.9325C87.8175 78.8236 87.8061 78.7133 87.7721 78.6091C87.7381 78.5049 87.6821 78.4092 87.608 78.3284C87.0764 77.4469 86.501 76.5925 85.884 75.7684C85.2536 75.1699 84.8575 74.3661 84.7669 73.5016C84.6764 72.637 84.8973 71.7686 85.39 71.0524C85.5493 70.696 85.7926 70.3835 86.0992 70.1418C86.4057 69.9 86.7663 69.7362 87.15 69.6644C88.598 69.4124 90.028 69.0644 91.474 68.8004C91.5978 68.796 91.7192 68.7649 91.8298 68.7091C91.9404 68.6533 92.0377 68.5743 92.1148 68.4773C92.192 68.3804 92.2472 68.2679 92.2768 68.1476C92.3063 68.0273 92.3095 67.9021 92.286 67.7804C92.2554 65.9844 92.2554 64.1884 92.286 62.3924C92.3056 62.2774 92.3001 62.1595 92.2701 62.0467C92.2401 61.9339 92.1861 61.8289 92.112 61.7388C92.0378 61.6487 91.9451 61.5756 91.8402 61.5245C91.7353 61.4734 91.6207 61.4454 91.504 61.4424C90.52 61.2624 89.554 60.9604 88.564 60.8604C86.818 60.6864 85.528 60.0464 85.204 58.1504C85.1751 58.0355 85.1264 57.9266 85.06 57.8284C84.8308 57.4663 84.7241 57.0401 84.7554 56.6127C84.7867 56.1853 84.9545 55.7793 85.234 55.4544C86.054 54.3064 86.784 53.0924 87.582 51.9284C87.6595 51.8512 87.7194 51.7582 87.7577 51.6557C87.796 51.5533 87.8118 51.4438 87.804 51.3347C87.7962 51.2256 87.7651 51.1194 87.7126 51.0234C87.6602 50.9275 87.5876 50.8439 87.5 50.7784C86.1667 49.4824 84.8547 48.1711 83.564 46.8444C83.4997 46.7554 83.4171 46.681 83.3218 46.6264C83.2265 46.5717 83.1207 46.538 83.0113 46.5274C82.902 46.5168 82.7916 46.5296 82.6876 46.5649C82.5836 46.6003 82.4883 46.6574 82.408 46.7324C81.586 47.3024 80.684 47.7704 79.92 48.4044C79.4059 48.9792 78.6954 49.3408 77.9282 49.4181C77.1609 49.4955 76.3925 49.283 75.774 48.8224C75.5456 48.6879 75.2971 48.5906 75.038 48.5344C74.681 48.4374 74.3625 48.2327 74.1259 47.9482C73.8894 47.6637 73.7462 47.3132 73.716 46.9444C73.458 45.5564 73.128 44.1824 72.874 42.7944C72.8723 42.6854 72.8471 42.578 72.8001 42.4796C72.7532 42.3812 72.6855 42.2941 72.6018 42.2242C72.518 42.1543 72.4202 42.1034 72.315 42.0748C72.2098 42.0461 72.0996 42.0406 71.992 42.0584C70.1374 42.0784 68.2827 42.0784 66.428 42.0584C66.3203 42.0408 66.21 42.0467 66.1048 42.0758C65.9996 42.105 65.902 42.1566 65.8187 42.2271C65.7354 42.2977 65.6684 42.3855 65.6224 42.4845C65.5763 42.5835 65.5523 42.6913 65.552 42.8004C65.352 43.9304 65.022 45.0384 64.886 46.1744C64.888 46.8109 64.6636 47.4273 64.2528 47.9135C63.8421 48.3997 63.2719 48.724 62.644 48.8284C62.3304 48.9111 62.0315 49.042 61.758 49.2164C61.4214 49.4311 61.0252 49.5331 60.6268 49.5075C60.2284 49.482 59.8485 49.3303 59.542 49.0744C58.436 48.2944 57.288 47.5764 56.154 46.8364C55.938 46.6944 55.706 46.5744 55.438 46.4204M47.882 52.3824C47.7009 51.6778 47.7289 50.9356 47.9626 50.2466C48.1963 49.5575 48.6256 48.9515 49.198 48.5024C50.462 47.3024 51.658 46.0484 52.894 44.8264C53.4509 44.1607 54.2451 43.7381 55.1083 43.6481C55.9715 43.5581 56.8359 43.8079 57.518 44.3444C58.462 44.9444 59.386 45.5744 60.318 46.1784C60.4726 46.2939 60.6542 46.3676 60.8454 46.3927C61.0367 46.4178 61.2312 46.3934 61.4102 46.3217C61.5893 46.25 61.747 46.1335 61.8681 45.9834C61.9893 45.8333 62.0698 45.6546 62.102 45.4644C62.374 44.2644 62.586 43.0404 62.882 41.8424C63.0268 41.0975 63.4305 40.4278 64.0217 39.9519C64.6128 39.476 65.3533 39.2247 66.112 39.2424C66.34 39.2424 66.566 39.2024 66.782 39.1824V29.1824C63.436 32.1579 59.423 34.2844 55.082 35.3824C43.9192 38.5322 32.1238 38.6874 20.882 35.8324C15.9856 34.8206 11.4325 32.564 7.66202 29.2804C7.63802 29.2584 7.56202 29.2804 7.46202 29.3024C7.46202 32.7644 7.57002 36.2364 7.42802 39.7024C7.36335 40.938 7.60437 42.1705 8.12975 43.2906C8.65513 44.4108 9.44865 45.3841 10.44 46.1244C13.3209 48.3814 16.6389 50.0159 20.184 50.9244C27.402 52.9295 34.9202 53.6285 42.384 52.9884C44.196 52.8624 45.996 52.5884 47.872 52.3784M7.45202 65.4804V66.5024C7.45202 69.6824 7.57202 72.8684 7.41602 76.0404C7.34284 77.3078 7.58992 78.5733 8.13448 79.7201C8.67904 80.8669 9.50357 81.8581 10.532 82.6024C13.3959 84.8302 16.6916 86.4382 20.21 87.3244C29.897 89.9906 40.0756 90.3387 49.922 88.3404C52.094 87.9284 54.216 87.2544 56.362 86.7024L56.334 86.4744C55.6526 86.6264 54.942 86.5815 54.2851 86.3449C53.6282 86.1084 53.0521 85.6899 52.624 85.1384C51.388 83.8364 50.08 82.6044 48.824 81.3184C48.2088 80.7735 47.8215 80.0169 47.7392 79.1992C47.657 78.3816 47.8857 77.5629 48.38 76.9064C49.042 75.8624 49.738 74.8404 50.41 73.8044C50.558 73.5744 50.674 73.3244 50.81 73.0784C50.65 72.9984 50.598 72.9484 50.55 72.9524C50.316 72.9724 50.082 72.9984 49.85 73.0404C40.8313 74.7612 31.5564 74.6251 22.592 72.6404C16.9872 71.6687 11.7519 69.1917 7.44602 65.4744M7.44602 47.4744V48.3024C7.44602 51.5424 7.54402 54.7864 7.41602 58.0204C7.36282 59.2002 7.5946 60.3754 8.09173 61.4466C8.58886 62.5178 9.33672 63.4534 10.272 64.1744C12.57 66.0731 15.2102 67.5144 18.05 68.4204C25.9942 71.0099 34.386 71.9378 42.704 71.1464C43.304 71.1024 43.904 71.0284 44.758 70.9464C44.1947 70.4665 43.7656 69.8485 43.5129 69.1529C43.2601 68.4573 43.1923 67.7081 43.316 66.9784C43.356 65.3584 43.316 63.7384 43.328 62.1184C43.2985 61.2994 43.5718 60.4983 44.0957 59.8681C44.6196 59.2379 45.3574 58.8229 46.168 58.7024C47.32 58.4678 48.472 58.2304 49.624 57.9904C50.588 57.7904 50.866 57.0984 50.322 56.2504C50.1496 56.0125 49.99 55.7654 49.844 55.5104C49.7602 55.3081 49.6027 55.145 49.4035 55.0541C49.2042 54.9631 48.9778 54.9511 48.77 55.0204C41.3564 56.2972 33.7832 56.3452 26.354 55.1624C21.2361 54.5036 16.2854 52.899 11.754 50.4304C10.272 49.5724 8.91802 48.4924 7.45002 47.4744M61.98 84.0304L61.89 83.6304C61.568 83.6304 61.17 83.5064 60.938 83.6504C59.634 84.4504 58.368 85.3184 57.09 86.1644L57.2 86.3644L61.98 84.0244" fill="#141414"/>
<path d="M55.438 46.4164C55.2399 46.5514 55.0502 46.6983 54.87 46.8564C53.574 48.1424 52.296 49.4464 50.986 50.7184C50.8894 50.7832 50.8081 50.8682 50.7477 50.9676C50.6874 51.067 50.6494 51.1783 50.6364 51.2939C50.6235 51.4094 50.6359 51.5264 50.6728 51.6367C50.7097 51.747 50.7702 51.8479 50.85 51.9324C51.384 52.6704 51.784 53.5184 52.376 54.2004C53.0136 54.8098 53.4193 55.622 53.5237 56.4977C53.628 57.3735 53.4245 58.2583 52.948 59.0004C52.7794 59.4295 52.5025 59.8076 52.1443 60.0979C51.7861 60.3881 51.3588 60.5805 50.904 60.6564C49.57 60.8744 48.254 61.1944 46.924 61.4424C46.8074 61.4459 46.693 61.4744 46.5883 61.5259C46.4837 61.5774 46.3913 61.6507 46.3174 61.7409C46.2434 61.8311 46.1897 61.9361 46.1598 62.0489C46.1299 62.1616 46.1245 62.2794 46.144 62.3944C46.1747 64.1904 46.1747 65.9864 46.144 67.7824C46.134 68.3984 46.344 68.6944 46.962 68.7964C47.918 68.9524 48.866 69.1684 49.816 69.3664C52.508 69.9304 52.494 69.9364 53.604 72.4504C53.761 72.7504 53.8302 73.0885 53.8036 73.426C53.7771 73.7635 53.6559 74.0867 53.454 74.3584C52.562 75.6744 51.712 77.0164 50.824 78.3344C50.7525 78.4074 50.697 78.4945 50.6613 78.5902C50.6255 78.686 50.6103 78.7881 50.6165 78.8901C50.6227 78.9921 50.6503 79.0916 50.6974 79.1823C50.7445 79.273 50.8101 79.3527 50.89 79.4164C52.234 80.7364 53.5674 82.0698 54.89 83.4164C54.9503 83.4994 55.0273 83.5688 55.1162 83.6202C55.205 83.6715 55.3036 83.7036 55.4056 83.7143C55.5077 83.7251 55.6108 83.7142 55.7084 83.6826C55.8059 83.6509 55.8958 83.5991 55.972 83.5304C56.894 82.8984 57.84 82.3024 58.772 81.6824C61.416 79.9264 60.688 80.2364 63.392 81.2344C63.7005 81.3329 63.9747 81.5166 64.1832 81.7643C64.3916 82.0121 64.5257 82.3137 64.57 82.6344C64.874 84.2224 65.25 85.7964 65.548 87.3864C65.654 87.9524 65.896 88.1984 66.48 88.1864C68.3054 88.1678 70.1307 88.1678 71.956 88.1864C72.54 88.1864 72.79 87.9484 72.888 87.3864C73.072 86.3144 73.426 85.2644 73.522 84.1864C73.508 83.3632 73.7822 82.561 74.2972 81.9185C74.8122 81.2761 75.5355 80.8339 76.342 80.6684C76.6917 80.529 77.0699 80.4764 77.4443 80.515C77.8187 80.5537 78.1782 80.6825 78.492 80.8904C79.748 81.7624 81.048 82.5724 82.312 83.4344C82.3984 83.5229 82.5027 83.5917 82.6181 83.6362C82.7334 83.6807 82.857 83.6998 82.9803 83.6922C83.1037 83.6846 83.224 83.6505 83.333 83.5922C83.442 83.5339 83.5372 83.4528 83.612 83.3544C84.878 82.0404 86.176 80.7544 87.48 79.4784C87.5701 79.4159 87.6457 79.3349 87.7018 79.2407C87.7579 79.1465 87.7932 79.0414 87.8053 78.9325C87.8175 78.8236 87.8061 78.7133 87.7721 78.6091C87.7381 78.5049 87.6821 78.4092 87.608 78.3284C87.0764 77.4469 86.501 76.5925 85.884 75.7684C85.2536 75.1699 84.8575 74.3661 84.7669 73.5016C84.6764 72.637 84.8973 71.7686 85.39 71.0524C85.5493 70.696 85.7926 70.3835 86.0992 70.1418C86.4057 69.9 86.7663 69.7362 87.15 69.6644C88.598 69.4124 90.028 69.0644 91.474 68.8004C91.5978 68.796 91.7192 68.7649 91.8298 68.7091C91.9404 68.6533 92.0377 68.5743 92.1148 68.4773C92.192 68.3804 92.2472 68.2679 92.2768 68.1476C92.3063 68.0273 92.3095 67.9021 92.286 67.7804C92.2554 65.9844 92.2554 64.1884 92.286 62.3924C92.3056 62.2774 92.3001 62.1595 92.2701 62.0467C92.2401 61.9339 92.1861 61.8289 92.112 61.7388C92.0378 61.6487 91.9451 61.5756 91.8402 61.5245C91.7353 61.4734 91.6207 61.4454 91.504 61.4424C90.52 61.2624 89.554 60.9604 88.564 60.8604C86.818 60.6864 85.528 60.0464 85.204 58.1504C85.1751 58.0355 85.1264 57.9266 85.06 57.8284C84.8308 57.4663 84.7241 57.0401 84.7554 56.6127C84.7867 56.1853 84.9545 55.7793 85.234 55.4544C86.054 54.3064 86.784 53.0924 87.582 51.9284C87.6595 51.8512 87.7194 51.7582 87.7577 51.6557C87.796 51.5533 87.8118 51.4438 87.804 51.3347C87.7962 51.2256 87.7651 51.1194 87.7126 51.0234C87.6602 50.9275 87.5876 50.8439 87.5 50.7784C86.1667 49.4824 84.8547 48.1711 83.564 46.8444C83.4997 46.7554 83.4171 46.681 83.3218 46.6264C83.2265 46.5717 83.1207 46.538 83.0113 46.5274C82.902 46.5168 82.7916 46.5296 82.6876 46.5649C82.5836 46.6003 82.4883 46.6574 82.408 46.7324C81.586 47.3024 80.684 47.7704 79.92 48.4044C79.4059 48.9792 78.6954 49.3408 77.9282 49.4181C77.1609 49.4955 76.3925 49.283 75.774 48.8224C75.5456 48.6879 75.2971 48.5906 75.038 48.5344C74.681 48.4374 74.3625 48.2327 74.1259 47.9482C73.8894 47.6637 73.7462 47.3132 73.716 46.9444C73.458 45.5564 73.128 44.1824 72.874 42.7944C72.8723 42.6854 72.8471 42.578 72.8001 42.4796C72.7532 42.3812 72.6855 42.2941 72.6018 42.2242C72.518 42.1543 72.4202 42.1034 72.315 42.0748C72.2098 42.0461 72.0996 42.0406 71.992 42.0584C70.1374 42.0784 68.2827 42.0784 66.428 42.0584C66.3203 42.0408 66.21 42.0467 66.1048 42.0758C65.9996 42.105 65.902 42.1566 65.8187 42.2271C65.7354 42.2977 65.6684 42.3855 65.6224 42.4845C65.5763 42.5835 65.5523 42.6913 65.552 42.8004C65.352 43.9304 65.022 45.0384 64.886 46.1744C64.888 46.8109 64.6636 47.4273 64.2528 47.9135C63.8421 48.3997 63.2719 48.724 62.644 48.8284C62.3304 48.9111 62.0315 49.042 61.758 49.2164C61.4214 49.4311 61.0252 49.5331 60.6268 49.5075C60.2284 49.482 59.8485 49.3303 59.542 49.0744C58.436 48.2944 57.288 47.5764 56.154 46.8364C55.938 46.6944 55.706 46.5744 55.438 46.4204M47.882 52.3824C47.7009 51.6778 47.7289 50.9356 47.9626 50.2466C48.1963 49.5575 48.6256 48.9515 49.198 48.5024C50.462 47.3024 51.658 46.0484 52.894 44.8264C53.4509 44.1607 54.2451 43.7381 55.1083 43.6481C55.9715 43.5581 56.8359 43.8079 57.518 44.3444C58.462 44.9444 59.386 45.5744 60.318 46.1784C60.4726 46.2939 60.6542 46.3676 60.8454 46.3927C61.0367 46.4178 61.2312 46.3934 61.4102 46.3217C61.5893 46.25 61.747 46.1335 61.8681 45.9834C61.9893 45.8333 62.0698 45.6546 62.102 45.4644C62.374 44.2644 62.586 43.0404 62.882 41.8424C63.0268 41.0975 63.4305 40.4278 64.0217 39.9519C64.6128 39.476 65.3533 39.2247 66.112 39.2424C66.34 39.2424 66.566 39.2024 66.782 39.1824V29.1824C63.436 32.1579 59.423 34.2844 55.082 35.3824C43.9192 38.5322 32.1238 38.6874 20.882 35.8324C15.9856 34.8206 11.4325 32.564 7.66202 29.2804C7.63802 29.2584 7.56202 29.2804 7.46202 29.3024C7.46202 32.7644 7.57002 36.2364 7.42802 39.7024C7.36335 40.938 7.60437 42.1705 8.12975 43.2906C8.65513 44.4108 9.44865 45.3841 10.44 46.1244C13.3209 48.3814 16.6389 50.0159 20.184 50.9244C27.402 52.9295 34.9202 53.6285 42.384 52.9884C44.196 52.8624 45.996 52.5884 47.872 52.3784M7.45202 65.4804V66.5024C7.45202 69.6824 7.57202 72.8684 7.41602 76.0404C7.34284 77.3078 7.58992 78.5733 8.13448 79.7201C8.67904 80.8669 9.50357 81.8581 10.532 82.6024C13.3959 84.8302 16.6916 86.4382 20.21 87.3244C29.897 89.9906 40.0756 90.3387 49.922 88.3404C52.094 87.9284 54.216 87.2544 56.362 86.7024L56.334 86.4744C55.6526 86.6264 54.942 86.5815 54.2851 86.3449C53.6282 86.1084 53.0521 85.6899 52.624 85.1384C51.388 83.8364 50.08 82.6044 48.824 81.3184C48.2088 80.7735 47.8215 80.0169 47.7392 79.1992C47.657 78.3816 47.8857 77.5629 48.38 76.9064C49.042 75.8624 49.738 74.8404 50.41 73.8044C50.558 73.5744 50.674 73.3244 50.81 73.0784C50.65 72.9984 50.598 72.9484 50.55 72.9524C50.316 72.9724 50.082 72.9984 49.85 73.0404C40.8313 74.7612 31.5564 74.6251 22.592 72.6404C16.9872 71.6687 11.7519 69.1917 7.44602 65.4744M7.44602 47.4744V48.3024C7.44602 51.5424 7.54402 54.7864 7.41602 58.0204C7.36282 59.2002 7.5946 60.3754 8.09173 61.4466C8.58886 62.5178 9.33672 63.4534 10.272 64.1744C12.57 66.0731 15.2102 67.5144 18.05 68.4204C25.9942 71.0099 34.386 71.9378 42.704 71.1464C43.304 71.1024 43.904 71.0284 44.758 70.9464C44.1947 70.4665 43.7656 69.8485 43.5129 69.1529C43.2601 68.4573 43.1923 67.7081 43.316 66.9784C43.356 65.3584 43.316 63.7384 43.328 62.1184C43.2985 61.2994 43.5718 60.4983 44.0957 59.8681C44.6196 59.2379 45.3574 58.8229 46.168 58.7024C47.32 58.4678 48.472 58.2304 49.624 57.9904C50.588 57.7904 50.866 57.0984 50.322 56.2504C50.1496 56.0125 49.99 55.7654 49.844 55.5104C49.7602 55.3081 49.6027 55.145 49.4035 55.0541C49.2042 54.9631 48.9778 54.9511 48.77 55.0204C41.3564 56.2972 33.7832 56.3452 26.354 55.1624C21.2361 54.5036 16.2854 52.899 11.754 50.4304C10.272 49.5724 8.91802 48.4924 7.45002 47.4744M61.98 84.0304L61.89 83.6304C61.568 83.6304 61.17 83.5064 60.938 83.6504C59.634 84.4504 58.368 85.3184 57.09 86.1644L57.2 86.3644L61.98 84.0244M4.62402 21.5884C6.02402 16.2084 10.266 13.7264 14.872 11.6944C19.7395 9.65964 24.9016 8.4179 30.162 8.01642C37.0846 7.29954 44.0761 7.64554 50.894 9.04242C55.4506 9.85485 59.813 11.52 63.752 13.9504C64.8815 14.6947 65.9346 15.5489 66.896 16.5004C67.8273 17.3844 68.5614 18.4551 69.0501 19.6424C69.5388 20.8298 69.7712 22.107 69.732 23.3904C69.664 28.2784 69.714 33.1664 69.714 38.0544V39.2304C70.55 39.2304 71.302 39.2304 72.054 39.2304C72.9178 39.1593 73.7753 39.427 74.4453 39.9768C75.1153 40.5266 75.5452 41.3154 75.644 42.1764C75.874 43.2704 76.084 44.3764 76.328 45.4584C76.3629 45.6475 76.445 45.8248 76.5667 45.9736C76.6885 46.1224 76.8459 46.2381 77.0243 46.3097C77.2028 46.3814 77.3964 46.4067 77.5873 46.3834C77.7782 46.3601 77.9601 46.2889 78.116 46.1764C79.078 45.5504 80.026 44.9044 80.992 44.2844C81.6613 43.7821 82.496 43.5517 83.3282 43.6396C84.1604 43.7276 84.9285 44.1273 85.478 44.7584C86.842 46.1011 88.1954 47.4544 89.538 48.8184C90.1874 49.3715 90.5978 50.1543 90.6836 51.0029C90.7693 51.8516 90.5237 52.7006 89.998 53.3724C89.398 54.3144 88.77 55.2424 88.16 56.1724C87.55 57.1024 87.806 57.7724 88.888 58.0024C90.012 58.2324 91.136 58.4544 92.256 58.7024C93.0837 58.8206 93.8363 59.2466 94.3635 59.8954C94.8907 60.5443 95.1537 61.3681 95.1 62.2024C95.112 64.1464 95.112 66.0898 95.1 68.0324C95.1466 68.8361 94.8957 69.6288 94.3951 70.2592C93.8945 70.8896 93.1793 71.3137 92.386 71.4504C91.098 71.7524 89.798 71.9964 88.506 72.2824C87.67 72.4664 87.468 72.9584 87.932 73.6824C88.602 74.7204 89.298 75.7424 89.966 76.7804C90.5115 77.4564 90.7701 78.3193 90.6863 79.1839C90.6025 80.0485 90.1831 80.8457 89.518 81.4044C88.198 82.7484 86.8647 84.0818 85.518 85.4044C84.9601 86.0699 84.1639 86.4907 83.2998 86.5766C82.4356 86.6626 81.5721 86.407 80.894 85.8644C79.806 85.1624 78.734 84.4344 77.648 83.7324C76.954 83.2844 76.58 83.4384 76.406 84.2524C76.146 85.4524 75.908 86.6724 75.664 87.8824C75.6267 88.3413 75.4971 88.7878 75.2831 89.1954C75.0691 89.603 74.7751 89.9632 74.4187 90.2545C74.0622 90.5458 73.6506 90.7622 73.2086 90.8907C72.7665 91.0192 72.3031 91.0572 71.846 91.0024C70.138 91.0024 68.43 91.0024 66.722 91.0024C66.2441 91.0758 65.756 91.0481 65.2894 90.9212C64.8228 90.7943 64.388 90.571 64.013 90.2657C63.6379 89.9604 63.3311 89.5799 63.1122 89.1488C62.8933 88.7176 62.7672 88.2453 62.742 87.7624C62.69 87.5044 62.608 87.2544 62.578 87.1444C60.038 88.0984 57.558 89.1824 54.978 89.9684C48.5528 91.8414 41.8647 92.652 35.178 92.3684C29.0477 92.2931 22.9673 91.2537 17.16 89.2884C13.9372 88.2465 10.9395 86.6065 8.32402 84.4544C6.49596 82.9076 5.2014 80.8244 4.62402 78.5004V21.5884ZM38.384 35.0144C39.932 34.9004 42.728 34.7804 45.502 34.4664C50.402 34.0022 55.1864 32.7028 59.648 30.6244C62.0123 29.6109 64.0907 28.0311 65.7 26.0244C66.4632 25.1084 66.8824 23.9546 66.8853 22.7623C66.8883 21.57 66.4747 20.4142 65.716 19.4944C65.3874 19.0413 65.0222 18.6159 64.624 18.2224C62.7503 16.4673 60.5537 15.0925 58.156 14.1744C53.3149 12.2346 48.1951 11.0801 42.99 10.7544C35.3243 10.0227 27.5894 10.7047 20.17 12.7664C16.5637 13.6771 13.1964 15.3553 10.298 17.6864C6.54202 20.9064 6.53802 24.5464 10.27 27.7744C12.289 29.4512 14.5847 30.7635 17.054 31.6524C23.9016 34.0562 31.129 35.1941 38.384 35.0144Z" stroke="white"/>
<path d="M69.184 77.2906C66.7736 77.2831 64.4195 76.5617 62.4187 75.2176C60.4179 73.8734 58.8601 71.9667 57.9419 69.7381C57.0237 67.5095 56.7862 65.0588 57.2594 62.6954C57.7327 60.3319 58.8954 58.1616 60.6009 56.4583C62.3064 54.755 64.4783 53.5951 66.8423 53.125C69.2064 52.6548 71.6568 52.8955 73.8842 53.8166C76.1116 54.7377 78.0163 56.298 79.3578 58.3006C80.6993 60.3031 81.4176 62.6582 81.422 65.0686C81.4275 66.6765 81.1146 68.2696 80.5014 69.756C79.8882 71.2424 78.9867 72.5927 77.849 73.7289C76.7112 74.8651 75.3598 75.7649 73.8726 76.3762C72.3854 76.9875 70.7919 77.2982 69.184 77.2906ZM69.14 74.4646C70.9981 74.4789 72.8187 73.9405 74.3703 72.918C75.9219 71.8954 77.1345 70.4348 77.8542 68.7215C78.574 67.0083 78.7683 65.1199 78.4125 63.296C78.0567 61.4721 77.1668 59.7952 75.856 58.4781C74.5451 57.161 72.8723 56.2633 71.0502 55.8989C69.228 55.5344 67.3387 55.7198 65.6221 56.4315C63.9055 57.1431 62.4391 58.3489 61.4092 59.8956C60.3794 61.4424 59.8325 63.2603 59.838 65.1186C59.8453 67.5874 60.8262 69.9538 62.5679 71.7036C64.3095 73.4535 66.6712 74.4456 69.14 74.4646Z" fill="#141414" stroke="white"/>
</g>
</g>
<defs>
<clipPath id="clip0_1120_672">
<rect width="100" height="100" fill="white"/>
</clipPath>
</defs>
</svg>
