<svg width="100" height="100" viewBox="0 0 100 100" fill="none" xmlns="http://www.w3.org/2000/svg">
<g clip-path="url(#clip0_1116_326)">
<path d="M59.1242 82.1501C59.7562 84.0621 60.3442 85.8921 60.9902 87.7021C61.0542 87.8821 61.4662 88.0261 61.7202 88.0321C63.0402 88.0641 64.3602 88.0321 65.6802 88.0521C65.9113 88.0204 66.1465 88.0425 66.3676 88.1168C66.5887 88.191 66.7896 88.3155 66.9546 88.4803C67.1196 88.6451 67.2442 88.8458 67.3187 89.0668C67.3933 89.2878 67.4157 89.523 67.3842 89.7541C67.3942 90.1841 67.3842 90.6141 67.3842 91.0441C67.3842 91.4741 67.3842 91.9001 67.3842 92.4721H81.4682C81.7746 92.4505 82.0824 92.4626 82.3862 92.5081C82.7203 92.5693 83.0226 92.7451 83.2411 93.0052C83.4595 93.2653 83.5805 93.5934 83.5831 93.933C83.5857 94.2727 83.4698 94.6026 83.2553 94.866C83.0409 95.1294 82.7413 95.3098 82.4082 95.3761C82.0776 95.4281 81.742 95.4422 81.4082 95.4181H18.0182C16.5042 95.4181 15.8182 94.9601 15.8002 93.9581C15.7822 92.9561 16.4942 92.4701 17.9902 92.4701H32.0082C32.0082 91.5981 32.0082 90.7801 32.0082 89.9641C32.0082 88.5301 32.5022 88.0521 33.9602 88.0481C35.1602 88.0481 36.3602 88.0281 37.5602 88.0481C38.0822 88.0601 38.3842 87.9561 38.5602 87.3841C39.0822 85.6581 39.6822 83.9561 40.2862 82.1421H10.4262C9.56419 82.2169 8.69625 82.1024 7.88314 81.8066C7.07002 81.5108 6.33137 81.0409 5.71888 80.4297C5.10639 79.8185 4.63486 79.0809 4.33729 78.2684C4.03973 77.456 3.92332 76.5883 3.9962 75.7261C3.9962 61.3261 3.9962 46.9221 3.9962 32.5141C3.92635 31.6593 4.04299 30.7996 4.33805 29.9943C4.63312 29.1891 5.09956 28.4575 5.70514 27.8502C6.31071 27.2429 7.04096 26.7744 7.84539 26.4771C8.64982 26.1797 9.50924 26.0607 10.3642 26.1281C13.3122 26.1281 16.2602 26.1281 19.2082 26.1281H20.2082V24.7001C20.2082 21.8441 20.2082 18.9881 20.2082 16.1321C20.2082 14.8641 20.7342 14.3441 22.0082 14.3321C23.7589 14.3214 25.5095 14.3214 27.2602 14.3321C28.5262 14.3321 29.0602 14.8601 29.0602 16.1321C29.0602 19.1101 29.0602 22.0901 29.0602 25.0701V26.0841H30.5342V25.0941C30.5342 18.7674 30.5342 12.4408 30.5342 6.11411C30.5342 4.43011 30.9622 4.00811 32.6642 4.00811C34.2922 4.00811 35.9202 4.00811 37.5462 4.00811C38.8622 4.00811 39.3742 4.53011 39.3762 5.86011C39.3762 12.2481 39.3762 18.6361 39.3762 25.0241V26.0841H40.8502V25.1401C40.8502 20.7174 40.8502 16.2948 40.8502 11.8721C40.8502 10.4121 41.3322 9.92211 42.7622 9.91811C44.4209 9.91811 46.0789 9.91811 47.7362 9.91811C49.2222 9.91811 49.6902 10.4021 49.6922 11.9181C49.6922 16.2794 49.6922 20.6408 49.6922 25.0021V26.0661H67.7162C66.4681 24.625 65.5426 22.9335 65.0021 21.1053C64.4616 19.277 64.3184 17.3543 64.5822 15.4661C64.8135 13.5675 65.4659 11.7445 66.4919 10.1303C67.5178 8.51616 68.8914 7.15152 70.5122 6.13611C73.0844 4.46351 76.1581 3.73724 79.2069 4.08167C82.2558 4.4261 85.09 5.81981 87.2242 8.02411C89.5406 10.4432 90.8699 13.6402 90.9517 16.9885C91.0334 20.3367 89.8617 23.5948 87.6662 26.1241C88.3342 26.1241 88.8962 26.1241 89.4662 26.1241C90.2445 26.1151 91.0168 26.2612 91.738 26.5539C92.4592 26.8466 93.1149 27.28 93.6667 27.8289C94.2186 28.3777 94.6556 29.0311 94.9522 29.7507C95.2488 30.4703 95.399 31.2418 95.3942 32.0201C95.4142 46.7628 95.4142 61.5048 95.3942 76.2461C95.4013 77.0329 95.2495 77.813 94.9479 78.5397C94.6463 79.2664 94.2011 79.9247 93.6389 80.4752C93.0768 81.0258 92.4094 81.4572 91.6766 81.7436C90.9438 82.03 90.1607 82.1656 89.3742 82.1421C79.7009 82.1568 70.0275 82.1568 60.3542 82.1421L59.1242 82.1501ZM92.4142 70.3121C92.4282 70.0981 92.4462 69.9481 92.4462 69.8001C92.4462 57.2388 92.4462 44.6774 92.4462 32.1161C92.462 31.707 92.392 31.2991 92.2406 30.9187C92.0892 30.5383 91.8598 30.1938 91.5673 29.9074C91.2747 29.6211 90.9253 29.3991 90.5418 29.2559C90.1582 29.1128 89.7489 29.0515 89.3402 29.0761C87.7402 29.0621 86.1402 29.0501 84.5402 29.0881C84.0588 29.1022 83.5841 29.2053 83.1402 29.3921C81.4379 30.1499 79.5961 30.5434 77.7327 30.5476C75.8694 30.5517 74.0258 30.1663 72.3202 29.4161C71.8485 29.2122 71.342 29.1008 70.8282 29.0881C64.1029 29.0668 57.3775 29.0628 50.6522 29.0761C50.3562 29.0761 50.0522 29.1021 49.7602 29.1161V40.8261H51.1702C51.1702 40.4881 51.1702 40.1881 51.1702 39.8881C51.1702 37.4001 51.1702 34.9121 51.1702 32.4261C51.1702 31.0501 51.6762 30.5561 53.0682 30.5521C54.7575 30.5521 56.4462 30.5521 58.1342 30.5521C59.5082 30.5521 60.0082 31.0601 60.0102 32.4521C60.0102 35.5188 60.0102 38.5901 60.0102 41.6661C60.0102 43.4101 59.5942 43.8201 57.8302 43.8201H12.0522C11.8682 43.8201 11.6842 43.8201 11.5002 43.8201C11.2834 43.8392 11.065 43.8102 10.8607 43.7351C10.6564 43.66 10.4712 43.5407 10.3184 43.3857C10.1655 43.2308 10.0488 43.044 9.9765 42.8387C9.90421 42.6334 9.87816 42.4146 9.9002 42.1981C9.8842 38.8501 9.8842 35.5028 9.9002 32.1561C9.87681 31.9391 9.9026 31.7195 9.97565 31.5138C10.0487 31.3081 10.1671 31.1214 10.3222 30.9677C10.4772 30.814 10.6649 30.6972 10.8712 30.626C11.0776 30.5547 11.2974 30.5308 11.5142 30.5561C13.3562 30.5361 15.2002 30.5381 17.0422 30.5561C17.2736 30.5236 17.5094 30.5455 17.7308 30.6202C17.9522 30.695 18.153 30.8204 18.3174 30.9865C18.4817 31.1526 18.605 31.3547 18.6774 31.5769C18.7497 31.7991 18.7692 32.0351 18.7342 32.2661C18.7482 34.2661 18.7342 36.2661 18.7342 38.2541C18.7342 39.1048 18.7342 39.9554 18.7342 40.8061H20.1342V29.0841H10.4842C8.0462 29.0841 6.9482 30.1841 6.9482 32.6241C6.9482 44.8468 6.9482 57.0701 6.9482 69.2941V70.3221L92.4142 70.3121ZM6.9482 73.3481V75.5041C6.9482 78.1461 7.99221 79.2001 10.6042 79.2001H88.8042C89.1102 79.2001 89.4202 79.2121 89.7242 79.1861C90.3899 79.1416 91.0198 78.8681 91.5068 78.4121C91.9939 77.956 92.3081 77.3455 92.3962 76.6841C92.4982 75.5981 92.4162 74.4841 92.4162 73.3541L6.9482 73.3481ZM33.5482 40.7961H36.3882V7.00411H33.5482V40.7961ZM76.2322 7.04611C74.4401 7.30337 72.7483 8.03125 71.3292 9.15555C69.9101 10.2798 68.8145 11.7604 68.1542 13.4461C67.4702 15.084 67.2303 16.8733 67.4585 18.6336C67.6868 20.3938 68.3751 22.0628 69.4542 23.4721C71.6922 21.2221 73.8542 19.0561 76.0022 16.8721C76.1405 16.7154 76.2191 16.515 76.2242 16.3061C76.2382 13.2721 76.2242 10.2381 76.2242 7.03411M87.9222 18.7441H86.9962C84.3582 18.7441 81.7202 18.7161 79.0822 18.7701C78.587 18.8036 78.118 19.0046 77.7522 19.3401C76.2162 20.7961 74.7522 22.3181 73.2442 23.8101C72.6902 24.3621 72.1202 24.9001 71.5522 25.4501C72.9869 26.5763 74.702 27.2892 76.5123 27.512C78.3225 27.7347 80.1593 27.4589 81.8242 26.7141C83.4378 26.0192 84.8459 24.9216 85.9137 23.5264C86.9814 22.1312 87.673 20.4832 87.9222 18.7441ZM57.9522 88.0181C57.3282 86.1341 56.7362 84.3021 56.0962 82.4881C56.0362 82.3201 55.6722 82.1661 55.4502 82.1641C51.6129 82.1441 47.7749 82.1441 43.9362 82.1641C43.8112 82.1664 43.6883 82.1976 43.5773 82.2552C43.4663 82.3128 43.3701 82.3952 43.2962 82.4961C42.6582 84.3081 42.0662 86.1361 41.4442 88.0161L57.9522 88.0181ZM46.6882 12.9301H43.8482V40.8261H46.6882V12.9301ZM23.2342 40.8201H26.0562V17.3141H23.2342V40.8201ZM79.2522 7.18811V15.7461H87.8302C87.5782 11.6281 83.0682 7.15611 79.2522 7.18811ZM64.3962 91.0561H34.9962V92.4221H64.3962V91.0561ZM12.9082 40.7941H15.7422V33.5401H12.9082V40.7941ZM57.0282 33.5461H54.1762V40.8041H57.0302L57.0282 33.5461ZM30.4722 29.1161H29.1082V40.8301H30.4722V29.1161ZM40.8062 29.1321H39.4422V40.8321H40.7962L40.8062 29.1321Z" fill="black"/>
<path d="M76.2322 7.04611C74.4401 7.30337 72.7483 8.03125 71.3292 9.15555C69.9101 10.2798 68.8145 11.7604 68.1542 13.4461C67.4702 15.084 67.2303 16.8733 67.4585 18.6336C67.6868 20.3938 68.3751 22.0628 69.4542 23.4721C71.6922 21.2221 73.8542 19.0561 76.0022 16.8721C76.1405 16.7154 76.2191 16.515 76.2242 16.3061C76.2382 13.2721 76.2242 10.2381 76.2242 7.03411M59.1242 82.1501C59.7562 84.0621 60.3442 85.8921 60.9902 87.7021C61.0542 87.8821 61.4662 88.0261 61.7202 88.0321C63.0402 88.0641 64.3602 88.0321 65.6802 88.0521C65.9113 88.0204 66.1465 88.0425 66.3676 88.1168C66.5887 88.191 66.7896 88.3155 66.9546 88.4803C67.1196 88.6451 67.2442 88.8458 67.3187 89.0668C67.3933 89.2878 67.4157 89.523 67.3842 89.7541C67.3942 90.1841 67.3842 90.6141 67.3842 91.0441C67.3842 91.4741 67.3842 91.9001 67.3842 92.4721H81.4682C81.7746 92.4505 82.0824 92.4626 82.3862 92.5081C82.7203 92.5693 83.0226 92.7451 83.2411 93.0052C83.4595 93.2653 83.5805 93.5934 83.5831 93.933C83.5857 94.2727 83.4698 94.6026 83.2553 94.866C83.0409 95.1294 82.7413 95.3098 82.4082 95.3761C82.0776 95.4281 81.742 95.4422 81.4082 95.4181H18.0182C16.5042 95.4181 15.8182 94.9601 15.8002 93.9581C15.7822 92.9561 16.4942 92.4701 17.9902 92.4701H32.0082C32.0082 91.5981 32.0082 90.7801 32.0082 89.9641C32.0082 88.5301 32.5022 88.0521 33.9602 88.0481C35.1602 88.0481 36.3602 88.0281 37.5602 88.0481C38.0822 88.0601 38.3842 87.9561 38.5602 87.3841C39.0822 85.6581 39.6822 83.9561 40.2862 82.1421H10.4262C9.56419 82.2169 8.69625 82.1024 7.88314 81.8066C7.07002 81.5108 6.33137 81.0409 5.71888 80.4297C5.10639 79.8185 4.63486 79.0809 4.33729 78.2684C4.03973 77.456 3.92332 76.5883 3.9962 75.7261C3.9962 61.3261 3.9962 46.9221 3.9962 32.5141C3.92635 31.6593 4.04299 30.7996 4.33805 29.9943C4.63312 29.1891 5.09956 28.4575 5.70514 27.8502C6.31071 27.2429 7.04096 26.7744 7.84539 26.4771C8.64982 26.1797 9.50924 26.0607 10.3642 26.1281C13.3122 26.1281 16.2602 26.1281 19.2082 26.1281H20.2082V24.7001C20.2082 21.8441 20.2082 18.9881 20.2082 16.1321C20.2082 14.8641 20.7342 14.3441 22.0082 14.3321C23.7589 14.3214 25.5095 14.3214 27.2602 14.3321C28.5262 14.3321 29.0602 14.8601 29.0602 16.1321C29.0602 19.1101 29.0602 22.0901 29.0602 25.0701V26.0841H30.5342V25.0941C30.5342 18.7674 30.5342 12.4408 30.5342 6.11411C30.5342 4.43011 30.9622 4.00811 32.6642 4.00811C34.2922 4.00811 35.9202 4.00811 37.5462 4.00811C38.8622 4.00811 39.3742 4.53011 39.3762 5.86011C39.3762 12.2481 39.3762 18.6361 39.3762 25.0241V26.0841H40.8502V25.1401C40.8502 20.7174 40.8502 16.2948 40.8502 11.8721C40.8502 10.4121 41.3322 9.92211 42.7622 9.91811C44.4209 9.91811 46.0789 9.91811 47.7362 9.91811C49.2222 9.91811 49.6902 10.4021 49.6922 11.9181C49.6922 16.2794 49.6922 20.6408 49.6922 25.0021V26.0661H67.7162C66.4681 24.625 65.5426 22.9335 65.0021 21.1053C64.4616 19.277 64.3184 17.3543 64.5822 15.4661C64.8135 13.5675 65.4659 11.7445 66.4919 10.1303C67.5178 8.51616 68.8914 7.15152 70.5122 6.13611C73.0844 4.46351 76.1581 3.73724 79.2069 4.08167C82.2558 4.4261 85.09 5.81981 87.2242 8.02411C89.5406 10.4432 90.8699 13.6402 90.9517 16.9885C91.0334 20.3367 89.8617 23.5948 87.6662 26.1241C88.3342 26.1241 88.8962 26.1241 89.4662 26.1241C90.2445 26.1151 91.0168 26.2612 91.738 26.5539C92.4592 26.8466 93.1149 27.28 93.6667 27.8289C94.2186 28.3777 94.6556 29.0311 94.9522 29.7507C95.2488 30.4703 95.399 31.2418 95.3942 32.0201C95.4142 46.7628 95.4142 61.5048 95.3942 76.2461C95.4013 77.0329 95.2495 77.813 94.9479 78.5397C94.6463 79.2664 94.2011 79.9247 93.6389 80.4752C93.0768 81.0258 92.4094 81.4572 91.6766 81.7436C90.9438 82.03 90.1607 82.1656 89.3742 82.1421C79.7009 82.1568 70.0275 82.1568 60.3542 82.1421L59.1242 82.1501ZM92.4142 70.3121C92.4282 70.0981 92.4462 69.9481 92.4462 69.8001C92.4462 57.2388 92.4462 44.6774 92.4462 32.1161C92.462 31.707 92.392 31.2991 92.2406 30.9187C92.0892 30.5383 91.8598 30.1938 91.5673 29.9074C91.2747 29.6211 90.9253 29.3991 90.5418 29.2559C90.1582 29.1128 89.7489 29.0515 89.3402 29.0761C87.7402 29.0621 86.1402 29.0501 84.5402 29.0881C84.0588 29.1022 83.5841 29.2053 83.1402 29.3921C81.4379 30.1499 79.5961 30.5434 77.7327 30.5476C75.8694 30.5517 74.0258 30.1663 72.3202 29.4161C71.8485 29.2122 71.342 29.1008 70.8282 29.0881C64.1029 29.0668 57.3775 29.0628 50.6522 29.0761C50.3562 29.0761 50.0522 29.1021 49.7602 29.1161V40.8261H51.1702C51.1702 40.4881 51.1702 40.1881 51.1702 39.8881C51.1702 37.4001 51.1702 34.9121 51.1702 32.4261C51.1702 31.0501 51.6762 30.5561 53.0682 30.5521C54.7575 30.5521 56.4462 30.5521 58.1342 30.5521C59.5082 30.5521 60.0082 31.0601 60.0102 32.4521C60.0102 35.5188 60.0102 38.5901 60.0102 41.6661C60.0102 43.4101 59.5942 43.8201 57.8302 43.8201H12.0522C11.8682 43.8201 11.6842 43.8201 11.5002 43.8201C11.2834 43.8392 11.065 43.8102 10.8607 43.7351C10.6564 43.66 10.4712 43.5407 10.3184 43.3857C10.1655 43.2308 10.0488 43.044 9.9765 42.8387C9.90421 42.6334 9.87816 42.4146 9.9002 42.1981C9.8842 38.8501 9.8842 35.5028 9.9002 32.1561C9.87681 31.9391 9.9026 31.7195 9.97565 31.5138C10.0487 31.3081 10.1671 31.1214 10.3222 30.9677C10.4772 30.814 10.6649 30.6972 10.8712 30.626C11.0776 30.5547 11.2974 30.5308 11.5142 30.5561C13.3562 30.5361 15.2002 30.5381 17.0422 30.5561C17.2736 30.5236 17.5094 30.5455 17.7308 30.6202C17.9522 30.695 18.153 30.8204 18.3174 30.9865C18.4817 31.1526 18.605 31.3547 18.6774 31.5769C18.7497 31.7991 18.7692 32.0351 18.7342 32.2661C18.7482 34.2661 18.7342 36.2661 18.7342 38.2541C18.7342 39.1048 18.7342 39.9554 18.7342 40.8061H20.1342V29.0841H10.4842C8.0462 29.0841 6.9482 30.1841 6.9482 32.6241C6.9482 44.8468 6.9482 57.0701 6.9482 69.2941V70.3221L92.4142 70.3121ZM6.9482 73.3481V75.5041C6.9482 78.1461 7.99221 79.2001 10.6042 79.2001H88.8042C89.1102 79.2001 89.4202 79.2121 89.7242 79.1861C90.3899 79.1416 91.0198 78.8681 91.5068 78.4121C91.9939 77.956 92.3081 77.3455 92.3962 76.6841C92.4982 75.5981 92.4162 74.4841 92.4162 73.3541L6.9482 73.3481ZM33.5482 40.7961H36.3882V7.00411H33.5482V40.7961ZM87.9222 18.7441H86.9962C84.3582 18.7441 81.7202 18.7161 79.0822 18.7701C78.587 18.8036 78.118 19.0046 77.7522 19.3401C76.2162 20.7961 74.7522 22.3181 73.2442 23.8101C72.6902 24.3621 72.1202 24.9001 71.5522 25.4501C72.9869 26.5763 74.702 27.2892 76.5123 27.512C78.3225 27.7347 80.1593 27.4589 81.8242 26.7141C83.4378 26.0192 84.8459 24.9216 85.9137 23.5264C86.9814 22.1312 87.673 20.4832 87.9222 18.7441ZM57.9522 88.0181C57.3282 86.1341 56.7362 84.3021 56.0962 82.4881C56.0362 82.3201 55.6722 82.1661 55.4502 82.1641C51.6129 82.1441 47.7749 82.1441 43.9362 82.1641C43.8112 82.1664 43.6883 82.1976 43.5773 82.2552C43.4663 82.3128 43.3701 82.3952 43.2962 82.4961C42.6582 84.3081 42.0662 86.1361 41.4442 88.0161L57.9522 88.0181ZM46.6882 12.9301H43.8482V40.8261H46.6882V12.9301ZM23.2342 40.8201H26.0562V17.3141H23.2342V40.8201ZM79.2522 7.18811V15.7461H87.8302C87.5782 11.6281 83.0682 7.15611 79.2522 7.18811ZM64.3962 91.0561H34.9962V92.4221H64.3962V91.0561ZM12.9082 40.7941H15.7422V33.5401H12.9082V40.7941ZM57.0282 33.5461H54.1762V40.8041H57.0302L57.0282 33.5461ZM30.4722 29.1161H29.1082V40.8301H30.4722V29.1161ZM40.8062 29.1321H39.4422V40.8321H40.7962L40.8062 29.1321Z" stroke="white"/>
<path d="M33.9224 62.402C34.2979 61.7223 34.8405 61.1496 35.4989 60.7379C36.1573 60.3262 36.9097 60.0891 37.6852 60.0491C38.4607 60.0091 39.2336 60.1674 39.9309 60.5091C40.6282 60.8508 41.2269 61.3646 41.6704 62.002L46.1324 58.66C49.5704 56.082 53.0144 53.516 56.4324 50.91C56.8228 50.5926 57.124 50.179 57.3064 49.71C57.6121 48.8653 58.1663 48.1329 58.8961 47.6091C59.626 47.0853 60.4972 46.7947 61.3953 46.7754C62.2935 46.7562 63.1764 47.0092 63.928 47.5012C64.6796 47.9932 65.2647 48.7012 65.6064 49.532C65.8379 50.0405 66.2116 50.4711 66.6824 50.772C71.4824 53.616 76.3124 56.414 81.1924 59.26C81.3924 59.024 81.5924 58.802 81.7924 58.582C82.4263 57.8642 83.2779 57.3737 84.2169 57.1856C85.156 56.9974 86.1308 57.1219 86.9924 57.54C87.858 57.9566 88.5643 58.644 89.0042 59.498C89.4441 60.352 89.5937 61.3262 89.4302 62.2728C89.2667 63.2195 88.7992 64.0871 88.0983 64.7441C87.3975 65.4012 86.5016 65.8119 85.5464 65.914C84.5917 66.0027 83.6336 65.7856 82.8103 65.2942C81.9871 64.8028 81.3414 64.0624 80.9664 63.18C80.7342 62.6719 80.3597 62.2419 79.8884 61.942C75.0884 59.098 70.2584 56.3 65.3624 53.444C64.9564 54.0767 64.4052 54.6033 63.7547 54.98C63.1042 55.3568 62.3732 55.5728 61.6224 55.61C60.8702 55.6263 60.1258 55.4555 59.4559 55.1131C58.7861 54.7706 58.2117 54.2672 57.7844 53.648C57.4504 53.884 57.1304 54.096 56.8224 54.328C52.2224 57.77 47.6324 61.204 43.0624 64.676C42.6216 65.0297 42.2775 65.4894 42.0624 66.012C41.7402 66.8308 41.1871 67.5384 40.4702 68.0487C39.7533 68.5589 38.9036 68.8498 38.0244 68.886C37.1432 68.9183 36.2733 68.6801 35.5315 68.2035C34.7896 67.727 34.2114 67.0348 33.8744 66.22C33.781 65.9683 33.6325 65.7407 33.4397 65.5538C33.247 65.3669 33.0148 65.2256 32.7604 65.14C27.9464 63.152 23.1424 61.14 18.6244 59.254C17.7018 60.0334 16.6956 60.7082 15.6244 61.266C15.0856 61.4515 14.5154 61.5284 13.9467 61.4923C13.378 61.4562 12.8221 61.3078 12.3111 61.0556C11.8001 60.8035 11.3441 60.4526 10.9694 60.0232C10.5948 59.5938 10.3089 59.0945 10.1284 58.554C9.75657 57.4837 9.80941 56.3116 10.276 55.2791C10.7426 54.2466 11.5874 53.4323 12.6364 53.004C13.6964 52.5602 14.8889 52.5531 15.9542 52.9843C17.0195 53.4154 17.8713 54.2499 18.3244 55.306C18.4263 55.5696 18.5846 55.8078 18.788 56.004C18.9915 56.2002 19.2352 56.3497 19.5024 56.442C24.0644 58.32 28.6164 60.228 33.1704 62.124C33.4184 62.228 33.6724 62.324 33.9124 62.41M61.4664 49.726C61.1751 49.7289 60.8912 49.8184 60.6509 49.9831C60.4106 50.1478 60.2247 50.3803 60.117 50.651C60.0092 50.9217 59.9844 51.2183 60.0458 51.5031C60.1072 51.7879 60.2519 52.0481 60.4615 52.2504C60.6712 52.4527 60.9363 52.588 61.2231 52.6391C61.5099 52.6903 61.8055 52.655 62.0721 52.5376C62.3388 52.4203 62.5645 52.2262 62.7206 51.9802C62.8766 51.7341 62.9559 51.4473 62.9484 51.156C62.9344 50.7722 62.7722 50.4088 62.4958 50.1421C62.2194 49.8754 61.8504 49.7263 61.4664 49.726ZM15.7764 57.084C15.7739 56.7929 15.6849 56.509 15.5207 56.2685C15.3565 56.0281 15.1245 55.8419 14.8542 55.7336C14.5839 55.6253 14.2875 55.5999 14.0027 55.6605C13.7179 55.7212 13.4576 55.8651 13.2548 56.0741C13.0521 56.2831 12.916 56.5477 12.864 56.8342C12.812 57.1206 12.8464 57.4161 12.9628 57.683C13.0791 57.9499 13.2722 58.1762 13.5175 58.3331C13.7628 58.49 14.0493 58.5703 14.3404 58.564C14.7249 58.5516 15.0895 58.3903 15.3574 58.1142C15.6253 57.8381 15.7755 57.4687 15.7764 57.084ZM85.0784 62.984C85.3703 62.9823 85.6551 62.8938 85.8965 62.7297C86.1379 62.5655 86.3249 62.3332 86.4338 62.0624C86.5427 61.7916 86.5685 61.4944 86.5079 61.2089C86.4473 60.9233 86.3031 60.6623 86.0936 60.459C85.8841 60.2557 85.6188 60.1194 85.3315 60.0675C85.0443 60.0155 84.748 60.0503 84.4806 60.1673C84.2132 60.2844 83.9867 60.4783 83.8299 60.7246C83.6731 60.9708 83.5932 61.2582 83.6004 61.55C83.6143 61.9335 83.7758 62.2968 84.0512 62.564C84.3266 62.8312 84.6946 62.9817 85.0784 62.984ZM39.3644 64.494C39.3703 64.2027 39.2895 63.9163 39.1321 63.6711C38.9747 63.4259 38.7479 63.2331 38.4806 63.1172C38.2133 63.0013 37.9176 62.9676 37.631 63.0203C37.3445 63.073 37.0801 63.2098 36.8716 63.4133C36.663 63.6167 36.5197 63.8776 36.4599 64.1628C36.4001 64.4479 36.4265 64.7444 36.5358 65.0145C36.645 65.2846 36.8322 65.5161 37.0734 65.6795C37.3146 65.8429 37.599 65.9308 37.8904 65.932C38.2742 65.9291 38.6421 65.7778 38.9168 65.5097C39.1916 65.2417 39.352 64.8777 39.3644 64.494Z" fill="black"/>
<path d="M33.9224 62.402C34.2979 61.7223 34.8405 61.1496 35.4989 60.7379C36.1573 60.3262 36.9097 60.0891 37.6852 60.0491C38.4607 60.0091 39.2336 60.1674 39.9309 60.5091C40.6282 60.8508 41.2269 61.3646 41.6704 62.002L46.1324 58.66C49.5704 56.082 53.0144 53.516 56.4324 50.91C56.8228 50.5926 57.124 50.179 57.3064 49.71C57.6121 48.8653 58.1663 48.1329 58.8961 47.6091C59.626 47.0853 60.4972 46.7947 61.3953 46.7754C62.2935 46.7562 63.1764 47.0092 63.928 47.5012C64.6796 47.9932 65.2647 48.7012 65.6064 49.532C65.8379 50.0405 66.2116 50.4711 66.6824 50.772C71.4824 53.616 76.3124 56.414 81.1924 59.26C81.3924 59.024 81.5924 58.802 81.7924 58.582C82.4263 57.8642 83.2779 57.3737 84.2169 57.1856C85.156 56.9974 86.1308 57.1219 86.9924 57.54C87.858 57.9566 88.5643 58.644 89.0042 59.498C89.4441 60.352 89.5937 61.3262 89.4302 62.2728C89.2667 63.2195 88.7992 64.0871 88.0983 64.7441C87.3975 65.4012 86.5016 65.8119 85.5464 65.914C84.5917 66.0027 83.6336 65.7856 82.8103 65.2942C81.9871 64.8028 81.3414 64.0624 80.9664 63.18C80.7342 62.6719 80.3597 62.2419 79.8884 61.942C75.0884 59.098 70.2584 56.3 65.3624 53.444C64.9564 54.0767 64.4052 54.6033 63.7547 54.98C63.1042 55.3568 62.3732 55.5728 61.6224 55.61C60.8702 55.6263 60.1258 55.4555 59.4559 55.1131C58.7861 54.7706 58.2117 54.2672 57.7844 53.648C57.4504 53.884 57.1304 54.096 56.8224 54.328C52.2224 57.77 47.6324 61.204 43.0624 64.676C42.6216 65.0297 42.2775 65.4894 42.0624 66.012C41.7402 66.8308 41.1871 67.5384 40.4702 68.0487C39.7533 68.5589 38.9036 68.8498 38.0244 68.886C37.1432 68.9183 36.2733 68.6801 35.5315 68.2035C34.7896 67.727 34.2114 67.0348 33.8744 66.22C33.781 65.9683 33.6325 65.7407 33.4397 65.5538C33.247 65.3669 33.0148 65.2256 32.7604 65.14C27.9464 63.152 23.1424 61.14 18.6244 59.254C17.7018 60.0334 16.6956 60.7082 15.6244 61.266C15.0856 61.4515 14.5154 61.5284 13.9467 61.4923C13.378 61.4562 12.8221 61.3078 12.3111 61.0556C11.8001 60.8035 11.3441 60.4526 10.9694 60.0232C10.5948 59.5938 10.3089 59.0945 10.1284 58.554C9.75657 57.4837 9.80941 56.3116 10.276 55.2791C10.7426 54.2466 11.5874 53.4323 12.6364 53.004C13.6964 52.5602 14.8889 52.5531 15.9542 52.9843C17.0195 53.4154 17.8713 54.2499 18.3244 55.306C18.4263 55.5696 18.5846 55.8078 18.788 56.004C18.9915 56.2002 19.2352 56.3497 19.5024 56.442C24.0644 58.32 28.6164 60.228 33.1704 62.124C33.4184 62.228 33.6724 62.324 33.9124 62.41M61.4664 49.726C61.1751 49.7289 60.8912 49.8184 60.6509 49.9831C60.4106 50.1478 60.2247 50.3803 60.117 50.651C60.0092 50.9217 59.9844 51.2183 60.0458 51.5031C60.1072 51.7879 60.2519 52.0481 60.4615 52.2504C60.6712 52.4527 60.9363 52.588 61.2231 52.6391C61.5099 52.6903 61.8055 52.655 62.0721 52.5376C62.3388 52.4203 62.5645 52.2262 62.7206 51.9802C62.8766 51.7341 62.9559 51.4473 62.9484 51.156C62.9344 50.7722 62.7722 50.4088 62.4958 50.1421C62.2194 49.8754 61.8504 49.7263 61.4664 49.726ZM15.7764 57.084C15.7739 56.7929 15.6849 56.509 15.5207 56.2685C15.3565 56.0281 15.1245 55.8419 14.8542 55.7336C14.5839 55.6253 14.2875 55.5999 14.0027 55.6605C13.7179 55.7212 13.4576 55.8651 13.2548 56.0741C13.0521 56.2831 12.916 56.5477 12.864 56.8342C12.812 57.1206 12.8464 57.4161 12.9628 57.683C13.0791 57.9499 13.2722 58.1762 13.5175 58.3331C13.7628 58.49 14.0493 58.5703 14.3404 58.564C14.7249 58.5516 15.0895 58.3903 15.3574 58.1142C15.6253 57.8381 15.7755 57.4687 15.7764 57.084ZM85.0784 62.984C85.3703 62.9823 85.6551 62.8938 85.8965 62.7297C86.1379 62.5655 86.3249 62.3332 86.4338 62.0624C86.5427 61.7916 86.5685 61.4944 86.5079 61.2089C86.4473 60.9233 86.3031 60.6623 86.0936 60.459C85.8841 60.2557 85.6188 60.1194 85.3315 60.0675C85.0443 60.0155 84.748 60.0503 84.4806 60.1673C84.2132 60.2844 83.9867 60.4783 83.8299 60.7246C83.6731 60.9708 83.5932 61.2582 83.6004 61.55C83.6143 61.9335 83.7758 62.2968 84.0512 62.564C84.3266 62.8312 84.6946 62.9817 85.0784 62.984ZM39.3644 64.494C39.3703 64.2027 39.2895 63.9163 39.1321 63.6711C38.9747 63.4259 38.7479 63.2331 38.4806 63.1172C38.2133 63.0013 37.9176 62.9676 37.631 63.0203C37.3445 63.073 37.0801 63.2098 36.8716 63.4133C36.663 63.6167 36.5197 63.8776 36.4599 64.1628C36.4001 64.4479 36.4265 64.7444 36.5358 65.0145C36.645 65.2846 36.8322 65.5161 37.0734 65.6795C37.3146 65.8429 37.599 65.9308 37.8904 65.932C38.2742 65.9291 38.6421 65.7778 38.9168 65.5097C39.1916 65.2417 39.352 64.8777 39.3644 64.494Z" stroke="white"/>
<path d="M78.4302 32.0338C80.5142 32.0338 82.6002 32.0338 84.6842 32.0338C85.8542 32.0338 86.5242 32.5657 86.5422 33.4797C86.5602 34.3937 85.8642 34.9777 84.6442 34.9797C80.8742 34.9797 77.1022 34.9997 73.3322 34.9637C73.0312 34.9499 72.731 35.0042 72.4539 35.1226C72.1769 35.2411 71.9302 35.4206 71.7322 35.6477C70.2182 37.2117 68.6722 38.7437 67.1202 40.2697C66.9829 40.4566 66.8035 40.6085 66.5966 40.7133C66.3897 40.818 66.1611 40.8725 65.9292 40.8725C65.6973 40.8725 65.4687 40.818 65.2618 40.7133C65.0549 40.6085 64.8755 40.4566 64.7382 40.2697C64.5066 39.9936 64.392 39.6379 64.4189 39.2785C64.4458 38.919 64.6121 38.5843 64.8822 38.3457C66.8182 36.3797 68.7562 34.4138 70.7482 32.5058C71.1568 32.1963 71.6578 32.0335 72.1702 32.0437C74.2542 31.9957 76.3382 32.0237 78.4242 32.0237" fill="black"/>
<path d="M78.4302 32.0338C80.5142 32.0338 82.6002 32.0338 84.6842 32.0338C85.8542 32.0338 86.5242 32.5657 86.5422 33.4797C86.5602 34.3937 85.8642 34.9777 84.6442 34.9797C80.8742 34.9797 77.1022 34.9997 73.3322 34.9637C73.0312 34.9499 72.731 35.0042 72.4539 35.1226C72.1769 35.2411 71.9302 35.4206 71.7322 35.6477C70.2182 37.2117 68.6722 38.7437 67.1202 40.2697C66.9829 40.4566 66.8035 40.6085 66.5966 40.7133C66.3897 40.818 66.1611 40.8725 65.9292 40.8725C65.6973 40.8725 65.4687 40.818 65.2618 40.7133C65.0549 40.6085 64.8755 40.4566 64.7382 40.2697C64.5066 39.9936 64.392 39.6379 64.4189 39.2785C64.4458 38.919 64.6121 38.5843 64.8822 38.3457C66.8182 36.3797 68.7562 34.4138 70.7482 32.5058C71.1568 32.1963 71.6578 32.0335 72.1702 32.0437C74.2542 31.9957 76.3382 32.0237 78.4242 32.0237" stroke="white"/>
<path d="M19.4763 48.2419C16.8963 48.2419 14.3183 48.2419 11.7383 48.2419C10.5763 48.2419 9.90234 47.6878 9.90234 46.7698C9.90234 45.8518 10.5743 45.2979 11.7363 45.2979C16.895 45.2979 22.0537 45.2979 27.2123 45.2979C28.3743 45.2979 29.0483 45.8498 29.0483 46.7698C29.0483 47.6898 28.3723 48.2418 27.2123 48.2438C24.6323 48.2438 22.0523 48.2438 19.4743 48.2438" fill="black"/>
<path d="M19.4763 48.2419C16.8963 48.2419 14.3183 48.2419 11.7383 48.2419C10.5763 48.2419 9.90234 47.6878 9.90234 46.7698C9.90234 45.8518 10.5743 45.2979 11.7363 45.2979C16.895 45.2979 22.0537 45.2979 27.2123 45.2979C28.3743 45.2979 29.0483 45.8498 29.0483 46.7698C29.0483 47.6898 28.3723 48.2418 27.2123 48.2438C24.6323 48.2438 22.0523 48.2438 19.4743 48.2438" stroke="white"/>
<path d="M68.152 65.9338C69.78 65.9338 71.406 65.9338 73.034 65.9338C74.102 65.9338 74.768 66.5338 74.748 67.4338C74.7424 67.6424 74.6932 67.8475 74.6034 68.0359C74.5136 68.2243 74.3853 68.3917 74.2268 68.5274C74.0683 68.6631 73.8831 68.7641 73.6831 68.8237C73.4832 68.8834 73.2729 68.9005 73.066 68.8738C69.7806 68.8858 66.4953 68.8858 63.21 68.8738C62.142 68.8738 61.478 68.2738 61.496 67.3718C61.5018 67.1636 61.5512 66.9589 61.641 66.7709C61.7308 66.583 61.8589 66.4159 62.0172 66.2804C62.1754 66.1449 62.3603 66.0441 62.5599 65.9844C62.7594 65.9248 62.9693 65.9075 63.176 65.9338C64.834 65.9198 66.492 65.9338 68.15 65.9338" fill="black"/>
<path d="M68.152 65.9338C69.78 65.9338 71.406 65.9338 73.034 65.9338C74.102 65.9338 74.768 66.5338 74.748 67.4338C74.7424 67.6424 74.6932 67.8475 74.6034 68.0359C74.5136 68.2243 74.3853 68.3917 74.2268 68.5274C74.0683 68.6631 73.8831 68.7641 73.6831 68.8237C73.4832 68.8834 73.2729 68.9005 73.066 68.8738C69.7806 68.8858 66.4953 68.8858 63.21 68.8738C62.142 68.8738 61.478 68.2738 61.496 67.3718C61.5018 67.1636 61.5512 66.9589 61.641 66.7709C61.7308 66.583 61.8589 66.4159 62.0172 66.2804C62.1754 66.1449 62.3603 66.0441 62.5599 65.9844C62.7594 65.9248 62.9693 65.9075 63.176 65.9338C64.834 65.9198 66.492 65.9338 68.15 65.9338" stroke="white"/>
<path d="M71.0823 61.5118C71.7883 61.5118 72.4943 61.4918 73.2003 61.5118C73.4009 61.5006 73.6017 61.5306 73.7902 61.6C73.9787 61.6693 74.151 61.7766 74.2965 61.9152C74.4419 62.0537 74.5574 62.2207 74.6358 62.4056C74.7143 62.5906 74.754 62.7896 74.7525 62.9905C74.751 63.1914 74.7083 63.3899 74.6271 63.5736C74.5459 63.7574 74.4279 63.9225 74.2804 64.0589C74.1329 64.1953 73.959 64.3 73.7695 64.3665C73.5799 64.4331 73.3787 64.4601 73.1783 64.4458C71.7663 64.4711 70.3543 64.4711 68.9423 64.4458C68.7406 64.4591 68.5383 64.4307 68.3481 64.3623C68.1579 64.2939 67.9839 64.187 67.8368 64.0483C67.6898 63.9097 67.5729 63.7421 67.4936 63.5563C67.4142 63.3704 67.374 63.1701 67.3755 62.968C67.377 62.7658 67.4202 62.5662 67.5024 62.3815C67.5845 62.1969 67.7039 62.0311 67.853 61.8946C68.0021 61.7582 68.1777 61.6539 68.3689 61.5884C68.5601 61.5229 68.7628 61.4975 68.9643 61.5138C69.6703 61.4898 70.3763 61.5118 71.0823 61.5118Z" fill="black" stroke="white"/>
<path d="M32.6721 48.2279C32.3966 48.2514 32.1196 48.2514 31.8441 48.2279C31.4814 48.1895 31.1463 48.0167 30.9046 47.7435C30.6629 47.4704 30.5323 47.1167 30.5383 46.752C30.5443 46.3874 30.6866 46.0382 30.9371 45.7731C31.1877 45.5081 31.5283 45.3464 31.8921 45.32C32.4432 45.2762 32.9969 45.2762 33.5481 45.32C33.9215 45.3328 34.2755 45.4893 34.5364 45.7569C34.7972 46.0244 34.9447 46.3823 34.9481 46.756C34.9527 47.1285 34.8153 47.4889 34.5638 47.7638C34.3123 48.0387 33.9656 48.2075 33.5941 48.236C33.2876 48.2528 32.9805 48.2528 32.6741 48.236" fill="black"/>
<path d="M32.6721 48.2279C32.3966 48.2514 32.1196 48.2514 31.8441 48.2279C31.4814 48.1895 31.1463 48.0167 30.9046 47.7435C30.6629 47.4704 30.5323 47.1167 30.5383 46.752C30.5443 46.3874 30.6866 46.0382 30.9371 45.7731C31.1877 45.5081 31.5283 45.3464 31.8921 45.32C32.4432 45.2762 32.9969 45.2762 33.5481 45.32C33.9215 45.3328 34.2755 45.4893 34.5364 45.7569C34.7972 46.0244 34.9447 46.3823 34.9481 46.756C34.9527 47.1285 34.8153 47.4889 34.5638 47.7638C34.3123 48.0387 33.9656 48.2075 33.5941 48.236C33.2876 48.2528 32.9805 48.2528 32.6741 48.236" stroke="white"/>
<path d="M15.6984 77.7283C14.3484 77.7283 12.9964 77.7283 11.6444 77.7283C10.5584 77.7283 9.90039 77.1503 9.90039 76.2563C9.90039 75.3623 10.5544 74.7883 11.6424 74.7863C14.4064 74.777 17.1697 74.777 19.9324 74.7863C21.0164 74.7863 21.6764 75.3623 21.6764 76.2563C21.6764 77.1503 21.0144 77.7203 19.9324 77.7283C18.5204 77.7403 17.1084 77.7283 15.6944 77.7283" fill="black"/>
<path d="M15.6984 77.7283C14.3484 77.7283 12.9964 77.7283 11.6444 77.7283C10.5584 77.7283 9.90039 77.1503 9.90039 76.2563C9.90039 75.3623 10.5544 74.7883 11.6424 74.7863C14.4064 74.777 17.1697 74.777 19.9324 74.7863C21.0164 74.7863 21.6764 75.3623 21.6764 76.2563C21.6764 77.1503 21.0144 77.7203 19.9324 77.7283C18.5204 77.7403 17.1084 77.7283 15.6944 77.7283" stroke="white"/>
<path d="M25.302 77.7143C25.0265 77.7378 24.7495 77.7378 24.474 77.7143C24.1113 77.6758 23.7761 77.503 23.5345 77.2299C23.2928 76.9567 23.1621 76.603 23.1682 76.2383C23.1742 75.8737 23.3165 75.5245 23.567 75.2595C23.8176 74.9944 24.1582 74.8328 24.522 74.8063C25.0731 74.7625 25.6268 74.7625 26.178 74.8063C26.5514 74.8191 26.9054 74.9757 27.1663 75.2432C27.4271 75.5108 27.5746 75.8687 27.578 76.2423C27.5826 76.6149 27.4452 76.9752 27.1937 77.2501C26.9422 77.525 26.5955 77.6939 26.224 77.7223C25.9175 77.7392 25.6104 77.7392 25.304 77.7223" fill="black"/>
<path d="M25.302 77.7143C25.0265 77.7378 24.7495 77.7378 24.474 77.7143C24.1113 77.6758 23.7761 77.503 23.5345 77.2299C23.2928 76.9567 23.1621 76.603 23.1682 76.2383C23.1742 75.8737 23.3165 75.5245 23.567 75.2595C23.8176 74.9944 24.1582 74.8328 24.522 74.8063C25.0731 74.7625 25.6268 74.7625 26.178 74.8063C26.5514 74.8191 26.9054 74.9757 27.1663 75.2432C27.4271 75.5108 27.5746 75.8687 27.578 76.2423C27.5826 76.6149 27.4452 76.9752 27.1937 77.2501C26.9422 77.525 26.5955 77.6939 26.224 77.7223C25.9175 77.7392 25.6104 77.7392 25.304 77.7223" stroke="white"/>
</g>
<defs>
<clipPath id="clip0_1116_326">
<rect width="100" height="100" fill="white"/>
</clipPath>
</defs>
</svg>
