<svg width="100" height="100" viewBox="0 0 100 100" fill="none" xmlns="http://www.w3.org/2000/svg">
<g clip-path="url(#clip0_1116_305)">
<mask id="mask0_1116_305" style="mask-type:luminance" maskUnits="userSpaceOnUse" x="2" y="2" width="96" height="96">
<path d="M98 2H2V98H98V2Z" fill="white"/>
</mask>
<g mask="url(#mask0_1116_305)">
<path d="M2.52002 78.7838V3.62785C2.76147 3.294 3.08768 3.03067 3.46494 2.86507C3.84221 2.69947 4.25684 2.6376 4.66602 2.68585C29.4114 2.70851 54.1567 2.71385 78.902 2.70185C80.6 2.70185 81.028 3.12985 81.028 4.83185C81.028 14.9492 81.022 25.0672 81.01 35.1858C80.9883 35.5611 81.0506 35.9365 81.1924 36.2846C81.3343 36.6327 81.5521 36.9447 81.83 37.1978C86.7567 41.9978 91.6627 46.8205 96.548 51.6658C97.592 52.6958 97.598 53.3838 96.584 54.4198C95.352 55.6745 94.1153 56.9245 92.874 58.1698C91.79 59.2618 91.142 59.2698 90.064 58.1958C87.3334 55.4732 84.6054 52.7472 81.88 50.0178C81.652 49.7918 81.406 49.5838 81.08 49.2878V64.9018H92.218C93.926 64.9018 94.36 65.3298 94.36 67.0178C94.36 76.4578 94.36 85.8958 94.378 95.3358C94.424 95.7448 94.361 96.1587 94.1956 96.5355C94.0302 96.9124 93.7682 97.2388 93.436 97.4818H21.222C21.012 97.3038 20.786 97.1418 20.592 96.9478C15.0334 91.3825 9.47602 85.8145 3.92002 80.2439C3.44402 79.7659 2.98402 79.2719 2.52002 78.7859M78.024 5.72985H5.55602V76.7478H21.266C22.782 76.7478 23.266 77.2218 23.266 78.7338C23.266 83.6378 23.266 88.5425 23.266 93.4478V94.4598H58.74V70.8238H57.384C56.952 70.8238 56.52 70.8238 56.088 70.8238C55.016 70.8018 54.35 70.2098 54.372 69.3098C54.392 68.4438 55.036 67.8838 56.066 67.8658C56.952 67.8498 57.84 67.8658 58.774 67.8658C58.788 67.6018 58.804 67.4239 58.806 67.2439C58.844 65.2059 59.152 64.9038 61.188 64.9038H78.014C78.038 64.6738 78.06 64.5558 78.06 64.4378C78.06 58.5458 78.074 52.6538 78.038 46.7638C77.9789 46.3221 77.7666 45.915 77.438 45.6138C71.6887 39.8458 65.9294 34.0878 60.16 28.3398C59.9012 28.0785 59.7026 27.7639 59.578 27.4178C58.88 25.3778 58.218 23.3198 57.52 21.2918C57.3531 20.9912 57.2906 20.6437 57.3424 20.3037C57.3941 19.9637 57.5572 19.6505 57.806 19.4132C58.0548 19.1758 58.3753 19.0276 58.7173 18.9919C59.0593 18.9562 59.4035 19.035 59.696 19.2158C61.65 19.9678 63.616 20.6878 65.568 21.4458C65.9108 21.583 66.2229 21.7869 66.486 22.0458C70.1167 25.6125 73.7407 29.1865 77.358 32.7678C77.544 32.9518 77.746 33.1178 78.032 33.3678L78.024 5.72985ZM82.508 67.8979C82.508 71.2979 82.508 74.5939 82.508 77.8979C82.508 79.1739 81.978 79.7078 80.708 79.7118C77.9614 79.7212 75.2153 79.7212 72.47 79.7118C71.194 79.7118 70.67 79.1838 70.654 77.9218C70.644 76.3798 70.654 74.8378 70.654 73.2938V67.9198H61.84V94.4738H91.342V67.8979H82.508ZM93.88 52.9638C93.5777 52.7795 93.2889 52.5736 93.016 52.3478C83.8094 43.2812 74.6094 34.2092 65.416 25.1318C64.1792 24.1564 62.7652 23.4297 61.252 22.9918C61.6369 24.6996 62.4388 26.2855 63.586 27.6078C72.666 36.5798 81.67 45.6298 90.698 54.6538C90.932 54.8878 91.178 55.1138 91.384 55.3118L93.872 52.9638M20.272 79.7938H8.15202L20.272 91.9198V79.7938ZM79.52 67.9378H73.672V76.6898H79.52V67.9378Z" fill="black"/>
<path d="M2.52002 78.7838V3.62785C2.76147 3.294 3.08768 3.03067 3.46494 2.86507C3.84221 2.69947 4.25684 2.6376 4.66602 2.68585C29.4114 2.70851 54.1567 2.71385 78.902 2.70185C80.6 2.70185 81.028 3.12985 81.028 4.83185C81.028 14.9492 81.022 25.0672 81.01 35.1858C80.9883 35.5611 81.0506 35.9365 81.1924 36.2846C81.3343 36.6327 81.5521 36.9447 81.83 37.1978C86.7567 41.9978 91.6627 46.8205 96.548 51.6658C97.592 52.6958 97.598 53.3838 96.584 54.4198C95.352 55.6745 94.1153 56.9245 92.874 58.1698C91.79 59.2618 91.142 59.2698 90.064 58.1958C87.3334 55.4732 84.6054 52.7472 81.88 50.0178C81.652 49.7918 81.406 49.5838 81.08 49.2878V64.9018H92.218C93.926 64.9018 94.36 65.3298 94.36 67.0178C94.36 76.4578 94.36 85.8958 94.378 95.3358C94.424 95.7448 94.361 96.1587 94.1956 96.5355C94.0302 96.9124 93.7682 97.2388 93.436 97.4818H21.222C21.012 97.3038 20.786 97.1418 20.592 96.9478C15.0334 91.3825 9.47602 85.8145 3.92002 80.2439C3.44402 79.7659 2.98402 79.2719 2.52002 78.7859M93.88 52.9638C93.5777 52.7795 93.2889 52.5736 93.016 52.3478C83.8094 43.2812 74.6094 34.2092 65.416 25.1318C64.1792 24.1564 62.7652 23.4297 61.252 22.9918C61.6369 24.6996 62.4388 26.2855 63.586 27.6078C72.666 36.5798 81.67 45.6298 90.698 54.6538C90.932 54.8878 91.178 55.1138 91.384 55.3118L93.872 52.9638M78.024 5.72985H5.55602V76.7478H21.266C22.782 76.7478 23.266 77.2218 23.266 78.7338C23.266 83.6378 23.266 88.5425 23.266 93.4478V94.4598H58.74V70.8238H57.384C56.952 70.8238 56.52 70.8238 56.088 70.8238C55.016 70.8018 54.35 70.2098 54.372 69.3098C54.392 68.4438 55.036 67.8838 56.066 67.8658C56.952 67.8498 57.84 67.8658 58.774 67.8658C58.788 67.6018 58.804 67.4239 58.806 67.2439C58.844 65.2059 59.152 64.9038 61.188 64.9038H78.014C78.038 64.6738 78.06 64.5558 78.06 64.4378C78.06 58.5458 78.074 52.6538 78.038 46.7638C77.9789 46.3221 77.7666 45.915 77.438 45.6138C71.6887 39.8458 65.9294 34.0878 60.16 28.3398C59.9012 28.0785 59.7026 27.7639 59.578 27.4178C58.88 25.3778 58.218 23.3198 57.52 21.2918C57.3531 20.9912 57.2906 20.6437 57.3424 20.3037C57.3941 19.9637 57.5572 19.6505 57.806 19.4132C58.0548 19.1758 58.3753 19.0276 58.7173 18.9919C59.0593 18.9562 59.4035 19.035 59.696 19.2158C61.65 19.9678 63.616 20.6878 65.568 21.4458C65.9108 21.583 66.2229 21.7869 66.486 22.0458C70.1167 25.6125 73.7407 29.1865 77.358 32.7678C77.544 32.9518 77.746 33.1178 78.032 33.3678L78.024 5.72985ZM82.508 67.8979C82.508 71.2979 82.508 74.5939 82.508 77.8979C82.508 79.1739 81.978 79.7078 80.708 79.7118C77.9614 79.7212 75.2153 79.7212 72.47 79.7118C71.194 79.7118 70.67 79.1838 70.654 77.9218C70.644 76.3798 70.654 74.8378 70.654 73.2938V67.9198H61.84V94.4738H91.342V67.8979H82.508ZM20.272 79.7938H8.15202L20.272 91.9198V79.7938ZM79.52 67.9378H73.672V76.6898H79.52V67.9378Z" stroke="white"/>
<path d="M38.0221 26.4921C37.6353 29.0838 36.4217 31.4813 34.5622 33.3275C32.7026 35.1737 30.2965 36.37 27.7021 36.7381C27.7021 37.6461 27.7121 38.5641 27.7021 39.4821C27.6861 40.5541 27.0881 41.2221 26.1881 41.2001C25.3221 41.1781 24.7621 40.5361 24.7461 39.5061C24.7321 38.5861 24.7461 37.6661 24.7461 36.6921C22.1368 36.3465 19.7141 35.1505 17.8529 33.2893C15.9917 31.4281 14.7958 29.0054 14.4501 26.3961C13.4941 26.3961 12.5761 26.4061 11.6501 26.3961C10.5781 26.3801 9.91208 25.7841 9.93208 24.8841C9.95208 24.0181 10.5961 23.4581 11.6241 23.4401C12.5441 23.4241 13.4641 23.4401 14.4021 23.4401C14.7635 20.8266 15.9688 18.4027 17.8346 16.5373C19.7004 14.6718 22.1245 13.467 24.7381 13.1061C24.7381 12.1941 24.7281 11.2761 24.7381 10.3581C24.7541 9.28413 25.3381 8.61813 26.2461 8.63813C27.1141 8.65813 27.6761 9.29813 27.6941 10.3281C27.7101 11.2481 27.6941 12.1681 27.6941 13.1041C30.3071 13.4657 32.7305 14.6711 34.5952 16.537C36.46 18.4028 37.664 20.8269 38.0241 23.4401C38.9401 23.4401 39.8581 23.4301 40.7761 23.4401C41.8521 23.4561 42.5181 24.0501 42.4981 24.9481C42.4781 25.8141 41.8341 26.3741 40.8081 26.3961C39.9141 26.4161 39.0201 26.4201 38.1261 26.4341C38.1001 26.4341 38.0741 26.4601 38.0121 26.4941M26.2121 33.8021C27.9692 33.8013 29.6866 33.2795 31.1471 32.3027C32.6076 31.3258 33.7457 29.9378 34.4174 28.3142C35.089 26.6906 35.2642 24.9042 34.9206 23.181C34.577 21.4579 33.7302 19.8753 32.4872 18.6334C31.2442 17.3915 29.6608 16.5461 27.9373 16.2041C26.2139 15.862 24.4277 16.0388 22.8046 16.7119C21.1816 17.3851 19.7946 18.5244 18.8191 19.9858C17.8436 21.4472 17.3233 23.165 17.3241 24.9221C17.3304 27.2767 18.2691 29.5329 19.9348 31.1971C21.6005 32.8612 23.8575 33.7979 26.2121 33.8021Z" fill="black"/>
<path d="M38.0221 26.4921C37.6353 29.0838 36.4217 31.4813 34.5622 33.3275C32.7026 35.1737 30.2965 36.37 27.7021 36.7381C27.7021 37.6461 27.7121 38.5641 27.7021 39.4821C27.6861 40.5541 27.0881 41.2221 26.1881 41.2001C25.3221 41.1781 24.7621 40.5361 24.7461 39.5061C24.7321 38.5861 24.7461 37.6661 24.7461 36.6921C22.1368 36.3465 19.7141 35.1505 17.8529 33.2893C15.9917 31.4281 14.7958 29.0054 14.4501 26.3961C13.4941 26.3961 12.5761 26.4061 11.6501 26.3961C10.5781 26.3801 9.91208 25.7841 9.93208 24.8841C9.95208 24.0181 10.5961 23.4581 11.6241 23.4401C12.5441 23.4241 13.4641 23.4401 14.4021 23.4401C14.7635 20.8266 15.9688 18.4027 17.8346 16.5373C19.7004 14.6718 22.1245 13.467 24.7381 13.1061C24.7381 12.1941 24.7281 11.2761 24.7381 10.3581C24.7541 9.28413 25.3381 8.61813 26.2461 8.63813C27.1141 8.65813 27.6761 9.29813 27.6941 10.3281C27.7101 11.2481 27.6941 12.1681 27.6941 13.1041C30.3071 13.4657 32.7305 14.6711 34.5952 16.537C36.46 18.4028 37.664 20.8269 38.0241 23.4401C38.9401 23.4401 39.8581 23.4301 40.7761 23.4401C41.8521 23.4561 42.5181 24.0501 42.4981 24.9481C42.4781 25.8141 41.8341 26.3741 40.8081 26.3961C39.9141 26.4161 39.0201 26.4201 38.1261 26.4341C38.1001 26.4341 38.0741 26.4601 38.0121 26.4941M26.2121 33.8021C27.9692 33.8013 29.6866 33.2795 31.1471 32.3027C32.6076 31.3258 33.7457 29.9378 34.4174 28.3142C35.089 26.6906 35.2642 24.9042 34.9206 23.181C34.577 21.4579 33.7302 19.8753 32.4872 18.6334C31.2442 17.3915 29.6608 16.5461 27.9373 16.2041C26.2139 15.862 24.4277 16.0388 22.8046 16.7119C21.1816 17.3851 19.7946 18.5244 18.8191 19.9858C17.8436 21.4472 17.3233 23.165 17.3241 24.9221C17.3304 27.2767 18.2691 29.5329 19.9348 31.1971C21.6005 32.8612 23.8575 33.7979 26.2121 33.8021Z" stroke="white"/>
<path d="M58.0679 53.0557H71.5839C73.1579 53.0557 73.6199 53.5197 73.6219 55.0917C73.6219 56.7877 73.6319 58.4917 73.6219 60.1817C73.6219 61.3817 73.0739 61.9357 71.8659 61.9357C62.6659 61.9357 53.4699 61.9357 44.2779 61.9357C43.0779 61.9357 42.5299 61.3917 42.5219 60.1817C42.5099 58.4237 42.5219 56.6657 42.5219 54.9057C42.5219 53.5777 43.0439 53.0577 44.3719 53.0557C48.9386 53.0557 53.5059 53.0557 58.0739 53.0557M70.6199 56.0797H45.5519V58.9337H70.6159L70.6199 56.0797Z" fill="black"/>
<path d="M58.0679 53.0557H71.5839C73.1579 53.0557 73.6199 53.5197 73.6219 55.0917C73.6219 56.7877 73.6319 58.4917 73.6219 60.1817C73.6219 61.3817 73.0739 61.9357 71.8659 61.9357C62.6659 61.9357 53.4699 61.9357 44.2779 61.9357C43.0779 61.9357 42.5299 61.3917 42.5219 60.1817C42.5099 58.4237 42.5219 56.6657 42.5219 54.9057C42.5219 53.5777 43.0439 53.0577 44.3719 53.0557C48.9386 53.0557 53.5059 53.0557 58.0739 53.0557M70.6199 56.0797H45.5519V58.9337H70.6159L70.6199 56.0797Z" stroke="white"/>
<path d="M41.6801 48.6115H12.1482C11.8401 48.6313 11.5309 48.6239 11.2242 48.5895C10.8712 48.5423 10.5474 48.3685 10.313 48.1006C10.0785 47.8326 9.94922 47.4886 9.94922 47.1325C9.94922 46.7764 10.0785 46.4325 10.313 46.1645C10.5474 45.8965 10.8712 45.7228 11.2242 45.6755C11.5002 45.6421 11.7787 45.6341 12.0562 45.6515H71.4881C71.7349 45.6427 71.9819 45.6474 72.2282 45.6655C72.6042 45.6852 72.9584 45.8484 73.2177 46.1215C73.477 46.3947 73.6215 46.7569 73.6215 47.1335C73.6215 47.5101 73.477 47.8724 73.2177 48.1455C72.9584 48.4187 72.6042 48.5819 72.2282 48.6015C71.9512 48.6198 71.6735 48.6238 71.3962 48.6135H41.6801" fill="black"/>
<path d="M41.6801 48.6115H12.1482C11.8401 48.6313 11.5309 48.6239 11.2242 48.5895C10.8712 48.5423 10.5474 48.3685 10.313 48.1006C10.0785 47.8326 9.94922 47.4886 9.94922 47.1325C9.94922 46.7764 10.0785 46.4325 10.313 46.1645C10.5474 45.8965 10.8712 45.7228 11.2242 45.6755C11.5002 45.6421 11.7787 45.6341 12.0562 45.6515H71.4881C71.7349 45.6427 71.9819 45.6474 72.2282 45.6655C72.6042 45.6852 72.9584 45.8484 73.2177 46.1215C73.477 46.3947 73.6215 46.7569 73.6215 47.1335C73.6215 47.5101 73.477 47.8724 73.2177 48.1455C72.9584 48.4187 72.6042 48.5819 72.2282 48.6015C71.9512 48.6198 71.6735 48.6238 71.3962 48.6135H41.6801" stroke="white"/>
<path d="M23.9978 53.0537C28.0405 53.0537 32.0831 53.0537 36.1258 53.0537C37.5758 53.0537 38.0658 53.5477 38.0698 54.9977C38.0698 56.7257 38.0798 58.4537 38.0698 60.1797C38.0698 61.3797 37.5218 61.9337 36.3138 61.9337C28.1058 61.9337 19.8978 61.9337 11.6898 61.9337C10.4898 61.9337 9.9418 61.3897 9.9338 60.1797C9.9218 58.3904 9.9218 56.601 9.9338 54.8117C9.9338 53.6117 10.4798 53.0597 11.6898 53.0557C15.7938 53.0557 19.8898 53.0557 24.0018 53.0557M12.9358 58.9157H35.0338V56.0637H12.9318L12.9358 58.9157Z" fill="black"/>
<path d="M23.9978 53.0537C28.0405 53.0537 32.0831 53.0537 36.1258 53.0537C37.5758 53.0537 38.0658 53.5477 38.0698 54.9977C38.0698 56.7257 38.0798 58.4537 38.0698 60.1797C38.0698 61.3797 37.5218 61.9337 36.3138 61.9337C28.1058 61.9337 19.8978 61.9337 11.6898 61.9337C10.4898 61.9337 9.9418 61.3897 9.9338 60.1797C9.9218 58.3904 9.9218 56.601 9.9338 54.8117C9.9338 53.6117 10.4798 53.0597 11.6898 53.0557C15.7938 53.0557 19.8898 53.0557 24.0018 53.0557M12.9358 58.9157H35.0338V56.0637H12.9318L12.9358 58.9157Z" stroke="white"/>
<path d="M40.2941 87.1159C38.1961 87.1159 36.094 87.1159 34 87.1159C32.672 87.1159 32.154 86.5939 32.15 85.2679C32.142 83.0466 32.142 80.8253 32.15 78.6039C32.15 77.2759 32.672 76.7559 34 76.7539C38.196 76.7539 42.392 76.7539 46.588 76.7539C47.916 76.7539 48.4361 77.2759 48.4401 78.6019C48.4481 80.8233 48.4481 83.0446 48.4401 85.2659C48.4401 86.5919 47.916 87.1119 46.59 87.1179C44.492 87.1179 42.3901 87.1179 40.2961 87.1179M35.1881 84.106H45.42V79.7459H35.1821L35.1881 84.106Z" fill="black"/>
<path d="M40.2941 87.1159C38.1961 87.1159 36.094 87.1159 34 87.1159C32.672 87.1159 32.154 86.5939 32.15 85.2679C32.142 83.0466 32.142 80.8253 32.15 78.6039C32.15 77.2759 32.672 76.7559 34 76.7539C38.196 76.7539 42.392 76.7539 46.588 76.7539C47.916 76.7539 48.4361 77.2759 48.4401 78.6019C48.4481 80.8233 48.4481 83.0446 48.4401 85.2659C48.4401 86.5919 47.916 87.1119 46.59 87.1179C44.492 87.1179 42.3901 87.1179 40.2961 87.1179M35.1881 84.106H45.42V79.7459H35.1821L35.1881 84.106Z" stroke="white"/>
<path d="M57.3261 10.1055H71.4901C71.7676 10.0883 72.0461 10.0963 72.3221 10.1295C72.675 10.1768 72.9988 10.3505 73.2333 10.6185C73.4678 10.8865 73.597 11.2304 73.597 11.5865C73.597 11.9426 73.4678 12.2866 73.2333 12.5546C72.9988 12.8225 72.675 12.9963 72.3221 13.0435C72.046 13.076 71.7675 13.0833 71.4901 13.0655H43.1621C42.8847 13.0834 42.6062 13.0761 42.3301 13.0435C41.9772 12.9963 41.6534 12.8225 41.4189 12.5546C41.1844 12.2866 41.0552 11.9426 41.0552 11.5865C41.0552 11.2304 41.1844 10.8865 41.4189 10.6185C41.6534 10.3505 41.9772 10.1768 42.3301 10.1295C42.6061 10.0964 42.8846 10.0884 43.1621 10.1055H57.3261Z" fill="black" stroke="white"/>
<path d="M51.4159 39.7256C49.0699 39.7256 46.7259 39.7256 44.3799 39.7256C43.2079 39.7256 42.5339 39.1776 42.5279 38.2556C42.5219 37.3336 43.1999 36.7696 44.3639 36.7676C49.0545 36.7676 53.7445 36.7676 58.4339 36.7676C59.6039 36.7676 60.2819 37.3176 60.2879 38.2376C60.2939 39.1576 59.6139 39.7216 58.4519 39.7236C56.1059 39.7236 53.7619 39.7256 51.4159 39.7256Z" fill="black" stroke="white"/>
<path d="M18.0498 70.8262C15.9818 70.8262 13.9151 70.8262 11.8498 70.8262C10.6118 70.8262 9.9198 70.2782 9.9338 69.3262C9.9478 68.3742 10.6138 67.8682 11.7978 67.8662C15.9951 67.8662 20.1951 67.8662 24.3978 67.8662C25.5538 67.8662 26.2378 68.4422 26.2238 69.3662C26.2098 70.2902 25.5338 70.8222 24.3578 70.8242C22.2598 70.8242 20.1578 70.8242 18.0618 70.8242" fill="black"/>
<path d="M18.0498 70.8262C15.9818 70.8262 13.9151 70.8262 11.8498 70.8262C10.6118 70.8262 9.9198 70.2782 9.9338 69.3262C9.9478 68.3742 10.6138 67.8682 11.7978 67.8662C15.9951 67.8662 20.1951 67.8662 24.3978 67.8662C25.5538 67.8662 26.2378 68.4422 26.2238 69.3662C26.2098 70.2902 25.5338 70.8222 24.3578 70.8242C22.2598 70.8242 20.1578 70.8242 18.0618 70.8242" stroke="white"/>
<path d="M40.2023 70.8262C38.1343 70.8262 36.0683 70.8262 34.0023 70.8262C32.8343 70.8262 32.1583 70.2742 32.1563 69.3502C32.1543 68.4262 32.8323 67.8702 33.9983 67.8682C38.1943 67.8682 42.3909 67.8682 46.5883 67.8682C47.7563 67.8682 48.4343 68.4241 48.4363 69.3461C48.4383 70.2681 47.7583 70.8242 46.5923 70.8262C44.4623 70.8262 42.3323 70.8262 40.2023 70.8262Z" fill="black" stroke="white"/>
<path d="M26.2418 23.4436C26.4396 23.4397 26.6361 23.4757 26.8196 23.5493C27.0032 23.623 27.1701 23.7328 27.3103 23.8722C27.4505 24.0117 27.5613 24.178 27.6359 24.3611C27.7105 24.5443 27.7475 24.7406 27.7447 24.9384C27.7419 25.1361 27.6993 25.3313 27.6195 25.5123C27.5397 25.6932 27.4242 25.8563 27.2801 25.9917C27.1359 26.1271 26.966 26.2321 26.7804 26.3005C26.5948 26.3689 26.3974 26.3992 26.1998 26.3896C25.818 26.3712 25.4583 26.2052 25.1965 25.9266C24.9348 25.648 24.7916 25.2786 24.797 24.8964C24.8025 24.5141 24.9562 24.149 25.2258 23.8779C25.4953 23.6069 25.8596 23.4512 26.2418 23.4436Z" fill="black" stroke="white"/>
</g>
</g>
<defs>
<clipPath id="clip0_1116_305">
<rect width="100" height="100" fill="white"/>
</clipPath>
</defs>
</svg>
