<svg width="48" height="48" viewBox="0 0 48 48" fill="none" xmlns="http://www.w3.org/2000/svg">
<path d="M35 3H14C12.3431 3 11 4.34315 11 6V42C11 43.6569 12.3431 45 14 45H35C36.6569 45 38 43.6569 38 42V6C38 4.34315 36.6569 3 35 3Z" stroke="#2E2E2E" stroke-width="2"/>
<path d="M27 6.5H22C21.7239 6.5 21.5 6.72386 21.5 7C21.5 7.27614 21.7239 7.5 22 7.5H27C27.2761 7.5 27.5 7.27614 27.5 7C27.5 6.72386 27.2761 6.5 27 6.5Z" stroke="#2E2E2E"/>
<path d="M33 27.5H16C15.7239 27.5 15.5 27.7239 15.5 28C15.5 28.2761 15.7239 28.5 16 28.5H33C33.2761 28.5 33.5 28.2761 33.5 28C33.5 27.7239 33.2761 27.5 33 27.5Z" stroke="#2E2E2E"/>
<path d="M27 31.5H16C15.7239 31.5 15.5 31.7239 15.5 32C15.5 32.2761 15.7239 32.5 16 32.5H27C27.2761 32.5 27.5 32.2761 27.5 32C27.5 31.7239 27.2761 31.5 27 31.5Z" stroke="#2E2E2E"/>
<path d="M37 36.5H12C11.7239 36.5 11.5 36.7239 11.5 37C11.5 37.2761 11.7239 37.5 12 37.5H37C37.2761 37.5 37.5 37.2761 37.5 37C37.5 36.7239 37.2761 36.5 37 36.5Z" stroke="#2E2E2E"/>
<path d="M33 12L16 23" stroke="url(#paint0_linear_1016_747)" stroke-width="2" stroke-linecap="round" stroke-linejoin="round"/>
<path d="M16 12L33 23" stroke="url(#paint1_linear_1016_747)" stroke-width="2" stroke-linecap="round" stroke-linejoin="round"/>
<path d="M26 41C26 40.4477 25.5523 40 25 40C24.4477 40 24 40.4477 24 41C24 41.5523 24.4477 42 25 42C25.5523 42 26 41.5523 26 41Z" stroke="#2E2E2E" stroke-width="2"/>
<path d="M32 12H17C16.4477 12 16 12.4477 16 13V23C16 23.5523 16.4477 24 17 24H32C32.5523 24 33 23.5523 33 23V13C33 12.4477 32.5523 12 32 12Z" stroke="url(#paint2_linear_1016_747)" stroke-width="2" stroke-linecap="round" stroke-linejoin="round"/>
<defs>
<linearGradient id="paint0_linear_1016_747" x1="16" y1="17.5" x2="33" y2="17.5" gradientUnits="userSpaceOnUse">
<stop stop-color="#9358F6"/>
<stop offset="0.26" stop-color="#7A78F2"/>
<stop offset="0.515" stop-color="#6197ED"/>
<stop offset="0.76" stop-color="#44B5E9"/>
<stop offset="1" stop-color="#0FD7E1"/>
</linearGradient>
<linearGradient id="paint1_linear_1016_747" x1="16" y1="17.5" x2="33" y2="17.5" gradientUnits="userSpaceOnUse">
<stop stop-color="#9358F6"/>
<stop offset="0.26" stop-color="#7A78F2"/>
<stop offset="0.515" stop-color="#6197ED"/>
<stop offset="0.76" stop-color="#44B5E9"/>
<stop offset="1" stop-color="#0FD7E1"/>
</linearGradient>
<linearGradient id="paint2_linear_1016_747" x1="16" y1="18" x2="33" y2="18" gradientUnits="userSpaceOnUse">
<stop stop-color="#9358F6"/>
<stop offset="0.26" stop-color="#7A78F2"/>
<stop offset="0.515" stop-color="#6197ED"/>
<stop offset="0.76" stop-color="#44B5E9"/>
<stop offset="1" stop-color="#0FD7E1"/>
</linearGradient>
</defs>
</svg>
