<svg width="48" height="48" viewBox="0 0 48 48" fill="none" xmlns="http://www.w3.org/2000/svg">
<path d="M39 9H9C8.44772 9 8 9.44772 8 10V33C8 33.5523 8.44772 34 9 34H39C39.5523 34 40 33.5523 40 33V10C40 9.44772 39.5523 9 39 9Z" stroke="#2E2E2E" stroke-width="2"/>
<mask id="mask0_1016_774" style="mask-type:luminance" maskUnits="userSpaceOnUse" x="7" y="8" width="18" height="13">
<path d="M7 10C7 8.89543 7.89543 8 9 8H25V21H7V10Z" fill="white"/>
</mask>
<g mask="url(#mask0_1016_774)">
<path d="M25 8H27V6H25V8ZM25 21V23H27V21H25ZM7 21H5V23H7V21ZM9 10H25V6H9V10ZM23 8V21H27V8H23ZM25 19H7V23H25V19ZM9 21V10H5V21H9ZM9 6C6.79086 6 5 7.79086 5 10H9V6Z" fill="#2E2E2E"/>
</g>
<path d="M8 20H24V30H8V20Z" stroke="#2E2E2E" stroke-width="2"/>
<mask id="mask1_1016_774" style="mask-type:luminance" maskUnits="userSpaceOnUse" x="23" y="8" width="18" height="13">
<path d="M41 10C41 8.89543 40.1046 8 39 8H23V21H41V10Z" fill="white"/>
</mask>
<g mask="url(#mask1_1016_774)">
<path d="M23 8H21V6H23V8ZM23 21V23H21V21H23ZM41 21H43V23H41V21ZM39 10H23V6H39V10ZM25 8V21H21V8H25ZM23 19H41V23H23V19ZM39 21V10H43V21H39ZM39 6C41.2091 6 43 7.79086 43 10H39V6Z" fill="#2E2E2E"/>
</g>
<path d="M40 20H24V30H40V20Z" stroke="#2E2E2E" stroke-width="2"/>
<path d="M9 39H39" stroke="#2E2E2E" stroke-width="2"/>
<path d="M13 17V14" stroke="url(#paint0_linear_1016_774)" stroke-width="2" stroke-linecap="round" stroke-linejoin="round"/>
<path d="M16 17V11" stroke="url(#paint1_linear_1016_774)" stroke-width="2" stroke-linecap="round" stroke-linejoin="round"/>
<path d="M27 23H36" stroke="url(#paint2_linear_1016_774)" stroke-width="2" stroke-linecap="round" stroke-linejoin="round"/>
<path d="M19 17V13" stroke="url(#paint3_linear_1016_774)" stroke-width="2" stroke-linecap="round" stroke-linejoin="round"/>
<path d="M27 26H33" stroke="url(#paint4_linear_1016_774)" stroke-width="2" stroke-linecap="round" stroke-linejoin="round"/>
<mask id="mask2_1016_774" style="mask-type:luminance" maskUnits="userSpaceOnUse" x="28" y="11" width="7" height="7">
<path d="M35 14.5C35 16.433 33.433 18 31.5 18C29.567 18 28 16.433 28 14.5C28 12.567 29.567 11 31.5 11C33.433 11 35 12.567 35 14.5Z" fill="white"/>
</mask>
<g mask="url(#mask2_1016_774)">
<path d="M33 14.5C33 15.3284 32.3284 16 31.5 16V20C34.5376 20 37 17.5376 37 14.5H33ZM31.5 16C30.6716 16 30 15.3284 30 14.5H26C26 17.5376 28.4624 20 31.5 20V16ZM30 14.5C30 13.6716 30.6716 13 31.5 13V9C28.4624 9 26 11.4624 26 14.5H30ZM31.5 13C32.3284 13 33 13.6716 33 14.5H37C37 11.4624 34.5376 9 31.5 9V13Z" fill="url(#paint5_linear_1016_774)"/>
</g>
<mask id="mask3_1016_774" style="mask-type:luminance" maskUnits="userSpaceOnUse" x="31" y="11" width="4" height="4">
<path d="M31 11C31.5253 11 32.0454 11.1035 32.5307 11.3045C33.016 11.5055 33.457 11.8001 33.8284 12.1716C34.1999 12.543 34.4945 12.984 34.6955 13.4693C34.8965 13.9546 35 14.4747 35 15H31V11Z" fill="white"/>
</mask>
<g mask="url(#mask3_1016_774)">
<path d="M31 9V11H29M31 9H29V11M31 9C31.7879 9 32.5681 9.15519 33.2961 9.45672M31 9V13M29 11H33V15M29 11V15M35 17V15H37M35 17H37V15M35 17H31M35 17V13H31M37 15H33M37 15C37 14.2121 36.8448 13.4319 36.5433 12.7039M29 15H31V17M29 15V17H31M29 15H33M31 17V13M31 13C31.2626 13 31.5227 13.0517 31.7654 13.1522M31.7654 13.1522L33.2961 9.45672M31.7654 13.1522C32.008 13.2528 32.2285 13.4001 32.4142 13.5858M33.2961 9.45672C34.0241 9.75825 34.6855 10.2002 35.2426 10.7574M32.4142 13.5858L35.2426 10.7574M32.4142 13.5858C32.5999 13.7715 32.7473 13.992 32.8478 14.2346M35.2426 10.7574C35.7998 11.3145 36.2417 11.9759 36.5433 12.7039M32.8478 14.2346L36.5433 12.7039M32.8478 14.2346C32.9483 14.4773 33 14.7374 33 15" stroke="url(#paint6_linear_1016_774)" stroke-width="2" stroke-linecap="round" stroke-linejoin="round"/>
</g>
<path d="M10.5 27.5L15 24L17 26L21 22.5" stroke="url(#paint7_linear_1016_774)" stroke-width="2" stroke-linecap="round" stroke-linejoin="round"/>
<path d="M11 17H21" stroke="url(#paint8_linear_1016_774)" stroke-width="2" stroke-linecap="round" stroke-linejoin="round"/>
<defs>
<linearGradient id="paint0_linear_1016_774" x1="13" y1="15.5" x2="14" y2="15.5" gradientUnits="userSpaceOnUse">
<stop stop-color="#9358F6"/>
<stop offset="0.26" stop-color="#7A78F2"/>
<stop offset="0.515" stop-color="#6197ED"/>
<stop offset="0.76" stop-color="#44B5E9"/>
<stop offset="1" stop-color="#0FD7E1"/>
</linearGradient>
<linearGradient id="paint1_linear_1016_774" x1="16" y1="14" x2="17" y2="14" gradientUnits="userSpaceOnUse">
<stop stop-color="#9358F6"/>
<stop offset="0.26" stop-color="#7A78F2"/>
<stop offset="0.515" stop-color="#6197ED"/>
<stop offset="0.76" stop-color="#44B5E9"/>
<stop offset="1" stop-color="#0FD7E1"/>
</linearGradient>
<linearGradient id="paint2_linear_1016_774" x1="27" y1="23.5" x2="36" y2="23.5" gradientUnits="userSpaceOnUse">
<stop stop-color="#9358F6"/>
<stop offset="0.26" stop-color="#7A78F2"/>
<stop offset="0.515" stop-color="#6197ED"/>
<stop offset="0.76" stop-color="#44B5E9"/>
<stop offset="1" stop-color="#0FD7E1"/>
</linearGradient>
<linearGradient id="paint3_linear_1016_774" x1="19" y1="15" x2="20" y2="15" gradientUnits="userSpaceOnUse">
<stop stop-color="#9358F6"/>
<stop offset="0.26" stop-color="#7A78F2"/>
<stop offset="0.515" stop-color="#6197ED"/>
<stop offset="0.76" stop-color="#44B5E9"/>
<stop offset="1" stop-color="#0FD7E1"/>
</linearGradient>
<linearGradient id="paint4_linear_1016_774" x1="27" y1="26.5" x2="33" y2="26.5" gradientUnits="userSpaceOnUse">
<stop stop-color="#9358F6"/>
<stop offset="0.26" stop-color="#7A78F2"/>
<stop offset="0.515" stop-color="#6197ED"/>
<stop offset="0.76" stop-color="#44B5E9"/>
<stop offset="1" stop-color="#0FD7E1"/>
</linearGradient>
<linearGradient id="paint5_linear_1016_774" x1="30.3264" y1="25.1413" x2="41.9516" y2="15.7486" gradientUnits="userSpaceOnUse">
<stop stop-color="#9358F7"/>
<stop offset="0.259732" stop-color="#7B78F2"/>
<stop offset="0.500607" stop-color="#6197EE"/>
<stop offset="0.766547" stop-color="#45B5E9"/>
<stop offset="1" stop-color="#10D7E2"/>
</linearGradient>
<linearGradient id="paint6_linear_1016_774" x1="29" y1="13" x2="37" y2="13" gradientUnits="userSpaceOnUse">
<stop stop-color="#9358F6"/>
<stop offset="0.26" stop-color="#7A78F2"/>
<stop offset="0.515" stop-color="#6197ED"/>
<stop offset="0.76" stop-color="#44B5E9"/>
<stop offset="1" stop-color="#0FD7E1"/>
</linearGradient>
<linearGradient id="paint7_linear_1016_774" x1="10.5" y1="25" x2="21" y2="25" gradientUnits="userSpaceOnUse">
<stop stop-color="#9358F6"/>
<stop offset="0.26" stop-color="#7A78F2"/>
<stop offset="0.515" stop-color="#6197ED"/>
<stop offset="0.76" stop-color="#44B5E9"/>
<stop offset="1" stop-color="#0FD7E1"/>
</linearGradient>
<linearGradient id="paint8_linear_1016_774" x1="11" y1="17.5" x2="21" y2="17.5" gradientUnits="userSpaceOnUse">
<stop stop-color="#9358F6"/>
<stop offset="0.26" stop-color="#7A78F2"/>
<stop offset="0.515" stop-color="#6197ED"/>
<stop offset="0.76" stop-color="#44B5E9"/>
<stop offset="1" stop-color="#0FD7E1"/>
</linearGradient>
</defs>
</svg>
