<svg width="72" height="73" viewBox="0 0 72 73" fill="none" xmlns="http://www.w3.org/2000/svg">
<path d="M38.0574 25.0917C41.3222 24.3738 45.315 22.9248 47.4167 25.5243C47.7876 25.983 47.9948 26.4214 47.9948 26.8092V33.6534C47.9948 35.8483 41.3848 39.6416 35.9935 39.6416C30.6023 39.6416 23.9922 35.8483 23.9922 33.6534V26.8092C23.9922 26.424 24.196 25.9895 24.5614 25.5348C26.6563 22.9277 30.6575 24.3804 33.9249 25.0945C35.2849 25.3917 36.6975 25.3907 38.0574 25.0917Z" fill="url(#paint0_linear_500_2274)"/>
<path d="M35.9887 22.7017C31.7068 22.7017 28.4839 19.2864 28.4839 14.76V12.4922C28.4839 7.96584 31.7113 4.55054 35.9933 4.55054C40.2752 4.55054 43.4981 7.96584 43.4981 12.4922V14.76C43.4981 19.2864 40.2707 22.7017 35.9887 22.7017ZM35.9887 6.8274C32.9621 6.8274 30.7618 9.20901 30.7618 12.4922V14.76C30.7618 18.0433 32.9576 20.4249 35.9841 20.4249C39.0107 20.4249 41.211 18.0433 41.211 14.76V12.4922C41.211 9.20901 39.0153 6.8274 35.9887 6.8274Z" fill="#0F0F1A"/>
<path d="M54.8698 40.7846C53.4684 40.7846 51.8844 40.4977 50.2957 39.9513C49.6977 39.7464 49.3827 39.0997 49.5882 38.5032C49.7936 37.9112 50.4418 37.5924 51.0398 37.7974C52.3911 38.2618 53.7195 38.5077 54.8698 38.5077C58.8916 38.5077 63.2557 35.78 63.4611 34.76V29.2409C63.3881 28.9039 62.2514 27.7427 59.9644 26.7272C59.3892 26.4722 59.129 25.7983 59.3846 25.2245C59.6403 24.6507 60.3159 24.3912 60.8911 24.6462C62.0277 25.1516 65.7391 26.9777 65.7391 29.2409V34.7919C65.7391 37.6289 59.2568 40.7846 54.8653 40.7846H54.8698Z" fill="#28292B"/>
<path d="M54.8651 25.5251C51.0442 25.5251 48.1592 22.4787 48.1592 18.4395V16.4587C48.1592 12.4195 51.0397 9.37305 54.8651 9.37305C58.6906 9.37305 61.5711 12.4195 61.5711 16.4587V18.4395C61.5711 22.4787 58.6906 25.5251 54.8651 25.5251ZM54.8651 11.6499C52.3042 11.6499 50.4417 13.6718 50.4417 16.4587V18.4395C50.4417 21.2264 52.2996 23.2483 54.8651 23.2483C57.4307 23.2483 59.2886 21.2264 59.2886 18.4395V16.4587C59.2886 13.6718 57.4307 11.6499 54.8651 11.6499Z" fill="#28292B"/>
<path d="M17.1218 40.7848C12.7303 40.7848 6.24805 37.6291 6.24805 34.7921V29.2411C6.24805 26.9779 9.95937 25.1518 11.0961 24.6464C11.6712 24.3914 12.3469 24.6464 12.6025 25.2247C12.8581 25.7985 12.6025 26.4724 12.0227 26.7274C9.73569 27.7429 8.59901 28.8996 8.52597 29.2684V34.7875C8.73596 35.7803 13.0955 38.5034 17.1173 38.5034C18.2722 38.5034 19.596 38.2575 20.9473 37.793C21.5453 37.5881 22.1935 37.9068 22.3989 38.4988C22.6044 39.0954 22.2848 39.742 21.6914 39.9469C20.1028 40.4934 18.5187 40.7803 17.1173 40.7803L17.1218 40.7848Z" fill="#28292B"/>
<path d="M17.1264 25.5251C13.3055 25.5251 10.4204 22.4787 10.4204 18.4395V16.4587C10.4204 12.4195 13.3009 9.37305 17.1264 9.37305C20.9518 9.37305 23.8323 12.4195 23.8323 16.4587V18.4395C23.8323 22.4787 20.9518 25.5251 17.1264 25.5251ZM17.1264 11.6499C14.5654 11.6499 12.7029 13.6718 12.7029 16.4587V18.4395C12.7029 21.2264 14.5608 23.2483 17.1264 23.2483C19.6919 23.2483 21.5498 21.2264 21.5498 18.4395V16.4587C21.5498 13.6718 19.6919 11.6499 17.1264 11.6499Z" fill="#28292B"/>
<path d="M13.4611 68.3895C13.1918 68.3895 12.9225 68.2938 12.7079 68.1026C12.2332 67.6882 12.1921 66.9687 12.6075 66.4951C16.0038 62.6563 18.9163 61.8093 19.0395 61.7774C19.1308 61.7501 19.2221 61.7365 19.318 61.7365L39.9563 61.1809L40.8738 60.9532L63.0094 49.1181C64.5341 48.3029 65.2006 46.568 64.493 45.2519C63.8266 44.0088 62.0827 43.69 60.5306 44.5188L49.7801 50.0015C49.2186 50.2884 48.5293 50.0652 48.2463 49.5051C47.9587 48.945 48.1824 48.2574 48.7439 47.9751L59.4716 42.506C62.1329 41.0807 65.2326 41.8093 66.5062 44.1773C67.8072 46.5998 66.7207 49.7146 64.0913 51.1263L41.8279 63.0297C41.7457 63.0753 41.659 63.1071 41.5677 63.1299L40.3899 63.4259C40.3078 63.4441 40.2256 63.4578 40.1434 63.4578L19.5508 64.0133C19.0532 64.1955 16.8757 65.1199 14.3194 68.0115C14.0957 68.2665 13.7807 68.3986 13.4611 68.3986V68.3895Z" fill="#28292B"/>
<path d="M6.08386 57.5014C5.77801 57.5014 5.46759 57.3784 5.2439 57.1325C4.81936 56.668 4.84675 55.9486 5.31238 55.5251L14.7299 46.8775C14.771 46.8411 14.8167 46.8047 14.8669 46.7728C19.7377 43.4941 25.3618 45.0788 25.8776 45.2336C28.3701 45.8802 33.104 46.0396 33.1542 46.0396H41.2662C44.3293 46.0396 46.8217 48.2755 46.8217 51.0214C46.8217 53.7673 44.3293 56.0032 41.2662 56.0032H29.9952C29.3653 56.0032 28.854 55.4932 28.854 54.8648C28.854 54.2364 29.3653 53.7263 29.9952 53.7263H41.2662C43.0693 53.7263 44.5392 52.515 44.5392 51.0214C44.5392 49.5278 43.0739 48.3165 41.2662 48.3165H33.1177C32.8757 48.3074 28.014 48.148 25.275 47.4285C25.2568 47.4285 25.2431 47.4194 25.2248 47.4149C25.1792 47.4012 20.2764 45.9349 16.2135 48.6125L6.85991 57.2008C6.64079 57.4012 6.36232 57.5014 6.08842 57.5014H6.08386Z" fill="#28292B"/>
<defs>
<linearGradient id="paint0_linear_500_2274" x1="33.4327" y1="47.6868" x2="51.9078" y2="26.8719" gradientUnits="userSpaceOnUse">
<stop stop-color="#9358F7"/>
<stop offset="0.259732" stop-color="#7B78F2"/>
<stop offset="0.500607" stop-color="#6197EE"/>
<stop offset="0.766547" stop-color="#45B5E9"/>
<stop offset="1" stop-color="#10D7E2"/>
</linearGradient>
</defs>
</svg>
