<svg width="40" height="40" viewBox="0 0 40 40" fill="none" xmlns="http://www.w3.org/2000/svg">
<path d="M24.707 25.293L29.707 30.293M21 8H28C29.5913 8 31.1174 8.63214 32.2426 9.75736C33.3679 10.8826 34 12.4087 34 14C34 15.5913 33.3679 17.1174 32.2426 18.2426C31.1174 19.3679 29.5913 20 28 20H13.5C11.7761 20 10.1228 20.6848 8.90381 21.9038C7.68482 23.1228 7 24.7761 7 26.5C7 28.2239 7.68482 29.8772 8.90381 31.0962C10.1228 32.3152 11.7761 33 13.5 33H18.5" stroke="#2E2E2E" stroke-width="2"/>
<path d="M14 20H26" stroke="url(#paint0_linear_1058_2057)" stroke-width="2" stroke-linecap="round" stroke-linejoin="round"/>
<path d="M20 23C21.6569 23 23 21.6569 23 20C23 18.3431 21.6569 17 20 17C18.3431 17 17 18.3431 17 20C17 21.6569 18.3431 23 20 23Z" fill="url(#paint1_linear_1058_2057)"/>
<path d="M20 9.5C20.8284 9.5 21.5 8.82843 21.5 8C21.5 7.17157 20.8284 6.5 20 6.5C19.1716 6.5 18.5 7.17157 18.5 8C18.5 8.82843 19.1716 9.5 20 9.5Z" stroke="#2E2E2E"/>
<path d="M20 27C23.866 27 27 23.866 27 20C27 16.134 23.866 13 20 13C16.134 13 13 16.134 13 20C13 23.866 16.134 27 20 27Z" stroke="#2E2E2E" stroke-width="2"/>
<path d="M20 34.5C20.8284 34.5 21.5 33.8284 21.5 33C21.5 32.1716 20.8284 31.5 20 31.5C19.1716 31.5 18.5 32.1716 18.5 33C18.5 33.8284 19.1716 34.5 20 34.5Z" stroke="#2E2E2E"/>
<defs>
<linearGradient id="paint0_linear_1058_2057" x1="14" y1="20.5" x2="26" y2="20.5" gradientUnits="userSpaceOnUse">
<stop stop-color="#9358F6"/>
<stop offset="0.26" stop-color="#7A78F2"/>
<stop offset="0.515" stop-color="#6197ED"/>
<stop offset="0.76" stop-color="#44B5E9"/>
<stop offset="1" stop-color="#0FD7E1"/>
</linearGradient>
<linearGradient id="paint1_linear_1058_2057" x1="19.3599" y1="25.8044" x2="25.7009" y2="20.6811" gradientUnits="userSpaceOnUse">
<stop stop-color="#9358F7"/>
<stop offset="0.259732" stop-color="#7B78F2"/>
<stop offset="0.500607" stop-color="#6197EE"/>
<stop offset="0.766547" stop-color="#45B5E9"/>
<stop offset="1" stop-color="#10D7E2"/>
</linearGradient>
</defs>
</svg>
