<svg width="73" height="73" viewBox="0 0 73 73" fill="none" xmlns="http://www.w3.org/2000/svg">
<path d="M43.2256 43.1892C43.2225 43.1908 43.2189 43.1883 43.2192 43.1848C43.2706 42.6608 43.2854 42.134 43.2637 41.6086C43.2511 41.3049 43.3811 41.0102 43.6247 40.8284L45.1447 39.6942C45.4609 39.4564 45.5825 39.0343 45.4317 38.6655L44.6582 36.7585L43.9918 35.1135C43.948 35.0067 43.8896 34.9145 43.8118 34.8369C43.6221 34.6331 43.3448 34.5312 43.0578 34.5651L41.6131 34.7495C41.0476 34.825 40.4896 34.596 40.0925 34.1863C40.0641 34.157 40.0355 34.1278 40.0068 34.0988C39.5527 33.6403 39.3002 33.0074 39.3924 32.3687L39.5846 31.0374C39.643 30.6444 39.4241 30.261 39.0593 30.1057L35.5131 28.6063C35.1482 28.451 34.7202 28.5626 34.4769 28.8781L33.654 29.9397C33.258 30.4507 32.6268 30.7107 31.9803 30.7038C31.3325 30.6969 30.7045 30.4266 30.3158 29.9084L29.5103 28.8344C29.272 28.519 28.8488 28.3977 28.4791 28.5481L24.9086 29.9893C24.5389 30.1397 24.32 30.5182 24.3686 30.9112L24.5383 32.2375C24.6203 32.8794 24.3579 33.5096 23.897 33.9638C23.4372 34.417 22.8034 34.6695 22.1643 34.5777L20.8273 34.3856C20.4333 34.3274 20.049 34.5457 19.8933 34.9097L18.3902 38.4471C18.2346 38.8111 18.3464 39.2381 18.6626 39.4807L19.7294 40.3035C20.2399 40.6972 20.4998 41.3266 20.4929 41.9712C20.486 42.6171 20.2159 43.2433 19.6982 43.6296L18.6188 44.4351C18.2978 44.6728 18.181 45.095 18.3318 45.4638L19.7766 49.0255C19.9274 49.3943 20.3068 49.6175 20.7008 49.5641L22.0418 49.3938C22.6815 49.3126 23.3093 49.5733 23.7629 50.0316C24.2186 50.4921 24.4729 51.1282 24.3803 51.7694L24.1886 53.0967C24.1303 53.4898 24.3492 53.8731 24.714 54.0284L28.2602 55.5278C28.3575 55.5666 28.4596 55.5909 28.5618 55.5957C28.839 55.6103 29.1163 55.489 29.2963 55.256L30.1192 54.1944C30.5153 53.6834 31.1465 53.4234 31.793 53.4303C32.4408 53.4371 33.0689 53.7074 33.4576 54.2258L34.2629 55.2997C34.5013 55.6151 34.9245 55.7365 35.2942 55.586L38.8647 54.1448C39.2344 53.9944 39.4581 53.6159 39.4046 53.2229L39.2361 51.9022C39.1533 51.2538 39.4188 50.6173 39.891 50.1653C40.362 49.7145 41.0029 49.4601 41.6483 49.5524L42.9508 49.7388C43.3448 49.797 43.7291 49.5787 43.8848 49.2147L45.3879 45.6773C45.5436 45.3134 45.4317 44.8863 45.1155 44.6437L43.2303 43.1897C43.229 43.1886 43.2272 43.1885 43.2256 43.1892ZM37.6291 44.4981C37.3129 45.2454 36.8605 45.9102 36.2914 46.4779C35.6979 47.0651 35.0023 47.5261 34.2191 47.8415C33.3776 48.1812 32.4923 48.3316 31.5923 48.2928C30.4151 48.2394 29.2817 47.8512 28.3088 47.1816C27.3116 46.4925 26.543 45.5317 26.0906 44.4059C25.7744 43.6247 25.6236 42.8095 25.6334 41.9749C25.648 41.1693 25.8134 40.3832 26.1295 39.6408C26.4457 38.8935 26.8981 38.2288 27.4673 37.661C28.0607 37.0739 28.7564 36.6129 29.5395 36.2975C30.3811 35.9578 31.2664 35.8074 32.1663 35.8462C33.3435 35.8996 34.4769 36.2878 35.4498 36.9574C36.447 37.6465 37.2156 38.6072 37.668 39.733C37.9842 40.5143 38.135 41.3295 38.1253 42.1641C38.1107 42.9696 37.9453 43.7557 37.6291 44.4981Z" fill="url(#paint0_linear_500_2335)"/>
<path d="M31.441 64.9368C30.7697 64.9368 30.2249 64.3934 30.2249 63.7237C30.2249 63.0541 30.7697 62.5107 31.441 62.5107C43.033 62.5107 52.4652 53.1017 52.4652 41.5382C52.4652 29.9748 43.033 20.5659 31.441 20.5659C22.1353 20.5659 13.8317 26.7867 11.2438 35.691C11.059 36.3364 10.3828 36.7052 9.73585 36.5208C9.08887 36.3364 8.71918 35.6619 8.90403 35.0165C11.7886 25.0787 21.0554 18.1396 31.4361 18.1396C44.3707 18.1396 54.8925 28.6355 54.8925 41.5382C54.8925 54.4409 44.3707 64.9368 31.4361 64.9368H31.441Z" fill="#0F0F1A"/>
<path d="M47.9666 27.4854C47.2953 27.4854 46.7505 26.9419 46.7505 26.2723C46.7505 25.6027 47.2953 25.0592 47.9666 25.0592C53.1181 25.0592 57.3112 20.8764 57.3112 15.7376C57.3112 10.5988 53.1181 6.41601 47.9666 6.41601C44.8728 6.41601 41.9785 7.94454 40.237 10.5018C39.8576 11.055 39.1036 11.2005 38.549 10.822C37.9945 10.4436 37.8486 9.69143 38.228 9.13825C40.4267 5.91621 44.0653 3.99463 47.9715 3.99463C54.4655 3.99463 59.7483 9.2644 59.7483 15.7424C59.7483 22.2205 54.4655 27.4903 47.9715 27.4903L47.9666 27.4854Z" fill="#28292B"/>
<path d="M61.5759 64.9371H10.076C9.40468 64.9371 8.85986 64.3936 8.85986 63.724C8.85986 63.0543 9.40468 62.5109 10.076 62.5109H61.5759C62.2472 62.5109 62.792 63.0543 62.792 63.724C62.792 64.3936 62.2472 64.9371 61.5759 64.9371Z" fill="#28292B"/>
<path d="M7.71741 41.9165C7.55688 41.9165 7.39636 41.8874 7.24556 41.8195C6.90018 41.6739 6.6375 41.3779 6.54021 41.014L4.82793 34.5893C4.65767 33.9439 5.04196 33.2791 5.68894 33.1044C6.33591 32.9346 7.00234 33.318 7.17746 33.9633L8.48599 38.874L12.8056 36.4332C13.3894 36.1033 14.1336 36.3071 14.4644 36.8894C14.7952 37.4717 14.5909 38.2141 14.0071 38.5441L8.3206 41.7564C8.13576 41.8583 7.92658 41.9117 7.72227 41.9117L7.71741 41.9165Z" fill="#28292B"/>
<path d="M37.3912 15.3634C37.2307 15.3634 37.0702 15.3343 36.9194 15.2664C36.574 15.1208 36.3113 14.8248 36.214 14.4609L35.1438 10.4576C34.9736 9.8122 35.3579 9.14741 36.0049 8.97272C36.6518 8.80289 37.3183 9.18624 37.4934 9.83161L38.1549 12.3209L40.3293 11.0933C40.9131 10.7633 41.6573 10.9671 41.9881 11.5494C42.3189 12.1317 42.1146 12.8741 41.5309 13.2041L37.9847 15.2081C37.7998 15.31 37.5907 15.3634 37.3864 15.3634H37.3912Z" fill="#28292B"/>
<path d="M61.5765 68.9548C61.1971 68.9548 60.8226 68.7801 60.5842 68.4453C60.1951 67.9018 60.3215 67.1399 60.8663 66.7517L65.0109 63.8014L61.202 60.6279C60.6864 60.1961 60.6183 59.4342 61.0512 58.9199C61.4841 58.4055 62.2478 58.3376 62.7635 58.7694L67.7787 62.9523C68.0657 63.1949 68.2263 63.554 68.2117 63.9276C68.1971 64.3013 68.0074 64.6506 67.7009 64.869L62.2722 68.7267C62.0581 68.8771 61.81 68.9499 61.5668 68.9499L61.5765 68.9548Z" fill="#28292B"/>
<defs>
<linearGradient id="paint0_linear_500_2335" x1="28.9763" y1="68.3475" x2="57.7006" y2="45.0855" gradientUnits="userSpaceOnUse">
<stop stop-color="#9358F7"/>
<stop offset="0.259732" stop-color="#7B78F2"/>
<stop offset="0.500607" stop-color="#6197EE"/>
<stop offset="0.766547" stop-color="#45B5E9"/>
<stop offset="1" stop-color="#10D7E2"/>
</linearGradient>
</defs>
</svg>
