<svg width="100" height="100" viewBox="0 0 100 100" fill="none" xmlns="http://www.w3.org/2000/svg">
<g clip-path="url(#clip0_1120_665)">
<path opacity="0.01" d="M100 0H0V100H100V0Z" fill="white"/>
<path d="M3.16797 43.7866C3.28597 43.4126 3.39997 43.0366 3.52197 42.6626C3.94983 41.3145 4.78978 40.1345 5.92355 39.2888C7.05732 38.4431 8.42779 37.9744 9.84197 37.9486C17.3406 37.9139 24.84 37.9139 32.34 37.9486C33.2349 37.9652 34.1177 38.1584 34.9378 38.517C35.758 38.8755 36.4992 39.3925 37.1191 40.0382C37.739 40.6839 38.2252 41.4456 38.5501 42.2797C38.8749 43.1138 39.0319 44.0037 39.012 44.8986C39.034 51.5446 39.012 58.1906 39.012 64.8366V65.8066C40.1783 66.0485 41.3842 66.0239 42.5396 65.7345C43.6951 65.4452 44.7703 64.8986 45.685 64.1356C46.5997 63.3727 47.3303 62.4129 47.8222 61.3281C48.3141 60.2433 48.5547 59.0614 48.526 57.8706C48.538 52.5366 48.526 47.2006 48.526 41.8706C48.4495 40.3948 48.6843 38.9195 49.2149 37.5403C49.7456 36.1611 50.5604 34.909 51.6064 33.8651C52.6523 32.8212 53.9061 32.0089 55.2863 31.481C56.6665 30.953 58.1424 30.7212 59.618 30.8006H61.33V29.7346C61.33 23.3346 61.33 16.9346 61.33 10.5346C61.2605 9.55435 61.4017 8.57058 61.7441 7.64945C62.0866 6.72831 62.6222 5.89117 63.3151 5.1943C64.008 4.49742 64.8421 3.95698 65.7612 3.6093C66.6804 3.26162 67.6633 3.11476 68.644 3.17861C69.468 3.17861 70.29 3.16061 71.114 3.17861C71.3008 3.16621 71.4883 3.19231 71.6646 3.2553C71.841 3.31829 72.0025 3.41682 72.1393 3.54478C72.276 3.67275 72.385 3.82743 72.4595 3.99924C72.5341 4.17105 72.5725 4.35633 72.5725 4.54361C72.5725 4.73088 72.5341 4.91616 72.4595 5.08797C72.385 5.25978 72.276 5.41446 72.1393 5.54243C72.0025 5.67039 71.841 5.76892 71.6646 5.83191C71.4883 5.8949 71.3008 5.921 71.114 5.9086C70.14 5.9346 69.162 5.9086 68.188 5.9206C67.1076 5.92108 66.0711 6.34771 65.3035 7.10787C64.5358 7.86803 64.099 8.90033 64.088 9.98061C64.06 11.1606 64.088 12.3426 64.088 13.5806H93.968C94.0605 12.1041 94.0438 10.6227 93.918 9.14861C93.756 8.20319 93.2501 7.35109 92.4976 6.75626C91.7451 6.16144 90.7992 5.86593 89.842 5.9266C86 5.9126 82.16 5.9266 78.318 5.9266C78.0439 5.94219 77.7691 5.93617 77.496 5.9086C77.3269 5.89967 77.1613 5.85739 77.0086 5.7842C76.856 5.71101 76.7193 5.60836 76.6065 5.48215C76.4936 5.35593 76.4069 5.20865 76.3512 5.04878C76.2955 4.88891 76.272 4.7196 76.282 4.55061C76.272 4.38147 76.2959 4.21205 76.3522 4.05225C76.4085 3.89246 76.4961 3.7455 76.6099 3.61997C76.7237 3.49445 76.8614 3.39288 77.0149 3.32122C77.1684 3.24955 77.3347 3.20923 77.504 3.20261C77.8684 3.17127 78.2347 3.16526 78.6 3.18461C82.288 3.18461 85.978 3.18461 89.666 3.18461C90.6148 3.14246 91.562 3.29801 92.4475 3.6414C93.333 3.98479 94.1374 4.50852 94.8097 5.17933C95.482 5.85015 96.0076 6.65341 96.3529 7.53813C96.6983 8.42285 96.856 9.36971 96.816 10.3186C96.8266 20.2866 96.8266 30.2553 96.816 40.2246C96.816 40.3766 96.816 40.5306 96.816 40.6806C96.8146 40.8641 96.7761 41.0453 96.7026 41.2135C96.6292 41.3816 96.5224 41.5331 96.3887 41.6587C96.255 41.7844 96.0972 41.8816 95.9248 41.9445C95.7525 42.0074 95.5692 42.0346 95.386 42.0246C95.2097 42.0221 95.0357 41.9842 94.8743 41.9132C94.7129 41.8421 94.5675 41.7394 94.4466 41.611C94.3257 41.4827 94.2319 41.3313 94.1706 41.166C94.1093 41.0007 94.0819 40.8247 94.09 40.6486C94.06 39.2486 94.08 37.8486 94.08 36.4486C94.08 30.1379 94.08 23.8273 94.08 17.5166V16.4406H64.134V30.7486H75.734C74.864 29.9186 74.134 29.2526 73.44 28.5586C72.684 27.8086 72.588 26.9926 73.154 26.3946C73.72 25.7966 74.596 25.8566 75.386 26.6406C76.8353 28.0793 78.2793 29.5233 79.718 30.9726C80.596 31.8606 80.592 32.4986 79.7 33.3966C78.24 34.8633 76.7733 36.3299 75.3 37.7966C75.1836 37.9656 75.0313 38.1068 74.8539 38.2099C74.6766 38.3131 74.4786 38.3757 74.2742 38.3933C74.0697 38.4109 73.8639 38.383 73.6716 38.3116C73.4792 38.2403 73.305 38.1272 73.1615 37.9805C73.018 37.8339 72.9088 37.6573 72.8416 37.4634C72.7744 37.2695 72.751 37.0632 72.7731 36.8592C72.7951 36.6552 72.862 36.4586 72.969 36.2835C73.076 36.1085 73.2205 35.9592 73.392 35.8466C74.092 35.1366 74.81 34.4466 75.658 33.6146H64.138V50.4806H94.076C94.076 49.4406 94.076 48.4146 94.076 47.3886C94.076 46.3226 94.606 45.7206 95.476 45.7426C96.304 45.7626 96.808 46.3546 96.812 47.3686C96.812 50.1426 96.846 52.9166 96.812 55.6906C96.7993 57.4826 96.0798 59.1972 94.8098 60.4616C93.5398 61.726 91.822 62.4379 90.03 62.4426C82.7446 62.4786 75.4586 62.4786 68.172 62.4426C67.2688 62.4454 66.3742 62.2682 65.5403 61.9214C64.7063 61.5746 63.9498 61.0652 63.315 60.4228C62.6801 59.7805 62.1795 59.0181 61.8425 58.1802C61.5054 57.3423 61.3387 56.4457 61.352 55.5426C61.326 48.6226 61.352 41.7026 61.352 34.7826V33.6886C55.296 32.6086 51.336 36.6666 51.304 41.2646C51.264 46.7206 51.304 52.1786 51.292 57.6346C51.3623 59.1023 51.1249 60.5685 50.595 61.939C50.065 63.3095 49.2543 64.5541 48.2148 65.5926C47.1753 66.6312 45.93 67.4408 44.559 67.9695C43.188 68.4982 41.7216 68.7343 40.254 68.6626H39.032V69.6626C39.032 76.1866 39.032 82.7106 39.032 89.2346C39.2062 90.9727 38.7155 92.7123 37.6587 94.1032C36.6018 95.494 35.0572 96.4328 33.336 96.7306C33.2804 96.7552 33.2285 96.7875 33.182 96.8266H16.886C16.886 96.7966 16.886 96.7546 16.86 96.7406C16.5451 96.5769 16.3024 96.302 16.179 95.9694C16.0555 95.6367 16.0602 95.27 16.192 94.9406C16.498 94.1606 17.192 94.0726 17.934 94.0766C22.6233 94.0899 27.3126 94.0899 32.002 94.0766C32.9719 94.132 33.9285 93.8304 34.6913 93.2287C35.454 92.6269 35.9701 91.7668 36.142 90.8106C36.2379 89.7992 36.2466 88.7815 36.168 87.7686H5.93197C5.93197 88.6846 5.86197 89.5406 5.94797 90.3806C5.97973 91.0724 6.20604 91.7411 6.60087 92.31C6.9957 92.8789 7.54303 93.3249 8.17997 93.5966C9.06602 93.8883 9.98954 94.0507 10.922 94.0786C12.004 94.1866 12.678 95.0106 12.292 95.9326C12.0971 96.2639 11.8575 96.5667 11.58 96.8326H9.02197C7.36367 96.549 5.86784 95.6648 4.81997 94.3486C4.18539 93.2684 3.63316 92.1419 3.16797 90.9786L3.16797 43.7786M36.24 68.6646C33.95 68.6646 31.76 68.6506 29.568 68.6866C29.4388 68.7143 29.3177 68.771 29.2138 68.8524C29.1098 68.9338 29.0258 69.0379 28.968 69.1566C28.672 70.0823 28.0726 70.8811 27.2666 71.424C26.4605 71.9669 25.495 72.2222 24.526 72.1486C22.1486 72.1486 19.7713 72.1486 17.394 72.1486C16.9986 72.1576 16.6034 72.1221 16.216 72.0426C15.1361 71.7849 14.1924 71.1311 13.5716 70.2107C12.9509 69.2903 12.6983 68.1704 12.864 67.0726C12.8252 66.3911 12.9437 65.7098 13.2103 65.0814C13.4769 64.453 13.8844 63.8943 14.4013 63.4486C14.9182 63.0028 15.5308 62.6818 16.1915 62.5105C16.8523 62.3392 17.5436 62.3221 18.212 62.4606C18.5383 62.4844 18.8435 62.6309 19.0661 62.8706C19.2887 63.1103 19.4123 63.4254 19.412 63.7526C19.4403 64.0621 19.3542 64.3713 19.1699 64.6216C18.9856 64.8718 18.7159 65.0458 18.412 65.1106C18.1153 65.1754 17.8114 65.2016 17.508 65.1886C16.084 65.2166 15.61 65.7546 15.614 67.3546C15.614 68.8526 16.124 69.4046 17.524 69.4086C19.81 69.4086 22.096 69.3966 24.382 69.4086C25.16 69.4086 26.024 69.3406 26.182 68.5226C26.33 67.6197 26.274 66.695 26.018 65.8166C25.932 65.5026 25.134 65.2746 24.632 65.2046C23.632 65.0666 23.046 64.6246 23.046 63.8046C23.046 62.9386 23.646 62.4526 24.73 62.4446C25.4826 62.3581 26.2435 62.509 26.9062 62.8762C27.5689 63.2434 28.1003 63.8086 28.426 64.4926C29.008 65.9706 29.924 65.9906 31.142 65.9406C32.572 65.8806 34.006 65.9286 35.438 65.9246C35.7 65.9246 35.962 65.8906 36.206 65.8746V51.1306H5.96797V84.8966H36.24V68.6646ZM36.24 48.3126C36.2997 46.953 36.291 45.5913 36.214 44.2326C36.1094 43.2646 35.6522 42.369 34.9296 41.7165C34.207 41.064 33.2696 40.7003 32.296 40.6946C24.8293 40.6653 17.3626 40.6653 9.89597 40.6946C9.06153 40.675 8.24441 40.9344 7.57416 41.4319C6.90391 41.9293 6.41888 42.6363 6.19597 43.4406C5.95935 45.0547 5.83439 46.6833 5.82197 48.3146L36.24 48.3126ZM94.04 53.3386H64.086C64.086 54.1386 64.068 54.9006 64.086 55.6546C64.0938 56.7207 64.5202 57.741 65.2733 58.4956C66.0264 59.2502 67.0459 59.6787 68.112 59.6886C75.424 59.7179 82.7366 59.7179 90.05 59.6886C91.0225 59.6866 91.9609 59.3303 92.6897 58.6865C93.4186 58.0427 93.8879 57.1554 94.01 56.1906C94.0772 55.242 94.0839 54.2901 94.03 53.3406" fill="#141414"/>
<path d="M3.16797 43.7866C3.28597 43.4126 3.39997 43.0366 3.52197 42.6626C3.94983 41.3145 4.78978 40.1345 5.92355 39.2888C7.05732 38.4431 8.42779 37.9744 9.84197 37.9486C17.3406 37.9139 24.84 37.9139 32.34 37.9486C33.2349 37.9652 34.1177 38.1584 34.9378 38.517C35.758 38.8755 36.4992 39.3925 37.1191 40.0382C37.739 40.6839 38.2252 41.4456 38.5501 42.2797C38.8749 43.1138 39.0319 44.0037 39.012 44.8986C39.034 51.5446 39.012 58.1906 39.012 64.8366V65.8066C40.1783 66.0485 41.3842 66.0239 42.5396 65.7345C43.6951 65.4452 44.7703 64.8986 45.685 64.1356C46.5997 63.3727 47.3303 62.4129 47.8222 61.3281C48.3141 60.2433 48.5547 59.0614 48.526 57.8706C48.538 52.5366 48.526 47.2006 48.526 41.8706C48.4495 40.3948 48.6843 38.9195 49.2149 37.5403C49.7456 36.1611 50.5604 34.909 51.6064 33.8651C52.6523 32.8212 53.9061 32.0089 55.2863 31.481C56.6665 30.953 58.1424 30.7212 59.618 30.8006H61.33V29.7346C61.33 23.3346 61.33 16.9346 61.33 10.5346C61.2605 9.55435 61.4017 8.57058 61.7441 7.64945C62.0866 6.72831 62.6222 5.89117 63.3151 5.1943C64.008 4.49742 64.8421 3.95698 65.7612 3.6093C66.6804 3.26162 67.6633 3.11476 68.644 3.17861C69.468 3.17861 70.29 3.16061 71.114 3.17861C71.3008 3.16621 71.4883 3.19231 71.6646 3.2553C71.841 3.31829 72.0025 3.41682 72.1393 3.54478C72.276 3.67275 72.385 3.82743 72.4595 3.99924C72.5341 4.17105 72.5725 4.35633 72.5725 4.54361C72.5725 4.73088 72.5341 4.91616 72.4595 5.08797C72.385 5.25978 72.276 5.41446 72.1393 5.54243C72.0025 5.67039 71.841 5.76892 71.6646 5.83191C71.4883 5.8949 71.3008 5.921 71.114 5.9086C70.14 5.9346 69.162 5.9086 68.188 5.9206C67.1076 5.92108 66.0711 6.34771 65.3035 7.10787C64.5358 7.86803 64.099 8.90033 64.088 9.98061C64.06 11.1606 64.088 12.3426 64.088 13.5806H93.968C94.0605 12.1041 94.0438 10.6227 93.918 9.14861C93.756 8.20319 93.2501 7.35109 92.4976 6.75626C91.7451 6.16144 90.7992 5.86593 89.842 5.9266C86 5.9126 82.16 5.9266 78.318 5.9266C78.0439 5.94219 77.7691 5.93617 77.496 5.9086C77.3269 5.89967 77.1613 5.85739 77.0086 5.7842C76.856 5.71101 76.7193 5.60836 76.6065 5.48215C76.4936 5.35593 76.4069 5.20865 76.3512 5.04878C76.2955 4.88891 76.272 4.7196 76.282 4.55061C76.272 4.38147 76.2959 4.21205 76.3522 4.05225C76.4085 3.89246 76.4961 3.7455 76.6099 3.61997C76.7237 3.49445 76.8614 3.39288 77.0149 3.32122C77.1684 3.24955 77.3347 3.20923 77.504 3.20261C77.8684 3.17127 78.2347 3.16526 78.6 3.18461C82.288 3.18461 85.978 3.18461 89.666 3.18461C90.6148 3.14246 91.562 3.29801 92.4475 3.6414C93.333 3.98479 94.1374 4.50852 94.8097 5.17933C95.482 5.85015 96.0076 6.65341 96.3529 7.53813C96.6983 8.42285 96.856 9.36971 96.816 10.3186C96.8266 20.2866 96.8266 30.2553 96.816 40.2246C96.816 40.3766 96.816 40.5306 96.816 40.6806C96.8146 40.8641 96.7761 41.0453 96.7026 41.2135C96.6292 41.3816 96.5224 41.5331 96.3887 41.6587C96.255 41.7844 96.0972 41.8816 95.9248 41.9445C95.7525 42.0074 95.5692 42.0346 95.386 42.0246C95.2097 42.0221 95.0357 41.9842 94.8743 41.9132C94.7129 41.8421 94.5675 41.7394 94.4466 41.611C94.3257 41.4827 94.2319 41.3313 94.1706 41.166C94.1093 41.0007 94.0819 40.8247 94.09 40.6486C94.06 39.2486 94.08 37.8486 94.08 36.4486C94.08 30.1379 94.08 23.8273 94.08 17.5166V16.4406H64.134V30.7486H75.734C74.864 29.9186 74.134 29.2526 73.44 28.5586C72.684 27.8086 72.588 26.9926 73.154 26.3946C73.72 25.7966 74.596 25.8566 75.386 26.6406C76.8353 28.0793 78.2793 29.5233 79.718 30.9726C80.596 31.8606 80.592 32.4986 79.7 33.3966C78.24 34.8633 76.7733 36.3299 75.3 37.7966C75.1836 37.9656 75.0313 38.1068 74.8539 38.2099C74.6766 38.3131 74.4786 38.3757 74.2742 38.3933C74.0697 38.4109 73.8639 38.383 73.6716 38.3116C73.4792 38.2403 73.305 38.1272 73.1615 37.9805C73.018 37.8339 72.9088 37.6573 72.8416 37.4634C72.7744 37.2695 72.751 37.0632 72.7731 36.8592C72.7951 36.6552 72.862 36.4586 72.969 36.2835C73.076 36.1085 73.2205 35.9592 73.392 35.8466C74.092 35.1366 74.81 34.4466 75.658 33.6146H64.138V50.4806H94.076C94.076 49.4406 94.076 48.4146 94.076 47.3886C94.076 46.3226 94.606 45.7206 95.476 45.7426C96.304 45.7626 96.808 46.3546 96.812 47.3686C96.812 50.1426 96.846 52.9166 96.812 55.6906C96.7993 57.4826 96.0798 59.1972 94.8098 60.4616C93.5398 61.726 91.822 62.4379 90.03 62.4426C82.7446 62.4786 75.4586 62.4786 68.172 62.4426C67.2688 62.4454 66.3742 62.2682 65.5403 61.9214C64.7063 61.5746 63.9498 61.0652 63.315 60.4228C62.6801 59.7805 62.1795 59.0181 61.8425 58.1802C61.5054 57.3423 61.3387 56.4457 61.352 55.5426C61.326 48.6226 61.352 41.7026 61.352 34.7826V33.6886C55.296 32.6086 51.336 36.6666 51.304 41.2646C51.264 46.7206 51.304 52.1786 51.292 57.6346C51.3623 59.1023 51.1249 60.5685 50.595 61.939C50.065 63.3095 49.2543 64.5541 48.2148 65.5926C47.1753 66.6312 45.93 67.4408 44.559 67.9695C43.188 68.4982 41.7216 68.7343 40.254 68.6626H39.032V69.6626C39.032 76.1866 39.032 82.7106 39.032 89.2346C39.2062 90.9727 38.7155 92.7123 37.6587 94.1032C36.6018 95.494 35.0572 96.4328 33.336 96.7306C33.2804 96.7552 33.2285 96.7875 33.182 96.8266H16.886C16.886 96.7966 16.886 96.7546 16.86 96.7406C16.5451 96.5769 16.3024 96.302 16.179 95.9694C16.0555 95.6367 16.0602 95.27 16.192 94.9406C16.498 94.1606 17.192 94.0726 17.934 94.0766C22.6233 94.0899 27.3126 94.0899 32.002 94.0766C32.9719 94.132 33.9285 93.8304 34.6913 93.2287C35.454 92.6269 35.9701 91.7668 36.142 90.8106C36.2379 89.7992 36.2466 88.7815 36.168 87.7686H5.93197C5.93197 88.6846 5.86197 89.5406 5.94797 90.3806C5.97973 91.0724 6.20604 91.7411 6.60087 92.31C6.9957 92.8789 7.54303 93.3249 8.17997 93.5966C9.06602 93.8883 9.98954 94.0507 10.922 94.0786C12.004 94.1866 12.678 95.0106 12.292 95.9326C12.0971 96.2639 11.8575 96.5667 11.58 96.8326H9.02197C7.36367 96.549 5.86784 95.6648 4.81997 94.3486C4.18539 93.2684 3.63316 92.1419 3.16797 90.9786L3.16797 43.7786M94.04 53.3386H64.086C64.086 54.1386 64.068 54.9006 64.086 55.6546C64.0938 56.7207 64.5202 57.741 65.2733 58.4956C66.0264 59.2502 67.0459 59.6787 68.112 59.6886C75.424 59.7179 82.7366 59.7179 90.05 59.6886C91.0225 59.6866 91.9609 59.3303 92.6897 58.6865C93.4186 58.0427 93.8879 57.1554 94.01 56.1906C94.0772 55.242 94.0839 54.2901 94.03 53.3406M36.24 68.6646C33.95 68.6646 31.76 68.6506 29.568 68.6866C29.4388 68.7143 29.3177 68.771 29.2138 68.8524C29.1098 68.9338 29.0258 69.0379 28.968 69.1566C28.672 70.0823 28.0726 70.8811 27.2666 71.424C26.4605 71.9669 25.495 72.2222 24.526 72.1486C22.1486 72.1486 19.7713 72.1486 17.394 72.1486C16.9986 72.1576 16.6034 72.1221 16.216 72.0426C15.1361 71.7849 14.1924 71.1311 13.5716 70.2107C12.9509 69.2903 12.6983 68.1704 12.864 67.0726C12.8252 66.3911 12.9437 65.7098 13.2103 65.0814C13.4769 64.453 13.8844 63.8943 14.4013 63.4486C14.9182 63.0028 15.5308 62.6818 16.1915 62.5105C16.8523 62.3392 17.5436 62.3221 18.212 62.4606C18.5383 62.4844 18.8435 62.6309 19.0661 62.8706C19.2887 63.1103 19.4123 63.4254 19.412 63.7526C19.4403 64.0621 19.3542 64.3713 19.1699 64.6216C18.9856 64.8718 18.7159 65.0458 18.412 65.1106C18.1153 65.1754 17.8114 65.2016 17.508 65.1886C16.084 65.2166 15.61 65.7546 15.614 67.3546C15.614 68.8526 16.124 69.4046 17.524 69.4086C19.81 69.4086 22.096 69.3966 24.382 69.4086C25.16 69.4086 26.024 69.3406 26.182 68.5226C26.33 67.6197 26.274 66.695 26.018 65.8166C25.932 65.5026 25.134 65.2746 24.632 65.2046C23.632 65.0666 23.046 64.6246 23.046 63.8046C23.046 62.9386 23.646 62.4526 24.73 62.4446C25.4826 62.3581 26.2435 62.509 26.9062 62.8762C27.5689 63.2434 28.1003 63.8086 28.426 64.4926C29.008 65.9706 29.924 65.9906 31.142 65.9406C32.572 65.8806 34.006 65.9286 35.438 65.9246C35.7 65.9246 35.962 65.8906 36.206 65.8746V51.1306H5.96797V84.8966H36.24V68.6646ZM36.24 48.3126C36.2997 46.953 36.291 45.5913 36.214 44.2326C36.1094 43.2646 35.6522 42.369 34.9296 41.7165C34.207 41.064 33.2696 40.7003 32.296 40.6946C24.8293 40.6653 17.3626 40.6653 9.89597 40.6946C9.06153 40.675 8.24441 40.9344 7.57416 41.4319C6.90391 41.9293 6.41888 42.6363 6.19597 43.4406C5.95935 45.0547 5.83439 46.6833 5.82197 48.3146L36.24 48.3126Z" stroke="white"/>
<path d="M78.9616 10.8669C77.5296 10.8669 76.0956 10.8669 74.6636 10.8669C73.6496 10.8669 73.0636 10.3629 73.0376 9.53886C73.0176 8.67286 73.6276 8.13886 74.6896 8.13886C77.5549 8.12819 80.4216 8.12819 83.2896 8.13886C84.3596 8.13886 84.9636 8.66286 84.9576 9.52686C84.9516 10.3909 84.3576 10.8709 83.2636 10.8769C81.8316 10.8769 80.3976 10.8769 78.9656 10.8769" fill="#141414"/>
<path d="M78.9616 10.8669C77.5296 10.8669 76.0956 10.8669 74.6636 10.8669C73.6496 10.8669 73.0636 10.3629 73.0376 9.53886C73.0176 8.67286 73.6276 8.13886 74.6896 8.13886C77.5549 8.12819 80.4216 8.12819 83.2896 8.13886C84.3596 8.13886 84.9636 8.66286 84.9576 9.52686C84.9516 10.3909 84.3576 10.8709 83.2636 10.8769C81.8316 10.8769 80.3976 10.8769 78.9656 10.8769" stroke="white"/>
<path d="M21.0226 42.8613C22.4806 42.8613 23.9406 42.8613 25.3986 42.8613C26.4126 42.8613 26.9986 43.3573 27.0246 44.1813C27.0486 45.0373 26.4246 45.5953 25.3866 45.5993C22.4679 45.61 19.5499 45.61 16.6326 45.5993C15.5826 45.5993 14.9866 45.0453 15.0146 44.1713C15.0426 43.3313 15.6146 42.8693 16.6446 42.8633C18.1026 42.8633 19.5626 42.8633 21.0206 42.8633" fill="#141414"/>
<path d="M21.0226 42.8613C22.4806 42.8613 23.9406 42.8613 25.3986 42.8613C26.4126 42.8613 26.9986 43.3573 27.0246 44.1813C27.0486 45.0373 26.4246 45.5953 25.3866 45.5993C22.4679 45.61 19.5499 45.61 16.6326 45.5993C15.5826 45.5993 14.9866 45.0453 15.0146 44.1713C15.0426 43.3313 15.6146 42.8693 16.6446 42.8633C18.1026 42.8633 19.5626 42.8633 21.0206 42.8633" stroke="white"/>
</g>
<defs>
<clipPath id="clip0_1120_665">
<rect width="100" height="100" fill="white"/>
</clipPath>
</defs>
</svg>
