<svg width="40" height="40" viewBox="0 0 40 40" fill="none" xmlns="http://www.w3.org/2000/svg">
<path d="M22.5 32H5C3.34315 32 2 30.6569 2 29V9C2 7.34315 3.34314 6 5 6H33C34.6569 6 36 7.34315 36 9V11" stroke="white" stroke-width="2"/>
<path d="M9 10.5C9 9.67157 8.32843 9 7.5 9C6.67157 9 6 9.67157 6 10.5C6 11.3284 6.67157 12 7.5 12C8.32843 12 9 11.3284 9 10.5Z" fill="white"/>
<path d="M13 10.5C13 9.67157 12.3284 9 11.5 9C10.6716 9 10 9.67157 10 10.5C10 11.3284 10.6716 12 11.5 12C12.3284 12 13 11.3284 13 10.5Z" fill="white"/>
<path d="M3 14H23" stroke="white" stroke-width="2"/>
<path d="M34 10H26C24.3431 10 23 11.3431 23 13V31C23 32.6569 24.3431 34 26 34H34C35.6569 34 37 32.6569 37 31V13C37 11.3431 35.6569 10 34 10Z" stroke="white" stroke-width="2"/>
<path d="M31.5 12.25H28.5C28.3619 12.25 28.25 12.3619 28.25 12.5C28.25 12.6381 28.3619 12.75 28.5 12.75H31.5C31.6381 12.75 31.75 12.6381 31.75 12.5C31.75 12.3619 31.6381 12.25 31.5 12.25Z" stroke="white" stroke-width="0.5"/>
<path d="M36 27H24C23.4477 27 23 27.4477 23 28C23 28.5523 23.4477 29 24 29H36C36.5523 29 37 28.5523 37 28C37 27.4477 36.5523 27 36 27Z" fill="white"/>
<path d="M31 31C31 30.4477 30.5523 30 30 30C29.4477 30 29 30.4477 29 31C29 31.5523 29.4477 32 30 32C30.5523 32 31 31.5523 31 31Z" fill="white"/>
</svg>
