<svg width="100" height="100" viewBox="0 0 100 100" fill="none" xmlns="http://www.w3.org/2000/svg">
<g clip-path="url(#clip0_1066_2162)">
<path d="M4 15.7196C4.27012 14.9953 4.59092 14.2908 4.96 13.6116C5.35113 12.9211 5.91789 12.3464 6.60281 11.9456C7.28773 11.5448 8.06645 11.3323 8.86 11.3296C14.149 11.3006 19.437 11.3116 24.726 11.3196C24.9311 11.2985 25.1384 11.3222 25.3335 11.3892C25.5285 11.4562 25.7066 11.5648 25.8555 11.7075C26.0044 11.8502 26.1205 12.0236 26.1957 12.2156C26.2709 12.4076 26.3034 12.6137 26.291 12.8196C26.291 13.7656 25.704 14.3196 24.648 14.3196C19.5687 14.3249 14.489 14.3249 9.409 14.3196C7.556 14.3196 6.695 15.2606 6.695 17.2886C6.695 32.5979 6.695 47.9069 6.695 63.2156V64.1876H7.935C30.1957 64.1876 52.4563 64.1876 74.717 64.1876C75.1052 64.1738 75.4938 64.1875 75.88 64.2286C76.2007 64.2659 76.4953 64.4234 76.7046 64.6692C76.9139 64.9151 77.0223 65.231 77.008 65.5536C77.0732 65.8902 77.0068 66.2391 76.8224 66.5282C76.638 66.8174 76.3498 67.0247 76.017 67.1076C75.6364 67.1845 75.2477 67.2127 74.86 67.1916C52.5993 67.1949 30.3387 67.1949 8.078 67.1916H6.689V69.5016C6.689 71.2726 6.679 73.0446 6.689 74.8166C6.702 76.5166 7.528 77.4846 9.038 77.5906C9.338 77.6116 9.638 77.6006 9.938 77.6006C36.5913 77.6006 63.2443 77.6006 89.897 77.6006C90.3153 77.6103 90.7338 77.5892 91.149 77.5376C91.6606 77.4791 92.1342 77.2392 92.4841 76.8615C92.8339 76.4837 93.0369 75.9931 93.056 75.4786C93.131 72.7506 93.08 70.0186 93.08 67.1936H90.074C87.654 67.1936 85.233 67.2016 82.813 67.1936C82.6014 67.2212 82.3864 67.2031 82.1824 67.1405C81.9785 67.0778 81.7903 66.9721 81.6307 66.8304C81.4712 66.6888 81.3439 66.5145 81.2575 66.3194C81.1711 66.1243 81.1276 65.9129 81.13 65.6996C81.1236 65.4871 81.1634 65.2759 81.2466 65.0803C81.3299 64.8847 81.4546 64.7096 81.6121 64.567C81.7697 64.4243 81.9564 64.3176 82.1592 64.2542C82.362 64.1907 82.5763 64.1721 82.787 64.1996C85.864 64.1866 88.942 64.1946 92.02 64.1936H93.112V63.0486C93.112 47.8733 93.112 32.6979 93.112 17.5226C93.112 15.2126 92.312 14.3226 90.241 14.3226C83.5477 14.3226 76.8543 14.3226 70.161 14.3226H69.1C69.371 14.7456 69.552 15.0296 69.734 15.3116C80.625 32.1996 71.343 56.1836 52.9 58.8076C39.663 60.6916 27.4 50.4076 25.363 35.7226C23.263 20.5546 32.679 6.28258 46.229 4.13358C49.8854 3.54243 53.6318 3.88399 57.121 5.12658C57.482 5.25358 57.985 5.41358 58.11 5.71858C58.3475 6.26043 58.4145 6.86175 58.302 7.44258C58.2579 7.5922 58.1827 7.73083 58.0814 7.84942C57.9801 7.96801 57.8549 8.06389 57.714 8.1308C57.5731 8.19771 57.4196 8.23415 57.2637 8.23773C57.1078 8.24131 56.9528 8.21196 56.809 8.15158C55.3465 7.70939 53.8597 7.35179 52.356 7.08058C40.132 5.48058 29.37 15.0506 27.884 28.7806C26.515 41.4426 34.73 53.6226 46.009 55.6506C58.561 57.9076 70.063 48.4336 71.516 34.3506C72.465 25.1506 69.443 17.5976 62.944 11.8216C62.71 11.6136 62.456 11.4346 62.229 11.2216C61.9289 10.9635 61.733 10.605 61.6778 10.2131C61.6226 9.82115 61.7119 9.42251 61.929 9.09158C62.0228 8.93129 62.1519 8.7945 62.3065 8.69162C62.4611 8.58874 62.6372 8.52248 62.8212 8.4979C63.0053 8.47331 63.1926 8.49103 63.3688 8.54972C63.545 8.60841 63.7054 8.70652 63.838 8.83658C64.593 9.43658 65.272 10.1506 66.038 10.7296C66.4164 11.0497 66.8829 11.2477 67.376 11.2976C74.756 11.3316 82.138 11.4076 89.517 11.2816C92.605 11.2286 94.782 12.3466 95.808 15.7276V76.0936C94.472 79.7436 93.289 80.6196 89.691 80.6196C80.547 80.6196 71.4033 80.6196 62.26 80.6196C61.885 80.6196 61.509 80.6566 61.113 80.6776V92.3536H62.135C63.121 92.3536 64.108 92.3256 65.093 92.3676C65.4671 92.4047 65.8136 92.5809 66.064 92.8613C66.3143 93.1417 66.4502 93.506 66.4448 93.8818C66.4394 94.2577 66.2931 94.6179 66.0348 94.891C65.7764 95.1641 65.425 95.3303 65.05 95.3566C64.782 95.3716 64.512 95.3616 64.243 95.3616H35.461C35.0429 95.38 34.6241 95.3723 34.207 95.3386C34.0009 95.3031 33.8049 95.2236 33.6323 95.1054C33.4597 94.9873 33.3146 94.8333 33.207 94.654C33.0994 94.4747 33.0317 94.2743 33.0085 94.0664C32.9854 93.8586 33.0074 93.6482 33.073 93.4496C33.1466 93.1095 33.3437 92.8089 33.6261 92.6057C33.9085 92.4025 34.2562 92.3113 34.602 92.3496C35.847 92.3586 37.091 92.3496 38.37 92.3496V80.6196H37.192C27.9587 80.6196 18.7253 80.6196 9.492 80.6196C6.583 80.6196 5.031 79.3456 4.103 76.2576C4.07728 76.1995 4.04362 76.1454 4.003 76.0966V15.7196M41.157 92.2906H58.282V80.6726H41.154L41.157 92.2906Z" fill="#141414"/>
<path d="M4 15.7196C4.27012 14.9953 4.59092 14.2908 4.96 13.6116C5.35113 12.9211 5.91789 12.3464 6.60281 11.9456C7.28773 11.5448 8.06645 11.3323 8.86 11.3296C14.149 11.3006 19.437 11.3116 24.726 11.3196C24.9311 11.2985 25.1384 11.3222 25.3335 11.3892C25.5285 11.4562 25.7066 11.5648 25.8555 11.7075C26.0044 11.8502 26.1205 12.0236 26.1957 12.2156C26.2709 12.4076 26.3034 12.6137 26.291 12.8196C26.291 13.7656 25.704 14.3196 24.648 14.3196C19.5687 14.3249 14.489 14.3249 9.409 14.3196C7.556 14.3196 6.695 15.2606 6.695 17.2886C6.695 32.5979 6.695 47.9069 6.695 63.2156V64.1876H7.935C30.1957 64.1876 52.4563 64.1876 74.717 64.1876C75.1052 64.1738 75.4938 64.1875 75.88 64.2286C76.2007 64.2659 76.4953 64.4234 76.7046 64.6692C76.9139 64.9151 77.0223 65.231 77.008 65.5536C77.0732 65.8902 77.0068 66.2391 76.8224 66.5282C76.638 66.8174 76.3498 67.0247 76.017 67.1076C75.6364 67.1845 75.2477 67.2127 74.86 67.1916C52.5993 67.1949 30.3387 67.1949 8.078 67.1916H6.689V69.5016C6.689 71.2726 6.679 73.0446 6.689 74.8166C6.702 76.5166 7.528 77.4846 9.038 77.5906C9.338 77.6116 9.638 77.6006 9.938 77.6006C36.5913 77.6006 63.2443 77.6006 89.897 77.6006C90.3153 77.6103 90.7338 77.5892 91.149 77.5376C91.6606 77.4791 92.1342 77.2392 92.4841 76.8615C92.8339 76.4837 93.0369 75.9931 93.056 75.4786C93.131 72.7506 93.08 70.0186 93.08 67.1936H90.074C87.654 67.1936 85.233 67.2016 82.813 67.1936C82.6014 67.2212 82.3864 67.2031 82.1824 67.1405C81.9785 67.0778 81.7903 66.9721 81.6307 66.8304C81.4712 66.6888 81.3439 66.5145 81.2575 66.3194C81.1711 66.1243 81.1276 65.9129 81.13 65.6996C81.1236 65.4871 81.1634 65.2759 81.2466 65.0803C81.3299 64.8847 81.4546 64.7096 81.6121 64.567C81.7697 64.4243 81.9564 64.3176 82.1592 64.2542C82.362 64.1907 82.5763 64.1721 82.787 64.1996C85.864 64.1866 88.942 64.1946 92.02 64.1936H93.112V63.0486C93.112 47.8733 93.112 32.6979 93.112 17.5226C93.112 15.2126 92.312 14.3226 90.241 14.3226C83.5477 14.3226 76.8543 14.3226 70.161 14.3226H69.1C69.371 14.7456 69.552 15.0296 69.734 15.3116C80.625 32.1996 71.343 56.1836 52.9 58.8076C39.663 60.6916 27.4 50.4076 25.363 35.7226C23.263 20.5546 32.679 6.28258 46.229 4.13358C49.8854 3.54243 53.6318 3.88399 57.121 5.12658C57.482 5.25358 57.985 5.41358 58.11 5.71858C58.3475 6.26043 58.4145 6.86175 58.302 7.44258C58.2579 7.5922 58.1827 7.73083 58.0814 7.84942C57.9801 7.96801 57.8549 8.06389 57.714 8.1308C57.5731 8.19771 57.4196 8.23415 57.2637 8.23773C57.1078 8.24131 56.9528 8.21196 56.809 8.15158C55.3465 7.70939 53.8597 7.35179 52.356 7.08058C40.132 5.48058 29.37 15.0506 27.884 28.7806C26.515 41.4426 34.73 53.6226 46.009 55.6506C58.561 57.9076 70.063 48.4336 71.516 34.3506C72.465 25.1506 69.443 17.5976 62.944 11.8216C62.71 11.6136 62.456 11.4346 62.229 11.2216C61.9289 10.9635 61.733 10.605 61.6778 10.2131C61.6226 9.82115 61.7119 9.42251 61.929 9.09158C62.0228 8.93129 62.1519 8.7945 62.3065 8.69162C62.4611 8.58874 62.6372 8.52248 62.8212 8.4979C63.0053 8.47331 63.1926 8.49103 63.3688 8.54972C63.545 8.60841 63.7054 8.70652 63.838 8.83658C64.593 9.43658 65.272 10.1506 66.038 10.7296C66.4164 11.0497 66.8829 11.2477 67.376 11.2976C74.756 11.3316 82.138 11.4076 89.517 11.2816C92.605 11.2286 94.782 12.3466 95.808 15.7276V76.0936C94.472 79.7436 93.289 80.6196 89.691 80.6196C80.547 80.6196 71.4033 80.6196 62.26 80.6196C61.885 80.6196 61.509 80.6566 61.113 80.6776V92.3536H62.135C63.121 92.3536 64.108 92.3256 65.093 92.3676C65.4671 92.4047 65.8136 92.5809 66.064 92.8613C66.3143 93.1417 66.4502 93.506 66.4448 93.8818C66.4394 94.2577 66.2931 94.6179 66.0348 94.891C65.7764 95.1641 65.425 95.3303 65.05 95.3566C64.782 95.3716 64.512 95.3616 64.243 95.3616H35.461C35.0429 95.38 34.6241 95.3723 34.207 95.3386C34.0009 95.3031 33.8049 95.2236 33.6323 95.1054C33.4597 94.9873 33.3146 94.8333 33.207 94.654C33.0994 94.4747 33.0317 94.2743 33.0085 94.0664C32.9854 93.8586 33.0074 93.6482 33.073 93.4496C33.1466 93.1095 33.3437 92.8089 33.6261 92.6057C33.9085 92.4025 34.2562 92.3113 34.602 92.3496C35.847 92.3586 37.091 92.3496 38.37 92.3496V80.6196H37.192C27.9587 80.6196 18.7253 80.6196 9.492 80.6196C6.583 80.6196 5.031 79.3456 4.103 76.2576C4.07728 76.1995 4.04362 76.1454 4.003 76.0966V15.7196M41.157 92.2906H58.282V80.6726H41.154L41.157 92.2906Z" stroke="#F5F5F5" stroke-width="1.5"/>
<path d="M56.8843 44.4494C57.5843 46.2634 57.4104 47.3494 56.3404 48.1374C55.9005 48.4524 55.3716 48.6185 54.8306 48.6117C54.2897 48.6049 53.7651 48.4254 53.3334 48.0994C52.2994 47.3104 52.1333 46.2414 52.8113 44.4994H47.6564C48.3014 46.3504 48.1074 47.4144 46.9994 48.1844C46.5501 48.4853 46.016 48.634 45.4759 48.6084C44.9358 48.5828 44.4182 48.3844 43.9994 48.0424C42.9994 47.2194 42.8614 46.1294 43.5704 44.5014C43.3894 44.4844 43.2274 44.4634 43.0644 44.4554C42.0244 44.4044 41.6504 44.0974 41.4484 43.0384C40.259 36.7977 39.0744 30.5544 37.8944 24.3084C37.8724 24.1914 37.8614 24.0714 37.8384 23.9544C37.4644 22.0444 37.4634 22.0444 35.5574 21.8444C35.3776 21.8413 35.2003 21.8025 35.0358 21.7302C34.8712 21.6578 34.7227 21.5535 34.5989 21.4232C34.4751 21.2928 34.3785 21.1392 34.3147 20.9711C34.2509 20.8031 34.2212 20.624 34.2274 20.4444C34.232 20.2647 34.2734 20.0878 34.3489 19.9247C34.4244 19.7616 34.5326 19.6156 34.6666 19.4958C34.8006 19.376 34.9578 19.2849 35.1283 19.2281C35.2989 19.1712 35.4792 19.1499 35.6584 19.1654C36.0464 19.1504 36.4354 19.1564 36.8234 19.1654C37.6391 19.125 38.44 19.3935 39.0665 19.9175C39.693 20.4415 40.0989 21.1824 40.2033 21.9924C40.2843 22.3924 40.3614 22.8014 40.4524 23.2694H41.5664C47.689 23.2694 53.812 23.2694 59.9354 23.2694C61.7964 23.2694 62.3483 23.9624 61.9983 25.7834C61.2593 29.6204 60.5394 33.4614 59.8034 37.2994C59.5574 38.5834 59.1974 38.8664 57.8554 38.8674C53.4047 38.8674 48.9544 38.8674 44.5044 38.8674H43.4044C43.5724 39.7924 43.6844 40.6374 43.9094 41.4514C43.9554 41.6164 44.4323 41.7514 44.7093 41.7514C48.8913 41.7704 53.0724 41.7644 57.2544 41.7644C57.4934 41.7644 57.7333 41.7524 57.9703 41.7724C58.3182 41.7819 58.6487 41.9268 58.8913 42.1762C59.134 42.4256 59.2698 42.7599 59.2698 43.1079C59.2698 43.4559 59.134 43.7902 58.8913 44.0396C58.6487 44.289 58.3182 44.4339 57.9703 44.4434C57.6193 44.4744 57.2633 44.4484 56.8823 44.4484M41.6594 29.6644H45.6264C45.5344 28.4204 45.4473 27.2434 45.3583 26.0354H40.9584L41.6584 29.6644M59.2163 26.0294H54.9253C54.8423 27.2724 54.7633 28.4484 54.6813 29.6784H58.5093L59.2163 26.0294ZM48.3294 29.6514H51.9533L52.2274 26.0384H48.0644L48.3294 29.6514ZM46.1054 36.1784C46.0054 34.8644 45.9104 33.6654 45.8184 32.4664H42.1854C42.3854 33.5774 42.5593 34.6354 42.7853 35.6794C42.8224 35.7928 42.8866 35.8954 42.9724 35.9784C43.0581 36.0613 43.1628 36.1221 43.2774 36.1554C44.1914 36.2034 45.1094 36.1774 46.1014 36.1774M57.2803 36.1514L57.9804 32.4734H54.4544C54.3694 33.7244 54.2874 34.9204 54.2044 36.1514H57.2803ZM48.5324 32.4694C48.6324 33.7294 48.7204 34.9274 48.8124 36.1314H51.4804C51.5664 34.8904 51.6493 33.6944 51.7353 32.4694H48.5324Z" fill="url(#paint0_linear_1066_2162)"/>
<path d="M56.8843 44.4494C57.5843 46.2634 57.4104 47.3494 56.3404 48.1374C55.9005 48.4524 55.3716 48.6185 54.8306 48.6117C54.2897 48.6049 53.7651 48.4254 53.3334 48.0994C52.2994 47.3104 52.1333 46.2414 52.8113 44.4994H47.6564C48.3014 46.3504 48.1074 47.4144 46.9994 48.1844C46.5501 48.4853 46.016 48.634 45.4759 48.6084C44.9358 48.5828 44.4182 48.3844 43.9994 48.0424C42.9994 47.2194 42.8614 46.1294 43.5704 44.5014C43.3894 44.4844 43.2274 44.4634 43.0644 44.4554C42.0244 44.4044 41.6504 44.0974 41.4484 43.0384C40.259 36.7977 39.0744 30.5544 37.8944 24.3084C37.8724 24.1914 37.8614 24.0714 37.8384 23.9544C37.4644 22.0444 37.4634 22.0444 35.5574 21.8444C35.3776 21.8413 35.2003 21.8025 35.0358 21.7302C34.8712 21.6578 34.7227 21.5535 34.5989 21.4232C34.4751 21.2928 34.3785 21.1392 34.3147 20.9711C34.2509 20.8031 34.2212 20.624 34.2274 20.4444C34.232 20.2647 34.2734 20.0878 34.3489 19.9247C34.4244 19.7616 34.5326 19.6156 34.6666 19.4958C34.8006 19.376 34.9578 19.2849 35.1283 19.2281C35.2989 19.1712 35.4792 19.1499 35.6584 19.1654C36.0464 19.1504 36.4354 19.1564 36.8234 19.1654C37.6391 19.125 38.44 19.3935 39.0665 19.9175C39.693 20.4415 40.0989 21.1824 40.2033 21.9924C40.2843 22.3924 40.3614 22.8014 40.4524 23.2694H41.5664C47.689 23.2694 53.812 23.2694 59.9354 23.2694C61.7964 23.2694 62.3483 23.9624 61.9983 25.7834C61.2593 29.6204 60.5394 33.4614 59.8034 37.2994C59.5574 38.5834 59.1974 38.8664 57.8554 38.8674C53.4047 38.8674 48.9544 38.8674 44.5044 38.8674H43.4044C43.5724 39.7924 43.6844 40.6374 43.9094 41.4514C43.9554 41.6164 44.4323 41.7514 44.7093 41.7514C48.8913 41.7704 53.0724 41.7644 57.2544 41.7644C57.4934 41.7644 57.7333 41.7524 57.9703 41.7724C58.3182 41.7819 58.6487 41.9268 58.8913 42.1762C59.134 42.4256 59.2698 42.7599 59.2698 43.1079C59.2698 43.4559 59.134 43.7902 58.8913 44.0396C58.6487 44.289 58.3182 44.4339 57.9703 44.4434C57.6193 44.4744 57.2633 44.4484 56.8823 44.4484M41.6594 29.6644H45.6264C45.5344 28.4204 45.4473 27.2434 45.3583 26.0354H40.9584L41.6584 29.6644M46.1054 36.1784C46.0054 34.8644 45.9104 33.6654 45.8184 32.4664H42.1854C42.3854 33.5774 42.5593 34.6354 42.7853 35.6794C42.8224 35.7928 42.8866 35.8954 42.9724 35.9784C43.0581 36.0613 43.1628 36.1221 43.2774 36.1554C44.1914 36.2034 45.1094 36.1774 46.1014 36.1774M59.2163 26.0294H54.9253C54.8423 27.2724 54.7633 28.4484 54.6813 29.6784H58.5093L59.2163 26.0294ZM48.3294 29.6514H51.9533L52.2274 26.0384H48.0644L48.3294 29.6514ZM57.2803 36.1514L57.9804 32.4734H54.4544C54.3694 33.7244 54.2874 34.9204 54.2044 36.1514H57.2803ZM48.5324 32.4694C48.6324 33.7294 48.7204 34.9274 48.8124 36.1314H51.4804C51.5664 34.8904 51.6493 33.6944 51.7353 32.4694H48.5324Z" stroke="#F5F5F5" stroke-width="1.5"/>
<path d="M82.4299 27.7284C81.2299 27.7284 80.1849 27.7484 79.1439 27.7214C78.4499 27.7034 77.8439 27.3644 77.7979 26.6604C77.8258 26.1519 78.0253 25.6678 78.3639 25.2874C78.5339 25.0754 79.0189 25.0664 79.3639 25.0564C80.3419 25.0284 81.3209 25.0464 82.4199 25.0464C82.4199 23.9724 82.3758 22.9934 82.4388 22.0204C82.4312 21.5539 82.5897 21.0999 82.8859 20.7394C83.0642 20.5712 83.2869 20.4574 83.5278 20.4115C83.7686 20.3655 84.0176 20.3893 84.2453 20.4801C84.4731 20.5709 84.6702 20.7248 84.8134 20.9238C84.9567 21.1228 85.0401 21.3586 85.0539 21.6034C85.1659 22.6924 85.0919 23.8034 85.0919 25.0464C86.1599 25.0464 87.1319 25.0414 88.1039 25.0464C89.1879 25.0534 89.7889 25.5024 89.8239 26.3194C89.8599 27.1604 89.2049 27.7134 88.1179 27.7314C87.1649 27.7464 86.2118 27.7314 85.1068 27.7314C85.1068 28.7654 85.1338 29.7384 85.0938 30.7084C85.1258 31.118 85.0176 31.5264 84.7869 31.8664C84.4203 32.1859 83.9469 32.3558 83.4608 32.3424C83.1576 32.3026 82.8814 32.147 82.6902 31.9083C82.499 31.6695 82.4075 31.3661 82.4348 31.0614C82.4078 29.9924 82.4279 28.9224 82.4279 27.7244" fill="#141414"/>
<path d="M82.4299 27.7284C81.2299 27.7284 80.1849 27.7484 79.1439 27.7214C78.4499 27.7034 77.8439 27.3644 77.7979 26.6604C77.8258 26.1519 78.0253 25.6678 78.3639 25.2874C78.5339 25.0754 79.0189 25.0664 79.3639 25.0564C80.3419 25.0284 81.3209 25.0464 82.4199 25.0464C82.4199 23.9724 82.3758 22.9934 82.4388 22.0204C82.4312 21.5539 82.5897 21.0999 82.8859 20.7394C83.0642 20.5712 83.2869 20.4574 83.5278 20.4115C83.7686 20.3655 84.0176 20.3893 84.2453 20.4801C84.4731 20.5709 84.6702 20.7248 84.8134 20.9238C84.9567 21.1228 85.0401 21.3586 85.0539 21.6034C85.1659 22.6924 85.0919 23.8034 85.0919 25.0464C86.1599 25.0464 87.1319 25.0414 88.1039 25.0464C89.1879 25.0534 89.7889 25.5024 89.8239 26.3194C89.8599 27.1604 89.2049 27.7134 88.1179 27.7314C87.1649 27.7464 86.2118 27.7314 85.1068 27.7314C85.1068 28.7654 85.1338 29.7384 85.0938 30.7084C85.1258 31.118 85.0176 31.5264 84.7869 31.8664C84.4203 32.1859 83.9469 32.3558 83.4608 32.3424C83.1576 32.3026 82.8814 32.147 82.6902 31.9083C82.499 31.6695 82.4075 31.3661 82.4348 31.0614C82.4078 29.9924 82.4279 28.9224 82.4279 27.7244" stroke="#F5F5F5" stroke-width="1.5"/>
<path d="M20.2223 60.1157C17.8633 60.1157 15.5043 60.1157 13.1453 60.1157C12.0453 60.1157 11.4013 59.5937 11.4183 58.7427C11.4343 57.9187 12.0463 57.4317 13.1043 57.4307C17.8223 57.4267 22.54 57.4267 27.2573 57.4307C28.3223 57.4307 28.9173 57.9107 28.9283 58.7467C28.9393 59.6167 28.3283 60.1137 27.2093 60.1167C24.8803 60.1227 22.5513 60.1157 20.2223 60.1157Z" fill="#141414" stroke="#F5F5F5" stroke-width="1.5"/>
<path d="M16.8249 50.6058C18.0459 50.6058 19.2669 50.5948 20.4869 50.6058C21.4439 50.6168 22.0579 51.1578 22.0579 51.9498C22.0579 52.7418 21.4579 53.2818 20.4879 53.2868C17.9873 53.2988 15.4873 53.2988 12.9879 53.2868C12.0199 53.2868 11.4209 52.7498 11.4199 51.9508C11.4189 51.1518 12.0269 50.6168 12.9869 50.6058C14.2669 50.5918 15.5479 50.6058 16.8279 50.6058" fill="#141414"/>
<path d="M16.8249 50.6058C18.0459 50.6058 19.2669 50.5948 20.4869 50.6058C21.4439 50.6168 22.0579 51.1578 22.0579 51.9498C22.0579 52.7418 21.4579 53.2818 20.4879 53.2868C17.9873 53.2988 15.4873 53.2988 12.9879 53.2868C12.0199 53.2868 11.4209 52.7498 11.4199 51.9508C11.4189 51.1518 12.0269 50.6168 12.9869 50.6058C14.2669 50.5918 15.5479 50.6058 16.8279 50.6058" stroke="#F5F5F5" stroke-width="1.5"/>
</g>
<defs>
<linearGradient id="paint0_linear_1066_2162" x1="45.1885" y1="62.3792" x2="75.9142" y2="38.8898" gradientUnits="userSpaceOnUse">
<stop stop-color="#9358F7"/>
<stop offset="0.259732" stop-color="#7B78F2"/>
<stop offset="0.500607" stop-color="#6197EE"/>
<stop offset="0.766547" stop-color="#45B5E9"/>
<stop offset="1" stop-color="#10D7E2"/>
</linearGradient>
<clipPath id="clip0_1066_2162">
<rect width="100" height="100" fill="white"/>
</clipPath>
</defs>
</svg>
