<svg width="40" height="40" viewBox="0 0 40 40" fill="none" xmlns="http://www.w3.org/2000/svg">
<path d="M6 11L6 30C6 31.1046 6.89543 32 8 32H32C33.1046 32 34 31.1046 34 30V11C34 9.89543 33.1046 9 32 9H8C6.89543 9 6 9.89543 6 11Z" stroke="white" stroke-width="2"/>
<path d="M31.5 9H8.5C7.11929 9 6 10.1193 6 11.5C6 12.8807 7.11929 14 8.5 14H31.5C32.8807 14 34 12.8807 34 11.5C34 10.1193 32.8807 9 31.5 9Z" stroke="white" stroke-width="2"/>
<path d="M24 26L27 23L24 20" stroke="white" stroke-width="2"/>
<path d="M15 26L12 23L15 20" stroke="white" stroke-width="2"/>
<path d="M17 29L22 18" stroke="white" stroke-width="2"/>
</svg>
