<svg width="44" height="44" viewBox="0 0 44 44" fill="none" xmlns="http://www.w3.org/2000/svg">
<path d="M6.5 37C6.5 36.7239 6.72386 36.5 7 36.5H37C37.2761 36.5 37.5 36.7239 37.5 37V39.5H6.5V37Z" stroke="black"/>
<path d="M8.5 31C8.5 30.7239 8.72386 30.5 9 30.5H10C10.2761 30.5 10.5 30.7239 10.5 31V36.5H8.5V31Z" stroke="black"/>
<path d="M33.5 34C33.5 33.7239 33.7239 33.5 34 33.5H35C35.2761 33.5 35.5 33.7239 35.5 34V36.5H33.5V34Z" stroke="black"/>
<path d="M9.5 30V22.5M34.5 33.5V20.5" stroke="black"/>
<mask id="path-5-inside-1_128_186" fill="white">
<path fill-rule="evenodd" clip-rule="evenodd" d="M34.2337 21.2176C36.2464 20.6184 37.3922 18.5011 36.793 16.4884L33.8365 6.55817C33.2373 4.54553 31.1199 3.39971 29.1073 3.99892C28.7719 4.09879 28.5809 4.45168 28.6808 4.78712L30.6682 11.4627L9.60512 17.75L9.39367 16.991C9.24545 16.459 8.694 16.1478 8.16198 16.2961L7.19867 16.5645C6.66664 16.7127 6.35551 17.2641 6.50374 17.7962L7.84566 22.6127C7.99389 23.1447 8.54534 23.4559 9.07736 23.3076L10.0407 23.0393C10.5727 22.891 10.8838 22.3396 10.7356 21.8076L10.4104 20.6404L31.5243 14.338L33.4455 20.7911C33.5454 21.1265 33.8983 21.3175 34.2337 21.2176Z"/>
</mask>
<path d="M36.793 16.4884L37.7514 16.2031L36.793 16.4884ZM34.2337 21.2176L34.5191 22.176L34.2337 21.2176ZM33.8365 6.55817L32.8781 6.84352V6.84352L33.8365 6.55817ZM29.1073 3.99892L29.3926 4.95735L29.1073 3.99892ZM28.6808 4.78712L27.7223 5.07247V5.07247L28.6808 4.78712ZM30.6682 11.4627L30.9543 12.421L31.9118 12.1351L31.6267 11.1774L30.6682 11.4627ZM9.60512 17.75L8.64181 18.0183L8.91517 18.9995L9.89115 18.7082L9.60512 17.75ZM9.39367 16.991L8.43036 17.2594H8.43036L9.39367 16.991ZM8.16198 16.2961L7.89359 15.3328L8.16198 16.2961ZM7.19867 16.5645L7.46705 17.5278H7.46705L7.19867 16.5645ZM6.50374 17.7962L5.54043 18.0645L6.50374 17.7962ZM7.84566 22.6127L8.80898 22.3443L7.84566 22.6127ZM9.07736 23.3076L9.34574 24.271H9.34575L9.07736 23.3076ZM10.0407 23.0393L10.3091 24.0026L10.3091 24.0026L10.0407 23.0393ZM10.7356 21.8076L11.6989 21.5392L10.7356 21.8076ZM10.4104 20.6404L10.1244 19.6822L9.1836 19.963L9.4471 20.9088L10.4104 20.6404ZM31.5243 14.338L32.4827 14.0527L32.1972 13.0936L31.2383 13.3798L31.5243 14.338ZM33.4455 20.7911L32.4871 21.0764L32.4871 21.0764L33.4455 20.7911ZM35.8345 16.7738C36.2762 18.2571 35.4317 19.8176 33.9484 20.2592L34.5191 22.176C37.061 21.4192 38.5082 18.7451 37.7514 16.2031L35.8345 16.7738ZM32.8781 6.84352L35.8345 16.7738L37.7514 16.2031L34.7949 6.27283L32.8781 6.84352ZM29.3926 4.95735C30.876 4.51573 32.4364 5.3602 32.8781 6.84352L34.7949 6.27283C34.0381 3.73086 31.3639 2.28369 28.822 3.0405L29.3926 4.95735ZM29.6392 4.50178C29.6969 4.69566 29.5865 4.89963 29.3926 4.95735L28.822 3.0405C27.9572 3.29796 27.4649 4.2077 27.7223 5.07247L29.6392 4.50178ZM31.6267 11.1774L29.6392 4.50178L27.7223 5.07247L29.7098 11.7481L31.6267 11.1774ZM30.3822 10.5045L9.3191 16.7917L9.89115 18.7082L30.9543 12.421L30.3822 10.5045ZM10.5684 17.4816L10.357 16.7226L8.43036 17.2594L8.64181 18.0183L10.5684 17.4816ZM10.357 16.7226C10.0605 15.6586 8.95764 15.0363 7.89359 15.3328L8.43036 17.2594L8.43036 17.2594L10.357 16.7226ZM7.89359 15.3328L6.93028 15.6011L7.46705 17.5278L8.43036 17.2594L7.89359 15.3328ZM6.93028 15.6011C5.86624 15.8976 5.24398 17.0005 5.54043 18.0645L7.46705 17.5278V17.5278L6.93028 15.6011ZM5.54043 18.0645L6.88235 22.8811L8.80898 22.3443L7.46705 17.5278L5.54043 18.0645ZM6.88235 22.8811C7.1788 23.9451 8.2817 24.5674 9.34574 24.271L8.80898 22.3443H8.80898L6.88235 22.8811ZM9.34575 24.271L10.3091 24.0026L9.77229 22.0759L8.80898 22.3443L9.34575 24.271ZM10.3091 24.0026C11.3731 23.7061 11.9954 22.6032 11.6989 21.5392L9.77229 22.0759H9.77229L10.3091 24.0026ZM11.6989 21.5392L11.3737 20.372L9.4471 20.9088L9.77229 22.0759L11.6989 21.5392ZM10.6964 21.5986L31.8103 15.2962L31.2383 13.3798L10.1244 19.6822L10.6964 21.5986ZM34.4039 20.5057L32.4827 14.0527L30.5659 14.6234L32.4871 21.0764L34.4039 20.5057ZM33.9484 20.2592C34.1422 20.2015 34.3462 20.3118 34.4039 20.5057L32.4871 21.0764C32.7445 21.9412 33.6543 22.4335 34.5191 22.176L33.9484 20.2592Z" fill="black" mask="url(#path-5-inside-1_128_186)"/>
<path d="M18.5 20.5L17 35.5L25.25 28.25M18.5 20.5H24.5M18.5 20.5L25.25 28.25M24.5 20.5L18 28L26 35.5L25.25 28.25M24.5 20.5L25.25 28.25" stroke="black"/>
<path d="M20.5 18.5C20.5 17.9477 20.9477 17.5 21.5 17.5C22.0523 17.5 22.5 17.9477 22.5 18.5V20.5H20.5V18.5Z" stroke="black"/>
</svg>
