<svg width="44" height="44" viewBox="0 0 44 44" fill="none" xmlns="http://www.w3.org/2000/svg">
<circle cx="21.5" cy="21.5" r="11" stroke="black"/>
<path d="M26.5 21.5C26.5 24.6237 25.9485 27.4279 25.077 29.4324C24.6409 30.4354 24.1345 31.2156 23.5976 31.7379C23.063 32.2579 22.5238 32.5 22 32.5C21.4762 32.5 20.937 32.2579 20.4024 31.7379C19.8655 31.2156 19.3591 30.4354 18.923 29.4324C18.0515 27.4279 17.5 24.6237 17.5 21.5C17.5 18.3763 18.0515 15.5721 18.923 13.5676C19.3591 12.5646 19.8655 11.7844 20.4024 11.2621C20.937 10.7421 21.4762 10.5 22 10.5C22.5238 10.5 23.063 10.7421 23.5976 11.2621C24.1345 11.7844 24.6409 12.5646 25.077 13.5676C25.9485 15.5721 26.5 18.3763 26.5 21.5Z" stroke="black"/>
<path d="M11.5 18H31.5M11.5 26H31.5M22 4.5C42.5 4.5 47 34.5 22 37.5" stroke="black" stroke-linecap="round"/>
<path d="M11.5 10C2 13 -0.5 36.5 22 37.5" stroke="black" stroke-linecap="round"/>
<path d="M5.99925 15.5C3.51953 10.064 8.54779 5.0109 14.499 5.99965" stroke="black" stroke-linecap="round"/>
<path d="M6.27785 15.7909C11.2445 18.1547 15.5666 11.9911 14.5002 6" stroke="black" stroke-linecap="round"/>
</svg>
