<svg width="50" height="68" viewBox="0 0 50 68" fill="none" xmlns="http://www.w3.org/2000/svg">
<g clip-path="url(#clip0_500_2438)">
<path d="M24.8883 46.2723C23.5697 50.7035 22.2504 55.1345 20.9325 59.5659C20.2185 61.9662 19.5034 64.3661 18.797 66.7685C18.6148 67.3883 18.4051 67.9986 17.6266 68C16.9053 68.0014 16.6733 67.4408 16.4611 66.8577C15.4331 64.034 14.388 61.2165 13.3475 58.3974C13.2585 58.1565 13.1582 57.9196 13.0295 57.5963C11.5615 58.6887 10.1454 59.7422 8.72982 60.7962C7.47583 61.7301 6.21805 62.6589 4.97068 63.6017C4.51135 63.9488 4.03261 64.1438 3.51294 63.7922C2.95469 63.4143 2.99184 62.8863 3.16885 62.2937C5.29512 55.1806 7.39347 48.059 9.54128 40.9522C9.77106 40.1919 9.64966 39.9008 8.87015 39.8192C8.46572 39.7768 8.0691 39.6246 7.67816 39.495C5.39404 38.7382 4.42568 37.4262 4.42923 35.0287C4.43042 34.2047 4.47964 33.3743 4.59205 32.5584C4.82017 30.9011 4.44414 29.4767 3.2363 28.2682C2.63403 27.6657 2.0914 26.9931 1.58971 26.3028C0.144742 24.3152 0.141902 22.6012 1.60509 20.6162C2.26888 19.7155 3.02734 18.8842 3.751 18.0285C4.39042 17.2722 4.70232 16.4134 4.63133 15.4176C4.55584 14.3586 4.45763 13.2996 4.43042 12.2389C4.35966 9.48293 5.38292 8.09381 8.03975 7.32991C9.03012 7.04523 10.038 6.8197 11.0409 6.57951C12.0119 6.34688 12.7424 5.7955 13.2642 4.95422C13.7924 4.10229 14.2958 3.23356 14.8521 2.40056C16.4384 0.0250993 18.1131 -0.516822 20.7763 0.472835C21.6318 0.790652 22.479 1.1345 23.3148 1.50107C24.4652 2.00536 25.5838 1.96466 26.7408 1.49184C27.911 1.01381 29.0467 0.445621 30.2883 0.141766C31.952 -0.265266 33.307 0.21276 34.4311 1.4606C35.208 2.32318 35.7752 3.32916 36.3276 4.33515C37.0744 5.69587 38.1585 6.50236 39.6953 6.78847C40.7048 6.97636 41.717 7.19644 42.6834 7.57484C44.6443 8.34229 45.5535 9.57759 45.5611 11.6769C45.5653 12.8838 45.4565 14.0921 45.3684 15.2976C45.2884 16.3921 45.6285 17.3214 46.3384 18.1447C47.051 18.971 47.7881 19.7825 48.4292 20.6628C49.8524 22.6173 49.8444 24.3226 48.4325 26.2794C47.9505 26.9475 47.4332 27.6053 46.8446 28.178C45.5426 29.445 45.1486 30.9553 45.4328 32.702C45.5753 33.5785 45.5852 34.465 45.5719 35.3513C45.5431 37.2736 44.6242 38.5846 42.85 39.3026C42.55 39.424 42.2369 39.5129 41.9333 39.6261C41.3892 39.8289 40.5309 39.6814 40.3439 40.1763C40.1769 40.6183 40.5905 41.284 40.7581 41.8479C42.7369 48.5133 44.7174 55.1782 46.6974 61.8434C46.7561 62.041 46.8077 62.2412 46.8747 62.436C47.0571 62.967 46.9847 63.4429 46.5119 63.7761C46.0391 64.1093 45.5722 64.0011 45.127 63.6677C43.5455 62.4821 41.9586 61.3039 40.3747 60.1213C39.4056 59.3977 38.4245 58.6891 37.4763 57.9387C37.0316 57.5868 36.8787 57.7165 36.7074 58.1915C35.6673 61.0734 34.5979 63.9446 33.5529 66.8246C33.3312 67.4354 33.0952 68.0339 32.3221 67.9981C31.5497 67.9626 31.3753 67.331 31.193 66.7169C29.2507 60.1637 27.3007 53.6128 25.3507 47.0617C25.2705 46.792 25.1673 46.529 25.075 46.2628C25.0128 46.2659 24.9508 46.269 24.8883 46.2723ZM6.56024 34.4757C6.50344 36.6017 6.85605 37.083 8.93002 37.6489C9.55501 37.8195 10.188 37.9665 10.8244 38.0881C12.8607 38.4781 14.3949 39.5446 15.4092 41.3697C15.8382 42.1418 16.3068 42.8963 16.8125 43.6204C17.6763 44.8574 18.3488 45.0732 19.7744 44.5651C20.8281 44.1896 21.8616 43.7551 22.8976 43.3308C24.273 42.7675 25.6468 42.7503 27.0274 43.2988C28.1223 43.7338 29.2043 44.2061 30.3148 44.5966C31.641 45.0628 32.3263 44.8434 33.1388 43.6871C33.7652 42.7957 34.3241 41.8557 34.8914 40.9243C35.7509 39.5125 36.9838 38.6381 38.5847 38.2507C39.6721 37.9875 40.7668 37.739 41.8313 37.3994C43.0571 37.0083 43.4447 36.445 43.4412 35.1788C43.439 34.3839 43.4069 33.5823 43.3006 32.7955C42.9979 30.553 43.5074 28.59 45.1121 26.9363C45.6858 26.3452 46.2123 25.7008 46.7038 25.0387C47.5787 23.8599 47.5858 23.0752 46.7045 21.9043C46.0668 21.0566 45.3646 20.256 44.6706 19.4526C43.6132 18.2289 43.1387 16.8209 43.2481 15.2086C43.3238 14.0904 43.4204 12.9718 43.4414 11.8522C43.467 10.487 43.0621 9.92806 41.7515 9.50943C40.9114 9.24107 40.05 9.02383 39.1839 8.85605C37.1102 8.45399 35.571 7.35808 34.5511 5.5004C34.126 4.72656 33.6532 3.97332 33.1414 3.25391C32.3185 2.09765 31.6465 1.87662 30.3172 2.34211C29.2338 2.72145 28.1793 3.18339 27.1109 3.60533C25.6707 4.17376 24.2352 4.15269 22.802 3.57149C21.7918 3.16185 20.7903 2.72595 19.7621 2.36719C18.3341 1.86929 17.6665 2.08842 16.8047 3.32964C16.2337 4.15198 15.7199 5.01574 15.2052 5.87548C14.3088 7.37275 13.0347 8.32336 11.322 8.71099C10.2313 8.95781 9.1404 9.22498 8.07809 9.57096C6.95639 9.93611 6.56331 10.5133 6.56213 11.68C6.56118 12.5042 6.5929 13.3358 6.70175 14.1517C7.00087 16.3949 6.48711 18.3567 4.88502 20.0104C4.31162 20.6023 3.7839 21.2455 3.29144 21.9069C2.42247 23.0747 2.41679 23.8765 3.30114 25.0415C3.99617 25.9571 4.77095 26.8116 5.49959 27.7021C6.37471 28.7715 6.81818 29.9971 6.75263 31.3848C6.70388 32.4159 6.62532 33.4453 6.56024 34.4757ZM22.852 45.6464C21.929 46.0106 21.2278 46.3146 20.5082 46.5664C18.1751 47.3824 16.5574 46.8873 15.0956 44.8865C14.6275 44.2459 14.2534 43.5376 13.8173 42.8726C13.4625 42.3316 13.1215 41.7724 12.6993 41.2866C12.0275 40.5135 11.841 40.5693 11.5582 41.5223C9.82454 47.3649 8.09182 53.2079 6.3598 59.051C6.27271 59.3449 6.11369 59.6272 6.18444 60.0189C6.4838 59.8054 6.74861 59.6237 7.00561 59.432C8.89642 58.0223 10.7797 56.6022 12.6783 55.2031C13.6047 54.5204 14.2577 54.7144 14.6614 55.7796C15.1205 56.991 15.5467 58.2147 15.9939 59.4303C16.471 60.7274 16.9561 62.0216 17.5274 63.5579C19.3361 57.4735 21.0686 51.6461 22.852 45.6464ZM32.5545 63.3717C33.4698 60.8793 34.3712 58.4191 35.2769 55.9606C35.7556 54.6607 36.3626 54.474 37.4621 55.2921C39.3794 56.7188 41.2917 58.1522 43.2093 59.5787C43.3986 59.7195 43.6094 59.8317 43.918 60.0243C43.8141 59.6405 43.758 59.4138 43.6916 59.1901C42.0381 53.6261 40.3896 48.0604 38.7205 42.5008C38.5414 41.9043 38.5644 40.8973 38.0295 40.8346C37.3577 40.756 36.9658 41.6492 36.5803 42.2363C35.9977 43.123 35.4953 44.0663 34.8722 44.9224C33.4549 46.8701 31.8933 47.3533 29.6106 46.5989C28.8365 46.343 28.0854 46.0172 27.3038 45.7155C27.3679 46.5605 32.1581 62.6717 32.5547 63.3714L32.5545 63.3717Z" fill="white"/>
<path d="M24.96 37.6269C17.1075 37.5951 10.808 31.2542 10.8331 23.4065C10.8582 15.582 17.2706 9.24083 25.0858 9.31206C32.9529 9.38376 39.2056 15.7176 39.1678 23.5767C39.1304 31.3536 32.7549 37.6583 24.96 37.6269ZM24.9143 35.5011C31.5125 35.5657 36.9861 30.2042 37.042 23.6216C37.0988 16.9423 31.8192 11.5432 25.1299 11.4402C18.5449 11.3387 13.0237 16.707 12.9596 23.273C12.8938 30.0026 18.2051 35.4355 24.9143 35.5013V35.5011Z" fill="white"/>
<path d="M20.4353 31.1616C19.6882 31.19 19.2126 30.5388 19.3908 29.6828C19.6371 28.5005 19.8863 27.3178 20.184 26.148C20.3383 25.5417 20.2571 25.1162 19.7365 24.6979C18.8179 23.9598 17.9711 23.1329 17.0844 22.3543C16.6859 22.0043 16.3695 21.6212 16.5326 21.0568C16.7079 20.4496 17.2174 20.2929 17.7716 20.2361C19.0034 20.11 20.2339 19.9545 21.469 19.8826C22.0019 19.8516 22.231 19.626 22.4194 19.1667C22.8889 18.0228 23.4157 16.9022 23.9079 15.7673C24.1199 15.2781 24.3966 14.8822 24.9915 14.8775C25.5857 14.8728 25.8732 15.2564 26.0867 15.7488C26.5908 16.9108 27.1282 18.0585 27.61 19.2294C27.791 19.6696 28.0281 19.8402 28.5137 19.8705C29.7195 19.9455 30.92 20.1003 32.1228 20.2233C32.6998 20.2823 33.2614 20.3923 33.462 21.0395C33.6504 21.6472 33.2808 22.037 32.8657 22.4031C31.9589 23.2034 31.0795 24.0362 30.1502 24.8088C29.7486 25.1425 29.6674 25.4717 29.7836 25.9549C30.073 27.1576 30.3106 28.3725 30.5898 29.5778C30.712 30.105 30.6999 30.5821 30.2389 30.9385C29.7687 31.3022 29.3065 31.1654 28.8427 30.8904C27.7527 30.2441 26.6423 29.631 25.5673 28.9615C25.16 28.7078 24.8571 28.7064 24.45 28.9589C23.3986 29.6111 22.3162 30.2134 21.2458 30.8353C20.9915 30.9832 20.7423 31.1446 20.4351 31.1609L20.4353 31.1616ZM29.9386 22.1586C28.9712 22.0647 28.2397 21.9752 27.5056 21.9277C26.7488 21.8789 26.2519 21.5521 25.9816 20.8138C25.7258 20.115 25.3782 19.4497 24.9953 18.6028C24.614 19.4583 24.2773 20.1088 24.0319 20.7922C23.7526 21.5699 23.2197 21.8891 22.4314 21.9352C21.7125 21.9774 20.9967 22.0739 20.0912 22.1653C20.7749 22.781 21.2884 23.3009 21.8611 23.7446C22.5112 24.2482 22.656 24.8481 22.47 25.6177C22.2977 26.3312 22.0585 27.0411 22.0571 27.9028C22.8162 27.4628 23.4919 27.106 24.1299 26.6911C24.7205 26.3071 25.2615 26.2985 25.8562 26.6743C26.5207 27.0941 27.2136 27.4688 28.0393 27.947C27.8578 27.0889 27.7482 26.3937 27.5591 25.7209C27.3251 24.8886 27.4687 24.2411 28.1971 23.7035C28.7577 23.2896 29.2469 22.7791 29.9384 22.1584L29.9386 22.1586Z" fill="white"/>
</g>
<defs>
<clipPath id="clip0_500_2438">
<rect width="48.9873" height="68" fill="white" transform="translate(0.506348)"/>
</clipPath>
</defs>
</svg>
