<svg width="40" height="40" viewBox="0 0 40 40" fill="none" xmlns="http://www.w3.org/2000/svg">
<path d="M11 10H5C3.89543 10 3 10.8954 3 12C3 13.1046 3.89543 14 5 14H11C12.1046 14 13 13.1046 13 12C13 10.8954 12.1046 10 11 10Z" stroke="white" stroke-width="2"/>
<path d="M35 10H29C27.8954 10 27 10.8954 27 12C27 13.1046 27.8954 14 29 14H35C36.1046 14 37 13.1046 37 12C37 10.8954 36.1046 10 35 10Z" stroke="white" stroke-width="2"/>
<path d="M11 18H5C3.89543 18 3 18.8954 3 20C3 21.1046 3.89543 22 5 22H11C12.1046 22 13 21.1046 13 20C13 18.8954 12.1046 18 11 18Z" stroke="white" stroke-width="2"/>
<path d="M35 18H29C27.8954 18 27 18.8954 27 20C27 21.1046 27.8954 22 29 22H35C36.1046 22 37 21.1046 37 20C37 18.8954 36.1046 18 35 18Z" stroke="white" stroke-width="2"/>
<path d="M11 26H5C3.89543 26 3 26.8954 3 28C3 29.1046 3.89543 30 5 30H11C12.1046 30 13 29.1046 13 28C13 26.8954 12.1046 26 11 26Z" stroke="white" stroke-width="2"/>
<path d="M35 26H29C27.8954 26 27 26.8954 27 28C27 29.1046 27.8954 30 29 30H35C36.1046 30 37 29.1046 37 28C37 26.8954 36.1046 26 35 26Z" stroke="white" stroke-width="2"/>
<path d="M20.7324 20.0746L24.9751 15.832" stroke="white" stroke-width="2"/>
<path d="M20.7324 13L24.268 16.5355" stroke="white" stroke-width="2"/>
<path d="M23 16.5547H16" stroke="white" stroke-width="2"/>
<path d="M20.2441 27.856L16.0015 23.6133" stroke="white" stroke-width="2"/>
<path d="M20.244 20.7812L16.7085 24.3168" stroke="white" stroke-width="2"/>
<path d="M17.9766 24.3359H24.9766" stroke="white" stroke-width="2"/>
</svg>
