<svg width="44" height="44" viewBox="0 0 44 44" fill="none" xmlns="http://www.w3.org/2000/svg">
<rect x="6.5" y="5.5" width="23" height="33" rx="0.5" stroke="black"/>
<path d="M15.5 8H20.5" stroke="black" stroke-linecap="round"/>
<path d="M10.5 31C11 26 14 19.5 14 19.5C14.1953 16.9616 14 13 14.5 13C15 13 15.5 13 15.5 13C15.5 13 16 17 18 17C20 17 20.5 13 20.5 13C20.5 13 21 13 21.5 13C22 13 22 19.5 22 19.5C22 19.5 25.5 25.5 25.5 31" stroke="black" stroke-linecap="round"/>
<path d="M16 21.501C14.3413 24.8656 14.0109 26.9938 14 31.001M18 21.501V31.001M20 21.501C21.7474 24.6879 21.6742 26.859 22 31.001M14.5 19.501C14.5 19.501 15.0634 20.001 15.5 20.001C15.9366 20.001 16.0678 19.5628 16.5 19.501C17.1113 19.4137 17.3825 20.001 18 20.001C18.6175 20.001 18.8887 19.4137 19.5 19.501C19.9322 19.5628 20.0678 19.9393 20.5 20.001C21.1113 20.0884 22 19.501 22 19.501" stroke="black" stroke-linecap="round"/>
<rect x="15.5" y="34.5" width="5" height="2" rx="0.5" stroke="black"/>
<path d="M32 35V8.5C32 8.5 32 6.5 34.5 6.5C37 6.5 37 8.5 37 8.5V35L34.5 38L32 35ZM32 35L34.5 34.5L36.5 35M34.5 34V12.5M31 10C31.4 10 35.8333 10 38 10" stroke="black" stroke-linecap="round"/>
</svg>
