<svg width="96" height="96" viewBox="0 0 96 96" fill="none" xmlns="http://www.w3.org/2000/svg">
<g clip-path="url(#clip0_1008_573)">
<mask id="mask0_1008_573" style="mask-type:luminance" maskUnits="userSpaceOnUse" x="0" y="0" width="96" height="96">
<path d="M96 0H0V96H96V0Z" fill="white"/>
</mask>
<g mask="url(#mask0_1008_573)">
<mask id="mask1_1008_573" style="mask-type:luminance" maskUnits="userSpaceOnUse" x="0" y="0" width="96" height="96">
<path d="M96 0H0V96H96V0Z" fill="white"/>
</mask>
<g mask="url(#mask1_1008_573)">
<path d="M-2 52H26" stroke="url(#paint0_linear_1008_573)" stroke-width="2" stroke-linecap="round" stroke-linejoin="round"/>
<path d="M6 40H34" stroke="url(#paint1_linear_1008_573)" stroke-width="2" stroke-linecap="round" stroke-linejoin="round"/>
<path d="M8 62H34" stroke="url(#paint2_linear_1008_573)" stroke-width="2" stroke-linecap="round" stroke-linejoin="round"/>
<path d="M24.7389 34.14C30.9389 23.3 42.6189 16 55.9989 16C75.8789 16 91.9989 32.12 91.9989 52C91.9989 71.88 75.8789 88 55.9989 88C41.9789 88 29.8189 79.98 23.8789 68.26" stroke="#28292B" stroke-width="2" stroke-miterlimit="10" stroke-dasharray="4 4"/>
<path d="M56 16V8" stroke="#28292B" stroke-width="2" stroke-miterlimit="10"/>
<path d="M50 8H62" stroke="#28292B" stroke-width="2" stroke-miterlimit="10"/>
<path d="M32 24L26 18" stroke="#28292B" stroke-width="2" stroke-miterlimit="10"/>
<path d="M30 14L22 22" stroke="#28292B" stroke-width="2" stroke-miterlimit="10"/>
<path d="M78 24L84 18" stroke="#28292B" stroke-width="2" stroke-miterlimit="10"/>
<path d="M80 14L88 22" stroke="#28292B" stroke-width="2" stroke-miterlimit="10"/>
<path d="M39.4609 31.94C43.9609 28.24 49.7209 26 56.0009 26C63.5009 26 70.2609 29.18 75.0009 34.26" stroke="#28292B" stroke-width="2" stroke-miterlimit="10"/>
<path d="M51 57.3203L44 62.0003" stroke="url(#paint3_linear_1008_573)" stroke-width="2" stroke-linecap="round" stroke-linejoin="round"/>
<path d="M80 38L61 50.68" stroke="url(#paint4_linear_1008_573)" stroke-width="2" stroke-linecap="round" stroke-linejoin="round"/>
<path d="M56 60C59.3137 60 62 57.3137 62 54C62 50.6863 59.3137 48 56 48C52.6863 48 50 50.6863 50 54C50 57.3137 52.6863 60 56 60Z" stroke="url(#paint5_linear_1008_573)" stroke-width="2" stroke-linecap="round" stroke-linejoin="round"/>
</g>
</g>
</g>
<defs>
<linearGradient id="paint0_linear_1008_573" x1="nan" y1="nan" x2="nan" y2="nan" gradientUnits="userSpaceOnUse">
<stop stop-color="#9358F6"/>
<stop offset="0.26" stop-color="#7A78F2"/>
<stop offset="0.515" stop-color="#6197ED"/>
<stop offset="0.76" stop-color="#44B5E9"/>
<stop offset="1" stop-color="#0FD7E1"/>
</linearGradient>
<linearGradient id="paint1_linear_1008_573" x1="nan" y1="nan" x2="nan" y2="nan" gradientUnits="userSpaceOnUse">
<stop stop-color="#9358F6"/>
<stop offset="0.26" stop-color="#7A78F2"/>
<stop offset="0.515" stop-color="#6197ED"/>
<stop offset="0.76" stop-color="#44B5E9"/>
<stop offset="1" stop-color="#0FD7E1"/>
</linearGradient>
<linearGradient id="paint2_linear_1008_573" x1="nan" y1="nan" x2="nan" y2="nan" gradientUnits="userSpaceOnUse">
<stop stop-color="#9358F6"/>
<stop offset="0.26" stop-color="#7A78F2"/>
<stop offset="0.515" stop-color="#6197ED"/>
<stop offset="0.76" stop-color="#44B5E9"/>
<stop offset="1" stop-color="#0FD7E1"/>
</linearGradient>
<linearGradient id="paint3_linear_1008_573" x1="44" y1="59.6603" x2="51" y2="59.6603" gradientUnits="userSpaceOnUse">
<stop stop-color="#9358F6"/>
<stop offset="0.26" stop-color="#7A78F2"/>
<stop offset="0.515" stop-color="#6197ED"/>
<stop offset="0.76" stop-color="#44B5E9"/>
<stop offset="1" stop-color="#0FD7E1"/>
</linearGradient>
<linearGradient id="paint4_linear_1008_573" x1="61" y1="44.34" x2="80" y2="44.34" gradientUnits="userSpaceOnUse">
<stop stop-color="#9358F6"/>
<stop offset="0.26" stop-color="#7A78F2"/>
<stop offset="0.515" stop-color="#6197ED"/>
<stop offset="0.76" stop-color="#44B5E9"/>
<stop offset="1" stop-color="#0FD7E1"/>
</linearGradient>
<linearGradient id="paint5_linear_1008_573" x1="50" y1="54" x2="62" y2="54" gradientUnits="userSpaceOnUse">
<stop stop-color="#9358F6"/>
<stop offset="0.26" stop-color="#7A78F2"/>
<stop offset="0.515" stop-color="#6197ED"/>
<stop offset="0.76" stop-color="#44B5E9"/>
<stop offset="1" stop-color="#0FD7E1"/>
</linearGradient>
<clipPath id="clip0_1008_573">
<rect width="96" height="96" fill="white"/>
</clipPath>
</defs>
</svg>
