<svg width="58" height="58" viewBox="0 0 58 58" fill="none" xmlns="http://www.w3.org/2000/svg">
<mask id="mask0_1058_2021" style="mask-type:luminance" maskUnits="userSpaceOnUse" x="13" y="9" width="33" height="40">
<path d="M45.3175 9H13V49H45.3175V9Z" fill="white"/>
</mask>
<g mask="url(#mask0_1058_2021)">
<path d="M19.1596 35.1579L13 28.9984L33 9H45.3175L19.1596 35.1579ZM45.3175 27.4544H33L28.386 32.0685L34.5456 38.228" fill="white"/>
<path d="M28.3848 44.3865L32.9988 49.0005H45.3163L34.5444 38.2285" fill="white"/>
<path d="M22.2402 38.2316L28.3901 32.0801L34.54 38.23L28.3901 44.3815L22.2402 38.2316Z" fill="white"/>
<path d="M28.3887 44.3804L34.5385 38.2305L35.397 39.089L29.2471 45.2388L28.3887 44.3804Z" fill="url(#paint0_linear_1058_2021)"/>
<path d="M28.3848 44.3862L37.5239 41.2288L34.5444 38.2266" fill="url(#paint1_linear_1058_2021)"/>
</g>
<defs>
<linearGradient id="paint0_linear_1058_2021" x1="31.4648" y1="41.3043" x2="32.3233" y2="42.1628" gradientUnits="userSpaceOnUse">
<stop offset="0.2" stop-opacity="0.15"/>
<stop offset="0.85" stop-color="#616161" stop-opacity="0.01"/>
</linearGradient>
<linearGradient id="paint1_linear_1058_2021" x1="28.387" y1="41.3066" x2="37.526" y2="41.3066" gradientUnits="userSpaceOnUse">
<stop offset="0.2" stop-color="white" stop-opacity="0.55"/>
<stop offset="0.85" stop-color="white" stop-opacity="0.01"/>
</linearGradient>
</defs>
</svg>
