<svg width="73" height="73" viewBox="0 0 73 73" fill="none" xmlns="http://www.w3.org/2000/svg">
<g clip-path="url(#clip0_500_2317)">
<path d="M64.6356 61.0901C64.031 61.0901 63.5402 60.6006 63.5402 59.9975V25.9938C63.5402 24.3373 62.1908 22.9911 60.5258 22.9911H47.6969C47.0923 22.9911 46.6016 22.5016 46.6016 21.8985C46.6016 21.2953 47.0923 20.8058 47.6969 20.8058H60.5258C63.3957 20.8058 65.731 23.1353 65.731 25.9938V59.9975C65.731 60.6006 65.2402 61.0901 64.6356 61.0901Z" fill="#0F0F1A"/>
<path d="M8.36392 56.7281C7.75928 56.7281 7.26855 56.2386 7.26855 55.6354V25.9936C7.26855 23.1309 9.60387 20.8057 12.4693 20.8057H25.2807C25.8853 20.8057 26.3761 21.2952 26.3761 21.8983C26.3761 22.5015 25.8853 22.991 25.2807 22.991H12.4693C10.8088 22.991 9.45928 24.3372 9.45928 25.9936V55.6354C9.45928 56.2386 8.96856 56.7281 8.36392 56.7281Z" fill="#0F0F1A"/>
<path d="M66.2083 66.7586H6.79142C4.74091 66.7586 3.02776 65.6047 1.84477 63.4282C1.02106 61.9115 0.740642 60.408 0.731879 60.3468C0.67492 60.0278 0.762549 59.7 0.968477 59.4509C1.17441 59.2017 1.48549 59.0575 1.80972 59.0575H71.19C71.5142 59.0575 71.8209 59.2017 72.0312 59.4509C72.2371 59.7 72.3248 60.0278 72.2678 60.3468C72.2196 60.6091 71.041 66.763 66.2083 66.763V66.7586ZM3.25998 61.2428C3.75946 62.6108 4.81977 64.5733 6.79142 64.5733H66.2083C68.1799 64.5733 69.2402 62.6108 69.7397 61.2428H3.25998Z" fill="#28292B"/>
<path d="M29.2552 42.7597H21.4562C20.8516 42.7597 20.3608 42.2701 20.3608 41.667V37.1477C20.3608 36.09 20.4134 34.875 21.0137 33.8872C21.6183 32.8995 22.5472 32.1521 23.2964 31.5489C26.9768 28.5987 28.633 25.2989 28.633 23.9003C28.633 23.2971 29.1237 22.8076 29.7284 22.8076C30.333 22.8076 30.8237 23.2971 30.8237 23.9003C30.8237 26.0288 28.8959 29.8619 24.6678 33.2535C24.0193 33.7736 23.2876 34.3593 22.8846 35.0236C22.5779 35.5306 22.5516 36.3829 22.5516 37.1477V40.5743H29.2552C29.8598 40.5743 30.3505 41.0638 30.3505 41.667C30.3505 42.2701 29.8598 42.7597 29.2552 42.7597Z" fill="#28292B"/>
<path d="M51.5438 42.7595H43.7448C43.1402 42.7595 42.6495 42.27 42.6495 41.6669C42.6495 41.0637 43.1402 40.5742 43.7448 40.5742H50.4484V37.1476C50.4484 36.3871 50.4222 35.5305 50.1155 35.0235C49.7124 34.3635 48.9807 33.7735 48.3322 33.2534C44.1041 29.8617 42.1763 26.0287 42.1763 23.9002C42.1763 23.297 42.667 22.8075 43.2716 22.8075C43.8763 22.8075 44.367 23.297 44.367 23.9002C44.367 25.2988 46.0232 28.5942 49.7036 31.5488C50.4528 32.1476 51.3861 32.895 51.9863 33.8871C52.591 34.8749 52.6392 36.0899 52.6392 37.1476V41.6669C52.6392 42.27 52.1484 42.7595 51.5438 42.7595Z" fill="#28292B"/>
<path d="M43.5164 55.7317C43.3762 55.7317 43.236 55.7055 43.1002 55.6486C41.0409 54.8007 39.5775 52.5105 38.7538 48.8435C38.1754 46.278 38.1272 43.9571 38.1272 43.861C38.1141 43.2578 38.596 42.7596 39.2007 42.7465H39.2226C39.8185 42.7465 40.3048 43.2229 40.3179 43.8173C40.3661 46.1512 41.1066 52.4624 43.937 53.625C44.4978 53.8567 44.7607 54.4948 44.5329 55.0499C44.3576 55.4694 43.9502 55.7273 43.5208 55.7273L43.5164 55.7317Z" fill="#28292B"/>
<path d="M58.0811 53.2184C57.4984 53.2184 57.0121 52.7595 56.9858 52.1739C56.942 51.103 56.4863 50.1109 55.7064 49.3766C54.8958 48.6118 53.8355 48.2184 52.7182 48.2621C50.97 48.3364 49.4628 49.5078 48.9633 51.1817C48.7925 51.7587 48.1834 52.0908 47.6007 51.9204C47.0224 51.7499 46.6894 51.1424 46.8602 50.5611C47.6226 47.9955 49.9404 46.1948 52.6218 46.0812C54.3438 46.0069 55.9649 46.6144 57.2092 47.7901C58.4054 48.9177 59.102 50.4431 59.1721 52.0821C59.1984 52.6852 58.7296 53.1922 58.1249 53.2184C58.1074 53.2184 58.0943 53.2184 58.0768 53.2184H58.0811Z" fill="#28292B"/>
<path d="M43.517 55.7316C43.0482 55.7316 42.6145 55.43 42.4699 54.958C41.7864 52.729 43.0438 50.3644 45.274 49.6782C46.3781 49.3417 47.5436 49.4597 48.5557 50.0104C49.5284 50.5436 50.2426 51.4178 50.5668 52.4711C50.7464 53.048 50.4222 53.6599 49.8439 53.8347C49.2655 54.0095 48.6521 53.6905 48.4768 53.1136C48.3191 52.6022 47.973 52.1826 47.5042 51.9247C47.0178 51.6581 46.4526 51.6013 45.9181 51.763C44.8402 52.0952 44.2356 53.2359 44.5642 54.3111C44.7439 54.8881 44.4152 55.5 43.8369 55.6748C43.7274 55.7097 43.6222 55.7228 43.5127 55.7228L43.517 55.7316Z" fill="#28292B"/>
<path d="M29.4786 55.7316C29.0097 55.7316 28.5804 55.43 28.4314 54.9623C28.2517 54.3854 28.576 53.7735 29.1543 53.5943C31.9585 52.7289 32.6551 46.0899 32.6814 43.8303C32.6858 43.2315 33.1765 42.7507 33.7768 42.7507H33.7899C34.3945 42.7551 34.8809 43.249 34.8721 43.8521C34.8721 43.9527 34.8414 46.3696 34.2762 48.9833C33.4569 52.7639 31.9541 55.0192 29.8028 55.6835C29.6932 55.7185 29.5837 55.7316 29.4786 55.7316Z" fill="#28292B"/>
<path d="M14.9148 53.2184C14.9148 53.2184 14.8841 53.2184 14.8666 53.2184C14.2619 53.1922 13.7931 52.6852 13.8194 52.082C13.8895 50.443 14.5862 48.9177 15.7823 47.7901C17.0266 46.6187 18.6478 46.0068 20.3697 46.0811C21.0795 46.1117 21.7674 46.2559 22.4202 46.5138C22.981 46.7367 23.2571 47.3705 23.0336 47.9299C22.8101 48.4937 22.1748 48.7691 21.614 48.5418C21.189 48.3757 20.7377 48.2796 20.2777 48.2577C19.1604 48.214 18.1001 48.6074 17.2895 49.3722C16.5096 50.1065 16.054 51.0986 16.0101 52.1694C15.9838 52.7551 15.4975 53.214 14.9148 53.214V53.2184Z" fill="#28292B"/>
<path d="M29.4782 55.7313C29.373 55.7313 29.2635 55.7138 29.154 55.6832C28.5756 55.504 28.2514 54.8965 28.4267 54.3196C28.7553 53.2444 28.1506 52.0993 27.0728 51.7715C26.5382 51.6098 25.9774 51.6666 25.4867 51.9332C25.0179 52.1911 24.6717 52.6107 24.514 53.122C24.3344 53.6989 23.721 54.0224 23.147 53.8432C22.5687 53.664 22.2444 53.0521 22.4241 52.4795C22.7527 51.4218 23.4668 50.5477 24.4351 50.0188C25.4473 49.4638 26.6127 49.3458 27.7169 49.6867C29.947 50.3685 31.2045 52.7374 30.521 54.9664C30.3764 55.4385 29.9426 55.74 29.4738 55.74L29.4782 55.7313Z" fill="#28292B"/>
<path d="M37.972 6.85462C37.9728 6.85462 37.9733 6.8536 37.9727 6.85296C37.1881 5.96301 35.8049 5.96357 35.0211 6.85462C32.7953 9.3896 28.8389 14.2367 28.8389 16.6842V43.8435C28.8389 44.923 29.7152 45.7972 30.7974 45.7972H42.1935C43.2757 45.7972 44.152 44.923 44.152 43.8435V16.6842C44.152 14.2372 40.1972 9.39165 37.9712 6.85623C37.9706 6.85559 37.9711 6.85462 37.972 6.85462ZM36.4976 22.4535C34.3595 22.4535 32.6288 20.7271 32.6288 18.5942C32.6288 16.4613 34.3595 14.7349 36.4976 14.7349C38.6358 14.7349 40.3665 16.4613 40.3665 18.5942C40.3665 20.7271 38.6358 22.4535 36.4976 22.4535Z" fill="url(#paint0_linear_500_2317)"/>
</g>
<defs>
<linearGradient id="paint0_linear_500_2317" x1="34.8617" y1="64.3112" x2="59.2321" y2="56.6992" gradientUnits="userSpaceOnUse">
<stop stop-color="#9358F7"/>
<stop offset="0.259732" stop-color="#7B78F2"/>
<stop offset="0.500607" stop-color="#6197EE"/>
<stop offset="0.766547" stop-color="#45B5E9"/>
<stop offset="1" stop-color="#10D7E2"/>
</linearGradient>
<clipPath id="clip0_500_2317">
<rect width="72" height="73" fill="white" transform="translate(0.5)"/>
</clipPath>
</defs>
</svg>
