<svg width="60" height="60" viewBox="0 0 60 60" fill="none" xmlns="http://www.w3.org/2000/svg">
<g clip-path="url(#clip0_500_1788)">
<path d="M14.4175 32.3356C14.4181 32.3354 14.4179 32.3346 14.4174 32.3346C13.8729 32.3341 13.2637 32.2039 12.6119 31.9419C10.5184 31.0976 7.92231 28.8739 6.85011 25.8079C6.39235 24.4997 6.38421 23.5556 6.37404 22.5567C6.3659 21.6249 6.35573 20.573 5.95289 18.8986C5.72697 17.9621 5.40424 17.042 4.99196 16.153C4.74519 15.6208 4.9284 14.9764 5.44194 14.693V14.693C5.9565 14.409 6.60709 14.5952 6.85855 15.1264C7.35881 16.1832 7.74772 17.2803 8.01793 18.4002C8.47976 20.3086 8.48994 21.5455 8.50011 22.5364C8.50825 23.46 8.51435 24.1273 8.85615 25.1039C9.66792 27.4192 11.7594 29.3032 13.4053 29.9664C14.1622 30.2716 14.5731 30.2146 14.6647 30.1699C14.7237 30.1394 14.8214 30.0112 14.9149 29.8871C15.1876 29.5229 15.5985 28.9776 16.453 28.7864V28.7864C17.2469 28.6088 18.0986 27.9484 17.6766 27.2529C17.5661 27.0708 17.4402 26.8903 17.2974 26.7153C16.8701 26.1924 16.392 25.8567 15.8874 25.5007C15.0757 24.931 14.1561 24.284 13.5986 22.8924C13.2955 22.1356 13.0595 21.5435 13.3301 20.8233C13.859 19.4195 15.5355 19.3157 17.155 19.2181C18.6869 19.1265 20.4224 19.0187 21.2179 17.9953C21.3644 17.8041 21.3684 17.7695 21.3949 17.5314C21.4335 17.1734 21.4925 16.6261 22.0012 15.8224C23.0184 14.2111 24.5118 13.5356 25.7142 12.9924C26.1304 12.8044 26.4709 12.6459 26.7212 12.497C27.0928 12.2759 27.2396 11.6884 27.0163 11.318V11.318C26.9532 11.2143 26.5422 11.1247 26.2716 11.0678C25.7101 10.9457 25.0123 10.7951 24.5179 10.2173V10.2173C24.3234 9.98678 24.1306 9.72464 23.8291 9.71399C23.7825 9.71234 23.7298 9.71145 23.6695 9.71075C23.2972 9.70668 22.7336 9.70058 22.2331 9.29774C21.3888 8.61821 21.5475 7.60909 21.6858 6.71594C21.7937 6.03641 21.9137 5.26329 21.7245 4.42303C21.6754 4.20294 21.6069 3.98548 21.5194 3.77158C21.297 3.22809 21.3919 2.5682 21.8703 2.22757V2.22757C22.3484 1.88711 23.0215 1.99497 23.2845 2.51973C23.5168 2.98351 23.6889 3.46478 23.7997 3.95916C24.0764 5.19615 23.9075 6.26427 23.7854 7.04553V7.04553C23.7402 7.33448 23.9632 7.57804 24.2533 7.61549C24.6641 7.66853 25.156 7.81591 25.6308 8.23369V8.23369C25.9488 8.51701 26.2091 8.87578 26.6241 8.97152C26.6568 8.97904 26.688 8.98598 26.7172 8.99256C27.3479 9.12888 28.3021 9.33436 28.8392 10.2316C29.3763 11.1268 29.3356 12.1542 29.2949 12.38C29.0304 13.8306 27.7324 14.4186 26.5849 14.9354C25.5473 15.4054 24.4711 15.8896 23.7977 16.9618C23.5535 17.3483 23.5352 17.5131 23.5088 17.7654C23.4579 18.2272 23.3745 18.6911 22.8964 19.3035C21.5129 21.0878 19.1671 21.2302 17.2831 21.3441C16.5975 21.3869 15.5721 21.4479 15.2974 21.6269C15.3829 21.5801 15.4744 21.8629 15.566 22.0969C15.8915 22.9107 16.4001 23.2688 17.1041 23.7652C17.6778 24.166 18.3248 24.6217 18.9392 25.3745C20.2311 26.9533 20.6889 29.0265 20.4753 30.2574C20.3471 30.9918 19.989 31.3438 19.7123 31.5086C18.9413 31.9725 18.2088 31.5004 17.7714 31.2197C17.4032 30.9816 17.1265 30.8189 16.9128 30.8636C16.8416 30.8799 16.8132 30.8962 16.6097 31.1668C16.4022 31.4414 16.1194 31.8178 15.6209 32.0701C15.2678 32.2487 14.864 32.3362 14.4177 32.3366C14.4171 32.3366 14.4169 32.3358 14.4175 32.3356V32.3356Z" fill="url(#paint0_linear_500_1788)"/>
<path d="M27.6461 59.8036C27.6454 59.803 27.6445 59.8026 27.6436 59.8026C26.6735 59.802 25.6102 59.1819 25.049 58.7264C23.2627 57.2839 23.1589 55.2656 22.9555 51.2454C22.8924 50.0023 22.8192 48.5395 22.6828 46.802C22.2861 41.6934 21.8019 40.8552 21.157 40.2265C20.6198 39.7016 20.0258 39.3964 19.4541 39.1034C17.7791 38.242 16.5047 37.2653 17.8913 34.0565C17.9479 33.9256 18.0213 33.8003 18.1051 33.685V33.685C18.1904 33.5676 18.2869 33.4586 18.3972 33.3645C19.0902 32.7733 19.8743 32.328 20.7317 32.0416C22.2454 31.535 23.8832 31.5716 25.4803 32.1393C26.2107 32.3997 26.5281 32.6479 27.053 33.0589C27.3683 33.3071 27.8017 33.6448 28.5321 34.1473C30.5442 35.5267 31.4781 36.1412 32.5014 36.2734C32.9612 36.3345 33.1342 36.2856 33.5573 36.1717C33.9948 36.0557 34.595 35.895 35.661 35.8095C39.2296 35.5166 41.2804 36.0639 41.7422 37.4188C42.0779 38.3975 41.4208 39.0729 40.9427 39.5632C40.5703 39.9457 40.1472 40.3791 39.787 41.0973C39.2723 42.1267 39.2845 42.9527 39.2988 43.8296C39.313 44.8387 39.3313 45.9842 38.4015 47.093C37.6793 47.9536 36.9387 48.1082 36.3955 48.2221C35.9642 48.3117 35.6814 48.3707 35.246 48.7755C34.5197 49.451 34.3386 50.2384 34.1311 51.1478C33.891 52.1915 33.5919 53.4895 32.2288 54.2504C31.9969 54.3806 31.7649 54.4864 31.5167 54.6024C31.0997 54.7936 30.6683 54.991 30.0702 55.404C30.001 55.463 29.6368 55.7906 29.4293 56.1344C29.1953 56.5291 29.2442 56.9828 29.295 57.4629C29.3581 58.0529 29.4436 58.8586 28.7722 59.4222C28.443 59.6965 28.0529 59.8044 27.6485 59.8047C27.6476 59.8047 27.6467 59.8043 27.6461 59.8036V59.8036ZM21.4011 34.0599C20.2642 34.4401 18.7571 35.7507 19.5428 36.6561C19.7026 36.8401 19.9938 36.9896 20.4225 37.2093C21.0695 37.5409 21.8751 37.9539 22.6422 38.7047C23.8201 39.8542 24.3796 41.2112 24.8008 46.6373C24.9371 48.3971 25.0124 49.8803 25.0775 51.1356C25.2748 55.0012 25.3847 56.2626 26.3857 57.0703V57.0703C26.7039 57.3268 27.1083 57.0369 27.1304 56.6288C27.1568 56.1395 27.273 55.5915 27.6023 55.0378C28.0499 54.2911 28.7294 53.7479 28.8067 53.6869C29.6104 53.1294 30.1739 52.871 30.6276 52.6615C30.825 52.5719 31.0081 52.4885 31.1912 52.3868C31.7039 52.0999 31.8341 51.6259 32.0559 50.6676C32.2939 49.628 32.591 48.3361 33.7954 47.2151C34.6641 46.4074 35.4108 46.2507 35.956 46.1347C36.3772 46.0472 36.5196 46.0188 36.7678 45.7197C37.1707 45.2416 37.1808 44.7777 37.1666 43.8581C37.1523 42.8673 37.132 41.6344 37.8807 40.141C38.3893 39.1278 39.0058 38.4931 39.4147 38.074V38.074C39.4369 38.0518 39.4255 38.0154 39.3947 38.0097C38.7648 37.8938 37.3916 37.8039 35.8258 37.9234C34.9551 37.9926 34.5034 38.1167 34.1046 38.2225C33.5858 38.3608 33.0955 38.4829 32.2268 38.3812C30.6521 38.1777 29.3988 37.3192 27.3256 35.8991C26.5423 35.364 26.0785 34.9998 25.7387 34.7333C25.2769 34.3732 25.167 34.2857 24.7601 34.1412C23.3196 33.6306 22.1396 33.8137 21.4011 34.0599V34.0599Z" fill="url(#paint1_linear_500_1788)"/>
<path d="M35.6366 10.1858C35.6352 10.1864 35.6337 10.1868 35.6322 10.1868C35.4234 10.1866 35.2147 10.156 35.0099 10.0871C34.0232 9.75141 33.6977 8.76466 33.4393 7.9712C33.248 7.38933 33.0507 6.78711 32.6682 6.49618C32.3834 6.28052 32.2613 6.25814 32.0924 6.22762C31.2644 6.08113 30.8432 5.67016 30.4221 4.59593C30.0966 3.76382 30.1413 2.77911 30.182 1.9124V1.9124C30.1983 1.51138 30.5298 1.18608 30.9311 1.18608H31.5061C31.9614 1.18608 32.3254 1.55517 32.306 2.01006V2.01006C32.2755 2.66518 32.2409 3.40778 32.4037 3.82282V3.82282C32.4862 4.03179 32.676 4.16848 32.8909 4.23391C33.2041 4.32927 33.5436 4.48799 33.956 4.80142C34.8655 5.49316 35.2093 6.54093 35.4616 7.30795V7.30795C35.5825 7.67943 36.1595 7.88336 36.4913 7.67721C36.5892 7.61641 36.6975 7.54612 36.8166 7.46461L37.1055 7.26929C37.1657 7.22893 37.2172 7.19522 37.2618 7.16576C37.3902 7.08089 37.486 6.96007 37.5612 6.82577V6.82577C37.6467 6.67114 37.7626 6.46362 37.9396 6.17269C37.9703 6.12127 38.0025 6.07312 38.036 6.02813C38.1347 5.89536 38.15 5.71023 38.08 5.5603V5.5603C37.2258 3.71889 36.9824 3.18961 35.8867 2.82003C35.3301 2.63228 34.9617 2.08423 35.0904 1.51106V1.51106C35.219 0.93832 35.7916 0.569236 36.3516 0.745349C38.2972 1.35728 38.8811 2.25734 39.8565 4.33384C39.9067 4.44069 39.9871 4.53012 40.0901 4.5878V4.5878C40.4543 4.79939 41.1338 5.18798 41.0565 5.98755C41.0087 6.47641 40.7942 7.06293 40.1007 7.33808C39.8261 7.44701 39.5647 7.60662 39.4187 7.86337V7.86337C39.0749 8.47983 38.9447 8.59376 38.2977 9.03119L38.019 9.2204C37.3319 9.68995 36.4824 10.1839 35.6409 10.1848C35.6394 10.1848 35.6379 10.1851 35.6366 10.1858V10.1858Z" fill="url(#paint2_linear_500_1788)"/>
<path d="M54.3688 47.4743C54.3694 47.4762 54.3674 47.4779 54.3657 47.4769L53.0284 46.7655C52.7325 46.6081 52.6216 46.2413 52.7653 45.9385C53.3401 44.7267 53.6876 43.5077 53.8008 42.3057C53.8436 41.85 53.8354 41.5733 53.8273 41.258C53.8171 40.8165 53.8029 40.3078 53.8822 39.3089C53.9453 38.5215 54.0246 37.9458 54.0857 37.5043V37.5043C54.1559 37.0034 53.9367 36.5373 53.4389 36.4479C53.0631 36.3804 52.5024 36.3431 51.6727 36.4036C51.4286 36.4199 51.2475 36.4463 51.0888 36.4687C50.8569 36.5013 50.6575 36.5277 50.4235 36.5318C50.212 36.5318 49.9719 36.5277 49.7928 36.4972C48.5599 36.3059 47.9435 35.0751 47.3982 33.9866C46.6434 32.477 46.3708 31.9297 46.2772 31.5126C46.2101 31.2176 45.6424 28.5097 47.209 26.2961C47.5488 25.8139 47.8438 25.5637 48.0798 25.3623C48.3097 25.1669 48.4236 25.0693 48.6027 24.7275C48.7695 24.406 48.8468 24.1334 48.92 23.8689C49.0563 23.3827 49.2232 22.7764 49.8946 22.3491C50.3951 22.0318 50.8101 22.0501 51.2435 22.0745C51.4612 22.0847 51.7663 22.1009 52.2221 22.0867C52.8202 22.0684 53.103 22.0155 53.3126 21.9789C53.4855 21.9463 53.6259 21.9239 53.7886 21.9138V21.9138C54.1516 21.8901 54.5135 21.8504 54.7982 21.6239C55.0319 21.4381 55.3263 21.1684 55.6197 20.8151C55.6607 20.7656 55.7008 20.7153 55.7402 20.6642C56.0983 20.1992 56.7306 19.9844 57.2529 20.2523V20.2523C57.7756 20.5204 57.9878 21.167 57.6529 21.6496C57.5277 21.8298 57.3958 22.0037 57.2575 22.1701C56.8648 22.6421 55.4793 24.1395 54.1447 24.048L53.9127 24.0358C53.8395 24.0398 53.7764 24.0541 53.6991 24.0683C53.4285 24.1192 53.0623 24.1883 52.2872 24.2128C51.7439 24.225 51.394 24.2087 51.1377 24.1985V24.1985C51.0812 24.1985 51.0293 24.2297 51.0133 24.2838C50.9978 24.3359 50.9826 24.3911 50.9688 24.4386C50.8793 24.758 50.7592 25.1934 50.4866 25.7122C50.1184 26.4182 49.7522 26.7295 49.4592 26.9777C49.2761 27.1343 49.1296 27.2584 48.9444 27.5189C47.8967 29 48.3463 31.0162 48.3504 31.0365C48.4053 31.24 48.7898 32.009 49.2781 32.9856C49.4219 33.2748 49.7602 33.9478 50.0054 34.2558C50.092 34.3645 50.2297 34.4016 50.3686 34.4016V34.4016C50.5192 34.4016 50.6453 34.3793 50.7898 34.3589C50.9912 34.3284 51.217 34.2979 51.5222 34.2775C52.928 34.188 54.9056 34.2084 55.872 35.484C56.4091 36.1961 56.3175 36.8654 56.1894 37.7911C56.1324 38.2021 56.0571 38.7413 56.0002 39.4737C55.929 40.3587 55.9412 40.8083 55.9513 41.199C55.9615 41.5916 55.9676 41.9334 55.9147 42.501C55.7601 44.1609 55.2394 45.833 54.3689 47.4726C54.3686 47.4731 54.3686 47.4737 54.3688 47.4743V47.4743Z" fill="url(#paint3_linear_500_1788)"/>
<path d="M29.0081 31.999C28.7334 31.999 28.4608 31.8952 28.2533 31.6836V31.6836C28.0608 31.4939 27.7726 31.4258 27.5042 31.3945C27.4076 31.3832 27.3009 31.3621 27.1872 31.3276C26.8332 31.2218 26.6257 31.0448 26.5016 30.941V30.941C26.2824 30.7849 25.9943 30.8203 25.7285 30.7785C25.649 30.766 25.5698 30.7438 25.4924 30.7111C24.9492 30.4914 24.6888 29.8688 24.9085 29.3256C25.0286 29.0306 25.3154 28.7783 25.6206 28.6827C26.1455 28.522 26.9919 28.699 27.59 29.0977V29.0977C27.7233 29.19 27.8865 29.227 28.0485 29.2199C28.1895 29.2137 28.3508 29.2241 28.532 29.2707C28.9654 29.3826 29.1831 29.6023 29.7629 30.1862C30.1779 30.6012 30.1739 31.2767 29.7588 31.6897C29.5513 31.8972 29.2787 31.999 29.0081 31.999Z" fill="url(#paint4_linear_500_1788)"/>
<path d="M30.001 60C13.4583 60 0 46.5417 0 30.001C0 13.4604 13.4583 0 30.001 0C46.5437 0 60.002 13.4583 60.002 30.001C60.002 46.5437 46.5437 60.002 30.001 60.002V60ZM30.001 2.12607C14.6302 2.12607 2.12607 14.6302 2.12607 30.001C2.12607 45.3718 14.6302 57.8739 29.999 57.8739C45.3677 57.8739 57.8719 45.3698 57.8719 30.001C57.8719 14.6323 45.3698 2.12607 30.001 2.12607Z" fill="#141414"/>
</g>
<defs>
<linearGradient id="paint0_linear_500_1788" x1="14.2682" y1="46.6974" x2="44.6633" y2="26.8721" gradientUnits="userSpaceOnUse">
<stop stop-color="#9358F7"/>
<stop offset="0.259732" stop-color="#7B78F2"/>
<stop offset="0.500607" stop-color="#6197EE"/>
<stop offset="0.766547" stop-color="#45B5E9"/>
<stop offset="1" stop-color="#10D7E2"/>
</linearGradient>
<linearGradient id="paint1_linear_500_1788" x1="26.9501" y1="72.9471" x2="55.5773" y2="52.7666" gradientUnits="userSpaceOnUse">
<stop stop-color="#9358F7"/>
<stop offset="0.259732" stop-color="#7B78F2"/>
<stop offset="0.500607" stop-color="#6197EE"/>
<stop offset="0.766547" stop-color="#45B5E9"/>
<stop offset="1" stop-color="#10D7E2"/>
</linearGradient>
<linearGradient id="paint2_linear_500_1788" x1="34.4444" y1="14.7265" x2="44.8942" y2="5.24383" gradientUnits="userSpaceOnUse">
<stop stop-color="#9358F7"/>
<stop offset="0.259732" stop-color="#7B78F2"/>
<stop offset="0.500607" stop-color="#6197EE"/>
<stop offset="0.766547" stop-color="#45B5E9"/>
<stop offset="1" stop-color="#10D7E2"/>
</linearGradient>
<linearGradient id="paint3_linear_500_1788" x1="50.8724" y1="60.432" x2="69.6411" y2="53.8233" gradientUnits="userSpaceOnUse">
<stop stop-color="#9358F7"/>
<stop offset="0.259732" stop-color="#7B78F2"/>
<stop offset="0.500607" stop-color="#6197EE"/>
<stop offset="0.766547" stop-color="#45B5E9"/>
<stop offset="1" stop-color="#10D7E2"/>
</linearGradient>
<linearGradient id="paint4_linear_500_1788" x1="26.8921" y1="33.5765" x2="30.4488" y2="29.1141" gradientUnits="userSpaceOnUse">
<stop stop-color="#9358F7"/>
<stop offset="0.259732" stop-color="#7B78F2"/>
<stop offset="0.500607" stop-color="#6197EE"/>
<stop offset="0.766547" stop-color="#45B5E9"/>
<stop offset="1" stop-color="#10D7E2"/>
</linearGradient>
<clipPath id="clip0_500_1788">
<rect width="60" height="60" fill="white"/>
</clipPath>
</defs>
</svg>
