<svg width="100" height="100" viewBox="0 0 100 100" fill="none" xmlns="http://www.w3.org/2000/svg">
<g clip-path="url(#clip0_1120_659)">
<path d="M53.498 4.99805C55.098 5.22205 56.716 5.39805 58.312 5.67805C67.5417 7.24861 76.0489 11.6669 82.642 18.314C83.142 18.808 83.692 19.254 84.16 19.672L68.8 35.116C66.4394 32.3356 63.4752 30.1307 60.1333 28.6695C56.7914 27.2082 53.1601 26.5292 49.516 26.684C44.7154 26.8251 40.0796 28.4666 36.26 31.378C32.2556 34.3616 29.2904 38.5284 27.7838 43.2894C26.2771 48.0503 26.3052 53.1644 27.8641 57.9085C29.423 62.6526 32.4338 66.7866 36.4707 69.7259C40.5076 72.6653 45.3664 74.2612 50.36 74.288C54.7588 74.3306 59.081 73.1361 62.8337 70.8407C66.5864 68.5453 69.6184 65.2415 71.584 61.306H48.384V39.706H94.87C95.22 42.652 95.776 45.626 95.894 48.616C96.3684 59.5503 92.8686 70.2866 86.0414 78.8406C79.2142 87.3947 69.5212 93.1881 58.754 95.15C51.3806 96.642 43.748 96.2198 36.5842 93.9237C29.4203 91.6276 22.9643 87.5342 17.832 82.034C10.9984 75.1448 6.62861 66.1935 5.4 56.568C5.244 55.488 5.132 54.398 5 53.32V47.636C5.136 46.524 5.254 45.412 5.412 44.304C6.7502 34.7785 11.0619 25.9187 17.7321 18.9881C24.4024 12.0574 33.0907 7.40984 42.558 5.70805C44.238 5.39805 45.942 5.23205 47.636 4.99805H53.498ZM77.898 19.832C70.6758 13.3494 61.3953 9.62687 51.6952 9.32182C41.9951 9.01677 32.4991 12.1488 24.8838 18.1649C17.2685 24.1809 12.0237 32.6942 10.0754 42.2015C8.12703 51.7089 9.60049 61.5989 14.2356 70.1254C18.8707 78.652 26.3693 85.2667 35.4075 88.8016C44.4458 92.3366 54.4423 92.5645 63.6323 89.4452C72.8223 86.3258 80.6146 80.0597 85.6334 71.7533C90.6523 63.4469 92.575 53.6343 91.062 44.048H52.686V56.998H77.936C77.0401 60.7496 75.3836 64.2773 73.0691 67.3627C70.7546 70.4481 67.8313 73.0256 64.4803 74.9354C61.1293 76.8453 57.4218 78.0469 53.5876 78.4658C49.7534 78.8848 45.874 78.5122 42.1896 77.371C38.5052 76.2299 35.0943 74.3446 32.1681 71.8318C29.2419 69.319 26.8626 66.2323 25.1777 62.7628C23.4928 59.2932 22.5381 55.5147 22.3726 51.6612C22.2072 47.8077 22.8346 43.9612 24.216 40.36C25.5355 36.7071 27.6329 33.3843 30.363 30.6218C33.0932 27.8592 36.3909 25.7227 40.028 24.36C50.468 20.318 60.09 22.196 68.77 28.96L77.888 19.838" fill="#141414"/>
<path d="M77.898 19.832C70.6758 13.3494 61.3953 9.62687 51.6952 9.32182C41.9951 9.01677 32.4991 12.1488 24.8838 18.1649C17.2685 24.1809 12.0237 32.6942 10.0754 42.2015C8.12703 51.7089 9.60049 61.5989 14.2356 70.1254C18.8707 78.652 26.3693 85.2667 35.4075 88.8016C44.4458 92.3366 54.4423 92.5645 63.6323 89.4452C72.8223 86.3258 80.6146 80.0597 85.6334 71.7533C90.6523 63.4469 92.575 53.6343 91.062 44.048H52.686V56.998H77.936C77.0401 60.7496 75.3836 64.2773 73.0691 67.3627C70.7546 70.4481 67.8313 73.0256 64.4803 74.9354C61.1293 76.8453 57.4218 78.0469 53.5876 78.4658C49.7534 78.8848 45.874 78.5122 42.1896 77.371C38.5052 76.2299 35.0943 74.3446 32.1681 71.8318C29.2419 69.319 26.8626 66.2323 25.1777 62.7628C23.4928 59.2932 22.5381 55.5147 22.3726 51.6612C22.2072 47.8077 22.8346 43.9612 24.216 40.36C25.5355 36.7071 27.6329 33.3843 30.363 30.6218C33.0932 27.8592 36.3909 25.7227 40.028 24.36C50.468 20.318 60.09 22.196 68.77 28.96L77.888 19.838M53.498 4.99805C55.098 5.22205 56.716 5.39805 58.312 5.67805C67.5417 7.24861 76.0489 11.6669 82.642 18.314C83.142 18.808 83.692 19.254 84.16 19.672L68.8 35.116C66.4394 32.3356 63.4752 30.1307 60.1333 28.6695C56.7914 27.2082 53.1601 26.5292 49.516 26.684C44.7154 26.8251 40.0796 28.4666 36.26 31.378C32.2556 34.3616 29.2904 38.5284 27.7838 43.2894C26.2771 48.0503 26.3052 53.1644 27.8641 57.9085C29.423 62.6526 32.4338 66.7866 36.4707 69.7259C40.5076 72.6653 45.3664 74.2612 50.36 74.288C54.7588 74.3306 59.081 73.1361 62.8337 70.8407C66.5864 68.5453 69.6184 65.2415 71.584 61.306H48.384V39.706H94.87C95.22 42.652 95.776 45.626 95.894 48.616C96.3684 59.5503 92.8686 70.2866 86.0414 78.8406C79.2142 87.3947 69.5212 93.1881 58.754 95.15C51.3806 96.642 43.748 96.2198 36.5842 93.9237C29.4203 91.6276 22.9643 87.5342 17.832 82.034C10.9984 75.1448 6.62861 66.1935 5.4 56.568C5.244 55.488 5.132 54.398 5 53.32V47.636C5.136 46.524 5.254 45.412 5.412 44.304C6.7502 34.7785 11.0619 25.9187 17.7321 18.9881C24.4024 12.0574 33.0907 7.40984 42.558 5.70805C44.238 5.39805 45.942 5.23205 47.636 4.99805H53.498Z" stroke="white" stroke-width="2"/>
</g>
<defs>
<clipPath id="clip0_1120_659">
<rect width="100" height="100" fill="white"/>
</clipPath>
</defs>
</svg>
