<svg width="44" height="44" viewBox="0 0 44 44" fill="none" xmlns="http://www.w3.org/2000/svg">
<circle cx="10" cy="26" r="1" fill="black"/>
<circle cx="10" cy="30" r="1" fill="black"/>
<circle cx="10" cy="34" r="1" fill="black"/>
<path d="M12.5 26C12.9 26 19.8333 26 23 26M12.5 30H22.5M12.5 34H26" stroke="black" stroke-linecap="round"/>
<path d="M6.5 6.5H31.5V23V34V37.5H6.5V6.5Z" stroke="black"/>
<circle cx="18.5" cy="14.5" r="2" stroke="black"/>
<circle cx="18.5" cy="15.5" r="6" stroke="black"/>
<circle cx="28.5" cy="28.5" r="6" fill="white" stroke="black"/>
<circle cx="28.5" cy="28.5" r="4" stroke="black"/>
<path d="M32.3487 33.7457L33.7738 32.3425L38.2464 36.8849C38.4401 37.0817 38.4377 37.3983 38.2409 37.592L37.5283 38.2936C37.3315 38.4874 37.015 38.4849 36.8212 38.2881L32.3487 33.7457Z" stroke="black"/>
<path d="M15.5 19C15.5 17.6193 16.6193 16.5 18 16.5H19C20.3807 16.5 21.5 17.6193 21.5 19V20.5H15.5V19Z" stroke="black"/>
</svg>
