<svg width="100" height="100" viewBox="0 0 100 100" fill="none" xmlns="http://www.w3.org/2000/svg">
<g clip-path="url(#clip0_1116_288)">
<mask id="mask0_1116_288" style="mask-type:luminance" maskUnits="userSpaceOnUse" x="6" y="6" width="90" height="90">
<path d="M96 6H6V96H96V6Z" fill="white"/>
</mask>
<g mask="url(#mask0_1116_288)">
<path d="M52.5338 5.34961C52.6581 5.41839 52.7879 5.47659 52.9218 5.52361C54.3314 5.84931 55.5959 6.62656 56.523 7.73708C57.4501 8.8476 57.9891 10.2306 58.0578 11.6756C58.146 13.167 57.7255 14.6441 56.8652 15.8655C56.005 17.0869 54.7557 17.9803 53.3218 18.3996L52.7398 18.5996V26.7096C56.7389 27.0121 60.5391 28.575 63.5938 31.1736L69.3498 25.4076C68.4247 23.9 68.1286 22.0893 68.5255 20.3655C68.9224 18.6417 69.9805 17.1428 71.4718 16.1916C72.7745 15.3599 74.326 15.0075 75.8601 15.1948C77.3943 15.382 78.8154 16.0973 79.8798 17.218C80.9441 18.3386 81.5853 19.7947 81.6933 21.3365C81.8014 22.8782 81.3695 24.4095 80.4718 25.6676C78.4338 28.5316 75.2158 29.1636 71.4418 27.4796L65.6998 33.1836L67.9898 36.5276L65.6138 37.8236C64.5106 35.781 62.9797 34.0005 61.1255 32.6037C59.2713 31.2068 57.1375 30.2265 54.8698 29.7296C51.4328 28.9562 47.8362 29.3474 44.6458 30.8416C41.1 32.5094 38.2756 35.4013 36.6918 38.9854C35.1081 42.5696 34.8716 46.605 36.0258 50.3496L33.4938 51.1836L32.6058 46.7836H24.5638C24.3393 47.78 23.8948 48.7136 23.2629 49.5161C22.6311 50.3185 21.8278 50.9696 20.9118 51.4216C19.5503 52.103 17.991 52.2788 16.5118 51.9176C14.9972 51.5737 13.6509 50.7102 12.7067 49.477C11.7624 48.2439 11.2799 46.719 11.3429 45.1671C11.4058 43.6152 12.0104 42.1344 13.0514 40.9818C14.0925 39.8292 15.5044 39.0776 17.0418 38.8576C20.3938 38.3076 23.1358 40.1856 24.5998 44.0896H32.6898C32.9987 40.0759 34.5745 36.2639 37.1898 33.2036L31.4278 27.4516C27.5318 29.1756 24.2658 28.4976 22.2538 25.5296C21.3856 24.2417 20.9947 22.6908 21.1487 21.1452C21.3027 19.5996 21.992 18.1564 23.0973 17.0651C24.2026 15.9738 25.6544 15.303 27.2019 15.1687C28.7493 15.0344 30.2951 15.445 31.5718 16.3296C34.4998 18.3676 35.1518 21.6176 33.4238 25.4476L39.1818 31.2076C42.2286 28.6014 46.026 27.0329 50.0238 26.7296V18.5616C48.2693 18.1584 46.744 17.0807 45.7778 15.5616C45.2212 14.675 44.8811 13.6698 44.7849 12.6274C44.6887 11.5849 44.8391 10.5345 45.2241 9.56094C45.609 8.58741 46.2176 7.71812 47.0007 7.02336C47.7838 6.32859 48.7194 5.82785 49.7318 5.56161C49.9558 5.50161 50.1738 5.42161 50.3958 5.34961H52.5338ZM31.7678 21.7996C31.7702 21.008 31.5376 20.2334 31.0996 19.5741C30.6615 18.9147 30.0376 18.4001 29.3069 18.0955C28.5762 17.791 27.7716 17.71 26.9949 17.863C26.2181 18.016 25.5043 18.396 24.9437 18.9549C24.3831 19.5139 24.0009 20.2266 23.8456 21.0028C23.6903 21.7791 23.7688 22.584 24.0712 23.3156C24.3736 24.0472 24.8863 24.6726 25.5443 25.1126C26.2024 25.5527 26.9762 25.7876 27.7678 25.7876C28.294 25.7943 28.8161 25.6958 29.3037 25.4979C29.7912 25.3 30.2343 25.0067 30.6069 24.6352C30.9795 24.2637 31.2742 23.8215 31.4735 23.3346C31.6729 22.8476 31.7729 22.3258 31.7678 21.7996ZM79.0298 21.8396C79.0364 21.3134 78.9388 20.7911 78.7426 20.3027C78.5464 19.8144 78.2555 19.3697 77.8866 18.9944C77.5178 18.619 77.0783 18.3204 76.5935 18.1157C76.1086 17.9109 75.5881 17.8042 75.0618 17.8016C73.999 17.8084 72.9816 18.2334 72.2296 18.9846C71.4777 19.7358 71.0517 20.7528 71.0438 21.8156C71.0511 22.863 71.4689 23.8658 72.2075 24.6085C72.9461 25.3512 73.9465 25.7745 74.9938 25.7876C75.5201 25.8004 76.0436 25.7077 76.5334 25.5148C77.0233 25.3219 77.4695 25.0328 77.8457 24.6646C78.2219 24.2964 78.5205 23.8565 78.7239 23.371C78.9273 22.8854 79.0313 22.366 79.0298 21.8396ZM55.3998 12.0376C55.4043 11.5117 55.3048 10.9901 55.1068 10.5029C54.9089 10.0156 54.6166 9.57232 54.2467 9.1985C53.8768 8.82468 53.4366 8.52771 52.9514 8.3247C52.4663 8.12169 51.9458 8.01665 51.4198 8.01561C50.8946 8.01233 50.3738 8.11254 49.8872 8.31052C49.4007 8.50851 48.9579 8.80039 48.5841 9.1695C48.2103 9.53862 47.9129 9.97773 47.7089 10.4618C47.5048 10.9458 47.3981 11.4653 47.3948 11.9906C47.3916 12.5159 47.4918 13.0367 47.6898 13.5232C47.8877 14.0098 48.1796 14.4526 48.5487 14.8264C48.9179 15.2001 49.357 15.4975 49.841 15.7016C50.3251 15.9056 50.8446 16.0123 51.3698 16.0156C51.8958 16.0228 52.418 15.9255 52.9061 15.7293C53.3942 15.5332 53.8386 15.2422 54.2134 14.8731C54.5883 14.5041 54.8861 14.0643 55.0898 13.5793C55.2934 13.0943 55.3988 12.5736 55.3998 12.0476M17.9198 49.4276C18.4457 49.4398 18.9688 49.3475 19.4587 49.156C19.9487 48.9645 20.3957 48.6777 20.7739 48.3121C21.1521 47.9465 21.454 47.5095 21.6621 47.0264C21.8701 46.5432 21.9802 46.0236 21.9858 45.4976C21.9996 44.7065 21.7784 43.9291 21.3502 43.2637C20.9221 42.5983 20.3062 42.0748 19.5805 41.7595C18.8547 41.4442 18.0518 41.3512 17.2733 41.4923C16.4947 41.6333 15.7755 42.0021 15.2065 42.552C14.6376 43.1019 14.2445 43.8082 14.0771 44.5815C13.9096 45.3549 13.9752 46.1605 14.2657 46.8965C14.5561 47.6325 15.0584 48.2658 15.7088 48.7164C16.3593 49.1669 17.1287 49.4144 17.9198 49.4276Z" fill="black"/>
<path d="M55.3998 12.0376C55.4043 11.5117 55.3048 10.9901 55.1068 10.5029C54.9089 10.0156 54.6166 9.57232 54.2467 9.1985C53.8768 8.82468 53.4366 8.52771 52.9514 8.3247C52.4663 8.12169 51.9458 8.01665 51.4198 8.01561C50.8946 8.01233 50.3738 8.11254 49.8872 8.31052C49.4007 8.50851 48.9579 8.80039 48.5841 9.1695C48.2103 9.53862 47.9129 9.97773 47.7089 10.4618C47.5048 10.9458 47.3981 11.4653 47.3948 11.9906C47.3916 12.5159 47.4918 13.0367 47.6898 13.5232C47.8877 14.0098 48.1796 14.4526 48.5487 14.8264C48.9179 15.2001 49.357 15.4975 49.841 15.7016C50.3251 15.9056 50.8446 16.0123 51.3698 16.0156C51.8958 16.0228 52.418 15.9255 52.9061 15.7293C53.3942 15.5332 53.8386 15.2422 54.2134 14.8731C54.5883 14.5041 54.8861 14.0643 55.0898 13.5793C55.2934 13.0943 55.3988 12.5736 55.3998 12.0476M52.5338 5.34961C52.6581 5.41839 52.7879 5.47659 52.9218 5.52361C54.3314 5.84931 55.5959 6.62656 56.523 7.73708C57.4501 8.8476 57.9891 10.2306 58.0578 11.6756C58.146 13.167 57.7255 14.6441 56.8652 15.8655C56.005 17.0869 54.7557 17.9803 53.3218 18.3996L52.7398 18.5996V26.7096C56.7389 27.0121 60.5391 28.575 63.5938 31.1736L69.3498 25.4076C68.4247 23.9 68.1286 22.0893 68.5255 20.3655C68.9224 18.6417 69.9805 17.1428 71.4718 16.1916C72.7745 15.3599 74.326 15.0075 75.8601 15.1948C77.3943 15.382 78.8154 16.0973 79.8798 17.218C80.9441 18.3386 81.5853 19.7947 81.6933 21.3365C81.8014 22.8782 81.3695 24.4095 80.4718 25.6676C78.4338 28.5316 75.2158 29.1636 71.4418 27.4796L65.6998 33.1836L67.9898 36.5276L65.6138 37.8236C64.5106 35.781 62.9797 34.0005 61.1255 32.6037C59.2713 31.2068 57.1375 30.2265 54.8698 29.7296C51.4328 28.9562 47.8362 29.3474 44.6458 30.8416C41.1 32.5094 38.2756 35.4013 36.6918 38.9854C35.1081 42.5696 34.8716 46.605 36.0258 50.3496L33.4938 51.1836L32.6058 46.7836H24.5638C24.3393 47.78 23.8948 48.7136 23.2629 49.5161C22.6311 50.3185 21.8278 50.9696 20.9118 51.4216C19.5503 52.103 17.991 52.2788 16.5118 51.9176C14.9972 51.5737 13.6509 50.7102 12.7067 49.477C11.7624 48.2439 11.2799 46.719 11.3429 45.1671C11.4058 43.6152 12.0104 42.1344 13.0514 40.9818C14.0925 39.8292 15.5044 39.0776 17.0418 38.8576C20.3938 38.3076 23.1358 40.1856 24.5998 44.0896H32.6898C32.9987 40.0759 34.5745 36.2639 37.1898 33.2036L31.4278 27.4516C27.5318 29.1756 24.2658 28.4976 22.2538 25.5296C21.3856 24.2417 20.9947 22.6908 21.1487 21.1452C21.3027 19.5996 21.992 18.1564 23.0973 17.0651C24.2026 15.9738 25.6544 15.303 27.2019 15.1687C28.7493 15.0344 30.2951 15.445 31.5718 16.3296C34.4998 18.3676 35.1518 21.6176 33.4238 25.4476L39.1818 31.2076C42.2286 28.6014 46.026 27.0329 50.0238 26.7296V18.5616C48.2693 18.1584 46.744 17.0807 45.7778 15.5616C45.2212 14.675 44.8811 13.6698 44.7849 12.6274C44.6887 11.5849 44.8391 10.5345 45.2241 9.56094C45.609 8.58741 46.2176 7.71812 47.0007 7.02336C47.7838 6.32859 48.7194 5.82785 49.7318 5.56161C49.9558 5.50161 50.1738 5.42161 50.3958 5.34961H52.5338ZM31.7678 21.7996C31.7702 21.008 31.5376 20.2334 31.0996 19.5741C30.6615 18.9147 30.0376 18.4001 29.3069 18.0955C28.5762 17.791 27.7716 17.71 26.9949 17.863C26.2181 18.016 25.5043 18.396 24.9437 18.9549C24.3831 19.5139 24.0009 20.2266 23.8456 21.0028C23.6903 21.7791 23.7688 22.584 24.0712 23.3156C24.3736 24.0472 24.8863 24.6726 25.5443 25.1126C26.2024 25.5527 26.9762 25.7876 27.7678 25.7876C28.294 25.7943 28.8161 25.6958 29.3037 25.4979C29.7912 25.3 30.2343 25.0067 30.6069 24.6352C30.9795 24.2637 31.2742 23.8215 31.4735 23.3346C31.6729 22.8476 31.7729 22.3258 31.7678 21.7996ZM79.0298 21.8396C79.0364 21.3134 78.9388 20.7911 78.7426 20.3027C78.5464 19.8144 78.2555 19.3697 77.8866 18.9944C77.5178 18.619 77.0783 18.3204 76.5935 18.1157C76.1086 17.9109 75.5881 17.8042 75.0618 17.8016C73.999 17.8084 72.9816 18.2334 72.2296 18.9846C71.4777 19.7358 71.0517 20.7528 71.0438 21.8156C71.0511 22.863 71.4689 23.8658 72.2075 24.6085C72.9461 25.3512 73.9465 25.7745 74.9938 25.7876C75.5201 25.8004 76.0436 25.7077 76.5334 25.5148C77.0233 25.3219 77.4695 25.0328 77.8457 24.6646C78.2219 24.2964 78.5205 23.8565 78.7239 23.371C78.9273 22.8854 79.0313 22.366 79.0298 21.8396ZM17.9198 49.4276C18.4457 49.4398 18.9688 49.3475 19.4587 49.156C19.9487 48.9645 20.3957 48.6777 20.7739 48.3121C21.1521 47.9465 21.454 47.5095 21.6621 47.0264C21.8701 46.5432 21.9802 46.0236 21.9858 45.4976C21.9996 44.7065 21.7784 43.9291 21.3502 43.2637C20.9221 42.5983 20.3062 42.0748 19.5805 41.7595C18.8547 41.4442 18.0518 41.3512 17.2733 41.4923C16.4947 41.6333 15.7755 42.0021 15.2065 42.552C14.6376 43.1019 14.2445 43.8082 14.0771 44.5815C13.9096 45.3549 13.9752 46.1605 14.2657 46.8965C14.5561 47.6325 15.0584 48.2658 15.7088 48.7164C16.3593 49.1669 17.1287 49.4144 17.9198 49.4276Z" stroke="white"/>
<path d="M70.8278 96.288C70.5633 93.2186 71.1882 90.1379 72.6278 87.4141C73.814 85.2681 74.7316 82.9843 75.3598 80.6141C75.6349 78.2058 75.6784 75.7766 75.4898 73.36C75.4898 73.044 75.4898 72.7281 75.4898 72.3721H78.1578C78.1578 73.4701 78.0758 74.532 78.1718 75.572C78.5609 79.2926 77.8082 83.0436 76.0138 86.326C75.6498 86.996 75.4578 87.7601 75.1098 88.4421C73.7923 90.834 73.227 93.5678 73.4878 96.2861L70.8278 96.288Z" fill="black" stroke="white"/>
<path d="M45.2599 96.288C45.2359 95.938 45.1839 95.586 45.1939 95.236C45.3669 94.3928 45.3318 93.5202 45.0917 92.6936C44.8516 91.867 44.4137 91.1114 43.8159 90.4921L46.1459 88.998C46.9459 90.364 48.1159 91.4881 47.8839 93.2921C47.8233 94.2917 47.8366 95.2944 47.9239 96.2921L45.2599 96.288Z" fill="black" stroke="white"/>
<path d="M70.1777 46.7553C69.3977 51.9093 69.1377 52.4853 64.8337 58.6913H71.1597V61.6433H78.1037V69.6133H75.5037V64.3633H71.1877V68.4133H68.5257V61.4133H64.2017V68.4313H61.5297V58.8693H57.1857V68.4313H54.5037V67.3653C54.5037 60.1426 54.5037 52.9206 54.5037 45.6993C54.5318 45.209 54.44 44.7194 54.2362 44.2726C54.0324 43.8259 53.7227 43.4356 53.334 43.1356C52.9453 42.8355 52.4893 42.6348 52.0056 42.5508C51.5218 42.4667 51.0248 42.5019 50.5577 42.6532C49.9446 42.8429 49.4091 43.2251 49.0304 43.7432C48.6518 44.2613 48.4502 44.8876 48.4557 45.5293C48.4357 47.8373 48.4557 50.1472 48.4557 52.4552C48.4557 57.7539 48.4557 63.0519 48.4557 68.3493V69.4053H40.8557V70.3433C40.8557 73.4813 40.8397 76.6193 40.8737 79.7553C40.8866 80.2184 41.0174 80.6707 41.2537 81.0693C42.3797 82.9413 43.5557 84.7833 44.7617 86.7133L42.5137 88.1433C41.0877 85.8553 39.6797 83.6073 38.2877 81.3433C38.2054 81.1546 38.173 80.948 38.1937 80.7433C38.1937 76.2446 38.1937 71.7459 38.1937 67.2473C38.1937 67.1333 38.2157 67.0173 38.2377 66.8053H45.7897C45.7897 65.6593 45.8037 64.6053 45.7717 63.5593C45.7717 63.4273 45.5337 63.2433 45.3717 63.1873C43.1695 62.418 41.1261 61.2536 39.3417 59.7513L33.5417 65.5753C35.2117 69.1873 34.5277 72.5553 31.6077 74.5553C30.3159 75.4483 28.7502 75.8564 27.1868 75.7075C25.6234 75.5587 24.1628 74.8625 23.0627 73.7418C21.9626 72.6211 21.2936 71.1479 21.1737 69.5821C21.0539 68.0162 21.4909 66.4583 22.4077 65.1833C23.4274 63.7838 24.9446 62.8283 26.6473 62.5132C28.35 62.1981 30.1087 62.5474 31.5617 63.4893C32.4797 62.5573 33.4217 61.5873 34.3757 60.6313C35.3297 59.6753 36.3077 58.7252 37.2297 57.8172L34.6037 53.8732L37.0017 52.6313C38.8485 56.2484 41.9733 59.0504 45.7697 60.4933C45.7697 59.3713 45.8217 58.3733 45.7357 57.3893C45.7117 57.1173 45.3117 56.8193 45.0177 56.6393C42.9364 55.4973 41.2239 53.7856 40.0811 51.7047C38.9383 49.6239 38.4126 47.2603 38.5657 44.8913C38.5968 42.5454 39.2991 40.2574 40.5896 38.2981C41.88 36.3388 43.7047 34.7901 45.8477 33.8353C48.6827 32.4715 51.9188 32.1928 54.9452 33.0518C57.9716 33.9108 60.5788 35.8481 62.2746 38.4978C63.9704 41.1476 64.6375 44.3265 64.1498 47.4344C63.6621 50.5424 62.0535 53.3642 59.6277 55.3673C59.3777 55.5673 59.1237 55.7673 58.6857 56.1253C60.3577 56.1253 61.8377 56.1453 63.3177 56.1013C63.5177 56.1013 63.7177 55.7833 63.8797 55.5793C65.533 53.57 66.6706 51.1873 67.1934 48.6383C67.7162 46.0893 67.6085 43.4512 66.8797 40.9533C66.8197 40.7253 66.7417 40.5013 66.6797 40.2733C66.6792 40.1933 66.6906 40.1138 66.7137 40.0372L69.1877 39.1593L70.2537 44.0873H73.9397C75.1237 44.0873 76.3097 44.0553 77.4917 44.1013C78.0917 44.1253 78.3397 43.9493 78.5357 43.3453C78.8954 42.2641 79.5269 41.2935 80.3694 40.5265C81.212 39.7594 82.2375 39.2217 83.3476 38.9648C84.4577 38.7079 85.6151 38.7404 86.709 39.0593C87.8029 39.3782 88.7966 39.9726 89.5947 40.7858C90.3929 41.599 90.9688 42.6036 91.2672 43.7032C91.5656 44.8029 91.5766 45.9607 91.2991 47.0658C91.0215 48.1709 90.4648 49.1862 89.6822 50.0144C88.8996 50.8425 87.9173 51.4557 86.8297 51.7953C85.2035 52.3184 83.4375 52.1872 81.9065 51.4296C80.3755 50.6719 79.2001 49.3474 78.6297 47.7373C78.5977 47.5719 78.5332 47.4145 78.4397 47.2743C78.3463 47.1341 78.2258 47.014 78.0854 46.9209C77.9451 46.8278 77.7875 46.7636 77.6221 46.7321C77.4566 46.7006 77.2865 46.7023 77.1217 46.7373C74.8197 46.7933 72.5217 46.7573 70.1737 46.7573M57.1577 53.8093C58.9576 52.5984 60.321 50.8416 61.0473 48.7976C61.7735 46.7535 61.8241 44.5302 61.1917 42.4552C60.5238 40.2717 59.1445 38.3744 57.2734 37.0655C55.4023 35.7567 53.147 35.1116 50.8668 35.2331C48.5866 35.3546 46.4127 36.2356 44.6912 37.7358C42.9697 39.236 41.7998 41.2691 41.3677 43.5112C40.6137 47.5792 42.6437 52.4093 45.7677 53.7993C45.7677 53.4773 45.7677 53.1993 45.7677 52.9113C45.7677 50.3673 45.7297 47.8233 45.7857 45.2813C45.8398 43.7872 46.4801 42.3745 47.5681 41.349C48.6562 40.3236 50.1043 39.768 51.599 39.8024C53.0937 39.8369 54.5146 40.4586 55.5543 41.5331C56.5939 42.6076 57.1685 44.0483 57.1537 45.5433C57.1777 48.2553 57.1537 50.9693 57.1537 53.8073M84.8017 49.4213C85.3277 49.4317 85.8505 49.3368 86.3393 49.1423C86.8281 48.9478 87.2731 48.6576 87.6482 48.2887C88.0233 47.9197 88.3208 47.4796 88.5234 46.994C88.7259 46.5085 88.8294 45.9874 88.8277 45.4613C88.8356 44.6696 88.6084 43.8934 88.1748 43.2309C87.7413 42.5685 87.1209 42.0496 86.3923 41.7399C85.6636 41.4303 84.8595 41.3439 84.0816 41.4916C83.3038 41.6393 82.5873 42.0145 82.0229 42.5696C81.4585 43.1248 81.0715 43.835 80.911 44.6103C80.7504 45.3855 80.8236 46.191 81.1211 46.9247C81.4187 47.6583 81.9272 48.2872 82.5824 48.7316C83.2376 49.1761 84.01 49.4161 84.8017 49.4213ZM27.8017 73.0513C28.328 73.0551 28.8497 72.9534 29.336 72.7522C29.8224 72.551 30.2634 72.2543 30.6332 71.8797C31.0029 71.5052 31.2938 71.0603 31.4886 70.5714C31.6835 70.0825 31.7784 69.5595 31.7677 69.0333C31.7588 67.9855 31.3392 66.9831 30.5991 66.2415C29.859 65.4998 28.8574 65.0782 27.8097 65.0672C26.7475 65.0714 25.7296 65.4933 24.9759 66.2417C24.2222 66.9902 23.7932 68.0051 23.7817 69.0672C23.7838 69.5929 23.8895 70.1129 24.0927 70.5977C24.2959 71.0825 24.5926 71.5224 24.966 71.8924C25.3393 72.2624 25.7819 72.5552 26.2685 72.7541C26.7551 72.9529 27.2761 73.0539 27.8017 73.0513Z" fill="black"/>
<path d="M70.1777 46.7553C69.3977 51.9093 69.1377 52.4853 64.8337 58.6913H71.1597V61.6433H78.1037V69.6133H75.5037V64.3633H71.1877V68.4133H68.5257V61.4133H64.2017V68.4313H61.5297V58.8693H57.1857V68.4313H54.5037V67.3653C54.5037 60.1426 54.5037 52.9206 54.5037 45.6993C54.5318 45.209 54.44 44.7194 54.2362 44.2726C54.0324 43.8259 53.7227 43.4356 53.334 43.1356C52.9453 42.8355 52.4893 42.6348 52.0056 42.5508C51.5218 42.4667 51.0248 42.5019 50.5577 42.6532C49.9446 42.8429 49.4091 43.2251 49.0304 43.7432C48.6518 44.2613 48.4502 44.8876 48.4557 45.5293C48.4357 47.8373 48.4557 50.1472 48.4557 52.4552C48.4557 57.7539 48.4557 63.0519 48.4557 68.3493V69.4053H40.8557V70.3433C40.8557 73.4813 40.8397 76.6193 40.8737 79.7553C40.8866 80.2184 41.0174 80.6707 41.2537 81.0693C42.3797 82.9413 43.5557 84.7833 44.7617 86.7133L42.5137 88.1433C41.0877 85.8553 39.6797 83.6073 38.2877 81.3433C38.2054 81.1546 38.173 80.948 38.1937 80.7433C38.1937 76.2446 38.1937 71.7459 38.1937 67.2473C38.1937 67.1333 38.2157 67.0173 38.2377 66.8053H45.7897C45.7897 65.6593 45.8037 64.6053 45.7717 63.5593C45.7717 63.4273 45.5337 63.2433 45.3717 63.1873C43.1695 62.418 41.1261 61.2536 39.3417 59.7513L33.5417 65.5753C35.2117 69.1873 34.5277 72.5553 31.6077 74.5553C30.3159 75.4483 28.7502 75.8564 27.1868 75.7075C25.6234 75.5587 24.1628 74.8625 23.0627 73.7418C21.9626 72.6211 21.2936 71.1479 21.1737 69.5821C21.0539 68.0162 21.4909 66.4583 22.4077 65.1833C23.4274 63.7838 24.9446 62.8283 26.6473 62.5132C28.35 62.1981 30.1087 62.5474 31.5617 63.4893C32.4797 62.5573 33.4217 61.5873 34.3757 60.6313C35.3297 59.6753 36.3077 58.7252 37.2297 57.8172L34.6037 53.8732L37.0017 52.6313C38.8485 56.2484 41.9733 59.0504 45.7697 60.4933C45.7697 59.3713 45.8217 58.3733 45.7357 57.3893C45.7117 57.1173 45.3117 56.8193 45.0177 56.6393C42.9364 55.4973 41.2239 53.7856 40.0811 51.7047C38.9383 49.6239 38.4126 47.2603 38.5657 44.8913C38.5968 42.5454 39.2991 40.2574 40.5896 38.2981C41.88 36.3388 43.7047 34.7901 45.8477 33.8353C48.6827 32.4715 51.9188 32.1928 54.9452 33.0518C57.9716 33.9108 60.5788 35.8481 62.2746 38.4978C63.9704 41.1476 64.6375 44.3265 64.1498 47.4344C63.6621 50.5424 62.0535 53.3642 59.6277 55.3673C59.3777 55.5673 59.1237 55.7673 58.6857 56.1253C60.3577 56.1253 61.8377 56.1453 63.3177 56.1013C63.5177 56.1013 63.7177 55.7833 63.8797 55.5793C65.533 53.57 66.6706 51.1873 67.1934 48.6383C67.7162 46.0893 67.6085 43.4512 66.8797 40.9533C66.8197 40.7253 66.7417 40.5013 66.6797 40.2733C66.6792 40.1933 66.6906 40.1138 66.7137 40.0372L69.1877 39.1593L70.2537 44.0873H73.9397C75.1237 44.0873 76.3097 44.0553 77.4917 44.1013C78.0917 44.1253 78.3397 43.9493 78.5357 43.3453C78.8954 42.2641 79.5269 41.2935 80.3694 40.5265C81.212 39.7594 82.2375 39.2217 83.3476 38.9648C84.4577 38.7079 85.6151 38.7404 86.709 39.0593C87.8029 39.3782 88.7966 39.9726 89.5947 40.7858C90.3929 41.599 90.9688 42.6036 91.2672 43.7032C91.5656 44.8029 91.5766 45.9607 91.2991 47.0658C91.0215 48.1709 90.4648 49.1862 89.6822 50.0144C88.8996 50.8425 87.9173 51.4557 86.8297 51.7953C85.2035 52.3184 83.4375 52.1872 81.9065 51.4296C80.3755 50.6719 79.2001 49.3474 78.6297 47.7373C78.5977 47.5719 78.5332 47.4145 78.4397 47.2743C78.3463 47.1341 78.2258 47.014 78.0854 46.9209C77.9451 46.8278 77.7875 46.7636 77.6221 46.7321C77.4566 46.7006 77.2865 46.7023 77.1217 46.7373C74.8197 46.7933 72.5217 46.7573 70.1737 46.7573M57.1577 53.8093C58.9576 52.5984 60.321 50.8416 61.0473 48.7976C61.7735 46.7535 61.8241 44.5302 61.1917 42.4552C60.5238 40.2717 59.1445 38.3744 57.2734 37.0655C55.4023 35.7567 53.147 35.1116 50.8668 35.2331C48.5866 35.3546 46.4127 36.2356 44.6912 37.7358C42.9697 39.236 41.7998 41.2691 41.3677 43.5112C40.6137 47.5792 42.6437 52.4093 45.7677 53.7993C45.7677 53.4773 45.7677 53.1993 45.7677 52.9113C45.7677 50.3673 45.7297 47.8233 45.7857 45.2813C45.8398 43.7872 46.4801 42.3745 47.5681 41.349C48.6562 40.3236 50.1043 39.768 51.599 39.8024C53.0937 39.8369 54.5146 40.4586 55.5543 41.5331C56.5939 42.6076 57.1685 44.0483 57.1537 45.5433C57.1777 48.2553 57.1537 50.9693 57.1537 53.8073M84.8017 49.4213C85.3277 49.4317 85.8505 49.3368 86.3393 49.1423C86.8281 48.9478 87.2731 48.6576 87.6482 48.2887C88.0233 47.9197 88.3208 47.4796 88.5234 46.994C88.7259 46.5085 88.8294 45.9874 88.8277 45.4613C88.8356 44.6696 88.6084 43.8934 88.1748 43.2309C87.7413 42.5685 87.1209 42.0496 86.3923 41.7399C85.6636 41.4303 84.8595 41.3439 84.0816 41.4916C83.3038 41.6393 82.5873 42.0145 82.0229 42.5696C81.4585 43.1248 81.0715 43.835 80.911 44.6103C80.7504 45.3855 80.8236 46.191 81.1211 46.9247C81.4187 47.6583 81.9272 48.2872 82.5824 48.7316C83.2376 49.1761 84.01 49.4161 84.8017 49.4213ZM27.8017 73.0513C28.328 73.0551 28.8497 72.9534 29.336 72.7522C29.8224 72.551 30.2634 72.2543 30.6332 71.8797C31.0029 71.5052 31.2938 71.0603 31.4886 70.5714C31.6835 70.0825 31.7784 69.5595 31.7677 69.0333C31.7588 67.9855 31.3392 66.9831 30.5991 66.2415C29.859 65.4998 28.8574 65.0782 27.8097 65.0672C26.7475 65.0714 25.7296 65.4933 24.9759 66.2417C24.2222 66.9902 23.7932 68.0051 23.7817 69.0672C23.7838 69.5929 23.8895 70.1129 24.0927 70.5977C24.2959 71.0825 24.5926 71.5224 24.966 71.8924C25.3393 72.2624 25.7819 72.5552 26.2685 72.7541C26.7551 72.9529 27.2761 73.0539 27.8017 73.0513Z" stroke="white"/>
<path d="M43.7158 80.0458L45.9718 78.6338L49.3598 84.0438L47.1178 85.4778L43.7178 80.0458" fill="black"/>
<path d="M43.7158 80.0458L45.9718 78.6338L49.3598 84.0438L47.1178 85.4778L43.7178 80.0458" stroke="white"/>
<path d="M69.9819 72.166H72.6019C72.6199 72.378 72.6459 72.548 72.6459 72.718C72.6459 74.254 72.6459 75.788 72.6459 77.388H70.0359C70.0159 77.188 69.9839 77.022 69.9839 76.852C69.9839 75.32 69.9839 73.788 69.9839 72.168" fill="black"/>
<path d="M69.9819 72.166H72.6019C72.6199 72.378 72.6459 72.548 72.6459 72.718C72.6459 74.254 72.6459 75.788 72.6459 77.388H70.0359C70.0159 77.188 69.9839 77.022 69.9839 76.852C69.9839 75.32 69.9839 73.788 69.9839 72.168" stroke="white"/>
<path d="M49.9356 89.998L48.5356 87.7541L50.7796 86.3301L52.1996 88.582L49.9396 89.998" fill="black"/>
<path d="M49.9356 89.998L48.5356 87.7541L50.7796 86.3301L52.1996 88.582L49.9396 89.998" stroke="white"/>
</g>
</g>
<defs>
<clipPath id="clip0_1116_288">
<rect width="100" height="100" fill="white"/>
</clipPath>
</defs>
</svg>
