<svg width="68" height="68" viewBox="0 0 68 68" fill="none" xmlns="http://www.w3.org/2000/svg">
<g clip-path="url(#clip0_500_2445)">
<path d="M47.2862 68C46.7476 67.7867 46.4409 67.3586 46.3027 66.8287C45.973 65.5651 45.1666 64.8293 43.9405 64.4169C43.0655 64.1225 42.2627 63.6183 41.3959 63.292C40.2243 62.8508 39.2978 62.1268 38.47 61.2004C37.3644 59.9633 36.1834 58.7939 35.0386 57.5916C34.8445 57.3877 34.7233 57.2106 34.4558 57.5668C31.2426 61.8476 26.8542 63.4192 21.6494 63.0524C21.2546 63.0245 20.9943 63.1081 20.7259 63.3976C19.8534 64.339 18.9549 65.2563 18.0598 66.1768C17.4791 66.7737 16.8511 66.8502 16.3767 66.3977C15.9001 65.9429 15.9496 65.3051 16.5184 64.7108C17.5439 63.6396 18.6005 62.5965 19.5918 61.4947C20.1123 60.9163 20.6668 60.7907 21.4189 60.8735C25.2817 61.2998 28.761 60.4437 31.6156 57.6514C32.8091 56.4838 32.8416 55.3089 31.7132 54.1267C30.8569 53.2305 29.998 52.3367 29.1368 51.4453C28.6854 50.978 28.3308 50.4511 28.0992 49.8417C27.5479 48.3905 28.0314 47.0835 29.4075 46.3681C30.7107 45.6906 32.0766 45.6493 33.4734 46.0164C35.2542 46.4847 36.8043 47.4187 38.3218 48.4565C38.4331 48.1617 38.237 47.9731 38.1475 47.7688C35.4597 41.636 32.771 35.5033 30.0676 29.3774C29.6525 28.4369 29.4451 27.4869 29.6935 26.4768C30.1019 24.8178 31.4124 23.7106 33.0834 23.5881C34.8097 23.4616 36.3302 24.4609 37.048 26.1322C38.286 29.0147 39.5521 31.8851 40.833 34.8215C41.4923 34.237 42.1514 33.7396 43.0053 33.5745C44.3803 33.3089 45.5453 33.7076 46.5236 34.6652C46.7888 34.9248 46.9094 34.9401 47.1884 34.6744C48.7591 33.1777 50.905 33.1573 52.4985 34.6304C52.8057 34.9143 52.9323 34.8895 53.2205 34.6136C55.2378 32.6819 58.3586 33.328 59.4882 35.9005C61.7006 40.9384 63.9039 45.9804 66.1161 51.0183C66.3078 51.4547 66.3795 51.8871 66.3392 52.3695C66.2288 53.6924 66.1686 55.0193 66.0799 56.3442C66.0434 56.8894 66.3883 57.3 66.558 57.7717C66.6923 58.1455 66.8925 58.4968 67.0118 58.8743C67.1823 59.4143 66.9626 59.835 66.4891 60.1055C66.0355 60.3644 65.3582 60.2395 65.1513 59.7589C64.6027 58.4846 63.6792 57.319 63.9846 55.7732C64.1122 55.1274 64.0538 54.4474 64.1328 53.7892C64.2732 52.619 64.0624 51.5569 63.5667 50.4646C61.4942 45.897 59.5066 41.2908 57.477 36.7035C57.1382 35.9379 56.46 35.5473 55.7427 35.6339C55.0064 35.7227 54.4357 36.2346 54.2467 36.9541C54.1511 37.318 54.218 37.6591 54.3578 37.989C54.7633 38.9446 55.1823 39.8946 55.5901 40.8493C55.9123 41.6041 55.7349 42.2285 55.1361 42.4819C54.528 42.7393 53.9858 42.4541 53.6414 41.6823C52.9214 40.069 52.2214 38.4469 51.4854 36.8408C51.0253 35.8368 50.0924 35.437 49.2125 35.8125C48.3311 36.1887 47.9682 37.147 48.3832 38.1596C48.9027 39.4268 49.4732 40.6729 50.015 41.9311C50.3461 42.7 50.1806 43.2913 49.5722 43.5659C48.9598 43.8424 48.4205 43.5694 48.0736 42.7897C47.1847 40.7918 46.3151 38.7853 45.4111 36.7944C44.9506 35.7803 44.0328 35.3805 43.1482 35.7443C42.2488 36.1142 41.89 37.0794 42.3352 38.1445C43.1106 39.9993 43.9313 41.8353 44.7363 43.6777C44.9304 44.1219 45.0424 44.5644 44.7315 44.999C44.2667 45.6489 43.3047 45.5729 42.929 44.829C42.5808 44.1394 42.2942 43.4188 41.9832 42.7105C39.7701 37.6735 37.5582 32.6359 35.3442 27.5991C35.2198 27.316 35.0851 27.0374 34.9485 26.7601C34.4956 25.8399 33.5542 25.4571 32.6866 25.8373C31.8683 26.1957 31.4761 27.1627 31.8532 28.085C32.4303 29.496 33.0599 30.8853 33.6729 32.2815C36.1067 37.8261 38.52 43.3799 40.999 48.9044C41.433 49.8719 41.2282 50.7227 40.9308 51.5885C40.6797 52.3193 39.8341 52.425 39.1745 51.855C38.1007 50.9271 36.9788 50.0668 35.7619 49.3351C34.8115 48.7635 33.8267 48.2647 32.7347 48.0173C31.9822 47.8467 31.249 47.8778 30.5258 48.1857C29.9968 48.4109 29.8937 48.7445 30.1464 49.2384C30.2995 49.5376 30.4967 49.7979 30.7285 50.0394C34.0393 53.4882 37.3488 56.938 40.6549 60.3912C40.9033 60.6507 41.1759 60.8478 41.5088 60.9967C43.1833 61.7454 44.8436 62.5257 46.5185 63.2733C46.9937 63.4854 47.3126 63.7986 47.505 64.2804C47.7508 64.8959 48.0342 65.4962 48.2982 66.1044C48.7277 67.093 48.5994 67.4859 47.6839 68H47.2853H47.2862Z" fill="white"/>
<path d="M31.43 7.85862C26.9364 7.85862 22.4429 7.86838 17.9495 7.84602C17.4025 7.84336 17.2448 7.98231 17.248 8.53794C17.271 12.6994 17.2625 16.861 17.2567 21.0224C17.2561 21.3628 17.3284 21.6542 17.4954 21.9615C18.2749 23.3968 18.4801 24.9872 18.5667 26.5771C18.7541 30.017 18.6315 33.4365 17.5156 36.745C17.432 36.9931 17.5122 37.1624 17.618 37.3601C19.1287 40.1861 19.9707 43.2152 20.3186 46.3873C20.3652 46.813 20.5125 46.9511 20.932 46.9442C22.1713 46.9234 23.4112 46.9367 24.6507 46.9389C25.2663 46.9399 25.7437 47.1621 25.885 47.8128C26.0294 48.478 25.5393 49.0373 24.7737 49.0529C23.601 49.0767 22.4268 49.0859 21.2547 49.051C20.7237 49.0352 20.5157 49.1537 20.5377 49.7374C20.57 50.5974 20.5292 51.4655 20.4433 52.3226C20.3849 52.9045 20.5853 53.0092 21.1232 53.0021C23.4028 52.9721 25.683 52.9959 27.963 52.9853C28.5918 52.9824 29.0556 53.1959 29.2047 53.8387C29.3696 54.5494 28.8361 55.1079 27.9863 55.1112C25.6177 55.1206 23.249 55.1357 20.8809 55.1001C20.2921 55.0912 20.0428 55.2504 20.0279 55.8477C20.0194 56.1929 19.9432 56.5552 19.6659 56.8209C19.3042 57.1673 18.8843 57.2326 18.4453 57.018C17.9672 56.7845 17.8061 56.3669 17.8881 55.8546C18.1401 54.2807 18.3452 52.702 18.3862 51.1063C18.5078 46.3807 17.7486 41.8539 15.3463 37.7008C15.1469 37.3558 15.0429 37.0014 15.2374 36.6311C16.1486 34.8957 16.3039 32.9893 16.4237 31.0952C16.5704 28.7753 16.5818 26.449 16.0679 24.1574C15.7687 22.8235 15.1976 22.3488 13.9375 22.3724C12.6782 22.3958 11.9155 23.0511 11.6812 24.2744C11.2889 26.3224 10.6037 28.2891 9.89386 30.2386C8.09619 35.1757 7.17109 40.255 7.21297 45.5094C7.21581 45.8727 7.16204 46.2093 6.90543 46.495C5.52994 48.0265 4.16066 49.5633 2.78552 51.095C2.49041 51.4236 2.11047 51.5054 1.69432 51.3974C1.29113 51.2927 1.05866 51.0011 0.961058 50.614C0.852098 50.1818 1.06097 49.8464 1.33852 49.5367C2.47603 48.2677 3.60823 46.9937 4.74663 45.7252C4.94255 45.5068 5.09375 45.2952 5.09126 44.9714C5.04814 39.2089 6.32656 33.7023 8.2953 28.3235C8.84915 26.8101 9.31321 25.2651 9.64471 23.6808C10.1141 21.4375 11.9881 20.0648 14.3201 20.2899C14.9997 20.3555 15.1575 20.2187 15.1529 19.5309C15.1202 14.7497 15.2125 9.96667 15.1073 5.18767C15.0422 2.25656 17.2766 0.0470088 20.1715 0.0301501C27.6752 -0.013505 35.1794 -0.00534186 42.6833 0.0266009C45.117 0.0368936 47.0827 1.58594 47.6107 3.73161C47.718 4.16763 47.7143 4.60968 47.7143 5.05138C47.7163 13.3522 47.7159 21.6533 47.7152 29.9542C47.7152 30.1533 47.7218 30.3545 47.6964 30.551C47.6277 31.0814 47.3019 31.3966 46.788 31.4571C46.2387 31.5217 45.8329 31.2622 45.6749 30.7258C45.5958 30.4567 45.5938 30.1588 45.5937 29.8738C45.5896 22.7905 45.5839 15.707 45.6027 8.62365C45.6043 8.0343 45.4751 7.83892 44.8442 7.843C40.373 7.87246 35.9015 7.85862 31.43 7.85862ZM31.3999 5.73318C35.8465 5.73318 40.2933 5.73318 44.7399 5.73318C44.9168 5.73318 45.0939 5.72519 45.2707 5.73087C45.4936 5.73797 45.561 5.63327 45.5933 5.41571C45.7956 4.05743 45.1418 2.89613 43.8611 2.39232C43.3827 2.20421 42.8817 2.13607 42.3673 2.13625C35.0889 2.13855 27.8104 2.1366 20.5321 2.14175C20.2027 2.14192 19.868 2.17351 19.545 2.2374C18.076 2.5279 17.2964 3.54066 17.2425 5.03843C17.2198 5.66859 17.4508 5.74667 17.9933 5.74436C22.4621 5.72484 26.9309 5.73336 31.3997 5.73336L31.3999 5.73318Z" fill="white"/>
</g>
<defs>
<clipPath id="clip0_500_2445">
<rect width="66.1379" height="68" fill="white" transform="translate(0.931152)"/>
</clipPath>
</defs>
</svg>
