<svg width="57" height="57" viewBox="0 0 57 57" fill="none" xmlns="http://www.w3.org/2000/svg">
<path d="M51.8315 0H5.16706C2.31564 0.0057 0.004275 2.31562 0 5.16705V51.8315C0.0057 54.6844 2.31564 56.9943 5.16706 57H51.8315C54.6844 56.9943 56.9943 54.6844 57 51.8315V5.16705C56.9943 2.31562 54.6844 0.0057 51.8315 0Z" fill="#DC395F"/>
<path d="M19.048 17.9365C20.9404 17.9094 22.4552 16.3533 22.4295 14.4595C22.401 12.5657 20.8464 11.0509 18.9526 11.078C17.0787 11.1036 15.571 12.6312 15.571 14.5065C15.581 16.4103 17.1343 17.9465 19.0381 17.9365C19.0409 17.9365 19.0438 17.9365 19.048 17.9365ZM11.8276 36.309C11.6338 37.1526 11.5312 38.0162 11.524 38.884C11.524 41.9036 13.1571 43.9086 16.644 43.9086C19.494 43.9086 21.8695 42.1986 23.561 39.4241L22.525 43.5566H28.225L31.5396 30.401C32.3575 27.075 33.945 25.3465 36.3575 25.3465C37.9264 25.2168 39.3015 26.3825 39.4326 27.9514C39.4483 28.1338 39.4455 28.3191 39.4241 28.5015C39.4355 29.1256 39.3486 29.7469 39.1676 30.344L37.4761 36.386C37.2367 37.221 37.1185 38.0832 37.1242 38.9524C37.1242 41.8024 38.8071 43.91 42.3397 43.91C45.3621 43.91 47.7746 42.0105 49.1041 37.2595L46.8526 36.396C45.7226 39.5124 44.7522 40.0824 44.0026 40.0824C43.2531 40.0824 42.8242 39.5694 42.8242 38.5434C42.8498 38.0062 42.9353 37.4747 43.0821 36.9574L44.7151 31.0665C45.087 29.8566 45.2794 28.5998 45.2837 27.333C45.2837 22.934 42.6147 20.6825 39.3942 20.6825C36.3746 20.6825 33.2966 23.4099 31.7947 26.2685L32.9147 21.1285H24.1182L22.887 25.65H26.981L24.4616 35.739C22.4766 40.148 18.84 40.215 18.3825 40.1081C17.6316 39.9385 17.157 39.6521 17.157 38.6831C17.1813 37.8894 17.301 37.1028 17.509 36.3375L21.3551 21.1371H11.6281L10.3926 25.65H14.4382L11.8276 36.309Z" fill="white"/>
</svg>
