<svg width="48" height="48" viewBox="0 0 48 48" fill="none" xmlns="http://www.w3.org/2000/svg">
<path d="M41.0631 22.9435C42.6109 14.2294 35.7541 5.26289 26.2602 7.2699M26.2602 7.2699L29.5782 10.0866M26.2602 7.2699L28.8974 4.20801M6.20143 25.0563C4.65361 33.7704 11.5104 42.7369 21.0043 40.7298M21.0043 40.7298L17.6864 37.9132M21.0043 40.7298L18.3672 43.7917" stroke="#2E2E2E" stroke-width="2"/>
<path fill-rule="evenodd" clip-rule="evenodd" d="M14.4635 23.0566C19.1849 23.0566 23.0123 19.2292 23.0123 14.5078C23.0123 9.78643 19.1849 5.95898 14.4635 5.95898C9.742 5.95898 5.91455 9.78643 5.91455 14.5078C5.91455 19.2292 9.742 23.0566 14.4635 23.0566ZM14.4635 25.0566C20.2894 25.0566 25.0123 20.3338 25.0123 14.5078C25.0123 8.68185 20.2894 3.95898 14.4635 3.95898C8.63744 3.95898 3.91455 8.68185 3.91455 14.5078C3.91455 20.3338 8.63744 25.0566 14.4635 25.0566Z" fill="#2E2E2E"/>
<path d="M14.2037 8.17773V20.8363M18.1595 10.0683H12.9865C12.2602 10.0683 11.5636 10.3021 11.05 10.7183C10.5364 11.1345 10.2478 11.6991 10.2478 12.2877C10.2478 12.8763 10.5364 13.4408 11.05 13.857C11.5636 14.2732 12.2602 14.507 12.9865 14.507H15.4208C15.7805 14.507 16.1366 14.5644 16.4689 14.676C16.8012 14.7875 17.1031 14.951 17.3574 15.1571C17.6117 15.3631 17.8134 15.6078 17.951 15.8771C18.0887 16.1463 18.1595 16.4349 18.1595 16.7264C18.1595 17.0178 18.0887 17.3064 17.951 17.5757C17.8134 17.845 17.6117 18.0896 17.3574 18.2957C17.1031 18.5018 16.8012 18.6653 16.4689 18.7768C16.1366 18.8883 15.7805 18.9458 15.4208 18.9458H10.2478" stroke="url(#paint0_linear_1081_2561)" stroke-width="2" stroke-linecap="round" stroke-linejoin="round"/>
<path d="M41.0838 34.1008C41.1213 33.8093 41.1494 33.5178 41.1494 33.208C41.1494 32.8983 41.1213 32.6067 41.0838 32.3152L43.06 30.812C43.238 30.6754 43.2848 30.4294 43.1724 30.2289L41.2992 27.0768C41.1868 26.8763 40.9339 26.8035 40.7279 26.8763L38.3958 27.7874C37.9087 27.423 37.3842 27.1223 36.8129 26.8946L36.457 24.4803C36.4415 24.3731 36.3863 24.2751 36.3019 24.2047C36.2174 24.1342 36.1094 24.0962 35.9981 24.0977H32.2517C32.0175 24.0977 31.8209 24.2617 31.7928 24.4803L31.4369 26.8946C30.8655 27.1223 30.341 27.4321 29.854 27.7874L27.5219 26.8763C27.3065 26.7944 27.0629 26.8763 26.9506 27.0768L25.0774 30.2289C24.9556 30.4294 25.0118 30.6754 25.1898 30.812L27.166 32.3152C27.1285 32.6067 27.1004 32.9074 27.1004 33.208C27.1004 33.5087 27.1285 33.8093 27.166 34.1008L25.1898 35.604C25.0118 35.7407 24.965 35.9867 25.0774 36.1871L26.9506 39.3393C27.0629 39.5397 27.3158 39.6126 27.5219 39.5397L29.854 38.6287C30.341 38.9931 30.8655 39.2937 31.4369 39.5215L31.7928 41.9357C31.8209 42.1544 32.0175 42.3183 32.2517 42.3183H35.9981C36.2322 42.3183 36.4289 42.1544 36.457 41.9357L36.8129 39.5215C37.3842 39.2937 37.9087 38.984 38.3958 38.6287L40.7279 39.5397C40.9433 39.6217 41.1868 39.5397 41.2992 39.3393L43.1724 36.1871C43.2848 35.9867 43.238 35.7407 43.06 35.604L41.0838 34.1008ZM34.1249 36.3966C32.3173 36.3966 30.8468 34.9663 30.8468 33.208C30.8468 31.4497 32.3173 30.0194 34.1249 30.0194C35.9325 30.0194 37.403 31.4497 37.403 33.208C37.403 34.9663 35.9325 36.3966 34.1249 36.3966Z" stroke="#2E2E2E" stroke-width="2"/>
<defs>
<linearGradient id="paint0_linear_1081_2561" x1="10.2478" y1="14.507" x2="18.1595" y2="14.507" gradientUnits="userSpaceOnUse">
<stop stop-color="#9358F6"/>
<stop offset="0.26" stop-color="#7A78F2"/>
<stop offset="0.515" stop-color="#6197ED"/>
<stop offset="0.76" stop-color="#44B5E9"/>
<stop offset="1" stop-color="#0FD7E1"/>
</linearGradient>
</defs>
</svg>
