<svg width="58" height="58" viewBox="0 0 58 58" fill="none" xmlns="http://www.w3.org/2000/svg">
<g clip-path="url(#clip0_1058_2016)">
<path fill-rule="evenodd" clip-rule="evenodd" d="M28.9982 18.9837C23.4664 18.9837 18.973 23.4736 18.973 29.009C18.973 34.5479 23.4629 39.0378 28.9982 39.0378C34.5371 39.0378 39.027 34.5479 39.027 29.009C39.0234 23.4736 34.5336 18.9873 28.9982 18.9837ZM49.0236 19.8932L48.8303 19.4742L48.5295 19.8251C47.7812 20.6737 46.8324 21.3289 45.7726 21.7228L45.4718 21.8302L45.59 22.1309C46.4994 24.3186 46.9684 26.6709 46.9684 29.034C46.9684 38.9626 38.916 47.0221 28.9839 47.0221C19.0518 47.0221 11.0029 38.9626 11.0029 29.0304C11.0029 19.0983 19.0553 11.0459 28.9875 11.0459C31.6585 11.0459 34.2901 11.6402 36.7033 12.786L36.9826 12.9185L37.1007 12.6177C37.5483 11.583 38.2501 10.6664 39.1344 9.96102L39.4889 9.66027L39.0843 9.44902C35.9908 7.8414 32.5428 7 29.0483 7C29.0376 7 29.0125 7 28.991 7C16.8498 7 7 16.8498 7 28.9982C7 41.1466 16.8569 50.9964 28.9982 50.9964C41.1502 50.9964 50.9964 41.1466 50.9964 28.9982C50.9964 25.8474 50.3233 22.7289 49.0129 19.8681L49.0236 19.8932ZM47.9602 15.303C47.9602 12.7824 45.9194 10.738 43.3951 10.738C40.8745 10.738 38.8301 12.7824 38.8301 15.303C38.8301 17.8308 40.8745 19.8753 43.3951 19.8753C45.9229 19.8753 47.9602 17.8272 47.9602 15.303Z" fill="black"/>
</g>
<defs>
<clipPath id="clip0_1058_2016">
<rect width="44" height="44" fill="white" transform="translate(7 7)"/>
</clipPath>
</defs>
</svg>
