<svg width="60" height="60" viewBox="0 0 60 60" fill="none" xmlns="http://www.w3.org/2000/svg">
<path d="M30.9863 22.7987C30.9863 22.7987 25.5069 19.7286 21.6712 20.7517C17.8356 21.7748 14.0042 26.3817 14 32.5264C13.9958 38.671 20.0274 49.4197 23.3151 49.9323C26.6027 50.445 28.2466 47.8838 30.9863 47.8838" stroke="black" stroke-width="2" stroke-linecap="round"/>
<path d="M30.9857 22.7987C30.9857 22.7987 36.4651 19.7286 40.3007 20.7517C42.2583 21.2738 44.2147 22.7294 45.6619 24.8465C45.6619 24.8465 40.8487 26.8943 40.8487 32.0137C40.8487 37.1331 46.3281 39.5593 46.3281 39.5593C44.3036 44.6368 40.8627 49.5884 38.6569 49.9323C35.3692 50.445 32.6295 47.8838 30.9857 47.8838" stroke="black" stroke-width="2" stroke-linecap="round"/>
<path d="M29.8906 19.7269C30.4967 13.5992 32.0268 11.2731 38.6577 10" stroke="black" stroke-width="2" stroke-linecap="round"/>
<path d="M38.6562 9.99993C38.0502 16.1277 36.5201 18.4537 29.8891 19.7268" stroke="black" stroke-width="2" stroke-linecap="round"/>
</svg>
