<svg width="57" height="57" viewBox="0 0 57 57" fill="none" xmlns="http://www.w3.org/2000/svg">
<g clip-path="url(#clip0_1021_881)">
<path d="M12.35 0H44.65C51.4187 0 57 5.58125 57 12.35V44.65C57 51.4187 51.4187 57 44.65 57H12.35C5.58125 57 0 51.4187 0 44.65V12.35C0 5.58125 5.58125 0 12.35 0Z" fill="#FFD02F"/>
<path fill-rule="evenodd" clip-rule="evenodd" d="M39.5437 7.125H33.25L38.475 16.2687L27.075 7.125H20.7812L26.4812 18.2875L14.6063 7.125H8.3125L14.6063 21.375L8.3125 49.875H14.6063L26.6 19.3562L20.7812 49.875H27.075L38.5938 17.3375L33.3688 49.875H39.6625L51.0625 14.25L39.5437 7.125Z" fill="#050038"/>
</g>
<defs>
<clipPath id="clip0_1021_881">
<rect width="57" height="57" fill="white"/>
</clipPath>
</defs>
</svg>
