<svg width="40" height="40" viewBox="0 0 40 40" fill="none" xmlns="http://www.w3.org/2000/svg">
<mask id="mask0_1058_2076" style="mask-type:luminance" maskUnits="userSpaceOnUse" x="4" y="13" width="32" height="16">
<path d="M36 28.9998C35.9529 24.7874 34.2465 20.7634 31.251 17.8012C28.2555 14.8391 24.2127 13.1777 20 13.1777C15.7873 13.1777 11.7445 14.8391 8.74901 17.8012C5.75355 20.7634 4.0471 24.7874 4 28.9998H36Z" fill="white"/>
</mask>
<g mask="url(#mask0_1058_2076)">
<path d="M36 29V31H38V29H36ZM4 29H2V31H4V29ZM38 29C38 26.6363 37.5345 24.2958 36.63 22.112L32.934 23.642C33.6377 25.3407 34 27.1613 34 29H38ZM36.63 22.112C35.7255 19.928 34.3996 17.9435 32.728 16.272L29.899 19.101C31.199 20.401 32.231 21.944 32.934 23.642L36.63 22.112ZM32.728 16.272C31.0565 14.6004 29.072 13.2745 26.888 12.37L25.358 16.066C27.0562 16.7697 28.5993 17.801 29.899 19.101L32.728 16.272ZM26.888 12.37C24.7042 11.4655 22.3637 11 20 11V15C21.8387 15 23.6593 15.3623 25.358 16.066L26.888 12.37ZM20 11C17.6363 11 15.2958 11.4655 13.112 12.37L14.642 16.066C16.3407 15.3623 18.1613 15 20 15V11ZM13.112 12.37C10.928 13.2745 8.94354 14.6005 7.272 16.272L10.101 19.101C11.401 17.801 12.944 16.769 14.642 16.066L13.112 12.37ZM7.272 16.272C5.60045 17.9435 4.27454 19.928 3.37 22.112L7.066 23.642C7.76973 21.9438 8.80102 20.4007 10.101 19.101L7.272 16.272ZM3.37 22.112C2.46551 24.2958 1.99999 26.6363 2 29H6C6.00004 27.1613 6.36227 25.3407 7.066 23.642L3.37 22.112ZM4 31H36V27H4V31Z" fill="#2E2E2E"/>
</g>
<path d="M15.5 24C16.3284 24 17 23.3284 17 22.5C17 21.6716 16.3284 21 15.5 21C14.6716 21 14 21.6716 14 22.5C14 23.3284 14.6716 24 15.5 24Z" fill="url(#paint0_linear_1058_2076)"/>
<path d="M24.5 24C25.3284 24 26 23.3284 26 22.5C26 21.6716 25.3284 21 24.5 21C23.6716 21 23 21.6716 23 22.5C23 23.3284 23.6716 24 24.5 24Z" fill="url(#paint1_linear_1058_2076)"/>
<path d="M9.40576 12.1562L12.1558 15.5942M30.5938 12.1562L27.8438 15.5942" stroke="#2E2E2E" stroke-width="2" stroke-linecap="round"/>
<defs>
<linearGradient id="paint0_linear_1058_2076" x1="15.1799" y1="25.4022" x2="18.3504" y2="22.8405" gradientUnits="userSpaceOnUse">
<stop stop-color="#9358F7"/>
<stop offset="0.259732" stop-color="#7B78F2"/>
<stop offset="0.500607" stop-color="#6197EE"/>
<stop offset="0.766547" stop-color="#45B5E9"/>
<stop offset="1" stop-color="#10D7E2"/>
</linearGradient>
<linearGradient id="paint1_linear_1058_2076" x1="24.1799" y1="25.4022" x2="27.3504" y2="22.8405" gradientUnits="userSpaceOnUse">
<stop stop-color="#9358F7"/>
<stop offset="0.259732" stop-color="#7B78F2"/>
<stop offset="0.500607" stop-color="#6197EE"/>
<stop offset="0.766547" stop-color="#45B5E9"/>
<stop offset="1" stop-color="#10D7E2"/>
</linearGradient>
</defs>
</svg>
