<svg width="44" height="44" viewBox="0 0 44 44" fill="none" xmlns="http://www.w3.org/2000/svg">
<path d="M34 5H10C8.34315 5 7 6.34315 7 8V36C7 37.6569 8.34315 39 10 39H34C35.6569 39 37 37.6569 37 36V8C37 6.34315 35.6569 5 34 5Z" stroke="white" stroke-width="2"/>
<path d="M24 7.5H20C19.7239 7.5 19.5 7.72386 19.5 8C19.5 8.27614 19.7239 8.5 20 8.5H24C24.2761 8.5 24.5 8.27614 24.5 8C24.5 7.72386 24.2761 7.5 24 7.5Z" stroke="white"/>
<path d="M34 14.5H25C24.7239 14.5 24.5 14.7239 24.5 15C24.5 15.2761 24.7239 15.5 25 15.5H34C34.2761 15.5 34.5 15.2761 34.5 15C34.5 14.7239 34.2761 14.5 34 14.5Z" stroke="white"/>
<path d="M34 17.5H25C24.7239 17.5 24.5 17.7239 24.5 18C24.5 18.2761 24.7239 18.5 25 18.5H34C34.2761 18.5 34.5 18.2761 34.5 18C34.5 17.7239 34.2761 17.5 34 17.5Z" stroke="white"/>
<path d="M32 20.5H25C24.7239 20.5 24.5 20.7239 24.5 21C24.5 21.2761 24.7239 21.5 25 21.5H32C32.2761 21.5 32.5 21.2761 32.5 21C32.5 20.7239 32.2761 20.5 32 20.5Z" stroke="white"/>
<path d="M33 23.5H25C24.7239 23.5 24.5 23.7239 24.5 24C24.5 24.2761 24.7239 24.5 25 24.5H33C33.2761 24.5 33.5 24.2761 33.5 24C33.5 23.7239 33.2761 23.5 33 23.5Z" stroke="white"/>
<path d="M36 30.5H8C7.72386 30.5 7.5 30.7239 7.5 31C7.5 31.2761 7.72386 31.5 8 31.5H36C36.2761 31.5 36.5 31.2761 36.5 31C36.5 30.7239 36.2761 30.5 36 30.5Z" stroke="white"/>
<path d="M21 15H12C11.4477 15 11 15.4477 11 16V23C11 23.5523 11.4477 24 12 24H21C21.5523 24 22 23.5523 22 23V16C22 15.4477 21.5523 15 21 15Z" stroke="white" stroke-width="2"/>
<path d="M22 15L11 24" stroke="white" stroke-width="2"/>
<path d="M11 15L22 24" stroke="white" stroke-width="2"/>
<path d="M23 35C23 34.4477 22.5523 34 22 34C21.4477 34 21 34.4477 21 35C21 35.5523 21.4477 36 22 36C22.5523 36 23 35.5523 23 35Z" stroke="white" stroke-width="2"/>
</svg>
