<svg width="73" height="73" viewBox="0 0 73 73" fill="none" xmlns="http://www.w3.org/2000/svg">
<path d="M1.07324 37.2185L5.67459 18.0221C6.22662 15.7191 8.55913 14.3156 10.8525 14.9065C13.0916 15.4835 14.4548 17.749 13.9158 19.9975L9.28101 39.3334" fill="url(#paint0_linear_500_2306)"/>
<path d="M52.7998 18.022L62.1777 35.4304C63.3295 37.5685 66.0036 38.3574 68.1315 37.1869C70.2328 36.031 71.01 33.3975 69.873 31.2859L60.4628 13.8096" fill="url(#paint1_linear_500_2306)"/>
<path d="M36.0339 59.1346C35.6265 59.1346 35.219 59.0763 34.8212 58.9549C33.7283 58.6295 32.8272 57.8913 32.2855 56.8811C31.9644 56.2886 31.8014 55.6475 31.7726 55.0162L31.5521 55.1376C30.5503 55.6864 29.3999 55.8127 28.3119 55.4873C27.219 55.1619 26.3178 54.4236 25.7762 53.4135C25.455 52.821 25.2921 52.1799 25.2633 51.5485L25.0428 51.6699C24.041 52.2187 22.8906 52.345 21.8025 52.0196C20.7096 51.6942 19.8085 50.956 19.2669 49.9458C18.1452 47.8575 18.9074 45.23 20.9733 44.0935L21.1938 43.9721C20.6761 43.5982 20.2399 43.1028 19.9283 42.52C19.3867 41.5098 19.2621 40.3394 19.5832 39.2369C19.9044 38.1296 20.633 37.2214 21.63 36.6677L25.6659 34.4434C26.2459 34.1228 26.9745 34.3414 27.2909 34.929C27.6072 35.5167 27.3915 36.2549 26.8115 36.5754L22.7756 38.7998C21.8744 39.2952 21.5389 40.4462 22.0278 41.3592C22.2675 41.8012 22.6605 42.1266 23.1351 42.2674C23.6048 42.4083 24.0985 42.3597 24.5347 42.1266L34.4137 36.6774C34.9937 36.3569 35.7223 36.5754 36.0387 37.1631C36.355 37.7508 36.1393 38.489 35.5594 38.8095L25.6995 44.2441C25.6995 44.2441 25.6803 44.2538 25.6707 44.2587L22.1141 46.2208C21.2129 46.7161 20.8774 47.8672 21.3663 48.7802C21.606 49.2222 21.9991 49.5476 22.4736 49.6884C22.9529 49.8341 23.4514 49.7758 23.8924 49.5379L37.3377 42.1266C37.9177 41.8061 38.6462 42.0246 38.9626 42.6123C39.279 43.1999 39.0633 43.9381 38.4833 44.2587L28.6234 49.6933C27.7223 50.1886 27.3867 51.3397 27.8757 52.2527C28.1153 52.6947 28.5084 53.0201 28.9829 53.1609C29.4575 53.3018 29.9608 53.2483 30.4017 53.0104L40.2616 47.5758C40.8416 47.2552 41.5702 47.4738 41.8865 48.0614C42.2029 48.6491 41.9872 49.3873 41.4072 49.7078L35.1327 53.1658C34.2316 53.6612 33.8961 54.8122 34.385 55.7252C34.8739 56.6383 36.0099 56.9782 36.9111 56.4829L54.9867 46.517C56.487 45.6914 57.7956 44.5064 58.7686 43.0882L61.913 38.5181L51.5355 19.1983C51.2191 18.6107 51.4348 17.8725 52.0148 17.5519C52.5948 17.2314 53.3234 17.4499 53.6398 18.0376L64.372 38.0179C64.5877 38.421 64.5637 38.9164 64.3001 39.2903L60.7339 44.4724C59.5451 46.1965 57.9537 47.6438 56.1323 48.6491L38.0567 58.6149C37.424 58.9646 36.7289 59.1395 36.0243 59.1395L36.0339 59.1346Z" fill="#28292B"/>
<path d="M14.2001 44.2004C13.9221 44.2004 13.6489 44.1033 13.4236 43.909L8.68298 39.8051C8.33786 39.504 8.18927 39.0378 8.29952 38.591L13.7064 16.5175C13.8166 16.0707 14.1665 15.7258 14.6075 15.6238L20.695 14.2446C22.7226 13.7832 24.8556 13.8123 26.8736 14.3174L42.8833 18.3484C43.9858 18.6253 44.9205 19.3246 45.5053 20.3105C46.09 21.2964 46.2626 22.4572 45.9894 23.579C45.7162 24.6961 45.0259 25.6431 44.0529 26.2356C43.0798 26.8281 41.9342 27.0078 40.827 26.7262L33.0043 24.7592C32.2613 26.7067 30.9048 28.3434 29.1121 29.441C26.9695 30.7475 24.453 31.1311 22.0276 30.5192L20.0479 30.019C19.4056 29.8587 19.0126 29.1982 19.1756 28.5474C19.3337 27.8966 19.9856 27.5032 20.6279 27.6635L22.6076 28.1637C24.4147 28.6202 26.284 28.3337 27.8802 27.3624C29.4764 26.391 30.598 24.8466 31.0486 23.0157C31.1253 22.7048 31.3218 22.4329 31.595 22.2677C31.8683 22.1026 32.1942 22.0541 32.501 22.1269L41.4118 24.3707C41.8959 24.4921 42.3944 24.4144 42.821 24.157C43.2476 23.8996 43.5496 23.4868 43.6694 22.9962C43.7893 22.5057 43.7126 22.0006 43.4585 21.5684C43.1997 21.1361 42.797 20.8302 42.3129 20.7088L26.2936 16.6729C24.6351 16.2552 22.8808 16.2358 21.2175 16.6146L15.8538 17.8288L10.8016 38.4453L14.9814 42.0635C15.4847 42.5006 15.5422 43.2631 15.1156 43.773C14.8807 44.0547 14.5404 44.2004 14.2049 44.2004H14.2001Z" fill="#28292B"/>
<defs>
<linearGradient id="paint0_linear_500_2306" x1="6.50634" y1="51.2529" x2="26.7566" y2="42.3905" gradientUnits="userSpaceOnUse">
<stop stop-color="#9358F7"/>
<stop offset="0.259732" stop-color="#7B78F2"/>
<stop offset="0.500607" stop-color="#6197EE"/>
<stop offset="0.766547" stop-color="#45B5E9"/>
<stop offset="1" stop-color="#10D7E2"/>
</linearGradient>
<linearGradient id="paint1_linear_500_2306" x1="60.3225" y1="51.2313" x2="84.7588" y2="36.4237" gradientUnits="userSpaceOnUse">
<stop stop-color="#9358F7"/>
<stop offset="0.259732" stop-color="#7B78F2"/>
<stop offset="0.500607" stop-color="#6197EE"/>
<stop offset="0.766547" stop-color="#45B5E9"/>
<stop offset="1" stop-color="#10D7E2"/>
</linearGradient>
</defs>
</svg>
