<svg width="100" height="100" viewBox="0 0 100 100" fill="none" xmlns="http://www.w3.org/2000/svg">
<g clip-path="url(#clip0_1116_386)">
<path d="M91.7202 54.9538C91.7202 62.9965 91.7202 71.0398 91.7202 79.0838C91.7202 80.7598 91.2922 81.1858 89.6142 81.1858C86.5675 81.1858 83.5202 81.1858 80.4722 81.1858C79.0422 81.1858 78.5562 80.6979 78.5562 79.2639C78.5562 62.9972 78.5562 46.7305 78.5562 30.4639C78.5562 29.0299 79.0402 28.5499 80.4762 28.5479C83.5842 28.5479 86.6922 28.5479 89.8002 28.5479C91.2322 28.5479 91.7182 29.0338 91.7182 30.4678C91.7182 38.6332 91.7182 46.7985 91.7182 54.9639M81.5422 78.1978H88.7422V31.4978H81.5422V78.1978Z" fill="black"/>
<path d="M91.7202 54.9538C91.7202 62.9965 91.7202 71.0398 91.7202 79.0838C91.7202 80.7598 91.2922 81.1858 89.6142 81.1858C86.5675 81.1858 83.5202 81.1858 80.4722 81.1858C79.0422 81.1858 78.5562 80.6979 78.5562 79.2639C78.5562 62.9972 78.5562 46.7305 78.5562 30.4639C78.5562 29.0299 79.0402 28.5499 80.4762 28.5479C83.5842 28.5479 86.6922 28.5479 89.8002 28.5479C91.2322 28.5479 91.7182 29.0338 91.7182 30.4678C91.7182 38.6332 91.7182 46.7985 91.7182 54.9639M81.5422 78.1978H88.7422V31.4978H81.5422V78.1978Z" stroke="white"/>
<path d="M36.836 56.7318C36.416 57.2658 36.036 57.7538 35.65 58.2358C35.35 58.6098 34.744 58.8358 35.158 59.5098C35.558 60.1458 35.476 61.0818 36.724 60.9998C38.724 60.8698 39.056 61.2978 39.056 63.2978C39.056 64.6678 39.056 66.0378 39.056 67.4078C39.056 68.6678 38.546 69.1718 37.288 69.2078C37.166 69.2078 37.044 69.2078 36.922 69.2078C36.4255 69.2123 35.9501 69.4094 35.5961 69.7575C35.242 70.1056 35.0369 70.5775 35.024 71.0738C35.0656 71.2751 35.1691 71.4583 35.32 71.5978C35.582 71.8938 35.886 72.1518 36.15 72.4458C36.3102 72.5789 36.4392 72.7456 36.5277 72.9342C36.6163 73.1228 36.6622 73.3285 36.6622 73.5368C36.6622 73.7451 36.6163 73.9509 36.5277 74.1395C36.4392 74.328 36.3102 74.4948 36.15 74.6278C34.9673 75.8558 33.762 77.0618 32.534 78.2458C32.3972 78.4134 32.2245 78.548 32.0287 78.6398C31.8329 78.7316 31.6189 78.7782 31.4027 78.7761C31.1864 78.7739 30.9734 78.7232 30.7794 78.6276C30.5854 78.532 30.4154 78.394 30.282 78.2238C30.17 78.1218 30.066 78.0098 29.958 77.9018C29.7952 77.7137 29.5955 77.561 29.3713 77.4532C29.1471 77.3453 28.9031 77.2847 28.6545 77.2749C28.4059 77.2652 28.1579 77.3066 27.926 77.3965C27.694 77.4865 27.483 77.623 27.306 77.7978C27.1766 77.9558 27.106 78.1537 27.106 78.3578C27.072 78.7818 27.106 79.2118 27.082 79.6358C27.0927 79.8433 27.0589 80.0507 26.9828 80.2439C26.9066 80.4372 26.79 80.612 26.6406 80.7564C26.4913 80.9008 26.3128 81.0115 26.117 81.0811C25.9213 81.1507 25.7129 81.1775 25.506 81.1598C23.8006 81.1825 22.0953 81.1825 20.39 81.1598C20.1906 81.1729 19.9907 81.1444 19.8029 81.0763C19.6151 81.0082 19.4435 80.902 19.2988 80.7642C19.1541 80.6265 19.0395 80.4603 18.9622 80.2761C18.885 80.0918 18.8468 79.8936 18.85 79.6938C18.834 79.5438 18.84 79.3898 18.836 79.2378C18.816 77.9038 18.354 77.3418 17.078 77.1578C16.8766 77.1531 16.6809 77.2246 16.53 77.3578C16.226 77.6098 15.972 77.9178 15.682 78.1878C15.5416 78.3721 15.3602 78.5211 15.1521 78.6228C14.944 78.7245 14.715 78.7761 14.4834 78.7736C14.2518 78.7711 14.024 78.7144 13.8182 78.6082C13.6124 78.502 13.4342 78.3491 13.298 78.1618C12.1673 77.0538 11.0473 75.9345 9.93796 74.8038C9.73295 74.6644 9.56515 74.477 9.44917 74.258C9.33319 74.0389 9.27256 73.7947 9.27256 73.5468C9.27256 73.2989 9.33319 73.0548 9.44917 72.8357C9.56515 72.6166 9.73295 72.4292 9.93796 72.2898C10.022 72.2018 10.11 72.1178 10.196 72.0318C10.5401 71.6762 10.7337 71.2015 10.7363 70.7067C10.7389 70.2118 10.5504 69.735 10.21 69.3758C10.066 69.2726 9.89312 69.2173 9.71596 69.2178C9.35196 69.1938 8.98595 69.2178 8.61995 69.2058C7.41995 69.1658 6.89395 68.6578 6.88595 67.4638C6.87395 65.8812 6.87395 64.2978 6.88595 62.7138C6.88595 61.5138 7.40395 61.0058 8.60795 60.9598C8.72995 60.9598 8.85195 60.9598 8.97395 60.9598C9.22183 60.9708 9.46939 60.932 9.702 60.8457C9.93462 60.7594 10.1476 60.6273 10.3282 60.4572C10.5089 60.2872 10.6537 60.0826 10.7539 59.8556C10.8542 59.6287 10.9079 59.3839 10.912 59.1358C10.8882 58.9335 10.7966 58.7453 10.652 58.6018C10.394 58.3018 10.09 58.0458 9.82195 57.7538C9.65282 57.6194 9.51622 57.4484 9.42232 57.2538C9.32843 57.0592 9.27966 56.8459 9.27966 56.6298C9.27966 56.4138 9.32843 56.2005 9.42232 56.0058C9.51622 55.8112 9.65282 55.6403 9.82195 55.5058C10.9873 54.3058 12.1713 53.1212 13.374 51.9518C13.5062 51.7813 13.6749 51.6425 13.8678 51.5456C14.0606 51.4488 14.2727 51.3964 14.4884 51.3921C14.7042 51.3879 14.9182 51.432 15.1147 51.5213C15.3111 51.6105 15.4852 51.7426 15.624 51.9078C15.738 52.0078 15.844 52.1198 15.95 52.2258C16.1017 52.4261 16.2949 52.5912 16.5164 52.7098C16.7379 52.8283 16.9824 52.8976 17.2332 52.9128C17.4839 52.928 17.735 52.8888 17.9692 52.7978C18.2034 52.7068 18.4152 52.5663 18.59 52.3858C18.7437 52.2136 18.8315 51.9926 18.838 51.7618C18.878 51.3618 18.838 50.9618 18.86 50.5758C18.8431 50.3607 18.8738 50.1446 18.9501 49.9428C19.0264 49.741 19.1463 49.5585 19.3012 49.4083C19.4561 49.2582 19.6423 49.1441 19.8464 49.0741C20.0505 49.0042 20.2675 48.9802 20.482 49.0038C22.126 48.9838 23.772 48.9878 25.416 49.0038C25.6371 48.9738 25.8622 48.9937 26.0746 49.0622C26.287 49.1306 26.4813 49.2458 26.6433 49.3994C26.8053 49.5529 26.9308 49.7408 27.0105 49.9493C27.0902 50.1577 27.1221 50.3814 27.104 50.6038C27.114 50.7558 27.104 50.9078 27.104 51.0598C27.0853 51.3084 27.1179 51.5582 27.1997 51.7937C27.2815 52.0293 27.4108 52.2455 27.5795 52.429C27.7483 52.6125 27.9529 52.7595 28.1807 52.8608C28.4085 52.9621 28.6547 53.0155 28.904 53.0178C29.1062 53.0054 29.2975 52.9218 29.444 52.7818C29.746 52.5278 30.002 52.2218 30.292 51.9518C30.4297 51.7752 30.6062 51.6326 30.8079 51.535C31.0095 51.4374 31.2309 51.3874 31.4549 51.389C31.6789 51.3905 31.8996 51.4435 32.0998 51.5439C32.3001 51.6442 32.4746 51.7893 32.61 51.9678C33.788 53.1158 34.956 54.2738 36.092 55.4638C36.3874 55.8573 36.6414 56.2802 36.85 56.7258M33.194 56.5638L31.82 55.3118C31.71 55.2118 31.594 55.1118 31.672 55.1838C30.8345 55.6014 29.9403 55.8938 29.018 56.0518C27.8527 56.0403 26.7265 55.6302 25.8267 54.8897C24.9268 54.1493 24.3076 53.1231 24.072 51.9818H21.872C21.7928 52.509 21.6704 53.0288 21.506 53.5358C20.8648 54.4107 19.9955 55.0924 18.993 55.5065C17.9906 55.9206 16.8936 56.0511 15.822 55.8838C15.3522 55.6429 14.9045 55.3611 14.484 55.0418L13.07 56.3958C13.4867 57.2327 13.7785 58.1262 13.936 59.0478C13.9209 60.2115 13.5101 61.3354 12.771 62.2345C12.032 63.1335 11.0088 63.754 9.86995 63.9938V66.2198C10.282 66.257 10.6914 66.3191 11.096 66.4058C12.161 67.005 12.988 67.9516 13.4387 69.0875C13.8894 70.2233 13.9365 71.4795 13.572 72.6458C13.372 72.9738 13.118 73.2638 12.922 73.5298L14.284 74.9758C15.1223 74.5595 16.0171 74.2685 16.94 74.1118C18.1044 74.1235 19.2299 74.5334 20.129 75.2735C21.0281 76.0137 21.6467 77.0393 21.882 78.1798H24.072C24.1499 77.6511 24.2723 77.13 24.438 76.6218C25.0805 75.7483 25.9505 75.0678 26.9531 74.6545C27.9557 74.2412 29.0524 74.1109 30.124 74.2778C30.5924 74.5196 31.0388 74.802 31.458 75.1218L32.874 73.7658C32.4565 72.9296 32.1634 72.0368 32.004 71.1158C32.0181 69.9507 32.4293 68.8254 33.1697 67.9257C33.9101 67.026 34.9354 66.4059 36.076 66.1678V63.8938C35.3464 63.9668 34.6154 63.77 34.021 63.3407C33.4267 62.9114 33.0101 62.2793 32.85 61.5638C32.7759 61.3001 32.6733 61.0453 32.544 60.8038C32.0831 60.1498 31.8926 59.343 32.0122 58.5519C32.1318 57.7608 32.5523 57.0464 33.186 56.5578" fill="black"/>
<path d="M36.836 56.7318C36.416 57.2658 36.036 57.7538 35.65 58.2358C35.35 58.6098 34.744 58.8358 35.158 59.5098C35.558 60.1458 35.476 61.0818 36.724 60.9998C38.724 60.8698 39.056 61.2978 39.056 63.2978C39.056 64.6678 39.056 66.0378 39.056 67.4078C39.056 68.6678 38.546 69.1718 37.288 69.2078C37.166 69.2078 37.044 69.2078 36.922 69.2078C36.4255 69.2123 35.9501 69.4094 35.5961 69.7575C35.242 70.1056 35.0369 70.5775 35.024 71.0738C35.0656 71.2751 35.1691 71.4583 35.32 71.5978C35.582 71.8938 35.886 72.1518 36.15 72.4458C36.3102 72.5789 36.4392 72.7456 36.5277 72.9342C36.6163 73.1228 36.6622 73.3285 36.6622 73.5368C36.6622 73.7451 36.6163 73.9509 36.5277 74.1395C36.4392 74.328 36.3102 74.4948 36.15 74.6278C34.9673 75.8558 33.762 77.0618 32.534 78.2458C32.3972 78.4134 32.2245 78.548 32.0287 78.6398C31.8329 78.7316 31.6189 78.7782 31.4027 78.7761C31.1864 78.7739 30.9734 78.7232 30.7794 78.6276C30.5854 78.532 30.4154 78.394 30.282 78.2238C30.17 78.1218 30.066 78.0098 29.958 77.9018C29.7952 77.7137 29.5955 77.561 29.3713 77.4532C29.1471 77.3453 28.9031 77.2847 28.6545 77.2749C28.4059 77.2652 28.1579 77.3066 27.926 77.3965C27.694 77.4865 27.483 77.623 27.306 77.7978C27.1766 77.9558 27.106 78.1537 27.106 78.3578C27.072 78.7818 27.106 79.2118 27.082 79.6358C27.0927 79.8433 27.0589 80.0507 26.9828 80.2439C26.9066 80.4372 26.79 80.612 26.6406 80.7564C26.4913 80.9008 26.3128 81.0115 26.117 81.0811C25.9213 81.1507 25.7129 81.1775 25.506 81.1598C23.8006 81.1825 22.0953 81.1825 20.39 81.1598C20.1906 81.1729 19.9907 81.1444 19.8029 81.0763C19.6151 81.0082 19.4435 80.902 19.2988 80.7642C19.1541 80.6265 19.0395 80.4603 18.9622 80.2761C18.885 80.0918 18.8468 79.8936 18.85 79.6938C18.834 79.5438 18.84 79.3898 18.836 79.2378C18.816 77.9038 18.354 77.3418 17.078 77.1578C16.8766 77.1531 16.6809 77.2246 16.53 77.3578C16.226 77.6098 15.972 77.9178 15.682 78.1878C15.5416 78.3721 15.3602 78.5211 15.1521 78.6228C14.944 78.7245 14.715 78.7761 14.4834 78.7736C14.2518 78.7711 14.024 78.7144 13.8182 78.6082C13.6124 78.502 13.4342 78.3491 13.298 78.1618C12.1673 77.0538 11.0473 75.9345 9.93796 74.8038C9.73295 74.6644 9.56515 74.477 9.44917 74.258C9.33319 74.0389 9.27256 73.7947 9.27256 73.5468C9.27256 73.2989 9.33319 73.0548 9.44917 72.8357C9.56515 72.6166 9.73295 72.4292 9.93796 72.2898C10.022 72.2018 10.11 72.1178 10.196 72.0318C10.5401 71.6762 10.7337 71.2015 10.7363 70.7067C10.7389 70.2118 10.5504 69.735 10.21 69.3758C10.066 69.2726 9.89312 69.2173 9.71596 69.2178C9.35196 69.1938 8.98595 69.2178 8.61995 69.2058C7.41995 69.1658 6.89395 68.6578 6.88595 67.4638C6.87395 65.8812 6.87395 64.2978 6.88595 62.7138C6.88595 61.5138 7.40395 61.0058 8.60795 60.9598C8.72995 60.9598 8.85195 60.9598 8.97395 60.9598C9.22183 60.9708 9.46939 60.932 9.702 60.8457C9.93462 60.7594 10.1476 60.6273 10.3282 60.4572C10.5089 60.2872 10.6537 60.0826 10.7539 59.8556C10.8542 59.6287 10.9079 59.3839 10.912 59.1358C10.8882 58.9335 10.7966 58.7453 10.652 58.6018C10.394 58.3018 10.09 58.0458 9.82195 57.7538C9.65282 57.6194 9.51622 57.4484 9.42232 57.2538C9.32843 57.0592 9.27966 56.8459 9.27966 56.6298C9.27966 56.4138 9.32843 56.2005 9.42232 56.0058C9.51622 55.8112 9.65282 55.6403 9.82195 55.5058C10.9873 54.3058 12.1713 53.1212 13.374 51.9518C13.5062 51.7813 13.6749 51.6425 13.8678 51.5456C14.0606 51.4488 14.2727 51.3964 14.4884 51.3921C14.7042 51.3879 14.9182 51.432 15.1147 51.5213C15.3111 51.6105 15.4852 51.7426 15.624 51.9078C15.738 52.0078 15.844 52.1198 15.95 52.2258C16.1017 52.4261 16.2949 52.5912 16.5164 52.7098C16.7379 52.8283 16.9824 52.8976 17.2332 52.9128C17.4839 52.928 17.735 52.8888 17.9692 52.7978C18.2034 52.7068 18.4152 52.5663 18.59 52.3858C18.7437 52.2136 18.8315 51.9926 18.838 51.7618C18.878 51.3618 18.838 50.9618 18.86 50.5758C18.8431 50.3607 18.8738 50.1446 18.9501 49.9428C19.0264 49.741 19.1463 49.5585 19.3012 49.4083C19.4561 49.2582 19.6423 49.1441 19.8464 49.0741C20.0505 49.0042 20.2675 48.9802 20.482 49.0038C22.126 48.9838 23.772 48.9878 25.416 49.0038C25.6371 48.9738 25.8622 48.9937 26.0746 49.0622C26.287 49.1306 26.4813 49.2458 26.6433 49.3994C26.8053 49.5529 26.9308 49.7408 27.0105 49.9493C27.0902 50.1577 27.1221 50.3814 27.104 50.6038C27.114 50.7558 27.104 50.9078 27.104 51.0598C27.0853 51.3084 27.1179 51.5582 27.1997 51.7937C27.2815 52.0293 27.4108 52.2455 27.5795 52.429C27.7483 52.6125 27.9529 52.7595 28.1807 52.8608C28.4085 52.9621 28.6547 53.0155 28.904 53.0178C29.1062 53.0054 29.2975 52.9218 29.444 52.7818C29.746 52.5278 30.002 52.2218 30.292 51.9518C30.4297 51.7752 30.6062 51.6326 30.8079 51.535C31.0095 51.4374 31.2309 51.3874 31.4549 51.389C31.6789 51.3905 31.8996 51.4435 32.0998 51.5439C32.3001 51.6442 32.4746 51.7893 32.61 51.9678C33.788 53.1158 34.956 54.2738 36.092 55.4638C36.3874 55.8573 36.6414 56.2802 36.85 56.7258M33.194 56.5638L31.82 55.3118C31.71 55.2118 31.594 55.1118 31.672 55.1838C30.8345 55.6014 29.9403 55.8938 29.018 56.0518C27.8527 56.0403 26.7265 55.6302 25.8267 54.8897C24.9268 54.1493 24.3076 53.1231 24.072 51.9818H21.872C21.7928 52.509 21.6704 53.0288 21.506 53.5358C20.8648 54.4107 19.9955 55.0924 18.993 55.5065C17.9906 55.9206 16.8936 56.0511 15.822 55.8838C15.3522 55.6429 14.9045 55.3611 14.484 55.0418L13.07 56.3958C13.4867 57.2327 13.7785 58.1262 13.936 59.0478C13.9209 60.2115 13.5101 61.3354 12.771 62.2345C12.032 63.1335 11.0088 63.754 9.86995 63.9938V66.2198C10.282 66.257 10.6914 66.3191 11.096 66.4058C12.161 67.005 12.988 67.9516 13.4387 69.0875C13.8894 70.2233 13.9365 71.4795 13.572 72.6458C13.372 72.9738 13.118 73.2638 12.922 73.5298L14.284 74.9758C15.1223 74.5595 16.0171 74.2685 16.94 74.1118C18.1044 74.1235 19.2299 74.5334 20.129 75.2735C21.0281 76.0137 21.6467 77.0393 21.882 78.1798H24.072C24.1499 77.6511 24.2723 77.13 24.438 76.6218C25.0805 75.7483 25.9505 75.0678 26.9531 74.6545C27.9557 74.2412 29.0524 74.1109 30.124 74.2778C30.5924 74.5196 31.0388 74.802 31.458 75.1218L32.874 73.7658C32.4565 72.9296 32.1634 72.0368 32.004 71.1158C32.0181 69.9507 32.4293 68.8254 33.1697 67.9257C33.9101 67.026 34.9354 66.4059 36.076 66.1678V63.8938C35.3464 63.9668 34.6154 63.77 34.021 63.3407C33.4267 62.9114 33.0101 62.2793 32.85 61.5638C32.7759 61.3001 32.6733 61.0453 32.544 60.8038C32.0831 60.1498 31.8926 59.343 32.0122 58.5519C32.1318 57.7608 32.5523 57.0464 33.186 56.5578" stroke="white"/>
<path d="M83.8561 15.0599C83.2561 14.5759 82.6761 14.1319 82.1261 13.6599C81.8926 13.5067 81.7082 13.2893 81.5952 13.0339C81.4821 12.7785 81.445 12.4959 81.4885 12.22C81.532 11.9441 81.6542 11.6865 81.8403 11.4783C82.0265 11.2701 82.2688 11.1199 82.5381 11.0459C85.0861 10.0446 87.6461 9.07527 90.2181 8.13793C90.4744 8.00444 90.7648 7.95091 91.0518 7.98426C91.3388 8.0176 91.6093 8.1363 91.8281 8.32498C92.047 8.51367 92.2042 8.76368 92.2794 9.04267C92.3546 9.32166 92.3444 9.61681 92.2501 9.88994C91.7641 12.4899 91.2221 15.0899 90.6501 17.6659C90.3581 18.9859 89.2501 19.3339 88.1461 18.5039C87.5161 18.0279 86.9101 17.5199 86.1941 16.9459L71.4961 33.1459C71.7458 34.2654 71.8719 35.4089 71.8721 36.5559C71.7296 37.6105 71.1962 38.5732 70.3777 39.2532C69.5591 39.9333 68.515 40.2811 67.4521 40.2279C66.406 40.2031 65.4042 39.8004 64.6321 39.0941C63.86 38.3878 63.3697 37.4257 63.2521 36.3859C63.259 36.1369 63.1764 35.8937 63.0193 35.7004C62.8623 35.507 62.6412 35.3763 62.3961 35.3319C59.7295 34.4853 57.0708 33.6119 54.4201 32.7119C54.2082 32.6097 53.9675 32.5838 53.7387 32.6384C53.5099 32.6931 53.3069 32.825 53.1641 33.0119C52.6062 33.6498 51.8617 34.0961 51.0362 34.2874C50.2106 34.4787 49.3457 34.4054 48.5641 34.0779C48.3666 33.9805 48.1412 33.9554 47.9271 34.0069C47.713 34.0584 47.5237 34.1833 47.3921 34.3599C44.2375 37.4093 41.0748 40.4499 37.9041 43.4819C37.6661 43.7099 37.4221 43.9339 37.2181 44.1259L34.8501 41.9519C35.1978 41.8039 35.5279 41.6174 35.8341 41.3959C39.0341 38.3479 42.2081 35.2759 45.4121 32.2379C45.5976 32.0928 45.733 31.8933 45.7994 31.6673C45.8657 31.4414 45.8597 31.2003 45.7821 30.9779C45.5314 29.8692 45.7248 28.7063 46.321 27.7385C46.9172 26.7706 47.8687 26.0747 48.9718 25.7999C50.0748 25.525 51.2416 25.6931 52.2222 26.2681C53.2028 26.843 53.9193 27.7792 54.2181 28.8759C54.2536 29.1248 54.3635 29.3571 54.5334 29.5424C54.7033 29.7276 54.9252 29.8571 55.1701 29.9139C58.0101 30.8159 60.8381 31.7579 63.6641 32.7139C63.8499 32.8038 64.0592 32.8328 64.2624 32.7969C64.4656 32.761 64.6524 32.662 64.7961 32.5139C65.2737 32.0833 65.8457 31.7709 66.4662 31.6017C67.0866 31.4325 67.738 31.4114 68.3681 31.5399C68.5195 31.5601 68.6735 31.548 68.82 31.5046C68.9665 31.4612 69.1021 31.3874 69.2181 31.2879C74.0634 25.9759 78.8948 20.6519 83.7121 15.3159C83.7643 15.239 83.8105 15.1581 83.8501 15.0739M50.0341 31.4459C50.3236 31.4475 50.6069 31.3629 50.8481 31.2028C51.0893 31.0428 51.2774 30.8145 51.3885 30.5472C51.4995 30.2799 51.5284 29.9856 51.4716 29.7017C51.4148 29.4179 51.2748 29.1574 51.0694 28.9534C50.864 28.7495 50.6025 28.6112 50.3183 28.5564C50.0341 28.5015 49.74 28.5325 49.4734 28.6454C49.2069 28.7583 48.98 28.9479 48.8216 29.1902C48.6632 29.4325 48.5805 29.7165 48.5841 30.0059C48.5938 30.3865 48.75 30.7486 49.0201 31.0169C49.2903 31.2852 49.6535 31.4388 50.0341 31.4459ZM67.5521 37.2959C67.8414 37.3046 68.1268 37.2271 68.3718 37.073C68.6169 36.919 68.8105 36.6955 68.9282 36.4311C69.0458 36.1666 69.082 35.8731 69.0323 35.588C68.9825 35.3029 68.8491 35.039 68.6488 34.83C68.4486 34.621 68.1907 34.4763 67.908 34.4144C67.6252 34.3524 67.3305 34.3761 67.0612 34.4822C66.7919 34.5884 66.5604 34.7723 66.396 35.0105C66.2316 35.2488 66.1418 35.5305 66.1381 35.8199C66.1387 36.2006 66.286 36.5664 66.5494 36.8412C66.8127 37.1161 67.1718 37.279 67.5521 37.2959ZM88.8881 11.7699L85.8601 12.9139L88.2601 14.8319L88.8841 11.7699" fill="black"/>
<path d="M83.8561 15.0599C83.2561 14.5759 82.6761 14.1319 82.1261 13.6599C81.8926 13.5067 81.7082 13.2893 81.5952 13.0339C81.4821 12.7785 81.445 12.4959 81.4885 12.22C81.532 11.9441 81.6542 11.6865 81.8403 11.4783C82.0265 11.2701 82.2688 11.1199 82.5381 11.0459C85.0861 10.0446 87.6461 9.07527 90.2181 8.13793C90.4744 8.00444 90.7648 7.95091 91.0518 7.98426C91.3388 8.0176 91.6093 8.1363 91.8281 8.32498C92.047 8.51367 92.2042 8.76368 92.2794 9.04267C92.3546 9.32166 92.3444 9.61681 92.2501 9.88994C91.7641 12.4899 91.2221 15.0899 90.6501 17.6659C90.3581 18.9859 89.2501 19.3339 88.1461 18.5039C87.5161 18.0279 86.9101 17.5199 86.1941 16.9459L71.4961 33.1459C71.7458 34.2654 71.8719 35.4089 71.8721 36.5559C71.7296 37.6105 71.1962 38.5732 70.3777 39.2532C69.5591 39.9333 68.515 40.2811 67.4521 40.2279C66.406 40.2031 65.4042 39.8004 64.6321 39.0941C63.86 38.3878 63.3697 37.4257 63.2521 36.3859C63.259 36.1369 63.1764 35.8937 63.0193 35.7004C62.8623 35.507 62.6412 35.3763 62.3961 35.3319C59.7295 34.4853 57.0708 33.6119 54.4201 32.7119C54.2082 32.6097 53.9675 32.5838 53.7387 32.6384C53.5099 32.6931 53.3069 32.825 53.1641 33.0119C52.6062 33.6498 51.8617 34.0961 51.0362 34.2874C50.2106 34.4787 49.3457 34.4054 48.5641 34.0779C48.3666 33.9805 48.1412 33.9554 47.9271 34.0069C47.713 34.0584 47.5237 34.1833 47.3921 34.3599C44.2375 37.4093 41.0748 40.4499 37.9041 43.4819C37.6661 43.7099 37.4221 43.9339 37.2181 44.1259L34.8501 41.9519C35.1978 41.8039 35.5279 41.6174 35.8341 41.3959C39.0341 38.3479 42.2081 35.2759 45.4121 32.2379C45.5976 32.0928 45.733 31.8933 45.7994 31.6673C45.8657 31.4414 45.8597 31.2003 45.7821 30.9779C45.5314 29.8692 45.7248 28.7063 46.321 27.7385C46.9172 26.7706 47.8687 26.0747 48.9718 25.7999C50.0748 25.525 51.2416 25.6931 52.2222 26.2681C53.2028 26.843 53.9193 27.7792 54.2181 28.8759C54.2536 29.1248 54.3635 29.3571 54.5334 29.5424C54.7033 29.7276 54.9252 29.8571 55.1701 29.9139C58.0101 30.8159 60.8381 31.7579 63.6641 32.7139C63.8499 32.8038 64.0592 32.8328 64.2624 32.7969C64.4656 32.761 64.6524 32.662 64.7961 32.5139C65.2737 32.0833 65.8457 31.7709 66.4662 31.6017C67.0866 31.4325 67.738 31.4114 68.3681 31.5399C68.5195 31.5601 68.6735 31.548 68.82 31.5046C68.9665 31.4612 69.1021 31.3874 69.2181 31.2879C74.0634 25.9759 78.8948 20.6519 83.7121 15.3159C83.7643 15.239 83.8105 15.1581 83.8501 15.0739M88.8881 11.7699L85.8601 12.9139L88.2601 14.8319L88.8841 11.7699M50.0341 31.4459C50.3236 31.4475 50.6069 31.3629 50.8481 31.2028C51.0893 31.0428 51.2774 30.8145 51.3885 30.5472C51.4995 30.2799 51.5284 29.9856 51.4716 29.7017C51.4148 29.4179 51.2748 29.1574 51.0694 28.9534C50.864 28.7495 50.6025 28.6112 50.3183 28.5564C50.0341 28.5015 49.74 28.5325 49.4734 28.6454C49.2069 28.7583 48.98 28.9479 48.8216 29.1902C48.6632 29.4325 48.5805 29.7165 48.5841 30.0059C48.5938 30.3865 48.75 30.7486 49.0201 31.0169C49.2903 31.2852 49.6535 31.4388 50.0341 31.4459ZM67.5521 37.2959C67.8414 37.3046 68.1268 37.2271 68.3718 37.073C68.6169 36.919 68.8105 36.6955 68.9282 36.4311C69.0458 36.1666 69.082 35.8731 69.0323 35.588C68.9825 35.3029 68.8491 35.039 68.6488 34.83C68.4486 34.621 68.1907 34.4763 67.908 34.4144C67.6252 34.3524 67.3305 34.3761 67.0612 34.4822C66.7919 34.5884 66.5604 34.7723 66.396 35.0105C66.2316 35.2488 66.1418 35.5305 66.1381 35.8199C66.1387 36.2006 66.286 36.5664 66.5494 36.8412C66.8127 37.1161 67.1718 37.279 67.5521 37.2959Z" stroke="white"/>
<path d="M56.6161 61.5264C56.6161 67.4064 56.6161 73.2864 56.6161 79.1664C56.6161 80.7204 56.1581 81.1664 54.6041 81.1764C51.5268 81.1764 48.4488 81.1764 45.3701 81.1764C43.9381 81.1764 43.4541 80.6904 43.4541 79.2564C43.4541 67.375 43.4541 55.493 43.4541 43.6104C43.4541 42.1764 43.9361 41.6944 45.3721 41.6924C48.4801 41.6924 51.5881 41.6924 54.6961 41.6924C56.1281 41.6924 56.6141 42.1784 56.6141 43.6124C56.6141 49.5844 56.6141 55.5557 56.6141 61.5264M53.6141 44.6924H46.4141V78.2124H53.6141V44.6924Z" fill="black"/>
<path d="M56.6161 61.5264C56.6161 67.4064 56.6161 73.2864 56.6161 79.1664C56.6161 80.7204 56.1581 81.1664 54.6041 81.1764C51.5268 81.1764 48.4488 81.1764 45.3701 81.1764C43.9381 81.1764 43.4541 80.6904 43.4541 79.2564C43.4541 67.375 43.4541 55.493 43.4541 43.6104C43.4541 42.1764 43.9361 41.6944 45.3721 41.6924C48.4801 41.6924 51.5881 41.6924 54.6961 41.6924C56.1281 41.6924 56.6141 42.1784 56.6141 43.6124C56.6141 49.5844 56.6141 55.5557 56.6141 61.5264M53.6141 44.6924H46.4141V78.2124H53.6141V44.6924Z" stroke="white"/>
<path d="M94.6078 84.1777H4.00977V86.9677H94.6078V84.1777Z" fill="black" stroke="white"/>
<path d="M61.0139 62.8982C61.0139 57.4755 61.0139 52.0522 61.0139 46.6282C61.0139 45.0702 61.4659 44.6182 63.0139 44.6162C66.1219 44.6162 69.2299 44.6162 72.3379 44.6162C73.6519 44.6162 74.1659 45.1302 74.1659 46.4402C74.1659 57.4082 74.1659 68.3762 74.1659 79.3442C74.1659 80.6562 73.6499 81.1702 72.3399 81.1742C69.1706 81.1809 66.0012 81.1809 62.8319 81.1742C61.5199 81.1742 61.0059 80.6602 61.0039 79.3482C61.0039 73.8642 61.0039 68.3802 61.0039 62.8962M64.0039 78.1762H71.2039V47.5762H64.0039V78.1762Z" fill="black"/>
<path d="M61.0139 62.8982C61.0139 57.4755 61.0139 52.0522 61.0139 46.6282C61.0139 45.0702 61.4659 44.6182 63.0139 44.6162C66.1219 44.6162 69.2299 44.6162 72.3379 44.6162C73.6519 44.6162 74.1659 45.1302 74.1659 46.4402C74.1659 57.4082 74.1659 68.3762 74.1659 79.3442C74.1659 80.6562 73.6499 81.1702 72.3399 81.1742C69.1706 81.1809 66.0012 81.1809 62.8319 81.1742C61.5199 81.1742 61.0059 80.6602 61.0039 79.3482C61.0039 73.8642 61.0039 68.3802 61.0039 62.8962M64.0039 78.1762H71.2039V47.5762H64.0039V78.1762Z" stroke="white"/>
<path d="M94.6059 90.0176H18.6279V92.8276H94.6059V90.0176Z" fill="black" stroke="white"/>
<path d="M9.736 89.998H4V92.816H9.736V89.998Z" fill="black" stroke="white"/>
<path d="M15.5979 90.0195H12.7759V92.8255H15.5979V90.0195Z" fill="black" stroke="white"/>
<path d="M31.0138 65.1216C31.0098 66.7109 30.5352 68.2633 29.6498 69.5831C28.7644 70.9028 27.5079 71.9308 26.0388 72.5371C24.5698 73.1435 22.9541 73.3011 21.3956 72.9901C19.837 72.679 18.4056 71.9133 17.2818 70.7896C16.1581 69.6658 15.3923 68.2343 15.0813 66.6758C14.7703 65.1173 14.9279 63.5016 15.5343 62.0325C16.1406 60.5635 17.1685 59.307 18.4883 58.4216C19.8081 57.5362 21.3605 57.0616 22.9498 57.0576C24.0097 57.0566 25.0594 57.2647 26.0388 57.6701C27.0182 58.0755 27.9079 58.6701 28.657 59.42C29.4062 60.1699 30 61.0602 30.4044 62.04C30.8088 63.0197 31.0159 64.0697 31.0138 65.1296M28.0878 65.1296C28.0933 64.1175 27.7986 63.1264 27.2409 62.2818C26.6832 61.4371 25.8876 60.7768 24.9547 60.3843C24.0217 59.9917 22.9933 59.8846 21.9995 60.0765C21.0058 60.2684 20.0912 60.7507 19.3714 61.4623C18.6517 62.1739 18.1591 63.083 17.956 64.0746C17.7528 65.0661 17.8483 66.0956 18.2302 67.033C18.6121 67.9703 19.2634 68.7733 20.1017 69.3405C20.94 69.9077 21.9276 70.2137 22.9398 70.2196C24.2967 70.2249 25.6004 69.6922 26.5653 68.7382C27.5303 67.7841 28.0777 66.4865 28.0878 65.1296Z" fill="black"/>
<path d="M31.0138 65.1216C31.0098 66.7109 30.5352 68.2633 29.6498 69.5831C28.7644 70.9028 27.5079 71.9308 26.0388 72.5371C24.5698 73.1435 22.9541 73.3011 21.3956 72.9901C19.837 72.679 18.4056 71.9133 17.2818 70.7896C16.1581 69.6658 15.3923 68.2343 15.0813 66.6758C14.7703 65.1173 14.9279 63.5016 15.5343 62.0325C16.1406 60.5635 17.1685 59.307 18.4883 58.4216C19.8081 57.5362 21.3605 57.0616 22.9498 57.0576C24.0097 57.0566 25.0594 57.2647 26.0388 57.6701C27.0182 58.0755 27.9079 58.6701 28.657 59.42C29.4062 60.1699 30 61.0602 30.4044 62.04C30.8088 63.0197 31.0159 64.0697 31.0138 65.1296M28.0878 65.1296C28.0933 64.1175 27.7986 63.1264 27.2409 62.2818C26.6832 61.4371 25.8876 60.7768 24.9547 60.3843C24.0217 59.9917 22.9933 59.8846 21.9995 60.0765C21.0058 60.2684 20.0912 60.7507 19.3714 61.4623C18.6517 62.1739 18.1591 63.083 17.956 64.0746C17.7528 65.0661 17.8483 66.0956 18.2302 67.033C18.6121 67.9703 19.2634 68.7733 20.1017 69.3405C20.94 69.9077 21.9276 70.2137 22.9398 70.2196C24.2967 70.2249 25.6004 69.6922 26.5653 68.7382C27.5303 67.7841 28.0777 66.4865 28.0878 65.1296Z" stroke="white"/>
</g>
<defs>
<clipPath id="clip0_1116_386">
<rect width="100" height="100" fill="white"/>
</clipPath>
</defs>
</svg>
