<svg width="40" height="40" viewBox="0 0 40 40" fill="none" xmlns="http://www.w3.org/2000/svg">
<path d="M3 7H15" stroke="white" stroke-width="2" stroke-linecap="round"/>
<path d="M3 22H15" stroke="white" stroke-width="2" stroke-linecap="round"/>
<path d="M3 27H13" stroke="white" stroke-width="2" stroke-linecap="round"/>
<path d="M3 12H10" stroke="white" stroke-width="2" stroke-linecap="round"/>
<path d="M3 17H6" stroke="white" stroke-width="2" stroke-linecap="round"/>
<path d="M18 7H32" stroke="white" stroke-width="2" stroke-linecap="round"/>
<path d="M13 12H25" stroke="white" stroke-width="2" stroke-linecap="round"/>
<path d="M9 17H22" stroke="white" stroke-width="2" stroke-linecap="round"/>
<path d="M35.7844 16.3369C35.7945 16.2207 35.8001 16.1099 35.8001 16C35.8001 15.8901 35.7945 15.7793 35.7844 15.6631L36.5452 15.0935C36.999 14.7538 37.1336 14.1206 36.856 13.6194L36.1777 12.3972C35.8935 11.8868 35.2647 11.6818 34.745 11.9265L33.8989 12.3243C33.7321 12.2071 33.5598 12.1028 33.381 12.0123L33.2857 11.0237C33.2279 10.4394 32.7513 10 32.1775 10H30.8218C30.2479 10 29.7713 10.4394 29.7145 11.0237L29.6192 12.0105C29.4405 12.1019 29.2672 12.2052 29.1013 12.3225L28.2562 11.9255C27.7346 11.6809 27.1058 11.8868 26.8217 12.3963L26.1452 13.6185C25.8665 14.1188 26.0004 14.7529 26.455 15.0926L27.2158 15.6621C27.2057 15.7785 27.2002 15.8892 27.2002 15.9991C27.2002 16.1088 27.2057 16.2196 27.2158 16.336L26.455 16.9055C26.0004 17.2452 25.8665 17.8794 26.1443 18.3787L26.8226 19.6018C27.1058 20.1132 27.7355 20.3163 28.2553 20.0726L29.1013 19.6747C29.2681 19.792 29.4405 19.8963 29.6192 19.9868L29.7145 20.9753C29.7723 21.5606 30.249 22 30.8227 22H32.1784C32.7522 22 33.2288 21.5606 33.2857 20.9763L33.381 19.9895C33.5598 19.8982 33.733 19.7948 33.8989 19.6775L34.7441 20.0744C35.2647 20.3191 35.8944 20.1132 36.1786 19.6037L36.855 18.3815C37.1336 17.8812 36.9999 17.2471 36.5452 16.9074L35.7844 16.3369ZM31.5001 18.3077C30.2361 18.3077 29.2086 17.2719 29.2086 16C29.2086 14.7279 30.2361 13.6923 31.5001 13.6923C32.7642 13.6923 33.7917 14.7279 33.7917 16C33.7917 17.2719 32.7642 18.3077 31.5001 18.3077Z" fill="white"/>
<path d="M26.7844 26.3369C26.7945 26.2207 26.8001 26.1099 26.8001 26C26.8001 25.8901 26.7945 25.7793 26.7844 25.6631L27.5452 25.0935C27.999 24.7538 28.1336 24.1206 27.856 23.6194L27.1777 22.3972C26.8935 21.8868 26.2647 21.6818 25.745 21.9265L24.8989 22.3243C24.7321 22.2071 24.5598 22.1028 24.381 22.0123L24.2857 21.0237C24.2279 20.4394 23.7513 20 23.1775 20H21.8218C21.2479 20 20.7713 20.4394 20.7145 21.0237L20.6192 22.0105C20.4405 22.1019 20.2672 22.2052 20.1013 22.3225L19.2562 21.9255C18.7346 21.6809 18.1058 21.8868 17.8217 22.3963L17.1452 23.6185C16.8665 24.1188 17.0004 24.7529 17.455 25.0926L18.2158 25.6621C18.2057 25.7785 18.2002 25.8892 18.2002 25.9991C18.2002 26.1088 18.2057 26.2196 18.2158 26.336L17.455 26.9055C17.0004 27.2452 16.8665 27.8794 17.1443 28.3787L17.8226 29.6018C18.1058 30.1132 18.7355 30.3163 19.2553 30.0726L20.1013 29.6747C20.2681 29.792 20.4405 29.8963 20.6192 29.9868L20.7145 30.9753C20.7723 31.5606 21.249 32 21.8227 32H23.1784C23.7522 32 24.2288 31.5606 24.2857 30.9763L24.381 29.9895C24.5598 29.8982 24.733 29.7948 24.8989 29.6775L25.7441 30.0744C26.2647 30.3191 26.8944 30.1132 27.1786 29.6037L27.855 28.3815C28.1336 27.8812 27.9999 27.2471 27.5452 26.9074L26.7844 26.3369ZM22.5001 28.3077C21.2361 28.3077 20.2086 27.2719 20.2086 26C20.2086 24.7279 21.2361 23.6923 22.5001 23.6923C23.7642 23.6923 24.7917 24.7279 24.7917 26C24.7917 27.2719 23.7642 28.3077 22.5001 28.3077Z" fill="white"/>
</svg>
