<svg width="59" height="68" viewBox="0 0 59 68" fill="none" xmlns="http://www.w3.org/2000/svg">
<g clip-path="url(#clip0_500_2451)">
<path d="M30.0259 0C38.6571 3.58328 47.2876 7.16798 55.9197 10.749C57.7452 11.5062 58.1883 12.1522 58.1885 14.1081C58.1885 18.1812 58.2176 22.2546 58.1832 26.3276C58.0703 39.6848 53.0905 50.8936 43.2177 59.8911C39.5232 63.258 35.2969 65.8209 30.6831 67.7453C29.8814 68.0797 29.1068 68.0912 28.3073 67.7409C14.4091 61.65 5.60453 51.2439 1.9263 36.5287C1.11367 33.2773 0.800792 29.9476 0.800792 26.5932C0.800792 22.3208 0.799372 18.0484 0.801324 13.776C0.802034 12.2922 1.34243 11.4693 2.70291 10.9041C11.2328 7.36036 19.7641 3.82038 28.2949 0.279159C28.5178 0.18652 28.7405 0.0931713 28.9632 0C29.3174 0 29.6717 0 30.0259 0ZM52.8747 22.8884C52.8747 20.5417 52.8639 18.195 52.8846 15.8485C52.8885 15.416 52.7853 15.1864 52.3568 15.0093C44.9019 11.93 37.4539 8.83353 30.0083 5.73155C29.6552 5.58442 29.3535 5.58354 29.0003 5.73048C21.5548 8.83211 14.1067 11.9281 6.65266 15.0091C6.24182 15.1789 6.09967 15.3775 6.10233 15.8295C6.12398 19.46 6.11014 23.0907 6.11706 26.7214C6.12185 29.2954 6.34617 31.8518 6.90218 34.3664C9.74506 47.2215 17.1214 56.4929 28.9627 62.2305C29.3357 62.4111 29.6307 62.4243 30.0129 62.2468C35.7578 59.5812 40.6139 55.7883 44.5129 50.7961C48.869 45.2188 51.5226 38.9156 52.5084 31.9019C52.9295 28.9057 52.8719 25.8974 52.8749 22.888L52.8747 22.8884Z" fill="white"/>
<path d="M19.0463 29.2322C19.9233 29.2465 20.5894 29.5837 21.1616 30.16C22.814 31.8241 24.4884 33.4664 26.1248 35.1458C26.4839 35.5144 26.6643 35.4746 27.0045 35.132C30.6058 31.5059 34.2267 27.8992 37.8367 24.282C38.6203 23.4969 39.5289 23.1672 40.6118 23.4894C42.3995 24.0213 43.0889 26.1158 41.975 27.6097C41.8042 27.8387 41.5964 28.0421 41.3936 28.2451C37.1868 32.4547 32.9789 36.663 28.77 40.8704C27.2759 42.3642 25.8455 42.3629 24.3478 40.8669C22.0001 38.5214 19.6506 36.1776 17.3101 33.8251C16.5459 33.057 16.274 32.1343 16.6128 31.0873C16.9323 30.1002 17.634 29.511 18.6436 29.2884C18.7938 29.2552 18.9492 29.2455 19.0465 29.2323L19.0463 29.2322Z" fill="white"/>
</g>
<defs>
<clipPath id="clip0_500_2451">
<rect width="57.3998" height="68" fill="white" transform="translate(0.800293)"/>
</clipPath>
</defs>
</svg>
