<svg width="44" height="44" viewBox="0 0 44 44" fill="none" xmlns="http://www.w3.org/2000/svg">
<path d="M9 17.5V19H10V32.5H12.5V19H13.5V17.5" stroke="black" stroke-linecap="round"/>
<path d="M16 17.5V19H17V32.5H19.5V19H20.5V17.5" stroke="black" stroke-linecap="round"/>
<path d="M23 17.5V19H24V32.5H26.5V19H27.5V17.5" stroke="black" stroke-linecap="round"/>
<path d="M30 17.5V19H31V32.5H33.5V19H34.5V17.5" stroke="black" stroke-linecap="round"/>
<rect x="5.5" y="35.5" width="32" height="3" rx="0.5" stroke="black"/>
<rect x="7.5" y="32.5" width="28" height="3" rx="0.5" stroke="black"/>
<path d="M38 17H6V15L22 5.5L38 15V17Z" stroke="black" stroke-linecap="round"/>
<circle cx="22" cy="13" r="1.5" stroke="black"/>
</svg>
