<svg width="72" height="73" viewBox="0 0 72 73" fill="none" xmlns="http://www.w3.org/2000/svg">
<path fill-rule="evenodd" clip-rule="evenodd" d="M71.8087 49.8285C71.8087 49.8285 60.5123 61.1685 51.3794 61.1685C42.2466 61.1685 30.9502 49.8285 30.9502 49.8285C30.9502 49.8285 42.2466 38.4885 51.3794 38.4885C60.5123 38.4885 71.8087 49.8285 71.8087 49.8285ZM46.4859 56.6379C46.1844 56.6379 45.8876 56.5257 45.6579 56.3012C44.0067 54.6883 43.0973 52.5423 43.0973 50.2654C43.0973 47.9885 44.0067 45.8379 45.6579 44.2296C46.1174 43.7807 46.8544 43.7807 47.3139 44.2296C47.7734 44.6784 47.7734 45.3984 47.3139 45.8472C46.1078 47.0254 45.4377 48.5963 45.4377 50.2654C45.4377 51.9345 46.103 53.5054 47.3139 54.6836C47.7734 55.1324 47.7734 55.8524 47.3139 56.3012C47.0842 56.5257 46.7874 56.6379 46.4859 56.6379ZM56.3644 56.3013C56.5941 56.5257 56.8909 56.6379 57.1924 56.6379C57.4939 56.6379 57.7907 56.5257 58.0204 56.3013C61.4282 52.9725 61.4282 47.5538 58.0204 44.2249C57.5609 43.7761 56.8239 43.7761 56.3644 44.2249C55.9049 44.6738 55.9049 45.3938 56.3644 45.8426C58.858 48.2784 58.858 52.2478 56.3644 54.6836C55.9049 55.1325 55.9049 55.8525 56.3644 56.3013Z" fill="white" fill-opacity="0.5"/>
<path d="M17.4746 35.931C17.1683 35.931 16.862 35.8188 16.6275 35.5897L9.86941 28.9882C9.64446 28.7684 9.52002 28.4739 9.52002 28.1606C9.52002 27.8474 9.64446 27.5528 9.86941 27.3331L16.6275 20.7315C17.0965 20.2734 17.8527 20.2734 18.3217 20.7315C18.7908 21.1897 18.7908 21.9284 18.3217 22.3866L12.4109 28.1606L18.3217 33.9347C18.7908 34.3928 18.7908 35.1315 18.3217 35.5897C18.0872 35.8188 17.7809 35.931 17.4746 35.931Z" fill="white"/>
<path d="M33.8049 36.1367C33.4986 36.1367 33.1923 36.0245 32.9577 35.7954C32.4887 35.3372 32.4887 34.5985 32.9577 34.1403L38.8686 28.3663L32.9577 22.5923C32.4887 22.1341 32.4887 21.3954 32.9577 20.9372C33.4268 20.479 34.183 20.479 34.652 20.9372L41.4101 27.5388C41.635 27.7585 41.7595 28.053 41.7595 28.3663C41.7595 28.6795 41.635 28.9741 41.4101 29.1938L34.652 35.7954C34.4175 36.0245 34.1112 36.1367 33.8049 36.1367Z" fill="white"/>
<path d="M23.7639 35.7579C23.6586 35.7579 23.5485 35.7438 23.4432 35.7158C22.8066 35.5428 22.4333 34.8976 22.6104 34.2758L26.3149 21.2503C26.492 20.6285 27.1525 20.2638 27.789 20.4368C28.4256 20.6098 28.7989 21.255 28.6218 21.8768L24.9173 34.9023C24.769 35.4212 24.2904 35.7579 23.7639 35.7579Z" fill="white"/>
<path d="M34.4746 63.3284H5.03499C2.36432 63.3284 0.191406 61.2058 0.191406 58.597V14.0598C0.191406 11.451 2.36432 9.32837 5.03499 9.32837H54.2893C56.9599 9.32837 59.1328 11.451 59.1328 14.0598V33.8177C59.1328 34.4629 58.5968 34.9866 57.9363 34.9866C57.2758 34.9866 56.7398 34.4629 56.7398 33.8177V14.0598C56.7398 12.7367 55.6389 11.666 54.2893 11.666H5.03499C3.6853 11.666 2.58448 12.7414 2.58448 14.0598V58.597C2.58448 59.9201 3.6853 60.9907 5.03499 60.9907H34.4698C35.1303 60.9907 35.6663 61.5144 35.6663 62.1596C35.6663 62.8047 35.1303 63.3284 34.4698 63.3284H34.4746Z" fill="white"/>
</svg>
