<svg width="50" height="50" viewBox="0 0 50 50" fill="none" xmlns="http://www.w3.org/2000/svg">
<path d="M40.6072 24.5586C40.6072 22.4275 37.926 20.4078 33.8152 19.1553C34.7638 14.9848 34.3422 11.6668 32.4844 10.6045C32.0562 10.3553 31.5555 10.2373 31.0087 10.2373L31.0087 11.6996C31.3118 11.6996 31.5555 11.7586 31.7598 11.8701C32.6557 12.3815 33.0444 14.3291 32.7413 16.834C32.6689 17.4504 32.5503 18.0996 32.4054 18.7619C31.1141 18.4471 29.7044 18.2045 28.2221 18.0471C27.3327 16.834 26.4104 15.7324 25.4816 14.7684C27.6292 12.7815 29.6451 11.693 31.0153 11.693L31.0153 10.2307C29.2037 10.2307 26.8321 11.516 24.4341 13.7455C22.0361 11.5291 19.6645 10.2569 17.8529 10.2569L17.8529 11.7192C19.2165 11.7192 21.239 12.8012 23.3866 14.775C22.4643 15.7389 21.542 16.834 20.6659 18.0471C19.177 18.2045 17.7672 18.4471 16.476 18.7685C16.3245 18.1127 16.2125 17.4766 16.1334 16.8668C15.8238 14.3619 16.2059 12.4143 17.0953 11.8963C17.2929 11.7783 17.5498 11.7258 17.8529 11.7258L17.8529 10.2635C17.2995 10.2635 16.7988 10.3815 16.364 10.6307C14.5128 11.693 14.0978 15.0045 15.053 19.1619C10.9554 20.4209 8.28735 22.434 8.28735 24.5586C8.28735 26.6898 10.9686 28.7095 15.0794 29.9619C14.1307 34.1325 14.5524 37.4505 16.4101 38.5128C16.8383 38.762 17.339 38.88 17.8924 38.88C19.704 38.88 22.0757 37.5948 24.4736 35.3653C26.8716 37.5817 29.2432 38.8538 31.0549 38.8538C31.6082 38.8538 32.1089 38.7358 32.5437 38.4866C34.3949 37.4243 34.8099 34.1128 33.8547 29.9554C37.9391 28.7029 40.6072 26.6832 40.6072 24.5586ZM32.0299 20.1849C31.7861 21.0308 31.4831 21.9029 31.1405 22.775C30.8704 22.2504 30.5871 21.7258 30.2775 21.2013C29.9745 20.6767 29.6517 20.1652 29.3289 19.6668C30.2643 19.8045 31.1669 19.975 32.0299 20.1849ZM29.0126 27.1685C28.4988 28.0537 27.9718 28.8931 27.425 29.6734C26.4434 29.7587 25.4486 29.8046 24.4473 29.8046C23.4525 29.8046 22.4578 29.7587 21.4828 29.68C20.936 28.8996 20.4024 28.0669 19.8885 27.1882C19.3878 26.3291 18.9333 25.457 18.5182 24.5783C18.9267 23.6996 19.3878 22.8209 19.8819 21.9619C20.3958 21.0767 20.9228 20.2373 21.4696 19.457C22.4512 19.3717 23.4459 19.3258 24.4473 19.3258C25.442 19.3258 26.4368 19.3717 27.4118 19.4504C27.9586 20.2308 28.4922 21.0635 29.006 21.9422C29.5067 22.8013 29.9613 23.6734 30.3763 24.5521C29.9613 25.4308 29.5067 26.3095 29.0126 27.1685ZM31.1405 26.316C31.4962 27.1947 31.7993 28.0734 32.0496 28.9259C31.1866 29.1357 30.2775 29.3128 29.3354 29.4505C29.6582 28.9456 29.981 28.4275 30.2841 27.8964C30.5871 27.3718 30.8704 26.8406 31.1405 26.316ZM24.4605 33.3128C23.8478 32.6833 23.2351 31.9816 22.629 31.2144C23.2219 31.2406 23.828 31.2603 24.4407 31.2603C25.0599 31.2603 25.6726 31.2472 26.2721 31.2144C25.6792 31.9816 25.0665 32.6833 24.4605 33.3128ZM19.5591 29.4505C18.6236 29.3128 17.7211 29.1423 16.8581 28.9324C17.1019 28.0865 17.4049 27.2144 17.7475 26.3423C18.0176 26.8669 18.3008 27.3914 18.6105 27.916C18.9201 28.4406 19.2363 28.9521 19.5591 29.4505ZM24.4275 15.8045C25.0402 16.434 25.6528 17.1357 26.2589 17.9029C25.666 17.8766 25.0599 17.857 24.4473 17.857C23.828 17.857 23.2154 17.8701 22.6159 17.9029C23.2088 17.1357 23.8214 16.434 24.4275 15.8045ZM19.5525 19.6668C19.2297 20.1717 18.9069 20.6898 18.6039 21.2209C18.3008 21.7455 18.0176 22.2701 17.7475 22.7947C17.3917 21.916 17.0887 21.0373 16.8383 20.1849C17.7013 19.9816 18.6105 19.8045 19.5525 19.6668ZM13.5905 27.8767C11.2585 26.8865 9.74985 25.5882 9.74985 24.5586C9.74985 23.5291 11.2585 22.2242 13.5905 21.2406C14.1571 20.998 14.7764 20.7816 15.4154 20.5783C15.7909 21.8636 16.285 23.2013 16.8976 24.5718C16.2916 25.9357 15.8041 27.2669 15.4351 28.5455C14.7829 28.3423 14.1637 28.1193 13.5905 27.8767ZM17.1348 37.2472C16.2389 36.7358 15.8502 34.7882 16.1532 32.2833C16.2257 31.6669 16.3443 31.0177 16.4892 30.3554C17.7804 30.6701 19.1902 30.9128 20.6725 31.0702C21.5618 32.2833 22.4841 33.3849 23.413 34.3489C21.2654 36.3357 19.2495 37.4243 17.8792 37.4243C17.5828 37.4177 17.3324 37.3587 17.1348 37.2472ZM32.7611 32.2505C33.0707 34.7554 32.6886 36.703 31.7993 37.221C31.6016 37.339 31.3447 37.3915 31.0417 37.3915C29.678 37.3915 27.6555 36.3095 25.5079 34.3357C26.4302 33.3718 27.3525 32.2767 28.2287 31.0636C29.7175 30.9062 31.1273 30.6636 32.4185 30.3423C32.5701 31.0046 32.6886 31.6406 32.7611 32.2505ZM35.2974 27.8767C34.7309 28.1193 34.1116 28.3357 33.4726 28.539C33.0971 27.2537 32.603 25.916 31.9903 24.5455C32.5964 23.1816 33.0839 21.8504 33.4528 20.5717C34.105 20.775 34.7243 20.998 35.304 21.2406C37.6361 22.2308 39.1447 23.5291 39.1447 24.5586C39.1381 25.5882 37.6295 26.8931 35.2974 27.8767Z" fill="#61DAFB"/>
<path d="M24.4396 27.5554C26.1023 27.5554 27.4502 26.2137 27.4502 24.5586C27.4502 22.9036 26.1023 21.5619 24.4396 21.5619C22.7769 21.5619 21.429 22.9036 21.429 24.5586C21.429 26.2137 22.7769 27.5554 24.4396 27.5554Z" fill="#61DAFB"/>
</svg>
