<svg width="74" height="68" viewBox="0 0 74 68" fill="none" xmlns="http://www.w3.org/2000/svg">
<g clip-path="url(#clip0_500_2429)">
<path d="M0.790228 61.0036C1.28307 59.761 2.21285 59.3649 3.51949 59.3692C13.0859 59.4013 22.6525 59.3762 32.2189 59.3913C36.4941 59.3981 40.6228 58.6873 44.4777 56.8026C53.213 52.5317 58.6974 45.6095 60.0769 35.992C61.7113 24.5983 57.5322 15.4645 48.0971 8.79622C47.9632 8.70158 47.82 8.61941 47.6772 8.53856C47.6415 8.51834 47.5901 8.5259 47.4911 8.51419C47.5561 8.77846 47.622 9.02271 47.6757 9.26942C47.9148 10.3685 47.288 11.4694 46.2477 11.7828C45.1444 12.1152 43.9728 11.5774 43.6388 10.4548C43.0354 8.42654 42.4878 6.37997 41.9816 4.32509C41.7267 3.29047 42.4198 2.23242 43.4928 1.92905C45.4166 1.3852 47.347 0.862881 49.2859 0.375702C50.5047 0.0694908 51.6146 0.752751 51.9152 1.91431C52.1985 3.00976 51.5374 4.09311 50.3562 4.46809C50.1586 4.5308 49.961 4.59333 49.7526 4.65944C49.8021 4.96056 50.0683 5.00948 50.2464 5.12962C58.1548 10.4591 62.9337 17.8212 64.3694 27.246C66.9222 44.0041 55.456 59.9894 38.7576 63.083C36.619 63.4792 34.4589 63.625 32.2888 63.6263C22.6988 63.632 13.1086 63.6171 3.51855 63.6426C2.22003 63.646 1.28307 63.2338 0.790039 61.9936V61.0038L0.790228 61.0036Z" fill="white"/>
<path d="M0.790039 29.754C0.96553 28.5467 1.104 27.3327 1.32274 26.1333C2.54003 19.4586 5.63256 13.7719 10.51 9.08241C16.6728 3.15692 24.0634 0.146946 32.6152 0.000546855C33.994 -0.023066 34.9697 0.816228 35.0061 2.04882C35.0424 3.27649 34.1351 4.20627 32.7384 4.22762C29.2412 4.28108 25.8325 4.83362 22.6111 6.19466C13.0339 10.2413 7.08389 17.3501 5.39076 27.6351C3.93753 36.4629 6.74897 44.1201 12.7663 50.6525C13.0534 50.9642 13.3668 51.2524 13.6469 51.5702C14.4326 52.461 14.4093 53.6991 13.6042 54.5055C12.7908 55.3203 11.4664 55.3456 10.6154 54.5061C6.02831 49.9804 2.94221 44.6069 1.49502 38.3081C1.15727 36.8381 1.04619 35.3359 0.790228 33.8549C0.790228 32.488 0.790228 31.1211 0.790228 29.7542L0.790039 29.754Z" fill="white"/>
<path d="M32.9541 12.7235C43.5243 12.7851 52.0284 21.36 51.9762 31.9043C51.9243 42.4082 43.3052 50.9489 32.8223 50.8839C22.2228 50.8182 13.717 42.2089 13.8009 31.6312C13.8838 21.1644 22.4961 12.6627 32.9543 12.7237L32.9541 12.7235ZM32.8903 46.6417C41.0728 46.6398 47.7269 39.9956 47.7346 31.8193C47.7423 23.64 41.1105 16.9906 32.9216 16.967C24.7155 16.9434 18.034 23.6141 18.0416 31.8233C18.0491 39.9967 24.7098 46.6438 32.8903 46.6419V46.6417Z" fill="white"/>
<path d="M65.9219 63.7572C65.6134 63.5576 65.3497 63.6333 65.1024 63.6327C62.5832 63.6261 60.064 63.6292 57.5448 63.6278C57.286 63.6278 57.0259 63.6303 56.7688 63.6061C55.5353 63.4897 54.702 62.5755 54.7532 61.4052C54.8033 60.262 55.672 59.4091 56.8844 59.3949C59.0031 59.3703 61.1223 59.3872 63.2412 59.3866C64.0799 59.3866 64.9186 59.3866 65.7891 59.3866C65.6948 59.0214 65.4494 58.8958 65.2855 58.7081C64.5053 57.8153 64.5161 56.5874 65.3206 55.7721C66.1074 54.975 67.4261 54.9115 68.2537 55.7102C69.7273 57.1322 71.1741 58.5834 72.6003 60.0532C73.3847 60.8617 73.4221 62.041 72.6549 62.8692C71.2155 64.4233 69.7428 65.9483 68.2378 67.4389C67.4446 68.2246 66.1389 68.16 65.3563 67.4023C64.5336 66.6057 64.4874 65.3572 65.2537 64.4705C65.453 64.2401 65.6703 64.0251 65.9223 63.7572H65.9219Z" fill="white"/>
<path d="M30.7851 40.3934C30.1366 40.4093 29.5922 40.1703 29.1371 39.7152C27.7555 38.3329 26.3644 36.9597 24.9954 35.5649C24.0458 34.5973 24.0356 33.2472 24.9344 32.3429C25.8183 31.4538 27.1946 31.4627 28.1625 32.389C28.9108 33.1054 29.6547 33.8289 30.3574 34.589C30.6918 34.9507 30.8846 34.8884 31.1944 34.5752C33.3143 32.4327 35.4538 30.3098 37.578 28.1716C38.2409 27.5044 39.0339 27.2932 39.9077 27.5418C40.7374 27.7779 41.2601 28.3749 41.4447 29.2291C41.6111 30 41.4069 30.6923 40.8591 31.2433C38.0202 34.0988 35.1699 36.9427 32.3188 39.7859C31.9004 40.2032 31.379 40.4002 30.7851 40.3934Z" fill="white"/>
</g>
<defs>
<clipPath id="clip0_500_2429">
<rect width="72.4196" height="68" fill="white" transform="translate(0.790039)"/>
</clipPath>
</defs>
</svg>
