<svg width="44" height="44" viewBox="0 0 44 44" fill="none" xmlns="http://www.w3.org/2000/svg">
<path d="M37.3594 23C37.3594 24.8385 36.9973 26.659 36.2937 28.3576C35.5901 30.0561 34.5589 31.5995 33.2589 32.8995C31.9589 34.1995 30.4155 35.2307 28.7169 35.9343C27.0184 36.6379 25.1979 37 23.3594 37" stroke="white" stroke-width="2"/>
<path d="M7.35938 23C7.35938 24.8385 7.72151 26.659 8.42507 28.3576C9.12864 30.0561 10.1599 31.5995 11.4599 32.8995C12.7599 34.1995 14.3032 35.2307 16.0018 35.9343C17.7004 36.6379 19.5209 37 21.3594 37" stroke="white" stroke-width="2"/>
<path d="M23.3594 7C25.1979 7 27.0184 7.36212 28.7169 8.06569C30.4155 8.76925 31.9588 9.80048 33.2589 11.1005C34.5589 12.4005 35.5901 13.9439 36.2937 15.6424C36.9973 17.341 37.3594 19.1615 37.3594 21" stroke="white" stroke-width="2"/>
<path fill-rule="evenodd" clip-rule="evenodd" d="M38.3557 21.6901C38.1245 22.0278 37.6634 22.1142 37.3257 21.8831L31.8225 18.1165C31.4848 17.8853 31.3984 17.4242 31.6295 17.0865C31.8607 16.7488 32.3218 16.6624 32.6595 16.8935L37.5513 20.2416L40.8993 15.3499C41.1305 15.0122 41.5916 14.9258 41.9293 15.1569C42.267 15.3881 42.3534 15.8492 42.1223 16.1869L38.3557 21.6901Z" fill="white"/>
<path fill-rule="evenodd" clip-rule="evenodd" d="M8.50966 21.7841C8.22178 21.4933 7.75262 21.4909 7.46177 21.7787L2.72215 26.47C2.43131 26.7579 2.4289 27.2271 2.71679 27.5179C3.00467 27.8088 3.47383 27.8112 3.76468 27.5233L7.97766 23.3532L12.1477 27.5662C12.4356 27.8571 12.9048 27.8595 13.1956 27.5716C13.4864 27.2837 13.4889 26.8146 13.201 26.5237L8.50966 21.7841Z" fill="white"/>
<path d="M21.3594 7C19.5209 7 17.7004 7.36212 16.0018 8.06569C14.3032 8.76925 12.7599 9.80048 11.4599 11.1005C10.1599 12.4005 9.12864 13.9439 8.42507 15.6424C7.72151 17.341 7.35938 19.1615 7.35938 21" stroke="white" stroke-width="2"/>
<path d="M22.3641 15H22.0966C21.409 15 20.8516 15.5574 20.8516 16.245V18.4156C20.8516 19.1032 21.409 19.6606 22.0966 19.6606H22.3641C23.0517 19.6606 23.6091 19.1032 23.6091 18.4156V16.245C23.6091 15.5574 23.0517 15 22.3641 15Z" stroke="white" stroke-width="2"/>
<mask id="mask0_1056_1959" style="mask-type:luminance" maskUnits="userSpaceOnUse" x="17" y="20" width="11" height="9">
<path d="M17 24.0176C17 22.8916 17.6294 21.8523 18.6833 21.4558C19.7244 21.0641 21.0781 20.6602 22.2333 20.6602C23.3886 20.6602 24.7422 21.0641 25.7833 21.4558C26.8372 21.8523 27.4666 22.8916 27.4666 24.0176V28.2723H17V24.0176Z" fill="white"/>
</mask>
<g mask="url(#mask0_1056_1959)">
<path d="M27.4666 28.2723V30.2723H29.4666V28.2723H27.4666ZM17 28.2723H15V30.2723H17V28.2723ZM25.4666 24.0176V28.2723H29.4666V24.0176H25.4666ZM27.4666 26.2723H17V30.2723H27.4666V26.2723ZM19 28.2723V24.0176H15V28.2723H19ZM19.3876 23.3277C20.3807 22.954 21.4543 22.6602 22.2333 22.6602V18.6602C20.7018 18.6602 19.0681 19.1741 17.979 19.5839L19.3876 23.3277ZM22.2333 22.6602C23.0123 22.6602 24.0859 22.954 25.079 23.3277L26.4876 19.5839C25.3985 19.1741 23.7648 18.6602 22.2333 18.6602V22.6602ZM29.4666 24.0176C29.4666 22.1736 28.4233 20.3122 26.4876 19.5839L25.079 23.3277C25.2511 23.3924 25.4666 23.6096 25.4666 24.0176H29.4666ZM19 24.0176C19 23.6096 19.2156 23.3924 19.3876 23.3277L17.979 19.5839C16.0433 20.3122 15 22.1736 15 24.0176H19Z" fill="white"/>
</g>
</svg>
