<svg width="63" height="57" viewBox="0 0 63 57" fill="none" xmlns="http://www.w3.org/2000/svg">
<path d="M31.4933 0L13.7437 1.877L0 20.3258L31.4933 56.9997L62.9866 20.3258L49.2429 1.877L31.4933 0Z" fill="#F8B30C"/>
<path d="M0 20.3262L31.4933 57.0001L12.7563 20.3262H0Z" fill="#E96C11"/>
<path d="M50.2301 20.3262L31.4932 57.0001L62.9864 20.3262H50.2301Z" fill="#E96C11"/>
<path d="M12.7566 20.3262L31.4935 57.0001L50.2304 20.3262H12.7566Z" fill="#F8AD0C"/>
<path d="M13.7439 1.877L12.7566 20.3258L31.4935 0L13.7439 1.877Z" fill="#FAD22E"/>
<path d="M50.2301 20.3258L49.2428 1.877L31.4932 0L50.2301 20.3258Z" fill="#FAD22E"/>
<path d="M50.2302 20.3257H62.9866L49.2429 1.87695L50.2302 20.3257Z" fill="#F8AD0C"/>
<path d="M0 20.3257H12.7563L13.7437 1.87695L0 20.3257Z" fill="#F8AD0C"/>
<path d="M31.4935 0L12.7566 20.3258H50.2304L31.4935 0Z" fill="#F8EDB7"/>
</svg>
