<svg width="100" height="100" viewBox="0 0 100 100" fill="none" xmlns="http://www.w3.org/2000/svg">
<g clip-path="url(#clip0_1120_684)">
<path d="M40.5999 76.4002C39.9999 74.9002 39.4999 73.6002 38.8999 72.2002C38.7999 72.0002 38.4999 71.8002 38.1999 71.7002C37.9999 71.7002 37.6999 71.7002 37.4999 71.7002H8.69992C6.09992 72.0002 3.79992 70.2002 3.49992 67.6002C3.49992 67.2002 3.49992 66.9002 3.49992 66.5002C3.49992 51.3002 3.49992 36.2002 3.49992 21.0002C3.19992 18.4002 5.09992 16.1002 7.69992 15.8002C7.99992 15.8002 8.39992 15.8002 8.69992 15.8002H12.7999C12.7999 13.4002 12.7999 11.1002 12.7999 8.8002C12.3999 6.2002 14.1999 3.8002 16.7999 3.4002C17.1999 3.3002 17.6999 3.3002 18.0999 3.4002H72.4999C75.0999 3.0002 77.4999 4.8002 77.8999 7.4002C77.9999 7.9002 77.9999 8.40019 77.9999 8.90019C77.9999 18.5002 77.9999 28.2002 77.9999 37.8002V38.8002L78.1999 39.0002C78.8999 38.3002 79.4999 37.6002 80.1999 36.9002C80.6999 36.2002 81.6999 36.0002 82.3999 36.5002C82.5999 36.6002 82.6999 36.8002 82.7999 36.9002C85.5999 39.7002 88.2999 42.4002 91.0999 45.2002C91.7999 45.7002 91.9999 46.7002 91.4999 47.4002C91.3999 47.6002 91.1999 47.7002 91.0999 47.8002C89.7999 49.1002 88.4999 50.4002 87.2999 51.6002C87.8999 53.1002 88.3999 54.5002 88.9999 55.9002C89.1999 56.2002 89.4999 56.3002 89.7999 56.3002C91.3999 56.3002 92.9999 56.3002 94.5999 56.3002C95.9999 56.3002 96.4999 56.9002 96.4999 58.3002C96.4999 62.2002 96.4999 66.1002 96.4999 69.9002C96.4999 71.3002 95.8999 71.8002 94.4999 71.8002C92.8999 71.8002 91.3999 71.8002 89.7999 71.8002C89.2999 71.7002 88.8999 72.0002 88.7999 72.5002C88.2999 73.8002 87.7999 75.1002 87.1999 76.4002C88.3999 77.6002 89.6999 78.9002 90.8999 80.1002C91.9999 81.2002 91.9999 81.9002 90.8999 83.0002C88.1999 85.7002 85.4999 88.4002 82.7999 91.1002C81.6999 92.2002 80.9999 92.2002 79.8999 91.1002C78.5999 89.8002 77.3999 88.6002 76.1999 87.4002C74.6999 88.0002 73.2999 88.5002 71.9999 89.1002C71.6999 89.3002 71.5999 89.6002 71.5999 89.9002C71.5999 91.5002 71.5999 93.1002 71.5999 94.7002C71.5999 96.1002 71.0999 96.7002 69.6999 96.7002C65.7999 96.7002 61.8999 96.7002 57.9999 96.7002C56.6999 96.7002 56.0999 96.1002 56.0999 94.8002C56.0999 93.2002 56.0999 91.7002 56.0999 90.1002C56.1999 89.6002 55.8999 89.1002 55.2999 89.0002C53.9999 88.6002 52.7999 88.0002 51.3999 87.5002C50.1999 88.7002 48.9999 89.9002 47.6999 91.2002C46.5999 92.3002 45.8999 92.3002 44.7999 91.2002C42.0999 88.5002 39.3999 85.9002 36.7999 83.2002C35.6999 82.1002 35.6999 81.4002 36.7999 80.3002C38.1999 78.9002 39.3999 77.6002 40.5999 76.4002ZM6.59992 28.3002H53.0999V31.4002H6.59992V32.5002C6.59992 43.9002 6.59992 55.2002 6.59992 66.5002C6.59992 68.2002 7.09992 68.7002 8.69992 68.7002C15.8999 68.7002 23.1999 68.7002 30.3999 68.7002C30.6999 68.7002 30.9999 68.7002 31.3999 68.7002V67.6002C31.3999 64.5002 31.3999 61.4002 31.3999 58.3002C31.3999 56.9002 31.8999 56.4002 33.2999 56.4002C34.8999 56.4002 36.4999 56.4002 38.0999 56.4002C38.3999 56.4002 38.7999 56.2002 38.8999 55.9002C39.4999 54.6002 39.9999 53.2002 40.5999 51.8002C39.3999 50.6002 38.0999 49.4002 36.8999 48.1002C35.7999 47.0002 35.7999 46.3002 36.8999 45.2002C39.5999 42.5002 42.2999 39.8002 44.9999 37.1002C46.0999 36.0002 46.7999 36.0002 47.8999 37.1002C49.1999 38.4002 50.3999 39.6002 51.5999 40.8002C53.0999 40.2002 54.3999 39.7002 55.7999 39.1002C56.0999 38.9002 56.1999 38.6002 56.1999 38.3002C56.1999 36.7002 56.1999 35.1002 56.1999 33.5002C56.1999 32.2002 56.7999 31.6002 58.0999 31.6002C58.4999 31.6002 58.8999 31.6002 59.3999 31.6002H65.5999C65.5999 28.2002 65.5999 24.8002 65.5999 21.5002C65.5999 19.6002 65.1999 19.2002 63.2999 19.2002H8.89992C8.59992 19.2002 8.39993 19.2002 8.09993 19.2002C7.29993 19.2002 6.59992 19.8002 6.49992 20.6002V20.7002C6.49992 23.1002 6.59992 25.6002 6.59992 28.3002ZM87.9999 46.6002L81.3999 40.0002C80.2999 41.1002 79.1999 42.3002 77.9999 43.5002C77.0999 44.4002 76.5999 44.4002 75.4999 43.9002C73.8999 43.2002 72.2999 42.4002 70.5999 41.8002C68.7999 41.2002 68.6999 41.1002 68.6999 39.1002C68.6999 37.6002 68.6999 36.1002 68.6999 34.6002H59.3999C59.3999 36.3002 59.3999 37.9002 59.3999 39.5002C59.3999 40.9002 59.0999 41.2002 57.7999 41.7002C56.0999 42.4002 54.2999 43.1002 52.5999 43.8002C51.2999 44.4002 50.8999 44.4002 49.8999 43.4002C48.6999 42.2002 47.5999 41.1002 46.5999 40.1002L39.9999 46.6002C41.0999 47.6002 42.1999 48.7002 43.2999 49.8002C44.3999 50.9002 44.3999 51.3002 43.7999 52.7002C42.9999 54.4002 42.2999 56.1002 41.6999 57.8002C41.1999 59.0002 40.8999 59.3002 39.5999 59.4002C37.9999 59.4002 36.2999 59.4002 34.6999 59.4002V68.7002C36.3999 68.7002 37.9999 68.7002 39.6999 68.7002C40.9999 68.7002 41.2999 69.0002 41.6999 70.2002C42.3999 72.0002 43.0999 73.7002 43.8999 75.5002C44.4999 76.7002 44.4999 77.1002 43.4999 78.1002C42.2999 79.3002 41.1999 80.4002 39.9999 81.6002L46.5999 88.2002C46.5999 88.2002 46.6999 88.2002 46.6999 88.1002C47.7999 87.0002 48.9999 85.8002 50.0999 84.7002C50.9999 83.8002 51.3999 83.8002 52.4999 84.3002C54.1999 85.1002 55.9999 85.8002 57.7999 86.5002C59.0999 87.0002 59.3999 87.3002 59.3999 88.8002C59.3999 90.4002 59.3999 92.0002 59.3999 93.6002H68.5999C68.5999 93.5002 68.5999 93.4002 68.6999 93.3002C68.6999 91.7002 68.6999 90.1002 68.6999 88.5002C68.6999 87.3002 68.9999 87.0002 70.0999 86.5002C71.8999 85.8002 73.6999 85.1002 75.3999 84.3002C76.5999 83.8002 76.9999 83.8002 77.9999 84.7002C79.1999 85.9002 80.2999 87.0002 81.3999 88.1002L87.9999 81.5002C86.8999 80.4002 85.7999 79.3002 84.6999 78.2002C83.5999 77.1002 83.5999 76.8002 84.2999 75.3002C85.0999 73.7002 85.6999 72.1002 86.2999 70.4002C86.7999 69.0002 87.0999 68.7002 88.5999 68.7002H93.3999V59.4002C91.5999 59.4002 89.8999 59.4002 88.1999 59.4002C87.3999 59.4002 86.6999 58.9002 86.4999 58.1002C85.7999 56.2002 84.9999 54.3002 84.1999 52.5002C83.6999 51.4002 83.6999 51.0002 84.5999 50.1002C85.6999 48.9002 86.8999 47.7002 87.9999 46.6002ZM74.8999 15.8002C74.8999 13.4002 74.8999 11.1002 74.8999 8.8002C74.8999 6.9002 74.4999 6.5002 72.5999 6.5002H17.9999C16.2999 6.5002 15.7999 7.0002 15.7999 8.6002C15.7999 10.7002 15.7999 12.8002 15.7999 14.9002C15.7999 15.2002 15.7999 15.5002 15.8999 15.8002H74.8999ZM74.8999 19.0002H68.6999V31.4002H69.5999C71.3999 31.4002 71.7999 31.9002 71.7999 33.7002C71.7999 35.2002 71.7999 36.7002 71.7999 38.2002C71.7999 38.5002 71.8999 38.9002 72.0999 39.0002C72.9999 39.4002 73.8999 39.7002 74.8999 40.0002V19.0002Z" fill="#141414" stroke="white" stroke-width="2" stroke-miterlimit="8" stroke-linecap="round" stroke-linejoin="round"/>
<path d="M12.6997 22.1006H9.69971V25.1006H12.6997V22.1006Z" fill="#141414" stroke="white" stroke-width="2" stroke-miterlimit="8" stroke-linecap="round" stroke-linejoin="round"/>
<path d="M18.8999 22.1006H15.8999V25.1006H18.8999V22.1006Z" fill="#141414" stroke="white" stroke-width="2" stroke-miterlimit="8" stroke-linecap="round" stroke-linejoin="round"/>
<path d="M25.1001 22.1006H22.1001V25.1006H25.1001V22.1006Z" fill="#141414" stroke="white" stroke-width="2" stroke-miterlimit="8" stroke-linecap="round" stroke-linejoin="round"/>
<path d="M62.3999 22.1006H59.3999V25.1006H62.3999V22.1006Z" fill="#141414" stroke="white" stroke-width="2" stroke-miterlimit="8" stroke-linecap="round" stroke-linejoin="round"/>
<path d="M84.1997 64.0006C84.1997 75.1006 75.0997 84.2006 63.9997 84.1006C52.8997 84.1006 43.7997 75.0006 43.8997 63.9006C43.8997 52.8006 52.9997 43.7006 64.0997 43.8006C64.1997 43.8006 64.1997 43.8006 64.2997 43.8006C75.2997 44.0006 84.1997 53.0006 84.1997 64.0006ZM46.8997 64.1006C46.8997 73.5006 54.5997 81.1006 63.9997 81.1006C73.3997 81.1006 80.9997 73.4006 80.9997 64.0006C80.9997 54.7006 73.3997 47.1006 64.0997 47.0006C54.6997 46.9006 46.8997 54.5006 46.8997 64.0006C46.8997 64.0006 46.8997 64.0006 46.8997 64.1006Z" fill="#141414" stroke="white" stroke-width="2" stroke-miterlimit="8" stroke-linecap="round" stroke-linejoin="round"/>
<path d="M22 9.7002H19V12.7002H22V9.7002Z" fill="#141414" stroke="white" stroke-width="2" stroke-miterlimit="8" stroke-linecap="round" stroke-linejoin="round"/>
<path d="M28.1997 9.7002H25.1997V12.7002H28.1997V9.7002Z" fill="#141414" stroke="white" stroke-width="2" stroke-miterlimit="8" stroke-linecap="round" stroke-linejoin="round"/>
<path d="M34.5 9.7002H31.5V12.7002H34.5V9.7002Z" fill="#141414" stroke="white" stroke-width="2" stroke-miterlimit="8" stroke-linecap="round" stroke-linejoin="round"/>
<path d="M71.6997 9.7002H68.6997V12.7002H71.6997V9.7002Z" fill="#141414" stroke="white" stroke-width="2" stroke-miterlimit="8" stroke-linecap="round" stroke-linejoin="round"/>
<path d="M50 64C50 56.3 56.2 50 64 50C71.8 50 78 56.2 78 64C78 71.7 71.8 77.9 64.1 78C56.3 78 50 71.7 50 64ZM53.1 64C53.1 70 58 74.9 64 74.9C70 74.9 74.9 70 74.9 64C74.9 58 70.1 53.2 64.1 53.1C58 53.1 53.1 58 53.1 64Z" fill="#141414" stroke="white" stroke-width="2" stroke-miterlimit="8" stroke-linecap="round" stroke-linejoin="round"/>
</g>
<defs>
<clipPath id="clip0_1120_684">
<rect width="100" height="100" fill="white"/>
</clipPath>
</defs>
</svg>
