<svg width="40" height="40" viewBox="0 0 40 40" fill="none" xmlns="http://www.w3.org/2000/svg">
<path d="M3 7H15M3 22H15M3 27H13M3 12H10M3 17H6M18 7H32M13 12H25M9 17H22" stroke="#2E2E2E" stroke-width="2" stroke-linecap="round"/>
<path d="M36.0542 16.5393C35.8863 16.4135 35.7988 16.2098 35.7988 16V16C35.7988 15.7902 35.8863 15.5865 36.0542 15.4607L36.5451 15.093C36.7656 14.9258 36.9184 14.6848 36.9756 14.414C37.0327 14.1433 36.9903 13.861 36.8561 13.619L36.1781 12.397C36.0429 12.1521 35.8199 11.9674 35.554 11.8802C35.2882 11.793 34.9992 11.8097 34.7451 11.927L34.1808 12.1918C34.0066 12.2735 33.8034 12.2532 33.6385 12.1543V12.1543C33.4814 12.0601 33.3705 11.9016 33.353 11.7192L33.2861 11.024C33.2622 10.746 33.1354 10.4869 32.9304 10.2974C32.7255 10.108 32.4572 10.002 32.1781 10H30.8221C30.2481 10 29.7721 10.44 29.7151 11.024L29.6475 11.7187C29.6298 11.9008 29.5191 12.0591 29.3622 12.1531V12.1531C29.197 12.2522 28.9935 12.2723 28.8193 12.1902L28.2561 11.925C28.0017 11.8083 27.7127 11.7919 27.4467 11.8793C27.1808 11.9666 26.9577 12.1512 26.8221 12.396L26.1451 13.618C25.8661 14.118 26.0001 14.753 26.4551 15.093L26.9456 15.4608C27.1132 15.5866 27.2005 15.79 27.2005 15.9995V15.9995C27.2005 16.209 27.1132 16.4124 26.9456 16.5382L26.4551 16.906C26.0001 17.246 25.8671 17.879 26.1451 18.379L26.8231 19.602C27.1061 20.113 27.7351 20.316 28.2551 20.072L28.8194 19.8072C28.9937 19.7254 29.1983 19.7462 29.3634 19.8452V19.8452C29.5205 19.9393 29.6298 20.0973 29.6476 20.2796L29.7151 20.975C29.7388 21.2532 29.8655 21.5126 30.0705 21.7022C30.2755 21.8918 30.5439 21.998 30.8231 22H32.1781C32.7521 22 33.2281 21.56 33.2861 20.976L33.3529 20.2824C33.3705 20.1003 33.4811 19.9418 33.6379 19.8475V19.8475C33.8032 19.7481 34.007 19.7277 34.1815 19.8097L34.7441 20.074C34.9985 20.1911 35.2877 20.2078 35.5539 20.1206C35.82 20.0334 36.0433 19.8489 36.1791 19.604L36.8551 18.381C37.1341 17.881 37.0001 17.247 36.5451 16.907L36.0542 16.5393ZM31.5001 18.3075C31.5001 18.3072 31.4999 18.307 31.4996 18.307C30.8905 18.3037 30.3075 18.0591 29.8783 17.6268C29.4491 17.1943 29.2088 16.6093 29.2101 16C29.2085 15.3903 29.4488 14.8049 29.8783 14.3722C30.3079 13.9396 30.8915 13.6949 31.5011 13.692C32.1108 13.6949 32.6944 13.9396 33.1239 14.3722C33.5534 14.8049 33.7937 15.3903 33.7921 16C33.7937 16.6098 33.5533 17.1954 33.1235 17.6281C32.6939 18.0607 32.1103 18.3052 31.5006 18.308C31.5003 18.308 31.5001 18.3078 31.5001 18.3075V18.3075ZM27.0542 26.5393C26.8863 26.4135 26.7988 26.2098 26.7988 26V26C26.7988 25.7902 26.8863 25.5865 27.0542 25.4607L27.5451 25.093C27.7656 24.9258 27.9184 24.6848 27.9756 24.414C28.0327 24.1433 27.9903 23.861 27.8561 23.619L27.1781 22.397C27.0429 22.1521 26.8199 21.9674 26.554 21.8802C26.2882 21.793 25.9992 21.8097 25.7451 21.927L25.1808 22.1918C25.0066 22.2735 24.8034 22.2532 24.6385 22.1543V22.1543C24.4814 22.0601 24.3705 21.9016 24.353 21.7192L24.2861 21.024C24.2622 20.7458 24.1352 20.4865 23.93 20.2971C23.7249 20.1077 23.4564 20.0017 23.1771 20H21.8221C21.2481 20 20.7721 20.44 20.7151 21.024L20.6476 21.718C20.6298 21.8999 20.5193 22.0582 20.3626 22.1524V22.1524C20.1972 22.2518 19.9932 22.2722 19.8186 22.1899L19.2561 21.925C19.0017 21.8083 18.7127 21.7919 18.4467 21.8793C18.1808 21.9666 17.9577 22.1512 17.8221 22.396L17.1451 23.619C16.8661 24.119 17.0001 24.753 17.4551 25.093L17.9456 25.4608C18.1132 25.5866 18.2005 25.79 18.2005 25.9995V25.9995C18.2005 26.209 18.1132 26.4124 17.9456 26.5382L17.4551 26.906C17.0001 27.246 16.8671 27.879 17.1451 28.379L17.8231 29.602C18.1061 30.113 18.7351 30.316 19.2551 30.072L19.8194 29.8072C19.9937 29.7254 20.1983 29.7462 20.3634 29.8452V29.8452C20.5205 29.9393 20.6298 30.0973 20.6476 30.2796L20.7151 30.975C20.7388 31.2532 20.8655 31.5126 21.0705 31.7022C21.2755 31.8918 21.5439 31.998 21.8231 32H23.1781C23.7521 32 24.2281 31.56 24.2861 30.976L24.3529 30.2824C24.3705 30.1003 24.4811 29.9418 24.6379 29.8475V29.8475C24.8032 29.7481 25.007 29.7277 25.1815 29.8097L25.7441 30.074C25.9985 30.1911 26.2877 30.2078 26.5539 30.1206C26.82 30.0334 27.0433 29.8489 27.1791 29.604L27.8551 28.381C28.1341 27.881 28.0001 27.247 27.5451 26.907L27.0542 26.5393ZM22.5001 28.3075C22.5001 28.3072 22.4999 28.307 22.4996 28.307C21.8905 28.3037 21.3075 28.0591 20.8783 27.6268C20.4491 27.1943 20.2088 26.6093 20.2101 26C20.2085 25.3903 20.4488 24.8049 20.8783 24.3722C21.3079 23.9396 21.8915 23.6949 22.5011 23.692C23.1108 23.6949 23.6944 23.9396 24.1239 24.3722C24.5534 24.8049 24.7937 25.3903 24.7921 26C24.7937 26.6098 24.5533 27.1954 24.1235 27.6281C23.6939 28.0607 23.1103 28.3052 22.5006 28.308C22.5003 28.308 22.5001 28.3078 22.5001 28.3075V28.3075Z" fill="url(#paint0_linear_1058_2093)"/>
<defs>
<linearGradient id="paint0_linear_1058_2093" x1="24.8664" y1="42.2826" x2="47.5588" y2="25.6146" gradientUnits="userSpaceOnUse">
<stop stop-color="#9358F7"/>
<stop offset="0.259732" stop-color="#7B78F2"/>
<stop offset="0.500607" stop-color="#6197EE"/>
<stop offset="0.766547" stop-color="#45B5E9"/>
<stop offset="1" stop-color="#10D7E2"/>
</linearGradient>
</defs>
</svg>
