<svg width="44" height="44" viewBox="0 0 44 44" fill="none" xmlns="http://www.w3.org/2000/svg">
<path d="M25.8593 26.4864C25.8593 26.4864 16.8334 34.3837 15.1416 32.1273C13.4498 29.871 20.2184 22.5378 20.2184 22.5378L30.9361 11.256C30.9361 11.256 36.0125 7.87136 37.7052 9.56371C39.398 11.2561 36.577 15.7687 36.577 15.7687L25.8593 26.4864Z" stroke="black" stroke-linecap="round"/>
<path d="M28.6792 12.9486C28.2279 12.9486 18.7136 10.3162 14.0128 9L11.1924 11.8205L23.0383 18.5895" stroke="black" stroke-linecap="square"/>
<path d="M17.8158 24.8618C17.612 24.8618 13.3152 23.3133 11.1923 22.5391L9.5 24.2313L15.1409 28.7441" stroke="black" stroke-linecap="square"/>
<path d="M22.3636 29.5537C22.3506 29.757 23.6235 34.1434 24.2616 36.3111L22.4654 37.8927L18.3195 31.977" stroke="black" stroke-linecap="square"/>
<path d="M33.756 19.1561C33.7563 19.6074 36.3943 29.1202 37.7132 33.8202L34.8944 36.6423L28.1184 24.8003" stroke="black" stroke-linecap="square"/>
<rect x="20.5533" y="25.2031" width="2.38455" height="8.38366" rx="1.19227" transform="rotate(45.7483 20.5533 25.2031)" stroke="black"/>
<path d="M32.6279 12.3848C34.6373 12.6705 35.1856 13.3815 34.8843 15.2052" stroke="black" stroke-linecap="round"/>
</svg>
