<svg width="40" height="40" viewBox="0 0 40 40" fill="none" xmlns="http://www.w3.org/2000/svg">
<path d="M29 6H12C10.3431 6 9 7.34315 9 9V31C9 32.6569 10.3431 34 12 34H29C30.6569 34 32 32.6569 32 31V9C32 7.34315 30.6569 6 29 6Z" stroke="white" stroke-width="2"/>
<path d="M24 4H17C15.8954 4 15 4.89543 15 6C15 7.10457 15.8954 8 17 8H24C25.1046 8 26 7.10457 26 6C26 4.89543 25.1046 4 24 4Z" fill="white" stroke="white" stroke-width="2"/>
<path d="M13 13.8571L15.0833 16L18 13" stroke="white" stroke-width="2"/>
<path d="M13 19.8571L15.0833 22L18 19" stroke="white" stroke-width="2"/>
<path d="M13 25.8571L15.0833 28L18 25" stroke="white" stroke-width="2"/>
<path d="M22 15H28" stroke="white" stroke-width="2"/>
<path d="M22 21H28" stroke="white" stroke-width="2"/>
<path d="M22 27H28" stroke="white" stroke-width="2"/>
</svg>
