<svg width="45" height="57" viewBox="0 0 45 57" fill="none" xmlns="http://www.w3.org/2000/svg">
<g clip-path="url(#clip0_1021_906)">
<path d="M8.87228 0H35.5189C40.4894 0 44.3986 3.90917 44.2118 8.7078V37.8434C44.2118 42.6346 40.3101 46.5438 35.5114 46.5438H29.6514L32.8505 56.8436L17.4007 46.5438H8.87976C3.90921 46.5438 1.06093e-05 42.6346 1.06093e-05 37.664V8.71528C-0.00743189 3.90917 3.90174 0 8.87228 0ZM19.2245 31.9759C18.3201 31.4751 17.595 30.7501 17.0494 29.7934C16.5038 28.8366 16.2347 27.6856 16.2347 26.3476V10.8231C16.2347 10.5839 16.1824 10.397 16.0702 10.2774C15.9656 10.1504 15.7862 10.0906 15.5321 10.0906H11.5631C11.4734 10.0906 11.3837 10.1055 11.3015 10.1429C11.2193 10.1803 11.1445 10.2326 11.0922 10.3073C10.9651 10.4494 10.8979 10.6362 10.9053 10.8306V26.2878C10.9053 28.7619 11.4136 30.8323 12.4301 32.5141C13.4467 34.1884 14.807 35.4366 16.5262 36.2588C18.2378 37.081 20.1513 37.4847 22.2591 37.4847C24.3744 37.4847 26.2879 37.081 27.9995 36.2813C29.7112 35.4815 31.0716 34.2482 32.0881 32.5739C33.1046 30.8996 33.6129 28.8217 33.6129 26.3402V10.838C33.6129 10.7409 33.598 10.6437 33.5606 10.5465C33.5232 10.4568 33.4709 10.3671 33.4036 10.2999C33.2616 10.1579 33.0747 10.0831 32.8356 10.0831H29.0535C28.8292 10.0831 28.6424 10.1504 28.5078 10.2924C28.3658 10.4344 28.2985 10.6138 28.2985 10.838V26.3476C28.2985 27.5959 28.0294 28.7096 27.4913 29.6738C26.9531 30.6455 26.2281 31.3929 25.3087 31.9236C24.3894 32.4543 23.3728 32.7159 22.2666 32.7159C21.1379 32.7234 20.1289 32.4767 19.2245 31.9759Z" fill="#315CFD"/>
</g>
<defs>
<clipPath id="clip0_1021_906">
<rect width="44.2182" height="57" fill="white"/>
</clipPath>
</defs>
</svg>
