<svg width="40" height="40" viewBox="0 0 40 40" fill="none" xmlns="http://www.w3.org/2000/svg">
<path d="M28 3H12C10.3431 3 9 4.34315 9 6V34C9 35.6569 10.3431 37 12 37H28C29.6569 37 31 35.6569 31 34V6C31 4.34315 29.6569 3 28 3Z" stroke="#2E2E2E" stroke-width="2"/>
<path d="M22 5.5H18C17.7239 5.5 17.5 5.72386 17.5 6C17.5 6.27614 17.7239 6.5 18 6.5H22C22.2761 6.5 22.5 6.27614 22.5 6C22.5 5.72386 22.2761 5.5 22 5.5Z" stroke="#2E2E2E"/>
<path d="M30 28.5H10C9.72386 28.5 9.5 28.7239 9.5 29C9.5 29.2761 9.72386 29.5 10 29.5H30C30.2761 29.5 30.5 29.2761 30.5 29C30.5 28.7239 30.2761 28.5 30 28.5Z" stroke="#2E2E2E"/>
<path d="M21 33C21 32.4477 20.5523 32 20 32C19.4477 32 19 32.4477 19 33C19 33.5523 19.4477 34 20 34C20.5523 34 21 33.5523 21 33Z" stroke="#2E2E2E" stroke-width="2"/>
<path d="M21.5 22H18.5C17.6716 22 17 22.6716 17 23.5C17 24.3284 17.6716 25 18.5 25H21.5C22.3284 25 23 24.3284 23 23.5C23 22.6716 22.3284 22 21.5 22Z" stroke="url(#paint0_linear_1058_2068)" stroke-width="2" stroke-linecap="round" stroke-linejoin="round"/>
<path d="M21 18C21 17.4477 20.5523 17 20 17C19.4477 17 19 17.4477 19 18C19 18.5523 19.4477 19 20 19C20.5523 19 21 18.5523 21 18Z" fill="#C63031"/>
<path d="M20 18V11M17.733 22L16 18.634L20 10L24 18.634L22.267 22" stroke="url(#paint1_linear_1058_2068)" stroke-width="2" stroke-linecap="round" stroke-linejoin="round"/>
<defs>
<linearGradient id="paint0_linear_1058_2068" x1="17" y1="23.5" x2="23" y2="23.5" gradientUnits="userSpaceOnUse">
<stop stop-color="#9358F6"/>
<stop offset="0.26" stop-color="#7A78F2"/>
<stop offset="0.515" stop-color="#6197ED"/>
<stop offset="0.76" stop-color="#44B5E9"/>
<stop offset="1" stop-color="#0FD7E1"/>
</linearGradient>
<linearGradient id="paint1_linear_1058_2068" x1="16" y1="16" x2="24" y2="16" gradientUnits="userSpaceOnUse">
<stop stop-color="#9358F6"/>
<stop offset="0.26" stop-color="#7A78F2"/>
<stop offset="0.515" stop-color="#6197ED"/>
<stop offset="0.76" stop-color="#44B5E9"/>
<stop offset="1" stop-color="#0FD7E1"/>
</linearGradient>
</defs>
</svg>
