<svg width="100" height="100" viewBox="0 0 100 100" fill="none" xmlns="http://www.w3.org/2000/svg">
<g clip-path="url(#clip0_1116_342)">
<mask id="mask0_1116_342" style="mask-type:luminance" maskUnits="userSpaceOnUse" x="0" y="0" width="100" height="100">
<path d="M100 0H0V100H100V0Z" fill="white"/>
</mask>
<g mask="url(#mask0_1116_342)">
<path d="M82.3201 74.8734C84.3922 74.9261 86.4583 75.1199 88.5041 75.4534C91.0227 76.073 93.2329 77.5809 94.7285 79.7C96.224 81.8191 96.9042 84.4068 96.6441 86.9874C96.3877 89.6157 95.1905 92.063 93.2729 93.8788C91.3554 95.6945 88.8465 96.7565 86.2081 96.8694C85.9481 96.8694 85.6881 96.8834 85.4281 96.8834C61.7428 96.8834 38.0575 96.8834 14.3721 96.8834C11.4789 96.9921 8.66093 95.9471 6.53821 93.9781C4.41548 92.0092 3.16186 89.2776 3.05312 86.3844C2.94438 83.4912 3.98943 80.6732 5.95838 78.5505C7.92732 76.4278 10.6589 75.1741 13.5521 75.0654C14.8681 75.0214 16.1881 75.0654 17.5081 75.0654L17.6801 74.7854C17.4346 74.6467 17.1999 74.4896 16.9781 74.3154C12.6461 70.3861 8.31745 66.4527 3.99212 62.5154C3.39212 61.9634 2.87612 61.3874 3.20812 60.4954C3.55012 59.5694 4.31412 59.4414 5.18812 59.4414C34.9815 59.4494 64.7754 59.4494 94.5701 59.4414C95.4381 59.4414 96.2121 59.5454 96.5701 60.4674C96.9281 61.3894 96.3701 61.9954 95.7481 62.5634C91.4894 66.4301 87.2348 70.2967 82.9841 74.1634C82.7281 74.3954 82.5121 74.6694 82.3241 74.8734M49.9961 78.1594H32.5421C26.3681 78.1594 20.1941 78.1314 14.0221 78.1694C12.9763 78.1574 11.9388 78.3559 10.9712 78.7531C10.0037 79.1502 9.12585 79.7378 8.39001 80.481C7.65416 81.2243 7.0753 82.1079 6.68785 83.0794C6.30041 84.0509 6.11229 85.0903 6.1347 86.136C6.1571 87.1816 6.38957 88.2121 6.81827 89.166C7.24697 90.12 7.86315 90.9781 8.63016 91.6891C9.39717 92.4001 10.2993 92.9496 11.283 93.305C12.2667 93.6603 13.3118 93.8141 14.3561 93.7574C38.0428 93.7574 61.7294 93.7574 85.4161 93.7574C85.6761 93.7574 85.9361 93.7574 86.1961 93.7434C88.218 93.5996 90.1045 92.6743 91.456 91.1635C92.8074 89.6528 93.5177 87.6753 93.4363 85.6499C93.355 83.6245 92.4883 81.7104 91.02 80.313C89.5517 78.9155 87.597 78.1445 85.5701 78.1634C73.7101 78.1487 61.8501 78.1487 49.9901 78.1634M90.9901 62.6474H8.79012C13.2881 66.7374 17.6561 70.7214 22.0521 74.6754C22.3819 74.9175 22.7832 75.0421 23.1921 75.0294C40.9975 75.0467 58.8021 75.0467 76.6061 75.0294C77.1053 74.9983 77.5807 74.8052 77.9601 74.4794C79.2961 73.3434 80.5721 72.1374 81.8701 70.9554L90.9921 62.6554" fill="white"/>
<path d="M82.3201 74.8734C84.3922 74.9261 86.4583 75.1199 88.5041 75.4534C91.0227 76.073 93.2329 77.5809 94.7285 79.7C96.224 81.8191 96.9042 84.4068 96.6441 86.9874C96.3877 89.6157 95.1905 92.063 93.2729 93.8788C91.3554 95.6945 88.8465 96.7565 86.2081 96.8694C85.9481 96.8694 85.6881 96.8834 85.4281 96.8834C61.7428 96.8834 38.0575 96.8834 14.3721 96.8834C11.4789 96.9921 8.66093 95.9471 6.53821 93.9781C4.41548 92.0092 3.16186 89.2776 3.05312 86.3844C2.94438 83.4912 3.98943 80.6732 5.95838 78.5505C7.92732 76.4278 10.6589 75.1741 13.5521 75.0654C14.8681 75.0214 16.1881 75.0654 17.5081 75.0654L17.6801 74.7854C17.4346 74.6467 17.1999 74.4896 16.9781 74.3154C12.6461 70.3861 8.31745 66.4527 3.99212 62.5154C3.39212 61.9634 2.87612 61.3874 3.20812 60.4954C3.55012 59.5694 4.31412 59.4414 5.18812 59.4414C34.9815 59.4494 64.7754 59.4494 94.5701 59.4414C95.4381 59.4414 96.2121 59.5454 96.5701 60.4674C96.9281 61.3894 96.3701 61.9954 95.7481 62.5634C91.4894 66.4301 87.2348 70.2967 82.9841 74.1634C82.7281 74.3954 82.5121 74.6694 82.3241 74.8734M49.9961 78.1594H32.5421C26.3681 78.1594 20.1941 78.1314 14.0221 78.1694C12.9763 78.1574 11.9388 78.3559 10.9712 78.7531C10.0037 79.1502 9.12585 79.7378 8.39001 80.481C7.65416 81.2243 7.0753 82.1079 6.68785 83.0794C6.30041 84.0509 6.11229 85.0903 6.1347 86.136C6.1571 87.1816 6.38957 88.2121 6.81827 89.166C7.24697 90.12 7.86315 90.9781 8.63016 91.6891C9.39717 92.4001 10.2993 92.9496 11.283 93.305C12.2667 93.6603 13.3118 93.8141 14.3561 93.7574C38.0428 93.7574 61.7294 93.7574 85.4161 93.7574C85.6761 93.7574 85.9361 93.7574 86.1961 93.7434C88.218 93.5996 90.1045 92.6743 91.456 91.1635C92.8074 89.6528 93.5177 87.6753 93.4363 85.6499C93.355 83.6245 92.4883 81.7104 91.02 80.313C89.5517 78.9155 87.597 78.1445 85.5701 78.1634C73.7101 78.1487 61.8501 78.1487 49.9901 78.1634M90.9901 62.6474H8.79012C13.2881 66.7374 17.6561 70.7214 22.0521 74.6754C22.3819 74.9175 22.7832 75.0421 23.1921 75.0294C40.9975 75.0467 58.8021 75.0467 76.6061 75.0294C77.1053 74.9983 77.5807 74.8052 77.9601 74.4794C79.2961 73.3434 80.5721 72.1374 81.8701 70.9554L90.9921 62.6554" stroke="black" stroke-width="1.2"/>
<path d="M49.8803 56.3202C44.8443 56.3202 39.809 56.3202 34.7743 56.3202C33.6777 56.4173 32.5817 56.1272 31.6768 55.5003C30.7718 54.8734 30.1151 53.9493 29.8206 52.8885C29.5261 51.8278 29.6125 50.6973 30.0648 49.6936C30.517 48.6899 31.3066 47.8764 32.2963 47.3942C32.4331 47.2621 32.541 47.1031 32.6132 46.9272C32.6855 46.7513 32.7206 46.5624 32.7163 46.3722C32.7423 41.0442 32.7323 35.7143 32.7343 30.3863C32.6509 29.6781 32.7284 28.9602 32.9609 28.2861C33.1934 27.612 33.575 26.9991 34.0773 26.4929C34.5796 25.9868 35.1896 25.6005 35.862 25.3628C36.5343 25.1252 37.2515 25.0422 37.9603 25.1202H61.8383C62.538 25.0471 63.2451 25.1308 63.9083 25.3653C64.5715 25.5998 65.1741 25.9793 65.6722 26.476C66.1703 26.9728 66.5514 27.5743 66.7877 28.2369C67.024 28.8995 67.1096 29.6064 67.0383 30.3063C67.0383 35.6683 67.0503 41.0283 67.0243 46.3903C66.9938 46.6393 67.0458 46.8914 67.1722 47.1081C67.2986 47.3249 67.4926 47.4942 67.7243 47.5902C68.632 48.0819 69.3471 48.8657 69.7537 49.8146C70.1603 50.7635 70.2345 51.8219 69.9643 52.8182C69.7118 53.8197 69.1318 54.7079 68.3164 55.3417C67.501 55.9756 66.4971 56.3186 65.4643 56.3162C60.2643 56.3382 55.0643 56.3162 49.8643 56.3162M63.9143 46.9562V46.0722C63.9143 40.8109 63.9143 35.5502 63.9143 30.2902C63.9143 28.7582 63.3983 28.2382 61.8763 28.2382C53.8883 28.2382 45.901 28.2382 37.9143 28.2382C36.3363 28.2382 35.8423 28.7462 35.8423 30.3522C35.8423 35.5802 35.8423 40.8082 35.8423 46.0362C35.8423 46.3182 35.8723 46.6002 35.8903 46.9562H46.1583C47.5923 46.9562 47.8683 47.1442 48.4163 48.4902H51.3763C51.6283 47.1602 52.5563 46.9243 53.7583 46.9403C57.0983 46.9863 60.4403 46.9562 63.9163 46.9562M45.1343 50.0762H37.7983C36.6283 50.0762 35.4583 50.0502 34.2903 50.0902C34.086 50.0867 33.883 50.1244 33.6935 50.2009C33.504 50.2774 33.3318 50.3913 33.1872 50.5357C33.0426 50.6801 32.9285 50.8522 32.8517 51.0416C32.775 51.231 32.7371 51.4339 32.7403 51.6383C32.7424 52.0496 32.9069 52.4434 33.1979 52.7341C33.489 53.0247 33.883 53.1887 34.2943 53.1903C34.5203 53.2083 34.7483 53.1903 34.9763 53.1903H64.7983C65.0263 53.1903 65.2543 53.2023 65.4803 53.1903C65.8918 53.1882 66.2859 53.0237 66.5768 52.7328C66.8678 52.4418 67.0322 52.0478 67.0343 51.6363C67.039 51.4314 67.002 51.2278 66.9256 51.0377C66.8492 50.8476 66.7349 50.6751 66.5898 50.5305C66.4446 50.3859 66.2716 50.2723 66.0813 50.1967C65.8909 50.121 65.6871 50.0848 65.4823 50.0902C61.8823 50.0642 58.2823 50.0803 54.6303 50.0803C54.3703 51.3783 53.5003 51.6802 52.3203 51.6502C50.6983 51.5962 49.0703 51.5962 47.4483 51.6502C46.2703 51.6882 45.3963 51.3802 45.1443 50.0762" fill="white"/>
<path d="M49.8803 56.3202C44.8443 56.3202 39.809 56.3202 34.7743 56.3202C33.6777 56.4173 32.5817 56.1272 31.6768 55.5003C30.7718 54.8734 30.1151 53.9493 29.8206 52.8885C29.5261 51.8278 29.6125 50.6973 30.0648 49.6936C30.517 48.6899 31.3066 47.8764 32.2963 47.3942C32.4331 47.2621 32.541 47.1031 32.6132 46.9272C32.6855 46.7513 32.7206 46.5624 32.7163 46.3722C32.7423 41.0442 32.7323 35.7143 32.7343 30.3863C32.6509 29.6781 32.7284 28.9602 32.9609 28.2861C33.1934 27.612 33.575 26.9991 34.0773 26.4929C34.5796 25.9868 35.1896 25.6005 35.862 25.3628C36.5343 25.1252 37.2515 25.0422 37.9603 25.1202H61.8383C62.538 25.0471 63.2451 25.1308 63.9083 25.3653C64.5715 25.5998 65.1741 25.9793 65.6722 26.476C66.1703 26.9728 66.5514 27.5743 66.7877 28.2369C67.024 28.8995 67.1096 29.6064 67.0383 30.3063C67.0383 35.6683 67.0503 41.0283 67.0243 46.3903C66.9938 46.6393 67.0458 46.8914 67.1722 47.1081C67.2986 47.3249 67.4926 47.4942 67.7243 47.5902C68.632 48.0819 69.3471 48.8657 69.7537 49.8146C70.1603 50.7635 70.2345 51.8219 69.9643 52.8182C69.7118 53.8197 69.1318 54.7079 68.3164 55.3417C67.501 55.9756 66.4971 56.3186 65.4643 56.3162C60.2643 56.3382 55.0643 56.3162 49.8643 56.3162M63.9143 46.9562V46.0722C63.9143 40.8109 63.9143 35.5502 63.9143 30.2902C63.9143 28.7582 63.3983 28.2382 61.8763 28.2382C53.8883 28.2382 45.901 28.2382 37.9143 28.2382C36.3363 28.2382 35.8423 28.7462 35.8423 30.3522C35.8423 35.5802 35.8423 40.8082 35.8423 46.0362C35.8423 46.3182 35.8723 46.6002 35.8903 46.9562H46.1583C47.5923 46.9562 47.8683 47.1442 48.4163 48.4902H51.3763C51.6283 47.1602 52.5563 46.9243 53.7583 46.9403C57.0983 46.9863 60.4403 46.9562 63.9163 46.9562M45.1343 50.0762H37.7983C36.6283 50.0762 35.4583 50.0502 34.2903 50.0902C34.086 50.0867 33.883 50.1244 33.6935 50.2009C33.504 50.2774 33.3318 50.3913 33.1872 50.5357C33.0426 50.6801 32.9285 50.8522 32.8517 51.0416C32.775 51.231 32.7371 51.4339 32.7403 51.6383C32.7424 52.0496 32.9069 52.4434 33.1979 52.7341C33.489 53.0247 33.883 53.1887 34.2943 53.1903C34.5203 53.2083 34.7483 53.1903 34.9763 53.1903H64.7983C65.0263 53.1903 65.2543 53.2023 65.4803 53.1903C65.8918 53.1882 66.2859 53.0237 66.5768 52.7328C66.8678 52.4418 67.0322 52.0478 67.0343 51.6363C67.039 51.4314 67.002 51.2278 66.9256 51.0377C66.8492 50.8476 66.7349 50.6751 66.5898 50.5305C66.4446 50.3859 66.2716 50.2723 66.0813 50.1967C65.8909 50.121 65.6871 50.0848 65.4823 50.0902C61.8823 50.0642 58.2823 50.0803 54.6303 50.0803C54.3703 51.3783 53.5003 51.6802 52.3203 51.6502C50.6983 51.5962 49.0703 51.5962 47.4483 51.6502C46.2703 51.6882 45.3963 51.3802 45.1443 50.0762" stroke="black" stroke-width="1.2"/>
<path d="M3.09792 18.8834C3.09792 15.3434 3.09792 11.8034 3.09792 8.26143C3.05476 7.59299 3.15529 6.92306 3.39273 6.29673C3.63018 5.67039 3.99903 5.10219 4.47447 4.63035C4.94991 4.15851 5.5209 3.79398 6.14903 3.56131C6.77715 3.32863 7.44782 3.2332 8.11592 3.28143C14.1239 3.28143 20.1319 3.28143 26.1399 3.28143C26.8166 3.23123 27.4961 3.32819 28.1318 3.56567C28.7674 3.80314 29.344 4.17549 29.822 4.65709C30.3 5.13869 30.668 5.71812 30.9007 6.35552C31.1334 6.99292 31.2252 7.67315 31.1699 8.34943C31.1699 15.3654 31.1699 22.3814 31.1699 29.3974C31.2256 30.082 31.1311 30.7704 30.8931 31.4146C30.655 32.0588 30.2792 32.6433 29.7917 33.1271C29.3043 33.6109 28.7171 33.9824 28.0711 34.2157C27.4251 34.4489 26.736 34.5382 26.0519 34.4774C20.1092 34.4774 14.1659 34.4774 8.22192 34.4774C7.52957 34.5383 6.83233 34.4459 6.17974 34.2068C5.52715 33.9676 4.93524 33.5877 4.44609 33.094C3.95694 32.6003 3.58255 32.0048 3.34954 31.35C3.11653 30.6953 3.03062 29.9972 3.09792 29.3054C3.09792 25.8294 3.09792 22.3541 3.09792 18.8794M6.29792 21.9454H27.9919V15.7934H6.29592L6.29792 21.9454ZM6.21992 25.1574C6.21992 26.6494 6.21992 28.0714 6.21992 29.4914C6.23192 30.7714 6.78992 31.3374 8.05392 31.3534C9.25392 31.3674 10.4539 31.3534 11.6539 31.3534C16.4886 31.3534 21.3239 31.3534 26.1599 31.3534C27.2899 31.3534 27.9859 30.8694 28.0219 29.9334C28.0839 28.3574 28.0379 26.7754 28.0379 25.1574H6.21992ZM28.0479 12.5974C28.0479 10.9694 28.0839 9.41743 28.0339 7.86743C28.0306 7.66242 27.9851 7.46028 27.9001 7.27365C27.8152 7.08702 27.6927 6.91989 27.5404 6.78271C27.388 6.64552 27.2089 6.54121 27.0144 6.4763C26.8199 6.41139 26.6142 6.38727 26.4099 6.40543C25.1439 6.37743 23.8779 6.40543 22.6099 6.40543C17.7739 6.40543 12.9386 6.40543 8.10392 6.40543C7.01192 6.40543 6.30392 6.85343 6.26192 7.73343C6.18592 9.33343 6.23992 10.9554 6.23992 12.6034L28.0479 12.5974Z" fill="white"/>
<path d="M3.09792 18.8834C3.09792 15.3434 3.09792 11.8034 3.09792 8.26143C3.05476 7.59299 3.15529 6.92306 3.39273 6.29673C3.63018 5.67039 3.99903 5.10219 4.47447 4.63035C4.94991 4.15851 5.5209 3.79398 6.14903 3.56131C6.77715 3.32863 7.44782 3.2332 8.11592 3.28143C14.1239 3.28143 20.1319 3.28143 26.1399 3.28143C26.8166 3.23123 27.4961 3.32819 28.1318 3.56567C28.7674 3.80314 29.344 4.17549 29.822 4.65709C30.3 5.13869 30.668 5.71812 30.9007 6.35552C31.1334 6.99292 31.2252 7.67315 31.1699 8.34943C31.1699 15.3654 31.1699 22.3814 31.1699 29.3974C31.2256 30.082 31.1311 30.7704 30.8931 31.4146C30.655 32.0588 30.2792 32.6433 29.7917 33.1271C29.3043 33.6109 28.7171 33.9824 28.0711 34.2157C27.4251 34.4489 26.736 34.5382 26.0519 34.4774C20.1092 34.4774 14.1659 34.4774 8.22192 34.4774C7.52957 34.5383 6.83233 34.4459 6.17974 34.2068C5.52715 33.9676 4.93524 33.5877 4.44609 33.094C3.95694 32.6003 3.58255 32.0048 3.34954 31.35C3.11653 30.6953 3.03062 29.9972 3.09792 29.3054C3.09792 25.8294 3.09792 22.3541 3.09792 18.8794M6.29792 21.9454H27.9919V15.7934H6.29592L6.29792 21.9454ZM6.21992 25.1574C6.21992 26.6494 6.21992 28.0714 6.21992 29.4914C6.23192 30.7714 6.78992 31.3374 8.05392 31.3534C9.25392 31.3674 10.4539 31.3534 11.6539 31.3534C16.4886 31.3534 21.3239 31.3534 26.1599 31.3534C27.2899 31.3534 27.9859 30.8694 28.0219 29.9334C28.0839 28.3574 28.0379 26.7754 28.0379 25.1574H6.21992ZM28.0479 12.5974C28.0479 10.9694 28.0839 9.41743 28.0339 7.86743C28.0306 7.66242 27.9851 7.46028 27.9001 7.27365C27.8152 7.08702 27.6927 6.91989 27.5404 6.78271C27.388 6.64552 27.2089 6.54121 27.0144 6.4763C26.8199 6.41139 26.6142 6.38727 26.4099 6.40543C25.1439 6.37743 23.8779 6.40543 22.6099 6.40543C17.7739 6.40543 12.9386 6.40543 8.10392 6.40543C7.01192 6.40543 6.30392 6.85343 6.26192 7.73343C6.18592 9.33343 6.23992 10.9554 6.23992 12.6034L28.0479 12.5974Z" stroke="black" stroke-width="1.2"/>
<path d="M68.6082 18.8318C68.6082 15.3571 68.6082 11.8818 68.6082 8.40576C68.5459 7.72184 68.6338 7.03257 68.8659 6.38624C69.0981 5.73992 69.4687 5.15217 69.9519 4.66419C70.4352 4.17621 71.0193 3.7998 71.6633 3.56134C72.3073 3.32288 72.9957 3.22814 73.6801 3.28376C79.6561 3.28376 85.6322 3.28376 91.6082 3.28376C92.2932 3.22681 92.9823 3.3206 93.6271 3.55854C94.2719 3.79647 94.8568 4.17277 95.3407 4.66098C95.8245 5.14919 96.1955 5.73745 96.4276 6.38441C96.6597 7.03137 96.7473 7.72133 96.6842 8.40576C96.6842 15.3884 96.6842 22.3718 96.6842 29.3558C96.7464 30.0483 96.6549 30.7461 96.4165 31.3993C96.178 32.0524 95.7984 32.6449 95.3046 33.1345C94.8108 33.6241 94.215 33.9987 93.5598 34.2316C92.9047 34.4644 92.2062 34.5499 91.5142 34.4818C85.6035 34.4818 79.6928 34.4818 73.7821 34.4818C73.0818 34.5495 72.3751 34.4606 71.7134 34.2214C71.0517 33.9821 70.4515 33.5987 69.9563 33.0987C69.4612 32.5988 69.0835 31.9949 68.8507 31.3309C68.6178 30.6669 68.5356 29.9594 68.6101 29.2598C68.6101 25.7851 68.6101 22.3098 68.6101 18.8338M71.8102 21.9378H93.4901V15.7798H71.8102V21.9378ZM93.5622 25.1858H71.7282C71.7282 26.6398 71.7282 28.0298 71.7282 29.4198C71.7282 30.8098 72.2802 31.3538 73.6822 31.3598C75.8242 31.3598 77.9662 31.3598 80.1082 31.3598C83.9749 31.3598 87.8362 31.3598 91.6922 31.3598C92.8922 31.3598 93.5282 30.8138 93.5522 29.7258C93.5862 28.2378 93.5522 26.7478 93.5522 25.1858M71.7182 12.5858H93.5542C93.5542 11.0998 93.5662 9.67576 93.5542 8.25176C93.5422 6.98576 92.9742 6.42176 91.6982 6.41376C89.7502 6.40176 87.8042 6.41376 85.8562 6.41376C81.7682 6.41376 77.6782 6.41376 73.5882 6.41376C72.3042 6.41376 71.7362 6.97776 71.7242 8.24176C71.7102 9.66576 71.7242 11.0898 71.7242 12.5838" fill="white"/>
<path d="M68.6082 18.8318C68.6082 15.3571 68.6082 11.8818 68.6082 8.40576C68.5459 7.72184 68.6338 7.03257 68.8659 6.38624C69.0981 5.73992 69.4687 5.15217 69.9519 4.66419C70.4352 4.17621 71.0193 3.7998 71.6633 3.56134C72.3073 3.32288 72.9957 3.22814 73.6801 3.28376C79.6561 3.28376 85.6322 3.28376 91.6082 3.28376C92.2932 3.22681 92.9823 3.3206 93.6271 3.55854C94.2719 3.79647 94.8568 4.17277 95.3407 4.66098C95.8245 5.14919 96.1955 5.73745 96.4276 6.38441C96.6597 7.03137 96.7473 7.72133 96.6842 8.40576C96.6842 15.3884 96.6842 22.3718 96.6842 29.3558C96.7464 30.0483 96.6549 30.7461 96.4165 31.3993C96.178 32.0524 95.7984 32.6449 95.3046 33.1345C94.8108 33.6241 94.215 33.9987 93.5598 34.2316C92.9047 34.4644 92.2062 34.5499 91.5142 34.4818C85.6035 34.4818 79.6928 34.4818 73.7821 34.4818C73.0818 34.5495 72.3751 34.4606 71.7134 34.2214C71.0517 33.9821 70.4515 33.5987 69.9563 33.0987C69.4612 32.5988 69.0835 31.9949 68.8507 31.3309C68.6178 30.6669 68.5356 29.9594 68.6101 29.2598C68.6101 25.7851 68.6101 22.3098 68.6101 18.8338M93.5622 25.1858H71.7282C71.7282 26.6398 71.7282 28.0298 71.7282 29.4198C71.7282 30.8098 72.2802 31.3538 73.6822 31.3598C75.8242 31.3598 77.9662 31.3598 80.1082 31.3598C83.9749 31.3598 87.8362 31.3598 91.6922 31.3598C92.8922 31.3598 93.5282 30.8138 93.5522 29.7258C93.5862 28.2378 93.5522 26.7478 93.5522 25.1858M71.7182 12.5858H93.5542C93.5542 11.0998 93.5662 9.67576 93.5542 8.25176C93.5422 6.98576 92.9742 6.42176 91.6982 6.41376C89.7502 6.40176 87.8042 6.41376 85.8562 6.41376C81.7682 6.41376 77.6782 6.41376 73.5882 6.41376C72.3042 6.41376 71.7362 6.97776 71.7242 8.24176C71.7102 9.66576 71.7242 11.0898 71.7242 12.5838M71.8102 21.9378H93.4901V15.7798H71.8102V21.9378Z" stroke="black" stroke-width="1.2"/>
<path d="M11.9559 55.1615L9.83991 57.3335C7.68791 55.2155 5.55391 53.1335 3.45391 51.0195C3.22958 50.7427 3.10992 50.3957 3.11591 50.0395C3.09791 45.9795 3.11591 41.9215 3.11591 37.8615C3.11591 37.8055 3.16391 37.7495 3.20791 37.6475H6.20791V38.6755C6.20791 41.5975 6.28591 44.5235 6.17391 47.4435C6.11238 48.093 6.21237 48.7477 6.465 49.3493C6.71763 49.9508 7.11506 50.4806 7.62191 50.8915C9.12991 52.2135 10.4879 53.7075 11.9439 55.1615" fill="white"/>
<path d="M11.9559 55.1615L9.83991 57.3335C7.68791 55.2155 5.55391 53.1335 3.45391 51.0195C3.22958 50.7427 3.10992 50.3957 3.11591 50.0395C3.09791 45.9795 3.11591 41.9215 3.11591 37.8615C3.11591 37.8055 3.16391 37.7495 3.20791 37.6475H6.20791V38.6755C6.20791 41.5975 6.28591 44.5235 6.17391 47.4435C6.11238 48.093 6.21237 48.7477 6.465 49.3493C6.71763 49.9508 7.11506 50.4806 7.62191 50.8915C9.12991 52.2135 10.4879 53.7075 11.9439 55.1615" stroke="black" stroke-width="1.2"/>
<path d="M93.5659 37.6475H96.6859V40.1015C96.6859 43.2515 96.6699 46.4015 96.6979 49.5515C96.7186 49.923 96.6577 50.2946 96.5195 50.6401C96.3813 50.9856 96.1691 51.2966 95.8979 51.5515C93.9299 53.4775 91.9959 55.4375 90.0199 57.4115L87.8359 55.1534C88.9155 53.9721 90.0607 52.8523 91.2659 51.7995C92.1321 51.1659 92.8094 50.3083 93.2252 49.3189C93.641 48.3295 93.7795 47.2456 93.6259 46.1834C93.4019 43.3834 93.5739 40.5495 93.5739 37.6575" fill="white"/>
<path d="M93.5659 37.6475H96.6859V40.1015C96.6859 43.2515 96.6699 46.4015 96.6979 49.5515C96.7186 49.923 96.6577 50.2946 96.5195 50.6401C96.3813 50.9856 96.1691 51.2966 95.8979 51.5515C93.9299 53.4775 91.9959 55.4375 90.0199 57.4115L87.8359 55.1534C88.9155 53.9721 90.0607 52.8523 91.2659 51.7995C92.1321 51.1659 92.8094 50.3083 93.2252 49.3189C93.641 48.3295 93.7795 47.2456 93.6259 46.1834C93.4019 43.3834 93.5739 40.5495 93.5739 37.6575" stroke="black" stroke-width="1.2"/>
<path d="M15.624 37.6201H18.692V38.5621C18.692 40.8021 18.678 43.0441 18.692 45.2841C18.6735 45.9195 18.785 46.552 19.0197 47.1427C19.2543 47.7334 19.6072 48.27 20.0567 48.7195C20.5061 49.1689 21.0427 49.5218 21.6335 49.7565C22.2242 49.9912 22.8566 50.1026 23.492 50.0841C24.458 50.0961 25.422 50.0841 26.434 50.0841C26.434 51.1401 26.434 52.1021 26.434 53.0641C21.62 53.7721 17.496 52.4401 15.894 47.5881C15.7432 47.1934 15.6535 46.7779 15.628 46.3561C15.624 43.4701 15.624 40.5881 15.624 37.6201Z" fill="white" stroke="black" stroke-width="1.2"/>
<path d="M81.088 37.6456H84.042C84.1812 40.728 84.1585 43.8156 83.974 46.8956C83.7175 48.5852 82.8831 50.1337 81.6129 51.277C80.3426 52.4203 78.7152 53.0878 77.008 53.1656C75.808 53.2456 74.608 53.1776 73.354 53.1776V50.0796C73.78 50.0796 74.194 50.0476 74.602 50.0796C79.15 50.4796 81.452 48.3016 81.11 43.5396C80.97 41.6076 81.086 39.6556 81.086 37.6416" fill="white"/>
<path d="M81.088 37.6456H84.042C84.1812 40.728 84.1585 43.8156 83.974 46.8956C83.7175 48.5852 82.8831 50.1337 81.6129 51.277C80.3426 52.4203 78.7152 53.0878 77.008 53.1656C75.808 53.2456 74.608 53.1776 73.354 53.1776V50.0796C73.78 50.0796 74.194 50.0476 74.602 50.0796C79.15 50.4796 81.452 48.3016 81.11 43.5396C80.97 41.6076 81.086 39.6556 81.086 37.6416" stroke="black" stroke-width="1.2"/>
<path d="M42.044 84.4521H12.498V87.4501H42.044V84.4521Z" fill="white" stroke="black" stroke-width="1.2"/>
<path d="M87.282 84.4678H57.77V87.4698H87.282V84.4678Z" fill="white" stroke="black" stroke-width="1.2"/>
<path d="M45.2183 85.9519C45.2195 85.0254 45.4961 84.1203 46.0128 83.3513C46.5295 82.5823 47.2631 81.9842 48.1205 81.633C48.9778 81.2818 49.9201 81.1933 50.8278 81.3788C51.7355 81.5642 52.5677 82.0153 53.2185 82.6746C53.8694 83.3339 54.3097 84.1717 54.4834 85.0818C54.6571 85.9918 54.5564 86.933 54.1942 87.7857C53.832 88.6384 53.2245 89.3642 52.4489 89.871C51.6733 90.3777 50.7647 90.6426 49.8383 90.6319C48.6088 90.612 47.4362 90.1107 46.5723 89.2356C45.7084 88.3605 45.2223 87.1815 45.2183 85.9519ZM51.4443 85.9519C51.4446 85.6435 51.3532 85.342 51.1817 85.0857C51.0102 84.8295 50.7663 84.63 50.4811 84.5127C50.1959 84.3955 49.8823 84.3657 49.5801 84.4273C49.278 84.4888 49.0009 84.6389 48.7843 84.8584C48.5677 85.0778 48.4212 85.3568 48.3636 85.6597C48.306 85.9626 48.3398 86.2758 48.4608 86.5595C48.5817 86.8432 48.7843 87.0844 49.0428 87.2526C49.3013 87.4208 49.6039 87.5083 49.9123 87.5039C50.3189 87.4941 50.7059 87.3268 50.9917 87.0373C51.2775 86.7478 51.4397 86.3587 51.4443 85.9519Z" fill="white" stroke="black" stroke-width="1.2"/>
<path d="M60.764 32.9854H45.29V35.9894H60.764V32.9854Z" fill="white" stroke="black" stroke-width="1.2"/>
<path d="M60.764 39.2275H45.29V42.2315H60.764V39.2275Z" fill="white" stroke="black" stroke-width="1.2"/>
<path d="M42.0183 32.9678H39.0303V35.9738H42.0183V32.9678Z" fill="white" stroke="black" stroke-width="1.2"/>
<path d="M42.0099 39.2256H39.0459V42.2596H42.0099V39.2256Z" fill="white" stroke="black" stroke-width="1.2"/>
<path d="M12.4083 17.3779H9.40234V20.3659H12.4083V17.3779Z" fill="white" stroke="black" stroke-width="1.2"/>
<path d="M12.384 26.7598H9.35596V29.7378H12.384V26.7598Z" fill="white" stroke="black" stroke-width="1.2"/>
<path d="M12.3982 8.02539H9.41016V11.0314H12.3982V8.02539Z" fill="white" stroke="black" stroke-width="1.2"/>
<path d="M77.916 17.3799H74.918V20.3959H77.916V17.3799Z" fill="white" stroke="black" stroke-width="1.2"/>
<path d="M77.8882 26.7002H74.9102V29.7302H77.8882V26.7002Z" fill="white" stroke="black" stroke-width="1.2"/>
<path d="M77.8902 8.01172H74.9082V11.0457H77.8902V8.01172Z" fill="white" stroke="black" stroke-width="1.2"/>
</g>
</g>
<defs>
<clipPath id="clip0_1116_342">
<rect width="100" height="100" fill="white"/>
</clipPath>
</defs>
</svg>
