<svg width="50" height="50" fill="none" xmlns="http://www.w3.org/2000/svg"><path fill-rule="evenodd" clip-rule="evenodd" d="M19.573 5a3 3 0 00-2.965 2.544l-.546 3.544c.304-.058.617-.088.937-.088h16c.32 0 .633.03.937.088l-.546-3.544A3 3 0 0030.425 5H19.573zm14.363 32.912a5.027 5.027 0 01-.937.088h-16c-.32 0-.633-.03-.936-.088l.545 3.544A3 3 0 0019.573 44h10.852a3 3 0 002.965-2.544l.546-3.544z" fill="#2E2E2E"/><path fill-rule="evenodd" clip-rule="evenodd" d="M17 11a5 5 0 00-5 5v17a5 5 0 005 5h16a5 5 0 005-5V16a5 5 0 00-5-5H17zm1 3a3 3 0 00-3 3v15a3 3 0 003 3h14a3 3 0 003-3V17a3 3 0 00-3-3H18z" fill="#2E2E2E"/></svg>