<svg width="100" height="100" viewBox="0 0 100 100" fill="none" xmlns="http://www.w3.org/2000/svg">
<g clip-path="url(#clip0_1066_2221)">
<path d="M4 24.3553H6.85V25.5453C6.85 46.3 6.85 67.0547 6.85 87.8093C6.85 91.1403 8.485 92.7653 11.836 92.7653H87.373C90.722 92.7653 92.364 91.1373 92.364 87.8143C92.364 65.1297 92.364 42.445 92.364 19.7603V18.6893H51.087V15.8243H92.237C92.3417 14.072 92.3254 12.3145 92.188 10.5643C91.888 8.48234 90.093 7.25634 87.853 7.25434C79.2423 7.24968 70.6317 7.24968 62.021 7.25434H53.883V4.40234H89.157C89.348 4.46634 89.536 4.54234 89.73 4.59334C90.8123 4.84803 91.8195 5.35412 92.6697 6.07062C93.52 6.78711 94.1895 7.69385 94.624 8.71734C94.874 9.27434 95.024 9.87734 95.215 10.4593V89.5593C95.15 89.7493 95.074 89.9363 95.023 90.1303C94.7846 91.1551 94.3186 92.1131 93.6596 92.9333C93.0006 93.7535 92.1654 94.4149 91.216 94.8683C90.5445 95.1559 89.8574 95.4056 89.158 95.6163H10.057C9.867 95.5513 9.68 95.4753 9.486 95.4243C8.46157 95.1851 7.50392 94.719 6.68371 94.0602C5.86349 93.4015 5.20165 92.567 4.747 91.6183C4.4594 90.9466 4.21001 90.2592 4 89.5593L4 24.3593" fill="#141414"/>
<path d="M4 24.3553H6.85V25.5453C6.85 46.3 6.85 67.0547 6.85 87.8093C6.85 91.1403 8.485 92.7653 11.836 92.7653H87.373C90.722 92.7653 92.364 91.1373 92.364 87.8143C92.364 65.1297 92.364 42.445 92.364 19.7603V18.6893H51.087V15.8243H92.237C92.3417 14.072 92.3254 12.3145 92.188 10.5643C91.888 8.48234 90.093 7.25634 87.853 7.25434C79.2423 7.24968 70.6317 7.24968 62.021 7.25434H53.883V4.40234H89.157C89.348 4.46634 89.536 4.54234 89.73 4.59334C90.8123 4.84803 91.8195 5.35412 92.6697 6.07062C93.52 6.78711 94.1895 7.69385 94.624 8.71734C94.874 9.27434 95.024 9.87734 95.215 10.4593V89.5593C95.15 89.7493 95.074 89.9363 95.023 90.1303C94.7846 91.1551 94.3186 92.1131 93.6596 92.9333C93.0006 93.7535 92.1654 94.4149 91.216 94.8683C90.5445 95.1559 89.8574 95.4056 89.158 95.6163H10.057C9.867 95.5513 9.68 95.4753 9.486 95.4243C8.46157 95.1851 7.50392 94.719 6.68371 94.0602C5.86349 93.4015 5.20165 92.567 4.747 91.6183C4.4594 90.9466 4.21001 90.2592 4 89.5593L4 24.3593" stroke="#F5F5F5" stroke-width="1.5"/>
<path d="M39.63 4.40234C39.649 4.42534 39.664 4.46034 39.688 4.46834C43.922 5.91634 45.331 7.88934 45.331 12.3683V15.7573H48.121V18.6463H6.872V21.5023H4V10.4593C4.064 10.2683 4.14 10.0803 4.191 9.88634C4.43013 8.86146 4.8966 7.90344 5.55592 7.08315C6.21523 6.26286 7.05052 5.60128 8 5.14734C8.67061 4.85927 9.35745 4.61051 10.057 4.40234L39.63 4.40234ZM42.478 15.7623C42.478 14.1463 42.514 12.6323 42.469 11.1213C42.4286 10.102 42.0028 9.13597 41.2775 8.41852C40.5523 7.70107 39.5817 7.2857 38.562 7.25634C37.969 7.23734 37.375 7.25634 36.782 7.25634C28.2973 7.25634 19.8127 7.25634 11.328 7.25634C9.298 7.25634 7.483 8.33834 7.128 10.1643C6.87986 12.0207 6.75625 13.8915 6.758 15.7643L42.478 15.7623Z" fill="#141414" stroke="#F5F5F5" stroke-width="1.5"/>
<path d="M51.0316 4.40234H48.1816V7.19234H51.0316V4.40234Z" fill="#141414" stroke="#F5F5F5" stroke-width="1.5"/>
<path d="M39.626 21.5039H66.085C67.721 21.5039 68.134 21.9169 68.135 23.5519C68.135 32.6372 68.135 41.7226 68.135 50.8079C68.135 52.4419 67.719 52.8569 66.085 52.8569H13.174C11.539 52.8569 11.126 52.4439 11.126 50.8069C11.126 41.7216 11.126 32.6359 11.126 23.5499C11.126 21.9139 11.537 21.5039 13.175 21.5039H39.626ZM36.584 37.1819L14.026 25.3039V49.0629L36.584 37.1819ZM65.238 49.0469V25.3189L42.706 37.1829L65.238 49.0469ZM18.538 24.4039C18.757 24.5539 18.838 24.6279 18.938 24.6789C25.652 28.2122 32.3633 31.7499 39.072 35.2919C39.2746 35.4025 39.5046 35.4529 39.735 35.4372C39.9653 35.4214 40.1863 35.3401 40.372 35.2029C45.0626 32.7256 49.755 30.2512 54.449 27.7799L60.849 24.4039H18.538ZM18.709 49.8269L18.753 49.9579H60.719C60.519 49.8139 60.43 49.7389 60.333 49.6869C53.6163 46.1496 46.8946 42.6219 40.168 39.1039C39.9767 39.0322 39.7728 39.0005 39.5687 39.0108C39.3647 39.0211 39.165 39.0733 38.982 39.1639C33.696 41.9159 28.426 44.7039 23.154 47.4789C21.672 48.2596 20.1906 49.0409 18.71 49.8229" fill="url(#paint0_linear_1066_2221)"/>
<path d="M18.709 49.8269L18.753 49.9579H60.719C60.519 49.8139 60.43 49.7389 60.333 49.6869C53.6163 46.1496 46.8946 42.6219 40.168 39.1039C39.9767 39.0322 39.7728 39.0005 39.5687 39.0108C39.3647 39.0211 39.165 39.0733 38.982 39.1639C33.696 41.9159 28.426 44.7039 23.154 47.4789C21.672 48.2596 20.1906 49.0409 18.71 49.8229M39.626 21.5039H66.085C67.721 21.5039 68.134 21.9169 68.135 23.5519C68.135 32.6372 68.135 41.7226 68.135 50.8079C68.135 52.4419 67.719 52.8569 66.085 52.8569H13.174C11.539 52.8569 11.126 52.4439 11.126 50.8069C11.126 41.7216 11.126 32.6359 11.126 23.5499C11.126 21.9139 11.537 21.5039 13.175 21.5039H39.626ZM36.584 37.1819L14.026 25.3039V49.0629L36.584 37.1819ZM65.238 49.0469V25.3189L42.706 37.1829L65.238 49.0469ZM18.538 24.4039C18.757 24.5539 18.838 24.6279 18.938 24.6789C25.652 28.2122 32.3633 31.7499 39.072 35.2919C39.2746 35.4025 39.5046 35.4529 39.735 35.4372C39.9653 35.4214 40.1863 35.3401 40.372 35.2029C45.0626 32.7256 49.755 30.2512 54.449 27.7799L60.849 24.4039H18.538Z" stroke="#F5F5F5" stroke-width="1.5"/>
<path d="M11.127 72.811C11.127 67.7637 11.127 62.7163 11.127 57.669C11.127 56.151 11.568 55.71 13.085 55.709C22.2296 55.709 31.3743 55.709 40.519 55.709C42.035 55.709 42.48 56.152 42.48 57.667C42.48 67.7616 42.48 77.8566 42.48 87.952C42.48 89.467 42.034 89.913 40.521 89.914C31.3763 89.914 22.2316 89.914 13.087 89.914C11.571 89.914 11.128 89.47 11.127 87.955C11.127 82.9077 11.127 77.8603 11.127 72.813M39.582 58.621H14.059V76.452C16.045 74.452 17.902 72.577 19.767 70.709C20.773 69.701 21.415 69.696 22.411 70.677C23.151 71.406 23.882 72.144 24.611 72.877C25.799 74.068 26.986 75.259 28.146 76.422C28.2367 76.391 28.3236 76.3497 28.405 76.299C29.9196 74.7923 31.4326 73.284 32.944 71.774C35.353 69.367 35.355 69.364 37.73 71.746C38.307 72.324 38.866 72.92 39.577 73.656L39.582 58.621ZM13.982 86.99H39.627C39.627 83.969 39.627 80.977 39.627 77.99C39.6346 77.8446 39.5914 77.7011 39.505 77.584C38.133 76.204 36.749 74.835 35.529 73.624L30.344 78.824L33.276 81.647L31.357 83.754L21.127 73.516C21.053 73.543 20.984 73.546 20.947 73.583C18.719 75.803 16.487 78.021 14.278 80.26C14.0942 80.4785 13.9927 80.7545 13.991 81.04C13.967 82.998 13.978 84.957 13.978 86.99" fill="#141414"/>
<path d="M11.127 72.811C11.127 67.7637 11.127 62.7163 11.127 57.669C11.127 56.151 11.568 55.71 13.085 55.709C22.2296 55.709 31.3743 55.709 40.519 55.709C42.035 55.709 42.48 56.152 42.48 57.667C42.48 67.7616 42.48 77.8566 42.48 87.952C42.48 89.467 42.034 89.913 40.521 89.914C31.3763 89.914 22.2316 89.914 13.087 89.914C11.571 89.914 11.128 89.47 11.127 87.955C11.127 82.9077 11.127 77.8603 11.127 72.813M13.982 86.99H39.627C39.627 83.969 39.627 80.977 39.627 77.99C39.6346 77.8446 39.5914 77.7011 39.505 77.584C38.133 76.204 36.749 74.835 35.529 73.624L30.344 78.824L33.276 81.647L31.357 83.754L21.127 73.516C21.053 73.543 20.984 73.546 20.947 73.583C18.719 75.803 16.487 78.021 14.278 80.26C14.0942 80.4785 13.9927 80.7545 13.991 81.04C13.967 82.998 13.978 84.957 13.978 86.99M39.582 58.621H14.059V76.452C16.045 74.452 17.902 72.577 19.767 70.709C20.773 69.701 21.415 69.696 22.411 70.677C23.151 71.406 23.882 72.144 24.611 72.877C25.799 74.068 26.986 75.259 28.146 76.422C28.2367 76.391 28.3236 76.3497 28.405 76.299C29.9196 74.7923 31.4326 73.284 32.944 71.774C35.353 69.367 35.355 69.364 37.73 71.746C38.307 72.324 38.866 72.92 39.577 73.656L39.582 58.621Z" stroke="#F5F5F5" stroke-width="1.5"/>
<path d="M89.5124 37.2389C89.5124 41.8109 89.5124 46.3832 89.5124 50.9559C89.5124 52.4009 89.0474 52.8559 87.5844 52.8559C82.6857 52.8559 77.7857 52.8559 72.8844 52.8559C71.4394 52.8559 70.9844 52.3919 70.9844 50.9269C70.9844 41.7522 70.9844 32.5779 70.9844 23.4039C70.9844 21.9559 71.4444 21.5039 72.9104 21.5039C77.809 21.5039 82.709 21.5039 87.6104 21.5039C89.0574 21.5039 89.5104 21.9659 89.5104 23.4309C89.5104 28.0309 89.5104 32.6329 89.5104 37.2369M73.8764 49.9479H86.5954V24.3989H73.8774L73.8764 49.9479Z" fill="#141414"/>
<path d="M89.5124 37.2389C89.5124 41.8109 89.5124 46.3832 89.5124 50.9559C89.5124 52.4009 89.0474 52.8559 87.5844 52.8559C82.6857 52.8559 77.7857 52.8559 72.8844 52.8559C71.4394 52.8559 70.9844 52.3919 70.9844 50.9269C70.9844 41.7522 70.9844 32.5779 70.9844 23.4039C70.9844 21.9559 71.4444 21.5039 72.9104 21.5039C77.809 21.5039 82.709 21.5039 87.6104 21.5039C89.0574 21.5039 89.5104 21.9659 89.5104 23.4309C89.5104 28.0309 89.5104 32.6329 89.5104 37.2369M73.8764 49.9479H86.5954V24.3989H73.8774L73.8764 49.9479Z" stroke="#F5F5F5" stroke-width="1.5"/>
<path d="M89.4733 68.5977H45.4053V71.3397H89.4733V68.5977Z" fill="#141414" stroke="#F5F5F5" stroke-width="1.5"/>
<path d="M89.4701 74.2852H45.3701V77.0232H89.4701V74.2852Z" fill="#141414" stroke="#F5F5F5" stroke-width="1.5"/>
<path d="M83.7391 79.9844H45.3721V82.7284H83.7391V79.9844Z" fill="#141414" stroke="#F5F5F5" stroke-width="1.5"/>
<path d="M89.4711 62.8965H53.9541V65.6415H89.4711V62.8965Z" fill="#141414" stroke="#F5F5F5" stroke-width="1.5"/>
<path d="M78.0455 10.1445H75.3105V12.8945H78.0455V10.1445Z" fill="#141414" stroke="#F5F5F5" stroke-width="1.5"/>
<path d="M83.7549 10.168H81.0039V12.903H83.7549V10.168Z" fill="#141414" stroke="#F5F5F5" stroke-width="1.5"/>
<path d="M89.453 10.1699H86.707V12.8999H89.453V10.1699Z" fill="#141414" stroke="#F5F5F5" stroke-width="1.5"/>
<path d="M50.9674 62.8789H48.2324V65.6289H50.9674V62.8789Z" fill="#141414" stroke="#F5F5F5" stroke-width="1.5"/>
<path d="M33.8591 10.1465H9.74414V12.8925H33.8591V10.1465Z" fill="#141414" stroke="#F5F5F5" stroke-width="1.5"/>
<path d="M39.5641 10.1445H36.8301V12.9165H39.5641V10.1445Z" fill="#141414" stroke="#F5F5F5" stroke-width="1.5"/>
<path d="M36.7386 61.4727H22.5996V64.2167H36.7386V61.4727Z" fill="#141414" stroke="#F5F5F5" stroke-width="1.5"/>
<path d="M19.6045 61.4707H16.8965V64.2427H19.6045V61.4707Z" fill="#141414" stroke="#F5F5F5" stroke-width="1.5"/>
</g>
<defs>
<linearGradient id="paint0_linear_1066_2221" x1="33.5484" y1="67.511" x2="65.0781" y2="21.1904" gradientUnits="userSpaceOnUse">
<stop stop-color="#9358F7"/>
<stop offset="0.259732" stop-color="#7B78F2"/>
<stop offset="0.500607" stop-color="#6197EE"/>
<stop offset="0.766547" stop-color="#45B5E9"/>
<stop offset="1" stop-color="#10D7E2"/>
</linearGradient>
<clipPath id="clip0_1066_2221">
<rect width="100" height="100" fill="white"/>
</clipPath>
</defs>
</svg>
