<svg width="60" height="60" viewBox="0 0 60 60" fill="none" xmlns="http://www.w3.org/2000/svg">
<path d="M48.2131 30C48.2131 40.5105 39.8499 49 29.5714 49C19.2928 49 10.9297 40.5105 10.9297 30C10.9297 19.4895 19.2928 11 29.5714 11C39.8499 11 48.2131 19.4895 48.2131 30Z" stroke="#2E2E2E" stroke-width="2"/>
<path d="M35.3636 15.2252L37.4815 12.9986C39.2346 13.8319 40.8396 14.9342 42.2443 16.2536L37.0188 21.7493L35.3636 20.0091V15.2252ZM31.7083 38.1585H36.0189V42.3421L33.6391 44.8441L33.6383 44.8449L29.6948 48.9997C29.6537 49 29.6127 49.0002 29.5716 49.0002C28.8372 49.0002 28.1126 48.9548 27.3977 48.8673V45.5333V45.1337L27.1223 44.8441L22.0871 39.5504V32.5752H28.6241L30.7083 34.7665V37.1585V38.1585H31.7083ZM14.7764 25.992V30.5752H10.9589C10.9443 30.3 10.9346 30.0229 10.9298 29.7444C11.077 21.883 15.9634 15.2021 22.8061 12.5014L23.0191 12.7245L23.3145 13.0339H23.7424H28.053V17.2175L20.6581 24.992H15.7764H14.7764V25.992ZM40.6743 29.1832L45.4138 24.2004H47.2866C47.8517 25.9404 48.1742 27.793 48.2129 29.7177C48.1653 31.9858 47.6894 34.1145 46.9487 36.1585H42.7585L40.6743 33.9672V29.1832Z" stroke="#2E2E2E" stroke-width="2"/>
</svg>
