<svg width="100" height="100" viewBox="0 0 100 100" fill="none" xmlns="http://www.w3.org/2000/svg">
<g clip-path="url(#clip0_1066_2194)">
<path d="M58.5771 95.3195C57.9546 95.1436 57.3432 94.9305 56.7461 94.6815C55.4614 94.1376 54.3709 93.2182 53.6177 92.0439C52.8645 90.8696 52.4837 89.495 52.5251 88.1005C52.4881 81.1765 52.5131 74.2515 52.5131 67.3265C52.5131 55.4385 52.5131 43.5505 52.5131 31.6625C52.5131 26.9625 55.4951 23.9795 60.1931 23.9785C69.2878 23.9785 78.3821 23.9785 87.4761 23.9785C91.6831 23.9785 94.1061 25.8365 95.2141 29.9025C95.2281 29.9545 95.2821 29.9955 95.3141 30.0425V89.2565C95.2491 89.4465 95.1721 89.6345 95.1211 89.8285C94.8827 90.8546 94.4163 91.8138 93.7566 92.6351C93.0968 93.4563 92.2607 94.1185 91.3101 94.5725C90.6377 94.8605 89.9496 95.1105 89.2491 95.3215L58.5771 95.3195ZM55.4081 83.8435H92.3951V61.1205H55.4081V83.8435ZM85.2161 34.0085C85.1541 34.2245 85.1061 34.3965 85.0561 34.5665C84.2561 37.3415 83.0561 38.2445 80.1841 38.2445C75.8761 38.2445 71.5681 38.2445 67.2601 38.2445C66.3015 38.3418 65.3401 38.0886 64.5538 37.5318C63.7675 36.9749 63.2096 36.1521 62.9831 35.2155C62.8461 34.8265 62.7351 34.4285 62.6071 34.0155H55.4301V58.1495H92.4231V34.0085H85.2161ZM55.4031 31.1085H56.1761C58.6128 31.1085 61.0498 31.1085 63.4871 31.1085C64.8141 31.1085 65.2461 31.5085 65.3701 32.8085C65.4051 33.1931 65.469 33.5745 65.5611 33.9495C65.8551 35.1135 66.2241 35.3895 67.4321 35.3905H79.8241C81.8101 35.3905 82.1591 35.0905 82.4341 33.1115C82.4631 32.9065 82.4561 32.6955 82.4811 32.4895C82.4869 32.3029 82.5296 32.1192 82.6066 31.9491C82.6836 31.779 82.7935 31.6258 82.9299 31.4983C83.0663 31.3708 83.2266 31.2715 83.4015 31.2062C83.5764 31.1408 83.7625 31.1107 83.9491 31.1175C84.5121 31.0915 85.0781 31.1105 85.6431 31.1105H92.4001C92.4141 30.5478 92.3141 29.9881 92.106 29.465C91.8979 28.942 91.5862 28.4665 91.1894 28.0672C90.7927 27.6679 90.3193 27.353 89.7976 27.1414C89.276 26.9299 88.7169 26.8262 88.1541 26.8365C83.7261 26.8145 79.2981 26.8295 74.8701 26.8295C69.8181 26.8295 64.7701 26.8175 59.7141 26.8355C59.1476 26.8231 58.5845 26.9249 58.0582 27.1349C57.5319 27.3449 57.0533 27.6588 56.651 28.0577C56.2487 28.4567 55.9308 28.9327 55.7164 29.4571C55.502 29.9816 55.3955 30.544 55.4031 31.1105M55.4451 86.7895C54.8451 90.5435 57.3771 92.5465 60.4061 92.5075C69.5211 92.3905 78.6381 92.4675 87.7551 92.4645C91.0421 92.4645 92.9971 90.0585 92.3481 86.7895H55.4451Z" fill="url(#paint0_linear_1066_2194)"/>
<path d="M55.4031 31.1085H56.1761C58.6128 31.1085 61.0498 31.1085 63.4871 31.1085C64.8141 31.1085 65.2461 31.5085 65.3701 32.8085C65.4051 33.1931 65.469 33.5745 65.5611 33.9495C65.8551 35.1135 66.2241 35.3895 67.4321 35.3905H79.8241C81.8101 35.3905 82.1591 35.0905 82.4341 33.1115C82.4631 32.9065 82.4561 32.6955 82.4811 32.4895C82.4869 32.3029 82.5296 32.1192 82.6066 31.9491C82.6836 31.779 82.7935 31.6258 82.9299 31.4983C83.0663 31.3708 83.2266 31.2715 83.4015 31.2062C83.5764 31.1408 83.7625 31.1107 83.9491 31.1175C84.5121 31.0915 85.0781 31.1105 85.6431 31.1105H92.4001C92.4141 30.5478 92.3141 29.9881 92.106 29.465C91.8979 28.942 91.5862 28.4665 91.1894 28.0672C90.7927 27.6679 90.3193 27.353 89.7976 27.1414C89.276 26.9299 88.7169 26.8262 88.1541 26.8365C83.7261 26.8145 79.2981 26.8295 74.8701 26.8295C69.8181 26.8295 64.7701 26.8175 59.7141 26.8355C59.1476 26.8231 58.5845 26.9249 58.0582 27.1349C57.5319 27.3449 57.0533 27.6588 56.651 28.0577C56.2487 28.4567 55.9308 28.9327 55.7164 29.4571C55.502 29.9816 55.3955 30.544 55.4031 31.1105M58.5771 95.3195C57.9546 95.1436 57.3432 94.9305 56.7461 94.6815C55.4614 94.1376 54.3709 93.2182 53.6177 92.0439C52.8645 90.8696 52.4837 89.495 52.5251 88.1005C52.4881 81.1765 52.5131 74.2515 52.5131 67.3265C52.5131 55.4385 52.5131 43.5505 52.5131 31.6625C52.5131 26.9625 55.4951 23.9795 60.1931 23.9785C69.2878 23.9785 78.3821 23.9785 87.4761 23.9785C91.6831 23.9785 94.1061 25.8365 95.2141 29.9025C95.2281 29.9545 95.2821 29.9955 95.3141 30.0425V89.2565C95.2491 89.4465 95.1721 89.6345 95.1211 89.8285C94.8827 90.8546 94.4163 91.8138 93.7566 92.6351C93.0968 93.4563 92.2607 94.1185 91.3101 94.5725C90.6377 94.8605 89.9496 95.1105 89.2491 95.3215L58.5771 95.3195ZM55.4081 83.8435H92.3951V61.1205H55.4081V83.8435ZM85.2161 34.0085C85.1541 34.2245 85.1061 34.3965 85.0561 34.5665C84.2561 37.3415 83.0561 38.2445 80.1841 38.2445C75.8761 38.2445 71.5681 38.2445 67.2601 38.2445C66.3015 38.3418 65.3401 38.0886 64.5538 37.5318C63.7675 36.9749 63.2096 36.1521 62.9831 35.2155C62.8461 34.8265 62.7351 34.4285 62.6071 34.0155H55.4301V58.1495H92.4231V34.0085H85.2161ZM55.4451 86.7895C54.8451 90.5435 57.3771 92.5465 60.4061 92.5075C69.5211 92.3905 78.6381 92.4675 87.7551 92.4645C91.0421 92.4645 92.9971 90.0585 92.3481 86.7895H55.4451Z" stroke="#F5F5F5" stroke-width="1.5"/>
<path d="M39.671 4C39.69 4.023 39.705 4.058 39.729 4.067C43.967 5.517 45.378 7.492 45.378 11.976V15.369H48.171V18.261H6.854V19.306C6.854 42.0953 6.854 64.8847 6.854 87.674C6.854 90.76 8.563 92.464 11.654 92.465C23.9253 92.465 36.1963 92.465 48.467 92.465H49.657V95.319H10.064C9.874 95.254 9.686 95.178 9.492 95.127C8.46651 94.8875 7.50787 94.4208 6.68679 93.7614C5.86572 93.102 5.20316 92.2666 4.748 91.317C4.45993 90.644 4.2102 89.9552 4 89.254L4 10.064C4.064 9.873 4.14 9.685 4.191 9.49C4.42999 8.46443 4.89636 7.50567 5.55564 6.68455C6.21493 5.86342 7.05029 5.20092 8 4.746C8.67297 4.45757 9.36213 4.20849 10.064 4H39.671ZM42.505 15.375C42.505 13.693 42.596 12.061 42.482 10.443C42.3946 9.46784 41.9463 8.56043 41.2249 7.89844C40.5036 7.23645 39.5611 6.86756 38.582 6.864C29.4047 6.84333 20.2273 6.84333 11.05 6.864C10.0258 6.85813 9.03583 7.2326 8.27191 7.91486C7.50799 8.59713 7.02447 9.53863 6.915 10.557C6.774 12.139 6.887 13.743 6.887 15.375H42.505Z" fill="#141414" stroke="#F5F5F5" stroke-width="1.5"/>
<path d="M95.3182 22.549H92.4752V18.3H51.1592V15.443H92.3842C92.4776 13.7358 92.4633 12.0244 92.3412 10.319C92.0622 8.172 90.2302 6.857 87.9322 6.856C76.9988 6.852 66.0655 6.852 55.1322 6.856H53.9422V4H89.2572C89.4482 4.064 89.6362 4.14 89.8312 4.191C90.9149 4.44594 91.9232 4.95263 92.7746 5.67C93.6259 6.38737 94.2962 7.29523 94.7312 8.32C94.9812 8.877 95.1312 9.481 95.3222 10.064L95.3182 22.549Z" fill="#141414" stroke="#F5F5F5" stroke-width="1.5"/>
<path d="M51.0864 4H48.2324V6.793H51.0864V4Z" fill="#141414" stroke="#F5F5F5" stroke-width="1.5"/>
<path d="M12.601 51.0506V55.3386H49.589V58.2206H11.746C10.117 58.2206 9.70703 57.8046 9.70703 56.1576C9.70703 46.1122 9.70703 36.0672 9.70703 26.0226C9.70703 24.3866 10.119 23.9766 11.761 23.9766H49.607V26.8076H34.029V48.2186H49.613V51.0506H12.601ZM31.07 26.8936H12.632V48.1846H31.07V26.8936Z" fill="#141414" stroke="#F5F5F5" stroke-width="1.5"/>
<path d="M24.056 61.0767C28.158 61.0767 32.26 61.0767 36.362 61.0767C37.762 61.0767 38.242 61.5487 38.242 62.9397C38.242 71.2064 38.242 79.47 38.242 87.7307C38.242 89.1307 37.768 89.6107 36.377 89.6107C28.1103 89.6107 19.847 89.6107 11.587 89.6107C10.187 89.6107 9.70901 89.1397 9.70801 87.7457C9.70801 79.4791 9.70801 71.2157 9.70801 62.9557C9.70801 61.5557 10.177 61.0777 11.572 61.0767C15.7333 61.0734 19.8947 61.0734 24.056 61.0767ZM23.872 73.0587L32.909 64.0127H14.829L23.873 73.0587M21.621 75.4767L12.621 66.4767V84.4767L21.621 75.4767ZM35.359 66.1947L26.29 75.2657L35.359 84.3337V66.1947ZM33.115 86.7347L24.083 77.6917L15.041 86.7347H33.115Z" fill="#141414"/>
<path d="M23.872 73.0587L32.909 64.0127H14.829L23.873 73.0587M24.056 61.0767C28.158 61.0767 32.26 61.0767 36.362 61.0767C37.762 61.0767 38.242 61.5487 38.242 62.9397C38.242 71.2064 38.242 79.47 38.242 87.7307C38.242 89.1307 37.768 89.6107 36.377 89.6107C28.1103 89.6107 19.847 89.6107 11.587 89.6107C10.187 89.6107 9.70901 89.1397 9.70801 87.7457C9.70801 79.4791 9.70801 71.2157 9.70801 62.9557C9.70801 61.5557 10.177 61.0777 11.572 61.0767C15.7333 61.0734 19.8947 61.0734 24.056 61.0767ZM21.621 75.4767L12.621 66.4767V84.4767L21.621 75.4767ZM35.359 66.1947L26.29 75.2657L35.359 84.3337V66.1947ZM33.115 86.7347L24.083 77.6917L15.041 86.7347H33.115Z" stroke="white" stroke-width="2.3"/>
<path d="M89.5682 9.76562H86.8252V12.5156H89.5682V9.76562Z" fill="#141414" stroke="#F5F5F5" stroke-width="1.5"/>
<path d="M78.1411 9.74023H75.4141V12.5142H78.1411V9.74023Z" fill="#141414" stroke="#F5F5F5" stroke-width="1.5"/>
<path d="M83.8594 9.74805H81.1094V12.491H83.8594V9.74805Z" fill="#141414" stroke="#F5F5F5" stroke-width="1.5"/>
<path d="M88.1405 71.1113H59.6855V73.8533H88.1405V71.1113Z" fill="url(#paint1_linear_1066_2194)" stroke="#F5F5F5" stroke-width="1.5"/>
<path d="M88.1405 76.8184H59.6855V79.5594H88.1405V76.8184Z" fill="url(#paint2_linear_1066_2194)" stroke="#F5F5F5" stroke-width="1.5"/>
<path d="M88.1125 65.4004H65.3965V68.1454H88.1125V65.4004Z" fill="url(#paint3_linear_1066_2194)" stroke="#F5F5F5" stroke-width="1.5"/>
<path d="M62.4353 65.3965H59.6973V68.1505H62.4353V65.3965Z" fill="url(#paint4_linear_1066_2194)" stroke="#F5F5F5" stroke-width="1.5"/>
<path d="M73.9144 41.0986C77.5691 41.0986 81.2237 41.0986 84.8784 41.0986C87.8964 41.0986 89.6064 42.8256 89.6094 45.8686C89.6094 47.5326 89.6174 49.1966 89.6094 50.8606C89.6425 51.457 89.5501 52.0537 89.3381 52.6122C89.1261 53.1706 88.7993 53.6783 88.3787 54.1025C87.9581 54.5266 87.4532 54.8578 86.8966 55.0745C86.34 55.2912 85.7441 55.3887 85.1474 55.3606C77.6601 55.3706 70.1724 55.3706 62.6844 55.3606C62.0953 55.3884 61.5068 55.2937 60.9562 55.0824C60.4056 54.8711 59.9048 54.5478 59.4855 54.133C59.0663 53.7183 58.7376 53.221 58.5204 52.6727C58.3031 52.1244 58.202 51.537 58.2234 50.9476C58.2094 49.135 58.2094 47.3226 58.2234 45.5106C58.2027 44.9215 58.3044 44.3345 58.5219 43.7866C58.7394 43.2387 59.0681 42.7418 59.4873 42.3273C59.9064 41.9127 60.4069 41.5896 60.9571 41.3781C61.5074 41.1666 62.0955 41.0715 62.6844 41.0986C66.4284 41.0876 70.1714 41.0986 73.9144 41.0986ZM73.9094 52.5136C77.6254 52.5136 81.3404 52.5196 85.0554 52.5136C86.2224 52.5136 86.7444 51.9886 86.7554 50.8266C86.7681 49.1026 86.7681 47.3786 86.7554 45.6546C86.7474 44.4866 86.2304 43.9606 85.0674 43.9546C77.6367 43.948 70.2057 43.948 62.7744 43.9546C61.6044 43.9546 61.0874 44.4756 61.0744 45.6396C61.0614 47.3036 61.0674 48.9686 61.0744 50.6326C61.0744 52.0326 61.5474 52.5086 62.9414 52.5106C66.5974 52.5146 70.2534 52.5146 73.9094 52.5106" fill="url(#paint5_linear_1066_2194)"/>
<path d="M73.9094 52.5136C77.6254 52.5136 81.3404 52.5196 85.0554 52.5136C86.2224 52.5136 86.7444 51.9886 86.7554 50.8266C86.7681 49.1026 86.7681 47.3786 86.7554 45.6546C86.7474 44.4866 86.2304 43.9606 85.0674 43.9546C77.6367 43.948 70.2057 43.948 62.7744 43.9546C61.6044 43.9546 61.0874 44.4756 61.0744 45.6396C61.0614 47.3036 61.0674 48.9686 61.0744 50.6326C61.0744 52.0326 61.5474 52.5086 62.9414 52.5106C66.5974 52.5146 70.2534 52.5146 73.9094 52.5106M73.9144 41.0986C77.5691 41.0986 81.2237 41.0986 84.8784 41.0986C87.8964 41.0986 89.6064 42.8256 89.6094 45.8686C89.6094 47.5326 89.6174 49.1966 89.6094 50.8606C89.6425 51.457 89.5501 52.0537 89.3381 52.6122C89.1261 53.1706 88.7993 53.6783 88.3787 54.1025C87.9581 54.5266 87.4532 54.8578 86.8966 55.0745C86.34 55.2912 85.7441 55.3887 85.1474 55.3606C77.6601 55.3706 70.1724 55.3706 62.6844 55.3606C62.0953 55.3884 61.5068 55.2937 60.9562 55.0824C60.4056 54.8711 59.9048 54.5478 59.4855 54.133C59.0663 53.7183 58.7376 53.221 58.5204 52.6727C58.3031 52.1244 58.202 51.537 58.2234 50.9476C58.2094 49.135 58.2094 47.3226 58.2234 45.5106C58.2027 44.9215 58.3044 44.3345 58.5219 43.7866C58.7394 43.2387 59.0681 42.7418 59.4873 42.3273C59.9064 41.9127 60.4069 41.5896 60.9571 41.3781C61.5074 41.1666 62.0955 41.0715 62.6844 41.0986C66.4284 41.0876 70.1714 41.0986 73.9144 41.0986Z" stroke="#F5F5F5" stroke-width="1.5"/>
<path d="M79.5823 29.7441H68.2803V32.4891H79.5823V29.7441Z" fill="url(#paint6_linear_1066_2194)" stroke="#F5F5F5" stroke-width="1.5"/>
<path d="M79.5823 88.2461H68.2803V90.9931H79.5823V88.2461Z" fill="url(#paint7_linear_1066_2194)" stroke="#F5F5F5" stroke-width="1.5"/>
<path d="M33.9223 9.76953H9.7793V12.5145H33.9223V9.76953Z" fill="#141414" stroke="#F5F5F5" stroke-width="1.5"/>
<path d="M39.6195 9.76953H36.8555V12.5175H39.6195V9.76953Z" fill="#141414" stroke="#F5F5F5" stroke-width="1.5"/>
<path d="M69.5772 46.8711H66.8232V49.6091H69.5772V46.8711Z" fill="url(#paint8_linear_1066_2194)" stroke="#F5F5F5" stroke-width="1.5"/>
<path d="M75.2719 46.8203H72.5439V49.5953H75.2719V46.8203Z" fill="url(#paint9_linear_1066_2194)" stroke="#F5F5F5" stroke-width="1.5"/>
<path d="M80.9869 46.875H78.2119V49.603H80.9869V46.875Z" fill="url(#paint10_linear_1066_2194)" stroke="#F5F5F5" stroke-width="1.5"/>
</g>
<defs>
<linearGradient id="paint0_linear_1066_2194" x1="69.3423" y1="128.667" x2="129.888" y2="99.3132" gradientUnits="userSpaceOnUse">
<stop stop-color="#9358F7"/>
<stop offset="0.259732" stop-color="#7B78F2"/>
<stop offset="0.500607" stop-color="#6197EE"/>
<stop offset="0.766547" stop-color="#45B5E9"/>
<stop offset="1" stop-color="#10D7E2"/>
</linearGradient>
<linearGradient id="paint1_linear_1066_2194" x1="70.8773" y1="75.1349" x2="71.5744" y2="69.2901" gradientUnits="userSpaceOnUse">
<stop stop-color="#9358F7"/>
<stop offset="0.259732" stop-color="#7B78F2"/>
<stop offset="0.500607" stop-color="#6197EE"/>
<stop offset="0.766547" stop-color="#45B5E9"/>
<stop offset="1" stop-color="#10D7E2"/>
</linearGradient>
<linearGradient id="paint2_linear_1066_2194" x1="70.8773" y1="80.8405" x2="71.5739" y2="74.9977" gradientUnits="userSpaceOnUse">
<stop stop-color="#9358F7"/>
<stop offset="0.259732" stop-color="#7B78F2"/>
<stop offset="0.500607" stop-color="#6197EE"/>
<stop offset="0.766547" stop-color="#45B5E9"/>
<stop offset="1" stop-color="#10D7E2"/>
</linearGradient>
<linearGradient id="paint3_linear_1066_2194" x1="74.331" y1="69.4284" x2="75.1991" y2="63.6238" gradientUnits="userSpaceOnUse">
<stop stop-color="#9358F7"/>
<stop offset="0.259732" stop-color="#7B78F2"/>
<stop offset="0.500607" stop-color="#6197EE"/>
<stop offset="0.766547" stop-color="#45B5E9"/>
<stop offset="1" stop-color="#10D7E2"/>
</linearGradient>
<linearGradient id="paint4_linear_1066_2194" x1="60.7742" y1="69.4377" x2="63.6811" y2="67.1027" gradientUnits="userSpaceOnUse">
<stop stop-color="#9358F7"/>
<stop offset="0.259732" stop-color="#7B78F2"/>
<stop offset="0.500607" stop-color="#6197EE"/>
<stop offset="0.766547" stop-color="#45B5E9"/>
<stop offset="1" stop-color="#10D7E2"/>
</linearGradient>
<linearGradient id="paint5_linear_1066_2194" x1="70.5641" y1="62.0399" x2="83.7517" y2="38.5992" gradientUnits="userSpaceOnUse">
<stop stop-color="#9358F7"/>
<stop offset="0.259732" stop-color="#7B78F2"/>
<stop offset="0.500607" stop-color="#6197EE"/>
<stop offset="0.766547" stop-color="#45B5E9"/>
<stop offset="1" stop-color="#10D7E2"/>
</linearGradient>
<linearGradient id="paint6_linear_1066_2194" x1="72.7255" y1="33.7721" x2="74.3616" y2="28.3295" gradientUnits="userSpaceOnUse">
<stop stop-color="#9358F7"/>
<stop offset="0.259732" stop-color="#7B78F2"/>
<stop offset="0.500607" stop-color="#6197EE"/>
<stop offset="0.766547" stop-color="#45B5E9"/>
<stop offset="1" stop-color="#10D7E2"/>
</linearGradient>
<linearGradient id="paint7_linear_1066_2194" x1="72.7255" y1="92.277" x2="74.3638" y2="86.8311" gradientUnits="userSpaceOnUse">
<stop stop-color="#9358F7"/>
<stop offset="0.259732" stop-color="#7B78F2"/>
<stop offset="0.500607" stop-color="#6197EE"/>
<stop offset="0.766547" stop-color="#45B5E9"/>
<stop offset="1" stop-color="#10D7E2"/>
</linearGradient>
<linearGradient id="paint8_linear_1066_2194" x1="67.9064" y1="50.8888" x2="70.8035" y2="48.5344" gradientUnits="userSpaceOnUse">
<stop stop-color="#9358F7"/>
<stop offset="0.259732" stop-color="#7B78F2"/>
<stop offset="0.500607" stop-color="#6197EE"/>
<stop offset="0.766547" stop-color="#45B5E9"/>
<stop offset="1" stop-color="#10D7E2"/>
</linearGradient>
<linearGradient id="paint9_linear_1066_2194" x1="73.6169" y1="50.8923" x2="76.5387" y2="48.5716" gradientUnits="userSpaceOnUse">
<stop stop-color="#9358F7"/>
<stop offset="0.259732" stop-color="#7B78F2"/>
<stop offset="0.500607" stop-color="#6197EE"/>
<stop offset="0.766547" stop-color="#45B5E9"/>
<stop offset="1" stop-color="#10D7E2"/>
</linearGradient>
<linearGradient id="paint10_linear_1066_2194" x1="79.3034" y1="50.878" x2="82.1964" y2="48.5003" gradientUnits="userSpaceOnUse">
<stop stop-color="#9358F7"/>
<stop offset="0.259732" stop-color="#7B78F2"/>
<stop offset="0.500607" stop-color="#6197EE"/>
<stop offset="0.766547" stop-color="#45B5E9"/>
<stop offset="1" stop-color="#10D7E2"/>
</linearGradient>
<clipPath id="clip0_1066_2194">
<rect width="100" height="100" fill="white"/>
</clipPath>
</defs>
</svg>
