<svg width="100" height="100" viewBox="0 0 100 100" fill="none" xmlns="http://www.w3.org/2000/svg">
<g clip-path="url(#clip0_1066_2173)">
<path d="M80.2595 61.8875V45.2285H83.2905V46.2285C83.2905 53.8525 83.2905 61.4765 83.2905 69.1005C83.2905 73.9875 80.0615 77.2005 75.1655 77.2065C69.1655 77.2098 63.1631 77.2098 57.1585 77.2065H56.0515L57.1955 86.3575C58.2225 86.3575 59.2315 86.3485 60.2395 86.3575C60.6696 86.3338 61.0999 86.401 61.5023 86.5549C61.9047 86.7087 62.2701 86.9456 62.5747 87.2503C62.8793 87.5549 63.1163 87.9203 63.2701 88.3227C63.4239 88.7251 63.4912 89.1553 63.4675 89.5855C63.4785 90.5065 63.4825 91.4285 63.4675 92.3485C63.4857 92.7636 63.418 93.1781 63.2686 93.5659C63.1193 93.9537 62.8914 94.3064 62.5993 94.6021C62.3073 94.8977 61.9573 95.1298 61.5714 95.2839C61.1854 95.438 60.7718 95.5107 60.3565 95.4975C49.2091 95.5108 38.0618 95.5108 26.9145 95.4975C26.5074 95.5061 26.1029 95.4322 25.7251 95.2803C25.3474 95.1283 25.0044 94.9015 24.7167 94.6134C24.429 94.3253 24.2026 93.982 24.0511 93.6041C23.8997 93.2262 23.8263 92.8215 23.8355 92.4145C23.8141 91.4305 23.8141 90.4458 23.8355 89.4605C23.8255 89.0459 23.9008 88.6337 24.0566 88.2494C24.2124 87.865 24.4455 87.5168 24.7413 87.2262C25.0372 86.9356 25.3895 86.7088 25.7766 86.5599C26.1636 86.411 26.5771 86.3431 26.9915 86.3605C28.0025 86.3455 29.0145 86.3605 30.1005 86.3605L31.2545 77.2095H30.2135C24.1795 77.2095 18.1461 77.2095 12.1135 77.2095C7.23047 77.2095 4.01346 73.9785 4.01346 69.0795C4.01346 54.1461 4.01346 39.2158 4.01346 24.2885C3.94951 23.213 4.11388 22.1361 4.49575 21.1287C4.87763 20.1212 5.46838 19.206 6.22917 18.4431C6.98997 17.6802 7.90359 17.087 8.90999 16.7024C9.91639 16.3178 10.9928 16.1505 12.0685 16.2115C25.8198 16.2075 39.5715 16.2075 53.3235 16.2115H54.2515V19.2615H12.1905C8.88347 19.2615 7.05846 21.0815 7.05846 24.3815C7.05846 36.5481 7.05846 48.7148 7.05846 60.8815V61.8935L80.2595 61.8875ZM7.05946 65.0535C7.05946 66.3605 7.05946 67.6215 7.05946 68.8835C7.05946 72.3835 8.82646 74.1565 12.3225 74.1565H74.9875C75.2415 74.1565 75.4955 74.1565 75.7495 74.1565C76.8421 74.152 77.8952 73.7478 78.7102 73.0201C79.5252 72.2924 80.0457 71.2916 80.1735 70.2065C80.3285 68.5165 80.2045 66.8005 80.2045 65.0575L7.05946 65.0535ZM33.1865 86.2965H54.1135L52.9765 77.2505H34.3235C33.9445 80.2565 33.5695 83.2365 33.1845 86.2965M60.3775 89.4745H26.9565V92.4075H60.3775V89.4745Z" fill="#141414"/>
<path d="M33.1865 86.2965H54.1135L52.9765 77.2505H34.3235C33.9445 80.2565 33.5695 83.2365 33.1845 86.2965M80.2595 61.8875V45.2285H83.2905V46.2285C83.2905 53.8525 83.2905 61.4765 83.2905 69.1005C83.2905 73.9875 80.0615 77.2005 75.1655 77.2065C69.1655 77.2098 63.1631 77.2098 57.1585 77.2065H56.0515L57.1955 86.3575C58.2225 86.3575 59.2315 86.3485 60.2395 86.3575C60.6696 86.3338 61.0999 86.401 61.5023 86.5549C61.9047 86.7087 62.2701 86.9456 62.5747 87.2503C62.8793 87.5549 63.1163 87.9203 63.2701 88.3227C63.4239 88.7251 63.4912 89.1553 63.4675 89.5855C63.4785 90.5065 63.4825 91.4285 63.4675 92.3485C63.4857 92.7636 63.418 93.1781 63.2686 93.5659C63.1193 93.9537 62.8914 94.3064 62.5993 94.6021C62.3073 94.8977 61.9573 95.1298 61.5714 95.2839C61.1854 95.438 60.7718 95.5107 60.3565 95.4975C49.2091 95.5108 38.0618 95.5108 26.9145 95.4975C26.5074 95.5061 26.1029 95.4322 25.7251 95.2803C25.3474 95.1283 25.0044 94.9015 24.7167 94.6134C24.429 94.3253 24.2026 93.982 24.0511 93.6041C23.8997 93.2262 23.8263 92.8215 23.8355 92.4145C23.8141 91.4305 23.8141 90.4458 23.8355 89.4605C23.8255 89.0459 23.9008 88.6337 24.0566 88.2494C24.2124 87.865 24.4455 87.5168 24.7413 87.2262C25.0372 86.9356 25.3895 86.7088 25.7766 86.5599C26.1636 86.411 26.5771 86.3431 26.9915 86.3605C28.0025 86.3455 29.0145 86.3605 30.1005 86.3605L31.2545 77.2095H30.2135C24.1795 77.2095 18.1461 77.2095 12.1135 77.2095C7.23047 77.2095 4.01346 73.9785 4.01346 69.0795C4.01346 54.1461 4.01346 39.2158 4.01346 24.2885C3.94951 23.213 4.11388 22.1361 4.49575 21.1287C4.87763 20.1212 5.46838 19.206 6.22917 18.4431C6.98997 17.6802 7.90359 17.087 8.90999 16.7024C9.91639 16.3178 10.9928 16.1505 12.0685 16.2115C25.8198 16.2075 39.5715 16.2075 53.3235 16.2115H54.2515V19.2615H12.1905C8.88347 19.2615 7.05846 21.0815 7.05846 24.3815C7.05846 36.5481 7.05846 48.7148 7.05846 60.8815V61.8935L80.2595 61.8875ZM7.05946 65.0535C7.05946 66.3605 7.05946 67.6215 7.05946 68.8835C7.05946 72.3835 8.82646 74.1565 12.3225 74.1565H74.9875C75.2415 74.1565 75.4955 74.1565 75.7495 74.1565C76.8421 74.152 77.8952 73.7478 78.7102 73.0201C79.5252 72.2924 80.0457 71.2916 80.1735 70.2065C80.3285 68.5165 80.2045 66.8005 80.2045 65.0575L7.05946 65.0535ZM60.3775 89.4745H26.9565V92.4075H60.3775V89.4745Z" stroke="#F5F5F5" stroke-width="1.5"/>
<path d="M74.1647 46.7033C73.2437 46.7033 72.3227 46.7113 71.4017 46.7033C70.2187 46.6903 69.7217 46.2643 69.5477 45.1163C69.3907 44.0813 69.2957 43.0323 69.0687 42.0163C68.9367 41.6332 68.6814 41.3047 68.3427 41.0823C67.0267 40.1293 65.8657 40.4433 64.7737 41.5473C64.2777 41.9948 63.7422 42.3964 63.1737 42.7473C62.8847 42.9824 62.516 43.0966 62.1447 43.066C61.7734 43.0354 61.4284 42.8624 61.1817 42.5833C59.7497 41.1833 58.3344 39.7686 56.9357 38.3393C56.7852 38.2063 56.663 38.0444 56.5762 37.8633C56.4895 37.6822 56.44 37.4855 56.4306 37.2849C56.4213 37.0843 56.4524 36.8839 56.5219 36.6955C56.5915 36.5071 56.6982 36.3346 56.8357 36.1883C57.4817 35.3223 58.1037 34.4383 58.7877 33.6043C59.1447 33.1683 59.0517 32.8223 58.9337 32.3173C58.8399 31.6608 58.4909 31.0679 57.9625 30.6673C57.4342 30.2666 56.7691 30.0905 56.1117 30.1773C55.4774 30.1477 54.8466 30.0657 54.2257 29.9323C54.0258 29.9221 53.8299 29.8722 53.6495 29.7855C53.4691 29.6987 53.3078 29.5769 53.175 29.4271C53.0422 29.2773 52.9407 29.1025 52.8762 28.913C52.8118 28.7234 52.7858 28.523 52.7997 28.3233C52.7764 26.3539 52.7764 24.3843 52.7997 22.4143C52.7844 22.2066 52.8119 21.998 52.8805 21.8014C52.9491 21.6048 53.0573 21.4244 53.1985 21.2714C53.3397 21.1184 53.5109 20.996 53.7013 20.9119C53.8918 20.8277 54.0975 20.7836 54.3057 20.7823C54.8945 20.6514 55.494 20.5741 56.0967 20.5513C56.4383 20.5969 56.7857 20.5725 57.1175 20.4796C57.4494 20.3866 57.7589 20.2271 58.0271 20.0107C58.2954 19.7943 58.5167 19.5256 58.6778 19.2208C58.8388 18.9161 58.9361 18.5818 58.9637 18.2383C59.0387 17.8954 58.9906 17.5371 58.8277 17.2263C58.2277 16.3263 57.5407 15.4943 56.9067 14.6203C56.7423 14.4651 56.6142 14.2757 56.5313 14.0654C56.4484 13.8551 56.4129 13.6291 56.4272 13.4036C56.4415 13.178 56.5053 12.9583 56.6141 12.7602C56.7229 12.5621 56.8741 12.3904 57.0567 12.2573C58.3701 10.9199 59.6957 9.59493 61.0337 8.28227C61.1667 8.09971 61.3383 7.94864 61.5362 7.83978C61.7341 7.73091 61.9535 7.66691 62.1789 7.65231C62.4043 7.63771 62.6301 7.67287 62.8404 7.7553C63.0507 7.83772 63.2403 7.96539 63.3957 8.12927C64.2467 8.74027 65.0507 9.42226 65.9307 9.98526C66.2912 10.1702 66.704 10.2263 67.1007 10.1443C67.4293 10.1202 67.7493 10.0288 68.041 9.87566C68.3326 9.72254 68.5897 9.51102 68.796 9.25428C69.0024 8.99753 69.1537 8.70104 69.2406 8.38328C69.3274 8.06552 69.3479 7.73329 69.3007 7.40727C69.3247 6.74078 69.4141 6.07826 69.5677 5.42927C69.5806 5.22942 69.6331 5.03413 69.722 4.85471C69.811 4.67529 69.9347 4.51532 70.086 4.38407C70.2372 4.25282 70.413 4.1529 70.6032 4.0901C70.7933 4.02731 70.9941 4.00289 71.1937 4.01827C73.1631 4.00693 75.1324 4.00693 77.1017 4.01827C77.3016 4.00543 77.5021 4.03244 77.6915 4.09775C77.8809 4.16305 78.0554 4.26533 78.2049 4.39866C78.3545 4.53199 78.476 4.6937 78.5625 4.8744C78.649 5.0551 78.6987 5.25119 78.7087 5.45127C78.8494 6.07068 78.9334 6.70162 78.9597 7.33627C78.9124 7.6692 78.9335 8.0083 79.0217 8.3328C79.1099 8.6573 79.2635 8.96039 79.4729 9.22353C79.6823 9.48666 79.9431 9.7043 80.2395 9.86313C80.536 10.022 80.8617 10.1186 81.1967 10.1473C81.563 10.2354 81.9483 10.1956 82.2887 10.0343C83.1887 9.44627 84.0207 8.74827 84.8947 8.11527C85.0526 7.95374 85.2439 7.82874 85.4552 7.74905C85.6665 7.66936 85.8927 7.6369 86.118 7.65396C86.3432 7.67102 86.5619 7.73718 86.7588 7.8478C86.9557 7.95842 87.126 8.11081 87.2577 8.29426C88.5911 9.6076 89.9154 10.9336 91.2307 12.2723C91.4054 12.4022 91.5502 12.568 91.6553 12.7585C91.7605 12.9491 91.8236 13.16 91.8403 13.377C91.8571 13.594 91.8272 13.8121 91.7525 14.0165C91.6779 14.221 91.5603 14.4071 91.4077 14.5623C90.7807 15.4403 90.0747 16.2623 89.4927 17.1713C89.3189 17.5365 89.2724 17.9495 89.3607 18.3443C89.3877 18.6722 89.4818 18.991 89.6372 19.281C89.7926 19.571 90.006 19.826 90.2641 20.03C90.5221 20.2341 90.8194 20.3829 91.1375 20.4672C91.4555 20.5516 91.7874 20.5696 92.1127 20.5203C92.7475 20.5466 93.3784 20.6333 93.9967 20.7793C94.205 20.7854 94.4098 20.834 94.5986 20.9222C94.7874 21.0103 94.9561 21.1361 95.0945 21.2919C95.2329 21.4476 95.3381 21.63 95.4034 21.8278C95.4688 22.0256 95.4931 22.2347 95.4747 22.4423C95.4954 24.3803 95.4954 26.3183 95.4747 28.2563C95.4959 28.4637 95.4744 28.6734 95.4115 28.8722C95.3485 29.071 95.2455 29.2549 95.1088 29.4124C94.9721 29.5699 94.8046 29.6977 94.6166 29.788C94.4286 29.8782 94.2241 29.9291 94.0157 29.9373C92.9817 30.1043 91.9457 30.2643 90.9037 30.3733C90.2907 30.4373 90.0587 30.7653 89.7547 31.2813C89.3897 31.7946 89.2371 32.4291 89.3285 33.0524C89.42 33.6756 89.7486 34.2394 90.2457 34.6263C90.6882 35.1255 91.092 35.6577 91.4537 36.2183C91.5872 36.3679 91.6895 36.5427 91.7546 36.7323C91.8198 36.922 91.8465 37.1227 91.8331 37.3228C91.8198 37.5228 91.7668 37.7183 91.6771 37.8976C91.5874 38.0769 91.4628 38.2366 91.3107 38.3673C89.9294 39.7706 88.5371 41.1633 87.1337 42.5453C87.0026 42.697 86.8425 42.821 86.6628 42.91C86.4832 42.9991 86.2875 43.0514 86.0874 43.0639C85.8872 43.0763 85.6866 43.0488 85.4973 42.9827C85.3079 42.9167 85.1337 42.8135 84.9847 42.6793C84.1157 42.0383 83.2357 41.4113 82.3977 40.7313C82.2196 40.5893 82.0062 40.4984 81.7804 40.4682C81.5546 40.4381 81.3248 40.4699 81.1157 40.5603C80.4607 40.6497 79.8674 40.9939 79.4647 41.5181C79.0619 42.0424 78.8823 42.7043 78.9647 43.3603C78.9355 43.9949 78.8502 44.6257 78.7097 45.2453C78.6989 45.453 78.6462 45.6564 78.5547 45.8432C78.4631 46.0301 78.3347 46.1964 78.1772 46.3323C78.0197 46.4681 77.8362 46.5707 77.638 46.6338C77.4398 46.6968 77.2308 46.7191 77.0237 46.6993C76.0707 46.7193 75.1177 46.6993 74.1647 46.6993M60.0547 13.7283C60.7377 14.6423 61.4327 15.5863 62.1427 16.5193C62.3608 16.7931 62.4919 17.1259 62.5192 17.4748C62.5464 17.8238 62.4686 18.1729 62.2957 18.4773C61.7957 19.5693 61.3297 20.6773 60.9137 21.8043C60.8208 22.1575 60.6209 22.4734 60.3415 22.7087C60.062 22.9439 59.7167 23.087 59.3527 23.1183C58.1957 23.2603 57.0457 23.4633 55.8757 23.6433V27.0663C57.0307 27.2433 58.1517 27.4513 59.2817 27.5753C59.6778 27.6043 60.0541 27.7597 60.3552 28.0185C60.6564 28.2774 60.8665 28.6261 60.9547 29.0133C61.3077 30.0625 61.7299 31.087 62.2187 32.0803C62.4372 32.4309 62.5359 32.8431 62.4998 33.2547C62.4637 33.6662 62.2949 34.055 62.0187 34.3623C61.3277 35.2283 60.6867 36.1343 60.0907 36.9313L62.4587 39.4763C63.4017 38.7763 64.3257 38.1033 65.2247 37.4013C65.5168 37.1563 65.8782 37.0089 66.2583 36.9801C66.6384 36.9512 67.018 37.0422 67.3437 37.2403C68.3714 37.7282 69.4238 38.1621 70.4967 38.5403C70.8681 38.6253 71.2032 38.8252 71.4545 39.1115C71.7058 39.3978 71.8605 39.756 71.8967 40.1353C72.0317 41.2933 72.2387 42.4423 72.4167 43.6123H75.8457C76.0137 42.4883 76.2187 41.3983 76.3297 40.2983C76.3503 39.8691 76.5134 39.4591 76.7932 39.1331C77.0731 38.807 77.4536 38.5837 77.8747 38.4983C78.8723 38.1899 79.8399 37.792 80.7657 37.3093C81.1366 37.0631 81.5799 36.9497 82.0235 36.9874C82.467 37.0252 82.8848 37.2119 83.2087 37.5173C84.0557 38.2113 84.9617 38.8333 85.7087 39.3913L88.2427 37.0223C87.5227 36.0573 86.8297 35.1113 86.1177 34.1803C85.8989 33.9073 85.7671 33.5749 85.7395 33.2261C85.7118 32.8773 85.7896 32.5283 85.9627 32.2243C86.4627 31.1323 86.9297 30.0243 87.3437 28.8973C87.4355 28.5437 87.6347 28.2274 87.914 27.992C88.1933 27.7567 88.5388 27.6138 88.9027 27.5833C90.0607 27.4443 91.2107 27.2423 92.3837 27.0633V23.6343C91.2317 23.4603 90.1107 23.2553 88.9837 23.1343C88.5876 23.1062 88.211 22.9518 87.9093 22.6936C87.6076 22.4355 87.3967 22.0873 87.3077 21.7003C86.9566 20.6504 86.535 19.6254 86.0457 18.6323C85.826 18.2828 85.726 17.8712 85.761 17.4598C85.796 17.0484 85.9641 16.6596 86.2397 16.3523C86.9337 15.4893 87.5717 14.5803 88.1807 13.7643L85.7537 11.2713C84.8387 11.9543 83.8947 12.6493 82.9617 13.3583C82.688 13.5764 82.3552 13.7076 82.0063 13.735C81.6574 13.7625 81.3082 13.6849 81.0037 13.5123C79.9117 13.0123 78.8037 12.5463 77.6777 12.1333C77.3243 12.0412 77.0081 11.8418 76.7726 11.5626C76.5371 11.2835 76.3939 10.9382 76.3627 10.5743C76.2227 9.41627 76.0207 8.26627 75.8417 7.09227H72.4137C72.2387 8.24527 72.0337 9.36626 71.9137 10.4923C71.8853 10.8884 71.7306 11.265 71.4723 11.5667C71.214 11.8683 70.8658 12.0792 70.4787 12.1683C69.429 12.5194 68.404 12.9407 67.4107 13.4293C67.0611 13.6489 66.6495 13.7487 66.2381 13.7135C65.8267 13.6783 65.438 13.5101 65.1307 13.2343C64.2667 12.5413 63.3587 11.9023 62.4527 11.2273L60.0527 13.7273" fill="url(#paint0_linear_1066_2173)"/>
<path d="M74.1647 46.7033C73.2437 46.7033 72.3227 46.7113 71.4017 46.7033C70.2187 46.6903 69.7217 46.2643 69.5477 45.1163C69.3907 44.0813 69.2957 43.0323 69.0687 42.0163C68.9367 41.6332 68.6814 41.3047 68.3427 41.0823C67.0267 40.1293 65.8657 40.4433 64.7737 41.5473C64.2777 41.9948 63.7422 42.3964 63.1737 42.7473C62.8847 42.9824 62.516 43.0966 62.1447 43.066C61.7734 43.0354 61.4284 42.8624 61.1817 42.5833C59.7497 41.1833 58.3344 39.7686 56.9357 38.3393C56.7852 38.2063 56.663 38.0444 56.5762 37.8633C56.4895 37.6822 56.44 37.4855 56.4306 37.2849C56.4213 37.0843 56.4524 36.8839 56.5219 36.6955C56.5915 36.5071 56.6982 36.3346 56.8357 36.1883C57.4817 35.3223 58.1037 34.4383 58.7877 33.6043C59.1447 33.1683 59.0517 32.8223 58.9337 32.3173C58.8399 31.6608 58.4909 31.0679 57.9625 30.6673C57.4342 30.2666 56.7691 30.0905 56.1117 30.1773C55.4774 30.1477 54.8466 30.0657 54.2257 29.9323C54.0258 29.9221 53.8299 29.8722 53.6495 29.7855C53.4691 29.6987 53.3078 29.5769 53.175 29.4271C53.0422 29.2773 52.9407 29.1025 52.8762 28.913C52.8118 28.7234 52.7858 28.523 52.7997 28.3233C52.7764 26.3539 52.7764 24.3843 52.7997 22.4143C52.7844 22.2066 52.8119 21.998 52.8805 21.8014C52.9491 21.6048 53.0573 21.4244 53.1985 21.2714C53.3397 21.1184 53.5109 20.996 53.7013 20.9119C53.8918 20.8277 54.0975 20.7836 54.3057 20.7823C54.8945 20.6514 55.494 20.5741 56.0967 20.5513C56.4383 20.5969 56.7857 20.5725 57.1175 20.4796C57.4494 20.3866 57.7589 20.2271 58.0271 20.0107C58.2954 19.7943 58.5167 19.5256 58.6778 19.2208C58.8388 18.9161 58.9361 18.5818 58.9637 18.2383C59.0387 17.8954 58.9906 17.5371 58.8277 17.2263C58.2277 16.3263 57.5407 15.4943 56.9067 14.6203C56.7423 14.4651 56.6142 14.2757 56.5313 14.0654C56.4484 13.8551 56.4129 13.6291 56.4272 13.4036C56.4415 13.178 56.5053 12.9583 56.6141 12.7602C56.7229 12.5621 56.8741 12.3904 57.0567 12.2573C58.3701 10.9199 59.6957 9.59493 61.0337 8.28227C61.1667 8.09971 61.3383 7.94864 61.5362 7.83978C61.7341 7.73091 61.9535 7.66691 62.1789 7.65231C62.4043 7.63771 62.6301 7.67287 62.8404 7.7553C63.0507 7.83772 63.2403 7.96539 63.3957 8.12927C64.2467 8.74027 65.0507 9.42226 65.9307 9.98526C66.2912 10.1702 66.704 10.2263 67.1007 10.1443C67.4293 10.1202 67.7493 10.0288 68.041 9.87566C68.3326 9.72254 68.5897 9.51102 68.796 9.25428C69.0024 8.99753 69.1537 8.70104 69.2406 8.38328C69.3274 8.06552 69.3479 7.73329 69.3007 7.40727C69.3247 6.74078 69.4141 6.07826 69.5677 5.42927C69.5806 5.22942 69.6331 5.03413 69.722 4.85471C69.811 4.67529 69.9347 4.51532 70.086 4.38407C70.2372 4.25282 70.413 4.1529 70.6032 4.0901C70.7933 4.02731 70.9941 4.00289 71.1937 4.01827C73.1631 4.00693 75.1324 4.00693 77.1017 4.01827C77.3016 4.00543 77.5021 4.03244 77.6915 4.09775C77.8809 4.16305 78.0554 4.26533 78.2049 4.39866C78.3545 4.53199 78.476 4.6937 78.5625 4.8744C78.649 5.0551 78.6987 5.25119 78.7087 5.45127C78.8494 6.07068 78.9334 6.70162 78.9597 7.33627C78.9124 7.6692 78.9335 8.0083 79.0217 8.3328C79.1099 8.6573 79.2635 8.96039 79.4729 9.22353C79.6823 9.48666 79.9431 9.7043 80.2395 9.86313C80.536 10.022 80.8617 10.1186 81.1967 10.1473C81.563 10.2354 81.9483 10.1956 82.2887 10.0343C83.1887 9.44627 84.0207 8.74827 84.8947 8.11527C85.0526 7.95374 85.2439 7.82874 85.4552 7.74905C85.6665 7.66936 85.8927 7.6369 86.118 7.65396C86.3432 7.67102 86.5619 7.73718 86.7588 7.8478C86.9557 7.95842 87.126 8.11081 87.2577 8.29426C88.5911 9.6076 89.9154 10.9336 91.2307 12.2723C91.4054 12.4022 91.5502 12.568 91.6553 12.7585C91.7605 12.9491 91.8236 13.16 91.8403 13.377C91.8571 13.594 91.8272 13.8121 91.7525 14.0165C91.6779 14.221 91.5603 14.4071 91.4077 14.5623C90.7807 15.4403 90.0747 16.2623 89.4927 17.1713C89.3189 17.5365 89.2724 17.9495 89.3607 18.3443C89.3877 18.6722 89.4818 18.991 89.6372 19.281C89.7926 19.571 90.006 19.826 90.2641 20.03C90.5221 20.2341 90.8194 20.3829 91.1375 20.4672C91.4555 20.5516 91.7874 20.5696 92.1127 20.5203C92.7475 20.5466 93.3784 20.6333 93.9967 20.7793C94.205 20.7854 94.4098 20.834 94.5986 20.9222C94.7874 21.0103 94.9561 21.1361 95.0945 21.2919C95.2329 21.4476 95.3381 21.63 95.4034 21.8278C95.4688 22.0256 95.4931 22.2347 95.4747 22.4423C95.4954 24.3803 95.4954 26.3183 95.4747 28.2563C95.4959 28.4637 95.4744 28.6734 95.4115 28.8722C95.3485 29.071 95.2455 29.2549 95.1088 29.4124C94.9721 29.5699 94.8046 29.6977 94.6166 29.788C94.4286 29.8782 94.2241 29.9291 94.0157 29.9373C92.9817 30.1043 91.9457 30.2643 90.9037 30.3733C90.2907 30.4373 90.0587 30.7653 89.7547 31.2813C89.3897 31.7946 89.2371 32.4291 89.3285 33.0524C89.42 33.6756 89.7486 34.2394 90.2457 34.6263C90.6882 35.1255 91.092 35.6577 91.4537 36.2183C91.5872 36.3679 91.6895 36.5427 91.7546 36.7323C91.8198 36.922 91.8465 37.1227 91.8331 37.3228C91.8198 37.5228 91.7668 37.7183 91.6771 37.8976C91.5874 38.0769 91.4628 38.2366 91.3107 38.3673C89.9294 39.7706 88.5371 41.1633 87.1337 42.5453C87.0026 42.697 86.8425 42.821 86.6628 42.91C86.4832 42.9991 86.2875 43.0514 86.0874 43.0639C85.8872 43.0763 85.6866 43.0488 85.4973 42.9827C85.3079 42.9167 85.1337 42.8135 84.9847 42.6793C84.1157 42.0383 83.2357 41.4113 82.3977 40.7313C82.2196 40.5893 82.0062 40.4984 81.7804 40.4682C81.5546 40.4381 81.3248 40.4699 81.1157 40.5603C80.4607 40.6497 79.8674 40.9939 79.4647 41.5181C79.0619 42.0424 78.8823 42.7043 78.9647 43.3603C78.9355 43.9949 78.8502 44.6257 78.7097 45.2453C78.6989 45.453 78.6462 45.6564 78.5547 45.8432C78.4631 46.0301 78.3347 46.1964 78.1772 46.3323C78.0197 46.4681 77.8362 46.5707 77.638 46.6338C77.4398 46.6968 77.2308 46.7191 77.0237 46.6993C76.0707 46.7193 75.1177 46.6993 74.1647 46.6993M60.0547 13.7283C60.7377 14.6423 61.4327 15.5863 62.1427 16.5193C62.3608 16.7931 62.4919 17.1259 62.5192 17.4748C62.5464 17.8238 62.4686 18.1729 62.2957 18.4773C61.7957 19.5693 61.3297 20.6773 60.9137 21.8043C60.8208 22.1575 60.6209 22.4734 60.3415 22.7087C60.062 22.9439 59.7167 23.087 59.3527 23.1183C58.1957 23.2603 57.0457 23.4633 55.8757 23.6433V27.0663C57.0307 27.2433 58.1517 27.4513 59.2817 27.5753C59.6778 27.6043 60.0541 27.7597 60.3552 28.0185C60.6564 28.2774 60.8665 28.6261 60.9547 29.0133C61.3077 30.0625 61.7299 31.087 62.2187 32.0803C62.4372 32.4309 62.5359 32.8431 62.4998 33.2547C62.4637 33.6662 62.2949 34.055 62.0187 34.3623C61.3277 35.2283 60.6867 36.1343 60.0907 36.9313L62.4587 39.4763C63.4017 38.7763 64.3257 38.1033 65.2247 37.4013C65.5168 37.1563 65.8782 37.0089 66.2583 36.9801C66.6384 36.9512 67.018 37.0422 67.3437 37.2403C68.3714 37.7282 69.4238 38.1621 70.4967 38.5403C70.8681 38.6253 71.2032 38.8252 71.4545 39.1115C71.7058 39.3978 71.8605 39.756 71.8967 40.1353C72.0317 41.2933 72.2387 42.4423 72.4167 43.6123H75.8457C76.0137 42.4883 76.2187 41.3983 76.3297 40.2983C76.3503 39.8691 76.5134 39.4591 76.7932 39.1331C77.0731 38.807 77.4536 38.5837 77.8747 38.4983C78.8723 38.1899 79.8399 37.792 80.7657 37.3093C81.1366 37.0631 81.5799 36.9497 82.0235 36.9874C82.467 37.0252 82.8848 37.2119 83.2087 37.5173C84.0557 38.2113 84.9617 38.8333 85.7087 39.3913L88.2427 37.0223C87.5227 36.0573 86.8297 35.1113 86.1177 34.1803C85.8989 33.9073 85.7671 33.5749 85.7395 33.2261C85.7118 32.8773 85.7896 32.5283 85.9627 32.2243C86.4627 31.1323 86.9297 30.0243 87.3437 28.8973C87.4355 28.5437 87.6347 28.2274 87.914 27.992C88.1933 27.7567 88.5388 27.6138 88.9027 27.5833C90.0607 27.4443 91.2107 27.2423 92.3837 27.0633V23.6343C91.2317 23.4603 90.1107 23.2553 88.9837 23.1343C88.5876 23.1062 88.211 22.9518 87.9093 22.6936C87.6076 22.4355 87.3967 22.0873 87.3077 21.7003C86.9566 20.6504 86.535 19.6254 86.0457 18.6323C85.826 18.2828 85.726 17.8712 85.761 17.4598C85.796 17.0484 85.9641 16.6596 86.2397 16.3523C86.9337 15.4893 87.5717 14.5803 88.1807 13.7643L85.7537 11.2713C84.8387 11.9543 83.8947 12.6493 82.9617 13.3583C82.688 13.5764 82.3552 13.7076 82.0063 13.735C81.6574 13.7625 81.3082 13.6849 81.0037 13.5123C79.9117 13.0123 78.8037 12.5463 77.6777 12.1333C77.3243 12.0412 77.0081 11.8418 76.7726 11.5626C76.5371 11.2835 76.3939 10.9382 76.3627 10.5743C76.2227 9.41627 76.0207 8.26627 75.8417 7.09227H72.4137C72.2387 8.24527 72.0337 9.36626 71.9137 10.4923C71.8853 10.8884 71.7306 11.265 71.4723 11.5667C71.214 11.8683 70.8658 12.0792 70.4787 12.1683C69.429 12.5194 68.404 12.9407 67.4107 13.4293C67.0611 13.6489 66.6495 13.7487 66.2381 13.7135C65.8267 13.6783 65.438 13.5101 65.1307 13.2343C64.2667 12.5413 63.3587 11.9023 62.4527 11.2273L60.0527 13.7273" stroke="#F5F5F5" stroke-width="1.5"/>
<path d="M40.5711 40.6836H25.4111V43.5846H40.5711V40.6836Z" fill="#141414" stroke="#F5F5F5" stroke-width="1.5"/>
<path d="M43.5692 46.75H28.4512V49.693H43.5692V46.75Z" fill="#141414" stroke="#F5F5F5" stroke-width="1.5"/>
<path d="M43.5743 52.8438H28.4453V55.7987H43.5743V52.8438Z" fill="#141414" stroke="#F5F5F5" stroke-width="1.5"/>
<path d="M21.1548 22.8594L23.3938 24.9594L19.7368 28.3664L23.5038 31.7394L21.0628 34.0394C20.4358 33.3694 19.7628 32.6294 19.0628 31.9104C18.2888 31.1104 17.4778 30.3524 16.7148 29.5444C16.5563 29.4192 16.4263 29.2617 16.3334 29.0824C16.2405 28.9031 16.1868 28.706 16.1759 28.5043C16.165 28.3027 16.1972 28.101 16.2703 27.9127C16.3434 27.7244 16.4557 27.5539 16.5998 27.4124C18.0918 25.8594 19.6438 24.3634 21.1548 22.8614" fill="#141414"/>
<path d="M21.1548 22.8594L23.3938 24.9594L19.7368 28.3664L23.5038 31.7394L21.0628 34.0394C20.4358 33.3694 19.7628 32.6294 19.0628 31.9104C18.2888 31.1104 17.4778 30.3524 16.7148 29.5444C16.5563 29.4192 16.4263 29.2617 16.3334 29.0824C16.2405 28.9031 16.1868 28.706 16.1759 28.5043C16.165 28.3027 16.1972 28.101 16.2703 27.9127C16.3434 27.7244 16.4557 27.5539 16.5998 27.4124C18.0918 25.8594 19.6438 24.3634 21.1548 22.8614" stroke="#F5F5F5" stroke-width="1.5"/>
<path d="M30.0045 21.7793L32.8545 22.8493L28.2905 35.0303L25.4375 33.9703L30.0045 21.7793Z" fill="#141414" stroke="#F5F5F5" stroke-width="1.5"/>
<path d="M37.044 33.9569L35.053 31.8049L38.533 28.5169L34.918 25.0439L37.187 23.0039C38.641 24.4179 40.256 25.9339 41.799 27.5189C41.9198 27.6396 42.015 27.7835 42.0786 27.942C42.1423 28.1005 42.1732 28.2702 42.1695 28.441C42.1657 28.6117 42.1274 28.7799 42.0569 28.9355C41.9863 29.091 41.885 29.2306 41.759 29.3459C40.229 30.9039 38.643 32.4069 37.048 33.9599" fill="#141414"/>
<path d="M37.044 33.9569L35.053 31.8049L38.533 28.5169L34.918 25.0439L37.187 23.0039C38.641 24.4179 40.256 25.9339 41.799 27.5189C41.9198 27.6396 42.015 27.7835 42.0786 27.942C42.1423 28.1005 42.1732 28.2702 42.1695 28.441C42.1657 28.6117 42.1274 28.7799 42.0569 28.9355C41.9863 29.091 41.885 29.2306 41.759 29.3459C40.229 30.9039 38.643 32.4069 37.048 33.9599" stroke="white" stroke-width="1.7"/>
<path d="M22.2259 40.6504H16.2529V43.5934H22.2259V40.6504Z" fill="#141414" stroke="#F5F5F5" stroke-width="1.5"/>
<path d="M25.2717 46.7539H19.3057V49.7209H25.2717V46.7539Z" fill="#141414" stroke="#F5F5F5" stroke-width="1.5"/>
<path d="M25.3006 52.8574H19.3096V55.7854H25.3006V52.8574Z" fill="#141414" stroke="#F5F5F5" stroke-width="1.5"/>
<path d="M49.6769 46.7773H46.7119V49.6753H49.6769V46.7773Z" fill="#141414" stroke="#F5F5F5" stroke-width="1.5"/>
<path d="M49.7227 52.8652H46.7617V55.7762H49.7227V52.8652Z" fill="#141414" stroke="#F5F5F5" stroke-width="1.5"/>
<path d="M44.897 68.0742H42V71.0402H44.897V68.0742Z" fill="#141414" stroke="#F5F5F5" stroke-width="1.5"/>
<path d="M74.1429 16.207C75.9561 16.2085 77.728 16.7489 79.2335 17.7596C80.739 18.7702 81.9101 20.2055 82.5982 21.8832C83.2862 23.5608 83.4601 25.4051 83.0978 27.1818C82.7355 28.9585 81.8533 30.5874 80.5632 31.8616C79.2732 33.1359 77.6336 33.998 75.8526 34.3384C74.0716 34.6788 72.2295 34.4822 70.5605 33.7736C68.8914 33.0649 67.4707 31.8762 66.4786 30.3584C65.4866 28.8406 64.9681 27.0622 64.9889 25.249C65.0227 22.8421 66.0016 20.545 67.7141 18.8533C69.4267 17.1617 71.7357 16.2113 74.1429 16.207ZM80.2309 25.341C80.2283 24.1355 79.8686 22.9578 79.1972 21.9565C78.5257 20.9553 77.5727 20.1755 76.4583 19.7155C75.344 19.2555 74.1184 19.1361 72.9362 19.3722C71.754 19.6083 70.6683 20.1894 69.8161 21.0421C68.964 21.8948 68.3836 22.9809 68.1482 24.1632C67.9129 25.3456 68.0332 26.5711 68.4939 27.6852C68.9546 28.7992 69.735 29.7517 70.7367 30.4225C71.7384 31.0933 72.9164 31.4523 74.1219 31.454C74.9245 31.4542 75.7193 31.2961 76.4608 30.9889C77.2023 30.6817 77.876 30.2314 78.4433 29.6636C79.0107 29.0959 79.4606 28.4219 79.7673 27.6802C80.074 26.9385 80.2315 26.1437 80.2309 25.341Z" fill="url(#paint1_linear_1066_2173)" stroke="#F5F5F5" stroke-width="1.5"/>
</g>
<defs>
<linearGradient id="paint0_linear_1066_2173" x1="69.5798" y1="66.665" x2="114.707" y2="30.1957" gradientUnits="userSpaceOnUse">
<stop stop-color="#9358F7"/>
<stop offset="0.259732" stop-color="#7B78F2"/>
<stop offset="0.500607" stop-color="#6197EE"/>
<stop offset="0.766547" stop-color="#45B5E9"/>
<stop offset="1" stop-color="#10D7E2"/>
</linearGradient>
<linearGradient id="paint1_linear_1066_2173" x1="72.1836" y1="43.0515" x2="91.5173" y2="27.4306" gradientUnits="userSpaceOnUse">
<stop stop-color="#9358F7"/>
<stop offset="0.259732" stop-color="#7B78F2"/>
<stop offset="0.500607" stop-color="#6197EE"/>
<stop offset="0.766547" stop-color="#45B5E9"/>
<stop offset="1" stop-color="#10D7E2"/>
</linearGradient>
<clipPath id="clip0_1066_2173">
<rect width="100" height="100" fill="white"/>
</clipPath>
</defs>
</svg>
