<svg width="100" height="100" viewBox="0 0 100 100" fill="none" xmlns="http://www.w3.org/2000/svg">
<g clip-path="url(#clip0_1066_2131)">
<path d="M59.8239 80.801C61.0239 84.818 62.1729 88.701 63.3729 92.574C63.4638 92.7152 63.5865 92.8333 63.7311 92.9187C63.8757 93.0041 64.0383 93.0546 64.2059 93.066C65.6059 93.117 67.0059 93.089 68.4539 93.089V96.089H31.7059V93.106H36.6369L40.3309 80.801H39.1499C29.1679 80.801 19.1862 80.801 9.20488 80.801C5.81888 80.801 4.00488 78.976 4.00488 75.577C4.00488 53.467 4.00488 31.357 4.00488 9.247C4.00488 5.792 5.80488 4 9.27988 4H90.8569C94.3779 4 96.1499 5.782 96.1499 9.326C96.1499 31.372 96.1499 53.418 96.1499 75.464C96.1499 79.043 94.3779 80.802 90.7719 80.802L59.8239 80.801ZM93.0779 68.476V67.419C93.0779 48.0317 93.0779 28.644 93.0779 9.256C93.0779 7.515 92.6249 7.072 90.8459 7.072H9.27488C7.51388 7.072 7.07488 7.516 7.07488 9.283C7.07488 28.6703 7.07488 48.058 7.07488 67.446V68.476H93.0779ZM93.0729 71.65H7.14988C7.12137 71.7288 7.1006 71.8102 7.08788 71.893C7.08188 73.0443 7.07822 74.1957 7.07688 75.347C7.07688 77.356 7.45488 77.729 9.49388 77.729H90.6619C90.9499 77.729 91.2389 77.743 91.5259 77.722C91.7272 77.7268 91.9275 77.6911 92.1147 77.6169C92.3019 77.5427 92.4723 77.4315 92.6157 77.29C92.759 77.1485 92.8724 76.9797 92.9491 76.7934C93.0257 76.6072 93.0641 76.4074 93.0619 76.206C93.1009 74.706 93.0729 73.207 93.0729 71.65ZM60.1849 93.049C60.2032 92.9735 60.21 92.8956 60.2049 92.818C59.0649 88.995 57.9109 85.176 56.7909 81.346C56.6289 80.793 56.2909 80.8 55.8529 80.801C52.0159 80.808 48.1799 80.818 44.3429 80.792C44.222 80.7711 44.0981 80.775 43.9788 80.8037C43.8595 80.8324 43.7474 80.8852 43.6492 80.9588C43.5511 81.0324 43.469 81.1253 43.4081 81.2318C43.3471 81.3383 43.3086 81.4561 43.2949 81.578C42.3799 84.769 41.4049 87.942 40.4499 91.121L39.8719 93.048L60.1849 93.049Z" fill="black" stroke="#F5F5F5" stroke-width="1.5"/>
<path d="M62.3018 65.4412C54.8178 65.4412 47.3338 65.4412 39.8498 65.4412C36.5808 65.4412 34.7178 63.5902 34.7168 60.3412C34.7168 49.9132 34.7168 39.4856 34.7168 29.0582C34.7168 25.8582 36.5858 23.9712 39.7608 23.9682C45.1978 23.9682 50.6348 23.9842 56.0718 23.9562C56.8073 23.9308 57.5397 24.0625 58.2202 24.3428C58.9007 24.623 59.5135 25.0452 60.0178 25.5812C61.2418 26.8442 62.5178 28.0552 63.7378 29.3242C63.9853 29.5927 64.2888 29.8036 64.6268 29.9418C64.9648 30.0801 65.3291 30.1423 65.6938 30.1242C72.0938 30.1032 78.4868 30.1102 84.8838 30.1132C88.1458 30.1132 90.0038 31.9662 90.0048 35.2222C90.0048 43.6029 90.0048 51.9836 90.0048 60.3642C90.0048 63.5642 88.1358 65.4382 84.9458 65.4402C77.3978 65.4442 69.8501 65.4442 62.3028 65.4402M62.2638 62.3682C69.7811 62.3682 77.2988 62.3682 84.8168 62.3682C86.4518 62.3682 86.9348 61.8882 86.9348 60.2612C86.9348 51.9425 86.9348 43.6242 86.9348 35.3062C86.9348 33.6662 86.4578 33.1862 84.8348 33.1852C78.3728 33.1852 71.9108 33.1872 65.4488 33.1912C64.7605 33.2099 64.076 33.0847 63.4388 32.8236C62.8017 32.5626 62.2261 32.1714 61.7488 31.6752C60.4898 30.4012 59.1978 29.1582 57.9588 27.8652C57.7017 27.5842 57.3857 27.3635 57.0334 27.2188C56.6811 27.0741 56.3012 27.0091 55.9208 27.0282C50.6108 27.0542 45.3008 27.0412 39.9908 27.0422C38.2338 27.0422 37.7908 27.4872 37.7908 29.2582C37.7908 39.5602 37.7908 49.8622 37.7908 60.1642C37.7908 61.9252 38.2368 62.3702 40.0008 62.3702H62.2628" fill="url(#paint0_linear_1066_2131)"/>
<path d="M62.3018 65.4412C54.8178 65.4412 47.3338 65.4412 39.8498 65.4412C36.5808 65.4412 34.7178 63.5902 34.7168 60.3412C34.7168 49.9132 34.7168 39.4856 34.7168 29.0582C34.7168 25.8582 36.5858 23.9712 39.7608 23.9682C45.1978 23.9682 50.6348 23.9842 56.0718 23.9562C56.8073 23.9308 57.5397 24.0625 58.2202 24.3428C58.9007 24.623 59.5135 25.0452 60.0178 25.5812C61.2418 26.8442 62.5178 28.0552 63.7378 29.3242C63.9853 29.5927 64.2888 29.8036 64.6268 29.9418C64.9648 30.0801 65.3291 30.1423 65.6938 30.1242C72.0938 30.1032 78.4868 30.1102 84.8838 30.1132C88.1458 30.1132 90.0038 31.9662 90.0048 35.2222C90.0048 43.6029 90.0048 51.9836 90.0048 60.3642C90.0048 63.5642 88.1358 65.4382 84.9458 65.4402C77.3978 65.4442 69.8501 65.4442 62.3028 65.4402M62.2638 62.3682C69.7811 62.3682 77.2988 62.3682 84.8168 62.3682C86.4518 62.3682 86.9348 61.8882 86.9348 60.2612C86.9348 51.9425 86.9348 43.6242 86.9348 35.3062C86.9348 33.6662 86.4578 33.1862 84.8348 33.1852C78.3728 33.1852 71.9108 33.1872 65.4488 33.1912C64.7605 33.2099 64.076 33.0847 63.4388 32.8236C62.8017 32.5626 62.2261 32.1714 61.7488 31.6752C60.4898 30.4012 59.1978 29.1582 57.9588 27.8652C57.7017 27.5842 57.3857 27.3635 57.0334 27.2188C56.6811 27.0741 56.3012 27.0091 55.9208 27.0282C50.6108 27.0542 45.3008 27.0412 39.9908 27.0422C38.2338 27.0422 37.7908 27.4872 37.7908 29.2582C37.7908 39.5602 37.7908 49.8622 37.7908 60.1642C37.7908 61.9252 38.2368 62.3702 40.0008 62.3702H62.2628" stroke="#F5F5F5" stroke-width="1.5"/>
<path d="M58.8341 19.7272L56.6341 22.0272C55.8341 21.1742 55.0451 20.3822 54.3161 19.5392C54.1693 19.315 53.9405 19.1573 53.6789 19.0997C53.4172 19.0422 53.1434 19.0894 52.9161 19.2312C51.4871 19.8642 50.0331 20.4502 48.5601 20.9732C48.098 21.1259 47.5991 21.1259 47.1371 20.9732C45.7281 20.4612 44.3431 19.8732 42.9801 19.2502C42.5921 19.0634 42.2759 18.7547 42.0801 18.3712C41.3911 16.8962 40.7501 15.3972 40.1501 13.8832C40.0913 13.6567 39.9496 13.4606 39.7532 13.3336C39.5567 13.2065 39.3197 13.1579 39.0891 13.1972C37.9731 13.2382 36.8541 13.2092 35.7071 13.2092C34.9641 14.9442 34.2631 16.6592 33.4851 18.3372C33.2767 18.7487 32.9396 19.0808 32.5251 19.2832C31.1641 19.9132 29.7741 20.4832 28.3701 21.0102C27.965 21.1471 27.5261 21.1471 27.1211 21.0102C25.5921 20.4512 24.0861 19.8302 22.5851 19.1982C22.3855 19.0736 22.1462 19.0292 21.9152 19.0739C21.6842 19.1186 21.4787 19.2491 21.3401 19.4392C20.6011 20.2762 19.3401 20.9542 19.1401 21.8812C18.9401 22.8082 19.6551 24.0102 20.1961 24.9642C21.2731 26.8642 21.0131 28.5572 20.2031 30.5272C19.4031 32.4762 18.4031 33.8362 16.3231 34.4022C15.2531 34.7697 14.2102 35.2118 13.2021 35.7252C13.2021 36.9552 13.1691 38.1702 13.2291 39.3802C13.2669 39.5319 13.338 39.6734 13.4371 39.7944C13.5361 39.9155 13.6608 40.0131 13.8021 40.0802C15.2831 40.7572 16.8021 41.3462 18.2741 42.0462C18.711 42.2693 19.0647 42.6268 19.2831 43.0662C19.9061 44.3952 20.4701 45.7562 20.9671 47.1362C21.1169 47.5991 21.1144 48.0978 20.9601 48.5592C20.4371 50.0322 19.8531 51.4872 19.2191 52.9162C19.0797 53.1443 19.0342 53.4176 19.092 53.6786C19.1498 53.9397 19.3064 54.1682 19.5291 54.3162C20.3411 55.0332 21.0111 56.2462 21.9101 56.4342C22.8091 56.6222 23.9841 55.9342 24.9031 55.3952C25.7571 54.8444 26.7544 54.557 27.7706 54.5689C28.7869 54.5809 29.7771 54.8915 30.6181 55.4622C31.132 55.7266 31.6628 55.9568 32.2071 56.1512L31.0471 58.9632C30.1391 58.5952 29.3091 58.1972 28.4391 57.9312C27.9779 57.7825 27.4825 57.7769 27.0181 57.9152C25.3061 58.5312 23.6144 59.2012 21.9431 59.9252C21.7014 60.0631 21.4172 60.1065 21.1454 60.0468C20.8736 59.9871 20.6337 59.8287 20.4721 59.6022C18.9874 58.0568 17.4724 56.5412 15.9271 55.0552C15.7104 54.9044 15.5585 54.6775 15.5016 54.4197C15.4447 54.1619 15.487 53.8922 15.6201 53.6642C16.3371 52.0272 16.9301 50.3362 17.6391 48.6942C17.8506 48.139 17.847 47.5248 17.6291 46.9722C17.4474 46.1693 17.0442 45.4336 16.4653 44.8484C15.8864 44.2633 15.1549 43.8523 14.3541 43.6622C13.1371 43.3042 12.0091 42.6542 10.8181 42.1952C10.5914 42.1335 10.3958 41.9899 10.2689 41.7922C10.142 41.5946 10.0929 41.3569 10.1311 41.1252C10.1611 38.9182 10.1661 36.7102 10.1311 34.5032C10.0914 34.257 10.1439 34.0049 10.2783 33.795C10.4128 33.5851 10.6199 33.4321 10.8601 33.3652C12.5191 32.7002 14.1431 31.9462 15.8021 31.2802C16.3485 31.0424 16.7881 30.6116 17.0371 30.0702C17.4751 29.3727 17.711 28.5672 17.7184 27.7436C17.7258 26.92 17.5045 26.1105 17.0791 25.4052C16.4791 24.2832 16.1321 23.0352 15.6271 21.8622C15.5007 21.6661 15.452 21.43 15.4904 21.1999C15.5289 20.9699 15.6518 20.7624 15.8351 20.6182C17.4697 19.0475 19.0751 17.4438 20.6511 15.8072C20.7863 15.6359 20.9795 15.52 21.1943 15.4813C21.4091 15.4426 21.6306 15.4838 21.8171 15.5972C23.4981 16.2972 25.2061 16.9282 26.8761 17.6502C27.4296 17.8653 28.0436 17.8653 28.5971 17.6502C29.4014 17.4665 30.1381 17.0611 30.7237 16.4799C31.3093 15.8987 31.7203 15.1651 31.9101 14.3622C32.324 13.1193 32.8408 11.9132 33.4551 10.7562C33.5517 10.5979 33.6828 10.4634 33.8387 10.3628C33.9945 10.2622 34.171 10.1981 34.3551 10.1752C36.6571 10.1265 38.9597 10.1265 41.2631 10.1752C41.4459 10.2034 41.6199 10.2729 41.772 10.3782C41.9241 10.4835 42.0503 10.622 42.1411 10.7832C42.9057 12.4345 43.6254 14.1062 44.3001 15.7982C44.5357 16.3452 44.9652 16.7857 45.5061 17.0352C46.2189 17.4783 47.0406 17.715 47.88 17.7189C48.7193 17.7228 49.5432 17.4937 50.2601 17.0572C51.4371 16.4842 52.6515 15.9914 53.8951 15.5822C54.0298 15.5325 54.1739 15.5134 54.3169 15.5262C54.4599 15.539 54.5983 15.5834 54.7221 15.6562C56.1301 17.0022 57.4971 18.3912 58.8401 19.7292" fill="#0D4D75"/>
<path d="M58.8341 19.7272L56.6341 22.0272C55.8341 21.1742 55.0451 20.3822 54.3161 19.5392C54.1693 19.315 53.9405 19.1573 53.6789 19.0997C53.4172 19.0422 53.1434 19.0894 52.9161 19.2312C51.4871 19.8642 50.0331 20.4502 48.5601 20.9732C48.098 21.1259 47.5991 21.1259 47.1371 20.9732C45.7281 20.4612 44.3431 19.8732 42.9801 19.2502C42.5921 19.0634 42.2759 18.7547 42.0801 18.3712C41.3911 16.8962 40.7501 15.3972 40.1501 13.8832C40.0913 13.6567 39.9496 13.4606 39.7532 13.3336C39.5567 13.2065 39.3197 13.1579 39.0891 13.1972C37.9731 13.2382 36.8541 13.2092 35.7071 13.2092C34.9641 14.9442 34.2631 16.6592 33.4851 18.3372C33.2767 18.7487 32.9396 19.0808 32.5251 19.2832C31.1641 19.9132 29.7741 20.4832 28.3701 21.0102C27.965 21.1471 27.5261 21.1471 27.1211 21.0102C25.5921 20.4512 24.0861 19.8302 22.5851 19.1982C22.3855 19.0736 22.1462 19.0292 21.9152 19.0739C21.6842 19.1186 21.4787 19.2491 21.3401 19.4392C20.6011 20.2762 19.3401 20.9542 19.1401 21.8812C18.9401 22.8082 19.6551 24.0102 20.1961 24.9642C21.2731 26.8642 21.0131 28.5572 20.2031 30.5272C19.4031 32.4762 18.4031 33.8362 16.3231 34.4022C15.2531 34.7697 14.2102 35.2118 13.2021 35.7252C13.2021 36.9552 13.1691 38.1702 13.2291 39.3802C13.2669 39.5319 13.338 39.6734 13.4371 39.7944C13.5361 39.9155 13.6608 40.0131 13.8021 40.0802C15.2831 40.7572 16.8021 41.3462 18.2741 42.0462C18.711 42.2693 19.0647 42.6268 19.2831 43.0662C19.9061 44.3952 20.4701 45.7562 20.9671 47.1362C21.1169 47.5991 21.1144 48.0978 20.9601 48.5592C20.4371 50.0322 19.8531 51.4872 19.2191 52.9162C19.0797 53.1443 19.0342 53.4176 19.092 53.6786C19.1498 53.9397 19.3064 54.1682 19.5291 54.3162C20.3411 55.0332 21.0111 56.2462 21.9101 56.4342C22.8091 56.6222 23.9841 55.9342 24.9031 55.3952C25.7571 54.8444 26.7544 54.557 27.7706 54.5689C28.7869 54.5809 29.7771 54.8915 30.6181 55.4622C31.132 55.7266 31.6628 55.9568 32.2071 56.1512L31.0471 58.9632C30.1391 58.5952 29.3091 58.1972 28.4391 57.9312C27.9779 57.7825 27.4825 57.7769 27.0181 57.9152C25.3061 58.5312 23.6144 59.2012 21.9431 59.9252C21.7014 60.0631 21.4172 60.1065 21.1454 60.0468C20.8736 59.9871 20.6337 59.8287 20.4721 59.6022C18.9874 58.0568 17.4724 56.5412 15.9271 55.0552C15.7104 54.9044 15.5585 54.6775 15.5016 54.4197C15.4447 54.1619 15.487 53.8922 15.6201 53.6642C16.3371 52.0272 16.9301 50.3362 17.6391 48.6942C17.8506 48.139 17.847 47.5248 17.6291 46.9722C17.4474 46.1693 17.0442 45.4336 16.4653 44.8484C15.8864 44.2633 15.1549 43.8523 14.3541 43.6622C13.1371 43.3042 12.0091 42.6542 10.8181 42.1952C10.5914 42.1335 10.3958 41.9899 10.2689 41.7922C10.142 41.5946 10.0929 41.3569 10.1311 41.1252C10.1611 38.9182 10.1661 36.7102 10.1311 34.5032C10.0914 34.257 10.1439 34.0049 10.2783 33.795C10.4128 33.5851 10.6199 33.4321 10.8601 33.3652C12.5191 32.7002 14.1431 31.9462 15.8021 31.2802C16.3485 31.0424 16.7881 30.6116 17.0371 30.0702C17.4751 29.3727 17.711 28.5672 17.7184 27.7436C17.7258 26.92 17.5045 26.1105 17.0791 25.4052C16.4791 24.2832 16.1321 23.0352 15.6271 21.8622C15.5007 21.6661 15.452 21.43 15.4904 21.1999C15.5289 20.9699 15.6518 20.7624 15.8351 20.6182C17.4697 19.0475 19.0751 17.4438 20.6511 15.8072C20.7863 15.6359 20.9795 15.52 21.1943 15.4813C21.4091 15.4426 21.6306 15.4838 21.8171 15.5972C23.4981 16.2972 25.2061 16.9282 26.8761 17.6502C27.4296 17.8653 28.0436 17.8653 28.5971 17.6502C29.4014 17.4665 30.1381 17.0611 30.7237 16.4799C31.3093 15.8987 31.7203 15.1651 31.9101 14.3622C32.324 13.1193 32.8408 11.9132 33.4551 10.7562C33.5517 10.5979 33.6828 10.4634 33.8387 10.3628C33.9945 10.2622 34.171 10.1981 34.3551 10.1752C36.6571 10.1265 38.9597 10.1265 41.2631 10.1752C41.4459 10.2034 41.6199 10.2729 41.772 10.3782C41.9241 10.4835 42.0503 10.622 42.1411 10.7832C42.9057 12.4345 43.6254 14.1062 44.3001 15.7982C44.5357 16.3452 44.9652 16.7857 45.5061 17.0352C46.2189 17.4783 47.0406 17.715 47.88 17.7189C48.7193 17.7228 49.5432 17.4937 50.2601 17.0572C51.4371 16.4842 52.6515 15.9914 53.8951 15.5822C54.0298 15.5325 54.1739 15.5134 54.3169 15.5262C54.4599 15.539 54.5983 15.5834 54.7221 15.6562C56.1301 17.0022 57.4971 18.3912 58.8401 19.7292" stroke="white" stroke-width="2.5"/>
<path d="M32.2953 48.8711L30.9953 51.4601C26.2803 49.7071 22.4953 43.7131 22.4353 37.9951C22.3733 32.0881 26.0633 26.0571 30.9943 24.1191L32.2943 26.7101C30.2584 27.7583 28.5506 29.3472 27.3586 31.3024C26.1666 33.2576 25.5365 35.5035 25.5374 37.7934C25.5384 40.0833 26.1703 42.3287 27.3639 44.2829C28.5575 46.2371 30.2665 47.8247 32.3033 48.8711" fill="url(#paint1_linear_1066_2131)"/>
<path d="M32.2953 48.8711L30.9953 51.4601C26.2803 49.7071 22.4953 43.7131 22.4353 37.9951C22.3733 32.0881 26.0633 26.0571 30.9943 24.1191L32.2943 26.7101C30.2584 27.7583 28.5506 29.3472 27.3586 31.3024C26.1666 33.2576 25.5365 35.5035 25.5374 37.7934C25.5384 40.0833 26.1703 42.3287 27.3639 44.2829C28.5575 46.2371 30.2665 47.8247 32.3033 48.8711" stroke="#F5F5F5" stroke-width="1.5"/>
<path d="M54.3569 53.4378L52.1879 55.5968L43.5879 46.9968L52.1629 38.4258L54.0899 40.4328L47.6979 46.7958L54.3549 53.4378" fill="url(#paint2_linear_1066_2131)"/>
<path d="M54.3569 53.4378L52.1879 55.5968L43.5879 46.9968L52.1629 38.4258L54.0899 40.4328L47.6979 46.7958L54.3549 53.4378" stroke="#F5F5F5" stroke-width="1.5"/>
<path d="M72.4948 55.5673L70.6048 53.5733L77.1118 47.0833L70.4668 40.4783L72.5888 38.5723L81.0458 47.0303L72.4958 55.5673" fill="url(#paint3_linear_1066_2131)"/>
<path d="M72.4948 55.5673L70.6048 53.5733L77.1118 47.0833L70.4668 40.4783L72.5888 38.5723L81.0458 47.0303L72.4958 55.5673" stroke="#F5F5F5" stroke-width="1.5"/>
<path d="M65.6478 40.1465L68.3278 41.6465L60.6488 55.4575L57.9658 53.9675L65.6478 40.1505" fill="url(#paint4_linear_1066_2131)"/>
<path d="M65.6478 40.1465L68.3278 41.6465L60.6488 55.4575L57.9658 53.9675L65.6478 40.1505" stroke="#F5F5F5" stroke-width="1.5"/>
</g>
<defs>
<linearGradient id="paint0_linear_1066_2131" x1="56.4623" y1="84.8354" x2="101.189" y2="36.6799" gradientUnits="userSpaceOnUse">
<stop stop-color="#9358F7"/>
<stop offset="0.259732" stop-color="#7B78F2"/>
<stop offset="0.500607" stop-color="#6197EE"/>
<stop offset="0.766547" stop-color="#45B5E9"/>
<stop offset="1" stop-color="#10D7E2"/>
</linearGradient>
<linearGradient id="paint1_linear_1066_2131" x1="26.3161" y1="64.2391" x2="42.2031" y2="59.6059" gradientUnits="userSpaceOnUse">
<stop stop-color="#9358F7"/>
<stop offset="0.259732" stop-color="#7B78F2"/>
<stop offset="0.500607" stop-color="#6197EE"/>
<stop offset="0.766547" stop-color="#45B5E9"/>
<stop offset="1" stop-color="#10D7E2"/>
</linearGradient>
<linearGradient id="paint2_linear_1066_2131" x1="47.8235" y1="63.6224" x2="62.791" y2="56.038" gradientUnits="userSpaceOnUse">
<stop stop-color="#9358F7"/>
<stop offset="0.259732" stop-color="#7B78F2"/>
<stop offset="0.500607" stop-color="#6197EE"/>
<stop offset="0.766547" stop-color="#45B5E9"/>
<stop offset="1" stop-color="#10D7E2"/>
</linearGradient>
<linearGradient id="paint3_linear_1066_2131" x1="74.6276" y1="63.5106" x2="89.3759" y2="56.0932" gradientUnits="userSpaceOnUse">
<stop stop-color="#9358F7"/>
<stop offset="0.259732" stop-color="#7B78F2"/>
<stop offset="0.500607" stop-color="#6197EE"/>
<stop offset="0.766547" stop-color="#45B5E9"/>
<stop offset="1" stop-color="#10D7E2"/>
</linearGradient>
<linearGradient id="paint4_linear_1066_2131" x1="62.0413" y1="62.6137" x2="75.975" y2="54.9948" gradientUnits="userSpaceOnUse">
<stop stop-color="#9358F7"/>
<stop offset="0.259732" stop-color="#7B78F2"/>
<stop offset="0.500607" stop-color="#6197EE"/>
<stop offset="0.766547" stop-color="#45B5E9"/>
<stop offset="1" stop-color="#10D7E2"/>
</linearGradient>
<clipPath id="clip0_1066_2131">
<rect width="100" height="100" fill="white"/>
</clipPath>
</defs>
</svg>
