<svg width="100" height="100" viewBox="0 0 100 100" fill="none" xmlns="http://www.w3.org/2000/svg">
<g clip-path="url(#clip0_1066_2144)">
<path d="M61.2479 81.0017L62.2959 87.2737C64.5959 86.5287 65.5959 88.0657 66.6489 89.5857C67.6169 90.9857 68.6719 92.3167 69.6989 93.6697C69.9408 93.9073 70.1029 94.2142 70.1625 94.548C70.2222 94.8819 70.1765 95.226 70.0319 95.5327C69.873 95.8313 69.6273 96.0746 69.3271 96.2305C69.0269 96.3864 68.6865 96.4475 68.3509 96.4057C56.2589 96.4003 44.1672 96.4003 32.0759 96.4057C31.7249 96.4556 31.367 96.3939 31.053 96.2293C30.739 96.0648 30.4846 95.8057 30.3259 95.4887C30.195 95.1766 30.1619 94.8322 30.231 94.501C30.3001 94.1698 30.4681 93.8673 30.7129 93.6337C31.9909 91.9477 33.3049 90.2837 34.5009 88.5407C34.7673 88.0461 35.1814 87.647 35.6855 87.3989C36.1895 87.1508 36.7584 87.0661 37.3129 87.1567C37.5749 87.1731 37.8378 87.1731 38.0999 87.1567C38.4409 85.1237 38.7759 83.1177 39.1309 80.9967H9.23086C5.83086 80.9967 4.00586 79.1747 4.00586 75.7707C4.00586 59.7307 4.00586 43.6907 4.00586 27.6507C4.00586 24.3167 5.84786 22.4807 9.18686 22.4777H13.2439V21.4027C13.2439 17.2647 13.2439 13.1263 13.2439 8.98766C13.1906 8.31983 13.2828 7.64838 13.5142 7.01966C13.7456 6.39093 14.1107 5.81991 14.5843 5.34599C15.0578 4.87206 15.6285 4.50653 16.2571 4.27461C16.8856 4.04269 17.557 3.94991 18.2249 4.00266C27.2375 3.99866 36.2502 3.99866 45.2629 4.00266C45.9231 3.95603 46.5856 4.05193 47.2055 4.28385C47.8254 4.51577 48.3882 4.87829 48.8557 5.34683C49.3232 5.81536 49.6845 6.37895 49.915 6.99938C50.1455 7.6198 50.24 8.28254 50.1919 8.94266C50.1999 13.0807 50.1999 17.219 50.1919 21.3577V22.4807H91.1509C94.5579 22.4807 96.3799 24.2977 96.3799 27.7017C96.3799 43.7417 96.3799 59.7817 96.3799 75.8217C96.3799 79.1607 94.5409 80.9987 91.2029 80.9997C81.6449 80.9997 72.0869 80.9997 62.5289 80.9997L61.2479 81.0017ZM13.2379 25.6657C13.1435 25.6256 13.0453 25.5951 12.9449 25.5747C11.7262 25.5673 10.5079 25.563 9.28986 25.5617C7.52286 25.5617 7.07986 26.0057 7.07986 27.7767C7.07986 41.056 7.07986 54.3357 7.07986 67.6157V68.6067H93.3019V67.5767C93.3019 54.3287 93.3019 41.081 93.3019 27.8337C93.3019 25.9927 92.8759 25.5617 91.0499 25.5617H50.1899V26.7817C50.1899 38.0083 50.1899 49.2353 50.1899 60.4627C50.1899 63.7417 48.3379 65.6007 45.0709 65.6007C36.1875 65.6007 27.3042 65.6007 18.4209 65.6007C15.0819 65.6007 13.2399 63.7617 13.2399 60.4287C13.2399 49.234 13.2399 38.0393 13.2399 26.8447L13.2379 25.6657ZM16.3169 34.8007C16.3169 43.3027 16.3169 51.8043 16.3169 60.3057C16.3169 62.0737 16.7629 62.5197 18.5299 62.5197H44.8969C46.6609 62.5197 47.1099 62.0707 47.1099 60.3037C47.1099 43.3003 47.1099 26.2967 47.1099 9.29266C47.1099 7.52666 46.6629 7.08066 44.8949 7.07966H18.5299C16.7619 7.07966 16.3189 7.52366 16.3179 9.29366C16.3179 17.7957 16.3179 26.2977 16.3179 34.7997M7.08186 71.7947C7.08186 73.0947 7.08186 74.3077 7.08186 75.5207C7.08186 77.5437 7.46086 77.9207 9.49286 77.9207H90.8679C91.2202 77.9389 91.5735 77.9318 91.9249 77.8997C92.2686 77.8863 92.5952 77.746 92.8416 77.5059C93.088 77.2658 93.2366 76.943 93.2589 76.5997C93.3289 75.0117 93.2809 73.4187 93.2809 71.7997L7.08186 71.7947ZM41.2449 87.1177H59.1349C58.7919 85.0527 58.4589 83.0467 58.1229 81.0307H42.2559L41.2449 87.1177ZM65.5449 93.2667C64.7949 92.2667 64.1449 91.3667 63.4449 90.5087C63.2339 90.3294 62.9624 90.2374 62.6859 90.2517C54.3525 90.239 46.0192 90.239 37.6859 90.2517C37.4096 90.2384 37.1387 90.3314 36.9289 90.5117C36.2289 91.3687 35.5809 92.2707 34.8289 93.2667H65.5449Z" fill="black"/>
<path d="M16.3169 34.8007C16.3169 43.3027 16.3169 51.8043 16.3169 60.3057C16.3169 62.0737 16.7629 62.5197 18.5299 62.5197H44.8969C46.6609 62.5197 47.1099 62.0707 47.1099 60.3037C47.1099 43.3003 47.1099 26.2967 47.1099 9.29266C47.1099 7.52666 46.6629 7.08066 44.8949 7.07966H18.5299C16.7619 7.07966 16.3189 7.52366 16.3179 9.29366C16.3179 17.7957 16.3179 26.2977 16.3179 34.7997M61.2479 81.0017L62.2959 87.2737C64.5959 86.5287 65.5959 88.0657 66.6489 89.5857C67.6169 90.9857 68.6719 92.3167 69.6989 93.6697C69.9408 93.9073 70.1029 94.2142 70.1625 94.548C70.2222 94.8819 70.1765 95.226 70.0319 95.5327C69.873 95.8313 69.6273 96.0746 69.3271 96.2305C69.0269 96.3864 68.6865 96.4475 68.3509 96.4057C56.2589 96.4003 44.1672 96.4003 32.0759 96.4057C31.7249 96.4556 31.367 96.3939 31.053 96.2293C30.739 96.0648 30.4846 95.8057 30.3259 95.4887C30.195 95.1766 30.1619 94.8322 30.231 94.501C30.3001 94.1698 30.4681 93.8673 30.7129 93.6337C31.9909 91.9477 33.3049 90.2837 34.5009 88.5407C34.7673 88.0461 35.1814 87.647 35.6855 87.3989C36.1895 87.1508 36.7584 87.0661 37.3129 87.1567C37.5749 87.1731 37.8378 87.1731 38.0999 87.1567C38.4409 85.1237 38.7759 83.1177 39.1309 80.9967H9.23086C5.83086 80.9967 4.00586 79.1747 4.00586 75.7707C4.00586 59.7307 4.00586 43.6907 4.00586 27.6507C4.00586 24.3167 5.84786 22.4807 9.18686 22.4777H13.2439V21.4027C13.2439 17.2647 13.2439 13.1263 13.2439 8.98766C13.1906 8.31983 13.2828 7.64838 13.5142 7.01966C13.7456 6.39093 14.1107 5.81991 14.5843 5.34599C15.0578 4.87206 15.6285 4.50653 16.2571 4.27461C16.8856 4.04269 17.557 3.94991 18.2249 4.00266C27.2375 3.99866 36.2502 3.99866 45.2629 4.00266C45.9231 3.95603 46.5856 4.05193 47.2055 4.28385C47.8254 4.51577 48.3882 4.87829 48.8557 5.34683C49.3232 5.81536 49.6845 6.37895 49.915 6.99938C50.1455 7.6198 50.24 8.28254 50.1919 8.94266C50.1999 13.0807 50.1999 17.219 50.1919 21.3577V22.4807H91.1509C94.5579 22.4807 96.3799 24.2977 96.3799 27.7017C96.3799 43.7417 96.3799 59.7817 96.3799 75.8217C96.3799 79.1607 94.5409 80.9987 91.2029 80.9997C81.6449 80.9997 72.0869 80.9997 62.5289 80.9997L61.2479 81.0017ZM13.2379 25.6657C13.1435 25.6256 13.0453 25.5951 12.9449 25.5747C11.7262 25.5673 10.5079 25.563 9.28986 25.5617C7.52286 25.5617 7.07986 26.0057 7.07986 27.7767C7.07986 41.056 7.07986 54.3357 7.07986 67.6157V68.6067H93.3019V67.5767C93.3019 54.3287 93.3019 41.081 93.3019 27.8337C93.3019 25.9927 92.8759 25.5617 91.0499 25.5617H50.1899V26.7817C50.1899 38.0083 50.1899 49.2353 50.1899 60.4627C50.1899 63.7417 48.3379 65.6007 45.0709 65.6007C36.1875 65.6007 27.3042 65.6007 18.4209 65.6007C15.0819 65.6007 13.2399 63.7617 13.2399 60.4287C13.2399 49.234 13.2399 38.0393 13.2399 26.8447L13.2379 25.6657ZM7.08186 71.7947C7.08186 73.0947 7.08186 74.3077 7.08186 75.5207C7.08186 77.5437 7.46086 77.9207 9.49286 77.9207H90.8679C91.2202 77.9389 91.5735 77.9318 91.9249 77.8997C92.2686 77.8863 92.5952 77.746 92.8416 77.5059C93.088 77.2658 93.2366 76.943 93.2589 76.5997C93.3289 75.0117 93.2809 73.4187 93.2809 71.7997L7.08186 71.7947ZM41.2449 87.1177H59.1349C58.7919 85.0527 58.4589 83.0467 58.1229 81.0307H42.2559L41.2449 87.1177ZM65.5449 93.2667C64.7949 92.2667 64.1449 91.3667 63.4449 90.5087C63.2339 90.3294 62.9624 90.2374 62.6859 90.2517C54.3525 90.239 46.0192 90.239 37.6859 90.2517C37.4096 90.2384 37.1387 90.3314 36.9289 90.5117C36.2289 91.3687 35.5809 92.2707 34.8289 93.2667H65.5449Z" stroke="#F5F5F5" stroke-width="1.5"/>
<path d="M84.0155 56.4141H53.3105V59.3731H84.0155V56.4141Z" fill="black" stroke="#F5F5F5" stroke-width="1.5"/>
<path d="M90.1778 62.5898H59.5068V65.5528H90.1778V62.5898Z" fill="black" stroke="#F5F5F5" stroke-width="1.5"/>
<path d="M56.8871 39.2879L65.1161 47.5139L62.6701 49.7449C62.4624 49.397 62.2245 49.0681 61.9591 48.7619C59.3431 46.1209 56.7081 43.4989 54.0821 40.8619C52.9891 39.7619 52.9761 39.0739 54.0391 38.0089C56.9791 35.0619 59.9261 32.1209 62.9181 29.1289L64.9181 31.3869L56.8821 39.2869" fill="url(#paint0_linear_1066_2144)"/>
<path d="M56.8871 39.2879L65.1161 47.5139L62.6701 49.7449C62.4624 49.397 62.2245 49.0681 61.9591 48.7619C59.3431 46.1209 56.7081 43.4989 54.0821 40.8619C52.9891 39.7619 52.9761 39.0739 54.0391 38.0089C56.9791 35.0619 59.9261 32.1209 62.9181 29.1289L64.9181 31.3869L56.8821 39.2869" stroke="#F5F5F5" stroke-width="1.5"/>
<path d="M80.6245 49.6223L78.4835 47.4763L86.4955 39.4973L78.3145 31.3383L80.6145 29.2383C80.7285 29.3383 80.9465 29.5063 81.1405 29.7003C83.8838 32.4396 86.6251 35.1813 89.3645 37.9253C90.5235 39.0873 90.5225 39.7553 89.3585 40.9253C86.6425 43.6473 83.9238 46.3663 81.2025 49.0823C81.0025 49.2823 80.7865 49.4693 80.6195 49.6243" fill="url(#paint1_linear_1066_2144)"/>
<path d="M80.6245 49.6223L78.4835 47.4763L86.4955 39.4973L78.3145 31.3383L80.6145 29.2383C80.7285 29.3383 80.9465 29.5063 81.1405 29.7003C83.8838 32.4396 86.6251 35.1813 89.3645 37.9253C90.5235 39.0873 90.5225 39.7553 89.3585 40.9253C86.6425 43.6473 83.9238 46.3663 81.2025 49.0823C81.0025 49.2823 80.7865 49.4693 80.6195 49.6243" stroke="#F5F5F5" stroke-width="1.5"/>
<path d="M74.9058 26.5918L77.7858 27.6718L68.5587 52.2878L65.6768 51.2148L74.9058 26.5918Z" fill="url(#paint2_linear_1066_2144)" stroke="#F5F5F5" stroke-width="1.5"/>
<path d="M90.1482 56.4121H87.2002V59.4071H90.1482V56.4121Z" fill="black" stroke="white" stroke-width="2.5"/>
<path d="M56.2864 62.5586H53.3154V65.5476H56.2864V62.5586Z" fill="black" stroke="white" stroke-width="2.5"/>
<path d="M25.5563 30.1831C24.0513 30.1831 22.6763 30.1901 21.3023 30.1831C19.9693 30.1741 19.4073 29.6361 19.4023 28.3371C19.3933 26.4771 19.4073 24.6171 19.4163 22.7571C19.4338 22.6802 19.4621 22.6061 19.5003 22.5371H22.4363V27.0871H30.1253V30.1381L28.6963 30.2231V33.2361H37.7963V36.3281H33.2963V42.4651H43.9703V45.5851H41.3763C38.2663 45.5851 35.1563 45.5911 32.0463 45.5851C30.7293 45.5851 30.1833 45.0301 30.1783 43.7061C30.1683 41.3061 30.1783 38.8991 30.1783 36.3481C29.2293 36.3481 28.3143 36.3571 27.3993 36.3481C26.1313 36.3281 25.5723 35.7771 25.5623 34.5281C25.5483 33.1221 25.5623 31.7161 25.5623 30.1851" fill="url(#paint3_linear_1066_2144)"/>
<path d="M25.5563 30.1831C24.0513 30.1831 22.6763 30.1901 21.3023 30.1831C19.9693 30.1741 19.4073 29.6361 19.4023 28.3371C19.3933 26.4771 19.4073 24.6171 19.4163 22.7571C19.4338 22.6802 19.4621 22.6061 19.5003 22.5371H22.4363V27.0871H30.1253V30.1381L28.6963 30.2231V33.2361H37.7963V36.3281H33.2963V42.4651H43.9703V45.5851H41.3763C38.2663 45.5851 35.1563 45.5911 32.0463 45.5851C30.7293 45.5851 30.1833 45.0301 30.1783 43.7061C30.1683 41.3061 30.1783 38.8991 30.1783 36.3481C29.2293 36.3481 28.3143 36.3571 27.3993 36.3481C26.1313 36.3281 25.5723 35.7771 25.5623 34.5281C25.5483 33.1221 25.5623 31.7161 25.5623 30.1851" stroke="#F5F5F5" stroke-width="1.5"/>
<path d="M44.0094 56.3507V59.4417H43.0734C37.4328 59.4417 31.7918 59.4417 26.1504 59.4417C24.5014 59.4417 24.0204 58.9657 24.0164 57.3417C24.0164 56.0317 24.0164 54.7217 24.0164 53.2777C22.9824 53.2777 22.0014 53.2997 21.0224 53.2717C20.8208 53.2893 20.6177 53.2652 20.4258 53.2008C20.234 53.1364 20.0575 53.0331 19.9073 52.8974C19.7571 52.7617 19.6366 52.5965 19.5532 52.4121C19.4697 52.2277 19.4252 52.0281 19.4224 51.8257C19.3784 49.7817 19.4084 47.7367 19.4084 45.6367H22.4274V50.1747H30.1204V53.2317H27.1674V56.3537L44.0094 56.3507Z" fill="url(#paint4_linear_1066_2144)" stroke="#F5F5F5" stroke-width="1.5"/>
<path d="M39.3655 14.7795V17.8175C39.0655 17.8315 38.7545 17.8595 38.4475 17.8595C32.8102 17.8595 27.1732 17.8595 21.5365 17.8595C19.8555 17.8595 19.3985 17.3895 19.3965 15.6735C19.3965 13.8825 19.3965 12.0915 19.3965 10.2305H22.4655V14.7785L39.3655 14.7795Z" fill="url(#paint5_linear_1066_2144)" stroke="#F5F5F5" stroke-width="1.5"/>
<path d="M51.654 73.3203H48.71V76.3153H51.654V73.3203Z" fill="black" stroke="white" stroke-width="2.5"/>
</g>
<defs>
<linearGradient id="paint0_linear_1066_2144" x1="57.9183" y1="59.3807" x2="74.958" y2="51.4578" gradientUnits="userSpaceOnUse">
<stop stop-color="#9358F7"/>
<stop offset="0.259732" stop-color="#7B78F2"/>
<stop offset="0.500607" stop-color="#6197EE"/>
<stop offset="0.766547" stop-color="#45B5E9"/>
<stop offset="1" stop-color="#10D7E2"/>
</linearGradient>
<linearGradient id="paint1_linear_1066_2144" x1="83.002" y1="59.1525" x2="100.022" y2="51.1129" gradientUnits="userSpaceOnUse">
<stop stop-color="#9358F7"/>
<stop offset="0.259732" stop-color="#7B78F2"/>
<stop offset="0.500607" stop-color="#6197EE"/>
<stop offset="0.766547" stop-color="#45B5E9"/>
<stop offset="1" stop-color="#10D7E2"/>
</linearGradient>
<linearGradient id="paint2_linear_1066_2144" x1="70.4394" y1="64.2979" x2="88.9127" y2="57.2643" gradientUnits="userSpaceOnUse">
<stop stop-color="#9358F7"/>
<stop offset="0.259732" stop-color="#7B78F2"/>
<stop offset="0.500607" stop-color="#6197EE"/>
<stop offset="0.766547" stop-color="#45B5E9"/>
<stop offset="1" stop-color="#10D7E2"/>
</linearGradient>
<linearGradient id="paint3_linear_1066_2144" x1="29.0635" y1="56.3615" x2="53.7048" y2="35.1392" gradientUnits="userSpaceOnUse">
<stop stop-color="#9358F7"/>
<stop offset="0.259732" stop-color="#7B78F2"/>
<stop offset="0.500607" stop-color="#6197EE"/>
<stop offset="0.766547" stop-color="#45B5E9"/>
<stop offset="1" stop-color="#10D7E2"/>
</linearGradient>
<linearGradient id="paint4_linear_1066_2144" x1="29.0783" y1="65.8941" x2="43.0596" y2="45.7554" gradientUnits="userSpaceOnUse">
<stop stop-color="#9358F7"/>
<stop offset="0.259732" stop-color="#7B78F2"/>
<stop offset="0.500607" stop-color="#6197EE"/>
<stop offset="0.766547" stop-color="#45B5E9"/>
<stop offset="1" stop-color="#10D7E2"/>
</linearGradient>
<linearGradient id="paint5_linear_1066_2144" x1="27.2506" y1="21.4252" x2="33.6243" y2="7.94577" gradientUnits="userSpaceOnUse">
<stop stop-color="#9358F7"/>
<stop offset="0.259732" stop-color="#7B78F2"/>
<stop offset="0.500607" stop-color="#6197EE"/>
<stop offset="0.766547" stop-color="#45B5E9"/>
<stop offset="1" stop-color="#10D7E2"/>
</linearGradient>
<clipPath id="clip0_1066_2144">
<rect width="100" height="100" fill="white"/>
</clipPath>
</defs>
</svg>
