<svg width="58" height="58" viewBox="0 0 58 58" fill="none" xmlns="http://www.w3.org/2000/svg">
<g clip-path="url(#clip0_1058_2031)">
<path d="M18.5614 8.00391C17.292 8.00667 16.0495 8.72955 15.4105 9.8322L5.47188 27.1512C4.84271 28.2568 4.84271 29.702 5.47188 30.8076L15.4105 48.1268C16.0495 49.2295 17.292 49.9526 18.5614 49.9551H38.4387C39.7081 49.9524 40.9506 49.2295 41.5895 48.1268L51.5282 30.8076C52.1574 29.702 52.1572 28.2568 51.5282 27.1512L41.5895 9.8322C40.9506 8.72937 39.7081 8.00648 38.4387 8.00391H18.5614ZM18.7419 18.1359C18.7692 18.1331 18.7979 18.1331 18.8252 18.1359H22.2536C22.3298 18.1384 22.4041 18.1601 22.4697 18.1992C22.5352 18.2382 22.5899 18.2932 22.6285 18.3591L28.4446 28.7561C28.474 28.8077 28.4927 28.8648 28.4997 28.9237C28.507 28.8648 28.5257 28.8077 28.5551 28.7561L34.3572 18.3591C34.3972 18.2913 34.4541 18.2351 34.5222 18.196C34.5903 18.1569 34.6674 18.1362 34.7459 18.1359H38.1745C38.478 18.1385 38.7055 18.5221 38.5632 18.7917L32.8859 28.9795L38.5632 39.1533C38.7189 39.4244 38.4861 39.8257 38.1745 39.8232H34.7459C34.666 39.8215 34.588 39.7986 34.5198 39.757C34.4515 39.7153 34.3954 39.6563 34.3572 39.5859L28.5551 29.1887C28.5257 29.1374 28.507 29.0801 28.4999 29.0213C28.4927 29.0803 28.4739 29.1373 28.4446 29.1889L22.6283 39.5859C22.5914 39.6543 22.5375 39.712 22.4719 39.7536C22.4064 39.7951 22.3313 39.8191 22.2538 39.8232H18.825C18.5135 39.8259 18.2807 39.4244 18.4364 39.1533L24.1136 28.9795L18.4364 18.7917C18.3003 18.5457 18.4665 18.1884 18.7419 18.1359Z" fill="white"/>
</g>
<defs>
<clipPath id="clip0_1058_2031">
<rect width="47" height="42" fill="white" transform="translate(5 8)"/>
</clipPath>
</defs>
</svg>
