<svg width="72" height="57" viewBox="0 0 72 57" fill="none" xmlns="http://www.w3.org/2000/svg">
<g clip-path="url(#clip0_1021_885)">
<path d="M10.9923 39.2998L7.26199 40.6627L7.06348 51.7587L19.9757 47.0418C15.5433 45.5574 12.3107 42.9412 10.9923 39.2998Z" fill="#FDBD39"/>
<path d="M12.9448 27.564L0 32.2927L7.26203 40.6658L10.9923 39.3029C9.67678 35.6734 10.4886 31.5757 12.9448 27.564Z" fill="#F69833"/>
<path d="M34.725 11.5494C18.2424 17.57 7.61456 29.9963 10.9923 39.2998L70.6796 17.4959C67.3019 8.19247 51.2075 5.52883 34.725 11.5494Z" fill="#FECF33"/>
<path d="M46.9439 45.2494C63.4264 39.2288 74.0721 26.8588 70.6766 17.499L10.9893 39.2999C14.3847 48.6627 30.4613 51.27 46.9439 45.2494Z" fill="#EE6723"/>
<path d="M70.6766 17.4956L10.9922 39.2995C12.1596 42.5231 16.6187 44.1112 22.8704 44.1112C28.968 44.1112 36.7723 42.6031 44.9083 39.6313C61.3909 33.6107 72.9846 23.8599 70.6766 17.4956Z" fill="#F69833"/>
<path d="M58.7984 12.687C52.7037 12.687 44.8965 14.1951 36.7605 17.1669C20.2779 23.1875 8.68416 32.9354 10.9922 39.2997L70.6796 17.4958C69.5092 14.2722 65.0531 12.687 58.7984 12.687Z" fill="#FDBD39"/>
<path d="M55.5008 52.3483C53.7438 52.3483 51.1543 50.7632 47.8003 47.6344C43.833 43.9337 39.2909 38.5116 35.0036 32.3696C30.7192 26.2275 27.1993 20.0884 25.0898 15.0782C22.7935 9.62055 22.4646 6.26656 24.115 5.10511C24.4972 4.84437 24.9505 4.71104 25.4127 4.72289C26.7549 4.72289 29.3741 5.72139 34.2125 10.4857L34.3191 10.5894L34.3043 10.7376C34.2717 11.0812 34.2421 11.4249 34.2154 11.7657L34.1621 12.4382L33.688 11.9612C28.4734 6.70803 26.1801 6.14212 25.4334 6.14212C25.2201 6.14212 25.0512 6.1836 24.9298 6.26952C24.2127 6.77321 24.1653 9.23833 26.3934 14.5271C28.4645 19.4455 31.934 25.4927 36.1621 31.5548C40.3931 37.6198 44.867 42.9589 48.7662 46.5944C52.9675 50.5143 54.8608 50.938 55.4801 50.938C55.6934 50.938 55.8653 50.8935 55.9956 50.8017C56.7512 50.2713 56.7512 47.6314 54.2683 41.9367L54.1527 41.676L54.4016 41.5397C54.6505 41.4034 54.8934 41.2701 55.1186 41.1397L55.4179 40.9708L55.5571 41.2849C57.3171 45.3204 58.9644 50.4491 56.8045 51.9661C56.4223 52.2268 55.966 52.3602 55.5008 52.3483Z" fill="#EE6723"/>
<path d="M47.344 45.0774L47.3203 45.3855C46.9025 50.5409 45.8062 56.7393 42.9441 56.9911C42.8848 56.9971 42.8256 56.9971 42.7693 56.9971C40.8256 56.9971 38.9857 54.212 37.3057 48.7217C35.7117 43.5248 34.4761 36.5502 33.8273 29.0808C33.1754 21.6113 33.1843 14.5271 33.8539 9.13165C34.5828 3.25328 35.9694 0.183732 37.9783 0.00595897C38.0375 3.31986e-05 38.0998 -0.00292969 38.159 -0.00292969C39.5693 -0.00292969 41.6937 1.59407 43.8685 9.03091L42.4493 9.30349C41.7234 6.8206 40.9323 4.79991 40.1471 3.40735C39.4212 2.12442 38.7131 1.41629 38.159 1.41629C38.1412 1.41629 38.1235 1.41629 38.1027 1.41926C37.2316 1.49629 35.9635 3.60587 35.2583 9.30646C34.6006 14.6041 34.5917 21.5847 35.2346 28.9563C35.8776 36.3309 37.0924 43.2019 38.6568 48.304C39.356 50.5883 40.1234 52.4727 40.8789 53.7497C41.5723 54.929 42.2448 55.5778 42.7693 55.5778C42.787 55.5778 42.8048 55.5778 42.8226 55.5749C43.6552 55.5038 45.2255 53.3053 45.8862 45.5751L47.344 45.0774Z" fill="#EE6723"/>
</g>
<defs>
<clipPath id="clip0_1021_885">
<rect width="71.3107" height="57" fill="white"/>
</clipPath>
</defs>
</svg>
