<svg width="58" height="58" viewBox="0 0 58 58" fill="none" xmlns="http://www.w3.org/2000/svg">
<path d="M6.09078 7.09036H52.1849V51.9098H6.09078V7.09036Z" fill="url(#paint0_radial_1055_1906)"/>
<path d="M6.09078 7.09036H52.1849V51.9098H6.09078V7.09036ZM4 54H54.2501V5H4V54ZM37.8845 25.1062C36.2508 25.1062 35.6698 25.9237 35.6698 26.6419C35.6698 27.3601 36.0461 27.9165 38.2669 29.0919C41.5344 30.7244 42.5786 32.2123 42.5786 34.449C42.5786 37.806 40.0232 39.6015 36.5682 39.6015C35.0852 39.6591 33.6108 39.3539 32.2724 38.7117C32.1254 38.6467 32.1009 38.5401 32.1009 38.3771V35.2579C32.1009 35.0447 32.2075 34.9871 32.3558 35.0851C33.6133 35.894 35.0754 36.3242 36.5694 36.3267C38.2032 36.3267 38.9128 35.633 38.9128 34.6941C38.9128 33.9428 38.4311 33.2724 36.3157 32.178C33.3436 30.7575 32.1021 29.3198 32.1021 26.9029C32.1021 24.1992 34.2187 21.9539 37.8857 21.9539C39.1616 21.9 40.435 22.0998 41.6337 22.541C41.7795 22.6304 41.8616 22.7959 41.8457 22.965V25.8317C41.8457 26.0033 41.7403 26.1014 41.5356 26.0438C40.4228 25.4126 39.1628 25.089 37.8845 25.1062ZM19.917 27.5978H21.6072C24.0572 27.5978 26.3589 26.7816 26.3589 23.4087C26.3589 20.7467 24.7263 19.4071 21.916 19.4071C21.0985 19.4071 20.2823 19.4071 19.8986 19.472V27.5574L19.917 27.5978ZM16.1446 16.4828C16.1446 16.3283 16.4387 16.2303 16.6103 16.2303C17.9487 16.1641 19.9428 16.1322 22.0079 16.1322C27.8063 16.1322 30.0688 19.309 30.0688 23.3683C30.0688 28.6837 26.2142 30.9707 21.4858 30.9707C20.6683 30.9707 20.4159 30.9303 19.8521 30.9303V38.9666C19.8521 39.1394 19.7871 39.2191 19.5984 39.2191H16.3971C16.2255 39.2191 16.1446 39.1542 16.1446 38.9666V16.4828Z" fill="#28ACCC"/>
<defs>
<radialGradient id="paint0_radial_1055_1906" cx="0" cy="0" r="1" gradientUnits="userSpaceOnUse" gradientTransform="translate(26.5893 22.3442) scale(36.9837 35.9093)">
<stop stop-color="#34364E" stop-opacity="0.98"/>
<stop offset="1" stop-color="#0E0924"/>
</radialGradient>
</defs>
</svg>
