<svg width="58" height="58" viewBox="0 0 58 58" fill="none" xmlns="http://www.w3.org/2000/svg">
<path d="M6.04209 7.09036H50.9592V51.9082H6.04209V7.09036Z" fill="url(#paint0_radial_1055_1900)"/>
<path d="M6.04209 7.09036H50.9592V51.9082H6.04209V7.09036ZM4 54H53V5H4V54ZM36.095 22.4685C36.095 22.297 36.1514 22.2149 36.34 22.2149H39.5483C39.7124 22.2149 39.7945 22.2798 39.7945 22.4685V38.9986C39.7945 39.1701 39.7945 39.2424 39.5483 39.2424H36.3804C36.1758 39.2424 36.1097 39.1444 36.1097 38.9729V22.4685H36.095ZM35.85 17.7081C35.85 16.5579 36.781 15.6244 37.9313 15.6232C39.0803 15.6232 40.0138 16.5542 40.015 17.7045C40.015 17.7045 40.015 17.7057 40.015 17.7069C40.1081 18.7947 39.3021 19.7515 38.2143 19.8458C38.1065 19.8544 37.9974 19.8556 37.8896 19.847C36.819 19.907 35.9014 19.0863 35.8414 18.0144C35.8365 17.9127 35.839 17.8098 35.85 17.7081ZM26.687 29.353C26.1149 27.0255 24.7601 22.003 24.237 19.553H24.1966C23.7629 22.003 22.6862 26.1435 21.8274 29.3934L26.687 29.353ZM20.9711 32.7413L19.3382 39.0219C19.2978 39.1934 19.2402 39.2351 19.0357 39.2351H16.0957C15.8911 39.2351 15.8507 39.1775 15.8911 38.9239L21.689 18.1149C21.8323 17.544 21.9009 16.956 21.8936 16.3668C21.8936 16.2198 21.9597 16.1622 22.0651 16.1622H26.3526C26.4996 16.1622 26.5571 16.2026 26.5976 16.3668L33.0889 38.9643C33.1293 39.1371 33.0888 39.2351 32.9259 39.2351H29.5363C29.3722 39.2351 29.2742 39.1934 29.2338 39.0464L27.6008 32.7426L20.9711 32.7413Z" fill="#F77F1B"/>
<defs>
<radialGradient id="paint0_radial_1055_1900" cx="0" cy="0" r="1" gradientUnits="userSpaceOnUse" gradientTransform="translate(20.9365 22.0687) scale(38.648 38.4638)">
<stop stop-color="#423325" stop-opacity="0.98"/>
<stop offset="1" stop-color="#1B0B09"/>
</radialGradient>
</defs>
</svg>
