<svg width="58" height="58" viewBox="0 0 58 58" fill="none" xmlns="http://www.w3.org/2000/svg">
<path d="M4 5V54H53V5H4ZM6.04207 7.09107H50.9591V51.9089H6.04207V7.09107Z" fill="#EE409D"/>
<path d="M6.04207 7.09107H50.9591V51.9089H6.04207V7.09107Z" fill="#31041F"/>
<path d="M39.5901 25.589C39.2103 25.4445 38.8024 25.3857 38.3982 25.4175C35.8257 25.4175 34.1106 27.451 34.1106 30.8161C34.1106 34.6712 35.8734 36.222 38.1936 36.222C38.6725 36.2343 39.1491 36.1571 39.5986 35.993V25.589H39.5901ZM30.4357 30.946C30.4357 26.046 33.4982 22.257 38.528 22.257C38.8833 22.2497 39.2373 22.2632 39.5888 22.2975V16.8499C39.5888 16.7372 39.6807 16.6453 39.7946 16.6453H43.0605C43.2234 16.6453 43.2638 16.7017 43.2638 16.8082V35.9501C43.2516 36.6361 43.2883 37.3196 43.3716 37.9995C43.3716 38.1477 43.3717 38.1722 43.2479 38.2298C41.6187 39.0297 39.8277 39.445 38.0135 39.4462C33.5876 39.4462 30.4185 36.6361 30.4185 30.9447L30.4357 30.946ZM23.4776 27.5564L29.1947 38.9244C29.3013 39.0873 29.1947 39.2588 29.0722 39.2588H25.5197C25.3323 39.2809 25.1559 39.1682 25.0946 38.9881C23.7876 36.2171 22.4536 33.3482 21.0926 30.3825H21.0521C19.8271 33.1828 18.4797 36.2453 17.1726 39.0052C17.1089 39.1498 16.9631 39.2404 16.8051 39.2355H13.4081C13.2036 39.2355 13.1876 39.0714 13.2856 38.9415L18.8876 27.908L13.4731 16.9393C13.4008 16.8646 13.402 16.7458 13.4767 16.6735C13.5147 16.6367 13.5674 16.6171 13.6201 16.6208H17.1321C17.3367 16.6208 17.4347 16.6208 17.4997 16.8499C18.7822 19.6343 20.0881 22.3783 21.3131 25.1885H21.3535C22.5381 22.42 23.8451 19.6355 25.0946 16.8915C25.1926 16.7286 25.2576 16.622 25.4622 16.622H28.7292C28.8921 16.622 28.9583 16.7445 28.8517 16.9405L23.4617 27.5576L23.4776 27.5564Z" fill="#F22B92"/>
</svg>
