<svg width="58" height="58" viewBox="0 0 58 58" fill="none" xmlns="http://www.w3.org/2000/svg">
<mask id="mask0_1055_1559" style="mask-type:luminance" maskUnits="userSpaceOnUse" x="11" y="9" width="36" height="40">
<path d="M46.712 9H11V49H46.712V9Z" fill="white"/>
</mask>
<g mask="url(#mask0_1055_1559)">
<path d="M23.2246 33.2969C24.6035 33.2969 25.7213 34.4147 25.7213 35.7936V46.5039C25.7213 47.8827 24.6035 49.0004 23.2246 49.0004C21.8459 49.0004 20.728 47.8827 20.728 46.5039V35.7936C20.728 34.4149 21.8459 33.2969 23.2246 33.2969Z" fill="#A4C639"/>
<path d="M17.5232 20.4199C17.515 20.5145 17.5078 20.6103 17.5078 20.707V36.9341C17.5078 38.6792 18.8892 40.0851 20.604 40.0851H37.1057C38.8206 40.0851 40.202 38.679 40.202 36.9341V20.707C40.202 20.6103 40.1985 20.5142 40.1904 20.4199H17.5232Z" fill="#A4C639"/>
<path d="M34.4874 33.2963C35.8663 33.2963 36.9841 34.4142 36.9841 35.7931V46.5033C36.9841 47.8822 35.8663 48.9999 34.4874 48.9999C33.1087 48.9999 31.9908 47.8822 31.9908 46.5033V35.7931C31.9908 34.4144 33.1087 33.2963 34.4874 33.2963ZM13.4967 21.8638C14.8754 21.8638 15.9933 22.9816 15.9933 24.3605V35.0708C15.9933 36.4496 14.8754 37.5675 13.4967 37.5675C12.1178 37.5675 11 36.4496 11 35.0709V24.3607C10.9998 22.9818 12.1177 21.8638 13.4967 21.8638ZM44.2143 21.8638C45.593 21.8638 46.7108 22.9816 46.7108 24.3605V35.0708C46.7108 36.4496 45.593 37.5675 44.2143 37.5675C42.8354 37.5675 41.7175 36.4496 41.7175 35.0709V24.3607C41.7175 22.9818 42.8354 21.8638 44.2143 21.8638ZM17.5966 19.3537C17.666 14.3694 22.0164 10.2827 27.6006 9.74414H30.1098C35.6944 10.2829 40.0445 14.3698 40.1139 19.3537H17.5966Z" fill="#A4C639"/>
<path d="M39.2474 9.26367L36.6136 13.8255M18.4663 9.26367L21.1 13.8255" stroke="#A4C639" stroke-width="0.67248" stroke-linecap="round" stroke-linejoin="round"/>
<path d="M25.5013 14.8882C25.5035 15.5849 24.9268 16.1513 24.2133 16.1533C23.5001 16.155 22.9201 15.5919 22.918 14.8952V14.8882C22.9161 14.1913 23.4927 13.625 24.2061 13.6231C24.9193 13.6211 25.4992 14.1841 25.5013 14.8811V14.8882ZM35.1432 14.8882C35.1453 15.5849 34.5687 16.1513 33.8551 16.1533C33.1419 16.155 32.562 15.5919 32.5599 14.8952V14.8882C32.558 14.1913 33.1346 13.625 33.848 13.6231C34.5612 13.6211 35.1411 14.1841 35.1432 14.8811V14.8882Z" fill="#353535"/>
</g>
</svg>
