<svg width="58" height="58" viewBox="0 0 58 58" fill="none" xmlns="http://www.w3.org/2000/svg">
<mask id="mask0_1055_1643" style="mask-type:luminance" maskUnits="userSpaceOnUse" x="4" y="14" width="50" height="30">
<path d="M54 14H4V43.4643H54V14Z" fill="white"/>
</mask>
<g mask="url(#mask0_1055_1643)">
<path d="M18.2512 24.7009C18.2512 25.3072 18.3164 25.7988 18.4304 26.1594C18.5608 26.5199 18.7238 26.9132 18.9519 27.3393C19.0333 27.4704 19.0659 27.6014 19.0659 27.7162C19.0659 27.88 18.9681 28.0439 18.7564 28.2078L17.7297 28.8961C17.5831 28.9944 17.4364 29.0435 17.306 29.0435C17.1431 29.0435 16.9801 28.9616 16.8172 28.8141C16.589 28.5683 16.3934 28.3061 16.2305 28.0439C16.0675 27.7654 15.9046 27.4539 15.7253 27.0771C14.4542 28.5846 12.8573 29.3385 10.9343 29.3385C9.56547 29.3385 8.4736 28.9452 7.67511 28.1586C6.87663 27.3721 6.46924 26.3232 6.46924 25.0122C6.46924 23.6194 6.95815 22.4886 7.95217 21.6365C8.94618 20.7844 10.2662 20.3583 11.9447 20.3583C12.4987 20.3583 13.069 20.4074 13.672 20.4894C14.2749 20.5713 14.8942 20.7024 15.546 20.8499V19.6536C15.546 18.4082 15.2853 17.5396 14.7801 17.0316C14.2587 16.5237 13.3787 16.2779 12.124 16.2779C11.5536 16.2779 10.9669 16.3434 10.364 16.4909C9.76101 16.6384 9.1744 16.8186 8.60404 17.048C8.34324 17.1628 8.1477 17.2283 8.03368 17.2611C7.91958 17.2938 7.83806 17.3103 7.77288 17.3103C7.54476 17.3103 7.43074 17.1463 7.43074 16.8022V15.9993C7.43074 15.7371 7.46333 15.5404 7.54476 15.4257C7.62627 15.311 7.77288 15.1962 8.0011 15.0815C8.57145 14.7866 9.25583 14.5408 10.0543 14.3441C10.8528 14.1311 11.7002 14.0328 12.5965 14.0328C14.5357 14.0328 15.9534 14.4753 16.866 15.3602C17.7623 16.2451 18.2186 17.5888 18.2186 19.3914V24.7009H18.2512ZM11.635 27.1918C12.1728 27.1918 12.7269 27.0935 13.3135 26.8968C13.9002 26.7002 14.4216 26.3396 14.8616 25.848C15.1223 25.5366 15.3179 25.1925 15.4156 24.7992C15.5134 24.4059 15.5787 23.9307 15.5787 23.3735V22.6853C15.1061 22.5705 14.6009 22.4722 14.0794 22.4067C13.558 22.3412 13.0528 22.3084 12.5476 22.3084C11.4558 22.3084 10.6573 22.5214 10.1195 22.9638C9.58172 23.4063 9.32101 24.029 9.32101 24.8484C9.32101 25.6186 9.51654 26.1921 9.92395 26.5854C10.3151 26.9951 10.8855 27.1918 11.635 27.1918ZM24.7206 28.9616C24.4273 28.9616 24.2317 28.9124 24.1014 28.7977C23.971 28.6994 23.857 28.47 23.7591 28.1586L19.9297 15.4913C19.8319 15.1635 19.783 14.9504 19.783 14.8357C19.783 14.5736 19.9133 14.4261 20.174 14.4261H21.7711C22.0807 14.4261 22.2925 14.4753 22.4066 14.5899C22.537 14.6883 22.6348 14.9177 22.7325 15.229L25.4702 26.0774L28.0124 15.229C28.0939 14.9013 28.1916 14.6883 28.322 14.5899C28.4523 14.4916 28.6806 14.4261 28.9739 14.4261H30.2775C30.5872 14.4261 30.799 14.4753 30.9294 14.5899C31.0598 14.6883 31.1738 14.9177 31.239 15.229L33.8138 26.2085L36.6329 15.229C36.7307 14.9013 36.8448 14.6883 36.9589 14.5899C37.0892 14.4916 37.3011 14.4261 37.5944 14.4261H39.1099C39.3706 14.4261 39.5173 14.5571 39.5173 14.8357C39.5173 14.9177 39.501 14.9996 39.4847 15.0979C39.4684 15.1963 39.4358 15.3274 39.3706 15.5076L35.4433 28.175C35.3456 28.5028 35.2315 28.7158 35.1011 28.8141C34.9707 28.9124 34.7589 28.9779 34.4819 28.9779H33.0804C32.7708 28.9779 32.559 28.9288 32.4286 28.8141C32.2982 28.6994 32.1841 28.4863 32.119 28.1586L29.5931 17.5888L27.0835 28.1422C27.0021 28.47 26.9043 28.683 26.774 28.7977C26.6435 28.9124 26.4154 28.9616 26.1221 28.9616H24.7206ZM45.6608 29.404C44.8134 29.404 43.9661 29.3057 43.1513 29.1091C42.3365 28.9124 41.7009 28.6994 41.2773 28.4536C41.0165 28.3061 40.8373 28.1422 40.7721 27.9947C40.7069 27.8472 40.6743 27.6834 40.6743 27.5359V26.7002C40.6743 26.356 40.8047 26.1921 41.0491 26.1921C41.1469 26.1921 41.2447 26.2085 41.3424 26.2413C41.4402 26.2741 41.5869 26.3396 41.7498 26.4052C42.3039 26.651 42.9068 26.8476 43.5423 26.9788C44.1942 27.1098 44.8298 27.1754 45.4815 27.1754C46.5082 27.1754 47.3067 26.9951 47.8608 26.6346C48.4148 26.2741 48.7081 25.7496 48.7081 25.0778C48.7081 24.6189 48.5615 24.2421 48.2681 23.9307C47.9748 23.6194 47.4208 23.3407 46.6223 23.0786L44.2594 22.3412C43.0698 21.9642 42.1898 21.4071 41.6521 20.6696C41.1143 19.9486 40.8373 19.1456 40.8373 18.2935C40.8373 17.6052 40.984 16.9988 41.2773 16.4745C41.5706 15.9501 41.9616 15.4912 42.4506 15.1307C42.9394 14.7538 43.4935 14.4753 44.1453 14.2786C44.7972 14.082 45.4815 14 46.1986 14C46.5571 14 46.9319 14.0164 47.2905 14.0655C47.6652 14.1147 48.0074 14.1803 48.3497 14.2458C48.6756 14.3278 48.9852 14.4096 49.2785 14.508C49.5718 14.6063 49.8 14.7046 49.963 14.8029C50.1911 14.9341 50.354 15.0652 50.4518 15.2127C50.5496 15.3438 50.5985 15.524 50.5985 15.7535V16.5237C50.5985 16.8678 50.4681 17.048 50.2237 17.048C50.0933 17.048 49.8815 16.9825 49.6044 16.8514C48.6756 16.4254 47.6326 16.2123 46.4756 16.2123C45.5468 16.2123 44.8134 16.3597 44.3083 16.6712C43.8031 16.9825 43.5423 17.4577 43.5423 18.1296C43.5423 18.5885 43.7053 18.9817 44.0313 19.2931C44.3572 19.6045 44.9601 19.9158 45.8238 20.1944L48.1378 20.9318C49.3111 21.3087 50.1585 21.8331 50.6637 22.505C51.1689 23.1769 51.4133 23.9471 51.4133 24.7992C51.4133 25.5038 51.2666 26.1429 50.9896 26.7002C50.6963 27.2573 50.3052 27.7489 49.8 28.1422C49.2948 28.5519 48.6919 28.8469 47.9912 29.0599C47.2579 29.2894 46.4919 29.404 45.6608 29.404Z" fill="#5C5A5A"/>
<path fill-rule="evenodd" clip-rule="evenodd" d="M48.7437 37.368C43.3824 41.3501 35.593 43.4641 28.8953 43.4641C19.5089 43.4641 11.0514 39.9736 4.66335 34.1725C4.15818 33.7137 4.61447 33.0909 5.21741 33.4514C12.1268 37.4827 20.6496 39.9245 29.4657 39.9245C35.4137 39.9245 41.9483 38.679 47.9616 36.1226C48.8578 35.7129 49.6237 36.7125 48.7437 37.368Z" fill="#FF9900"/>
<path fill-rule="evenodd" clip-rule="evenodd" d="M50.9749 34.8121C50.2904 33.9272 46.4446 34.386 44.701 34.5991C44.1795 34.6646 44.098 34.2058 44.5706 33.8617C47.6342 31.6985 52.6696 32.3212 53.2563 33.0423C53.8429 33.7797 53.0933 38.8434 50.2253 41.2686C49.7853 41.6455 49.3616 41.4489 49.5571 40.9573C50.2089 39.335 51.6593 35.6806 50.9749 34.8121Z" fill="#FF9900"/>
</g>
</svg>
