<svg width="58" height="58" viewBox="0 0 58 58" fill="none" xmlns="http://www.w3.org/2000/svg">
<path fill-rule="evenodd" clip-rule="evenodd" d="M47.3604 7.2311C46.9949 6.46067 46.2241 6 45.2865 6H41.663C40.6141 6 39.8275 6.42096 39.4063 7.18345L34.0347 15.0228L38.7388 21.4483L46.9472 9.67742C47.8531 8.59723 47.5353 7.6044 47.3604 7.2311Z" fill="#74BB11"/>
<path fill-rule="evenodd" clip-rule="evenodd" d="M19.0483 7.10402C18.2299 6 17.1412 6 16.7757 6H13.2317C12.3258 6 11.5789 6.42096 11.1895 7.14374C10.7922 7.89034 10.8717 8.77991 11.4279 9.60594L24.555 27.7945L9.45727 48.8424C8.93282 49.6366 8.85336 50.5103 9.25067 51.2569C9.64003 51.9797 10.387 52.4006 11.2928 52.4006H14.9163C15.846 52.4006 16.6645 51.9161 17.0777 51.1536L33.9792 27.8818L19.0483 7.10402Z" fill="#009CD9"/>
<path fill-rule="evenodd" clip-rule="evenodd" d="M49.1644 49.0316L38.6278 34.584L33.9951 40.9698L42.3227 52.0815L42.5373 52.1768C42.871 52.3277 43.2286 52.4072 43.5862 52.4072H47.1302C47.9884 52.4072 48.7115 52.0259 49.1247 51.3667C49.5538 50.6836 49.5617 49.8338 49.1644 49.0316Z" fill="#EB2084"/>
</svg>
