<svg width="58" height="58" viewBox="0 0 58 58" fill="none" xmlns="http://www.w3.org/2000/svg">
<path d="M12.3899 30.953C12.3728 31.5139 12.2425 32.0653 12.0067 32.5733C11.771 33.0815 11.4349 33.5359 11.019 33.9084C10.106 34.6647 8.94657 35.0513 7.76653 34.993C7.10837 35.0211 6.45241 34.8993 5.84741 34.6364C5.24242 34.3735 4.70396 33.9764 4.27214 33.4745C3.37838 32.2962 2.93044 30.8349 3.00878 29.3533V28.6483C3.00203 27.6327 3.20336 26.6265 3.60014 25.693C3.95216 24.8833 4.5315 24.1951 5.2667 23.7136C6.0285 23.2514 6.90459 23.0164 7.79341 23.0358C8.95703 22.9779 10.0994 23.3653 10.9921 24.1204C11.8432 24.8938 12.3555 25.9762 12.4167 27.13H10.0513C10.0434 26.5308 9.82424 25.9541 9.43309 25.5032C8.97513 25.1203 8.3859 24.9351 7.79341 24.9881C7.4488 24.9673 7.10468 25.0363 6.79404 25.1881C6.48341 25.34 6.21665 25.5699 6.01934 25.8557C5.57462 26.6858 5.36973 27.6252 5.42798 28.5671V29.4347C5.3615 30.3738 5.55705 31.3131 5.99245 32.1461C6.18597 32.4357 6.45203 32.6685 6.76361 32.8209C7.0752 32.9732 7.42122 33.0398 7.76653 33.0137C8.35538 33.0741 8.94419 32.8988 9.40621 32.5255C9.76827 32.0858 9.95086 31.5236 9.91692 30.953H12.3899ZM23.3569 29.272C23.3924 30.3078 23.19 31.3377 22.7656 32.2816C22.3772 33.0959 21.7687 33.7831 21.0102 34.2639C20.2517 34.7449 19.3741 35 18.4782 35C17.5822 35 16.7046 34.7449 15.9462 34.2639C15.1877 33.7831 14.5792 33.0959 14.1908 32.2816C13.773 31.3538 13.562 30.3451 13.5726 29.3261V28.7569C13.5462 27.7103 13.7577 26.6715 14.1908 25.72C14.5614 24.8902 15.1699 24.1914 15.938 23.7136C16.7016 23.2296 17.5902 22.9843 18.4917 23.0087C19.4392 22.9492 20.3808 23.1962 21.1796 23.7136C21.948 24.1789 22.5574 24.8693 22.9268 25.693C23.2749 26.6742 23.4213 27.7166 23.3569 28.7569V29.272ZM20.9646 28.7569C21.014 27.8091 20.7899 26.8672 20.3195 26.0454C20.1188 25.7382 19.8422 25.4891 19.517 25.3226C19.1917 25.1562 18.8291 25.0782 18.4647 25.0965C18.1078 25.0827 17.7531 25.1599 17.4337 25.321C17.1141 25.4822 16.8401 25.7219 16.6369 26.0183C16.1571 26.8373 15.9237 27.7793 15.9649 28.7297V29.2991C15.9251 30.2493 16.1585 31.1908 16.6369 32.0104C16.8456 32.307 17.1216 32.5488 17.442 32.7158C17.7624 32.8827 18.1176 32.9697 18.4782 32.9697C18.8387 32.9697 19.194 32.8827 19.5143 32.7158C19.8347 32.5488 20.1108 32.307 20.3195 32.0104C20.7943 31.1903 21.0187 30.2473 20.9646 29.2991V28.7569ZM25.0772 34.8302V23.2256H29.1092C30.2265 23.1363 31.3416 23.4224 32.281 24.039C32.6464 24.3071 32.939 24.6637 33.1316 25.0761C33.3243 25.4883 33.4108 25.943 33.3831 26.3979C33.3843 26.9387 33.2251 27.4674 32.9261 27.9163C32.6425 28.3519 32.228 28.6844 31.7435 28.8653C32.3 28.9862 32.7957 29.3035 33.1411 29.76C33.4767 30.2435 33.6464 30.8242 33.625 31.4139C33.6623 31.8882 33.5866 32.3644 33.4042 32.8031C33.2218 33.2417 32.9381 33.63 32.5766 33.9355C31.7054 34.5746 30.6419 34.8907 29.5662 34.8302H25.0772ZM27.4695 29.76V32.9051H29.4855C29.9591 32.9371 30.4279 32.7924 30.8027 32.4985C30.9602 32.3625 31.0837 32.191 31.163 31.9978C31.2425 31.8047 31.2755 31.5954 31.2596 31.3869C31.2859 31.1979 31.2748 31.0055 31.2268 30.821C31.1787 30.6365 31.0946 30.4633 30.9795 30.312C30.8644 30.1605 30.7205 30.0336 30.5564 29.9389C30.3921 29.8442 30.2109 29.7833 30.0232 29.76H27.3351H27.4695ZM27.4695 28.079H29.2167C30.3995 28.079 31.0177 27.5638 31.0177 26.642C31.0336 26.4294 31.0007 26.2161 30.9214 26.0186C30.8422 25.821 30.7188 25.6446 30.5607 25.5032C30.1245 25.2377 29.6174 25.1145 29.1092 25.1506H27.4695V28.079ZM44.8608 29.272C44.8833 30.3067 44.6816 31.3338 44.2695 32.2816C43.8956 33.1009 43.299 33.7966 42.5492 34.288C41.7678 34.7399 40.8828 34.9777 39.9821 34.9777C39.0814 34.9777 38.1964 34.7399 37.4151 34.288C36.6671 33.8062 36.0704 33.1197 35.6948 32.3087C35.2646 31.3851 35.053 30.3734 35.0766 29.3533V28.7839C35.0514 27.749 35.2532 26.7213 35.6679 25.7743C36.0371 24.9435 36.6459 24.2443 37.4151 23.7679C38.1868 23.302 39.0693 23.0561 39.9687 23.0561C40.868 23.0561 41.7506 23.302 42.5223 23.7679C43.2905 24.2376 43.8925 24.9397 44.2426 25.7743C44.676 26.7064 44.8876 27.7277 44.8608 28.7569V29.272ZM42.4685 28.7569C42.5179 27.8091 42.2938 26.8672 41.8233 26.0454C41.6474 25.7991 41.4249 25.5904 41.1687 25.431C40.9123 25.2718 40.6274 25.1651 40.3301 25.1172C40.033 25.0694 39.7293 25.0812 39.4365 25.1521C39.1438 25.2229 38.868 25.3515 38.6247 25.5302C38.4293 25.664 38.2568 25.8288 38.1139 26.0183C37.6422 26.8396 37.4179 27.7819 37.4689 28.7297V29.2991C37.4195 30.2467 37.6435 31.1885 38.1139 32.0104C38.4608 32.5088 38.9892 32.8483 39.5835 32.955C40.1778 33.0616 40.7898 32.9268 41.2858 32.5798C41.4896 32.4256 41.6706 32.2431 41.8233 32.0375C42.2982 31.2175 42.5226 30.2743 42.4685 29.3261V28.7569ZM48.9466 32.9051H54V34.8302H46.608V23.2256H48.9734L48.9466 32.9051Z" fill="#2E3032"/>
</svg>
