<svg width="58" height="58" viewBox="0 0 58 58" fill="none" xmlns="http://www.w3.org/2000/svg">
<g clip-path="url(#clip0_1055_1796)">
<path d="M29 29C29 26.8783 29.8429 24.8434 31.3431 23.3431C32.8434 21.8429 34.8783 21 37 21C39.1217 21 41.1566 21.8429 42.6569 23.3431C44.1571 24.8434 45 26.8783 45 29C45 31.1217 44.1571 33.1566 42.6569 34.6569C41.1566 36.1571 39.1217 37 37 37C34.8783 37 32.8434 36.1571 31.3431 34.6569C29.8429 33.1566 29 31.1217 29 29V29Z" fill="#1ABCFE"/>
<path d="M13 45C13 42.8783 13.8429 40.8434 15.3431 39.3431C16.8434 37.8429 18.8783 37 21 37H29V45C29 47.1217 28.1571 49.1566 26.6569 50.6569C25.1566 52.1571 23.1217 53 21 53C18.8783 53 16.8434 52.1571 15.3431 50.6569C13.8429 49.1566 13 47.1217 13 45V45Z" fill="#0ACF83"/>
<path d="M29 5V21H37C39.1217 21 41.1566 20.1571 42.6569 18.6569C44.1571 17.1566 45 15.1217 45 13C45 10.8783 44.1571 8.84344 42.6569 7.34315C41.1566 5.84285 39.1217 5 37 5L29 5Z" fill="#FF7262"/>
<path d="M13 13C13 15.1217 13.8429 17.1566 15.3431 18.6569C16.8434 20.1571 18.8783 21 21 21H29V5H21C18.8783 5 16.8434 5.84285 15.3431 7.34315C13.8429 8.84344 13 10.8783 13 13H13Z" fill="#F24E1E"/>
<path d="M13 29C13 31.1217 13.8429 33.1566 15.3431 34.6569C16.8434 36.1571 18.8783 37 21 37H29V21H21C18.8783 21 16.8434 21.8429 15.3431 23.3431C13.8429 24.8434 13 26.8783 13 29H13Z" fill="#A259FF"/>
</g>
<defs>
<clipPath id="clip0_1055_1796">
<rect width="32" height="48" fill="white" transform="translate(13 5)"/>
</clipPath>
</defs>
</svg>
