<svg width="58" height="58" viewBox="0 0 58 58" fill="none" xmlns="http://www.w3.org/2000/svg">
<path d="M35.4582 20.6376H36.9219L41.0939 16.4655L41.2985 14.6935C33.5334 7.83893 21.6828 8.57942 14.8281 16.3445C12.9236 18.4997 11.5435 21.0669 10.7886 23.8445C11.2525 23.6544 11.7682 23.6226 12.2523 23.758L20.5965 22.3807C20.5965 22.3807 21.0201 21.6778 21.2419 21.721C24.953 17.644 31.1997 17.1685 35.4869 20.6376H35.4582Z" fill="#EA4335"/>
<path d="M47.038 23.8447C46.0785 20.3121 44.1106 17.137 41.3734 14.7109L35.5185 20.5657C37.9907 22.5855 39.3997 25.631 39.3392 28.8235V29.8636C42.2176 29.8636 44.5514 32.1975 44.5514 35.0759C44.5514 37.9542 42.2176 40.2881 39.3392 40.2881H28.9147L27.8745 41.3427V47.5951L28.9147 48.6352H39.3392C46.8247 48.6929 52.9417 42.671 52.9994 35.1853C53.034 30.6387 50.7952 26.3859 47.038 23.8447Z" fill="#4285F4"/>
<path d="M18.4758 48.5697H28.9003V40.2255H18.4758C17.7324 40.2255 17.0006 40.0642 16.3235 39.7559L14.8598 40.2111L10.6589 44.3832L10.293 45.8469C12.647 47.6276 15.5225 48.5842 18.4758 48.5697Z" fill="#34A853"/>
<path d="M18.476 21.5021C10.9875 21.5453 4.95701 27.6507 5.00023 35.1392C5.02616 39.32 6.9768 43.2558 10.2932 45.8028L16.3381 39.7579C13.7161 38.5737 12.5492 35.4849 13.7334 32.863C14.9176 30.241 18.0064 29.0741 20.6283 30.2583C21.7837 30.7798 22.7086 31.7076 23.2331 32.863L29.278 26.818C26.7078 23.4527 22.7086 21.4848 18.476 21.5021Z" fill="#FBBC05"/>
</svg>
