<svg width="58" height="58" viewBox="0 0 58 58" fill="none" xmlns="http://www.w3.org/2000/svg">
<path d="M47.7383 6H9.26056C6.90938 6.0047 5.00352 7.90938 5 10.2605V48.7383C5.0047 51.0906 6.90938 52.9953 9.26056 53H47.7383C50.0906 52.9953 51.9953 51.0906 52 48.7383V10.2605C51.9953 7.90938 50.0906 6.0047 47.7383 6Z" fill="#DC395F"/>
<path d="M20.7062 20.7899C22.2666 20.7676 23.5156 19.4845 23.4945 17.9229C23.471 16.3614 22.189 15.1123 20.6275 15.1347C19.0823 15.1558 17.8392 16.4154 17.8392 17.9617C17.8474 19.5315 19.1282 20.7982 20.698 20.7899C20.7003 20.7899 20.7027 20.7899 20.7062 20.7899ZM14.7525 35.9392C14.5927 36.6348 14.5081 37.3469 14.5022 38.0624C14.5022 40.5523 15.8487 42.2055 18.724 42.2055C21.074 42.2055 23.0327 40.7955 24.4274 38.5078L23.5732 41.9153H28.2732L31.0062 31.0677C31.6807 28.3252 32.9896 26.8999 34.9789 26.8999C36.2726 26.793 37.4065 27.7542 37.5146 29.0478C37.5275 29.1982 37.5251 29.351 37.5075 29.5014C37.5169 30.016 37.4452 30.5283 37.296 31.0207L35.9013 36.0027C35.7039 36.6912 35.6064 37.4021 35.6111 38.1188C35.6111 40.4688 36.9987 42.2067 39.9116 42.2067C42.4037 42.2067 44.393 40.6404 45.4893 36.7229L43.6328 36.0109C42.701 38.5806 41.9008 39.0506 41.2828 39.0506C40.6647 39.0506 40.3111 38.6276 40.3111 37.7816C40.3322 37.3386 40.4027 36.9004 40.5237 36.4738L41.8703 31.6164C42.177 30.6188 42.3356 29.5825 42.3391 28.5379C42.3391 24.9107 40.1383 23.0542 37.4828 23.0542C34.993 23.0542 32.455 25.3031 31.2166 27.6602L32.1401 23.4219H24.8868L23.8716 27.1502H27.2474L25.17 35.4692C23.5332 39.1047 20.5346 39.1599 20.1575 39.0718C19.5382 38.9319 19.147 38.6958 19.147 37.8968C19.1669 37.2423 19.2656 36.5937 19.4372 35.9627L22.6085 23.429H14.588L13.5692 27.1502H16.9051L14.7525 35.9392Z" fill="white"/>
</svg>
