<svg width="58" height="58" viewBox="0 0 58 58" fill="none" xmlns="http://www.w3.org/2000/svg">
<mask id="mask0_1055_1541" style="mask-type:luminance" maskUnits="userSpaceOnUse" x="9" y="19" width="40" height="20">
<path d="M49 19H9V38.8319H49V19Z" fill="white"/>
</mask>
<g mask="url(#mask0_1055_1541)">
<path d="M9.41036 38.4968H12.6798V24.5788H9.41036V38.4968ZM11.0385 22.7536C12.0627 22.7536 12.8636 21.9658 12.8636 20.981C12.8636 19.9831 12.0627 19.1953 11.0385 19.1953C10.0275 19.1953 9.22656 19.9831 9.22656 20.981C9.22656 21.9658 10.0275 22.7536 11.0385 22.7536ZM23.5653 19.2346C18.0375 19.2346 14.571 23.003 14.571 29.0299C14.571 35.0568 18.0372 38.8121 23.5653 38.8121C29.0799 38.8121 32.5464 35.0568 32.5464 29.0299C32.5464 23.003 29.0802 19.2346 23.5653 19.2346ZM23.5653 22.1233C26.9397 22.1233 29.093 24.8019 29.093 29.0298C29.093 33.2446 26.9396 35.9233 23.5653 35.9233C20.1777 35.9233 18.0375 33.2447 18.0375 29.0298C18.0375 24.8019 20.1778 22.1233 23.5653 22.1233ZM33.9256 33.166C34.07 36.6587 36.9324 38.812 41.2916 38.812C45.8742 38.812 48.7629 36.5536 48.7629 32.9559C48.7629 30.1329 47.1347 28.5441 43.2876 27.6645L41.108 27.1655C38.7839 26.614 37.8254 25.8787 37.8254 24.6182C37.8254 23.0426 39.2698 21.9922 41.41 21.9922C43.5764 21.9922 45.06 23.0557 45.2177 24.8283H48.4477C48.369 21.4932 45.6116 19.2347 41.4363 19.2347C37.3133 19.2347 34.3852 21.5062 34.3852 24.8676C34.3852 27.5725 36.0396 29.2532 39.5321 30.0542L41.9875 30.632C44.3772 31.1966 45.3488 31.9844 45.3488 33.3499C45.3488 34.9255 43.76 36.0547 41.4755 36.0547C39.1646 36.0547 37.4184 34.9124 37.2083 33.1661L33.9256 33.166Z" fill="#8A8A8A"/>
</g>
</svg>
