<svg width="58" height="58" viewBox="0 0 58 58" fill="none" xmlns="http://www.w3.org/2000/svg">
<g clip-path="url(#clip0_1055_1177)">
<path d="M23.0778 41.4687C23.0778 41.4687 21.3664 42.5107 24.2691 42.8092C27.7558 43.255 29.6251 43.1814 33.4934 42.437C33.4934 42.437 34.5346 43.1058 35.9486 43.6292C27.2444 47.351 16.2351 43.4063 23.0788 41.4707L23.0778 41.4687ZM21.9621 36.6304C21.9621 36.6304 20.1025 38.0455 23.0032 38.343C26.7969 38.7152 29.783 38.7888 34.9065 37.7479C34.9065 37.7479 35.5748 38.4923 36.6915 38.8645C26.2023 41.9912 14.4482 39.161 21.9621 36.6304ZM42.495 45.1169C42.495 45.1169 43.7599 46.1588 41.0809 46.9778C36.0968 48.4666 20.1771 48.9134 15.7131 46.9778C14.1509 46.3091 17.1272 45.3302 18.0938 45.1916C19.0623 44.9686 19.5814 44.9686 19.5814 44.9686C17.871 43.7765 8.19925 47.4256 14.671 48.4579C32.4503 51.3607 47.1051 47.1921 42.493 45.1083L42.495 45.1169ZM23.8953 31.5681C23.8953 31.5681 15.7867 33.5036 20.9935 34.1734C23.2251 34.4709 27.6145 34.3964 31.7056 34.0987C35.0528 33.8012 38.4009 33.2052 38.4009 33.2052C38.4009 33.2052 37.2097 33.7266 36.3922 34.2471C28.1346 36.4056 12.2894 35.4392 16.8279 33.2052C20.6962 31.3443 23.8953 31.5574 23.8953 31.5574V31.5681ZM38.4019 39.6825C46.7332 35.3646 42.8649 31.1959 40.1869 31.7174C39.5186 31.8666 39.2183 32.0149 39.2183 32.0149C39.2183 32.0149 39.4412 31.5691 39.9622 31.4198C45.2436 29.5589 49.4102 37.0025 38.2509 39.9064C38.2509 39.9064 38.3255 39.8317 38.4 39.6835L38.4019 39.6825ZM24.7146 51.444C32.7486 51.9655 45.0248 51.1465 45.3211 47.35C45.3211 47.35 44.7265 48.8388 38.7002 49.9553C31.8566 51.2211 23.3761 51.0719 18.3901 50.2529C18.3901 50.2529 19.4313 51.1455 24.7146 51.444Z" fill="#5382A1"/>
<path d="M33.3435 7C33.3435 7 37.9557 11.6911 28.9541 18.7626C21.7386 24.4946 27.3077 27.7705 28.9541 31.4923C24.7139 27.6959 21.664 24.3463 23.7463 21.2186C26.7972 16.6031 35.2031 14.37 33.3435 7ZM30.9629 28.3657C33.1198 30.8226 30.3672 33.0566 30.3672 33.0566C30.3672 33.0566 35.8724 30.2266 33.3426 26.7277C31.0375 23.378 29.2515 21.74 38.9213 16.1563C38.9213 16.1563 23.6709 19.9528 30.9619 28.3647L30.9629 28.3657Z" fill="#E76F00"/>
</g>
<defs>
<clipPath id="clip0_1055_1177">
<rect width="34" height="45" fill="white" transform="translate(12 7)"/>
</clipPath>
</defs>
</svg>
