<svg width="58" height="58" viewBox="0 0 58 58" fill="none" xmlns="http://www.w3.org/2000/svg">
<g clip-path="url(#clip0_1055_1169)">
<path d="M8 8H50V50H8V8Z" fill="#F0DB4F"/>
<path d="M46.5627 39.9826C46.2552 38.0663 45.0056 36.4573 41.3047 34.9562C40.0192 34.3653 38.5859 33.9422 38.1586 32.968C38.0069 32.401 37.987 32.0817 38.0828 31.7384C38.3583 30.6244 39.6878 30.2771 40.7417 30.5966C41.4204 30.8241 42.0632 31.3471 42.4505 32.1815C44.2631 31.0077 44.2591 31.0157 45.5247 30.2093C45.0615 29.4907 44.814 29.1592 44.5105 28.8519C43.4206 27.6342 41.9354 27.0074 39.56 27.0553C39.1488 27.1072 38.7336 27.1631 38.3224 27.215C37.1367 27.5144 36.0068 28.1372 35.3441 28.9717C33.3559 31.2274 33.9228 35.1758 36.3421 36.8007C38.7256 38.5893 42.2269 38.9966 42.6741 40.6694C43.1093 42.7175 41.1689 43.3802 39.2406 43.1446C37.8194 42.8492 37.0288 42.1267 36.1745 40.8131C34.6015 41.7234 34.6015 41.7234 32.9846 42.6536C33.3679 43.492 33.7711 43.8713 34.4138 44.5979C37.4561 47.684 45.0695 47.5323 46.435 42.8612C46.4908 42.7015 46.8582 41.6315 46.5627 39.9826ZM30.8327 27.3028H26.9041C26.9041 30.6963 26.8882 34.0659 26.8882 37.4594C26.8882 39.6193 27 41.5996 26.6486 42.2065C26.0737 43.4001 24.5846 43.2524 23.9059 43.0208C23.2152 42.6815 22.8638 42.1984 22.4566 41.5157C22.3449 41.3201 22.261 41.1684 22.233 41.1565C21.1671 41.8072 20.1051 42.4619 19.0391 43.1127C19.5701 44.2026 20.3526 45.1488 21.3547 45.7636C22.8518 46.6619 24.864 46.9373 26.9681 46.4543C28.3374 46.0551 29.5192 45.2287 30.138 43.971C31.0322 42.3222 30.8406 40.326 30.8327 38.1182C30.8526 34.5171 30.8327 30.9159 30.8327 27.3028Z" fill="#323330"/>
</g>
<defs>
<clipPath id="clip0_1055_1169">
<rect width="42" height="42" fill="white" transform="translate(8 8)"/>
</clipPath>
</defs>
</svg>
