<svg width="58" height="58" viewBox="0 0 58 58" fill="none" xmlns="http://www.w3.org/2000/svg">
<g clip-path="url(#clip0_1055_1868)">
<path d="M15.4 5H42.6C48.3 5 53 9.7 53 15.4V42.6C53 48.3 48.3 53 42.6 53H15.4C9.7 53 5 48.3 5 42.6V15.4C5 9.7 9.7 5 15.4 5Z" fill="#FFD02F"/>
<path fill-rule="evenodd" clip-rule="evenodd" d="M38.3 11H33L37.4 18.7L27.8 11H22.5L27.3 20.4L17.3 11H12L17.3 23L12 47H17.3L27.4 21.3L22.5 47H27.8L37.5 19.6L33.1 47H38.4L48 17L38.3 11Z" fill="#050038"/>
</g>
<defs>
<clipPath id="clip0_1055_1868">
<rect width="48" height="48" fill="white" transform="translate(5 5)"/>
</clipPath>
</defs>
</svg>
