<svg width="59" height="58" viewBox="0 0 59 58" fill="none" xmlns="http://www.w3.org/2000/svg">
<g clip-path="url(#clip0_1055_1187)">
<g opacity="0.7">
<path d="M20.4475 20.7542C22.4658 27.1942 23.2298 38.6843 29.1321 38.6843C29.581 38.6843 30.0354 38.6379 30.491 38.5477C25.1254 37.2426 24.49 25.8778 21.2161 19.9922C20.9595 20.2356 20.7048 20.4896 20.4468 20.7535L20.4475 20.7542Z" fill="url(#paint0_linear_1055_1187)"/>
<path d="M21.2222 19.9911C24.4966 25.8773 25.132 37.2422 30.497 38.5466C30.9281 38.4615 31.3517 38.3423 31.7638 38.1898C26.9486 35.7274 25.6174 24.6916 21.8993 19.3789C21.6738 19.5745 21.4477 19.7789 21.2222 19.9911Z" fill="url(#paint1_linear_1055_1187)"/>
<path d="M25.9365 16.4961C25.4882 16.4961 25.0333 16.5419 24.577 16.6321C23.3824 16.8675 22.1693 17.404 20.9463 18.2157C21.2805 18.5606 21.5983 18.9538 21.8974 19.3829C23.141 18.3059 24.3767 17.5101 25.6076 17.032C26.0699 16.8529 26.5296 16.7189 26.9919 16.6307C26.6475 16.5402 26.2927 16.4949 25.9365 16.4961Z" fill="#14559A"/>
<path d="M35.5165 35.9216C36.0306 35.4928 36.5249 35.0408 36.9976 34.5668C34.9468 28.1566 34.2125 16.502 28.2692 16.502C27.8448 16.502 27.4155 16.5437 26.9878 16.626C32.4012 18.0312 33.0943 30.3231 35.5165 35.9216Z" fill="url(#paint2_linear_1055_1187)"/>
<path d="M26.9922 16.6249C26.6478 16.5344 26.2931 16.4891 25.937 16.4903L28.2736 16.4995C27.8491 16.4995 27.4201 16.5413 26.9922 16.6249Z" fill="#3092C4"/>
<path d="M35.4185 37.2846C35.1813 37.0456 34.9577 36.7934 34.7486 36.5293C33.7485 37.268 32.7522 37.8284 31.7627 38.1926C32.4002 38.5203 33.1073 38.6898 33.8241 38.6866C34.9349 38.6866 35.8124 38.5494 36.5606 38.1752C36.1403 37.9329 35.756 37.6332 35.4185 37.2846Z" fill="#1969BC"/>
<path d="M25.6055 17.0282C30.4539 19.6742 30.8756 31.6598 34.745 36.5262C35.0038 36.3352 35.2611 36.1335 35.5178 35.92C33.0956 30.3215 32.4031 18.0289 26.9903 16.625C26.5287 16.7152 26.0671 16.8485 25.6055 17.0282Z" fill="url(#paint3_linear_1055_1187)"/>
<path d="M21.894 19.3802C25.6122 24.6929 26.9433 35.7287 31.7585 38.1911C32.7487 37.8264 33.7449 37.266 34.7445 36.5279C30.875 31.6609 30.4532 19.6767 25.6049 17.0293C24.3739 17.5068 23.1375 18.3026 21.894 19.3802Z" fill="url(#paint4_linear_1055_1187)"/>
<path d="M18.0709 20.6015C17.4886 21.977 16.893 23.7841 16.1733 26.143C17.6047 24.0388 19.0314 22.2257 20.4493 20.7567C20.2707 20.1724 20.0599 19.5983 19.8179 19.0371C19.2077 19.5268 18.6245 20.0486 18.0709 20.6015Z" fill="url(#paint5_linear_1055_1187)"/>
<path d="M20.3357 18.6387C20.1652 18.7667 19.9927 18.8973 19.8203 19.0353C20.0458 19.5499 20.2547 20.1282 20.4504 20.7548C20.7084 20.4916 20.9637 20.2376 21.2198 19.9936C20.9599 19.5202 20.664 19.0673 20.3357 18.6387Z" fill="#2B74B1"/>
<path d="M20.9457 18.2148C20.7427 18.3495 20.5404 18.4914 20.3354 18.6393C20.6642 19.0686 20.9599 19.5222 21.2202 19.9961C21.4457 19.7826 21.6719 19.577 21.8967 19.382C21.612 18.968 21.2934 18.5776 20.9457 18.2148Z" fill="#125A9E"/>
<path d="M54.0182 16.0027C51.2757 27.0392 45.5484 35.9045 40.7465 38.1394H40.7366C40.6497 38.1804 40.5629 38.2176 40.4779 38.2541C40.466 38.262 40.4547 38.2627 40.4461 38.2674L40.3718 38.2966C40.3605 38.3038 40.3492 38.3064 40.3387 38.3111C40.2988 38.3257 40.2591 38.3389 40.2192 38.3548C40.202 38.3628 40.1861 38.3674 40.1695 38.3734C40.15 38.3811 40.1301 38.3878 40.1098 38.3934C40.0919 38.4012 40.0733 38.4066 40.0521 38.4146C40.0349 38.4219 40.017 38.4252 40.0011 38.4325C39.9659 38.4431 39.9334 38.4524 39.8982 38.4656C39.8837 38.4656 39.8704 38.4729 39.8551 38.4768C39.8333 38.4849 39.8086 38.4901 39.7855 38.4968C39.7695 38.5041 39.7563 38.5067 39.739 38.5101C39.7141 38.5174 39.6888 38.524 39.6634 38.5299L39.5713 38.5518C39.7888 38.6354 40.0143 38.6778 40.2584 38.6778C44.8122 38.6778 49.4033 30.1614 57.0001 16H54.0174L54.0182 16.0027Z" fill="url(#paint6_linear_1055_1187)"/>
<path d="M15.1849 16.9393C15.1883 16.9393 15.1915 16.932 15.1936 16.932C15.1968 16.932 15.2022 16.932 15.2042 16.924H15.2101C15.2353 16.9154 15.2585 16.9048 15.2831 16.8948C15.2897 16.8948 15.2936 16.8948 15.2983 16.8875C15.305 16.8875 15.3109 16.8802 15.3169 16.8789C15.3441 16.8703 15.3713 16.859 15.3965 16.8497H15.4005C15.4609 16.8312 15.5165 16.808 15.5756 16.7861C15.5835 16.7861 15.5915 16.7788 15.6014 16.7788C15.626 16.7702 15.6512 16.7609 15.6764 16.7549C15.6877 16.7483 15.6996 16.7483 15.7102 16.7436C15.7367 16.7357 15.7619 16.7264 15.7858 16.7204C15.7971 16.7204 15.8071 16.7131 15.815 16.7125C15.8986 16.6886 15.9815 16.666 16.065 16.6448C16.077 16.6448 16.087 16.6375 16.0996 16.6362C16.1234 16.6294 16.1478 16.6245 16.1725 16.6216C16.1831 16.6137 16.1957 16.6137 16.2083 16.6103C16.2328 16.6024 16.2561 16.6017 16.2819 16.5958H16.2992C16.3496 16.5851 16.4013 16.5759 16.4517 16.5666H16.4822C16.5068 16.5586 16.5286 16.5579 16.5525 16.5533C16.5659 16.5533 16.579 16.5467 16.5923 16.5467C16.6149 16.5467 16.6374 16.5387 16.6599 16.5354C16.6712 16.5354 16.6832 16.5354 16.6965 16.5281C16.7495 16.5208 16.8046 16.5175 16.8603 16.5129C16.6994 16.4959 16.5378 16.4871 16.3761 16.4863C11.2479 16.4863 4.18227 26.4167 1 39.2756H1.61284C2.56511 37.4999 3.4889 35.709 4.38389 33.9039C6.61241 24.7959 11.153 18.5846 15.1863 16.9386" fill="url(#paint7_linear_1055_1187)"/>
<path d="M18.0718 20.6013C18.6255 20.0483 19.209 19.5258 19.8194 19.0362C19.6868 18.7338 19.5502 18.4539 19.4029 18.1973C18.934 18.7908 18.5048 19.5747 18.0718 20.6013Z" fill="#0D82CA"/>
<path d="M18.4912 17.0169C18.826 17.31 19.1258 17.7132 19.4011 18.1967C19.4873 18.0859 19.5749 17.9831 19.6658 17.8876C19.3004 17.5257 18.8827 17.2206 18.4268 16.9824C18.4444 16.9922 18.4626 17.0011 18.4812 17.009C18.4812 17.009 18.4878 17.0169 18.4912 17.0169Z" fill="#0D82CA"/>
<path d="M4.38477 33.9067C9.06068 24.5036 11.2759 18.5522 15.1864 16.9414C11.1546 18.5881 6.61329 24.8 4.38477 33.9067Z" fill="url(#paint8_linear_1055_1187)"/>
<path d="M19.6691 17.8867C19.5782 17.9835 19.4914 18.085 19.4038 18.1958C19.551 18.4524 19.6876 18.7316 19.8217 19.0353C19.994 18.8967 20.1665 18.7661 20.337 18.6388C20.1254 18.3662 19.9018 18.1129 19.6691 17.8867Z" fill="#127BCA"/>
<path d="M6.50643 39.2351C6.47724 39.243 6.44806 39.243 6.42153 39.2457H6.40496C6.38107 39.2457 6.35521 39.2536 6.33332 39.2536H6.32072C6.26235 39.2603 6.20466 39.2603 6.14827 39.2655H6.13037C10.8634 39.1269 13.0268 36.6547 14.1 33.0682C14.9157 30.3493 15.5856 28.0586 16.1733 26.1367C14.1915 29.0481 12.2004 32.5192 10.1974 36.4073C9.23237 38.2815 7.76462 39.0639 6.5051 39.2318" fill="url(#paint9_linear_1055_1187)"/>
<path d="M6.50439 39.2334C7.76325 39.0663 9.231 38.2844 10.1967 36.4096C12.1984 32.5221 14.1908 29.0504 16.1713 26.1385C16.8915 23.7789 17.4859 21.9724 18.0695 20.5977C14.1224 24.5183 10.1596 31.0373 6.50439 39.2308" fill="url(#paint10_linear_1055_1187)"/>
<path d="M4.38123 33.9043C3.48649 35.7096 2.56291 37.5003 1.61084 39.276H3.39498C3.63109 37.3939 3.96603 35.598 4.38123 33.9043Z" fill="#05A1E6"/>
<path d="M16.6986 16.5333C16.684 16.5333 16.6734 16.5406 16.6608 16.5406C16.639 16.5486 16.6164 16.5486 16.5944 16.5506C16.5806 16.5506 16.568 16.5506 16.5547 16.5585C16.5301 16.5651 16.5076 16.5665 16.4837 16.5711C16.4731 16.5711 16.4626 16.5711 16.4532 16.5784C16.4022 16.5877 16.3518 16.5976 16.3006 16.6063H16.2841C16.2599 16.6129 16.2353 16.618 16.2105 16.6215C16.1972 16.6288 16.1853 16.6288 16.1734 16.6321C16.1488 16.6388 16.125 16.6427 16.1011 16.6467C16.0885 16.6547 16.0785 16.6547 16.0672 16.6553C15.983 16.6759 15.9 16.6984 15.8165 16.723C15.8079 16.723 15.7986 16.7296 15.788 16.7316C15.7626 16.7391 15.7374 16.7468 15.7124 16.7548C15.701 16.7628 15.6884 16.7628 15.6779 16.7654C15.6527 16.7727 15.6278 16.7804 15.603 16.7886C15.5936 16.7886 15.585 16.7959 15.5764 16.7959C15.5188 16.8185 15.4616 16.841 15.4027 16.8603C15.3775 16.8682 15.3496 16.8788 15.323 16.8888C15.3125 16.8961 15.3025 16.8981 15.2899 16.9027C15.2647 16.9113 15.2395 16.9219 15.2163 16.9319C15.207 16.9385 15.1984 16.9398 15.1917 16.9438C11.2812 18.5547 9.06597 24.506 4.38939 33.9091C3.9572 35.6789 3.62812 37.4722 3.40381 39.2801H3.65385C4.35888 39.2801 4.55786 39.2729 5.36967 39.2729H6.15562C6.21133 39.2656 6.26904 39.2656 6.32806 39.2609H6.33868C6.36322 39.2609 6.3871 39.2529 6.41097 39.2529H6.42756C6.45409 39.2529 6.48393 39.2463 6.51245 39.2423C10.1683 31.0488 14.1305 24.5292 18.0782 20.6078C18.512 19.5819 18.9404 18.7974 19.4086 18.2052C19.1348 17.7217 18.8349 17.3178 18.5 17.0247C18.5 17.0247 18.4908 17.0247 18.49 17.0168C18.4708 17.0088 18.453 16.9989 18.4337 16.9889L18.3792 16.9597C18.3608 16.9518 18.3426 16.943 18.3249 16.9332C18.3017 16.9253 18.2825 16.9146 18.2619 16.9047C18.2447 16.8981 18.2294 16.8901 18.2122 16.8821C18.1773 16.8681 18.1428 16.853 18.1087 16.837L18.0649 16.8198C18.0388 16.81 18.0129 16.7993 17.9873 16.788C17.9741 16.78 17.9607 16.7787 17.9455 16.7734L17.8388 16.7349H17.8295C17.7884 16.7203 17.7478 16.7104 17.7055 16.6984C17.6955 16.6905 17.6876 16.6905 17.6776 16.6892C17.6404 16.6785 17.6079 16.6679 17.5734 16.6587C17.5642 16.6587 17.5562 16.6507 17.5489 16.6507C17.4628 16.6275 17.3758 16.6076 17.2883 16.591C17.2796 16.591 17.2704 16.5844 17.2617 16.5844C17.2244 16.5765 17.1868 16.5701 17.1489 16.5651C17.1397 16.5578 17.1344 16.5578 17.1264 16.5578C17.0823 16.5509 17.0381 16.5449 16.9938 16.5399H16.9699C16.9341 16.5327 16.9003 16.5313 16.8671 16.5273C16.8101 16.5353 16.7564 16.538 16.7033 16.5433" fill="url(#paint11_linear_1055_1187)"/>
<path d="M43.3067 22.1113C42.4067 25.1188 41.6778 27.5996 41.0444 29.6409C43.5124 26.0957 45.9444 21.6364 48.2598 16.4902C45.5592 17.3749 44.1179 19.4016 43.3067 22.1113Z" fill="url(#paint12_linear_1055_1187)"/>
<path d="M41.1243 37.9509C40.9983 38.0173 40.8723 38.0816 40.7476 38.1387C45.5495 35.9037 51.2773 27.0391 54.0198 16.002H53.464C47.1639 27.7487 45.1369 35.6113 41.1243 37.9509Z" fill="url(#paint13_linear_1055_1187)"/>
<path d="M37.9899 36.964C39.0345 35.633 39.8854 33.3709 41.0475 29.6426C39.7077 31.563 38.358 33.2151 37.0084 34.5613C37.0084 34.5693 37.0083 34.5693 37.001 34.5739C37.2955 35.4951 37.6185 36.3075 37.9872 36.964" fill="#079AE1"/>
<path d="M37.9886 36.9629C37.6331 37.4158 37.2564 37.7607 36.8378 38.0167C36.7468 38.0721 36.6537 38.124 36.5586 38.1726C37.0809 38.4686 37.6639 38.641 38.2632 38.6766H38.2778C38.3149 38.6766 38.3534 38.6766 38.3932 38.6839H38.7838C38.7984 38.6839 38.8131 38.6839 38.8276 38.6766C38.8562 38.6766 38.8854 38.6766 38.9139 38.6693H38.957C38.9862 38.6693 39.0187 38.6613 39.0505 38.6587H39.0571C39.0671 38.6587 39.077 38.6506 39.0863 38.6506C39.1195 38.6441 39.1539 38.64 39.1864 38.6354H39.2163C39.2528 38.6275 39.2906 38.6229 39.329 38.6156H39.3456C39.4212 38.6002 39.4955 38.5857 39.5698 38.5658C38.9504 38.329 38.4317 37.7707 37.9846 36.9754" fill="#1969BC"/>
<path d="M29.1343 38.6848C29.584 38.6848 30.0376 38.6391 30.4932 38.5476C30.9151 38.468 31.3369 38.3459 31.7601 38.1914C32.3981 38.5186 33.1051 38.6878 33.8221 38.6848H29.1343Z" fill="#1E5CB3"/>
<path d="M33.8214 38.6851C34.931 38.6851 35.8098 38.5479 36.5566 38.1738C37.0788 38.4698 37.6619 38.6422 38.2612 38.6778H38.2757C38.313 38.6778 38.3513 38.6778 38.3912 38.6851H38.5258H33.8174H33.8214Z" fill="#1E5CB3"/>
<path d="M38.5278 38.6853H38.7846C38.7998 38.6853 38.8138 38.6853 38.8284 38.678C38.8562 38.678 38.886 38.678 38.9159 38.6707H38.9583C38.9882 38.6707 39.0206 38.6627 39.0512 38.6601H39.0592C39.0684 38.6601 39.0778 38.6528 39.087 38.6528C39.1202 38.6455 39.1547 38.6421 39.1865 38.6368C39.1978 38.6368 39.2064 38.6368 39.2177 38.6295C39.2548 38.6222 39.2926 38.6182 39.3304 38.6103H39.349C39.4246 38.5957 39.4982 38.5805 39.5732 38.5605C39.7901 38.6448 40.0162 38.6865 40.2603 38.6865L38.5292 38.6945L38.5278 38.6853Z" fill="#1D60B5"/>
<path d="M37.0049 34.5737V34.5664C36.532 35.0402 36.0379 35.4921 35.5238 35.9207C35.2664 36.1335 35.0098 36.3359 34.7505 36.5267C34.9673 36.7974 35.1882 37.0507 35.4203 37.2828C35.7578 37.6308 36.1423 37.9302 36.5625 38.1721C36.656 38.1244 36.7495 38.072 36.841 38.0163C37.2602 37.7603 37.6369 37.4155 37.9924 36.9624C37.6243 36.3067 37.3013 35.4935 37.0062 34.5724" fill="#175FAB"/>
<path d="M51.7079 16.002H48.9116C48.7604 16.0092 48.6132 16.0152 48.4685 16.0245C48.4002 16.1777 48.3299 16.3309 48.263 16.4847C45.9469 21.6309 43.5154 26.0914 41.0468 29.6361C39.8862 33.3644 39.0338 35.6273 37.9893 36.9575C38.4356 37.7533 38.9555 38.3117 39.5731 38.5492C39.5917 38.5411 39.6063 38.5411 39.6221 38.5379H39.6321C39.6427 38.5379 39.6547 38.5299 39.6659 38.5299C39.6911 38.5226 39.719 38.518 39.7435 38.51C39.7602 38.5021 39.7734 38.5014 39.7899 38.4967C39.8132 38.4888 39.8371 38.4835 39.8589 38.4769C39.8736 38.4703 39.8875 38.4676 39.902 38.4643C39.9379 38.4523 39.9704 38.4437 40.0049 38.4324C40.0213 38.4247 40.0384 38.4185 40.0559 38.4139C40.0758 38.4072 40.0957 38.4012 40.1136 38.3926C40.1349 38.3847 40.1554 38.3807 40.1734 38.3728C40.1892 38.3654 40.2065 38.3608 40.2217 38.3541C40.2622 38.3389 40.302 38.3263 40.3425 38.3097C40.3538 38.3097 40.3643 38.2991 40.3756 38.2964C40.4001 38.2858 40.4253 38.2779 40.4499 38.2666C40.4585 38.2593 40.4699 38.2587 40.4811 38.2547C40.566 38.2175 40.6535 38.1804 40.7403 38.1392H40.7497C40.8744 38.0816 41.0004 38.0179 41.1251 37.9509C45.1391 35.6106 47.166 27.7481 53.4668 16.0026H51.7065L51.7079 16.002Z" fill="url(#paint14_linear_1055_1187)"/>
<path d="M16.8618 16.5196C16.8718 16.5196 16.881 16.5196 16.891 16.5269C16.9149 16.5269 16.9394 16.5269 16.964 16.5356H16.9878L17.1212 16.5535C17.1298 16.5535 17.1364 16.5535 17.1437 16.5608C17.1808 16.5681 17.2186 16.574 17.2564 16.5806C17.2645 16.5806 17.2757 16.5873 17.2843 16.5873C17.3706 16.6059 17.4594 16.6244 17.5436 16.6483C17.5516 16.6483 17.5602 16.6549 17.5669 16.6549C17.6033 16.6642 17.6358 16.6755 17.6717 16.6861C17.6823 16.6861 17.6902 16.6934 17.7001 16.6954C17.7426 16.7067 17.7824 16.7179 17.8235 16.7325C17.8255 16.7325 17.8282 16.7325 17.8328 16.7391C17.868 16.7511 17.9038 16.7657 17.9409 16.7783C17.9556 16.7849 17.9687 16.7889 17.9827 16.7922L18.0597 16.8254C18.0742 16.8254 18.0889 16.836 18.1041 16.8413C18.1372 16.8572 18.1724 16.8711 18.2069 16.8864C18.2249 16.8937 18.2401 16.9023 18.2573 16.9089C18.2772 16.9195 18.2971 16.9288 18.319 16.9368L18.374 16.9633C18.3933 16.9746 18.4112 16.9832 18.4291 16.9931C18.8848 17.2316 19.3024 17.5367 19.6681 17.8984C19.8086 17.7439 19.9559 17.6059 20.1078 17.4819C19.2747 16.8652 18.3303 16.5137 17.2425 16.5137C17.1165 16.5137 16.9898 16.521 16.8618 16.5309" fill="#7DCBEC"/>
<path d="M19.6675 17.8852C19.901 18.1114 20.1238 18.3647 20.3354 18.6373C20.5403 18.4887 20.7426 18.3455 20.9462 18.2128C20.6881 17.9411 20.4069 17.6922 20.1059 17.4688C19.9534 17.5921 19.8075 17.7314 19.6675 17.8852Z" fill="#5EC5ED"/>
<path d="M16.8577 16.5161C16.9857 16.5048 17.1117 16.5002 17.2377 16.5002C18.3268 16.5002 19.2706 16.8517 20.1029 17.4671C20.9824 16.7436 22.0456 16.4902 23.5219 16.4902H16.3735C16.538 16.4902 16.6992 16.5008 16.8577 16.5161Z" fill="url(#paint15_linear_1055_1187)"/>
<path d="M23.5256 16.4902C22.0491 16.4902 20.9866 16.7429 20.1079 17.4664C20.3997 17.682 20.6802 17.932 20.9469 18.2098C22.1712 17.3981 23.383 16.8603 24.5781 16.6255C25.0259 16.5366 25.4813 16.4913 25.9379 16.4902H23.5256Z" fill="url(#paint16_linear_1055_1187)"/>
<path d="M41.0449 29.6449C41.6796 27.6016 42.4065 25.1213 43.3078 22.1125C44.1204 19.4022 45.5576 17.3762 48.2597 16.4915C48.3307 16.3403 48.3983 16.1844 48.4673 16.0312C44.0647 16.3065 42.0066 18.6442 40.9706 22.1059C39.1599 28.1487 38.063 32.0654 37.0063 34.5623C38.3554 33.2161 39.7044 31.5641 41.0449 29.6449Z" fill="url(#paint17_linear_1055_1187)"/>
</g>
</g>
<defs>
<linearGradient id="paint0_linear_1055_1187" x1="25.4689" y1="16.3447" x2="25.4689" y2="44.2219" gradientUnits="userSpaceOnUse">
<stop stop-color="#0994DC"/>
<stop offset="0.35" stop-color="#66CEF5"/>
<stop offset="0.846" stop-color="#127BCA"/>
<stop offset="1" stop-color="#127BCA"/>
</linearGradient>
<linearGradient id="paint1_linear_1055_1187" x1="26.493" y1="15.638" x2="26.493" y2="44.2253" gradientUnits="userSpaceOnUse">
<stop stop-color="#0E76BC"/>
<stop offset="0.36" stop-color="#36AEE8"/>
<stop offset="0.846" stop-color="#00ADEF"/>
<stop offset="1" stop-color="#00ADEF"/>
</linearGradient>
<linearGradient id="paint2_linear_1055_1187" x1="31.9927" y1="38.0418" x2="31.9927" y2="15.2956" gradientUnits="userSpaceOnUse">
<stop stop-color="#1C63B7"/>
<stop offset="0.5" stop-color="#33BDF2"/>
<stop offset="1" stop-color="#33BDF2" stop-opacity="0.42"/>
</linearGradient>
<linearGradient id="paint3_linear_1055_1187" x1="30.5613" y1="12.7415" x2="30.5613" y2="42.4224" gradientUnits="userSpaceOnUse">
<stop stop-color="#166AB8"/>
<stop offset="0.4" stop-color="#36AEE8"/>
<stop offset="0.846" stop-color="#0798DD"/>
<stop offset="1" stop-color="#0798DD"/>
</linearGradient>
<linearGradient id="paint4_linear_1055_1187" x1="28.3189" y1="12.8984" x2="28.3189" y2="44.4607" gradientUnits="userSpaceOnUse">
<stop stop-color="#124379"/>
<stop offset="0.39" stop-color="#1487CB"/>
<stop offset="0.78" stop-color="#165197"/>
<stop offset="1" stop-color="#165197"/>
</linearGradient>
<linearGradient id="paint5_linear_1055_1187" x1="16.1733" y1="22.5897" x2="20.4493" y2="22.5897" gradientUnits="userSpaceOnUse">
<stop stop-color="#33BDF2" stop-opacity="0.698"/>
<stop offset="1" stop-color="#1DACD8"/>
</linearGradient>
<linearGradient id="paint6_linear_1055_1187" x1="48.2877" y1="37.4729" x2="48.2877" y2="15.3143" gradientUnits="userSpaceOnUse">
<stop stop-color="#136AB4"/>
<stop offset="0.6" stop-color="#59CAF5" stop-opacity="0.549"/>
<stop offset="1" stop-color="#59CAF5" stop-opacity="0.235"/>
</linearGradient>
<linearGradient id="paint7_linear_1055_1187" x1="0.999337" y1="27.881" x2="16.8603" y2="27.881" gradientUnits="userSpaceOnUse">
<stop stop-color="#05A1E6" stop-opacity="0.247"/>
<stop offset="1" stop-color="#05A1E6"/>
</linearGradient>
<linearGradient id="paint8_linear_1055_1187" x1="9.7856" y1="38.0316" x2="9.7856" y2="15.3432" gradientUnits="userSpaceOnUse">
<stop stop-color="#318ED5"/>
<stop offset="1" stop-color="#38A7E4"/>
</linearGradient>
<linearGradient id="paint9_linear_1055_1187" x1="11.1525" y1="38.1103" x2="11.1525" y2="16.0559" gradientUnits="userSpaceOnUse">
<stop stop-color="#05A1E6"/>
<stop offset="1" stop-color="#05A1E6" stop-opacity="0.549"/>
</linearGradient>
<linearGradient id="paint10_linear_1055_1187" x1="12.2866" y1="39.2354" x2="12.2866" y2="20.599" gradientUnits="userSpaceOnUse">
<stop stop-color="#1959A6"/>
<stop offset="0.5" stop-color="#05A1E6"/>
<stop offset="0.918" stop-color="#7EC5EA"/>
<stop offset="1" stop-color="#7EC5EA"/>
</linearGradient>
<linearGradient id="paint11_linear_1055_1187" x1="12.9752" y1="38.044" x2="6.43886" y2="18.903" gradientUnits="userSpaceOnUse">
<stop stop-color="#165096"/>
<stop offset="1" stop-color="#0D82CA"/>
</linearGradient>
<linearGradient id="paint12_linear_1055_1187" x1="44.6519" y1="26.6162" x2="44.6519" y2="16.0559" gradientUnits="userSpaceOnUse">
<stop stop-color="#05A1E6"/>
<stop offset="0.874" stop-color="#0495D6"/>
<stop offset="1" stop-color="#0495D6"/>
</linearGradient>
<linearGradient id="paint13_linear_1055_1187" x1="49.4096" y1="15.0815" x2="39.291" y2="36.6103" gradientUnits="userSpaceOnUse">
<stop stop-color="#38A7E4" stop-opacity="0.329"/>
<stop offset="0.962" stop-color="#0E88D3"/>
<stop offset="1" stop-color="#0E88D3"/>
</linearGradient>
<linearGradient id="paint14_linear_1055_1187" x1="45.73" y1="15.935" x2="45.73" y2="38.9729" gradientUnits="userSpaceOnUse">
<stop stop-color="#168CD4"/>
<stop offset="0.5" stop-color="#1C87CC"/>
<stop offset="1" stop-color="#154B8D"/>
</linearGradient>
<linearGradient id="paint15_linear_1055_1187" x1="17.5653" y1="15.4597" x2="17.6695" y2="17.8756" gradientUnits="userSpaceOnUse">
<stop stop-color="#97D6EE"/>
<stop offset="0.703" stop-color="#55C1EA"/>
<stop offset="1" stop-color="#55C1EA"/>
</linearGradient>
<linearGradient id="paint16_linear_1055_1187" x1="20.5092" y1="18.1017" x2="20.9786" y2="15.5492" gradientUnits="userSpaceOnUse">
<stop stop-color="#7ACCEC"/>
<stop offset="1" stop-color="#3FB7ED"/>
</linearGradient>
<linearGradient id="paint17_linear_1055_1187" x1="42.7368" y1="17.2104" x2="42.7368" y2="39.7437" gradientUnits="userSpaceOnUse">
<stop stop-color="#1DA7E7"/>
<stop offset="1" stop-color="#37ABE7" stop-opacity="0"/>
</linearGradient>
<clipPath id="clip0_1055_1187">
<rect width="56" height="24" fill="white" transform="translate(1 16)"/>
</clipPath>
</defs>
</svg>
