<svg width="58" height="58" viewBox="0 0 58 58" fill="none" xmlns="http://www.w3.org/2000/svg">
<g clip-path="url(#clip0_1055_1275)">
<path d="M13.3959 25.3636C15.0422 25.3636 16.1031 25.6555 16.636 26.2871C17.1689 26.9187 17.3116 27.9426 17.0214 29.397C16.7311 30.8516 16.1507 32.0239 15.3276 32.6554C14.5045 33.287 13.2008 33.6124 11.4594 33.6124H8.85217L10.446 25.3445L13.3959 25.3636ZM3 41.9951H7.25353L8.26695 36.732H11.9448C13.2856 36.762 14.6228 36.5812 15.9081 36.1961C16.9696 35.8397 17.943 35.2589 18.7628 34.4927C19.4518 33.8584 20.0392 33.1208 20.5042 32.3062C20.9494 31.483 21.2701 30.5977 21.4558 29.6794C21.8887 27.3445 21.5509 25.4976 20.4424 24.2345C19.3337 22.9713 17.4924 22.2871 15.0279 22.2871H6.82056L3 41.9951Z" fill="#6082BB"/>
<path d="M24.6015 17H28.8836L27.8702 22.2631H31.6432C34.0221 22.2631 35.6588 22.6985 36.5771 23.5263C37.4953 24.354 37.738 25.7128 37.4002 27.5645L35.5921 36.7415H31.3101L32.9801 28.0382C33.1752 27.0813 33.1228 26.3828 32.7851 25.9952C32.4472 25.6076 31.7383 25.4593 30.6583 25.4593H27.2754L25.0773 36.7415H20.8428L24.6015 17Z" fill="#6082BB"/>
<path d="M46.7625 25.3636C48.4089 25.3636 49.4698 25.6555 50.0027 26.2871C50.5356 26.9187 50.6783 27.9426 50.3881 29.397C50.0978 30.8516 49.5174 32.0239 48.6943 32.6554C47.8712 33.287 46.5675 33.6124 44.8261 33.6124H42.2046L43.7985 25.3445L46.7625 25.3636ZM36.3667 41.9951H40.6202L41.6336 36.732H45.3066C46.6474 36.762 47.9847 36.5812 49.27 36.1961C50.3316 35.8397 51.3049 35.2589 52.1247 34.4927C52.8137 33.8584 53.4011 33.1208 53.8661 32.3062C54.3113 31.483 54.632 30.5977 54.8177 29.6794C55.2506 27.3445 54.9128 25.4976 53.8043 24.2345C52.6957 22.9713 50.8543 22.2871 48.3898 22.2871H40.1872L36.3809 41.9808L36.3667 41.9951Z" fill="#6082BB"/>
</g>
<defs>
<clipPath id="clip0_1055_1275">
<rect width="52" height="25" fill="white" transform="translate(3 17)"/>
</clipPath>
</defs>
</svg>
