<svg width="58" height="58" viewBox="0 0 58 58" fill="none" xmlns="http://www.w3.org/2000/svg">
<g clip-path="url(#clip0_1055_1265)">
<path d="M28.0119 8.00035C26.2582 8.0085 24.5835 8.15807 23.1098 8.41882C18.7688 9.18575 17.9806 10.791 17.9806 13.7513V17.661H28.2391V18.9642H17.9806H14.1307C11.1493 18.9642 8.53873 20.7562 7.72217 24.1652C6.78028 28.0726 6.7385 30.511 7.72217 34.591C8.45138 37.6281 10.1928 39.7919 13.1742 39.7919H16.7013V35.1052C16.7013 31.7192 19.6309 28.7325 23.1098 28.7325H33.3563C36.2086 28.7325 38.4856 26.384 38.4856 23.5196V13.7513C38.4856 10.9712 36.1402 8.88281 33.3563 8.41882C31.5941 8.12547 29.7656 7.9922 28.0119 8.00035ZM22.4642 11.1448C23.5238 11.1448 24.3892 12.0243 24.3892 13.1057C24.3892 14.1832 23.5238 15.0545 22.4642 15.0545C21.4008 15.0545 20.5393 14.1832 20.5393 13.1057C20.5393 12.0243 21.4008 11.1448 22.4642 11.1448Z" fill="url(#paint0_linear_1055_1265)"/>
<path d="M39.7652 18.9648V23.5202C39.7652 27.0519 36.7711 30.0243 33.3567 30.0243H23.1102C20.3035 30.0243 17.981 32.4265 17.981 35.2373V45.0055C17.981 47.7857 20.3984 49.4209 23.1102 50.2184C26.3575 51.1734 29.4714 51.3459 33.3567 50.2184C35.9393 49.4708 38.4859 47.9659 38.4859 45.0055V41.0959H28.2394V39.7926H38.4859H43.6152C46.5965 39.7926 47.7075 37.7131 48.7443 34.5917C49.8154 31.3783 49.7698 28.288 48.7443 24.1658C48.0075 21.1978 46.6004 18.9648 43.6152 18.9648H39.7652ZM34.0023 43.7023C35.0657 43.7023 35.9272 44.5737 35.9272 45.6512C35.9272 46.7325 35.0657 47.612 34.0023 47.612C32.9427 47.612 32.0773 46.7325 32.0773 45.6512C32.0773 44.5737 32.9427 43.7023 34.0023 43.7023Z" fill="url(#paint1_linear_1055_1265)"/>
</g>
<defs>
<linearGradient id="paint0_linear_1055_1265" x1="7" y1="8" x2="30.6548" y2="28.1572" gradientUnits="userSpaceOnUse">
<stop stop-color="#5A9FD4"/>
<stop offset="1" stop-color="#306998"/>
</linearGradient>
<linearGradient id="paint1_linear_1055_1265" x1="33.7558" y1="45.3224" x2="25.2693" y2="33.4304" gradientUnits="userSpaceOnUse">
<stop stop-color="#FFD43B"/>
<stop offset="1" stop-color="#FFE873"/>
</linearGradient>
<clipPath id="clip0_1055_1265">
<rect width="43" height="43" fill="white" transform="translate(7 8)"/>
</clipPath>
</defs>
</svg>
