<svg width="58" height="58" viewBox="0 0 58 58" fill="none" xmlns="http://www.w3.org/2000/svg">
<path d="M51 29.5044C51 26.6034 47.3498 23.854 41.7534 22.149C43.0448 16.4717 42.4709 11.9549 39.9417 10.5089C39.3587 10.1696 38.6771 10.009 37.9327 10.009V11.9996C38.3453 11.9996 38.6771 12.0799 38.9552 12.2317C40.1749 12.9279 40.7041 15.5791 40.2914 18.989C40.1929 19.8281 40.0314 20.7119 39.8341 21.6134C38.0762 21.1849 36.157 20.8547 34.139 20.6404C32.9282 18.989 31.6726 17.4894 30.4081 16.1771C33.3318 13.4724 36.0763 11.9906 37.9417 11.9906V10C35.4754 10 32.2467 11.7497 28.9821 14.7847C25.7174 11.7675 22.4888 10.0357 20.0225 10.0357V12.0263C21.8789 12.0263 24.6323 13.4992 27.556 16.1861C26.3004 17.4983 25.0448 18.989 23.8521 20.6404C21.8251 20.8547 19.9058 21.1849 18.148 21.6224C17.9417 20.7297 17.7892 19.8638 17.6816 19.0337C17.2601 15.6238 17.7803 12.9725 18.9911 12.2674C19.2601 12.1067 19.6098 12.0353 20.0225 12.0353V10.0447C19.2691 10.0447 18.5874 10.2053 17.9955 10.5445C15.4753 11.9906 14.9103 16.4985 16.2107 22.158C10.6323 23.8718 7 26.6122 7 29.5044C7 32.4056 10.6502 35.155 16.2466 36.8599C14.9551 42.5373 15.5292 47.054 18.0583 48.5001C18.6412 48.8394 19.3228 49 20.0762 49C22.5425 49 25.7714 47.2505 29.0358 44.2155C32.3005 47.2326 35.5291 48.9643 37.9956 48.9643C38.7488 48.9643 39.4305 48.8037 40.0224 48.4645C42.5426 47.0184 43.1076 42.5105 41.8072 36.851C47.3677 35.146 51 32.3966 51 29.5044ZM39.3229 23.5506C38.991 24.7021 38.5785 25.8892 38.1121 27.0764C37.7444 26.3623 37.3587 25.6482 36.9372 24.9342C36.5247 24.22 36.0853 23.5237 35.6458 22.8453C36.9193 23.0327 38.148 23.2648 39.3229 23.5506ZM35.2152 33.0573C34.5157 34.2623 33.7983 35.4049 33.0539 36.4671C31.7175 36.5833 30.3632 36.6457 29 36.6457C27.6457 36.6457 26.2915 36.5833 24.9642 36.4761C24.2198 35.4138 23.4933 34.2802 22.7937 33.0841C22.1121 31.9146 21.4933 30.7274 20.9282 29.5312C21.4843 28.3351 22.1121 27.1389 22.7847 25.9696C23.4844 24.7646 24.2018 23.6219 24.9462 22.5597C26.2826 22.4436 27.6367 22.3811 29 22.3811C30.3542 22.3811 31.7085 22.4435 33.0359 22.5507C33.7803 23.613 34.5067 24.7466 35.2062 25.9427C35.8879 27.1122 36.5068 28.2994 37.0717 29.4956C36.5068 30.6917 35.8879 31.8879 35.2152 33.0573ZM38.1121 31.8968C38.5964 33.0929 39.009 34.2891 39.3497 35.4496C38.1749 35.7352 36.9372 35.9763 35.6547 36.1637C36.0941 35.4764 36.5336 34.7711 36.9462 34.0481C37.3587 33.334 37.7444 32.6109 38.1121 31.8968ZM29.018 41.4214C28.1839 40.5645 27.3498 39.6093 26.5246 38.5649C27.3318 38.6006 28.1569 38.6274 28.991 38.6274C29.834 38.6274 30.6681 38.6095 31.4843 38.5649C30.6771 39.6093 29.843 40.5645 29.018 41.4214ZM22.3453 36.1637C21.0717 35.9763 19.843 35.7442 18.6682 35.4584C19.0001 34.3069 19.4126 33.1197 19.879 31.9326C20.2467 32.6467 20.6322 33.3607 21.0539 34.0748C21.4753 34.789 21.9058 35.4853 22.3453 36.1637ZM28.9731 17.5876C29.8072 18.4445 30.6412 19.3997 31.4663 20.4441C30.6592 20.4083 29.834 20.3816 29 20.3816C28.1569 20.3816 27.3229 20.3994 26.5068 20.4441C27.3139 19.3997 28.1479 18.4445 28.9731 17.5876ZM22.3363 22.8453C21.8968 23.5326 21.4574 24.2379 21.0449 24.9608C20.6322 25.675 20.2467 26.3891 19.879 27.1032C19.3946 25.9071 18.9821 24.7109 18.6412 23.5506C19.8161 23.2738 21.0539 23.0327 22.3363 22.8453ZM14.2197 34.0213C11.0449 32.6734 8.99104 30.906 8.99104 29.5044C8.99104 28.103 11.0449 26.3266 14.2197 24.9877C14.991 24.6574 15.8341 24.3628 16.7041 24.0861C17.2153 25.8357 17.8879 27.6567 18.7219 29.5224C17.8969 31.3791 17.2332 33.1912 16.7309 34.9317C15.843 34.6551 15 34.3516 14.2197 34.0213ZM19.0449 46.7773C17.8252 46.0811 17.296 43.4299 17.7085 40.02C17.8072 39.1809 17.9687 38.2971 18.1659 37.3955C19.9238 37.8239 21.8431 38.1543 23.8611 38.3686C25.0717 40.02 26.3273 41.5196 27.5919 42.8319C24.6682 45.5365 21.9238 47.0184 20.0583 47.0184C19.6548 47.0094 19.3139 46.9291 19.0449 46.7773ZM40.3184 39.9753C40.7399 43.3852 40.2197 46.0365 39.009 46.7416C38.7398 46.9023 38.3901 46.9737 37.9776 46.9737C36.1211 46.9737 33.3677 45.5008 30.4439 42.8139C31.6995 41.5017 32.9552 40.011 34.148 38.3596C36.1748 38.1453 38.0941 37.8151 39.852 37.3777C40.0583 38.2793 40.2197 39.1451 40.3184 39.9753ZM43.7713 34.0213C43 34.3516 42.1569 34.6462 41.287 34.9229C40.7758 33.1732 40.1031 31.3522 39.269 29.4866C40.0942 27.6299 40.7578 25.8178 41.2601 24.0771C42.148 24.3538 42.9911 24.6574 43.7803 24.9877C46.9552 26.3356 49.009 28.103 49.009 29.5044C49 30.906 46.9462 32.6824 43.7713 34.0213Z" fill="#61DAFB"/>
<path d="M28.9901 33.5851C31.2537 33.5851 33.0888 31.7586 33.0888 29.5056C33.0888 27.2526 31.2537 25.4262 28.9901 25.4262C26.7266 25.4262 24.8915 27.2526 24.8915 29.5056C24.8915 31.7586 26.7266 33.5851 28.9901 33.5851Z" fill="#61DAFB"/>
</svg>
