<svg width="58" height="58" viewBox="0 0 58 58" fill="none" xmlns="http://www.w3.org/2000/svg">
<g clip-path="url(#clip0_1055_1711)">
<mask id="mask0_1055_1711" style="mask-type:luminance" maskUnits="userSpaceOnUse" x="2" y="12" width="53" height="35">
<path d="M2.01172 12.0918H54.8176V46.9086H2.01172V12.0918Z" fill="white"/>
</mask>
<g mask="url(#mask0_1055_1711)">
<path fill-rule="evenodd" clip-rule="evenodd" d="M23.9379 15.9036C25.6425 14.2287 28.0149 13.1915 30.6357 13.1915C34.1302 13.1915 37.1588 15.024 38.7896 17.7543C40.2371 17.1435 41.8051 16.8282 43.3907 16.8289C49.6808 16.8289 54.7866 21.685 54.7866 27.6771C54.7866 33.6693 49.6808 38.5253 43.3907 38.5253C42.6219 38.5253 41.8725 38.4523 41.1387 38.3145C39.7117 40.7151 36.9841 42.346 33.8779 42.346C32.6132 42.3483 31.3647 42.0775 30.228 41.5543C28.7817 44.7611 25.4134 47.0151 21.4918 47.0151C17.3954 47.0151 13.9204 44.5779 12.5808 41.1512C11.9846 41.27 11.3769 41.3297 10.7675 41.3293C5.89464 41.3293 1.95361 37.5544 1.95361 32.9183C1.95361 29.8031 3.72804 27.0911 6.36057 25.6251C5.80208 24.4108 5.51461 23.1008 5.51607 21.777C5.51607 16.4262 10.1172 12.1016 15.786 12.1016C19.1058 12.1016 22.0761 13.595 23.9399 15.9131" fill="#00A1E0"/>
</g>
<path fill-rule="evenodd" clip-rule="evenodd" d="M9.64921 30.1973C9.61602 30.2791 9.66106 30.2961 9.67173 30.3106C9.77094 30.3784 9.8717 30.4275 9.97265 30.4827C10.5124 30.752 11.021 30.8308 11.5529 30.8308C12.6362 30.8308 13.3099 30.2866 13.3099 29.4107V29.3934C13.3099 28.5835 12.5489 28.2885 11.8383 28.0777L11.7453 28.0493C11.2076 27.8848 10.7436 27.7415 10.7436 27.408V27.3909C10.7436 27.1051 11.0154 26.8943 11.4347 26.8943C11.9006 26.8943 12.4559 27.0407 12.8112 27.226C12.8112 27.226 12.9164 27.2901 12.9546 27.1943C12.9754 27.1424 13.1565 26.6849 13.1759 26.6336C13.1965 26.5799 13.1604 26.5394 13.1233 26.5185C12.7156 26.2839 12.1526 26.1245 11.5702 26.1245L11.4621 26.1249C10.47 26.1249 9.77696 26.6911 9.77696 27.5011V27.5185C9.77696 28.3724 10.5419 28.6509 11.2563 28.8433L11.3712 28.8771C11.8915 29.028 12.3419 29.1593 12.3419 29.5038V29.521C12.3419 29.838 12.0488 30.0744 11.579 30.0744C11.3963 30.0744 10.814 30.0714 10.1831 29.6951C10.1068 29.6531 10.0633 29.6229 10.0045 29.589C9.97343 29.5712 9.89577 29.5391 9.86199 29.6351L9.64844 30.1959M25.5096 30.1959C25.4764 30.2776 25.5214 30.2946 25.5325 30.3091C25.6313 30.3769 25.7325 30.426 25.8334 30.4812C26.3731 30.7506 26.8818 30.8294 27.4137 30.8294C28.497 30.8294 29.1707 30.2851 29.1707 29.4092V29.392C29.1707 28.582 28.4116 28.287 27.6991 28.0763L27.6061 28.0479C27.0684 27.8833 26.6044 27.74 26.6044 27.4065V27.3895C26.6044 27.1036 26.8762 26.8929 27.2955 26.8929C27.7614 26.8929 28.3147 27.0393 28.6719 27.2245C28.6719 27.2245 28.7772 27.2887 28.8156 27.1928C28.8362 27.141 29.0175 26.6834 29.035 26.6321C29.0558 26.5784 29.0195 26.5379 28.9826 26.517C28.5749 26.2825 28.0119 26.123 27.4295 26.123L27.3211 26.1234C26.3291 26.1234 25.636 26.6896 25.636 27.4996V27.517C25.636 28.3709 26.4009 28.6495 27.1153 28.8419L27.2301 28.8756C27.7523 29.0266 28.2008 29.1578 28.2008 29.5023V29.5195C28.2008 29.8365 27.9076 30.0729 27.4378 30.0729C27.2547 30.0729 26.6709 30.07 26.0419 29.6936C25.9656 29.6516 25.921 29.6227 25.8631 29.5875C25.8435 29.5758 25.7521 29.5421 25.7208 29.6337L25.5073 30.1944M36.3402 28.4792C36.3402 28.974 36.2424 29.3643 36.051 29.641C35.8599 29.914 35.5715 30.0478 35.1696 30.0478C34.7677 30.0478 34.4804 29.9151 34.2921 29.6428C34.1024 29.368 34.0067 28.9758 34.0067 28.4811C34.0067 27.9863 34.103 27.5978 34.2921 27.3248C34.48 27.0536 34.7658 26.9235 35.1696 26.9235C35.5734 26.9235 35.8607 27.0549 36.051 27.3248C36.2436 27.5978 36.3402 27.9863 36.3402 28.4811M37.2449 27.563C37.1558 27.279 37.0178 27.0297 36.8334 26.8208C36.6487 26.6119 36.416 26.4434 36.1383 26.3224C35.8627 26.2006 35.5365 26.1392 35.1676 26.1392C34.7988 26.1392 34.4746 26.2009 34.1969 26.3224C33.9213 26.4441 33.6864 26.6119 33.5019 26.8208C33.3179 27.0297 33.1797 27.279 33.0904 27.563C33.002 27.8452 32.9572 28.153 32.9572 28.4811C32.9572 28.8091 33.002 29.1169 33.0904 29.3991C33.1791 29.6832 33.3175 29.9324 33.5019 30.1413C33.6866 30.3502 33.9213 30.5169 34.1969 30.636C34.4746 30.7548 34.8007 30.8152 35.1676 30.8152C35.5346 30.8152 35.8607 30.7548 36.1364 30.636C36.4121 30.5173 36.647 30.3502 36.8314 30.1413C37.0157 29.9324 37.1537 29.6832 37.243 29.3991C37.3311 29.1169 37.376 28.8091 37.376 28.4811C37.376 28.1549 37.3311 27.8452 37.243 27.563M44.6785 29.9085C44.6488 29.8255 44.563 29.8569 44.563 29.8569C44.4316 29.9043 44.2912 29.9483 44.1417 29.9703C43.9911 29.9927 43.8233 30.0038 43.6467 30.0038C43.2099 30.0038 42.8604 29.8809 42.6119 29.6373C42.3615 29.3936 42.2217 29.0015 42.2236 28.4701C42.225 27.9863 42.3489 27.6235 42.5711 27.3449C42.7905 27.0701 43.1283 26.9271 43.5748 26.9271C43.9476 26.9271 44.233 26.968 44.5319 27.0563C44.5319 27.0563 44.6028 27.0855 44.6368 26.9973C44.7162 26.7902 44.7748 26.6418 44.86 26.4146C44.8841 26.3495 44.8251 26.3221 44.8035 26.3142C44.6863 26.2709 44.4094 26.2 44.1998 26.1701C44.0037 26.1419 43.7766 26.1273 43.5203 26.1273C43.1398 26.1273 42.802 26.1886 42.5127 26.3103C42.2234 26.4318 41.9788 26.5999 41.7847 26.8088C41.5905 27.0177 41.443 27.2669 41.344 27.5509C41.2459 27.8331 41.1964 28.1428 41.1964 28.4708C41.1964 29.1781 41.3983 29.7517 41.7983 30.1713C42.1982 30.5928 42.8 30.8053 43.5844 30.8053C44.0483 30.8053 44.524 30.7168 44.8657 30.5891C44.8657 30.5891 44.9309 30.5594 44.9026 30.4876L44.6793 29.9085M46.2615 28.0028C46.3048 27.7279 46.3846 27.4989 46.51 27.3211C46.6978 27.0499 46.9837 26.9015 47.3856 26.9015C47.7875 26.9015 48.0534 27.0506 48.2437 27.3211C48.3699 27.4998 48.425 27.7371 48.4456 28.0028L46.2518 28.0024L46.2615 28.0028ZM49.3095 27.3981C49.2324 27.125 49.0416 26.8483 48.9174 26.7219C48.7193 26.5222 48.5271 26.3811 48.3349 26.3041C48.0575 26.1927 47.759 26.1356 47.4574 26.1361C47.075 26.1361 46.7275 26.1971 46.446 26.3211C46.1645 26.4461 45.9276 26.6162 45.7412 26.8287C45.5551 27.0413 45.4151 27.2923 45.3258 27.58C45.2365 27.8641 45.1914 28.1756 45.1914 28.5018C45.1914 28.8353 45.2382 29.145 45.3302 29.4253C45.4232 29.7075 45.5729 29.9549 45.7748 30.1601C45.9767 30.3672 46.2349 30.5285 46.5456 30.6421C46.8542 30.7548 47.2289 30.8132 47.658 30.8119C48.5433 30.8092 49.0092 30.6232 49.1994 30.5224C49.2334 30.5045 49.2655 30.4735 49.2255 30.3843L49.0255 29.8547C48.9948 29.7757 48.9102 29.8043 48.9102 29.8043C48.6908 29.8816 48.3802 30.0205 47.6522 30.0187C47.1765 30.0179 46.8251 29.8855 46.6038 29.6778C46.3786 29.4653 46.266 29.1556 46.2485 28.7158L49.3159 28.718C49.3159 28.718 49.3967 28.7173 49.405 28.6429C49.4083 28.6121 49.5101 28.0491 49.3136 27.3986L49.3095 27.3981ZM21.7418 28.0028C21.785 27.7279 21.865 27.4989 21.9903 27.3211C22.1782 27.0499 22.464 26.9015 22.8658 26.9015C23.2677 26.9015 23.5337 27.0506 23.7239 27.3211C23.8499 27.4998 23.905 27.7371 23.9258 28.0028L21.732 28.0024L21.7418 28.0028ZM24.7897 27.3981C24.7129 27.125 24.5218 26.8483 24.3976 26.7219C24.1996 26.5222 24.0074 26.3811 23.8152 26.3041C23.5377 26.1927 23.2392 26.1356 22.9377 26.1361C22.5552 26.1361 22.2077 26.1971 21.9262 26.3211C21.6447 26.4461 21.4078 26.6162 21.2215 26.8287C21.0357 27.0413 20.8953 27.2923 20.806 27.58C20.7169 27.8641 20.672 28.1756 20.672 28.5018C20.672 28.8353 20.7184 29.145 20.8111 29.4253C20.9038 29.7075 21.0537 29.9549 21.2537 30.1601C21.4556 30.3672 21.7138 30.5285 22.0244 30.6421C22.3331 30.7548 22.7058 30.8132 23.1368 30.8119C24.0221 30.8092 24.488 30.6232 24.6783 30.5224C24.7121 30.5045 24.7443 30.4735 24.7041 30.3843L24.5042 29.8547C24.4733 29.7757 24.3886 29.8043 24.3886 29.8043C24.1693 29.8816 23.8586 30.0205 23.1306 30.0187C22.6569 30.0179 22.3036 29.8855 22.0823 29.6778C21.8571 29.4653 21.7445 29.1556 21.727 28.7158L24.7944 28.718C24.7944 28.718 24.8752 28.7173 24.8835 28.6429C24.8868 28.6121 24.9885 28.0491 24.7919 27.3986L24.7897 27.3981ZM15.1216 29.8902C15.0014 29.7997 14.9847 29.7775 14.9449 29.7187C14.8842 29.6302 14.8531 29.5043 14.8531 29.343C14.8531 29.0902 14.9424 28.9069 15.1269 28.7841C15.1249 28.7845 15.3909 28.5679 16.016 28.5752C16.2943 28.5799 16.5719 28.6023 16.8469 28.6421V29.956H16.8473C16.8473 29.956 16.459 30.035 16.0203 30.0599C15.3971 30.0953 15.1214 29.8906 15.1234 29.8911L15.1216 29.8902ZM16.3408 27.8562C16.2166 27.8476 16.0554 27.8434 15.8632 27.8434C15.6011 27.8434 15.3468 27.8741 15.11 27.9346C14.8712 27.9955 14.6557 28.0896 14.4712 28.215C14.2863 28.3395 14.1342 28.5025 14.0267 28.6914C13.9181 28.882 13.8628 29.1056 13.8628 29.3584C13.8628 29.615 13.91 29.8367 14.0032 30.0181C14.0945 30.1981 14.232 30.3536 14.4031 30.4707C14.5734 30.5877 14.7836 30.6741 15.0263 30.7255C15.267 30.7773 15.5388 30.8035 15.8378 30.8035C16.1523 30.8035 16.4649 30.7786 16.7677 30.7304C17.0257 30.6884 17.2826 30.6412 17.5384 30.5889C17.6406 30.5668 17.7539 30.5376 17.7539 30.5376C17.8297 30.5195 17.8238 30.4431 17.8238 30.4431L17.8221 27.8043C17.8221 27.2253 17.6582 26.7946 17.3348 26.5289C17.0125 26.2632 16.5408 26.1295 15.9292 26.1295C15.7001 26.1295 15.3293 26.1588 15.108 26.2007C15.108 26.2007 14.4402 26.3232 14.1645 26.5269C14.1645 26.5269 14.1039 26.5621 14.1369 26.6418L14.3544 27.1916C14.3814 27.2628 14.4549 27.2385 14.4549 27.2385C14.4549 27.2385 14.478 27.2299 14.5052 27.2146C15.0935 26.9123 15.839 26.9214 15.839 26.9214C16.169 26.9214 16.4253 26.9847 16.5961 27.1084C16.7632 27.2295 16.8485 27.4125 16.8485 27.7974V27.9196C16.5864 27.8837 16.3437 27.863 16.3437 27.863L16.3408 27.8562ZM40.9965 26.3664C41.0009 26.3567 41.0032 26.3463 41.0033 26.3358C41.0033 26.3253 41.0012 26.3149 40.9969 26.3051C40.9926 26.2954 40.9862 26.2866 40.9783 26.2793C40.9703 26.2719 40.9609 26.2661 40.9505 26.2623C40.8982 26.2436 40.6379 26.1918 40.4379 26.18C40.0535 26.1573 39.84 26.2185 39.6478 26.2999C39.4579 26.3807 39.2479 26.5106 39.1314 26.6609L39.131 26.309C39.131 26.2607 39.0947 26.2216 39.0431 26.2216H38.2587C38.2079 26.2216 38.171 26.2607 38.171 26.309V30.6153C38.171 30.6386 38.1808 30.6609 38.1983 30.6773C38.2157 30.6938 38.2393 30.7031 38.264 30.7031H39.0677C39.0923 30.7031 39.1159 30.6938 39.1333 30.6773C39.1507 30.6609 39.1605 30.6386 39.1605 30.6153V28.453C39.1605 28.1635 39.1943 27.8758 39.2617 27.6944C39.328 27.515 39.4183 27.3719 39.5296 27.2693C39.6357 27.1701 39.7655 27.0966 39.9081 27.0549C40.042 27.0186 40.1805 27.0002 40.3197 27.0002C40.4799 27.0002 40.6556 27.0391 40.6556 27.0391C40.7146 27.0453 40.7474 27.0112 40.7674 26.961C40.82 26.8289 40.9693 26.4333 40.9984 26.3545" fill="#FFFFFE"/>
<path fill-rule="evenodd" clip-rule="evenodd" d="M33.4899 24.3776C33.3905 24.3493 33.2894 24.3267 33.1872 24.3098C33.0497 24.2882 32.9104 24.278 32.771 24.2794C32.2171 24.2794 31.7805 24.4271 31.4739 24.7189C31.1695 25.0084 30.9624 25.4495 30.8585 26.0298L30.821 26.2257H30.1258C30.1258 26.2257 30.041 26.2224 30.0231 26.3098L29.909 26.9108C29.901 26.9684 29.9272 27.0043 30.0087 27.0039H30.6855L29.9988 30.6218C29.9451 30.9131 29.8835 31.1528 29.8154 31.3344C29.7482 31.5136 29.6826 31.6479 29.6018 31.7454C29.5236 31.8398 29.4494 31.9092 29.3215 31.9497C29.2159 31.9833 29.0944 31.9987 28.9612 31.9987C28.887 31.9987 28.7884 31.9869 28.7156 31.9732C28.6428 31.9596 28.6049 31.9442 28.5504 31.9226C28.5504 31.9226 28.471 31.894 28.4397 31.9692C28.4143 32.0306 28.2339 32.4987 28.2126 32.5567C28.1908 32.6138 28.2213 32.6589 28.2597 32.6719C28.3498 32.7023 28.4168 32.7218 28.5395 32.7491C28.71 32.787 28.8536 32.7894 28.9882 32.7894C29.27 32.7894 29.5269 32.752 29.7399 32.6794C29.9542 32.6063 30.1408 32.479 30.3058 32.3065C30.4842 32.1205 30.5964 31.9257 30.7038 31.66C30.81 31.3967 30.9004 31.0698 30.9728 30.6888L31.6628 27.0039H32.6716C32.6716 27.0039 32.7566 27.0069 32.7743 26.9198L32.8884 26.3188C32.8964 26.2612 32.8704 26.2253 32.7884 26.2257H31.8094C31.8142 26.2048 31.8587 25.8797 31.9711 25.5737C32.0191 25.443 32.1093 25.3377 32.1858 25.2653C32.2572 25.1964 32.3452 25.1447 32.4423 25.1147C32.5487 25.0836 32.6596 25.0685 32.771 25.07C32.8632 25.07 32.9536 25.0804 33.0226 25.094C33.1175 25.113 33.1544 25.1231 33.1792 25.1301C33.279 25.1588 33.2924 25.131 33.312 25.0853L33.5462 24.4784C33.5702 24.4132 33.5116 24.3857 33.4899 24.3776ZM19.8081 30.6295C19.8081 30.6778 19.7716 30.7172 19.7203 30.7172H18.9083C18.8568 30.7172 18.8203 30.6778 18.8203 30.6295V24.4599C18.8203 24.4117 18.8568 24.3727 18.9083 24.3727H19.7203C19.7716 24.3727 19.8081 24.4117 19.8081 24.4599V30.6295Z" fill="#FFFFFE"/>
</g>
<defs>
<clipPath id="clip0_1055_1711">
<rect width="53" height="35" fill="white" transform="translate(2 12)"/>
</clipPath>
</defs>
</svg>
