<svg width="58" height="58" viewBox="0 0 58 58" fill="none" xmlns="http://www.w3.org/2000/svg">
<path d="M29 7L14.91 8.48185L4 23.0467L29 52L54 23.0467L43.09 8.48185L29 7Z" fill="#F8B30C"/>
<path d="M4 23.0467L29 52L14.1262 23.047L4 23.0467Z" fill="#E96C11"/>
<path d="M43.8737 23.047L29 52L54 23.0467L43.8737 23.047Z" fill="#E96C11"/>
<path d="M14.1262 23.047L29 52L43.8737 23.047H14.1262Z" fill="#F8AD0C"/>
<path d="M14.91 8.48185L14.1262 23.047L29 7L14.91 8.48185Z" fill="#FAD22E"/>
<path d="M43.8737 23.047L43.09 8.48185L29 7L43.8737 23.047Z" fill="#FAD22E"/>
<path d="M43.8737 23.047L54 23.0467L43.09 8.48185L43.8737 23.047Z" fill="#F8AD0C"/>
<path d="M4 23.0467L14.1262 23.047L14.91 8.48185L4 23.0467Z" fill="#F8AD0C"/>
<path d="M29 7L14.1262 23.047H43.8737L29 7Z" fill="#F8EDB7"/>
</svg>
