<svg width="58" height="58" viewBox="0 0 58 58" fill="none" xmlns="http://www.w3.org/2000/svg">
<g clip-path="url(#clip0_1055_1295)">
<path d="M42.9227 41.6542L35.3812 28.9807L42.9227 16.3071L46.5581 28.9807L42.9227 41.6542ZM26.1383 40.4174L16.6628 31.0283H31.7457L39.2871 43.7018L26.1383 40.4174ZM26.1383 17.505L39.2488 14.2206L31.7073 26.8941H16.6244L26.1383 17.505ZM45.3979 8L28.265 12.4435L25.7126 16.8095L20.5692 16.7708L8 28.9807L20.5692 41.1905L25.7126 41.1517L28.265 45.5177L45.3979 50L50 33.3466L47.4087 29.0193L50 24.6918L45.3979 8Z" fill="#C63031"/>
</g>
<defs>
<clipPath id="clip0_1055_1295">
<rect width="42" height="42" fill="white" transform="translate(8 8)"/>
</clipPath>
</defs>
</svg>
