<svg width="58" height="58" viewBox="0 0 58 58" fill="none" xmlns="http://www.w3.org/2000/svg">
<mask id="mask0_1055_1515" style="mask-type:luminance" maskUnits="userSpaceOnUse" x="7" y="8" width="43" height="43">
<path d="M49.9999 51H7V8H49.9999V51Z" fill="white"/>
</mask>
<g mask="url(#mask0_1055_1515)">
<path d="M13.2947 33.0452C13.2947 33.0452 12.5012 29.1014 16.6981 24.3252C20.8955 19.5491 24.0446 17.8124 27.4458 16.9078C27.4458 16.9078 27.4428 16.9095 27.4398 16.9113C27.4441 16.9101 27.4485 16.9089 27.4527 16.9078C27.4527 16.9078 24.7809 18.4638 24.7809 20.8154C24.7809 21.4979 24.8898 21.967 25.0406 22.2803C25.2407 22.6965 25.5575 22.8381 25.842 22.8394C26.0818 22.8408 26.2221 22.7423 26.5253 22.6245V35.3605C26.5253 35.3605 26.5582 35.5658 26.7425 35.8091C27.008 36.159 27.4252 36.586 28.2089 36.5903C29.546 36.5817 31.2276 35.0714 31.2276 35.0714V24.7595C31.2276 23.7104 30.4769 22.4439 29.6813 22.0094C29.6813 22.0094 29.7897 22.0026 29.9652 22.0026C30.4905 22.0025 31.6173 22.0626 32.2452 22.5423C32.4197 22.3402 35.2349 19.1547 40.2442 18.1745C40.2442 18.1745 40.2433 18.1755 40.2417 18.1773C40.2464 18.1764 40.2509 18.1754 40.2554 18.1745C40.2554 18.1745 37.4848 21.4371 36.6164 23.0549C36.4621 23.064 36.4395 26.1244 36.4652 29.1824C36.4901 32.1342 36.5603 35.0843 36.6009 35.2884C36.6009 35.2884 36.8965 35.7278 37.6493 35.7317C38.4984 35.736 39.9294 35.1859 42.1729 32.8277C42.1729 32.8277 42.1137 32.962 41.9947 33.2C41.3517 34.4847 38.9628 38.7912 34.7193 41.2944C34.7194 41.2944 34.7192 41.2945 34.7193 41.2944L31.9664 38.9665L31.896 38.9079L28.8942 42.0908C28.8942 42.0908 28.8925 42.0907 28.8897 42.0904C28.8897 42.0904 22.0458 41.5119 19.1874 37.3873C19.1874 37.3873 19.1927 37.3893 19.2009 37.3923C19.1996 37.3906 19.1985 37.389 19.1974 37.3873C19.1974 37.3873 19.6302 37.5558 20.1187 37.565C20.6911 37.5755 21.2921 37.3664 21.2921 36.41V26.7133C21.2921 26.2181 20.9512 25.6627 20.2029 25.6647C19.5298 25.6665 18.5636 26.1194 17.2442 27.4731C14.4582 30.3312 13.3012 33.0452 13.3012 33.0452C13.3012 33.0452 13.3004 33.0415 13.2992 33.0349C13.2965 33.0413 13.2947 33.0452 13.2947 33.0452ZM28.4973 49.4849C33.8357 49.4849 38.8545 47.406 42.6293 43.6312C46.4041 39.8564 48.4829 34.8376 48.4829 29.4993C48.4829 24.161 46.4041 19.1421 42.6293 15.3673C38.8545 11.5926 33.8357 9.51367 28.4973 9.51367C23.1589 9.51367 18.1401 11.5926 14.3653 15.3673C10.5906 19.1421 8.51172 24.161 8.51172 29.4993C8.51172 34.8376 10.5906 39.8564 14.3653 43.6312C18.1401 47.406 23.1589 49.4849 28.4973 49.4849Z" fill="black"/>
<path d="M28.4999 8.59431C40.0458 8.59431 49.4056 17.9541 49.4056 29.5C49.4056 41.0458 40.0458 50.4056 28.4999 50.4056C16.9541 50.4056 7.59432 41.0458 7.59432 29.5C7.59432 17.9541 16.9541 8.59431 28.4999 8.59431ZM28.4999 51C34.2428 51 39.6419 48.7636 43.7028 44.7028C47.7636 40.6419 49.9999 35.2428 49.9999 29.5C49.9999 23.7571 47.7636 18.358 43.7028 14.2972C39.6419 10.2363 34.2428 8 28.4999 8C22.7571 8 17.358 10.2363 13.2972 14.2972C9.23632 18.358 7 23.7571 7 29.5C7 35.2428 9.23632 40.6419 13.2972 44.7028C17.358 48.7636 22.7571 51 28.4999 51Z" fill="black"/>
</g>
</svg>
