<svg width="58" height="58" viewBox="0 0 58 58" fill="none" xmlns="http://www.w3.org/2000/svg">
<path d="M17.424 5H39.7208C43.8799 5 47.151 8.27103 46.9946 12.2863V36.6659C46.9946 40.6749 43.7298 43.9459 39.7145 43.9459H34.8111L37.488 52.5645L24.5602 43.9459H17.4302C13.2711 43.9459 10 40.6749 10 36.5158V12.2926C9.99378 8.27103 13.2648 5 17.424 5ZM26.0863 31.7562C25.3295 31.3371 24.7228 30.7305 24.2662 29.9299C23.8097 29.1294 23.5845 28.1662 23.5845 27.0466V14.0563C23.5845 13.8562 23.5407 13.6998 23.4469 13.5998C23.3594 13.4934 23.2093 13.4434 22.9966 13.4434H19.6755C19.6005 13.4434 19.5254 13.4559 19.4566 13.4872C19.3878 13.5184 19.3253 13.5622 19.2815 13.6248C19.1752 13.7436 19.1189 13.9 19.1252 14.0626V26.9966C19.1252 29.0668 19.5505 30.7993 20.401 32.2065C21.2516 33.6075 22.3899 34.652 23.8284 35.3399C25.2607 36.0279 26.8618 36.3657 28.6255 36.3657C30.3955 36.3657 31.9966 36.0279 33.4289 35.3587C34.8611 34.6895 35.9994 33.6575 36.85 32.2565C37.7006 30.8556 38.1259 29.1168 38.1259 27.0404V14.0688C38.1259 13.9875 38.1134 13.9062 38.0821 13.8249C38.0509 13.7499 38.0071 13.6748 37.9508 13.6185C37.832 13.4997 37.6756 13.4371 37.4755 13.4371H34.3108C34.1231 13.4371 33.9668 13.4934 33.8542 13.6123C33.7354 13.7311 33.6791 13.8812 33.6791 14.0688V27.0466C33.6791 28.0911 33.4539 29.023 33.0036 29.8298C32.5533 30.6429 31.9466 31.2683 31.1773 31.7124C30.408 32.1565 29.5574 32.3754 28.6318 32.3754C27.6874 32.3816 26.843 32.1752 26.0863 31.7562Z" fill="#315CFD"/>
</svg>
