<svg width="58" height="58" viewBox="0 0 58 58" fill="none" xmlns="http://www.w3.org/2000/svg">
<g clip-path="url(#clip0_1055_1840)">
<path d="M11.7073 36.8887L9.09183 37.8212L8.95264 45.4132L18.0062 42.1858C14.8983 41.1702 12.6318 39.3801 11.7073 36.8887Z" fill="#FDBD39"/>
<path d="M13.0764 28.8594L4 32.0948L9.09182 37.8238L11.7073 36.8913C10.7849 34.4079 11.3542 31.6043 13.0764 28.8594Z" fill="#F69833"/>
<path d="M28.3479 17.9013C16.791 22.0207 9.33922 30.5229 11.7075 36.8884L53.5577 21.97C51.1894 15.6044 39.9047 13.782 28.3479 17.9013Z" fill="#FECF33"/>
<path d="M36.9149 40.9598C48.4717 36.8404 55.936 28.3767 53.5552 21.9727L11.7051 36.8891C14.0858 43.2951 25.3581 45.0791 36.9149 40.9598Z" fill="#EE6723"/>
<path d="M53.5556 21.9707L11.7075 36.8891C12.526 39.0948 15.6526 40.1814 20.036 40.1814C24.3114 40.1814 29.7834 39.1495 35.4881 37.1162C47.0449 32.9968 55.1739 26.3252 53.5556 21.9707Z" fill="#F69833"/>
<path d="M45.2268 18.6797C40.9535 18.6797 35.4795 19.7116 29.7748 21.7449C18.218 25.8642 10.0889 32.5338 11.7072 36.8883L53.5574 21.9699C52.7368 19.7643 49.6123 18.6797 45.2268 18.6797Z" fill="#FDBD39"/>
<path d="M42.9147 45.8168C41.6828 45.8168 39.8671 44.7322 37.5154 42.5914C34.7337 40.0594 31.549 36.3496 28.5429 32.1471C25.539 27.9447 23.071 23.7442 21.5918 20.3162C19.9818 16.582 19.7512 14.2872 20.9083 13.4925C21.1763 13.3141 21.4942 13.2229 21.8183 13.231C22.7593 13.231 24.5958 13.9141 27.9883 17.1739L28.0631 17.2449L28.0527 17.3463C28.0298 17.5814 28.009 17.8166 27.9903 18.0497L27.953 18.5099L27.6206 18.1835C23.9643 14.5892 22.3563 14.202 21.8328 14.202C21.6832 14.202 21.5648 14.2304 21.4796 14.2892C20.9769 14.6338 20.9436 16.3205 22.5059 19.9391C23.958 23.3043 26.3907 27.4419 29.3552 31.5896C32.3218 35.7394 35.4588 39.3925 38.1927 41.8799C41.1385 44.5619 42.466 44.8518 42.9002 44.8518C43.0498 44.8518 43.1703 44.8214 43.2617 44.7586C43.7914 44.3957 43.7914 42.5894 42.0505 38.6931L41.9695 38.5147L42.144 38.4214C42.3185 38.3282 42.4889 38.2369 42.6467 38.1477L42.8566 38.0322L42.9542 38.2471C44.1882 41.0082 45.3433 44.5173 43.8288 45.5553C43.5608 45.7337 43.2409 45.8249 42.9147 45.8168Z" fill="#EE6723"/>
<path d="M37.1954 40.8425L37.1787 41.0533C36.8858 44.5807 36.1172 48.8217 34.1104 48.994C34.0688 48.998 34.0273 48.998 33.9878 48.998C32.625 48.998 31.3349 47.0924 30.157 43.336C29.0393 39.7802 28.173 35.0081 27.718 29.8974C27.261 24.7867 27.2672 19.9396 27.7367 16.248C28.2478 12.226 29.22 10.1258 30.6286 10.0041C30.6701 10.0001 30.7137 9.99805 30.7553 9.99805C31.7441 9.99805 33.2337 11.0907 34.7585 16.1791L33.7634 16.3656C33.2544 14.6668 32.6998 13.2842 32.1492 12.3314C31.6403 11.4536 31.1438 10.9691 30.7553 10.9691C30.7428 10.9691 30.7303 10.9691 30.7158 10.9711C30.105 11.0238 29.2159 12.4672 28.7215 16.3676C28.2603 19.9923 28.254 24.7685 28.7048 29.8123C29.1556 34.8581 30.0074 39.5592 31.1043 43.0501C31.5946 44.6131 32.1326 45.9025 32.6624 46.7762C33.1485 47.583 33.6201 48.027 33.9878 48.027C34.0003 48.027 34.0127 48.027 34.0252 48.025C34.6089 47.9763 35.71 46.4721 36.1733 41.183L37.1954 40.8425Z" fill="#EE6723"/>
</g>
<defs>
<clipPath id="clip0_1055_1840">
<rect width="50" height="39" fill="white" transform="translate(4 10)"/>
</clipPath>
</defs>
</svg>
